<svg width="1000" height="1000" xmlns="http://www.w3.org/2000/svg">
  <rect x="200" y="200" width="600" height="600" fill="none" stroke="gray" stroke-width="5" />
  <circle cx="338.4" cy="378.1" r="3" fill="black" />
  <circle cx="460.3" cy="469.9" r="3" fill="black" />
  <circle cx="278.1" cy="356.2" r="3" fill="black" />
  <circle cx="237.0" cy="358.9" r="3" fill="black" />
  <circle cx="235.6" cy="361.6" r="3" fill="black" />
  <circle cx="446.6" cy="456.2" r="3" fill="black" />
  <circle cx="291.8" cy="367.1" r="3" fill="black" />
  <circle cx="241.1" cy="357.5" r="3" fill="black" />
  <circle cx="502.7" cy="561.6" r="3" fill="black" />
  <circle cx="247.9" cy="353.4" r="3" fill="black" />
  <circle cx="256.2" cy="367.1" r="3" fill="black" />
  <circle cx="405.5" cy="417.8" r="3" fill="black" />
  <circle cx="315.1" cy="365.8" r="3" fill="black" />
  <circle cx="368.5" cy="397.3" r="3" fill="black" />
  <circle cx="268.5" cy="360.3" r="3" fill="black" />
  <circle cx="487.7" cy="513.7" r="3" fill="black" />
  <circle cx="506.8" cy="589.0" r="3" fill="black" />
  <circle cx="304.1" cy="365.8" r="3" fill="black" />
  <circle cx="250.7" cy="364.4" r="3" fill="black" />
  <circle cx="260.3" cy="367.1" r="3" fill="black" />
  <circle cx="235.6" cy="364.4" r="3" fill="black" />
  <circle cx="301.4" cy="367.1" r="3" fill="black" />
  <circle cx="401.4" cy="406.8" r="3" fill="black" />
  <circle cx="271.2" cy="358.9" r="3" fill="black" />
  <circle cx="260.3" cy="350.7" r="3" fill="black" />
  <circle cx="294.5" cy="368.5" r="3" fill="black" />
  <circle cx="408.2" cy="421.9" r="3" fill="black" />
  <circle cx="404.1" cy="412.3" r="3" fill="black" />
  <circle cx="498.6" cy="549.3" r="3" fill="black" />
  <circle cx="272.6" cy="353.4" r="3" fill="black" />
  <circle cx="420.5" cy="432.9" r="3" fill="black" />
  <circle cx="467.1" cy="474.0" r="3" fill="black" />
  <circle cx="391.8" cy="400.0" r="3" fill="black" />
  <circle cx="490.4" cy="521.9" r="3" fill="black" />
  <circle cx="483.6" cy="495.9" r="3" fill="black" />
  <circle cx="237.0" cy="365.8" r="3" fill="black" />
  <circle cx="508.2" cy="591.8" r="3" fill="black" />
  <circle cx="350.7" cy="389.0" r="3" fill="black" />
  <circle cx="437.0" cy="446.6" r="3" fill="black" />
  <circle cx="275.3" cy="360.3" r="3" fill="black" />
  <circle cx="272.6" cy="360.3" r="3" fill="black" />
  <circle cx="238.4" cy="357.5" r="3" fill="black" />
  <circle cx="279.5" cy="360.3" r="3" fill="black" />
  <circle cx="250.7" cy="352.1" r="3" fill="black" />
  <circle cx="508.2" cy="594.5" r="3" fill="black" />
  <circle cx="253.4" cy="365.8" r="3" fill="black" />
  <circle cx="263.0" cy="365.8" r="3" fill="black" />
  <circle cx="411.0" cy="426.0" r="3" fill="black" />
  <circle cx="505.5" cy="582.2" r="3" fill="black" />
  <circle cx="282.2" cy="358.9" r="3" fill="black" />
  <circle cx="450.7" cy="460.3" r="3" fill="black" />
  <circle cx="289.0" cy="365.8" r="3" fill="black" />
  <circle cx="504.1" cy="567.1" r="3" fill="black" />
  <circle cx="271.2" cy="357.5" r="3" fill="black" />
  <circle cx="264.4" cy="364.4" r="3" fill="black" />
  <circle cx="265.8" cy="352.1" r="3" fill="black" />
  <circle cx="311.0" cy="365.8" r="3" fill="black" />
  <circle cx="397.3" cy="402.7" r="3" fill="black" />
  <circle cx="494.5" cy="528.8" r="3" fill="black" />
  <circle cx="254.8" cy="350.7" r="3" fill="black" />
  <circle cx="379.5" cy="398.6" r="3" fill="black" />
  <circle cx="238.4" cy="365.8" r="3" fill="black" />
  <circle cx="243.8" cy="364.4" r="3" fill="black" />
  <circle cx="431.5" cy="442.5" r="3" fill="black" />
  <circle cx="454.8" cy="464.4" r="3" fill="black" />
  <circle cx="326.0" cy="369.9" r="3" fill="black" />
  <circle cx="242.5" cy="357.5" r="3" fill="black" />
  <circle cx="415.1" cy="428.8" r="3" fill="black" />
  <circle cx="506.8" cy="586.3" r="3" fill="black" />
  <circle cx="241.1" cy="365.8" r="3" fill="black" />
  <circle cx="476.7" cy="483.6" r="3" fill="black" />
  <circle cx="497.3" cy="537.0" r="3" fill="black" />
  <circle cx="356.2" cy="393.2" r="3" fill="black" />
  <circle cx="284.9" cy="363.0" r="3" fill="black" />
  <circle cx="242.5" cy="356.2" r="3" fill="black" />
  <circle cx="271.2" cy="357.5" r="3" fill="black" />
  <circle cx="363.0" cy="395.9" r="3" fill="black" />
  <circle cx="343.8" cy="383.6" r="3" fill="black" />
  <circle cx="374.0" cy="397.3" r="3" fill="black" />
  <circle cx="268.5" cy="358.9" r="3" fill="black" />
  <circle cx="479.5" cy="489.0" r="3" fill="black" />
  <circle cx="426.0" cy="437.0" r="3" fill="black" />
  <circle cx="308.2" cy="365.8" r="3" fill="black" />
  <circle cx="243.8" cy="354.8" r="3" fill="black" />
  <circle cx="269.9" cy="357.5" r="3" fill="black" />
  <circle cx="505.5" cy="578.1" r="3" fill="black" />
  <circle cx="498.6" cy="543.8" r="3" fill="black" />
  <circle cx="320.5" cy="367.1" r="3" fill="black" />
  <circle cx="267.1" cy="363.0" r="3" fill="black" />
  <circle cx="243.8" cy="356.2" r="3" fill="black" />
  <circle cx="246.6" cy="364.4" r="3" fill="black" />
  <circle cx="245.2" cy="354.8" r="3" fill="black" />
  <circle cx="486.3" cy="504.1" r="3" fill="black" />
  <circle cx="442.5" cy="450.7" r="3" fill="black" />
  <circle cx="500.0" cy="556.2" r="3" fill="black" />
  <circle cx="504.1" cy="572.6" r="3" fill="black" />
  <circle cx="332.9" cy="374.0" r="3" fill="black" />
  <circle cx="472.6" cy="478.1" r="3" fill="black" />
  <circle cx="384.9" cy="398.6" r="3" fill="black" />
  <circle cx="297.3" cy="368.5" r="3" fill="black" />
  <polyline points="508.2,595.9 506.8,594.5 504.1,591.8 500.0,587.7 494.5,582.2 487.7,575.3 479.5,567.1 469.9,557.5 458.9,546.6 446.6,534.2 432.9,520.5 417.8,505.5 401.4,489.0 383.6,471.2 364.4,452.1 343.8,431.5 324.7,409.6 306.8,386.3 290.4,364.4 275.3,343.8 261.6,324.7 249.3,306.8 238.4,290.4 228.8,275.3 220.5,261.6 213.7,249.3 208.2,238.4 204.1,228.8 201.4,220.5 200.0,213.7 200.0,208.2 201.4,204.1 204.1,201.4 208.2,200.0 213.7,200.0 220.5,201.4 228.8,204.1 238.4,208.2 249.3,213.7 261.6,220.5 275.3,228.8 290.4,238.4 306.8,249.3 324.7,261.6 341.1,275.3 356.2,290.4 369.9,306.8 382.2,324.7 393.2,343.8 402.7,364.4 411.0,383.6 417.8,401.4 423.3,417.8 427.4,432.9 430.1,446.6 431.5,458.9 431.5,469.9 430.1,479.5 427.4,487.7 423.3,494.5 417.8,500.0 411.0,504.1 402.7,506.8 393.2,508.2 382.2,508.2 369.9,506.8 356.2,504.1 341.1,500.0 327.4,494.5 315.1,487.7 304.1,479.5 294.5,469.9 286.3,458.9 279.5,446.6 274.0,432.9 269.9,417.8 267.1,401.4 265.8,383.6 265.8,367.1 267.1,352.1 269.9,338.4 274.0,326.0 279.5,315.1 286.3,305.5 294.5,297.3 304.1,290.4 315.1,284.9 327.4,280.8 338.4,278.1 347.9,276.7 356.2,276.7 363.0,278.1 368.5,280.8 372.6,284.9 375.3,290.4 376.7,297.3 376.7,305.5 375.3,315.1 372.6,326.0 368.5,338.4 363.0,352.1 356.2,367.1 347.9,380.8 338.4,393.2 330.1,404.1 323.3,413.7 317.8,421.9 313.7,428.8 311.0,434.2 309.6,438.4 309.6,441.1 311.0,442.5 313.7,442.5 317.8,441.1 323.3,438.4 330.1,434.2 338.4,428.8 345.2,421.9 350.7,413.7 354.8,404.1 357.5,393.2 358.9,380.8 358.9,369.9 357.5,360.3 354.8,352.1 350.7,345.2 345.2,339.7 338.4,335.6 332.9,332.9 328.8,331.5 326.0,331.5 324.7,332.9 324.7,335.6 326.0,339.7 328.8,345.2 332.9,352.1 338.4,360.3 342.5,369.9 345.2,378.1 346.6,384.9 346.6,390.4 345.2,394.5 342.5,397.3 338.4,398.6 335.6,398.6 334.2,397.3 334.2,394.5 335.6,390.4 338.4,384.9 339.7,378.1 339.7,372.6 338.4,368.5 338.4,365.8 338.4,364.4 338.4,364.4 338.4,365.8 338.4,368.5 338.4,372.6 338.4,378.1 337.0,382.2 334.2,384.9 332.9,386.3 332.9,386.3 332.9,384.9 332.9,382.2 332.9,378.1 332.9,374.0 331.5,369.9 328.8,367.1 326.0,365.8 324.7,365.8 324.7,367.1 326.0,369.9 326.0,371.2 324.7,371.2 321.9,369.9 320.5,367.1 317.8,365.8 315.1,365.8 311.0,365.8 308.2,365.8 304.1,365.8 301.4,367.1 297.3,368.5 294.5,368.5 291.8,367.1 289.0,365.8 284.9,363.0 279.5,360.3 275.3,358.9 272.6,358.9 271.2,360.3 271.2,360.3 272.6,360.3 275.3,360.3 276.7,360.3 276.7,360.3 275.3,360.3 272.6,360.3 271.2,358.9 271.2,357.5 269.9,357.5 268.5,358.9 268.5,360.3 267.1,363.0 264.4,364.4 263.0,365.8 260.3,367.1 256.2,367.1 253.4,365.8 250.7,364.4 246.6,364.4 243.8,364.4 241.1,365.8 238.4,365.8 237.0,365.8 235.6,364.4 235.6,361.6 237.0,358.9 238.4,357.5 241.1,357.5 242.5,356.2 242.5,356.2 242.5,357.5 243.8,357.5 243.8,356.2 243.8,354.8 245.2,354.8 247.9,353.4 250.7,352.1 254.8,350.7 260.3,350.7 265.8,352.1 272.6,353.4 278.1,356.2 282.2,358.9 287.7,363.0 294.5,368.5 302.7,375.3 312.3,383.6 323.3,393.2 335.6,404.1 349.3,416.4 364.4,430.1 380.8,445.2 398.6,461.6 417.8,479.5 438.4,498.6 460.3,519.2 483.6,541.1 508.2,564.4 531.5,589.0 553.4,612.3 574.0,634.2 593.2,654.8 611.0,674.0 627.4,691.8 642.5,708.2 656.2,723.3 668.5,737.0 679.5,749.3 689.0,760.3 697.3,769.9 704.1,778.1 709.6,784.9 713.7,790.4 716.4,794.5 717.8,797.3 717.8,798.6 716.4,798.6 713.7,797.3 709.6,794.5 704.1,790.4 697.3,784.9 689.0,778.1 679.5,769.9 668.5,760.3 656.2,749.3 642.5,737.0 627.4,723.3 611.0,708.2 593.2,691.8 574.0,674.0 553.4,654.8 531.5,634.2 508.2,612.3 486.3,591.8 465.8,572.6 446.6,554.8 428.8,538.4 412.3,523.3 397.3,509.6 383.6,497.3 371.2,486.3 360.3,476.7 350.7,468.5 342.5,461.6 335.6,456.2 330.1,452.1 326.0,449.3 323.3,447.9 321.9,447.9 321.9,449.3 323.3,452.1 326.0,456.2 330.1,461.6 335.6,468.5 342.5,476.7 350.7,486.3 360.3,497.3 371.2,509.6 383.6,523.3 397.3,538.4 412.3,554.8 428.8,572.6 446.6,591.8 465.8,609.6 486.3,626.0 508.2,641.1 528.8,654.8 547.9,667.1 565.8,678.1 582.2,687.7 597.3,695.9 611.0,702.7 623.3,708.2 634.2,712.3 643.8,715.1 652.1,716.4 658.9,716.4 664.4,715.1 668.5,712.3 671.2,708.2 672.6,702.7 672.6,695.9 671.2,687.7 668.5,678.1 664.4,667.1 658.9,654.8 652.1,641.1 643.8,626.0 634.2,609.6 623.3,594.5 611.0,580.8 597.3,568.5 582.2,557.5 565.8,547.9 547.9,539.7 528.8,532.9 508.2,527.4 489.0,523.3 471.2,520.5 454.8,519.2 439.7,519.2 426.0,520.5 413.7,523.3 402.7,527.4 393.2,532.9 384.9,539.7 378.1,547.9 372.6,557.5 368.5,568.5 365.8,580.8 364.4,594.5 364.4,606.8 365.8,617.8 368.5,627.4 372.6,635.6 378.1,642.5 384.9,647.9 393.2,652.1 402.7,654.8 413.7,656.2 426.0,656.2 439.7,654.8 454.8,652.1 471.2,647.9 489.0,642.5 508.2,635.6 526.0,627.4 542.5,617.8 557.5,606.8 571.2,594.5 583.6,583.6 594.5,574.0 604.1,565.8 612.3,558.9 619.2,553.4 624.7,549.3 628.8,546.6 631.5,545.2 632.9,545.2 632.9,546.6 631.5,549.3 628.8,553.4 624.7,558.9 619.2,565.8 612.3,574.0 604.1,583.6 594.5,594.5 583.6,604.1 571.2,612.3 557.5,619.2 542.5,624.7 526.0,628.8 508.2,631.5 491.8,632.9 476.7,632.9 463.0,631.5 450.7,628.8 439.7,624.7 430.1,619.2 421.9,612.3 415.1,604.1 409.6,594.5 405.5,586.3 402.7,579.5 401.4,574.0 401.4,569.9 402.7,567.1 405.5,565.8 409.6,565.8 415.1,567.1 421.9,569.9 430.1,574.0 439.7,579.5 450.7,586.3 463.0,594.5 476.7,601.4 491.8,606.8 508.2,611.0 523.3,613.7 537.0,615.1 549.3,615.1 560.3,613.7 569.9,611.0 578.1,606.8 584.9,601.4 590.4,594.5 594.5,589.0 597.3,584.9 598.6,582.2 598.6,580.8 597.3,580.8 594.5,582.2 590.4,584.9 584.9,589.0 578.1,594.5 569.9,598.6 560.3,601.4 549.3,602.7 537.0,602.7 523.3,601.4 508.2,598.6 494.5,594.5 482.2,591.8 471.2,590.4 461.6,590.4 453.4,591.8 446.6,594.5 441.1,595.9 437.0,595.9 434.2,594.5 432.9,594.5 432.9,594.5 434.2,594.5 437.0,594.5 441.1,594.5 446.6,594.5 453.4,594.5 461.6,594.5 471.2,594.5 482.2,594.5 494.5,594.5 508.2,594.5 520.5,593.2 531.5,591.8 541.1,591.8 549.3,591.8 556.2,591.8 561.6,591.8 565.8,591.8 568.5,591.8 569.9,591.8 569.9,591.8 568.5,591.8 565.8,591.8 561.6,591.8 556.2,591.8 549.3,591.8 541.1,591.8 531.5,591.8 520.5,591.8 508.2,591.8 497.3,590.4 487.7,589.0 479.5,589.0 472.6,589.0 467.1,589.0 463.0,589.0 460.3,589.0 458.9,589.0 458.9,589.0 460.3,589.0 463.0,589.0 467.1,589.0 472.6,589.0 479.5,589.0 487.7,589.0 497.3,589.0 506.8,589.0 515.1,587.7 521.9,586.3 527.4,586.3 531.5,586.3 534.2,586.3 535.6,586.3 535.6,586.3 534.2,586.3 531.5,586.3 527.4,586.3 521.9,586.3 515.1,586.3 506.8,586.3 500.0,584.9 494.5,582.2 490.4,580.8 487.7,580.8 486.3,582.2 486.3,582.2 487.7,582.2 490.4,582.2 494.5,582.2 500.0,582.2 505.5,582.2 509.6,580.8 512.3,578.1 513.7,576.7 513.7,576.7 512.3,578.1 509.6,578.1 505.5,578.1 502.7,576.7 501.4,574.0 501.4,572.6 502.7,572.6 504.1,572.6 504.1,571.2 504.1,568.5 504.1,567.1 502.7,564.4 502.7,561.6 501.4,557.5 500.0,554.8 500.0,553.4 500.0,553.4 500.0,554.8 500.0,556.2 498.6,556.2 498.6,554.8 498.6,552.1 498.6,549.3 498.6,545.2 498.6,542.5 498.6,541.1 498.6,541.1 498.6,542.5 498.6,543.8 497.3,543.8 497.3,542.5 497.3,539.7 497.3,537.0 495.9,532.9 494.5,528.8 491.8,523.3 490.4,519.2 490.4,516.4 490.4,515.1 490.4,515.1 490.4,516.4 490.4,519.2 490.4,521.9 489.0,523.3 487.7,523.3 487.7,521.9 487.7,519.2 487.7,515.1 487.7,512.3 487.7,511.0 487.7,511.0 487.7,512.3 487.7,513.7 486.3,513.7 486.3,512.3 486.3,509.6 486.3,505.5 486.3,502.7 486.3,501.4 486.3,501.4 486.3,502.7 486.3,504.1 484.9,504.1 483.6,502.7 483.6,500.0 483.6,495.9 482.2,490.4 479.5,486.3 478.1,483.6 478.1,482.2 479.5,482.2 479.5,483.6 479.5,486.3 479.5,489.0 478.1,490.4 476.7,490.4 476.7,489.0 476.7,486.3 476.7,483.6 475.3,479.5 472.6,476.7 471.2,475.3 471.2,475.3 472.6,476.7 472.6,478.1 471.2,478.1 468.5,476.7 467.1,474.0 464.4,469.9 460.3,467.1 457.5,465.8 456.2,465.8 456.2,467.1 457.5,469.9 460.3,471.2 461.6,471.2 461.6,469.9 460.3,469.9 457.5,468.5 454.8,465.8 453.4,464.4 453.4,464.4 454.8,464.4 454.8,463.0 453.4,460.3 450.7,458.9 449.3,458.9 449.3,460.3 450.7,460.3 450.7,458.9 449.3,456.2 446.6,454.8 445.2,454.8 445.2,456.2 446.6,456.2 446.6,454.8 445.2,452.1 442.5,450.7 438.4,447.9 435.6,446.6 434.2,446.6 434.2,446.6 435.6,446.6 437.0,446.6 437.0,445.2 435.6,442.5 432.9,441.1 431.5,441.1 431.5,442.5 430.1,442.5 427.4,441.1 426.0,438.4 426.0,437.0 424.7,434.2 421.9,432.9 420.5,432.9 417.8,431.5 415.1,428.8 411.0,426.0 408.2,421.9 405.5,417.8 404.1,412.3 401.4,406.8 397.3,402.7 391.8,400.0 384.9,398.6 379.5,398.6 374.0,397.3 368.5,397.3 363.0,395.9 356.2,393.2 350.7,389.0" fill="none" stroke="red" stroke-width="3" stroke-opacity="0.5"/>
  <circle cx="343.8" cy="383.6" r="50" fill="blue" fill-opacity="0.5"/>
</svg>