<svg width="1000" height="1000" xmlns="http://www.w3.org/2000/svg">
  <rect x="200" y="200" width="600" height="600" fill="white" stroke="gray" stroke-width="5" />
  <circle cx="228.0" cy="205.1" r="7" fill="black" />
  <circle cx="222.9" cy="210.2" r="7" fill="black" />
  <circle cx="217.8" cy="212.7" r="7" fill="black" />
  <circle cx="215.3" cy="215.3" r="7" fill="black" />
  <circle cx="212.7" cy="215.3" r="7" fill="black" />
  <circle cx="210.2" cy="217.8" r="7" fill="black" />
  <circle cx="210.2" cy="217.8" r="7" fill="black" />
  <circle cx="207.6" cy="220.3" r="7" fill="black" />
  <circle cx="202.5" cy="222.9" r="7" fill="black" />
  <circle cx="200.0" cy="228.0" r="7" fill="black" />
  <circle cx="200.0" cy="235.6" r="7" fill="black" />
  <circle cx="200.0" cy="243.2" r="7" fill="black" />
  <circle cx="202.5" cy="248.3" r="7" fill="black" />
  <circle cx="205.1" cy="255.9" r="7" fill="black" />
  <circle cx="205.1" cy="263.6" r="7" fill="black" />
  <circle cx="207.6" cy="271.2" r="7" fill="black" />
  <circle cx="210.2" cy="276.3" r="7" fill="black" />
  <circle cx="210.2" cy="283.9" r="7" fill="black" />
  <circle cx="212.7" cy="294.1" r="7" fill="black" />
  <circle cx="217.8" cy="304.2" r="7" fill="black" />
  <circle cx="222.9" cy="316.9" r="7" fill="black" />
  <circle cx="228.0" cy="327.1" r="7" fill="black" />
  <circle cx="235.6" cy="337.3" r="7" fill="black" />
  <circle cx="243.2" cy="344.9" r="7" fill="black" />
  <circle cx="253.4" cy="350.0" r="7" fill="black" />
  <circle cx="261.0" cy="357.6" r="7" fill="black" />
  <circle cx="266.1" cy="362.7" r="7" fill="black" />
  <circle cx="268.6" cy="367.8" r="7" fill="black" />
  <circle cx="271.2" cy="370.3" r="7" fill="black" />
  <circle cx="276.3" cy="370.3" r="7" fill="black" />
  <circle cx="281.4" cy="372.9" r="7" fill="black" />
  <circle cx="283.9" cy="372.9" r="7" fill="black" />
  <circle cx="286.4" cy="370.3" r="7" fill="black" />
  <circle cx="291.5" cy="370.3" r="7" fill="black" />
  <circle cx="294.1" cy="367.8" r="7" fill="black" />
  <circle cx="299.2" cy="362.7" r="7" fill="black" />
  <circle cx="306.8" cy="360.2" r="7" fill="black" />
  <circle cx="316.9" cy="360.2" r="7" fill="black" />
  <circle cx="329.7" cy="362.7" r="7" fill="black" />
  <circle cx="339.8" cy="362.7" r="7" fill="black" />
  <circle cx="347.5" cy="362.7" r="7" fill="black" />
  <circle cx="357.6" cy="362.7" r="7" fill="black" />
  <circle cx="370.3" cy="360.2" r="7" fill="black" />
  <circle cx="385.6" cy="360.2" r="7" fill="black" />
  <circle cx="398.3" cy="360.2" r="7" fill="black" />
  <circle cx="413.6" cy="357.6" r="7" fill="black" />
  <circle cx="428.8" cy="357.6" r="7" fill="black" />
  <circle cx="446.6" cy="357.6" r="7" fill="black" />
  <circle cx="461.9" cy="357.6" r="7" fill="black" />
  <circle cx="477.1" cy="355.1" r="7" fill="black" />
  <circle cx="494.9" cy="352.5" r="7" fill="black" />
  <circle cx="510.2" cy="352.5" r="7" fill="black" />
  <circle cx="522.9" cy="350.0" r="7" fill="black" />
  <circle cx="535.6" cy="350.0" r="7" fill="black" />
  <circle cx="548.3" cy="350.0" r="7" fill="black" />
  <circle cx="563.6" cy="352.5" r="7" fill="black" />
  <circle cx="578.8" cy="352.5" r="7" fill="black" />
  <circle cx="591.5" cy="350.0" r="7" fill="black" />
  <circle cx="601.7" cy="350.0" r="7" fill="black" />
  <circle cx="611.9" cy="350.0" r="7" fill="black" />
  <circle cx="622.0" cy="347.5" r="7" fill="black" />
  <circle cx="634.7" cy="347.5" r="7" fill="black" />
  <circle cx="644.9" cy="344.9" r="7" fill="black" />
  <circle cx="652.5" cy="339.8" r="7" fill="black" />
  <circle cx="657.6" cy="337.3" r="7" fill="black" />
  <circle cx="665.3" cy="334.7" r="7" fill="black" />
  <circle cx="672.9" cy="329.7" r="7" fill="black" />
  <circle cx="678.0" cy="322.0" r="7" fill="black" />
  <circle cx="683.1" cy="314.4" r="7" fill="black" />
  <circle cx="688.1" cy="309.3" r="7" fill="black" />
  <circle cx="695.8" cy="306.8" r="7" fill="black" />
  <circle cx="698.3" cy="309.3" r="7" fill="black" />
  <circle cx="698.3" cy="311.9" r="7" fill="black" />
  <circle cx="698.3" cy="311.9" r="7" fill="black" />
  <circle cx="698.3" cy="311.9" r="7" fill="black" />
  <circle cx="698.3" cy="314.4" r="7" fill="black" />
  <circle cx="695.8" cy="319.5" r="7" fill="black" />
  <circle cx="690.7" cy="322.0" r="7" fill="black" />
  <circle cx="685.6" cy="327.1" r="7" fill="black" />
  <circle cx="683.1" cy="329.7" r="7" fill="black" />
  <circle cx="680.5" cy="329.7" r="7" fill="black" />
  <circle cx="680.5" cy="332.2" r="7" fill="black" />
  <circle cx="678.0" cy="334.7" r="7" fill="black" />
  <circle cx="672.9" cy="334.7" r="7" fill="black" />
  <circle cx="670.3" cy="337.3" r="7" fill="black" />
  <circle cx="667.8" cy="339.8" r="7" fill="black" />
  <circle cx="667.8" cy="344.9" r="7" fill="black" />
  <circle cx="670.3" cy="350.0" r="7" fill="black" />
  <circle cx="675.4" cy="355.1" r="7" fill="black" />
  <circle cx="678.0" cy="360.2" r="7" fill="black" />
  <circle cx="683.1" cy="362.7" r="7" fill="black" />
  <circle cx="690.7" cy="362.7" r="7" fill="black" />
  <circle cx="698.3" cy="365.3" r="7" fill="black" />
  <circle cx="703.4" cy="367.8" r="7" fill="black" />
  <circle cx="711.0" cy="372.9" r="7" fill="black" />
  <circle cx="718.6" cy="378.0" r="7" fill="black" />
  <circle cx="728.8" cy="383.1" r="7" fill="black" />
  <circle cx="746.6" cy="390.7" r="7" fill="black" />
  <circle cx="756.8" cy="395.8" r="7" fill="black" />
  <circle cx="764.4" cy="403.4" r="7" fill="black" />
  <circle cx="769.5" cy="413.6" r="7" fill="black" />
  <circle cx="772.0" cy="423.7" r="7" fill="black" />
  <circle cx="774.6" cy="436.4" r="7" fill="black" />
  <circle cx="779.7" cy="446.6" r="7" fill="black" />
  <circle cx="784.7" cy="459.3" r="7" fill="black" />
  <circle cx="787.3" cy="474.6" r="7" fill="black" />
  <circle cx="787.3" cy="489.8" r="7" fill="black" />
  <circle cx="787.3" cy="505.1" r="7" fill="black" />
  <circle cx="784.7" cy="520.3" r="7" fill="black" />
  <circle cx="784.7" cy="535.6" r="7" fill="black" />
  <circle cx="787.3" cy="553.4" r="7" fill="black" />
  <circle cx="792.4" cy="568.6" r="7" fill="black" />
  <circle cx="794.9" cy="581.4" r="7" fill="black" />
  <circle cx="797.5" cy="594.1" r="7" fill="black" />
  <circle cx="797.5" cy="609.3" r="7" fill="black" />
  <circle cx="794.9" cy="622.0" r="7" fill="black" />
  <polyline points="235.6,200.0 233.1,202.5 228.0,207.6 222.9,212.7 217.8,215.3 215.3,215.3 215.3,212.7 217.8,212.7 217.8,215.3 215.3,215.3 212.7,215.3 207.6,217.8 205.1,220.3 205.1,220.3 207.6,220.3 210.2,217.8 215.3,212.7 220.3,207.6 225.4,205.1 228.0,205.1 228.0,207.6 225.4,210.2 222.9,210.2 217.8,212.7 212.7,217.8 207.6,222.9 202.5,228.0 200.0,230.5 200.0,230.5 200.0,228.0 202.5,222.9 202.5,220.3 200.0,220.3 200.0,222.9 200.0,228.0 200.0,233.1 200.0,235.6 200.0,240.7 200.0,243.2 202.5,248.3 205.1,253.4 205.1,258.5 205.1,263.6 207.6,268.6 210.2,273.7 210.2,276.3 207.6,276.3 207.6,273.7 207.6,271.2 210.2,271.2 212.7,273.7 212.7,278.8 212.7,283.9 212.7,289.0 212.7,294.1 210.2,296.6 210.2,296.6 210.2,294.1 210.2,289.0 210.2,283.9 207.6,278.8 205.1,273.7 205.1,268.6 205.1,263.6 205.1,258.5 205.1,255.9 207.6,255.9 212.7,258.5 217.8,263.6 220.3,268.6 220.3,273.7 217.8,278.8 217.8,283.9 217.8,289.0 217.8,294.1 217.8,299.2 217.8,304.2 220.3,309.3 225.4,314.4 228.0,319.5 228.0,324.6 228.0,327.1 230.5,332.2 235.6,337.3 240.7,342.4 243.2,344.9 248.3,350.0 253.4,355.1 258.5,360.2 263.6,362.7 266.1,362.7 271.2,365.3 273.7,370.3 273.7,372.9 271.2,372.9 271.2,370.3 268.6,367.8 268.6,367.8 271.2,370.3 276.3,370.3 281.4,372.9 286.4,372.9 289.0,370.3 289.0,370.3 286.4,370.3 283.9,372.9 283.9,372.9 286.4,370.3 291.5,365.3 296.6,362.7 299.2,362.7 299.2,365.3 296.6,370.3 291.5,372.9 289.0,372.9 289.0,370.3 291.5,370.3 296.6,367.8 301.7,362.7 306.8,360.2 311.9,360.2 316.9,360.2 322.0,362.7 327.1,362.7 329.7,362.7 334.7,362.7 339.8,362.7 344.9,362.7 347.5,362.7 352.5,362.7 357.6,362.7 362.7,360.2 367.8,360.2 372.9,360.2 378.0,360.2 383.1,360.2 388.1,360.2 393.2,360.2 398.3,360.2 403.4,357.6 408.5,357.6 413.6,357.6 418.6,357.6 423.7,357.6 428.8,357.6 433.9,357.6 439.0,357.6 444.1,357.6 449.2,357.6 454.2,357.6 459.3,357.6 461.9,357.6 461.9,357.6 459.3,357.6 454.2,357.6 449.2,357.6 446.6,357.6 446.6,355.1 449.2,355.1 454.2,355.1 459.3,355.1 464.4,355.1 469.5,355.1 474.6,355.1 477.1,355.1 482.2,352.5 487.3,352.5 492.4,352.5 497.5,352.5 502.5,352.5 507.6,352.5 510.2,352.5 510.2,352.5 507.6,352.5 502.5,352.5 497.5,352.5 494.9,352.5 494.9,350.0 497.5,350.0 502.5,350.0 507.6,350.0 512.7,350.0 517.8,350.0 522.9,350.0 528.0,350.0 533.1,350.0 535.6,350.0 540.7,352.5 545.8,352.5 550.8,352.5 555.9,352.5 561.0,352.5 563.6,352.5 568.6,352.5 573.7,352.5 578.8,352.5 583.9,350.0 589.0,350.0 594.1,350.0 599.2,350.0 601.7,350.0 601.7,350.0 599.2,350.0 594.1,350.0 591.5,350.0 591.5,350.0 594.1,350.0 599.2,350.0 604.2,350.0 609.3,350.0 611.9,350.0 616.9,347.5 622.0,344.9 627.1,344.9 632.2,344.9 637.3,344.9 642.4,344.9 644.9,344.9 650.0,342.4 655.1,337.3 657.6,334.7 657.6,334.7 657.6,337.3 655.1,339.8 652.5,339.8 652.5,337.3 655.1,334.7 660.2,334.7 665.3,334.7 670.3,334.7 672.9,334.7 678.0,332.2 680.5,332.2 685.6,329.7 688.1,327.1 688.1,327.1 685.6,327.1 680.5,329.7 675.4,329.7 672.9,329.7 672.9,332.2 675.4,334.7 678.0,334.7 683.1,332.2 685.6,329.7 685.6,329.7 683.1,329.7 678.0,327.1 675.4,322.0 675.4,319.5 678.0,319.5 678.0,322.0 675.4,327.1 670.3,332.2 667.8,337.3 667.8,339.8 670.3,339.8 670.3,337.3 670.3,337.3 670.3,339.8 670.3,344.9 670.3,350.0 667.8,352.5 667.8,352.5 667.8,350.0 667.8,344.9 670.3,342.4 675.4,342.4 678.0,344.9 678.0,350.0 675.4,355.1 675.4,360.2 678.0,362.7 683.1,362.7 685.6,360.2 685.6,360.2 683.1,360.2 678.0,360.2 675.4,362.7 675.4,362.7 678.0,362.7 683.1,362.7 688.1,362.7 690.7,362.7 695.8,365.3 700.8,367.8 703.4,367.8 708.5,370.3 711.0,372.9 711.0,372.9 708.5,370.3 703.4,365.3 698.3,362.7 695.8,362.7 695.8,365.3 698.3,365.3 703.4,367.8 708.5,372.9 713.6,378.0 718.6,383.1 723.7,385.6 728.8,385.6 731.4,383.1 731.4,383.1 728.8,383.1 723.7,380.5 718.6,378.0 716.1,378.0 716.1,380.5 718.6,385.6 723.7,390.7 728.8,395.8 733.9,398.3 739.0,398.3 744.1,395.8 749.2,395.8 754.2,395.8 756.8,395.8 756.8,393.2 754.2,390.7 749.2,390.7 746.6,390.7 746.6,393.2 749.2,398.3 754.2,403.4 759.3,408.5 764.4,413.6 769.5,418.6 772.0,423.7 772.0,426.3 769.5,426.3 769.5,423.7 769.5,418.6 769.5,413.6 772.0,411.0 777.1,411.0 779.7,413.6 779.7,418.6 779.7,423.7 779.7,428.8 779.7,433.9 779.7,439.0 779.7,444.1 779.7,446.6 777.1,446.6 774.6,444.1 774.6,439.0 774.6,436.4 777.1,436.4 782.2,439.0 784.7,444.1 784.7,449.2 784.7,454.2 784.7,459.3 787.3,464.4 787.3,469.5 787.3,474.6 787.3,479.7 787.3,484.7 787.3,489.8 784.7,494.9 784.7,500.0 784.7,505.1 784.7,510.2 784.7,515.3 784.7,520.3 787.3,525.4 787.3,530.5 787.3,535.6 787.3,540.7 787.3,545.8 787.3,550.8 787.3,553.4 789.8,558.5 792.4,563.6 792.4,568.6 794.9,573.7 797.5,578.8 797.5,583.9 797.5,589.0 797.5,594.1 797.5,599.2 797.5,604.2 797.5,609.3 794.9,614.4 794.9,619.5 794.9,622.0 792.4,622.0 787.3,619.5 784.7,614.4 784.7,609.3 787.3,604.2 787.3,599.2 787.3,594.1 787.3,589.0 787.3,583.9 787.3,578.8 787.3,573.7 787.3,568.6 787.3,563.6 787.3,558.5 787.3,553.4 787.3,548.3 787.3,543.2 787.3,538.1 787.3,533.1 787.3,528.0 787.3,522.9 787.3,517.8 787.3,512.7 787.3,507.6 787.3,505.1 789.8,505.1 794.9,507.6 797.5,512.7 797.5,517.8 794.9,522.9 794.9,528.0 794.9,533.1 794.9,538.1 794.9,543.2 794.9,548.3 794.9,553.4 794.9,558.5 794.9,563.6 794.9,568.6 794.9,573.7 794.9,578.8 794.9,581.4 792.4,581.4 787.3,578.8 782.2,573.7 777.1,568.6 772.0,563.6 766.9,558.5 764.4,553.4 764.4,548.3 764.4,543.2 764.4,538.1 764.4,533.1 764.4,528.0 764.4,522.9 764.4,517.8 764.4,512.7 764.4,507.6 764.4,502.5 764.4,497.5 764.4,492.4 764.4,487.3 764.4,482.2 764.4,477.1 764.4,472.0 764.4,466.9 764.4,461.9 764.4,456.8 764.4,451.7 764.4,446.6 764.4,441.5 764.4,436.4 764.4,431.4 764.4,426.3 764.4,421.2 764.4,416.1 764.4,411.0 764.4,405.9 764.4,403.4 761.9,398.3 756.8,393.2 751.7,388.1 746.6,383.1 741.5,378.0 736.4,372.9 731.4,367.8 726.3,362.7 721.2,357.6 716.1,352.5 711.0,347.5 705.9,342.4 700.8,337.3 695.8,332.2 690.7,327.1 688.1,322.0 688.1,319.5 690.7,319.5 690.7,322.0 688.1,322.0 683.1,319.5 680.5,314.4 680.5,311.9 683.1,311.9 683.1,314.4 685.6,314.4 690.7,314.4 695.8,314.4 698.3,314.4 698.3,311.9 698.3,309.3 695.8,309.3 695.8,311.9 695.8,316.9 695.8,319.5 693.2,319.5 688.1,316.9 685.6,311.9 685.6,309.3 688.1,309.3 693.2,306.8 695.8,306.8 695.8,309.3 693.2,314.4 688.1,319.5 683.1,324.6 678.0,329.7 672.9,334.7 667.8,339.8 662.7,344.9 657.6,350.0 652.5,352.5 647.5,352.5 642.4,350.0 637.3,350.0 632.2,350.0 627.1,350.0 622.0,350.0 616.9,350.0 611.9,350.0 606.8,350.0 601.7,350.0 596.6,350.0 591.5,350.0 586.4,350.0 581.4,350.0 576.3,350.0 571.2,350.0 566.1,350.0 561.0,350.0 555.9,350.0 550.8,350.0 548.3,350.0 548.3,347.5 550.8,347.5 555.9,347.5 561.0,347.5 566.1,347.5 571.2,347.5 576.3,347.5 581.4,347.5 586.4,347.5 591.5,347.5 596.6,347.5 601.7,347.5 606.8,347.5 611.9,347.5 616.9,347.5 622.0,347.5 627.1,347.5 632.2,347.5 634.7,347.5 634.7,350.0 632.2,355.1 627.1,360.2 622.0,362.7 616.9,362.7 611.9,360.2 606.8,360.2 601.7,360.2 596.6,360.2 591.5,360.2 586.4,360.2 581.4,360.2 576.3,360.2 571.2,360.2 566.1,360.2 561.0,360.2 555.9,360.2 550.8,360.2 545.8,360.2 540.7,360.2 535.6,360.2 530.5,360.2 525.4,360.2 520.3,360.2 515.3,360.2 510.2,360.2 505.1,360.2 500.0,360.2 494.9,360.2 489.8,360.2 484.7,360.2 479.7,360.2 474.6,360.2 469.5,360.2 464.4,360.2 459.3,360.2 454.2,360.2 449.2,360.2 444.1,360.2 439.0,360.2 433.9,360.2 428.8,360.2 423.7,360.2 418.6,360.2 413.6,360.2 408.5,360.2 403.4,360.2 398.3,360.2 393.2,360.2 388.1,360.2 383.1,360.2 378.0,360.2 372.9,360.2 370.3,360.2 365.3,362.7 360.2,367.8 355.1,370.3 350.0,370.3 344.9,367.8 339.8,367.8 334.7,367.8 329.7,367.8 324.6,367.8 319.5,367.8 314.4,367.8 309.3,367.8 304.2,367.8 299.2,367.8 294.1,367.8 289.0,365.3 283.9,360.2 278.8,357.6 273.7,357.6 268.6,357.6 263.6,357.6 261.0,357.6 255.9,355.1 253.4,350.0 253.4,347.5 255.9,347.5 261.0,350.0 266.1,355.1 271.2,360.2 276.3,362.7 281.4,362.7 286.4,360.2 291.5,360.2 296.6,360.2 301.7,360.2 306.8,360.2 311.9,360.2 316.9,360.2 322.0,360.2 327.1,360.2 332.2,360.2 337.3,360.2 342.4,360.2 347.5,360.2 352.5,360.2 357.6,360.2 362.7,360.2 367.8,360.2 372.9,360.2 378.0,360.2 383.1,360.2 385.6,360.2 385.6,357.6 383.1,352.5 378.0,347.5 372.9,342.4 367.8,337.3 362.7,332.2 357.6,327.1 352.5,322.0 347.5,316.9 342.4,314.4 337.3,314.4 332.2,316.9 327.1,316.9 322.0,316.9 316.9,316.9 311.9,316.9 306.8,316.9 301.7,316.9 296.6,316.9 291.5,316.9 286.4,316.9 281.4,316.9 276.3,316.9 271.2,316.9 266.1,316.9 261.0,316.9 255.9,316.9 250.8,316.9 245.8,316.9 240.7,316.9 235.6,316.9 230.5,316.9 225.4,316.9 222.9,316.9 222.9,319.5 225.4,324.6 230.5,329.7 235.6,334.7 240.7,339.8 245.8,344.9 250.8,350.0 255.9,355.1 261.0,360.2 266.1,365.3 271.2,370.3 276.3,375.4 281.4,380.5 286.4,385.6 291.5,390.7 296.6,395.8 301.7,400.8 306.8,405.9 311.9,411.0 316.9,416.1 322.0,421.2 327.1,426.3 332.2,431.4 337.3,436.4 342.4,441.5 347.5,446.6 352.5,451.7 357.6,456.8 362.7,461.9 367.8,466.9 372.9,472.0 378.0,477.1 383.1,482.2 388.1,487.3 393.2,492.4 398.3,497.5 403.4,502.5 408.5,507.6 413.6,512.7 418.6,517.8 423.7,522.9 428.8,528.0 433.9,533.1 439.0,535.6 444.1,535.6 449.2,535.6 454.2,535.6 459.3,535.6 464.4,535.6 469.5,535.6 474.6,535.6 479.7,535.6 484.7,535.6 489.8,535.6 494.9,535.6 500.0,535.6 505.1,535.6 510.2,535.6 515.3,535.6 520.3,535.6 525.4,535.6 530.5,535.6 535.6,535.6 540.7,535.6 545.8,535.6 550.8,535.6 555.9,535.6 561.0,535.6 566.1,535.6 571.2,535.6 576.3,535.6 581.4,535.6 586.4,535.6 591.5,535.6 596.6,535.6 601.7,535.6 606.8,535.6 611.9,535.6 616.9,535.6 622.0,535.6 627.1,535.6 632.2,535.6 637.3,535.6 642.4,535.6 647.5,535.6 652.5,535.6 657.6,535.6 662.7,535.6 667.8,535.6 672.9,535.6 678.0,535.6 683.1,535.6 688.1,535.6 693.2,535.6 698.3,535.6 703.4,535.6 708.5,535.6 713.6,535.6 718.6,535.6 723.7,535.6 728.8,535.6 733.9,535.6 739.0,535.6 744.1,535.6 749.2,535.6 754.2,535.6 759.3,535.6 764.4,535.6 769.5,535.6 774.6,535.6 779.7,535.6" fill="none" stroke="red" stroke-width="7" stroke-opacity="0.5"/>
  <circle cx="784.7" cy="535.6" r="15" fill="blue" fill-opacity="0.5"/>
</svg>