<svg width="1000" height="1000" xmlns="http://www.w3.org/2000/svg">
  <rect x="200" y="200" width="600" height="600" fill="white" stroke="gray" stroke-width="5" />
  <circle cx="200.0" cy="730.4" r="7" fill="black" />
  <circle cx="200.0" cy="727.1" r="7" fill="black" />
  <circle cx="209.9" cy="720.4" r="7" fill="black" />
  <circle cx="209.9" cy="717.1" r="7" fill="black" />
  <circle cx="213.3" cy="707.2" r="7" fill="black" />
  <circle cx="219.9" cy="697.2" r="7" fill="black" />
  <circle cx="226.5" cy="677.3" r="7" fill="black" />
  <circle cx="226.5" cy="667.4" r="7" fill="black" />
  <circle cx="243.1" cy="650.8" r="7" fill="black" />
  <circle cx="246.4" cy="637.6" r="7" fill="black" />
  <circle cx="266.3" cy="621.0" r="7" fill="black" />
  <circle cx="276.2" cy="607.7" r="7" fill="black" />
  <circle cx="302.8" cy="587.8" r="7" fill="black" />
  <circle cx="322.7" cy="574.6" r="7" fill="black" />
  <circle cx="342.5" cy="558.0" r="7" fill="black" />
  <circle cx="365.7" cy="544.8" r="7" fill="black" />
  <circle cx="389.0" cy="534.8" r="7" fill="black" />
  <circle cx="402.2" cy="524.9" r="7" fill="black" />
  <circle cx="415.5" cy="518.2" r="7" fill="black" />
  <circle cx="438.7" cy="508.3" r="7" fill="black" />
  <circle cx="451.9" cy="508.3" r="7" fill="black" />
  <circle cx="468.5" cy="505.0" r="7" fill="black" />
  <circle cx="488.4" cy="501.7" r="7" fill="black" />
  <circle cx="495.0" cy="491.7" r="7" fill="black" />
  <circle cx="505.0" cy="488.4" r="7" fill="black" />
  <circle cx="518.2" cy="475.1" r="7" fill="black" />
  <circle cx="524.9" cy="468.5" r="7" fill="black" />
  <circle cx="528.2" cy="455.2" r="7" fill="black" />
  <circle cx="538.1" cy="442.0" r="7" fill="black" />
  <circle cx="548.1" cy="422.1" r="7" fill="black" />
  <circle cx="554.7" cy="415.5" r="7" fill="black" />
  <circle cx="561.3" cy="395.6" r="7" fill="black" />
  <circle cx="568.0" cy="385.6" r="7" fill="black" />
  <circle cx="577.9" cy="365.7" r="7" fill="black" />
  <circle cx="584.5" cy="359.1" r="7" fill="black" />
  <circle cx="591.2" cy="345.9" r="7" fill="black" />
  <circle cx="597.8" cy="332.6" r="7" fill="black" />
  <circle cx="611.0" cy="319.3" r="7" fill="black" />
  <circle cx="624.3" cy="309.4" r="7" fill="black" />
  <circle cx="634.3" cy="292.8" r="7" fill="black" />
  <circle cx="647.5" cy="282.9" r="7" fill="black" />
  <circle cx="660.8" cy="269.6" r="7" fill="black" />
  <circle cx="674.0" cy="256.4" r="7" fill="black" />
  <circle cx="680.7" cy="246.4" r="7" fill="black" />
  <circle cx="700.6" cy="229.8" r="7" fill="black" />
  <circle cx="713.8" cy="223.2" r="7" fill="black" />
  <circle cx="723.8" cy="216.6" r="7" fill="black" />
  <circle cx="740.3" cy="209.9" r="7" fill="black" />
  <circle cx="753.6" cy="203.3" r="7" fill="black" />
  <circle cx="780.1" cy="200.0" r="7" fill="black" />
  <polyline points="206.6,733.7 203.3,730.4 200.0,730.4 200.0,727.1 203.3,720.4 209.9,717.1 213.3,717.1 213.3,720.4 209.9,720.4 209.9,717.1 213.3,710.5 213.3,707.2 216.6,700.6 219.9,697.2 226.5,690.6 229.8,680.7 229.8,674.0 226.5,670.7 226.5,670.7 226.5,674.0 226.5,677.3 226.5,677.3 226.5,674.0 226.5,667.4 229.8,657.5 236.5,650.8 243.1,647.5 246.4,647.5 246.4,650.8 243.1,650.8 243.1,647.5 246.4,640.9 246.4,637.6 249.7,630.9 256.4,621.0 266.3,614.4 272.9,611.0 276.2,611.0 276.2,614.4 272.9,621.0 266.3,624.3 263.0,624.3 263.0,621.0 266.3,621.0 272.9,617.7 276.2,611.0 276.2,607.7 279.6,601.1 286.2,591.2 296.1,584.5 302.8,581.2 306.1,581.2 306.1,584.5 302.8,587.8 302.8,587.8 306.1,584.5 312.7,577.9 322.7,574.6 335.9,568.0 345.9,558.0 352.5,551.4 355.8,548.1 355.8,548.1 352.5,551.4 345.9,558.0 342.5,561.3 342.5,561.3 342.5,558.0 345.9,551.4 352.5,544.8 362.4,541.4 369.1,541.4 372.4,544.8 372.4,544.8 369.1,544.8 365.7,544.8 365.7,541.4 369.1,534.8 375.7,531.5 385.6,531.5 392.3,534.8 395.6,534.8 395.6,534.8 392.3,534.8 389.0,534.8 389.0,531.5 392.3,524.9 398.9,521.5 402.2,521.5 402.2,524.9 405.5,524.9 412.2,521.5 415.5,518.2 422.1,511.6 432.0,508.3 438.7,508.3 448.6,508.3 455.2,508.3 458.6,508.3 458.6,508.3 455.2,508.3 451.9,508.3 451.9,505.0 455.2,505.0 461.9,505.0 468.5,505.0 478.5,501.7 488.4,501.7 495.0,498.3 498.3,491.7 498.3,488.4 495.0,488.4 495.0,491.7 498.3,491.7 505.0,488.4 514.9,481.8 521.5,475.1 524.9,471.8 524.9,471.8 521.5,475.1 518.2,475.1 518.2,471.8 521.5,468.5 524.9,468.5 528.2,465.2 528.2,458.6 528.2,455.2 531.5,448.6 538.1,442.0 548.1,432.0 554.7,422.1 558.0,415.5 558.0,412.2 554.7,412.2 548.1,415.5 544.8,422.1 544.8,425.4 548.1,425.4 548.1,422.1 551.4,415.5 554.7,412.2 554.7,412.2 554.7,415.5 558.0,415.5 561.3,412.2 561.3,405.5 561.3,395.6 564.6,385.6 568.0,379.0 568.0,375.7 568.0,375.7 568.0,379.0 568.0,385.6 571.3,389.0 577.9,389.0 581.2,385.6 581.2,379.0 577.9,369.1 577.9,362.4 577.9,359.1 577.9,359.1 577.9,362.4 577.9,365.7 581.2,365.7 584.5,362.4 584.5,359.1 587.8,352.5 591.2,345.9 597.8,335.9 601.1,329.3 601.1,326.0 597.8,326.0 597.8,329.3 597.8,332.6 601.1,332.6 607.7,329.3 611.0,322.7 611.0,319.3 614.4,312.7 621.0,309.4 624.3,309.4 630.9,306.1 634.3,299.4 634.3,292.8 637.6,282.9 644.2,276.2 647.5,272.9 647.5,272.9 647.5,276.2 647.5,282.9 650.8,286.2 657.5,286.2 660.8,282.9 660.8,276.2 660.8,269.6 664.1,259.7 670.7,253.0 674.0,249.7 674.0,249.7 674.0,253.0 674.0,256.4 677.3,256.4 680.7,253.0 680.7,246.4 684.0,236.5 690.6,229.8 700.6,226.5 707.2,226.5 710.5,229.8 710.5,229.8 707.2,229.8 700.6,229.8 697.2,226.5 697.2,223.2 700.6,223.2 707.2,223.2 713.8,223.2 723.8,219.9 730.4,216.6 733.7,216.6 733.7,216.6 730.4,216.6 723.8,216.6 720.4,213.3 720.4,209.9 723.8,209.9 730.4,209.9 740.3,209.9 753.6,206.6 763.5,203.3 770.2,203.3 773.5,203.3 773.5,203.3 770.2,203.3 763.5,203.3 753.6,203.3 747.0,200.0 743.6,200.0 743.6,200.0 747.0,200.0 753.6,200.0 763.5,200.0 776.8,200.0 786.7,200.0 793.4,200.0 796.7,200.0 796.7,200.0 793.4,200.0 786.7,200.0" fill="none" stroke="red" stroke-width="7" stroke-opacity="0.5"/>
  <circle cx="780.1" cy="200.0" r="15" fill="blue" fill-opacity="0.5"/>
</svg>