<svg width="1000" height="1000" xmlns="http://www.w3.org/2000/svg">
  <rect x="200" y="200" width="600" height="600" fill="white" stroke="gray" stroke-width="5" />
  <circle cx="618.8" cy="253.5" r="7" fill="black" />
  <circle cx="208.9" cy="363.4" r="7" fill="black" />
  <circle cx="577.2" cy="244.6" r="7" fill="black" />
  <circle cx="577.2" cy="550.5" r="7" fill="black" />
  <circle cx="200.0" cy="425.7" r="7" fill="black" />
  <circle cx="529.7" cy="669.3" r="7" fill="black" />
  <circle cx="407.9" cy="532.7" r="7" fill="black" />
  <circle cx="387.1" cy="253.5" r="7" fill="black" />
  <circle cx="413.9" cy="746.5" r="7" fill="black" />
  <circle cx="357.4" cy="636.6" r="7" fill="black" />
  <circle cx="339.6" cy="684.2" r="7" fill="black" />
  <circle cx="241.6" cy="321.8" r="7" fill="black" />
  <circle cx="256.4" cy="485.1" r="7" fill="black" />
  <circle cx="488.1" cy="413.9" r="7" fill="black" />
  <circle cx="298.0" cy="214.9" r="7" fill="black" />
  <circle cx="503.0" cy="571.3" r="7" fill="black" />
  <circle cx="514.9" cy="443.6" r="7" fill="black" />
  <circle cx="725.7" cy="354.5" r="7" fill="black" />
  <circle cx="425.7" cy="541.6" r="7" fill="black" />
  <circle cx="289.1" cy="743.6" r="7" fill="black" />
  <circle cx="731.7" cy="301.0" r="7" fill="black" />
  <circle cx="627.7" cy="666.3" r="7" fill="black" />
  <circle cx="351.5" cy="250.5" r="7" fill="black" />
  <circle cx="702.0" cy="479.2" r="7" fill="black" />
  <circle cx="773.3" cy="402.0" r="7" fill="black" />
  <circle cx="223.8" cy="399.0" r="7" fill="black" />
  <circle cx="523.8" cy="440.6" r="7" fill="black" />
  <circle cx="776.2" cy="485.1" r="7" fill="black" />
  <circle cx="470.3" cy="517.8" r="7" fill="black" />
  <circle cx="422.8" cy="309.9" r="7" fill="black" />
  <circle cx="523.8" cy="663.4" r="7" fill="black" />
  <circle cx="387.1" cy="217.8" r="7" fill="black" />
  <circle cx="476.2" cy="458.4" r="7" fill="black" />
  <circle cx="217.8" cy="583.2" r="7" fill="black" />
  <circle cx="399.0" cy="214.9" r="7" fill="black" />
  <circle cx="494.1" cy="312.9" r="7" fill="black" />
  <circle cx="737.6" cy="538.6" r="7" fill="black" />
  <circle cx="327.7" cy="372.3" r="7" fill="black" />
  <circle cx="437.6" cy="434.7" r="7" fill="black" />
  <circle cx="508.9" cy="651.5" r="7" fill="black" />
  <circle cx="505.9" cy="339.6" r="7" fill="black" />
  <circle cx="731.7" cy="378.2" r="7" fill="black" />
  <circle cx="253.5" cy="758.4" r="7" fill="black" />
  <circle cx="681.2" cy="298.0" r="7" fill="black" />
  <circle cx="595.0" cy="544.6" r="7" fill="black" />
  <circle cx="203.0" cy="280.2" r="7" fill="black" />
  <circle cx="791.1" cy="675.2" r="7" fill="black" />
  <circle cx="473.3" cy="517.8" r="7" fill="black" />
  <circle cx="491.1" cy="485.1" r="7" fill="black" />
  <circle cx="241.6" cy="702.0" r="7" fill="black" />
  <circle cx="301.0" cy="482.2" r="7" fill="black" />
  <circle cx="277.2" cy="684.2" r="7" fill="black" />
  <circle cx="618.8" cy="737.6" r="7" fill="black" />
  <circle cx="559.4" cy="461.4" r="7" fill="black" />
  <circle cx="345.5" cy="788.1" r="7" fill="black" />
  <circle cx="223.8" cy="250.5" r="7" fill="black" />
  <circle cx="330.7" cy="612.9" r="7" fill="black" />
  <circle cx="719.8" cy="755.4" r="7" fill="black" />
  <circle cx="746.5" cy="612.9" r="7" fill="black" />
  <circle cx="604.0" cy="440.6" r="7" fill="black" />
  <circle cx="301.0" cy="321.8" r="7" fill="black" />
  <circle cx="752.5" cy="262.4" r="7" fill="black" />
  <circle cx="283.2" cy="220.8" r="7" fill="black" />
  <circle cx="669.3" cy="752.5" r="7" fill="black" />
  <circle cx="609.9" cy="568.3" r="7" fill="black" />
  <circle cx="369.3" cy="360.4" r="7" fill="black" />
  <circle cx="669.3" cy="550.5" r="7" fill="black" />
  <circle cx="342.6" cy="378.2" r="7" fill="black" />
  <circle cx="535.6" cy="259.4" r="7" fill="black" />
  <circle cx="419.8" cy="375.2" r="7" fill="black" />
  <circle cx="336.6" cy="618.8" r="7" fill="black" />
  <circle cx="687.1" cy="372.3" r="7" fill="black" />
  <circle cx="559.4" cy="755.4" r="7" fill="black" />
  <circle cx="719.8" cy="410.9" r="7" fill="black" />
  <circle cx="752.5" cy="232.7" r="7" fill="black" />
  <circle cx="577.2" cy="618.8" r="7" fill="black" />
  <circle cx="654.5" cy="369.3" r="7" fill="black" />
  <circle cx="713.9" cy="277.2" r="7" fill="black" />
  <circle cx="609.9" cy="235.6" r="7" fill="black" />
  <circle cx="785.1" cy="363.4" r="7" fill="black" />
  <circle cx="476.2" cy="586.1" r="7" fill="black" />
  <circle cx="342.6" cy="324.8" r="7" fill="black" />
  <circle cx="211.9" cy="262.4" r="7" fill="black" />
  <circle cx="696.0" cy="318.8" r="7" fill="black" />
  <circle cx="443.6" cy="571.3" r="7" fill="black" />
  <circle cx="410.9" cy="731.7" r="7" fill="black" />
  <circle cx="372.3" cy="402.0" r="7" fill="black" />
  <circle cx="532.7" cy="606.9" r="7" fill="black" />
  <circle cx="592.1" cy="301.0" r="7" fill="black" />
  <circle cx="669.3" cy="612.9" r="7" fill="black" />
  <circle cx="675.2" cy="464.4" r="7" fill="black" />
  <circle cx="571.3" cy="523.8" r="7" fill="black" />
  <circle cx="767.3" cy="604.0" r="7" fill="black" />
  <circle cx="538.6" cy="476.2" r="7" fill="black" />
  <circle cx="788.1" cy="405.0" r="7" fill="black" />
  <circle cx="737.6" cy="648.5" r="7" fill="black" />
  <circle cx="425.7" cy="583.2" r="7" fill="black" />
  <circle cx="452.5" cy="452.5" r="7" fill="black" />
  <circle cx="550.5" cy="390.1" r="7" fill="black" />
  <circle cx="648.5" cy="256.4" r="7" fill="black" />
  <circle cx="372.3" cy="636.6" r="7" fill="black" />
  <circle cx="580.2" cy="238.6" r="7" fill="black" />
  <circle cx="604.0" cy="618.8" r="7" fill="black" />
  <circle cx="244.6" cy="235.6" r="7" fill="black" />
  <circle cx="651.5" cy="797.0" r="7" fill="black" />
  <circle cx="473.3" cy="577.2" r="7" fill="black" />
  <circle cx="274.3" cy="241.6" r="7" fill="black" />
  <circle cx="458.4" cy="452.5" r="7" fill="black" />
  <circle cx="553.5" cy="719.8" r="7" fill="black" />
  <circle cx="200.0" cy="416.8" r="7" fill="black" />
  <circle cx="220.8" cy="553.5" r="7" fill="black" />
  <circle cx="565.3" cy="681.2" r="7" fill="black" />
  <circle cx="719.8" cy="280.2" r="7" fill="black" />
  <circle cx="378.2" cy="571.3" r="7" fill="black" />
  <circle cx="526.7" cy="707.9" r="7" fill="black" />
  <circle cx="292.1" cy="639.6" r="7" fill="black" />
  <circle cx="779.2" cy="654.5" r="7" fill="black" />
  <circle cx="505.9" cy="630.7" r="7" fill="black" />
  <circle cx="621.8" cy="330.7" r="7" fill="black" />
  <circle cx="696.0" cy="405.0" r="7" fill="black" />
  <circle cx="336.6" cy="514.9" r="7" fill="black" />
  <circle cx="241.6" cy="577.2" r="7" fill="black" />
  <circle cx="268.3" cy="312.9" r="7" fill="black" />
  <circle cx="568.3" cy="660.4" r="7" fill="black" />
  <circle cx="758.4" cy="360.4" r="7" fill="black" />
  <circle cx="298.0" cy="306.9" r="7" fill="black" />
  <circle cx="669.3" cy="559.4" r="7" fill="black" />
  <circle cx="416.8" cy="544.6" r="7" fill="black" />
  <circle cx="737.6" cy="725.7" r="7" fill="black" />
  <circle cx="788.1" cy="318.8" r="7" fill="black" />
  <circle cx="586.1" cy="277.2" r="7" fill="black" />
  <circle cx="755.4" cy="339.6" r="7" fill="black" />
  <circle cx="740.6" cy="312.9" r="7" fill="black" />
  <circle cx="298.0" cy="523.8" r="7" fill="black" />
  <circle cx="428.7" cy="497.0" r="7" fill="black" />
  <circle cx="562.4" cy="369.3" r="7" fill="black" />
  <circle cx="321.8" cy="494.1" r="7" fill="black" />
  <circle cx="223.8" cy="434.7" r="7" fill="black" />
  <circle cx="526.7" cy="306.9" r="7" fill="black" />
  <circle cx="508.9" cy="710.9" r="7" fill="black" />
  <circle cx="384.2" cy="238.6" r="7" fill="black" />
  <circle cx="384.2" cy="321.8" r="7" fill="black" />
  <circle cx="767.3" cy="675.2" r="7" fill="black" />
  <circle cx="672.3" cy="440.6" r="7" fill="black" />
  <circle cx="660.4" cy="348.5" r="7" fill="black" />
  <circle cx="203.0" cy="725.7" r="7" fill="black" />
  <circle cx="464.4" cy="788.1" r="7" fill="black" />
  <circle cx="491.1" cy="707.9" r="7" fill="black" />
  <circle cx="719.8" cy="318.8" r="7" fill="black" />
  <circle cx="223.8" cy="289.1" r="7" fill="black" />
  <circle cx="598.0" cy="393.1" r="7" fill="black" />
  <circle cx="431.7" cy="203.0" r="7" fill="black" />
  <circle cx="731.7" cy="761.4" r="7" fill="black" />
  <circle cx="612.9" cy="482.2" r="7" fill="black" />
  <circle cx="208.9" cy="324.8" r="7" fill="black" />
  <circle cx="485.1" cy="226.7" r="7" fill="black" />
  <circle cx="330.7" cy="226.7" r="7" fill="black" />
  <circle cx="217.8" cy="375.2" r="7" fill="black" />
  <circle cx="458.4" cy="351.5" r="7" fill="black" />
  <circle cx="455.4" cy="663.4" r="7" fill="black" />
  <circle cx="405.0" cy="277.2" r="7" fill="black" />
  <circle cx="520.8" cy="208.9" r="7" fill="black" />
  <circle cx="324.8" cy="583.2" r="7" fill="black" />
  <circle cx="443.6" cy="250.5" r="7" fill="black" />
  <circle cx="491.1" cy="523.8" r="7" fill="black" />
  <circle cx="520.8" cy="238.6" r="7" fill="black" />
  <circle cx="636.6" cy="746.5" r="7" fill="black" />
  <circle cx="556.4" cy="440.6" r="7" fill="black" />
  <circle cx="268.3" cy="728.7" r="7" fill="black" />
  <circle cx="562.4" cy="244.6" r="7" fill="black" />
  <circle cx="630.7" cy="220.8" r="7" fill="black" />
  <circle cx="669.3" cy="479.2" r="7" fill="black" />
  <circle cx="598.0" cy="788.1" r="7" fill="black" />
  <circle cx="473.3" cy="633.7" r="7" fill="black" />
  <circle cx="455.4" cy="713.9" r="7" fill="black" />
  <circle cx="280.2" cy="289.1" r="7" fill="black" />
  <circle cx="589.1" cy="407.9" r="7" fill="black" />
  <circle cx="238.6" cy="696.0" r="7" fill="black" />
  <circle cx="535.6" cy="419.8" r="7" fill="black" />
  <circle cx="327.7" cy="538.6" r="7" fill="black" />
  <circle cx="226.7" cy="651.5" r="7" fill="black" />
  <circle cx="636.6" cy="256.4" r="7" fill="black" />
  <circle cx="770.3" cy="413.9" r="7" fill="black" />
  <circle cx="407.9" cy="431.7" r="7" fill="black" />
  <circle cx="250.5" cy="381.2" r="7" fill="black" />
  <circle cx="375.2" cy="722.8" r="7" fill="black" />
  <circle cx="467.3" cy="657.4" r="7" fill="black" />
  <circle cx="306.9" cy="289.1" r="7" fill="black" />
  <circle cx="295.0" cy="410.9" r="7" fill="black" />
  <circle cx="672.3" cy="431.7" r="7" fill="black" />
  <circle cx="705.0" cy="470.3" r="7" fill="black" />
  <circle cx="770.3" cy="488.1" r="7" fill="black" />
  <circle cx="253.5" cy="256.4" r="7" fill="black" />
  <circle cx="458.4" cy="642.6" r="7" fill="black" />
  <circle cx="773.3" cy="304.0" r="7" fill="black" />
  <circle cx="292.1" cy="274.3" r="7" fill="black" />
  <circle cx="491.1" cy="440.6" r="7" fill="black" />
  <circle cx="773.3" cy="434.7" r="7" fill="black" />
  <circle cx="687.1" cy="413.9" r="7" fill="black" />
  <circle cx="467.3" cy="648.5" r="7" fill="black" />
  <circle cx="770.3" cy="229.7" r="7" fill="black" />
  <circle cx="728.7" cy="253.5" r="7" fill="black" />
  <circle cx="298.0" cy="583.2" r="7" fill="black" />
  <circle cx="571.3" cy="633.7" r="7" fill="black" />
  <circle cx="301.0" cy="419.8" r="7" fill="black" />
  <circle cx="214.9" cy="473.3" r="7" fill="black" />
  <circle cx="595.0" cy="431.7" r="7" fill="black" />
  <circle cx="226.7" cy="675.2" r="7" fill="black" />
  <circle cx="461.4" cy="609.9" r="7" fill="black" />
  <circle cx="779.2" cy="369.3" r="7" fill="black" />
  <circle cx="737.6" cy="280.2" r="7" fill="black" />
  <circle cx="526.7" cy="684.2" r="7" fill="black" />
  <circle cx="538.6" cy="250.5" r="7" fill="black" />
  <circle cx="541.6" cy="476.2" r="7" fill="black" />
  <circle cx="410.9" cy="464.4" r="7" fill="black" />
  <circle cx="785.1" cy="211.9" r="7" fill="black" />
  <circle cx="535.6" cy="511.9" r="7" fill="black" />
  <circle cx="491.1" cy="208.9" r="7" fill="black" />
  <circle cx="505.9" cy="702.0" r="7" fill="black" />
  <circle cx="247.5" cy="553.5" r="7" fill="black" />
  <circle cx="580.2" cy="286.1" r="7" fill="black" />
  <circle cx="330.7" cy="719.8" r="7" fill="black" />
  <circle cx="636.6" cy="280.2" r="7" fill="black" />
  <circle cx="669.3" cy="606.9" r="7" fill="black" />
  <circle cx="390.1" cy="410.9" r="7" fill="black" />
  <circle cx="746.5" cy="779.2" r="7" fill="black" />
  <circle cx="666.3" cy="214.9" r="7" fill="black" />
  <circle cx="250.5" cy="452.5" r="7" fill="black" />
  <circle cx="636.6" cy="321.8" r="7" fill="black" />
  <circle cx="348.5" cy="592.1" r="7" fill="black" />
  <circle cx="345.5" cy="416.8" r="7" fill="black" />
  <circle cx="274.3" cy="755.4" r="7" fill="black" />
  <circle cx="598.0" cy="479.2" r="7" fill="black" />
  <circle cx="678.2" cy="621.8" r="7" fill="black" />
  <circle cx="345.5" cy="339.6" r="7" fill="black" />
  <circle cx="256.4" cy="746.5" r="7" fill="black" />
  <circle cx="592.1" cy="440.6" r="7" fill="black" />
  <circle cx="280.2" cy="422.8" r="7" fill="black" />
  <circle cx="737.6" cy="304.0" r="7" fill="black" />
  <circle cx="292.1" cy="271.3" r="7" fill="black" />
  <circle cx="565.3" cy="538.6" r="7" fill="black" />
  <circle cx="283.2" cy="734.7" r="7" fill="black" />
  <circle cx="306.9" cy="223.8" r="7" fill="black" />
  <circle cx="624.8" cy="333.7" r="7" fill="black" />
  <circle cx="357.4" cy="327.7" r="7" fill="black" />
  <circle cx="434.7" cy="702.0" r="7" fill="black" />
  <circle cx="776.2" cy="289.1" r="7" fill="black" />
  <circle cx="271.3" cy="301.0" r="7" fill="black" />
  <circle cx="485.1" cy="785.1" r="7" fill="black" />
  <circle cx="410.9" cy="746.5" r="7" fill="black" />
  <circle cx="642.6" cy="651.5" r="7" fill="black" />
  <circle cx="485.1" cy="470.3" r="7" fill="black" />
  <circle cx="639.6" cy="467.3" r="7" fill="black" />
  <circle cx="776.2" cy="770.3" r="7" fill="black" />
  <circle cx="740.6" cy="226.7" r="7" fill="black" />
  <circle cx="565.3" cy="384.2" r="7" fill="black" />
  <circle cx="497.0" cy="672.3" r="7" fill="black" />
  <circle cx="636.6" cy="220.8" r="7" fill="black" />
  <circle cx="749.5" cy="725.7" r="7" fill="black" />
  <circle cx="458.4" cy="330.7" r="7" fill="black" />
  <circle cx="654.5" cy="645.5" r="7" fill="black" />
  <circle cx="636.6" cy="636.6" r="7" fill="black" />
  <circle cx="259.4" cy="277.2" r="7" fill="black" />
  <circle cx="396.0" cy="785.1" r="7" fill="black" />
  <circle cx="684.2" cy="330.7" r="7" fill="black" />
  <circle cx="431.7" cy="755.4" r="7" fill="black" />
  <circle cx="586.1" cy="740.6" r="7" fill="black" />
  <circle cx="553.5" cy="482.2" r="7" fill="black" />
  <circle cx="461.4" cy="681.2" r="7" fill="black" />
  <circle cx="577.2" cy="292.1" r="7" fill="black" />
  <circle cx="458.4" cy="482.2" r="7" fill="black" />
  <circle cx="366.3" cy="312.9" r="7" fill="black" />
  <circle cx="755.4" cy="716.8" r="7" fill="black" />
  <circle cx="627.7" cy="529.7" r="7" fill="black" />
  <circle cx="301.0" cy="508.9" r="7" fill="black" />
  <circle cx="348.5" cy="630.7" r="7" fill="black" />
  <circle cx="449.5" cy="505.9" r="7" fill="black" />
  <circle cx="687.1" cy="443.6" r="7" fill="black" />
  <circle cx="235.6" cy="511.9" r="7" fill="black" />
  <circle cx="268.3" cy="725.7" r="7" fill="black" />
  <circle cx="396.0" cy="675.2" r="7" fill="black" />
  <circle cx="630.7" cy="785.1" r="7" fill="black" />
  <circle cx="687.1" cy="722.8" r="7" fill="black" />
  <circle cx="571.3" cy="405.0" r="7" fill="black" />
  <circle cx="205.9" cy="508.9" r="7" fill="black" />
  <circle cx="601.0" cy="740.6" r="7" fill="black" />
  <circle cx="485.1" cy="678.2" r="7" fill="black" />
  <circle cx="592.1" cy="324.8" r="7" fill="black" />
  <circle cx="500.0" cy="357.4" r="7" fill="black" />
  <circle cx="782.2" cy="259.4" r="7" fill="black" />
  <circle cx="523.8" cy="672.3" r="7" fill="black" />
  <circle cx="663.4" cy="443.6" r="7" fill="black" />
  <circle cx="416.8" cy="232.7" r="7" fill="black" />
  <circle cx="232.7" cy="657.4" r="7" fill="black" />
  <circle cx="321.8" cy="612.9" r="7" fill="black" />
  <circle cx="615.8" cy="327.7" r="7" fill="black" />
  <circle cx="702.0" cy="618.8" r="7" fill="black" />
  <circle cx="217.8" cy="508.9" r="7" fill="black" />
  <circle cx="526.7" cy="446.5" r="7" fill="black" />
  <circle cx="214.9" cy="722.8" r="7" fill="black" />
  <circle cx="791.1" cy="776.2" r="7" fill="black" />
  <circle cx="256.4" cy="271.3" r="7" fill="black" />
  <circle cx="247.5" cy="301.0" r="7" fill="black" />
  <circle cx="773.3" cy="396.0" r="7" fill="black" />
  <circle cx="440.6" cy="601.0" r="7" fill="black" />
  <circle cx="612.9" cy="247.5" r="7" fill="black" />
  <circle cx="713.9" cy="660.4" r="7" fill="black" />
  <circle cx="315.8" cy="488.1" r="7" fill="black" />
  <circle cx="770.3" cy="654.5" r="7" fill="black" />
  <circle cx="725.7" cy="791.1" r="7" fill="black" />
  <circle cx="773.3" cy="666.3" r="7" fill="black" />
  <circle cx="684.2" cy="315.8" r="7" fill="black" />
  <circle cx="526.7" cy="577.2" r="7" fill="black" />
  <circle cx="500.0" cy="268.3" r="7" fill="black" />
  <circle cx="764.4" cy="660.4" r="7" fill="black" />
  <circle cx="645.5" cy="571.3" r="7" fill="black" />
  <circle cx="295.0" cy="687.1" r="7" fill="black" />
  <circle cx="651.5" cy="612.9" r="7" fill="black" />
  <circle cx="788.1" cy="505.9" r="7" fill="black" />
  <circle cx="627.7" cy="523.8" r="7" fill="black" />
  <circle cx="526.7" cy="574.3" r="7" fill="black" />
  <circle cx="687.1" cy="612.9" r="7" fill="black" />
  <circle cx="437.6" cy="217.8" r="7" fill="black" />
  <circle cx="511.9" cy="312.9" r="7" fill="black" />
  <circle cx="773.3" cy="503.0" r="7" fill="black" />
  <circle cx="523.8" cy="648.5" r="7" fill="black" />
  <circle cx="422.8" cy="324.8" r="7" fill="black" />
  <circle cx="654.5" cy="734.7" r="7" fill="black" />
  <circle cx="520.8" cy="541.6" r="7" fill="black" />
  <circle cx="636.6" cy="405.0" r="7" fill="black" />
  <circle cx="538.6" cy="532.7" r="7" fill="black" />
  <circle cx="393.1" cy="440.6" r="7" fill="black" />
  <circle cx="268.3" cy="651.5" r="7" fill="black" />
  <circle cx="244.6" cy="262.4" r="7" fill="black" />
  <circle cx="660.4" cy="250.5" r="7" fill="black" />
  <circle cx="500.0" cy="306.9" r="7" fill="black" />
  <circle cx="580.2" cy="672.3" r="7" fill="black" />
  <circle cx="612.9" cy="500.0" r="7" fill="black" />
  <circle cx="211.9" cy="336.6" r="7" fill="black" />
  <circle cx="238.6" cy="782.2" r="7" fill="black" />
  <circle cx="713.9" cy="324.8" r="7" fill="black" />
  <circle cx="609.9" cy="333.7" r="7" fill="black" />
  <circle cx="440.6" cy="624.8" r="7" fill="black" />
  <circle cx="574.3" cy="666.3" r="7" fill="black" />
  <circle cx="402.0" cy="767.3" r="7" fill="black" />
  <circle cx="547.5" cy="214.9" r="7" fill="black" />
  <circle cx="568.3" cy="464.4" r="7" fill="black" />
  <circle cx="758.4" cy="419.8" r="7" fill="black" />
  <circle cx="235.6" cy="592.1" r="7" fill="black" />
  <circle cx="348.5" cy="452.5" r="7" fill="black" />
  <circle cx="265.3" cy="214.9" r="7" fill="black" />
  <circle cx="562.4" cy="526.7" r="7" fill="black" />
  <circle cx="387.1" cy="520.8" r="7" fill="black" />
  <circle cx="280.2" cy="286.1" r="7" fill="black" />
  <circle cx="684.2" cy="416.8" r="7" fill="black" />
  <circle cx="253.5" cy="612.9" r="7" fill="black" />
  <circle cx="624.8" cy="654.5" r="7" fill="black" />
  <circle cx="749.5" cy="232.7" r="7" fill="black" />
  <circle cx="606.9" cy="612.9" r="7" fill="black" />
  <circle cx="324.8" cy="725.7" r="7" fill="black" />
  <circle cx="654.5" cy="589.1" r="7" fill="black" />
  <circle cx="627.7" cy="366.3" r="7" fill="black" />
  <circle cx="514.9" cy="666.3" r="7" fill="black" />
  <circle cx="595.0" cy="211.9" r="7" fill="black" />
  <circle cx="458.4" cy="407.9" r="7" fill="black" />
  <circle cx="292.1" cy="422.8" r="7" fill="black" />
  <circle cx="306.9" cy="621.8" r="7" fill="black" />
  <circle cx="479.2" cy="431.7" r="7" fill="black" />
  <circle cx="737.6" cy="716.8" r="7" fill="black" />
  <circle cx="485.1" cy="304.0" r="7" fill="black" />
  <circle cx="434.7" cy="381.2" r="7" fill="black" />
  <circle cx="722.8" cy="431.7" r="7" fill="black" />
  <circle cx="283.2" cy="764.4" r="7" fill="black" />
  <circle cx="470.3" cy="693.1" r="7" fill="black" />
  <circle cx="636.6" cy="467.3" r="7" fill="black" />
  <circle cx="208.9" cy="731.7" r="7" fill="black" />
  <circle cx="393.1" cy="286.1" r="7" fill="black" />
  <circle cx="393.1" cy="289.1" r="7" fill="black" />
  <circle cx="488.1" cy="339.6" r="7" fill="black" />
  <circle cx="396.0" cy="592.1" r="7" fill="black" />
  <circle cx="624.8" cy="289.1" r="7" fill="black" />
  <circle cx="604.0" cy="598.0" r="7" fill="black" />
  <circle cx="217.8" cy="743.6" r="7" fill="black" />
  <circle cx="256.4" cy="351.5" r="7" fill="black" />
  <circle cx="286.1" cy="289.1" r="7" fill="black" />
  <circle cx="598.0" cy="381.2" r="7" fill="black" />
  <circle cx="586.1" cy="407.9" r="7" fill="black" />
  <circle cx="443.6" cy="407.9" r="7" fill="black" />
  <circle cx="470.3" cy="592.1" r="7" fill="black" />
  <circle cx="707.9" cy="262.4" r="7" fill="black" />
  <circle cx="381.2" cy="636.6" r="7" fill="black" />
  <circle cx="654.5" cy="422.8" r="7" fill="black" />
  <circle cx="410.9" cy="369.3" r="7" fill="black" />
  <circle cx="265.3" cy="461.4" r="7" fill="black" />
  <circle cx="321.8" cy="523.8" r="7" fill="black" />
  <circle cx="229.7" cy="595.0" r="7" fill="black" />
  <circle cx="606.9" cy="354.5" r="7" fill="black" />
  <circle cx="627.7" cy="615.8" r="7" fill="black" />
  <circle cx="366.3" cy="788.1" r="7" fill="black" />
  <circle cx="541.6" cy="363.4" r="7" fill="black" />
  <circle cx="211.9" cy="488.1" r="7" fill="black" />
  <circle cx="396.0" cy="238.6" r="7" fill="black" />
  <circle cx="535.6" cy="321.8" r="7" fill="black" />
  <circle cx="479.2" cy="375.2" r="7" fill="black" />
  <circle cx="538.6" cy="550.5" r="7" fill="black" />
  <circle cx="559.4" cy="232.7" r="7" fill="black" />
  <circle cx="678.2" cy="636.6" r="7" fill="black" />
  <circle cx="431.7" cy="684.2" r="7" fill="black" />
  <circle cx="663.4" cy="511.9" r="7" fill="black" />
  <circle cx="289.1" cy="505.9" r="7" fill="black" />
  <circle cx="532.7" cy="339.6" r="7" fill="black" />
  <circle cx="601.0" cy="410.9" r="7" fill="black" />
  <circle cx="666.3" cy="693.1" r="7" fill="black" />
  <circle cx="467.3" cy="345.5" r="7" fill="black" />
  <circle cx="256.4" cy="642.6" r="7" fill="black" />
  <circle cx="461.4" cy="336.6" r="7" fill="black" />
  <circle cx="366.3" cy="223.8" r="7" fill="black" />
  <circle cx="446.5" cy="743.6" r="7" fill="black" />
  <circle cx="217.8" cy="304.0" r="7" fill="black" />
  <circle cx="791.1" cy="672.3" r="7" fill="black" />
  <circle cx="755.4" cy="205.9" r="7" fill="black" />
  <circle cx="690.1" cy="609.9" r="7" fill="black" />
  <circle cx="565.3" cy="758.4" r="7" fill="black" />
  <circle cx="396.0" cy="446.5" r="7" fill="black" />
  <circle cx="203.0" cy="262.4" r="7" fill="black" />
  <circle cx="583.2" cy="482.2" r="7" fill="black" />
  <circle cx="357.4" cy="405.0" r="7" fill="black" />
  <circle cx="508.9" cy="517.8" r="7" fill="black" />
  <circle cx="241.6" cy="357.4" r="7" fill="black" />
  <circle cx="271.3" cy="648.5" r="7" fill="black" />
  <circle cx="678.2" cy="268.3" r="7" fill="black" />
  <circle cx="363.4" cy="256.4" r="7" fill="black" />
  <circle cx="405.0" cy="333.7" r="7" fill="black" />
  <circle cx="217.8" cy="785.1" r="7" fill="black" />
  <circle cx="627.7" cy="672.3" r="7" fill="black" />
  <circle cx="660.4" cy="342.6" r="7" fill="black" />
  <circle cx="702.0" cy="550.5" r="7" fill="black" />
  <circle cx="606.9" cy="529.7" r="7" fill="black" />
  <circle cx="791.1" cy="339.6" r="7" fill="black" />
  <circle cx="223.8" cy="351.5" r="7" fill="black" />
  <circle cx="776.2" cy="702.0" r="7" fill="black" />
  <circle cx="253.5" cy="259.4" r="7" fill="black" />
  <circle cx="586.1" cy="606.9" r="7" fill="black" />
  <circle cx="250.5" cy="592.1" r="7" fill="black" />
  <circle cx="226.7" cy="571.3" r="7" fill="black" />
  <circle cx="330.7" cy="259.4" r="7" fill="black" />
  <circle cx="295.0" cy="402.0" r="7" fill="black" />
  <circle cx="517.8" cy="523.8" r="7" fill="black" />
  <circle cx="366.3" cy="705.0" r="7" fill="black" />
  <circle cx="354.5" cy="375.2" r="7" fill="black" />
  <circle cx="737.6" cy="681.2" r="7" fill="black" />
  <circle cx="309.9" cy="699.0" r="7" fill="black" />
  <circle cx="794.1" cy="265.3" r="7" fill="black" />
  <circle cx="476.2" cy="416.8" r="7" fill="black" />
  <circle cx="396.0" cy="651.5" r="7" fill="black" />
  <circle cx="642.6" cy="500.0" r="7" fill="black" />
  <circle cx="250.5" cy="226.7" r="7" fill="black" />
  <circle cx="306.9" cy="461.4" r="7" fill="black" />
  <circle cx="223.8" cy="247.5" r="7" fill="black" />
  <circle cx="580.2" cy="491.1" r="7" fill="black" />
  <circle cx="437.6" cy="491.1" r="7" fill="black" />
  <circle cx="437.6" cy="482.2" r="7" fill="black" />
  <circle cx="223.8" cy="402.0" r="7" fill="black" />
  <circle cx="277.2" cy="601.0" r="7" fill="black" />
  <circle cx="666.3" cy="651.5" r="7" fill="black" />
  <circle cx="452.5" cy="378.2" r="7" fill="black" />
  <circle cx="384.2" cy="615.8" r="7" fill="black" />
  <circle cx="217.8" cy="707.9" r="7" fill="black" />
  <circle cx="253.5" cy="265.3" r="7" fill="black" />
  <circle cx="728.7" cy="479.2" r="7" fill="black" />
  <circle cx="265.3" cy="580.2" r="7" fill="black" />
  <circle cx="785.1" cy="737.6" r="7" fill="black" />
  <circle cx="565.3" cy="336.6" r="7" fill="black" />
  <circle cx="229.7" cy="627.7" r="7" fill="black" />
  <circle cx="556.4" cy="601.0" r="7" fill="black" />
  <circle cx="387.1" cy="283.2" r="7" fill="black" />
  <circle cx="556.4" cy="595.0" r="7" fill="black" />
  <circle cx="375.2" cy="702.0" r="7" fill="black" />
  <circle cx="416.8" cy="253.5" r="7" fill="black" />
  <circle cx="437.6" cy="422.8" r="7" fill="black" />
  <circle cx="580.2" cy="612.9" r="7" fill="black" />
  <circle cx="381.2" cy="782.2" r="7" fill="black" />
  <circle cx="446.5" cy="339.6" r="7" fill="black" />
  <circle cx="559.4" cy="713.9" r="7" fill="black" />
  <circle cx="598.0" cy="710.9" r="7" fill="black" />
  <circle cx="687.1" cy="678.2" r="7" fill="black" />
  <circle cx="583.2" cy="699.0" r="7" fill="black" />
  <circle cx="312.9" cy="289.1" r="7" fill="black" />
  <circle cx="535.6" cy="452.5" r="7" fill="black" />
  <circle cx="223.8" cy="301.0" r="7" fill="black" />
  <circle cx="354.5" cy="470.3" r="7" fill="black" />
  <circle cx="220.8" cy="740.6" r="7" fill="black" />
  <circle cx="740.6" cy="253.5" r="7" fill="black" />
  <circle cx="413.9" cy="330.7" r="7" fill="black" />
  <circle cx="571.3" cy="713.9" r="7" fill="black" />
  <circle cx="520.8" cy="627.7" r="7" fill="black" />
  <circle cx="609.9" cy="743.6" r="7" fill="black" />
  <polyline points="497.0,500.0 494.1,497.0 491.1,491.1 491.1,485.1 488.1,479.2 485.1,473.3 485.1,470.3 482.2,464.4 476.2,458.4 470.3,452.5 464.4,449.5 458.4,449.5 455.4,452.5 455.4,452.5 458.4,452.5 458.4,452.5 455.4,452.5 452.5,452.5 446.5,449.5 440.6,443.6 437.6,437.6 437.6,434.7 437.6,428.7 437.6,422.8 440.6,416.8 443.6,410.9 443.6,407.9 446.5,407.9 452.5,407.9 458.4,407.9 464.4,410.9 470.3,416.8 476.2,419.8 479.2,419.8 479.2,416.8 476.2,416.8 476.2,413.9 479.2,413.9 485.1,413.9 488.1,413.9 491.1,416.8 491.1,422.8 491.1,428.7 491.1,434.7 491.1,440.6 488.1,443.6 482.2,443.6 479.2,440.6 479.2,434.7 479.2,431.7 482.2,431.7 488.1,434.7 494.1,440.6 500.0,443.6 505.9,443.6 511.9,443.6 514.9,443.6 520.8,440.6 523.8,440.6 526.7,443.6 526.7,446.5 529.7,452.5 535.6,455.4 538.6,455.4 538.6,452.5 535.6,452.5 535.6,455.4 538.6,461.4 538.6,467.3 538.6,473.3 538.6,476.2 541.6,476.2 547.5,479.2 553.5,482.2 559.4,482.2 562.4,479.2 562.4,473.3 559.4,467.3 559.4,461.4 556.4,455.4 556.4,449.5 556.4,443.6 556.4,440.6 559.4,440.6 565.3,440.6 571.3,440.6 577.2,440.6 583.2,440.6 589.1,440.6 592.1,440.6 595.0,437.6 595.0,431.7 598.0,425.7 601.0,419.8 601.0,413.9 601.0,410.9 598.0,407.9 592.1,407.9 589.1,407.9 586.1,407.9 580.2,405.0 574.3,405.0 571.3,405.0 565.3,402.0 562.4,396.0 562.4,390.1 565.3,384.2 565.3,378.2 562.4,372.3 562.4,369.3 559.4,363.4 553.5,360.4 547.5,360.4 541.6,363.4 535.6,363.4 532.7,360.4 532.7,354.5 532.7,348.5 532.7,342.6 532.7,339.6 535.6,333.7 535.6,327.7 535.6,321.8 532.7,315.8 526.7,309.9 523.8,306.9 523.8,306.9 526.7,306.9 526.7,309.9 523.8,312.9 517.8,312.9 511.9,312.9 505.9,312.9 500.0,312.9 494.1,312.9 488.1,309.9 485.1,304.0 485.1,301.0 488.1,301.0 494.1,304.0 500.0,306.9 505.9,312.9 508.9,318.8 508.9,324.8 505.9,330.7 505.9,336.6 505.9,339.6 503.0,345.5 500.0,351.5 500.0,357.4 497.0,363.4 491.1,369.3 485.1,375.2 479.2,378.2 476.2,378.2 476.2,375.2 479.2,375.2 479.2,378.2 476.2,378.2 470.3,378.2 464.4,378.2 458.4,378.2 452.5,378.2 446.5,381.2 440.6,381.2 434.7,381.2 428.7,378.2 422.8,375.2 419.8,375.2 413.9,372.3 410.9,369.3 405.0,363.4 402.0,357.4 402.0,351.5 405.0,345.5 405.0,339.6 405.0,333.7 407.9,330.7 413.9,330.7 419.8,327.7 422.8,324.8 422.8,318.8 422.8,312.9 422.8,309.9 419.8,304.0 413.9,298.0 407.9,292.1 402.0,289.1 396.0,289.1 393.1,289.1 393.1,286.1 390.1,283.2 387.1,283.2 387.1,280.2 390.1,277.2 396.0,277.2 402.0,277.2 405.0,277.2 410.9,274.3 416.8,268.3 419.8,262.4 419.8,256.4 416.8,253.5 416.8,247.5 416.8,241.6 416.8,235.6 416.8,232.7 413.9,232.7 407.9,235.6 402.0,238.6 396.0,238.6 390.1,238.6 384.2,238.6 381.2,241.6 381.2,247.5 384.2,253.5 387.1,256.4 387.1,256.4 387.1,253.5 384.2,253.5 378.2,256.4 372.3,256.4 366.3,256.4 363.4,256.4 357.4,253.5 351.5,250.5 345.5,250.5 339.6,253.5 333.7,259.4 330.7,262.4 330.7,262.4 330.7,259.4 330.7,253.5 330.7,247.5 330.7,241.6 330.7,235.6 330.7,229.7 330.7,226.7 327.7,223.8 321.8,223.8 315.8,223.8 309.9,223.8 306.9,223.8 301.0,220.8 298.0,214.9 292.1,211.9 286.1,211.9 283.2,214.9 283.2,220.8 280.2,226.7 274.3,232.7 271.3,238.6 271.3,241.6 274.3,241.6 274.3,238.6 271.3,232.7 265.3,226.7 262.4,220.8 262.4,214.9 265.3,211.9 265.3,211.9 265.3,214.9 262.4,220.8 256.4,226.7 250.5,229.7 247.5,229.7 247.5,226.7 250.5,226.7 250.5,229.7 247.5,235.6 244.6,238.6 244.6,238.6 244.6,235.6 244.6,235.6 244.6,238.6 244.6,244.6 244.6,250.5 244.6,256.4 244.6,262.4 247.5,265.3 253.5,265.3 256.4,268.3 256.4,271.3 259.4,277.2 265.3,283.2 271.3,286.1 277.2,286.1 280.2,286.1 280.2,289.1 283.2,289.1 286.1,289.1 292.1,289.1 298.0,289.1 304.0,289.1 306.9,289.1 312.9,289.1 315.8,292.1 315.8,298.0 312.9,304.0 306.9,306.9 301.0,306.9 298.0,306.9 298.0,309.9 301.0,315.8 301.0,321.8 304.0,324.8 309.9,324.8 315.8,324.8 321.8,324.8 327.7,324.8 333.7,324.8 339.6,324.8 342.6,324.8 345.5,327.7 345.5,333.7 345.5,339.6 348.5,342.6 354.5,342.6 357.4,339.6 357.4,333.7 357.4,327.7 360.4,321.8 366.3,315.8 369.3,312.9 369.3,312.9 366.3,312.9 366.3,315.8 369.3,321.8 375.2,324.8 381.2,324.8 384.2,321.8 384.2,321.8 381.2,324.8 375.2,330.7 369.3,336.6 366.3,342.6 366.3,348.5 369.3,354.5 369.3,360.4 366.3,366.3 360.4,372.3 354.5,375.2 348.5,378.2 342.6,378.2 336.6,375.2 330.7,372.3 327.7,372.3 321.8,375.2 315.8,381.2 309.9,387.1 304.0,393.1 298.0,399.0 295.0,402.0 295.0,407.9 295.0,410.9 292.1,416.8 292.1,422.8 289.1,425.7 283.2,425.7 280.2,422.8 280.2,419.8 283.2,419.8 289.1,419.8 295.0,419.8 301.0,419.8 306.9,422.8 309.9,428.7 309.9,434.7 306.9,440.6 306.9,446.5 306.9,452.5 306.9,458.4 306.9,461.4 304.0,467.3 301.0,473.3 301.0,479.2 301.0,482.2 304.0,488.1 309.9,491.1 315.8,491.1 318.8,488.1 318.8,488.1 315.8,488.1 315.8,491.1 318.8,494.1 321.8,494.1 327.7,497.0 333.7,503.0 336.6,508.9 336.6,514.9 333.7,520.8 327.7,523.8 321.8,523.8 315.8,523.8 309.9,523.8 304.0,523.8 298.0,523.8 292.1,520.8 289.1,514.9 289.1,508.9 289.1,505.9 292.1,505.9 298.0,508.9 301.0,508.9 306.9,511.9 312.9,517.8 318.8,523.8 324.8,529.7 327.7,535.6 327.7,538.6 324.8,544.6 324.8,550.5 324.8,556.4 324.8,562.4 324.8,568.3 324.8,574.3 324.8,580.2 324.8,583.2 327.7,589.1 333.7,592.1 339.6,592.1 345.5,592.1 348.5,592.1 348.5,595.0 348.5,601.0 348.5,606.9 348.5,612.9 348.5,618.8 348.5,624.8 348.5,630.7 351.5,636.6 357.4,639.6 360.4,639.6 360.4,636.6 357.4,636.6 357.4,636.6 360.4,636.6 366.3,636.6 372.3,636.6 378.2,636.6 381.2,636.6 384.2,633.7 384.2,627.7 384.2,621.8 384.2,615.8 387.1,609.9 393.1,604.0 396.0,598.0 396.0,592.1 393.1,586.1 387.1,580.2 381.2,574.3 378.2,571.3 378.2,565.3 381.2,559.4 387.1,553.5 390.1,547.5 390.1,541.6 387.1,535.6 387.1,529.7 387.1,523.8 387.1,520.8 390.1,520.8 396.0,523.8 402.0,529.7 407.9,532.7 413.9,538.6 416.8,544.6 422.8,547.5 425.7,547.5 425.7,544.6 425.7,541.6 428.7,535.6 428.7,529.7 428.7,523.8 428.7,517.8 428.7,511.9 428.7,505.9 428.7,500.0 428.7,497.0 431.7,491.1 437.6,488.1 440.6,488.1 440.6,491.1 437.6,491.1 437.6,488.1 437.6,482.2 440.6,479.2 446.5,479.2 452.5,482.2 458.4,482.2 461.4,485.1 461.4,491.1 458.4,497.0 452.5,503.0 449.5,505.9 449.5,511.9 452.5,517.8 458.4,520.8 464.4,520.8 470.3,517.8 473.3,517.8 479.2,520.8 485.1,523.8 491.1,523.8 497.0,520.8 503.0,517.8 508.9,517.8 514.9,520.8 517.8,523.8 520.8,529.7 520.8,535.6 520.8,541.6 523.8,547.5 529.7,550.5 535.6,550.5 538.6,550.5 538.6,547.5 538.6,541.6 538.6,535.6 538.6,532.7 535.6,526.7 535.6,520.8 535.6,514.9 535.6,511.9 538.6,511.9 544.6,514.9 550.5,520.8 556.4,526.7 562.4,529.7 565.3,529.7 565.3,526.7 562.4,526.7 562.4,523.8 565.3,523.8 571.3,523.8 577.2,526.7 580.2,532.7 580.2,538.6 577.2,544.6 577.2,550.5 574.3,553.5 568.3,553.5 565.3,550.5 565.3,544.6 565.3,538.6 568.3,535.6 574.3,535.6 580.2,538.6 586.1,544.6 592.1,547.5 595.0,547.5 595.0,544.6 598.0,538.6 604.0,532.7 606.9,529.7 612.9,523.8 618.8,520.8 624.8,520.8 627.7,523.8 627.7,529.7 624.8,535.6 618.8,541.6 612.9,547.5 609.9,553.5 609.9,559.4 609.9,565.3 609.9,568.3 606.9,574.3 604.0,580.2 604.0,586.1 604.0,592.1 604.0,598.0 606.9,604.0 606.9,609.9 606.9,612.9 604.0,618.8 598.0,621.8 592.1,621.8 586.1,618.8 580.2,618.8 577.2,618.8 577.2,615.8 580.2,612.9 586.1,606.9 589.1,601.0 589.1,598.0 586.1,598.0 580.2,601.0 574.3,601.0 568.3,601.0 562.4,601.0 556.4,601.0 553.5,598.0 553.5,595.0 556.4,595.0 556.4,598.0 553.5,604.0 547.5,606.9 541.6,606.9 535.6,606.9 532.7,606.9 526.7,609.9 520.8,615.8 517.8,621.8 517.8,627.7 520.8,630.7 520.8,630.7 520.8,627.7 517.8,627.7 511.9,630.7 505.9,630.7 503.0,633.7 503.0,639.6 505.9,645.5 508.9,651.5 514.9,657.4 517.8,663.4 517.8,666.3 514.9,666.3 514.9,663.4 517.8,663.4 523.8,663.4 529.7,666.3 532.7,669.3 532.7,669.3 529.7,669.3 523.8,672.3 520.8,678.2 520.8,684.2 523.8,687.1 526.7,687.1 526.7,684.2 526.7,684.2 526.7,687.1 526.7,693.1 526.7,699.0 526.7,705.0 526.7,707.9 523.8,710.9 517.8,710.9 511.9,710.9 508.9,710.9 505.9,707.9 505.9,702.0 503.0,699.0 497.0,699.0 491.1,702.0 488.1,707.9 488.1,710.9 491.1,710.9 491.1,707.9 488.1,702.0 485.1,696.0 485.1,690.1 485.1,684.2 485.1,678.2 488.1,672.3 494.1,669.3 497.0,669.3 497.0,672.3 494.1,678.2 488.1,681.2 482.2,681.2 476.2,681.2 470.3,681.2 464.4,681.2 461.4,681.2 455.4,678.2 452.5,672.3 452.5,666.3 455.4,663.4 461.4,657.4 467.3,654.5 470.3,654.5 470.3,657.4 467.3,657.4 467.3,654.5 467.3,648.5 464.4,642.6 458.4,639.6 455.4,639.6 455.4,642.6 458.4,642.6 464.4,639.6 470.3,633.7 473.3,630.7 473.3,630.7 473.3,633.7 470.3,633.7 464.4,630.7 461.4,624.8 461.4,618.8 461.4,612.9 461.4,609.9 464.4,604.0 470.3,598.0 473.3,592.1 473.3,589.1 470.3,589.1 470.3,592.1 473.3,592.1 476.2,589.1 476.2,586.1 473.3,580.2 473.3,577.2 470.3,571.3 464.4,568.3 458.4,568.3 452.5,571.3 446.5,571.3 443.6,571.3 437.6,574.3 431.7,580.2 425.7,583.2 422.8,589.1 422.8,595.0 425.7,601.0 431.7,604.0 437.6,604.0 440.6,601.0 440.6,601.0 440.6,604.0 440.6,609.9 440.6,615.8 440.6,621.8 440.6,624.8 437.6,630.7 431.7,636.6 428.7,642.6 428.7,648.5 431.7,654.5 431.7,660.4 431.7,666.3 431.7,672.3 431.7,678.2 431.7,684.2 434.7,690.1 434.7,696.0 434.7,702.0 437.6,707.9 443.6,713.9 449.5,716.8 455.4,716.8 458.4,713.9 458.4,713.9 455.4,713.9 449.5,716.8 446.5,722.8 446.5,728.7 446.5,734.7 446.5,740.6 446.5,743.6 443.6,749.5 437.6,755.4 431.7,758.4 428.7,758.4 428.7,755.4 431.7,755.4 431.7,752.5 428.7,746.5 422.8,743.6 416.8,743.6 413.9,746.5 410.9,746.5 410.9,743.6 410.9,737.6 410.9,731.7 407.9,725.7 402.0,722.8 396.0,722.8 390.1,722.8 384.2,722.8 378.2,722.8 375.2,722.8 369.3,719.8 366.3,713.9 366.3,707.9 366.3,705.0 369.3,702.0 375.2,702.0 381.2,699.0 387.1,693.1 393.1,687.1 396.0,681.2 396.0,675.2 396.0,669.3 396.0,663.4 396.0,657.4 396.0,651.5 393.1,645.5 387.1,639.6 381.2,633.7 375.2,627.7 369.3,621.8 363.4,618.8 357.4,618.8 351.5,618.8 345.5,618.8 339.6,618.8 336.6,618.8 330.7,615.8 327.7,612.9 327.7,612.9 330.7,612.9 330.7,612.9 327.7,612.9 321.8,612.9 315.8,615.8 309.9,621.8 306.9,624.8 306.9,624.8 306.9,621.8 304.0,621.8 298.0,624.8 292.1,630.7 289.1,636.6 289.1,639.6 292.1,639.6 292.1,642.6 289.1,648.5 283.2,651.5 277.2,651.5 271.3,648.5 268.3,648.5 268.3,651.5 265.3,651.5 259.4,648.5 256.4,642.6 253.5,636.6 253.5,630.7 253.5,624.8 253.5,618.8 253.5,612.9 250.5,606.9 250.5,601.0 250.5,595.0 250.5,592.1 247.5,592.1 241.6,592.1 235.6,592.1 229.7,595.0 223.8,595.0 217.8,592.1 214.9,586.1 214.9,583.2 217.8,583.2 223.8,580.2 226.7,574.3 226.7,571.3 223.8,565.3 220.8,559.4 220.8,553.5 223.8,550.5 229.7,550.5 235.6,553.5 241.6,553.5 247.5,553.5 250.5,556.4 250.5,562.4 247.5,568.3 241.6,574.3 238.6,577.2 238.6,577.2 241.6,577.2 247.5,580.2 253.5,580.2 259.4,580.2 265.3,580.2 271.3,583.2 277.2,589.1 280.2,595.0 280.2,601.0 277.2,604.0 277.2,604.0 277.2,601.0 280.2,595.0 286.1,589.1 292.1,583.2 298.0,580.2 301.0,580.2 301.0,583.2 298.0,583.2 295.0,586.1 295.0,592.1 295.0,598.0 295.0,604.0 295.0,609.9 295.0,615.8 295.0,621.8 295.0,627.7 295.0,633.7 295.0,639.6 295.0,645.5 295.0,651.5 295.0,657.4 295.0,663.4 295.0,669.3 295.0,675.2 295.0,681.2 295.0,687.1 298.0,693.1 304.0,699.0 309.9,702.0 312.9,702.0 312.9,699.0 309.9,699.0 309.9,702.0 312.9,707.9 318.8,713.9 324.8,719.8 327.7,725.7 327.7,728.7 324.8,728.7 324.8,725.7 327.7,719.8 330.7,716.8 330.7,716.8 330.7,719.8 333.7,719.8 339.6,716.8 342.6,710.9 342.6,705.0 339.6,699.0 339.6,693.1 339.6,687.1 339.6,684.2 336.6,684.2 330.7,684.2 324.8,684.2 318.8,684.2 312.9,684.2 306.9,684.2 301.0,684.2 295.0,684.2 289.1,684.2 283.2,684.2 277.2,684.2 271.3,687.1 268.3,693.1 268.3,699.0 268.3,705.0 268.3,710.9 268.3,716.8 268.3,722.8 268.3,725.7 268.3,728.7 271.3,734.7 277.2,737.6 283.2,737.6 286.1,734.7 286.1,734.7 283.2,734.7 283.2,737.6 286.1,743.6 289.1,746.5 289.1,746.5 289.1,743.6 286.1,743.6 283.2,746.5 283.2,752.5 283.2,758.4 283.2,764.4 280.2,767.3 274.3,767.3 271.3,764.4 271.3,758.4 274.3,755.4 274.3,749.5 271.3,746.5 265.3,746.5 259.4,746.5 256.4,746.5 253.5,749.5 253.5,755.4 253.5,758.4 250.5,764.4 244.6,770.3 238.6,776.2 235.6,782.2 235.6,785.1 238.6,785.1 238.6,782.2 235.6,782.2 229.7,785.1 223.8,785.1 217.8,785.1 214.9,782.2 214.9,776.2 217.8,770.3 217.8,764.4 217.8,758.4 217.8,752.5 217.8,746.5 217.8,743.6 220.8,740.6 220.8,734.7 217.8,731.7 211.9,731.7 208.9,731.7 203.0,728.7 200.0,725.7 200.0,725.7 203.0,725.7 208.9,722.8 214.9,722.8 217.8,719.8 217.8,713.9 217.8,707.9 220.8,702.0 226.7,699.0 232.7,699.0 238.6,702.0 241.6,702.0 241.6,699.0 238.6,696.0 232.7,690.1 226.7,684.2 223.8,678.2 223.8,675.2 226.7,675.2 232.7,672.3 235.6,666.3 235.6,660.4 232.7,657.4 226.7,651.5 223.8,645.5 223.8,639.6 226.7,633.7 229.7,627.7 235.6,621.8 238.6,615.8 238.6,609.9 235.6,604.0 235.6,598.0 235.6,592.1 235.6,586.1 235.6,580.2 235.6,574.3 235.6,568.3 235.6,562.4 235.6,556.4 235.6,550.5 235.6,544.6 235.6,538.6 235.6,532.7 235.6,526.7 235.6,520.8 235.6,514.9 235.6,511.9 232.7,508.9 226.7,508.9 220.8,508.9 217.8,508.9 211.9,508.9 205.9,508.9 203.0,505.9 203.0,500.0 205.9,494.1 211.9,488.1 214.9,482.2 214.9,476.2 214.9,473.3 217.8,467.3 223.8,461.4 226.7,455.4 226.7,449.5 223.8,443.6 223.8,437.6 223.8,434.7 223.8,428.7 223.8,422.8 223.8,416.8 223.8,410.9 223.8,405.0 223.8,402.0 223.8,399.0 220.8,393.1 217.8,387.1 217.8,381.2 217.8,375.2 214.9,369.3 208.9,363.4 205.9,357.4 205.9,351.5 208.9,348.5 214.9,348.5 220.8,351.5 223.8,351.5 229.7,354.5 235.6,357.4 241.6,357.4 247.5,354.5 253.5,351.5 256.4,351.5 256.4,354.5 253.5,360.4 250.5,366.3 250.5,372.3 250.5,378.2 250.5,381.2 250.5,387.1 250.5,393.1 250.5,399.0 250.5,405.0 250.5,410.9 250.5,416.8 250.5,422.8 250.5,428.7 250.5,434.7 250.5,440.6 250.5,446.5 250.5,452.5 253.5,458.4 259.4,461.4 265.3,461.4 268.3,464.4 268.3,470.3 265.3,476.2 259.4,482.2 256.4,485.1 250.5,485.1 244.6,482.2 238.6,476.2 232.7,470.3 226.7,464.4 220.8,458.4 214.9,452.5 208.9,446.5 203.0,440.6 200.0,434.7 200.0,428.7 200.0,425.7 200.0,419.8 200.0,416.8 203.0,410.9 208.9,405.0 211.9,399.0 211.9,393.1 211.9,387.1 211.9,381.2 211.9,375.2 211.9,369.3 211.9,363.4 211.9,357.4 211.9,351.5 211.9,345.5 211.9,339.6 211.9,336.6 208.9,330.7 208.9,324.8 211.9,318.8 217.8,312.9 220.8,306.9 220.8,304.0 217.8,304.0 217.8,301.0 220.8,301.0 223.8,301.0 223.8,298.0 223.8,292.1 223.8,289.1 220.8,283.2 214.9,280.2 208.9,280.2 203.0,280.2 200.0,277.2 200.0,271.3 203.0,265.3 203.0,262.4 205.9,262.4 211.9,262.4 217.8,259.4 223.8,253.5 226.7,250.5 226.7,250.5 223.8,250.5 223.8,247.5 226.7,247.5 232.7,250.5 238.6,256.4 244.6,259.4 250.5,259.4 253.5,256.4 253.5,256.4 253.5,259.4 250.5,265.3 247.5,271.3 247.5,277.2 247.5,283.2 247.5,289.1 247.5,295.0 247.5,301.0 244.6,306.9 241.6,312.9 241.6,318.8 241.6,321.8 244.6,321.8 250.5,318.8 256.4,312.9 262.4,309.9 268.3,309.9 271.3,312.9 271.3,312.9 268.3,312.9 268.3,309.9 271.3,304.0 271.3,301.0 274.3,295.0 280.2,289.1 286.1,283.2 292.1,277.2 295.0,274.3 295.0,274.3 292.1,274.3 292.1,271.3 295.0,265.3 301.0,259.4 306.9,253.5 312.9,247.5 318.8,241.6 324.8,235.6 330.7,229.7 336.6,223.8 342.6,220.8 348.5,220.8 354.5,223.8 360.4,223.8 366.3,223.8 372.3,220.8 378.2,217.8 384.2,217.8 387.1,217.8 393.1,214.9 399.0,214.9 405.0,217.8 410.9,217.8 416.8,217.8 422.8,217.8 428.7,217.8 434.7,217.8 437.6,217.8 437.6,214.9 434.7,208.9 431.7,203.0 431.7,200.0 434.7,200.0 440.6,203.0 443.6,208.9 443.6,214.9 443.6,220.8 443.6,226.7 443.6,232.7 443.6,238.6 443.6,244.6 443.6,250.5 446.5,256.4 452.5,262.4 458.4,268.3 464.4,271.3 470.3,271.3 476.2,268.3 482.2,268.3 488.1,268.3 494.1,268.3 500.0,268.3 505.9,265.3 511.9,259.4 517.8,256.4 523.8,256.4 529.7,259.4 535.6,259.4 538.6,256.4 538.6,250.5 541.6,244.6 547.5,241.6 553.5,241.6 559.4,244.6 562.4,244.6 568.3,244.6 574.3,244.6 577.2,244.6 580.2,241.6 580.2,238.6 577.2,232.7 571.3,229.7 565.3,229.7 559.4,232.7 553.5,232.7 547.5,229.7 544.6,223.8 544.6,217.8 547.5,214.9 547.5,208.9 544.6,205.9 538.6,205.9 532.7,208.9 526.7,208.9 520.8,208.9 514.9,208.9 508.9,208.9 503.0,208.9 497.0,208.9 491.1,208.9 485.1,211.9 482.2,217.8 482.2,223.8 485.1,226.7 491.1,232.7 497.0,238.6 503.0,241.6 508.9,241.6 514.9,238.6 520.8,238.6 526.7,235.6 532.7,235.6 538.6,235.6 544.6,235.6 550.5,235.6 556.4,235.6 562.4,235.6 568.3,235.6 574.3,235.6 580.2,235.6 586.1,235.6 592.1,235.6 598.0,235.6 604.0,235.6 609.9,235.6 612.9,238.6 612.9,244.6 612.9,247.5 615.8,253.5 618.8,256.4 618.8,256.4 618.8,253.5 621.8,253.5 627.7,256.4 633.7,256.4 636.6,256.4 642.6,256.4 648.5,256.4 654.5,253.5 660.4,250.5 666.3,244.6 669.3,238.6 669.3,232.7 666.3,226.7 666.3,220.8 666.3,214.9 663.4,211.9 657.4,211.9 651.5,214.9 645.5,220.8 639.6,223.8 636.6,223.8 636.6,220.8 633.7,220.8 630.7,220.8 624.8,217.8 618.8,211.9 612.9,208.9 606.9,208.9 601.0,211.9 595.0,211.9 589.1,214.9 586.1,220.8 586.1,226.7 586.1,232.7 586.1,238.6 586.1,244.6 586.1,250.5 586.1,256.4 586.1,262.4 586.1,268.3 586.1,274.3 586.1,277.2 583.2,283.2 580.2,286.1 577.2,292.1 577.2,298.0 580.2,301.0 586.1,301.0 592.1,301.0 595.0,304.0 595.0,309.9 592.1,315.8 592.1,321.8 592.1,324.8 595.0,327.7 601.0,327.7 606.9,327.7 612.9,327.7 615.8,327.7 621.8,330.7 624.8,333.7 624.8,333.7 621.8,333.7 615.8,333.7 609.9,333.7 606.9,336.6 606.9,342.6 606.9,348.5 606.9,354.5 609.9,360.4 615.8,366.3 621.8,369.3 627.7,369.3 630.7,366.3 630.7,366.3 627.7,366.3 627.7,369.3 630.7,369.3 636.6,369.3 642.6,369.3 648.5,369.3 654.5,369.3 660.4,366.3 663.4,360.4 663.4,354.5 660.4,348.5 660.4,342.6 663.4,336.6 669.3,330.7 675.2,327.7 681.2,327.7 684.2,330.7 684.2,330.7 684.2,327.7 684.2,321.8 684.2,315.8 681.2,309.9 681.2,304.0 681.2,298.0 678.2,292.1 678.2,286.1 678.2,280.2 678.2,274.3 678.2,268.3 681.2,262.4 687.1,259.4 693.1,259.4 699.0,262.4 705.0,262.4 707.9,262.4 713.9,265.3 716.8,271.3 716.8,277.2 713.9,280.2 713.9,280.2 713.9,277.2 716.8,277.2 719.8,280.2 725.7,280.2 731.7,280.2 737.6,280.2 743.6,277.2 749.5,271.3 752.5,265.3 752.5,262.4 749.5,256.4 743.6,253.5 740.6,253.5 734.7,253.5 728.7,253.5 725.7,250.5 725.7,244.6 728.7,238.6 734.7,232.7 740.6,226.7 746.5,223.8 749.5,223.8 749.5,226.7 749.5,232.7 752.5,235.6 752.5,235.6 752.5,232.7 755.4,229.7 761.4,229.7 767.3,229.7 770.3,229.7 776.2,226.7 782.2,220.8 785.1,214.9 785.1,211.9 782.2,205.9 776.2,203.0 770.3,203.0 764.4,205.9 758.4,205.9 755.4,205.9 755.4,208.9 758.4,214.9 764.4,220.8 770.3,226.7 776.2,232.7 782.2,238.6 785.1,244.6 785.1,250.5 782.2,256.4 782.2,259.4 785.1,265.3 791.1,268.3 794.1,268.3 794.1,265.3 791.1,265.3 785.1,268.3 779.2,274.3 776.2,280.2 776.2,286.1 776.2,289.1 773.3,295.0 773.3,301.0 773.3,304.0 776.2,309.9 782.2,315.8 788.1,318.8 791.1,324.8 791.1,330.7 791.1,336.6 791.1,339.6 788.1,345.5 785.1,351.5 785.1,357.4 785.1,363.4 782.2,369.3 779.2,372.3 779.2,372.3 779.2,369.3 776.2,363.4 770.3,360.4 764.4,360.4 758.4,360.4 755.4,357.4 755.4,351.5 755.4,345.5 755.4,339.6 752.5,333.7 746.5,327.7 740.6,321.8 737.6,315.8 737.6,312.9 740.6,312.9 740.6,309.9 737.6,304.0 731.7,301.0 725.7,301.0 719.8,304.0 716.8,309.9 716.8,315.8 719.8,318.8 719.8,324.8 716.8,327.7 713.9,327.7 713.9,324.8 710.9,318.8 705.0,315.8 699.0,315.8 696.0,318.8 690.1,321.8 684.2,321.8 678.2,321.8 672.3,321.8 666.3,321.8 660.4,321.8 654.5,321.8 648.5,321.8 642.6,321.8 636.6,321.8 630.7,318.8 624.8,312.9 621.8,306.9 621.8,301.0 624.8,295.0 624.8,289.1 627.7,283.2 633.7,280.2 636.6,280.2 636.6,283.2 636.6,289.1 636.6,295.0 636.6,301.0 636.6,306.9 636.6,312.9 636.6,318.8 636.6,324.8 636.6,330.7 636.6,336.6 636.6,342.6 636.6,348.5 636.6,354.5 636.6,360.4 636.6,366.3 636.6,372.3 636.6,378.2 636.6,384.2 636.6,390.1 636.6,396.0 636.6,402.0 636.6,405.0 639.6,410.9 645.5,416.8 651.5,422.8 654.5,425.7 654.5,425.7 654.5,422.8 657.4,422.8 663.4,425.7 669.3,431.7 672.3,434.7 672.3,434.7 672.3,431.7 672.3,431.7 672.3,434.7 672.3,440.6 669.3,443.6 663.4,443.6 660.4,443.6 660.4,443.6 663.4,443.6 669.3,443.6 675.2,443.6 681.2,443.6 687.1,443.6 690.1,440.6 690.1,434.7 687.1,428.7 684.2,422.8 684.2,416.8 687.1,413.9 693.1,407.9 696.0,405.0 702.0,405.0 707.9,407.9 713.9,410.9 719.8,410.9 722.8,413.9 722.8,419.8 722.8,425.7 722.8,431.7 725.7,437.6 728.7,443.6 728.7,449.5 728.7,455.4 728.7,461.4 728.7,467.3 728.7,473.3 728.7,479.2 725.7,482.2 719.8,482.2 713.9,479.2 707.9,479.2 702.0,479.2 699.0,476.2 699.0,470.3 702.0,467.3 705.0,467.3 705.0,470.3 702.0,470.3 696.0,467.3 690.1,464.4 684.2,464.4 678.2,464.4 675.2,464.4 669.3,467.3 666.3,473.3 666.3,479.2 669.3,482.2 669.3,482.2 669.3,479.2 666.3,473.3 660.4,467.3 654.5,464.4 648.5,464.4 642.6,467.3 639.6,467.3 636.6,467.3 630.7,470.3 624.8,476.2 618.8,482.2 612.9,485.1 609.9,485.1 609.9,482.2 612.9,482.2 612.9,479.2 609.9,479.2 604.0,479.2 598.0,479.2 592.1,482.2 586.1,482.2 583.2,482.2 580.2,485.1 580.2,491.1 583.2,497.0 589.1,500.0 595.0,500.0 601.0,500.0 606.9,500.0 612.9,500.0 618.8,500.0 624.8,500.0 630.7,500.0 636.6,500.0 642.6,500.0 648.5,503.0 654.5,508.9 660.4,511.9 663.4,511.9 669.3,514.9 672.3,520.8 672.3,526.7 669.3,532.7 669.3,538.6 669.3,544.6 669.3,550.5 669.3,556.4 669.3,559.4 666.3,565.3 660.4,571.3 654.5,574.3 648.5,574.3 645.5,571.3 645.5,571.3 648.5,574.3 654.5,580.2 657.4,586.1 657.4,589.1 654.5,589.1 651.5,592.1 651.5,598.0 651.5,604.0 651.5,609.9 651.5,612.9 654.5,612.9 660.4,612.9 666.3,612.9 669.3,612.9 669.3,609.9 669.3,606.9 672.3,606.9 678.2,609.9 681.2,615.8 681.2,621.8 678.2,624.8 678.2,624.8 678.2,621.8 681.2,615.8 687.1,612.9 690.1,609.9 696.0,609.9 702.0,612.9 705.0,618.8 705.0,621.8 702.0,621.8 702.0,618.8 699.0,618.8 693.1,621.8 687.1,627.7 681.2,633.7 678.2,636.6 672.3,642.6 666.3,648.5 663.4,651.5 663.4,651.5 666.3,651.5 666.3,648.5 663.4,645.5 657.4,645.5 654.5,645.5 648.5,648.5 642.6,651.5 636.6,654.5 630.7,654.5 624.8,654.5 621.8,657.4 621.8,663.4 624.8,666.3 627.7,666.3 627.7,669.3 627.7,672.3 630.7,672.3 636.6,669.3 639.6,663.4 639.6,657.4 636.6,651.5 636.6,645.5 636.6,639.6 636.6,636.6 633.7,630.7 627.7,624.8 624.8,618.8 624.8,615.8 627.7,615.8 627.7,618.8 624.8,624.8 618.8,630.7 612.9,633.7 606.9,633.7 601.0,633.7 595.0,633.7 589.1,633.7 583.2,633.7 577.2,633.7 571.3,633.7 568.3,636.6 568.3,642.6 568.3,648.5 568.3,654.5 568.3,660.4 571.3,666.3 574.3,669.3 574.3,669.3 574.3,666.3 577.2,666.3 580.2,669.3 580.2,672.3 577.2,678.2 571.3,681.2 565.3,681.2 559.4,684.2 556.4,690.1 556.4,696.0 559.4,702.0 559.4,707.9 559.4,713.9 556.4,719.8 553.5,722.8 553.5,722.8 553.5,719.8 556.4,713.9 562.4,710.9 568.3,710.9 571.3,713.9 577.2,713.9 583.2,710.9 586.1,705.0 586.1,699.0 583.2,696.0 583.2,696.0 583.2,699.0 586.1,705.0 592.1,710.9 598.0,713.9 601.0,713.9 601.0,710.9 598.0,710.9 598.0,713.9 601.0,719.8 601.0,725.7 601.0,731.7 601.0,737.6 601.0,740.6 604.0,743.6 609.9,743.6 615.8,740.6 618.8,737.6 624.8,737.6 630.7,740.6 636.6,746.5 642.6,752.5 648.5,755.4 654.5,755.4 660.4,752.5 666.3,752.5 669.3,752.5 669.3,749.5 666.3,743.6 660.4,737.6 654.5,734.7 651.5,728.7 651.5,722.8 654.5,719.8 660.4,719.8 666.3,722.8 672.3,722.8 678.2,722.8 684.2,722.8 687.1,722.8 687.1,719.8 687.1,713.9 687.1,707.9 687.1,702.0 687.1,696.0 687.1,690.1 687.1,684.2 687.1,678.2 690.1,672.3 696.0,666.3 702.0,660.4 707.9,657.4 713.9,657.4 716.8,660.4 716.8,660.4 713.9,660.4 713.9,657.4 716.8,651.5 722.8,648.5 728.7,648.5 734.7,648.5 737.6,648.5 737.6,651.5 737.6,657.4 737.6,663.4 737.6,669.3 737.6,675.2 737.6,681.2 737.6,687.1 737.6,693.1 737.6,699.0 737.6,705.0 737.6,710.9 737.6,716.8 737.6,722.8 737.6,725.7 740.6,725.7 746.5,725.7 749.5,725.7 755.4,722.8 758.4,716.8 758.4,713.9 755.4,713.9 755.4,716.8 758.4,716.8 764.4,713.9 770.3,707.9 776.2,702.0 782.2,696.0 788.1,690.1 791.1,684.2 791.1,678.2 791.1,675.2 791.1,672.3 788.1,666.3 782.2,663.4 776.2,663.4 773.3,666.3 767.3,672.3 764.4,675.2 764.4,675.2 767.3,675.2 767.3,672.3 764.4,666.3 764.4,660.4 767.3,654.5 770.3,651.5 770.3,651.5 770.3,654.5 773.3,654.5 779.2,654.5 782.2,651.5 782.2,645.5 779.2,639.6 773.3,633.7 767.3,627.7 764.4,621.8 764.4,615.8 767.3,609.9 767.3,604.0 764.4,601.0 758.4,601.0 752.5,604.0 746.5,609.9 743.6,612.9 743.6,612.9 746.5,612.9 746.5,609.9 743.6,604.0 737.6,598.0 734.7,592.1 734.7,586.1 737.6,580.2 737.6,574.3 737.6,568.3 737.6,562.4 737.6,556.4 737.6,550.5 737.6,544.6 737.6,538.6 734.7,535.6 728.7,535.6 722.8,538.6 716.8,544.6 710.9,550.5 705.0,553.5 702.0,553.5 702.0,550.5 705.0,544.6 710.9,538.6 716.8,532.7 722.8,526.7 728.7,520.8 734.7,514.9 740.6,508.9 746.5,503.0 752.5,500.0 758.4,500.0 764.4,503.0 770.3,503.0 773.3,503.0 779.2,505.9 785.1,505.9 788.1,505.9 788.1,503.0 785.1,497.0 779.2,491.1 776.2,485.1 770.3,482.2 767.3,482.2 767.3,485.1 770.3,488.1 773.3,488.1 773.3,485.1 773.3,479.2 773.3,473.3 773.3,467.3 773.3,461.4 773.3,455.4 773.3,449.5 773.3,443.6 773.3,437.6 773.3,434.7 770.3,428.7 770.3,422.8 770.3,416.8 770.3,413.9 773.3,407.9 773.3,402.0 773.3,396.0 776.2,393.1 782.2,393.1 788.1,396.0 791.1,402.0 791.1,405.0 788.1,405.0 782.2,407.9 776.2,413.9 770.3,419.8 764.4,422.8 758.4,422.8 755.4,419.8 755.4,419.8 758.4,419.8 758.4,416.8 755.4,410.9 749.5,405.0 743.6,399.0 737.6,393.1 731.7,387.1 728.7,381.2 728.7,378.2 731.7,378.2 731.7,375.2 728.7,369.3 725.7,363.4 725.7,357.4 725.7,354.5 722.8,354.5 716.8,357.4 710.9,363.4 705.0,369.3 699.0,372.3 693.1,372.3 687.1,372.3 681.2,375.2 675.2,381.2 669.3,384.2 663.4,384.2 657.4,381.2 651.5,381.2 645.5,381.2 639.6,381.2 633.7,381.2 627.7,381.2 621.8,381.2 615.8,381.2 609.9,381.2 604.0,381.2 598.0,381.2 595.0,384.2 595.0,390.1 598.0,393.1 604.0,399.0 606.9,405.0 606.9,410.9 604.0,416.8 604.0,422.8 604.0,428.7 604.0,434.7 604.0,440.6 601.0,446.5 595.0,452.5 589.1,458.4 583.2,464.4 577.2,467.3 571.3,467.3 568.3,464.4 562.4,458.4 556.4,452.5 550.5,446.5 544.6,440.6 538.6,434.7 535.6,428.7 535.6,422.8 535.6,419.8 538.6,413.9 544.6,407.9 550.5,402.0 553.5,396.0 553.5,390.1 550.5,387.1 550.5,387.1 550.5,390.1 553.5,390.1 559.4,387.1 565.3,381.2 568.3,375.2 568.3,369.3 565.3,363.4 565.3,357.4 565.3,351.5 565.3,345.5 565.3,339.6 565.3,336.6 562.4,336.6 556.4,339.6 550.5,339.6 544.6,339.6 538.6,339.6 532.7,339.6 526.7,339.6 520.8,339.6 514.9,339.6 508.9,339.6 503.0,339.6 497.0,339.6 491.1,339.6 488.1,339.6 482.2,342.6 476.2,345.5 470.3,345.5 467.3,345.5 461.4,342.6 458.4,336.6 458.4,333.7 461.4,333.7 461.4,336.6 458.4,336.6 458.4,333.7 458.4,330.7 455.4,330.7 449.5,333.7 446.5,339.6 446.5,345.5 449.5,351.5 455.4,354.5 458.4,354.5 458.4,351.5 455.4,351.5 449.5,354.5 443.6,360.4 437.6,366.3 431.7,372.3 425.7,378.2 419.8,384.2 413.9,390.1 407.9,396.0 402.0,402.0 396.0,407.9 390.1,410.9 384.2,410.9 378.2,407.9 372.3,402.0 366.3,399.0 360.4,399.0 357.4,402.0 357.4,405.0 354.5,410.9 348.5,416.8 345.5,419.8 345.5,419.8 345.5,416.8 348.5,416.8 348.5,419.8 348.5,425.7 348.5,431.7 348.5,437.6 348.5,443.6 348.5,449.5 348.5,452.5 351.5,458.4 354.5,464.4 354.5,470.3 357.4,473.3 363.4,473.3 369.3,470.3 375.2,464.4 381.2,461.4 387.1,461.4 393.1,464.4 399.0,464.4 405.0,464.4 410.9,464.4 413.9,461.4 413.9,455.4 410.9,449.5 405.0,446.5 399.0,446.5 396.0,446.5 393.1,443.6 393.1,440.6 396.0,434.7 402.0,431.7 407.9,431.7 413.9,434.7 419.8,440.6 425.7,446.5 431.7,452.5 437.6,458.4 443.6,464.4 449.5,470.3 455.4,476.2 461.4,482.2 467.3,488.1 473.3,494.1 479.2,500.0 485.1,505.9 491.1,511.9 497.0,517.8 503.0,523.8 505.9,529.7 505.9,535.6 503.0,541.6 503.0,547.5 503.0,553.5 503.0,559.4 503.0,565.3 503.0,571.3 505.9,577.2 511.9,580.2 517.8,580.2 523.8,577.2 526.7,577.2 526.7,574.3 523.8,574.3 523.8,577.2 523.8,583.2 523.8,589.1 523.8,595.0 523.8,601.0 523.8,606.9 523.8,612.9 523.8,618.8 523.8,624.8 523.8,630.7 523.8,636.6 523.8,642.6 523.8,648.5 520.8,654.5 514.9,660.4 508.9,666.3 503.0,672.3 497.0,678.2 491.1,684.2 485.1,690.1 479.2,693.1 473.3,693.1 470.3,693.1 464.4,696.0 461.4,702.0 461.4,707.9 464.4,713.9 464.4,719.8 464.4,725.7 464.4,731.7 464.4,737.6 464.4,743.6 464.4,749.5 464.4,755.4 464.4,761.4 464.4,767.3 464.4,773.3 464.4,779.2 464.4,785.1 464.4,788.1 467.3,788.1 473.3,785.1 479.2,785.1 485.1,785.1 488.1,785.1 488.1,785.1 485.1,785.1 479.2,785.1 473.3,785.1 467.3,785.1 461.4,785.1 455.4,785.1 449.5,785.1 443.6,785.1 437.6,785.1 431.7,785.1 425.7,785.1 419.8,785.1 413.9,785.1 407.9,785.1 402.0,785.1 396.0,785.1 390.1,782.2 384.2,782.2 381.2,782.2 375.2,785.1 369.3,788.1 366.3,788.1 360.4,788.1 354.5,788.1 348.5,788.1 345.5,788.1 345.5,785.1 348.5,779.2 354.5,773.3 360.4,767.3 366.3,764.4 372.3,764.4 378.2,767.3 384.2,767.3 390.1,767.3 396.0,767.3 402.0,767.3 407.9,764.4 413.9,758.4 419.8,755.4 425.7,755.4 431.7,755.4 437.6,755.4 443.6,755.4 449.5,755.4 455.4,755.4 461.4,755.4 467.3,755.4 473.3,755.4 479.2,755.4 485.1,755.4 491.1,755.4 497.0,755.4 503.0,755.4 508.9,755.4 514.9,755.4 520.8,755.4 526.7,755.4 532.7,755.4 538.6,755.4 544.6,755.4 550.5,755.4 556.4,755.4 559.4,755.4 565.3,758.4 571.3,758.4 577.2,755.4 583.2,749.5 586.1,743.6 586.1,740.6 589.1,740.6 595.0,743.6 598.0,749.5 598.0,755.4 598.0,761.4 598.0,767.3 598.0,773.3 598.0,779.2 598.0,785.1 598.0,788.1 601.0,788.1 606.9,785.1 612.9,785.1 618.8,785.1 624.8,785.1 630.7,785.1 636.6,788.1 642.6,794.1 648.5,797.0 651.5,797.0 657.4,794.1 663.4,791.1 669.3,791.1 675.2,791.1 681.2,791.1 687.1,791.1 693.1,791.1 699.0,791.1 705.0,791.1 710.9,791.1 716.8,791.1 722.8,791.1 725.7,791.1 731.7,788.1 737.6,782.2 743.6,779.2 746.5,779.2 746.5,776.2 743.6,770.3 737.6,764.4 731.7,761.4 725.7,755.4 719.8,752.5 716.8,752.5 716.8,755.4 719.8,755.4 725.7,758.4 731.7,764.4 737.6,770.3 743.6,773.3 749.5,773.3 755.4,770.3 761.4,770.3 767.3,770.3 773.3,770.3 776.2,770.3 782.2,773.3 788.1,776.2 791.1,776.2 791.1,773.3 788.1,767.3 785.1,761.4 785.1,755.4 785.1,749.5 785.1,743.6 785.1,737.6 782.2,731.7 776.2,725.7 770.3,719.8 764.4,713.9 758.4,707.9 752.5,702.0 746.5,696.0 740.6,693.1 734.7,693.1 728.7,693.1 722.8,693.1 716.8,693.1 710.9,693.1 705.0,693.1 699.0,693.1 693.1,693.1 687.1,693.1 681.2,693.1 675.2,693.1 669.3,693.1" fill="none" stroke="red" stroke-width="7" stroke-opacity="0.5"/>
  <circle cx="666.3" cy="693.1" r="15" fill="blue" fill-opacity="0.5"/>
</svg>