<svg width="1725" height="2625" xmlns="http://www.w3.org/2000/svg">
  <circle cx="912" cy="1439" r="1" fill="black" />
  <circle cx="850" cy="1384" r="1" fill="black" />
  <circle cx="927" cy="1444" r="1" fill="black" />
  <circle cx="987" cy="1535" r="1" fill="black" />
  <circle cx="884" cy="1426" r="1" fill="black" />
  <circle cx="959" cy="1486" r="1" fill="black" />
  <circle cx="990" cy="1557" r="1" fill="black" />
  <circle cx="796" cy="1245" r="1" fill="black" />
  <circle cx="847" cy="1308" r="1" fill="black" />
  <circle cx="884" cy="1361" r="1" fill="black" />
  <circle cx="985" cy="1535" r="1" fill="black" />
  <circle cx="993" cy="1554" r="1" fill="black" />
  <circle cx="991" cy="1518" r="1" fill="black" />
  <circle cx="991" cy="1557" r="1" fill="black" />
  <circle cx="837" cy="1294" r="1" fill="black" />
  <circle cx="967" cy="1453" r="1" fill="black" />
  <circle cx="952" cy="1477" r="1" fill="black" />
  <circle cx="967" cy="1519" r="1" fill="black" />
  <circle cx="873" cy="1347" r="1" fill="black" />
  <circle cx="995" cy="1523" r="1" fill="black" />
  <circle cx="983" cy="1544" r="1" fill="black" />
  <circle cx="956" cy="1449" r="1" fill="black" />
  <circle cx="980" cy="1541" r="1" fill="black" />
  <circle cx="892" cy="1371" r="1" fill="black" />
  <circle cx="765" cy="1223" r="1" fill="black" />
  <circle cx="828" cy="1281" r="1" fill="black" />
  <circle cx="945" cy="1451" r="1" fill="black" />
  <circle cx="945" cy="1467" r="1" fill="black" />
  <circle cx="943" cy="1454" r="1" fill="black" />
  <circle cx="981" cy="1542" r="1" fill="black" />
  <circle cx="985" cy="1557" r="1" fill="black" />
  <circle cx="856" cy="1322" r="1" fill="black" />
  <circle cx="987" cy="1501" r="1" fill="black" />
  <circle cx="985" cy="1480" r="1" fill="black" />
  <circle cx="985" cy="1488" r="1" fill="black" />
  <circle cx="961" cy="1494" r="1" fill="black" />
  <circle cx="901" cy="1387" r="1" fill="black" />
  <circle cx="890" cy="1431" r="1" fill="black" />
  <circle cx="817" cy="1267" r="1" fill="black" />
  <circle cx="951" cy="1450" r="1" fill="black" />
  <circle cx="774" cy="1226" r="1" fill="black" />
  <circle cx="918" cy="1420" r="1" fill="black" />
  <circle cx="953" cy="1448" r="1" fill="black" />
  <circle cx="971" cy="1525" r="1" fill="black" />
  <circle cx="997" cy="1535" r="1" fill="black" />
  <circle cx="902" cy="1439" r="1" fill="black" />
  <circle cx="997" cy="1544" r="1" fill="black" />
  <circle cx="788" cy="1235" r="1" fill="black" />
  <circle cx="986" cy="1538" r="1" fill="black" />
  <circle cx="976" cy="1459" r="1" fill="black" />
  <circle cx="873" cy="1418" r="1" fill="black" />
  <circle cx="986" cy="1495" r="1" fill="black" />
  <circle cx="986" cy="1537" r="1" fill="black" />
  <circle cx="936" cy="1454" r="1" fill="black" />
  <circle cx="868" cy="1415" r="1" fill="black" />
  <circle cx="906" cy="1400" r="1" fill="black" />
  <circle cx="989" cy="1507" r="1" fill="black" />
  <circle cx="804" cy="1255" r="1" fill="black" />
  <circle cx="939" cy="1453" r="1" fill="black" />
  <circle cx="995" cy="1549" r="1" fill="black" />
  <circle cx="933" cy="1447" r="1" fill="black" />
  <circle cx="928" cy="1446" r="1" fill="black" />
  <circle cx="930" cy="1443" r="1" fill="black" />
  <circle cx="852" cy="1389" r="1" fill="black" />
  <circle cx="963" cy="1451" r="1" fill="black" />
  <circle cx="929" cy="1448" r="1" fill="black" />
  <circle cx="964" cy="1503" r="1" fill="black" />
  <circle cx="863" cy="1407" r="1" fill="black" />
  <circle cx="856" cy="1394" r="1" fill="black" />
  <circle cx="923" cy="1434" r="1" fill="black" />
  <circle cx="979" cy="1466" r="1" fill="black" />
  <circle cx="862" cy="1400" r="1" fill="black" />
  <circle cx="986" cy="1547" r="1" fill="black" />
  <circle cx="943" cy="1455" r="1" fill="black" />
  <circle cx="908" cy="1440" r="1" fill="black" />
  <circle cx="990" cy="1514" r="1" fill="black" />
  <circle cx="978" cy="1535" r="1" fill="black" />
  <circle cx="912" cy="1411" r="1" fill="black" />
  <circle cx="985" cy="1541" r="1" fill="black" />
  <circle cx="994" cy="1529" r="1" fill="black" />
  <circle cx="922" cy="1443" r="1" fill="black" />
  <circle cx="984" cy="1540" r="1" fill="black" />
  <circle cx="985" cy="1535" r="1" fill="black" />
  <circle cx="970" cy="1456" r="1" fill="black" />
  <circle cx="982" cy="1473" r="1" fill="black" />
  <circle cx="783" cy="1230" r="1" fill="black" />
  <circle cx="985" cy="1550" r="1" fill="black" />
  <circle cx="986" cy="1536" r="1" fill="black" />
  <circle cx="976" cy="1533" r="1" fill="black" />
  <circle cx="879" cy="1421" r="1" fill="black" />
  <circle cx="936" cy="1449" r="1" fill="black" />
  <circle cx="865" cy="1336" r="1" fill="black" />
  <circle cx="894" cy="1438" r="1" fill="black" />
  <circle cx="982" cy="1538" r="1" fill="black" />
  <circle cx="919" cy="1440" r="1" fill="black" />
  <circle cx="964" cy="1512" r="1" fill="black" />
  <circle cx="974" cy="1529" r="1" fill="black" />
  <circle cx="983" cy="1554" r="1" fill="black" />
  <circle cx="979" cy="1539" r="1" fill="black" />
  <circle cx="866" cy="1413" r="1" fill="black" />
  <polyline points="849,1382 850,1383 852,1385 855,1388 859,1392 864,1397 870,1403 877,1410 885,1418 894,1427 904,1437 915,1448 927,1460 940,1471 954,1481 969,1490 983,1498 996,1505 1008,1511 1019,1516 1029,1520 1038,1523 1046,1525 1053,1526 1059,1526 1064,1525 1068,1523 1071,1520 1073,1516 1074,1511 1074,1505 1073,1498 1071,1490 1068,1481 1064,1471 1059,1462 1053,1454 1046,1447 1038,1441 1029,1436 1019,1432 1008,1429 996,1427 983,1426 971,1426 960,1427 950,1429 941,1432 933,1436 926,1441 920,1447 915,1454 911,1462 908,1469 906,1475 905,1480 905,1484 906,1487 908,1489 911,1490 915,1490 920,1489 926,1487 933,1484 941,1480 950,1475 960,1469 971,1464 981,1460 990,1457 998,1455 1005,1454 1011,1454 1016,1455 1020,1457 1023,1460 1025,1464 1026,1467 1026,1469 1025,1470 1023,1470 1020,1469 1016,1467 1011,1466 1005,1466 998,1466 990,1466 981,1466 973,1466 966,1466 960,1466 955,1466 951,1466 948,1466 946,1466 945,1466 945,1466 946,1466 948,1466 951,1466 955,1466 960,1466 966,1466 973,1466 979,1466 984,1465 988,1463 991,1460 993,1456 994,1451 994,1445 993,1438 991,1430 988,1421 984,1413 979,1406 973,1400 966,1395 958,1391 949,1388 939,1386 928,1385 916,1385 903,1386 889,1388 874,1391 860,1395 847,1400 835,1406 824,1413 814,1419 805,1424 797,1428 790,1431 784,1433 779,1434 775,1434 772,1433 770,1431 769,1428 769,1424 770,1419 772,1415 775,1412 779,1410 784,1409 790,1409 797,1410 805,1412 814,1415 824,1417 835,1418 847,1418 860,1417 872,1415 883,1414 893,1414 902,1415 910,1415 917,1415 923,1415 928,1415 932,1415 935,1415 937,1415 938,1415 938,1415 937,1415 935,1415 932,1415 928,1415 923,1415 917,1415 910,1415 902,1415 893,1415 883,1415 872,1415 862,1415 853,1415 845,1415 838,1415 832,1415 827,1415 823,1415 820,1415 818,1415 817,1415 817,1415 818,1415 820,1415 823,1415 827,1415 832,1415 838,1415 845,1415 853,1415 862,1415 870,1415 877,1415 883,1415 888,1415 892,1415 895,1415 897,1415 898,1415 898,1415 897,1415 895,1415 892,1415 888,1415 883,1415 877,1415 870,1415 864,1415 859,1415 855,1415 852,1415 850,1415 849,1415 849,1415 850,1415 852,1415 855,1415 859,1415 864,1415 868,1415 871,1414 873,1412 874,1409 874,1405 873,1400 871,1394 868,1387 864,1379 859,1370 853,1360 846,1349 838,1337 829,1324 821,1310 814,1295 808,1281 803,1268 799,1256 796,1245 794,1235 793,1226 793,1218 794,1211 796,1205 799,1200 803,1196 808,1193 814,1191 821,1190 828,1190 834,1191 839,1193 843,1196 846,1200 848,1205 849,1211 849,1218 848,1226 846,1235 843,1245 839,1256 834,1268 828,1281 823,1295 819,1310 816,1326 814,1343 813,1361 813,1380 814,1400 816,1421 819,1441 823,1460 828,1478 834,1495 841,1511 849,1526 858,1540 868,1553 879,1565 890,1576 900,1586 909,1595 917,1603 924,1610 930,1616 935,1621 939,1625 942,1628 944,1630 945,1631 945,1631 944,1630 942,1628 939,1625 935,1621 930,1616 924,1610 917,1603 909,1595 900,1586 890,1576 881,1565 873,1553 866,1540 860,1526 855,1511 851,1495 848,1478 846,1460 845,1441 845,1423 846,1406 848,1390 851,1375 855,1361 860,1348 866,1336 873,1325 881,1315 890,1306 898,1298 905,1291 911,1285 916,1280 920,1276 923,1273 925,1271 926,1270 926,1270 925,1271 923,1273 920,1276 916,1280 911,1285 905,1291 898,1298 890,1306 883,1315 877,1325 872,1336 868,1348 865,1361 863,1375 862,1390 862,1406 863,1423 865,1439 868,1454 872,1468 877,1481 883,1493 890,1504 896,1514 901,1523 905,1531 908,1538 910,1544 911,1549 911,1553 910,1556 908,1558 905,1559 901,1559 896,1558 890,1556 885,1553 881,1549 878,1544 876,1538 875,1531 875,1523 876,1514 878,1504 881,1493 885,1481 890,1468 894,1454 897,1439 899,1425 900,1412 900,1400 899,1389 897,1379 894,1370 890,1362 887,1355 885,1349 884,1344 884,1340 885,1337 887,1335 890,1334 892,1334 893,1335 893,1337 892,1340 890,1344 889,1349 889,1355 890,1362 890,1370 890,1379 890,1389 890,1400 890,1412 890,1425 890,1437 890,1448 890,1458 890,1467 890,1475 890,1482 890,1488 890,1493 890,1497 890,1500 890,1502 890,1503 890,1503 890,1502 890,1500 890,1497 890,1493 890,1488 890,1482 890,1475 890,1467 890,1458 890,1448 890,1437 890,1427 890,1418 890,1410 890,1403 890,1397 890,1392 890,1388 890,1385 890,1383 890,1382 890,1382 890,1383 890,1385 890,1388 890,1392 890,1397 890,1403 890,1410 890,1418 890,1427 890,1435 890,1442 890,1448 890,1453 890,1457 890,1460 890,1462 890,1463 890,1463 890,1462 890,1460 890,1457 890,1453 890,1448 890,1442 890,1435 890,1429 890,1424 890,1420 890,1417 890,1415 890,1414 890,1414 890,1415 890,1417 890,1420 890,1424 890,1429 890,1433 890,1436 890,1438 890,1439 890,1439 890,1438 890,1436 890,1433 890,1431 891,1428 893,1424 896,1420 900,1417 905,1415 911,1414 918,1414 924,1415 929,1417 933,1420 936,1422 938,1423 939,1423 939,1422 938,1420 936,1419 933,1419 929,1420 924,1420 918,1420 913,1421 909,1423 906,1426 904,1430 903,1435 903,1441 904,1446 906,1450 909,1453 913,1455 918,1456 922,1456 925,1455 927,1453 928,1450 928,1446 927,1443 925,1441 922,1440 920,1440 919,1441 919,1443 920,1444 922,1444 923,1443 923,1443 922,1443 922,1444 923,1446 925,1449 928,1453 932,1458 937,1464 943,1471 950,1479 958,1488 967,1498 977,1509 986,1521 994,1534 1001,1546 1007,1557 1012,1567 1016,1576 1019,1584 1021,1591 1022,1597 1022,1602 1021,1606 1019,1609 1016,1611 1012,1612 1007,1612 1001,1611 994,1609 986,1606 979,1602 973,1597 968,1591 964,1584 961,1576 959,1567 958,1557 958,1546 959,1535 961,1525 964,1516 968,1508 973,1501 979,1495 985,1490 990,1486 994,1483 997,1481 999,1480 1000,1480 1000,1481 999,1483 997,1486 994,1490 990,1495 985,1501 981,1508 978,1516 976,1525 975,1535 975,1544 976,1552 978,1559 981,1565 985,1570 988,1574 990,1577 991,1579 991,1580 990,1580 988,1579 985,1577 983,1574 982,1570 982,1565 983,1559 985,1552 986,1544 986,1535 985,1527 985,1520 985,1514 985,1509 985,1505 985,1502 985,1500 985,1499 985,1499 985,1500 985,1502 985,1505 985,1509 985,1514 985,1520 985,1527 985,1535 984,1542 982,1548 979,1553 975,1557 970,1560 964,1562 957,1563 949,1563 940,1562 932,1560 925,1557 919,1553 914,1548 910,1542 907,1535 905,1527 904,1518 904,1508 905,1497 907,1485 910,1472 914,1458 919,1445 925,1433 932,1422 938,1412 943,1403 947,1395 950,1388 952,1382 953,1377 953,1373 952,1370 950,1368 947,1367 943,1367 938,1368 934,1370 931,1373 929,1377 928,1382 928,1388 929,1395 931,1403 934,1412 936,1422 937,1433 937,1445 936,1456 936,1466 936,1475 936,1483 936,1490 936,1496 936,1501 936,1505 936,1508 936,1510 936,1511 936,1511 936,1510 936,1508 936,1505 936,1501 936,1496 936,1490 936,1483 936,1475 936,1466 936,1456 936,1447 936,1439 936,1432 936,1426 936,1421 936,1417 936,1414 936,1412 936,1411 936,1411 936,1412 936,1414 936,1417 936,1421 936,1426 936,1432 936,1439 936,1447 936,1454 936,1460 936,1465 936,1469 936,1472 936,1474 936,1475 936,1475 936,1474 936,1472 936,1469 936,1465 936,1460 936,1454 936,1449 937,1445 939,1442 942,1440 944,1439 945,1439 945,1440 944,1442 943,1445 943,1449 943,1454 944,1460 946,1467 949,1475 953,1484 958,1492 964,1499 971,1505 979,1510 986,1514 992,1517 997,1519 1001,1520 1004,1520 1006,1519 1007,1517 1007,1514 1006,1510 1004,1505 1001,1499 997,1492 992,1486 986,1481 981,1477 977,1474 974,1472 972,1471 971,1471 971,1472 972,1474 974,1477 977,1481 981,1486 985,1490 988,1493 990,1495 991,1496 991,1496 990,1495 988,1493 985,1490 983,1488 982,1487 982,1487 983,1488 985,1488 988,1489 990,1491 991,1494 991,1498 990,1503 990,1509 990,1516 990,1524 990,1533 990,1543 990,1554 990,1564 990,1573 990,1581 990,1588 990,1594 990,1599 990,1603 990,1606 990,1608 990,1609 990,1609 990,1608 990,1606 990,1603 990,1599 990,1594 990,1588 990,1581 990,1573 990,1564 990,1556 990,1549 990,1543 990,1538 990,1534 990,1531 990,1529 990,1528 990,1528 990,1529 990,1531 990,1534 990,1538 990,1543 990,1549 990,1556 990,1562 990,1567 990,1571 990,1574 990,1576 990,1577 990,1577 990,1576 990,1574 990,1571 990,1567 990,1562 990,1557 989,1551 987,1544 984,1538 982,1533 981,1529 981,1526 982,1524 983,1523 983,1523 983,1524 983,1526 983,1529 983,1533 983,1538 983,1544 982,1549 980,1553 977,1556 973,1558 968,1559 962,1559 955,1558 947,1556 938,1553 928,1549 917,1544 905,1538 892,1531 880,1523 869,1514 859,1504 850,1493 842,1481 835,1468 829,1454 824,1439 820,1423 817,1406 815,1388 814,1371 814,1355 815,1340 817,1326 820,1313 824,1301 829,1290 835,1280 842,1271 850,1263 859,1256 869,1250 880,1245 892,1241 903,1238 913,1236 922,1235 930,1235 937,1236 943,1238 948,1241 952,1245 955,1250 957,1256 958,1263 958,1271 957,1280 955,1290 952,1301 948,1313 943,1326 937,1340 930,1355 922,1371 913,1386 903,1400 892,1413 882,1425 873,1436 865,1446 858,1455 852,1463 847,1470 843,1476 840,1481 838,1485 837,1488 837,1490 838,1491 840,1491 843,1490 847,1488 852,1485 858,1481 865,1476 873,1470 882,1463 892,1455 901,1446 909,1436 916,1425 922,1413 927,1400 931,1386 934,1371 936,1357 937,1344 937,1332 936,1321 934,1311 931,1302 927,1294 922,1287 916,1281 909,1276 901,1272 892,1269 884,1267 877,1266 871,1266 866,1267 862,1269 859,1272 857,1276 856,1281 856,1287 857,1294 859,1302 862,1311 866,1321 871,1332 877,1344 884,1357 892,1371 899,1384 905,1396 910,1407 914,1417 917,1426 919,1434 920,1441 920,1447 919,1452 917,1456 914,1459 910,1461 905,1462 899,1462 892,1461 884,1459 875,1456 865,1452 854,1447 842,1441 829,1434 815,1426 800,1417 784,1407 769,1396 755,1384 742,1371 730,1357 719,1342 709,1326 700,1309 692,1291 685,1272 679,1252 674,1231 670,1211 667,1192 665,1174 664,1157 664,1141 665,1126 667,1112 670,1099 674,1087 679,1076 685,1066 692,1057 700,1049 709,1042 719,1036 730,1031 742,1027 755,1024 769,1022 783,1021 796,1021 808,1022 819,1024 829,1027 838,1031 846,1036 853,1042 859,1049 864,1057 868,1066 871,1076 873,1087 874,1099 874,1112 873,1126 871,1141 868,1157 864,1174 859,1192 853,1211 846,1230 838,1248 829,1265 819,1281 808,1296 796,1310 783,1323 771,1335 760,1346 750,1356 741,1365 733,1373 726,1380 720,1386 715,1391 711,1395 708,1398 706,1400 705,1401 705,1401 706,1400 708,1398 711,1395 715,1391 720,1386 726,1380 733,1373 741,1365 750,1356 760,1346 771,1335 783,1323 794,1310 804,1296 813,1281 821,1265 828,1248 834,1230 839,1213 843,1197 846,1182 848,1168 849,1155 849,1143 848,1132 846,1122 843,1113 839,1105 834,1098 828,1092 821,1087 813,1083 804,1080 794,1078 783,1077 773,1077 764,1078 756,1080 749,1083 743,1087 738,1092 734,1098 731,1105 729,1113 728,1122 728,1132 729,1143 731,1155 734,1168 738,1182 743,1197 749,1213 756,1230 764,1246 773,1261 783,1275 792,1288 800,1300 807,1311 813,1321 818,1330 822,1338 825,1345 827,1351 828,1356 828,1360 827,1363 825,1365 822,1366 818,1366 813,1365 807,1363 800,1360 792,1356 783,1351 775,1345 768,1338 762,1330 757,1321 753,1311 750,1300 748,1288 747,1275 747,1261 748,1246 750,1230 753,1215 757,1201 762,1188 768,1176 775,1165 783,1155 790,1146 796,1138 801,1131 805,1125 808,1120 810,1116 811,1113 811,1111 810,1110 808,1110 805,1111 801,1113 796,1116 790,1120 783,1125 777,1131 772,1138 768,1146 765,1155 763,1165 762,1176 762,1188 763,1201 765,1215 768,1230 772,1244 777,1257 783,1269 788,1280 792,1290 795,1299 797,1307 798,1314 798,1320 797,1325 795,1329 792,1332 788,1334 783,1335 779,1335 776,1334 774,1332 773,1329 773,1325 774,1320 776,1314 779,1307 783,1299 786,1290 788,1280 789,1269 789,1257 788,1244 786,1230 783,1217 781,1205 780,1194 780,1184 781,1175 783,1167 784,1160 784,1154 783,1149 783,1145 783,1142 783,1140 783,1139 783,1139 783,1140 783,1142 783,1145 783,1149 783,1154 783,1160 783,1167 783,1175 783,1184 783,1194 783,1205 783,1217 783,1230 784,1244 786,1259 789,1275 793,1292 798,1310 804,1329 811,1349 819,1370 828,1390 838,1409 849,1427 861,1444 874,1460 888,1475 901,1489 913,1502 924,1514 934,1525 943,1535 951,1544 958,1552 964,1559 969,1565 973,1570 976,1574 978,1577 979,1579 979,1580 978,1580 976,1579 973,1577 969,1574 964,1570 958,1565 951,1559 943,1552 934,1544 924,1535 913,1525 901,1514 890,1502 880,1489 871,1475 863,1460 856,1444 850,1427 845,1409 841,1390 838,1372 836,1355 835,1339 835,1324 836,1310 838,1297 841,1285 845,1274 850,1264 856,1255 863,1247 871,1240 880,1234 890,1229 901,1225 911,1222 920,1220 928,1219 935,1219 941,1220 946,1222 950,1225 953,1229 955,1234 956,1240 956,1247 955,1255 953,1264 950,1274 946,1285 941,1297 935,1310 928,1324 920,1339 911,1355 901,1372 892,1388 884,1403 877,1417 871,1430 866,1442 862,1453 859,1463 857,1472 856,1480 856,1487 857,1493 859,1498 862,1502 866,1505 871,1507 877,1508 884,1508 892,1507 901,1505 909,1502 916,1498 922,1493 927,1487 931,1480 934,1472 936,1463 937,1453 937,1442 936,1430 934,1417 931,1403 927,1388 922,1374 916,1361 909,1349 901,1338 894,1328 888,1319 883,1311 879,1304 876,1298 874,1293 873,1289 873,1286 874,1284 876,1283 879,1283 883,1284 888,1286 894,1289 901,1293 907,1298 912,1304 916,1311 919,1319 921,1328 922,1338 922,1349 921,1361 919,1374 916,1387 912,1399 907,1410 901,1420 896,1429 892,1437 889,1444 887,1450 886,1455 886,1459 887,1462 889,1464 892,1465 896,1465 901,1464 905,1462 908,1459 910,1455 911,1450 911,1444 910,1437 908,1429 905,1420 901,1410 898,1399 896,1387 895,1376 895,1366 896,1357 898,1349 901,1342 903,1336 904,1331 904,1327 903,1324 901,1322 900,1321 900,1321 901,1322 901,1324 901,1327 901,1331 901,1336 901,1342 901,1349 901,1357 901,1366 901,1376 901,1387 902,1399 904,1412 907,1426 911,1441 916,1457 922,1474 929,1492 937,1511 946,1529 956,1546 967,1562 979,1577 990,1591 1000,1604 1009,1616 1017,1627 1024,1637 1030,1646 1035,1654 1039,1661 1042,1667 1044,1672 1045,1676 1045,1679 1044,1681 1042,1682 1039,1682 1035,1681 1030,1679 1024,1676 1017,1672 1009,1667 1000,1661 990,1654 981,1646 973,1637 966,1627 960,1616 955,1604 951,1591 948,1577 946,1562 945,1546 945,1529 946,1513 948,1498 951,1484 955,1471 960,1459 966,1448 973,1438 981,1429 990,1421 998,1414 1005,1408 1011,1403 1016,1399 1020,1396 1023,1394 1025,1393 1026,1393 1026,1394 1025,1396 1023,1399 1020,1403 1016,1408 1011,1414 1005,1421 998,1429 990,1438 983,1448 977,1459 972,1471 968,1484 965,1498 963,1513 962,1527 962,1540 963,1552 965,1563 968,1573 972,1582 977,1590 983,1597 990,1603 996,1608 1001,1612 1005,1615 1008,1617 1010,1618 1011,1618 1011,1617 1010,1615 1008,1612 1005,1608 1001,1603 996,1597 990,1590 985,1582 981,1573 978,1563 976,1552 975,1540 975,1527 976,1514 978,1502 981,1491 985,1481 990,1472 994,1464 997,1457 999,1451 1000,1446 1000,1442 999,1439 997,1437 994,1436 990,1436 987,1437 985,1439 984,1442 984,1446 985,1451 987,1457 990,1464 992,1472 993,1481 993,1491 992,1502 990,1514 987,1525 983,1535 978,1544 972,1552 967,1559 963,1565 960,1570 958,1574 957,1577 957,1579 958,1580 960,1580 963,1579 967,1577 971,1574 974,1570 976,1565 977,1559 977,1552 976,1544 974,1535 971,1525 967,1514 962,1502 956,1489 949,1475 941,1460 932,1444 922,1427 911,1409 899,1392 886,1376 872,1361 857,1347 843,1334 830,1322 818,1311 807,1301 797,1292 788,1284 780,1277 773,1271 767,1266 762,1262 758,1259 755,1257 753,1256 752,1256 752,1257 753,1259 755,1262 758,1266 762,1271 767,1277 773,1284 780,1292 788,1301 797,1311 807,1322 818,1334 830,1347 843,1361 856,1376 868,1392 879,1407 889,1421 898,1434 906,1446 913,1457 919,1467 924,1476 928,1484 931,1491 933,1497 934,1502 934,1506 933,1509 931,1511 928,1512 924,1512 919,1511 913,1509 906,1506 898,1502 889,1497 879,1491 868,1484 856,1476 845,1467 835,1457 826,1446 818,1434 811,1421 805,1407 800,1394 796,1382 793,1371 791,1361 790,1352 790,1344 791,1337 793,1331 796,1326 800,1322 805,1319 811,1317 818,1316 826,1316 835,1317 845,1319 856,1322 866,1326 875,1331 883,1337 890,1344 896,1352 901,1361 905,1371 908,1382 910,1394 911,1405 911,1415 910,1424 908,1432 905,1439 901,1445 896,1450 890,1454 883,1457 875,1459 866,1460 856,1460 847,1459 839,1457 832,1454 826,1450 821,1445 817,1439 814,1432 812,1424 811,1415 811,1405 812,1394 814,1384 817,1375 821,1367 826,1360 832,1354 839,1349 847,1345 856,1342 864,1340 871,1339 877,1339 882,1340 886,1342 889,1345 891,1349 892,1354 892,1360 891,1367 889,1375 886,1384 882,1394 877,1403 871,1411 864,1418 856,1424 849,1429 843,1433 838,1436 834,1438 831,1439 829,1439 828,1438 828,1436 829,1433 831,1429 834,1424 838,1418 843,1411 849,1403 856,1394 862,1386 867,1379 871,1373 874,1368 876,1364 877,1361 877,1359 876,1358 874,1358 871,1359 867,1361 862,1364 858,1368 855,1373 853,1379 852,1386 852,1394 853,1401 855,1407 858,1412 862,1416 865,1419 867,1421 868,1422 868,1422 867,1421 865,1419 862,1416 860,1412 859,1407 859,1401 860,1396 862,1392 863,1389 863,1387 862,1386 862,1386 862,1387 862,1389 862,1392 862,1396 862,1400 863,1405 865,1411 868,1418 872,1426 877,1435 883,1445 890,1456 898,1468 907,1481 917,1495 928,1510 940,1524 953,1537 967,1549 982,1560 996,1570 1009,1579 1021,1587 1032,1594 1042,1600 1051,1605 1059,1609 1066,1612 1072,1614 1077,1615 1081,1615 1084,1614 1086,1612 1087,1609 1087,1605 1086,1600 1084,1594 1081,1587 1077,1579 1072,1570 1066,1560 1059,1549 1051,1537 1042,1524 1032,1512 1021,1501 1009,1491 996,1482 984,1474 973,1467 963,1461 954,1456 946,1452 939,1449 933,1447 928,1446 924,1446 921,1447 919,1449 918,1452 918,1456 919,1461 921,1467 924,1474 928,1482 933,1491 939,1501 946,1512 954,1522 963,1531 973,1539 984,1546 994,1552 1003,1557 1011,1561 1018,1564 1024,1566 1029,1567 1033,1567 1036,1566 1038,1564 1039,1561 1039,1557 1038,1552 1036,1546 1033,1539 1029,1531 1024,1522 1018,1514 1011,1507 1003,1501 994,1496 986,1492 979,1489 973,1487 968,1486 964,1486 961,1487 959,1489 958,1492 958,1496 959,1501 961,1507 964,1514 968,1520 973,1525 979,1529 986,1532 992,1534 997,1535 1001,1535 1004,1534 1006,1532 1007,1529 1007,1525 1006,1520 1004,1516 1001,1513 997,1511 992,1510 988,1510 985,1511 983,1513 982,1516 982,1518 983,1519 985,1519 988,1518 991,1518 995,1519 998,1521 1000,1523 1001,1524 1001,1524 1000,1523 998,1523 995,1523 991,1524 986,1526 982,1529 979,1533 977,1538 976,1544 976,1551 977,1557 979,1562 982,1566 984,1569 985,1571 985,1572 984,1572 983,1571 983,1569 983,1566 983,1562 983,1557 983,1553 983,1550 983,1548 983,1547 983,1547 983,1548 983,1550 983,1553 983,1555 983,1556 983,1556 983,1555 983,1554 982,1552 980,1549 977,1545 973,1540 968,1534 964,1527 961,1519 959,1510 958,1500 958,1489 959,1477 961,1464 964,1452 967,1441 969,1431 970,1422 970,1414 969,1407 967,1401 966,1396 966,1392 967,1389 967,1387 967,1386 967,1386 967,1387 967,1389 967,1392 967,1396 967,1401 967,1407 967,1414 967,1422 967,1431 967,1441 967,1452 967,1462 967,1471 967,1479 967,1486 967,1492 967,1497 967,1501 967,1504 967,1506 967,1507 967,1507 967,1506 967,1504 967,1501 967,1497 967,1492 967,1486 967,1479 967,1471 967,1462 967,1453 968,1445 970,1438 973,1432 977,1427 982,1423 988,1420 994,1418 999,1417 1003,1417 1006,1418 1008,1420 1009,1423 1009,1427 1008,1432 1006,1438 1003,1445 999,1453 994,1462 990,1472 987,1483 985,1495 984,1508 984,1522 985,1535 987,1547 990,1558 994,1568 997,1577 999,1585 1000,1592 1000,1598 999,1603 997,1607 994,1610 992,1612 991,1613 991,1613 992,1612 994,1610 995,1607 995,1603 994,1598 994,1592 994,1585 994,1577 994,1568 994,1558 994,1547 994,1535 994,1524 994,1514 994,1505 994,1497 994,1490 994,1484 994,1479 994,1475 994,1472 994,1470 994,1469 994,1469 994,1470 994,1472 994,1475 994,1479 994,1484 994,1490 994,1497 994,1505 994,1514 994,1524 994,1533 994,1541 994,1548 994,1554 994,1559 994,1563 994,1566 994,1568 994,1569 994,1569 994,1568 994,1566 994,1563 994,1559 994,1554 994,1548 994,1541 994,1533 994,1526 994,1520 994,1515 994,1511 994,1508 994,1506 994,1505 994,1505 994,1506 994,1508 994,1511 994,1515 994,1520 994,1526 994,1531 994,1535 994,1538 994,1540 994,1541 994,1541 994,1540 994,1538 994,1535 994,1531 994,1528 994,1526 994,1525 994,1525 994,1526 994,1528 994,1529 993,1529 991,1528 988,1526 984,1523 979,1519 973,1514 966,1508 958,1501 949,1493 939,1484 928,1474 918,1463 909,1451 901,1440 894,1430 888,1421 883,1413 879,1406 876,1400 874,1395 873,1391 873,1388 874,1386 876,1385 879,1385 883,1386 888,1388 894,1391 901,1395 909,1400 918,1406 926,1413 933,1421 939,1430 944,1440 948,1449 951,1457 953,1464 954,1470 954,1475 953,1479 951,1482 948,1484 944,1485 939,1485 933,1484 926,1482 919,1479 913,1475 908,1470 904,1464 901,1457 899,1449 898,1440 898,1432 899,1425 901,1419 904,1414 908,1410 913,1407 919,1405 924,1404 928,1404 931,1405 933,1407 934,1410 934,1414 933,1419 931,1425 928,1432 924,1440 919,1447 915,1453 912,1458 910,1462 909,1465 909,1467 910,1468 912,1468 915,1467 919,1465 922,1462 924,1458 925,1453 925,1447 924,1440 922,1434 919,1429 917,1425 916,1422 916,1420 917,1419 919,1419 920,1420 920,1422 919,1425 919,1429 919,1434 919,1440 920,1447 922,1453 925,1458 929,1462 934,1465 940,1467 947,1468 955,1468 962,1467 968,1465 973,1462 977,1458 980,1453 982,1449 983,1446 983,1444 982,1443 980,1443 977,1444 973,1446 968,1449 962,1451 956,1452 951,1452 947,1451 944,1449 942,1448 941,1448 941,1449 942,1449 944,1449 947,1449 951,1449 956,1449 962,1450 969,1452 977,1455 986,1459 996,1464 1005,1470 1013,1477 1020,1485 1026,1494 1031,1504 1035,1515 1038,1527 1040,1540 1041,1552 1041,1563 1040,1573 1038,1582 1035,1590 1031,1597 1026,1603 1020,1608 1013,1612 1005,1615 997,1617 990,1618 984,1618 979,1617 975,1615 972,1612 970,1608 969,1603 969,1597 970,1590 972,1582 975,1573 979,1563 984,1552 990,1542 997,1533 1003,1525 1008,1518 1012,1512 1015,1507 1017,1503 1018,1500 1018,1498 1017,1497 1015,1497 1012,1498 1008,1500 1003,1503 997,1507 992,1512 988,1518 985,1525 983,1533 982,1542 982,1550 983,1557 985,1563 988,1568 992,1572 997,1575 1001,1577 1004,1578 1006,1578 1007,1577 1007,1575 1006,1572 1004,1568 1001,1563 997,1557 994,1550 992,1544 991,1539 991,1535 992,1532 994,1530 997,1529 999,1529 1000,1530 1000,1532 999,1535 997,1539 996,1544 996,1548 997,1551 997,1553 997,1554 997,1554 997,1553 997,1551 997,1548 997,1544 996,1541 994,1539 991,1538 987,1538 984,1539 982,1541 981,1544 981,1547 982,1549 984,1550 986,1550 987,1549 987,1547 986,1546 986,1546 986,1547 985,1547 983,1546 980,1544 976,1541 971,1537 965,1532 958,1526 950,1519 941,1511 931,1502 920,1492 908,1481 895,1469 883,1456 872,1442 862,1427 853,1413 845,1400 838,1388 832,1377 827,1367 823,1358 820,1350 818,1343 817,1337 817,1332 818,1328 820,1325 823,1323 827,1322 832,1322 838,1323 845,1325 853,1328 862,1332 872,1337 883,1343 893,1350 902,1358 910,1367 917,1377 923,1388 928,1400 932,1413 935,1426 937,1438 938,1449 938,1459 937,1468 935,1476 932,1483 928,1489 923,1494 917,1498 910,1501 902,1503 893,1504 884,1504 876,1503 869,1501 863,1498 858,1494 854,1489 851,1483 849,1476 848,1468 848,1459 849,1449 851,1438 854,1426 858,1415 863,1405 869,1396 876,1388 884,1381 891,1375 897,1370 902,1366 906,1363 909,1361 911,1360 912,1360 912,1361 911,1363 909,1366 906,1370 902,1375 897,1381 891,1388 884,1396 878,1405 873,1415 869,1426 866,1436 864,1445 863,1453 863,1460 864,1466 866,1471 869,1475 873,1478 878,1480 884,1481 889,1481 893,1480 896,1478 898,1475 899,1471 899,1466 898,1460 896,1453 893,1445 889,1436 884,1426 878,1415 871,1403 863,1390 854,1376 844,1361 833,1345 821,1328 808,1310 794,1291 779,1271 765,1250 752,1228 740,1207 729,1187 719,1168 710,1150 702,1133 695,1117 689,1102 684,1088 680,1075 677,1063 675,1052 674,1042 674,1033 675,1025 677,1018 680,1012 684,1007 689,1003 695,1000 702,998 710,997 719,997 729,998 740,1000 752,1003 765,1007 777,1012 788,1018 798,1025 807,1033 815,1042 822,1052 828,1063 833,1075 837,1088 840,1102 842,1117 843,1133 843,1150 842,1168 840,1187 837,1207 833,1226 828,1244 822,1261 815,1277 807,1292 798,1306 788,1319 777,1331 767,1342 758,1352 750,1361 743,1369 737,1376 732,1382 728,1387 725,1391 723,1394 722,1396 722,1397 723,1397 725,1396 728,1394 732,1391 737,1387 743,1382 750,1376 758,1369 767,1361 775,1352 782,1342 788,1331 793,1319 797,1306 800,1292 802,1277 803,1261 803,1244 802,1226 800,1209 797,1193 793,1178 788,1164 782,1151 775,1139 769,1128 764,1118 760,1109 757,1101 755,1094 754,1088 754,1083 755,1079 757,1076 760,1074 764,1073 769,1073 774,1074 778,1076 781,1079 783,1083 784,1088 784,1094 783,1101 781,1109 778,1118 774,1128 771,1139 769,1151 768,1164 768,1178 769,1193 771,1209 774,1226 778,1244 783,1263 789,1283 796,1304 804,1326 813,1349 823,1373 834,1398 846,1424 859,1449 873,1473 888,1496 904,1518 921,1539 937,1559 952,1578 966,1596 979,1613 991,1629 1002,1644 1012,1658 1021,1671 1029,1683 1036,1694 1042,1704 1047,1713 1051,1721 1054,1728 1056,1734 1057,1739 1057,1743 1056,1746 1054,1748 1051,1749 1047,1749 1042,1748 1036,1746 1029,1743 1021,1739 1012,1734 1002,1728 991,1721 979,1713 966,1704 952,1694 937,1683 923,1671 910,1658 898,1644 887,1629 877,1613 868,1596 860,1578 853,1559 847,1539 842,1518 838,1496 835,1473 833,1449 832,1426 832,1404 833,1383 835,1363 838,1344 842,1326 847,1309 853,1293 860,1278 868,1264 877,1251 887,1239 898,1228 910,1218 923,1209 935,1201 946,1194 956,1188 965,1183 973,1179 980,1176 986,1174 991,1173 995,1173 998,1174 1000,1176 1001,1179 1001,1183 1000,1188 998,1194 995,1201 991,1209 986,1218 980,1228 973,1239 965,1251 956,1264 946,1278 935,1293 925,1309 916,1326 908,1344 901,1363 895,1383 890,1404 886,1426 883,1447 881,1467 880,1486 880,1504 881,1521 883,1537 886,1552 890,1566 895,1579 901,1591 908,1602 916,1612 925,1621 933,1629 940,1636 946,1642 951,1647 955,1651 958,1654 960,1656 961,1657 961,1657 960,1656 958,1654 955,1651 951,1647 946,1642 940,1636 933,1629 927,1621 922,1612 918,1602 915,1591 913,1579 912,1566 912,1552 913,1537 915,1521 918,1504 922,1486 927,1467 931,1447 934,1428 936,1410 937,1393 937,1377 936,1362 934,1348 931,1335 927,1323 924,1312 922,1302 921,1293 921,1285 922,1278 924,1272 927,1267 929,1263 930,1260 930,1258 929,1257 927,1257 926,1258 926,1260 927,1263 927,1267 927,1272 927,1278 927,1285 927,1293 927,1302 927,1312 927,1323 927,1335 927,1348 927,1362 927,1377 927,1393 927,1410 927,1428 927,1445 927,1461 927,1476 927,1490 927,1503 927,1515 927,1526 927,1536 927,1545 927,1553 927,1560 927,1566 927,1571 927,1575 927,1578 927,1580 927,1581 927,1581 927,1580 927,1578 927,1575 927,1571 927,1566 927,1560 927,1553 927,1545 927,1536 927,1526 927,1515 927,1503 927,1490 927,1476 927,1461 927,1445 927,1430 927,1416 927,1403 927,1391 927,1380 927,1370 927,1361 927,1353 927,1346 927,1340 927,1335 927,1331 927,1328 927,1326 927,1325 927,1325 927,1326 927,1328 927,1331 927,1335 927,1340 927,1346 927,1353 927,1361 927,1370 927,1380 927,1391 927,1403 927,1416 927,1430 927,1444 928,1459 930,1475 933,1492 937,1510 942,1529 948,1547 955,1564 963,1580 972,1595 982,1609 991,1622 999,1634 1006,1645 1012,1655 1017,1664 1021,1672 1024,1679 1026,1685 1027,1690 1027,1694 1026,1697 1024,1699 1021,1700 1017,1700 1012,1699 1006,1697 999,1694 991,1690 984,1685 978,1679 973,1672 969,1664 966,1655 964,1645 963,1634 963,1622 964,1609 966,1595 969,1580 973,1564 978,1547 984,1531 989,1516 993,1502 996,1489 998,1477 999,1466 999,1456 998,1447 996,1439 993,1432 989,1426 986,1421 984,1417 983,1414 983,1412 984,1411 986,1411 987,1412 987,1414 986,1417 986,1421 986,1426 986,1432 986,1439 986,1447 986,1456 986,1466 986,1477 986,1489 986,1502 986,1516 986,1531 986,1545 986,1558 986,1570 986,1581 986,1591 986,1600 986,1608 986,1615 986,1621 986,1626 986,1630 986,1633 986,1635 986,1636 986,1636 986,1635 986,1633 986,1630 986,1626 986,1621 986,1615 986,1608 986,1600 986,1591 986,1581 986,1570 986,1558 986,1545 986,1533 986,1522 986,1512 986,1503 986,1495 986,1488 986,1482 986,1477 986,1473 986,1470 986,1468 986,1467 986,1467 986,1468 986,1470 986,1473 986,1477 986,1482 986,1488 986,1495 986,1503 986,1512 986,1522 986,1533 986,1543 986,1552 986,1560 986,1567 986,1573 986,1578 986,1582 986,1585 986,1587 986,1588 986,1588 986,1587 986,1585 986,1582 986,1578 986,1573 986,1567 986,1560 986,1552 986,1543 986,1535 986,1528 986,1522 986,1517 986,1513 986,1510 986,1508 986,1507 986,1507 986,1508 986,1510 986,1513 986,1517 986,1522 986,1528 986,1535 986,1541 986,1546 986,1550 986,1553 986,1555 986,1556 986,1556 986,1555 986,1553 986,1550 986,1546 986,1541 986,1537 986,1534 986,1532 986,1531 986,1531 986,1532 986,1534 986,1537 986,1539 986,1540 986,1540 986,1539 986,1538 985,1536 983,1533 982,1529 982,1524 982,1518 982,1511 982,1503 982,1494 982,1484 982,1473 981,1463 979,1454 976,1446 972,1439 967,1433 961,1428 956,1424 952,1421 949,1419 947,1418 946,1418 946,1419 947,1421 949,1424 952,1428 956,1433 959,1439 961,1446 962,1454 962,1463 961,1473 959,1484 958,1494 958,1503 959,1511 959,1518 959,1524 959,1529 959,1533 959,1536 959,1538 959,1539 959,1539 959,1538 959,1536 959,1533 959,1529 959,1524 959,1518 959,1511 959,1503 959,1494 959,1486 958,1477 956,1467 953,1456 949,1444 944,1431 938,1418 931,1406 923,1395 914,1385 904,1376 893,1368 881,1361 870,1355 860,1350 851,1346 843,1343 836,1341 830,1340 825,1340 821,1341 818,1343 816,1346 815,1350 815,1355 816,1361 818,1368 821,1376 825,1385 830,1395 836,1406 843,1418 851,1429 860,1439 870,1448 879,1456 887,1463 894,1469 900,1474 905,1478 909,1481 912,1483 914,1484 915,1484 915,1483 914,1481 912,1478 909,1474 905,1469 900,1463 894,1456 887,1448 879,1439 872,1429 866,1418 861,1408 857,1399 854,1391 852,1384 851,1378 851,1373 852,1369 854,1366 857,1364 861,1363 866,1363 872,1364 877,1366 881,1369 884,1373 886,1378 887,1384 887,1391 886,1399 884,1408 881,1418 877,1427 873,1435 870,1442 868,1448 867,1453 867,1457 868,1460 870,1462 873,1463 875,1463 876,1462 876,1460 875,1457 873,1453 872,1448 872,1442 873,1435 873,1427 873,1418 874,1410 876,1403 879,1397 883,1392 888,1388 894,1385 901,1383 909,1382 918,1382 928,1383 939,1385 951,1388 964,1392 978,1397 991,1403 1003,1410 1014,1418 1024,1427 1033,1437 1041,1448 1048,1460 1054,1473 1059,1487 1063,1502 1066,1518 1068,1535 1069,1551 1069,1566 1068,1580 1066,1593 1063,1605 1059,1616 1054,1626 1048,1635 1041,1643 1033,1650 1024,1656 1014,1661 1003,1665 991,1668 979,1670 968,1671 958,1671 949,1670 941,1668 934,1665 928,1661 923,1656 919,1650 916,1643 914,1635 913,1626 913,1616 914,1605 916,1593 919,1580 923,1566 928,1551 934,1537 941,1524 949,1512 958,1501 968,1491 979,1482 989,1474 998,1467 1006,1461 1013,1456 1019,1452 1024,1449 1028,1447 1031,1446 1033,1446 1034,1447 1034,1449 1033,1452 1031,1456 1028,1461 1024,1467 1019,1474 1013,1482 1006,1491 998,1501 989,1512 979,1524 970,1537 962,1549 955,1560 949,1570 944,1579 940,1587 937,1594 935,1600 934,1605 934,1609 935,1612 937,1614 940,1615 944,1615 949,1614 955,1612 962,1609 970,1605 979,1600 987,1594 994,1587 1000,1579 1005,1570 1009,1560 1012,1549 1014,1539 1015,1530 1015,1522 1014,1515 1012,1509 1009,1504 1005,1500 1000,1497 994,1495 987,1494 979,1494 972,1495 966,1497 961,1500 957,1504 954,1509 952,1515 951,1522 951,1530 952,1539 954,1547 957,1554 961,1560 966,1565 972,1569 979,1572 985,1574 990,1575 994,1575 997,1574 999,1572 1000,1569 1000,1565 999,1560 997,1554 994,1547 990,1539 985,1532 979,1526 974,1521 970,1517 967,1514 965,1512 964,1511 964,1511 965,1512 967,1514 970,1517 974,1521 979,1526 983,1532 986,1539 988,1545 989,1550 989,1554 988,1557 986,1559 983,1560 979,1560 976,1559 974,1557 973,1554 973,1550 974,1545 976,1539 979,1534 981,1530 982,1527 982,1525 981,1524 979,1524 978,1525 978,1527 979,1530 979,1534 979,1539 978,1543 976,1546 973,1548 969,1549 964,1549 958,1548 953,1546 949,1543 946,1539 944,1534 943,1528 943,1521 944,1513 946,1504 949,1494 953,1483 956,1471 958,1458 959,1446 959,1435 958,1425 956,1416 953,1408 951,1401 950,1395 950,1390 951,1386 953,1383 954,1381 954,1380 953,1380 953,1381 953,1383 953,1386 953,1390 953,1395 953,1401 953,1408 953,1416 953,1425 953,1435 953,1446 953,1456 953,1465 953,1473 953,1480 953,1486 953,1491 953,1495 953,1498 953,1500 953,1501 953,1501 953,1500 953,1498 953,1495 953,1491 953,1486 953,1480 953,1473 953,1465 953,1456 953,1448 952,1439 950,1429 947,1418 943,1406 938,1393 932,1381 925,1370 917,1360 908,1351 898,1343 887,1336 875,1330 862,1325 850,1321 839,1318 829,1316 820,1315 812,1315 805,1316 799,1318 794,1321 790,1325 787,1330 785,1336 784,1343 784,1351 785,1360 787,1370 790,1381 794,1391 799,1400 805,1408 812,1415 820,1421 829,1426 839,1430 850,1433 860,1435 869,1436 877,1436 884,1435 890,1433 895,1430 899,1426 902,1421 904,1415 905,1408 905,1400 904,1391 902,1383 899,1376 895,1370 890,1365 884,1361 877,1358 869,1356 860,1355 850,1355 841,1356 833,1358 826,1361 820,1365 815,1370 811,1376 808,1383 806,1389 805,1394 805,1398 806,1401 808,1403 811,1404 815,1404 820,1403 826,1401 833,1398 841,1394 850,1389 858,1384 865,1380 871,1377 876,1375 880,1374 883,1374 885,1375 886,1377 886,1380 885,1384 883,1387 880,1389 876,1390 871,1390 865,1389 858,1387 850,1384 841,1380 831,1375 820,1369 810,1362 801,1354 793,1345 786,1335 780,1324 775,1312 771,1299 768,1285 766,1270 765,1256 765,1243 766,1231 768,1220 771,1210 775,1201 780,1193 786,1186 793,1180 801,1175 810,1171 818,1168 825,1166 831,1165 836,1165 840,1166 843,1168 845,1171 846,1175 846,1180 845,1186 843,1193 840,1201 836,1210 831,1220 825,1231 818,1243 812,1256 807,1268 803,1279 800,1289 798,1298 797,1306 797,1313 798,1319 800,1324 803,1328 807,1331 812,1333 817,1334 821,1334 824,1333 826,1331 827,1328 827,1324 826,1319 824,1313 821,1306 817,1298 814,1289 812,1279 811,1268 811,1258 812,1249 814,1241 817,1234 819,1228 820,1223 820,1219 819,1216 817,1214 816,1213 816,1213 817,1214 817,1216 817,1219 817,1223 817,1228 817,1234 817,1241 817,1249 817,1258 817,1267 818,1277 820,1288 823,1300 827,1313 832,1327 838,1342 845,1358 853,1375 862,1393 872,1412 881,1430 889,1447 896,1463 902,1478 907,1492 911,1505 914,1517 916,1528 917,1538 917,1547 916,1555 914,1562 911,1568 907,1573 902,1577 896,1580 889,1582 881,1583 874,1583 868,1582 863,1580 859,1577 856,1573 854,1568 853,1562 853,1555 854,1547 856,1538 859,1528 863,1517 868,1505 874,1492 879,1478 883,1463 886,1447 888,1430 889,1414 889,1399 888,1385 886,1372 883,1360 879,1349 876,1339 874,1330 873,1322 873,1315 874,1309 876,1304 879,1300 881,1297 882,1295 882,1294 881,1294 879,1295 878,1297 878,1300 879,1304 879,1309 879,1315 879,1322 879,1330 879,1339 879,1349 879,1360 879,1372 879,1385 879,1399 879,1414 879,1428 879,1441 879,1453 879,1464 879,1474 879,1483 879,1491 879,1498 879,1504 879,1509 879,1513 879,1516 879,1518 879,1519 879,1519 879,1518 879,1516 879,1513 879,1509 879,1504 879,1498 879,1491 879,1483 879,1474 879,1464 879,1453 879,1441 879,1428 879,1416 879,1405 879,1395 879,1386 879,1378 879,1371 879,1365 879,1360 879,1356 879,1353 879,1351 879,1350 879,1350 879,1351 879,1353 879,1356 879,1360 879,1365 879,1371 879,1378 879,1386 879,1395 879,1405 879,1416 879,1426 879,1435 879,1443 879,1450 879,1456 879,1461 879,1465 879,1468 879,1470 879,1471 879,1471 879,1470 879,1468 879,1465 879,1461 879,1456 879,1450 879,1443 879,1435 879,1426 879,1418 879,1411 879,1405 879,1400 879,1396 879,1393 879,1391 879,1390 879,1390 879,1391 879,1393 879,1396 879,1400 879,1405 879,1411 879,1418 879,1424 879,1429 879,1433 879,1436 879,1438 879,1439 879,1439 879,1438 879,1436 879,1433 879,1429 879,1424 879,1420 879,1417 879,1415 879,1414 879,1414 879,1415 879,1417 879,1420 879,1422 879,1423 879,1423 879,1422 879,1421 878,1419 876,1416 873,1412 869,1407 864,1401 858,1394 851,1386 845,1377 840,1367 836,1356 833,1344 831,1331 830,1317 830,1304 831,1292 833,1281 836,1271 840,1262 845,1254 849,1247 852,1241 854,1236 855,1232 855,1229 854,1227 852,1226 849,1226 847,1227 846,1229 846,1232 847,1236 847,1241 847,1247 847,1254 847,1262 847,1271 847,1281 847,1292 847,1304 847,1315 847,1325 847,1334 847,1342 847,1349 847,1355 847,1360 847,1364 847,1367 847,1369 847,1370 847,1370 847,1369 847,1367 847,1364 847,1360 847,1355 847,1349 847,1342 847,1334 847,1325 847,1315 847,1306 847,1298 847,1291 847,1285 847,1280 847,1276 847,1273 847,1271 847,1270 847,1270 847,1271 847,1273 847,1276 847,1280 847,1285 847,1291 847,1298 847,1306 847,1313 847,1319 847,1324 847,1328 847,1331 847,1333 847,1334 847,1334 847,1333 847,1331 847,1328 847,1324 847,1319 847,1313 847,1308 848,1304 850,1301 853,1299 857,1298 862,1298 866,1299 869,1301 871,1304 872,1308 872,1313 871,1319 869,1326 866,1334 864,1343 863,1353 863,1364 864,1376 866,1389 867,1403 867,1416 866,1428 866,1439 866,1449 866,1458 866,1466 866,1473 866,1479 866,1484 866,1488 866,1491 866,1493 866,1494 866,1494 866,1493 866,1491 866,1488 866,1484 866,1479 866,1473 866,1466 866,1458 866,1449 866,1439 866,1428 866,1416 866,1405 866,1395 866,1386 866,1378 866,1371 866,1365 866,1360 866,1356 866,1353 866,1351 866,1350 866,1350 866,1351 866,1353 866,1356 866,1360 866,1365 866,1371 866,1378 866,1386 866,1395 866,1405 866,1414 866,1422 866,1429 866,1435 866,1440 866,1444 866,1447 866,1449 866,1450 866,1450 866,1449 866,1447 866,1444 866,1440 866,1435 866,1429 866,1422 866,1414 866,1407 866,1401 866,1396 866,1392 866,1389 866,1387 866,1386 866,1386 866,1387 866,1389 866,1392 866,1396 866,1401 866,1407 866,1413 867,1420 869,1428 872,1437 876,1447 881,1456 887,1464 894,1471 902,1477 911,1482 921,1486 932,1489 944,1491 955,1492 965,1492 974,1491 982,1489 989,1486 995,1482 1000,1477 1004,1471 1007,1464 1009,1456 1010,1449 1010,1443 1009,1438 1007,1434 1004,1431 1000,1429 995,1428 989,1428 982,1429 974,1431 965,1434 955,1438 946,1443 938,1449 931,1454 925,1458 920,1461 916,1463 913,1464 911,1464 910,1463 910,1461 911,1458 913,1454 916,1450 920,1447 925,1445 931,1444 938,1444 946,1445 953,1447 959,1450 964,1452 968,1453 971,1453 973,1452 974,1450 974,1449 973,1449 971,1450 968,1450 964,1450 959,1450 953,1450 948,1450 944,1450 941,1450 939,1450 938,1450 938,1450 939,1450 941,1450 944,1450 948,1450 951,1450 955,1451 960,1451 964,1451 967,1451 969,1451 970,1451 970,1451 969,1451 967,1451 964,1451 962,1451 961,1451 961,1451 962,1451 963,1451 965,1452 968,1454 972,1457 977,1461 983,1466 990,1472 996,1479 1001,1487 1005,1496 1008,1506 1010,1517 1011,1529 1011,1542 1010,1556 1008,1569 1005,1581 1001,1592 996,1602 991,1611 987,1619 984,1626 982,1632 981,1637 981,1641 982,1644 984,1646 987,1647 991,1647 994,1646 996,1644 997,1641 997,1637 996,1632 994,1626 991,1619 989,1611 988,1602 988,1592 989,1581 991,1569 992,1557 992,1546 991,1536 991,1527 991,1519 991,1512 991,1506 991,1501 991,1497 991,1494 991,1492 991,1491 991,1491 991,1492 991,1494 991,1497 991,1501 991,1506 991,1512 991,1519 991,1527 991,1536 991,1546 991,1557 990,1567 988,1576 985,1584 983,1591 982,1597 982,1602 983,1606 985,1609 986,1611 986,1612 985,1612 985,1611 985,1609 985,1606 985,1602 985,1597 985,1591 985,1584 985,1576 985,1567 985,1557 985,1546 985,1534 985,1521 985,1507 985,1492 985,1478 985,1465 985,1453 985,1442 985,1432 985,1423 985,1415 985,1408 985,1402 985,1397 985,1393 985,1390 985,1388 985,1387 985,1387 985,1388 985,1390 985,1393 985,1397 985,1402 985,1408 985,1415 985,1423 985,1432 985,1442 985,1453 985,1465 985,1478 985,1490 985,1501 985,1511 985,1520 985,1528 985,1535 985,1541 985,1546 985,1550 985,1553 985,1555 985,1556 985,1556 985,1555 985,1553 985,1550 985,1546 985,1541 985,1535 985,1528 985,1520 985,1511 985,1501 985,1490 985,1480 984,1469 982,1459 979,1450 975,1442 970,1435 964,1429 957,1424 949,1420 942,1417 936,1415 931,1414 927,1414 924,1415 922,1417 921,1420 921,1424 922,1429 924,1435 927,1442 931,1450 936,1459 942,1467 947,1474 951,1480 954,1485 956,1489 957,1492 957,1494 956,1495 954,1495 951,1494 947,1492 944,1489 942,1485 941,1480 941,1474 942,1467 944,1461 945,1456 945,1452 945,1449 945,1447 945,1446 945,1446 945,1447 945,1449 945,1452 945,1456 945,1461 945,1467 944,1472 942,1476 939,1479 935,1481 930,1482 924,1482 919,1481 915,1479 912,1476 910,1472 909,1467 909,1461 910,1454 912,1446 915,1437 919,1429 923,1422 926,1416 928,1411 929,1407 929,1404 928,1402 926,1401 923,1401 921,1402 920,1404 920,1407 921,1411 923,1416 924,1422 924,1429 923,1435 923,1440 923,1444 923,1447 923,1449 923,1450 923,1450 923,1449 923,1447 923,1444 923,1440 923,1435 923,1431 923,1428 923,1426 923,1425 923,1425 923,1426 923,1428 923,1431 923,1434 924,1438 926,1443 929,1449 933,1456 938,1464 944,1473 951,1483 959,1494 966,1506 972,1517 977,1527 981,1536 984,1544 986,1551 987,1557 987,1562 986,1566 984,1569 981,1571 977,1572 972,1572 966,1571 961,1569 957,1566 954,1562 952,1557 951,1551 951,1544 952,1536 954,1527 957,1517 961,1508 964,1500 966,1493 967,1487 967,1482 966,1478 964,1475 963,1473 963,1472 964,1472 964,1473 964,1475 964,1478 964,1482 964,1487 964,1493 964,1500 964,1508 964,1515 964,1521 964,1526 964,1530 964,1533 964,1535 964,1536 964,1536 964,1535 964,1533 964,1530 964,1526 964,1521 964,1515 964,1510 964,1506 964,1503 964,1501 964,1500 964,1500 964,1501 964,1503 964,1506 964,1510 964,1513 964,1515 964,1516 964,1516 964,1515 964,1513 964,1512 965,1510 967,1507 970,1503 974,1500 979,1498 985,1497 990,1497 994,1498 997,1500 999,1501 1000,1501 1000,1501 999,1501 997,1501 994,1501 990,1501 987,1501 985,1502 984,1504 984,1507 985,1511 987,1516 988,1522 988,1529 987,1535 985,1540 982,1544 978,1547 973,1549 967,1550 960,1550 952,1549 943,1547 933,1544 922,1540 910,1535 897,1529 883,1522 868,1514 852,1505 837,1495 823,1484 810,1472 798,1459 787,1445 777,1430 768,1414 760,1397 753,1381 747,1366 742,1352 738,1339 735,1327 733,1316 732,1306 732,1297 733,1289 735,1282 738,1276 742,1271 747,1267 753,1264 760,1262 768,1261 777,1261 787,1262 798,1264 810,1267 823,1271 837,1276 852,1282 866,1289 879,1297 891,1306 902,1316 912,1327 921,1339 929,1352 936,1366 942,1381 947,1395 951,1408 954,1420 956,1431 957,1441 957,1450 956,1458 954,1465 951,1471 947,1476 942,1480 936,1483 929,1485 921,1486 912,1486 902,1485 891,1483 879,1480 866,1476 852,1471 839,1465 827,1458 816,1450 806,1441 797,1431 789,1420 782,1408 776,1395 771,1383 767,1372 764,1362 762,1353 761,1345 761,1338 762,1332 764,1327 767,1323 771,1320 776,1318 782,1317 789,1317 797,1318 806,1320 816,1323 827,1327 839,1332 852,1338 864,1345 875,1353 885,1362 894,1372 902,1383 909,1393 915,1402 920,1410 924,1417 927,1423 929,1428 930,1432 930,1435 929,1437 927,1438 924,1438 920,1437 915,1435 909,1432 902,1428 894,1423 885,1417 875,1410 864,1402 852,1393 841,1385 831,1378 822,1372 814,1367 807,1363 801,1360 796,1358 792,1357 789,1357 787,1358 786,1360 786,1363 787,1367 789,1372 792,1378 796,1385 801,1391 807,1396 814,1400 822,1403 831,1405 841,1406 852,1406 862,1405 871,1403 879,1400 886,1396 892,1391 897,1387 901,1384 904,1382 906,1381 907,1381 907,1382 906,1384 904,1387 901,1389 897,1390 892,1390 886,1389 879,1389 871,1389 862,1389 852,1389 843,1390 835,1392 828,1395 822,1399 817,1404 813,1410 810,1417 808,1425 807,1434 807,1444 808,1453 810,1461 813,1468 817,1474 822,1479 828,1483 835,1486 843,1488 852,1489 862,1489 873,1488 885,1486 898,1483 912,1479 927,1474 941,1468 954,1461 966,1453 977,1446 987,1440 996,1435 1004,1431 1011,1428 1017,1426 1022,1425 1026,1425 1029,1426 1031,1428 1032,1431 1032,1435 1031,1440 1029,1446 1026,1451 1022,1455 1017,1458 1011,1460 1004,1461 996,1461 987,1460 977,1458 966,1455 954,1451 941,1448 929,1446 918,1445 908,1445 899,1446 891,1448 884,1449 878,1449 873,1448 869,1448 866,1448 864,1448 863,1448 863,1448 864,1448 866,1448 869,1448 873,1448 878,1448 884,1448 891,1448 899,1448 908,1448 918,1448 929,1448 941,1449 954,1451 968,1454 983,1458 997,1463 1010,1469 1022,1476 1033,1484 1043,1493 1052,1503 1060,1514 1067,1526 1073,1539 1078,1551 1082,1562 1085,1572 1087,1581 1088,1589 1088,1596 1087,1602 1085,1607 1082,1611 1078,1614 1073,1616 1067,1617 1060,1617 1052,1616 1043,1614 1033,1611 1022,1607 1010,1602 997,1596 984,1589 972,1581 961,1572 951,1562 942,1551 934,1540 927,1530 921,1521 916,1513 912,1506 909,1500 907,1495 906,1491 906,1488 907,1486 909,1485 912,1485 916,1486 921,1488 927,1491 934,1495 942,1500 951,1506 961,1513 972,1521 984,1530 995,1540 1005,1549 1014,1557 1022,1564 1029,1570 1035,1575 1040,1579 1044,1582 1047,1584 1049,1585 1050,1585 1050,1584 1049,1582 1047,1579 1044,1575 1040,1570 1035,1564 1029,1557 1022,1549 1014,1540 1005,1532 995,1525 984,1519 974,1514 965,1510 957,1507 950,1505 944,1504 939,1504 935,1505 932,1507 930,1510 929,1514 929,1519 930,1525 932,1532 935,1540 939,1547 944,1553 950,1558 957,1562 965,1565 974,1567 984,1568 993,1568 1001,1567 1008,1565 1014,1562 1019,1558 1023,1553 1026,1547 1028,1540 1029,1534 1029,1529 1028,1525 1026,1522 1023,1520 1019,1519 1014,1519 1008,1520 1001,1522 993,1525 984,1529 976,1534 969,1540 963,1545 958,1549 954,1552 951,1554 949,1555 948,1555 948,1554 949,1552 951,1549 954,1545 958,1540 963,1536 969,1533 976,1531 984,1530 991,1530 997,1531 1002,1533 1006,1536 1009,1540 1011,1543 1012,1545 1012,1546 1011,1546 1009,1545 1006,1543 1002,1540 997,1538 991,1537 984,1537 978,1538 973,1540 969,1541 966,1541 964,1540 963,1540 963,1540 964,1540 966,1540 969,1540 973,1540 978,1540 984,1540 989,1539 993,1537 996,1534 998,1530 999,1527 999,1525 998,1524 996,1524 993,1525 989,1527 984,1529 978,1530 973,1530 969,1529 966,1529 964,1529 963,1529 963,1529 964,1529 966,1529 969,1529 973,1529 976,1529 978,1529 979,1529 979,1529 978,1529 976,1529 974,1529 973,1530 973,1532 974,1535 976,1539 979,1542 981,1544 982,1545 982,1545 981,1544 981,1542 980,1539 978,1535 975,1530 971,1524 966,1517 960,1509 953,1500 945,1490 938,1479 932,1467 927,1455 923,1444 920,1434 918,1425 917,1417 917,1410 918,1404 920,1399 923,1395 927,1392 932,1390 938,1389 943,1389 947,1390 950,1392 952,1395 953,1399 953,1404 952,1410 950,1417 947,1425 943,1434 940,1444 938,1455 937,1465 937,1474 938,1482 940,1489 943,1495 945,1500 946,1504 946,1507 945,1509 943,1510 942,1510 942,1509 943,1507 943,1504 943,1500 943,1495 943,1489 943,1482 943,1474 943,1465 943,1455 944,1446 946,1438 949,1431 953,1425 958,1420 964,1416 971,1413 979,1411 988,1410 996,1410 1003,1411 1009,1413 1014,1416 1018,1420 1021,1425 1023,1431 1024,1438 1024,1446 1023,1455 1021,1465 1018,1476 1014,1488 1009,1501 1003,1515 996,1530 990,1546 985,1561 981,1575 978,1588 976,1600 975,1611 975,1621 976,1630 978,1638 981,1645 985,1651 990,1656 995,1660 999,1663 1002,1665 1004,1666 1005,1666 1005,1665 1004,1663 1002,1660 999,1656 995,1651 992,1645 990,1638 989,1630 989,1621 990,1611 992,1600 995,1588 997,1575 998,1561 998,1548 997,1536 995,1525 994,1515 994,1506 995,1498 995,1491 995,1485 995,1480 995,1476 995,1473 995,1471 995,1470 995,1470 995,1471 995,1473 995,1476 995,1480 995,1485 995,1491 995,1498 995,1506 995,1515 995,1525 995,1536 995,1548 995,1559 995,1569 995,1578 995,1586 995,1593 995,1599 995,1604 995,1608 995,1611 995,1613 995,1614 995,1614 995,1613 995,1611 995,1608 995,1604 995,1599 995,1593 995,1586 995,1578 995,1569 995,1559 995,1549 994,1538 992,1526 989,1513 985,1499 980,1484 974,1468 967,1451 959,1433 950,1414 940,1394 929,1373 917,1351 904,1328 890,1304 875,1279 859,1253 842,1226 824,1200 805,1175 785,1151 765,1128 746,1106 728,1085 711,1065 695,1046 680,1028 666,1011 653,995 641,980 630,966 620,953 611,941 603,930 596,920 590,911 585,903 581,896 578,890 576,885 575,881 575,878 576,876 578,875 581,875 585,876 590,878 596,881 603,885 611,890 620,896 630,903 641,911 653,920 666,930 680,941 695,953 711,966 728,980 746,995 765,1011 783,1028 800,1046 816,1065 831,1085 845,1106 858,1128 870,1151 881,1175 891,1200 900,1224 908,1247 915,1269 921,1290 926,1310 930,1329 933,1347 935,1364 936,1380 936,1395 935,1409 933,1422 930,1434 926,1445 921,1455 915,1464 908,1472 900,1479 891,1485 881,1490 870,1494 858,1497 845,1499 831,1500 816,1500 800,1499 783,1497 765,1494 748,1490 732,1485 717,1479 703,1472 690,1464 678,1455 667,1445 657,1434 648,1422 640,1409 633,1395 627,1380 622,1364 618,1347 615,1329 613,1310 612,1290 612,1269 613,1247 615,1224 618,1202 622,1181 627,1161 633,1142 640,1124 648,1107 657,1091 667,1076 678,1062 690,1049 703,1037 717,1026 732,1016 748,1007 765,999 781,992 796,986 810,981 823,977 835,974 846,972 856,971 865,971 873,972 880,974 886,977 891,981 895,986 898,992 900,999 901,1007 901,1016 900,1026 898,1037 895,1049 891,1062 886,1076 880,1091 873,1107 865,1124 856,1142 846,1161 835,1181 823,1202 810,1223 796,1243 781,1262 765,1280 750,1297 736,1313 723,1328 711,1342 700,1355 690,1367 681,1378 673,1388 666,1397 660,1405 655,1412 651,1418 648,1423 646,1427 645,1430 645,1432 646,1433 648,1433 651,1432 655,1430 660,1427 666,1423 673,1418 681,1412 690,1405 700,1397 711,1388 723,1378 736,1367 750,1355 765,1342 779,1328 792,1313 804,1297 815,1280 825,1262 834,1243 842,1223 849,1204 855,1186 860,1169 864,1153 867,1138 869,1124 870,1111 870,1099 869,1088 867,1078 864,1069 860,1061 855,1054 849,1048 842,1043 834,1039 825,1036 815,1034 804,1033 792,1033 779,1034 765,1036 752,1039 740,1043 729,1048 719,1054 710,1061 702,1069 695,1078 689,1088 684,1099 680,1111 677,1124 675,1138 674,1153 674,1169 675,1186 677,1204 680,1223 684,1241 689,1258 695,1274 702,1289 710,1303 719,1316 729,1328 740,1339 752,1349 765,1358 777,1366 788,1373 798,1379 807,1384 815,1388 822,1391 828,1393 833,1394 837,1394 840,1393 842,1391 843,1388 843,1384 842,1379 840,1373 837,1366 833,1358 828,1349 822,1339 815,1328 807,1316 798,1303 788,1289 777,1274 765,1258 754,1241 744,1223 735,1206 727,1190 720,1175 714,1161 709,1148 705,1136 702,1125 700,1115 699,1106 699,1098 700,1091 702,1085 705,1080 709,1076 714,1073 720,1071 727,1070 735,1070 744,1071 754,1073 765,1076 775,1080 784,1085 792,1091 799,1098 805,1106 810,1115 814,1125 817,1136 819,1148 820,1161 820,1175 819,1190 817,1206 814,1223 810,1239 805,1254 799,1268 792,1281 784,1293 775,1304 765,1314 756,1323 748,1331 741,1338 735,1344 730,1349 726,1353 723,1356 721,1358 720,1359 720,1359 721,1358 723,1356 726,1353 730,1349 735,1344 741,1338 748,1331 756,1323 765,1314 773,1304 780,1293 786,1281 791,1268 795,1254 798,1239 800,1223 801,1208 801,1194 800,1181 798,1169 795,1158 791,1148 786,1139 780,1131 773,1124 765,1118 758,1113 752,1109 747,1106 743,1104 740,1103 738,1103 737,1104 737,1106 738,1109 740,1113 743,1118 747,1124 752,1131 758,1139 765,1148 771,1158 776,1169 780,1181 783,1194 785,1208 786,1223 786,1237 785,1250 783,1262 780,1273 776,1283 771,1292 765,1300 760,1307 756,1313 753,1318 751,1322 750,1325 750,1327 751,1328 753,1328 756,1327 760,1325 765,1322 769,1318 772,1313 774,1307 775,1300 775,1292 774,1283 772,1273 769,1262 765,1250 762,1237 760,1223 759,1210 759,1198 760,1187 762,1177 765,1168 767,1160 768,1153 768,1147 767,1142 765,1138 764,1135 764,1133 765,1132 765,1132 765,1133 765,1135 765,1138 765,1142 765,1147 765,1153 765,1160 765,1168 765,1177 765,1187 765,1198 765,1210 765,1223 766,1237 768,1252 771,1268 775,1285 780,1303 786,1322 793,1342 801,1363 810,1385 820,1408 831,1432 843,1455 856,1477 870,1498 885,1518 899,1537 912,1555 924,1572 935,1588 945,1603 954,1617 962,1630 969,1642 975,1653 980,1663 984,1672 987,1680 989,1687 990,1693 990,1698 989,1702 987,1705 984,1707 980,1708 975,1708 969,1707 962,1705 954,1702 945,1698 935,1693 924,1687 912,1680 899,1672 887,1663 876,1653 866,1642 857,1630 849,1617 842,1603 836,1588 831,1572 827,1555 824,1537 822,1518 821,1498 821,1477 822,1455 824,1434 827,1414 831,1395 836,1377 842,1360 849,1344 857,1329 866,1315 876,1302 887,1290 897,1279 906,1269 914,1260 921,1252 927,1245 932,1239 936,1234 939,1230 941,1227 942,1225 942,1224 941,1224 939,1225 936,1227 932,1230 927,1234 921,1239 914,1245 906,1252 897,1260 889,1269 882,1279 876,1290 871,1302 867,1315 864,1329 862,1344 861,1360 861,1377 862,1395 864,1414 867,1434 871,1453 876,1471 882,1488 889,1504 895,1519 900,1533 904,1546 907,1558 909,1569 910,1579 910,1588 909,1596 907,1603 904,1609 900,1614 895,1618 891,1621 888,1623 886,1624 885,1624 885,1623 886,1621 888,1618 891,1614 894,1609 896,1603 897,1596 897,1588 896,1579 894,1569 893,1558 893,1546 894,1533 894,1519 894,1504 894,1488 894,1471 894,1453 894,1436 894,1420 894,1405 894,1391 894,1378 894,1366 894,1355 894,1345 894,1336 894,1328 894,1321 894,1315 894,1310 894,1306 894,1303 894,1301 894,1300 894,1300 894,1301 894,1303 894,1306 894,1310 894,1315 894,1321 894,1328 894,1336 894,1345 894,1355 894,1366 894,1378 894,1391 894,1405 894,1420 894,1436 894,1451 894,1465 894,1478 894,1490 894,1501 894,1511 894,1520 894,1528 894,1535 894,1541 894,1546 894,1550 894,1553 894,1555 894,1556 894,1556 894,1555 894,1553 894,1550 894,1546 894,1541 894,1535 894,1528 894,1520 894,1511 894,1501 894,1490 894,1478 894,1465 894,1451 894,1438 893,1424 891,1409 888,1393 884,1376 879,1358 873,1341 868,1325 864,1310 861,1296 859,1283 858,1271 858,1260 859,1250 861,1241 864,1233 868,1226 873,1220 877,1215 880,1211 882,1208 883,1206 883,1205 882,1205 880,1206 877,1208 873,1211 870,1215 868,1220 867,1226 867,1233 868,1241 870,1250 873,1260 875,1271 876,1283 876,1296 875,1310 873,1325 872,1341 872,1356 873,1370 873,1383 873,1395 873,1406 873,1416 873,1425 873,1433 873,1440 873,1446 873,1451 873,1455 873,1458 873,1460 873,1461 873,1461 873,1460 873,1458 873,1455 873,1451 873,1446 873,1440 873,1433 873,1425 873,1416 873,1406 873,1395 873,1383 873,1370 873,1356 873,1343 873,1331 873,1320 873,1310 873,1301 873,1293 873,1286 873,1280 873,1275 873,1271 873,1268 873,1266 873,1265 873,1265 873,1266 873,1268 873,1271 873,1275 873,1280 873,1286 873,1293 873,1301 873,1310 873,1320 873,1331 873,1343 873,1354 873,1364 873,1373 873,1381 873,1388 873,1394 873,1399 873,1403 873,1406 873,1408 873,1409 873,1409 873,1408 873,1406 873,1403 873,1399 873,1394 873,1388 873,1381 873,1373 873,1364 873,1354 873,1345 873,1337 873,1330 873,1324 873,1319 873,1315 873,1312 873,1310 873,1309 873,1309 873,1310 873,1312 873,1315 873,1319 873,1324 873,1330 873,1337 873,1345 873,1352 873,1358 873,1363 873,1367 873,1370 873,1372 873,1373 873,1373 873,1372 873,1370 873,1367 873,1363 873,1358 873,1352 873,1347 872,1341 870,1334 867,1326 863,1317 858,1307 852,1296 845,1284 837,1271 828,1257 818,1242 807,1228 795,1215 784,1203 774,1192 765,1182 757,1173 750,1165 744,1158 739,1152 735,1147 732,1143 730,1140 729,1138 729,1137 730,1137 732,1138 735,1140 739,1143 744,1147 750,1152 757,1158 765,1165 774,1173 784,1182 793,1192 801,1203 808,1215 814,1228 819,1240 823,1251 826,1261 828,1270 829,1278 829,1285 828,1291 826,1296 823,1300 819,1303 814,1305 808,1306 801,1306 793,1305 786,1303 780,1300 775,1296 771,1291 768,1285 766,1278 765,1270 765,1261 766,1251 768,1240 771,1230 775,1221 780,1213 786,1206 791,1200 795,1195 798,1191 800,1188 801,1186 801,1185 800,1185 798,1186 795,1188 791,1191 788,1195 786,1200 785,1206 785,1213 786,1221 788,1230 789,1238 789,1245 788,1251 788,1256 788,1260 788,1263 788,1265 788,1266 788,1266 788,1265 788,1263 788,1260 788,1256 788,1251 788,1245 788,1238 788,1232 788,1227 788,1223 788,1220 788,1218 788,1217 788,1217 788,1218 788,1220 788,1223 788,1227 788,1232 788,1236 788,1239 788,1241 788,1242 788,1242 788,1241 788,1239 788,1236 788,1234 788,1233 788,1233 788,1234 788,1235 789,1237 791,1240 794,1244 798,1249 803,1255 809,1262 816,1270 824,1279 833,1289 843,1300 854,1312 866,1325 879,1339 893,1354 908,1370 924,1387 941,1405 959,1424 978,1444 996,1465 1013,1487 1029,1508 1044,1528 1058,1547 1071,1565 1083,1582 1094,1598 1104,1613 1113,1627 1121,1640 1128,1652 1134,1663 1139,1673 1143,1682 1146,1690 1148,1697 1149,1703 1149,1708 1148,1712 1146,1715 1143,1717 1139,1718 1134,1718 1128,1717 1121,1715 1113,1712 1104,1708 1094,1703 1083,1697 1071,1690 1058,1682 1044,1673 1029,1663 1013,1652 996,1640 980,1627 965,1613 951,1598 938,1582 926,1565 915,1547 905,1528 896,1508 888,1489 881,1471 875,1454 870,1438 866,1423 863,1409 861,1396 860,1384 860,1373 861,1363 863,1354 866,1346 870,1339 875,1333 881,1328 888,1324 896,1321 905,1319 915,1318 926,1318 938,1319 951,1321 965,1324 980,1328 994,1333 1007,1339 1019,1346 1030,1354 1040,1363 1049,1373 1057,1384 1064,1396 1070,1409 1075,1423 1079,1438 1082,1454 1084,1471 1085,1489 1085,1507 1084,1524 1082,1540 1079,1555 1075,1569 1070,1582 1064,1594 1057,1605 1049,1615 1040,1624 1030,1632 1019,1639 1007,1645 994,1650 982,1654 971,1657 961,1659 952,1660 944,1660 937,1659 931,1657 926,1654 922,1650 919,1645 917,1639 916,1632 916,1624 917,1615 919,1605 922,1594 926,1582 931,1569 937,1555 944,1540 952,1524 961,1507 971,1491 982,1476 992,1462 1001,1449 1009,1437 1016,1426 1022,1416 1027,1407 1031,1399 1034,1392 1036,1386 1037,1381 1037,1377 1036,1374 1034,1372 1031,1371 1027,1371 1022,1372 1016,1374 1009,1377 1001,1381 992,1386 984,1392 977,1399 971,1407 966,1416 962,1426 959,1437 957,1449 956,1462 956,1476 957,1491 959,1507 962,1522 966,1536 971,1549 977,1561 984,1572 990,1582 995,1591 999,1599 1002,1606 1004,1612 1005,1617 1005,1621 1004,1624 1002,1626 999,1627 995,1627 990,1626 986,1624 983,1621 981,1617 980,1612 980,1606 981,1599 983,1591 986,1582 989,1572 991,1561 992,1549 992,1536 991,1522 989,1507 986,1493 982,1480 977,1468 971,1457 966,1447 962,1438 959,1430 957,1423 956,1417 956,1412 957,1408 959,1405 962,1403 966,1402 969,1402 971,1403 972,1405 972,1408 971,1412 969,1417 967,1423 966,1430 966,1438 967,1447 967,1457 967,1468 967,1480 967,1493 967,1507 967,1520 967,1532 967,1543 967,1553 967,1562 967,1570 967,1577 967,1583 967,1588 967,1592 967,1595 967,1597 967,1598 967,1598 967,1597 967,1595 967,1592 967,1588 967,1583 967,1577 967,1570 967,1562 967,1553 967,1543 967,1532 967,1520 967,1509 967,1499 967,1490 967,1482 967,1475 967,1469 967,1464 967,1460 967,1457 967,1455 967,1454 967,1454 967,1455 967,1457 967,1460 967,1464 967,1469 967,1475 967,1482 967,1490 967,1499 967,1509 967,1519 966,1528 964,1536 961,1543 957,1549 952,1554 946,1558 939,1561 931,1563 922,1564 912,1564 901,1563 889,1561 876,1558 864,1554 853,1549 843,1543 834,1536 826,1528 819,1519 813,1509 808,1498 804,1486 801,1473 799,1459 798,1444 798,1428 799,1411 801,1393 804,1374 808,1354 813,1335 819,1317 826,1300 834,1284 843,1269 853,1255 864,1242 874,1230 883,1219 891,1209 898,1200 904,1192 909,1185 913,1179 916,1174 918,1170 919,1167 919,1165 918,1164 916,1164 913,1165 909,1167 904,1170 898,1174 891,1179 883,1185 874,1192 865,1200 857,1209 850,1219 844,1230 839,1242 835,1255 832,1269 830,1284 829,1300 829,1317 830,1335 832,1352 835,1368 839,1383 844,1397 850,1410 857,1422 865,1433 872,1443 878,1452 883,1460 887,1467 890,1473 892,1478 893,1482 893,1485 892,1487 890,1488 887,1488 883,1487 878,1485 872,1482 865,1478 859,1473 854,1467 850,1460 847,1452 845,1443 844,1433 844,1422 845,1410 847,1397 850,1383 854,1368 859,1352 865,1336 870,1321 874,1307 877,1294 879,1282 880,1271 880,1261 879,1252 877,1244 874,1237 870,1231 865,1226 861,1222 858,1219 856,1217 855,1216 855,1216 856,1217 858,1219 861,1222 863,1226 864,1231 864,1237 863,1244 863,1252 863,1261 863,1271 863,1282 863,1294 863,1307 863,1321 863,1336 863,1352 863,1369 863,1387 863,1406 863,1424 863,1441 863,1457 863,1472 863,1486 863,1499 863,1511 863,1522 863,1532 863,1541 863,1549 863,1556 863,1562 863,1567 863,1571 863,1574 863,1576 863,1577 863,1577 863,1576 863,1574 863,1571 863,1567 863,1562 863,1556 863,1549 863,1541 863,1532 863,1522 863,1511 863,1499 863,1486 863,1472 863,1457 863,1441 863,1424 863,1407 864,1391 866,1376 869,1362 873,1349 878,1337 884,1326 891,1316 899,1307 906,1299 912,1292 917,1286 921,1281 924,1277 926,1274 927,1272 927,1271 926,1271 924,1272 921,1274 917,1277 912,1281 906,1286 901,1292 897,1299 894,1307 892,1316 891,1326 891,1337 892,1349 894,1362 897,1376 901,1391 904,1407 906,1424 907,1440 907,1455 906,1469 904,1482 902,1494 901,1505 901,1515 902,1524 902,1532 902,1539 902,1545 902,1550 902,1554 902,1557 902,1559 902,1560 902,1560 902,1559 902,1557 902,1554 902,1550 902,1545 902,1539 902,1532 902,1524 902,1515 902,1505 902,1494 902,1482 902,1469 902,1455 902,1440 902,1426 902,1413 902,1401 902,1390 902,1380 902,1371 902,1363 902,1356 902,1350 902,1345 902,1341 902,1338 902,1336 902,1335 902,1335 902,1336 902,1338 902,1341 902,1345 902,1350 902,1356 902,1363 902,1371 902,1380 902,1390 902,1401 902,1413 902,1426 902,1439 903,1453 905,1468 908,1484 912,1501 917,1519 923,1536 930,1552 938,1567 947,1581 957,1594 968,1606 980,1617 991,1627 1001,1636 1010,1644 1018,1651 1025,1657 1031,1662 1036,1666 1040,1669 1043,1671 1045,1672 1046,1672 1046,1671 1045,1669 1043,1666 1040,1662 1036,1657 1031,1651 1025,1644 1018,1636 1010,1627 1001,1617 991,1606 982,1594 974,1581 967,1567 961,1552 956,1536 952,1521 949,1507 947,1494 946,1482 946,1471 947,1461 949,1452 952,1444 956,1437 961,1431 967,1426 974,1422 982,1419 989,1417 995,1416 1000,1416 1004,1417 1007,1419 1009,1422 1010,1426 1010,1431 1009,1437 1007,1444 1004,1452 1000,1461 995,1471 989,1482 984,1494 980,1507 977,1521 975,1536 974,1550 974,1563 975,1575 977,1586 980,1596 984,1605 987,1613 989,1620 990,1626 990,1631 989,1635 987,1638 986,1640 986,1641 986,1641 986,1640 986,1638 986,1635 986,1631 986,1626 986,1620 986,1613 986,1605 986,1596 986,1586 986,1575 986,1563 986,1550 986,1536 985,1521 983,1505 980,1488 976,1470 973,1453 971,1437 970,1422 970,1408 971,1395 973,1383 976,1372 978,1362 979,1353 979,1345 978,1338 976,1332 975,1327 975,1323 976,1320 976,1318 976,1317 976,1317 976,1318 976,1320 976,1323 976,1327 976,1332 976,1338 976,1345 976,1353 976,1362 976,1372 976,1383 976,1395 976,1408 976,1422 976,1437 976,1453 976,1468 976,1482 976,1495 976,1507 976,1518 976,1528 976,1537 976,1545 976,1552 976,1558 976,1563 976,1567 976,1570 976,1572 976,1573 976,1573 976,1572 976,1570 976,1567 976,1563 976,1558 976,1552 976,1545 976,1537 976,1528 976,1518 976,1507 976,1495 976,1482 976,1468 976,1455 976,1443 976,1432 976,1422 976,1413 976,1405 976,1398 976,1392 976,1387 976,1383 976,1380 976,1378 976,1377 976,1377 976,1378 976,1380 976,1383 976,1387 976,1392 976,1398 976,1405 976,1413 976,1422 976,1432 976,1443 976,1455 976,1466 976,1476 976,1485 976,1493 976,1500 976,1506 976,1511 976,1515 976,1518 976,1520 976,1521 976,1521 976,1520 976,1518 976,1515 976,1511 976,1506 976,1500 976,1493 976,1485 976,1476 976,1466 976,1457 976,1449 976,1442 976,1436 976,1431 976,1427 976,1424 976,1422 976,1421 976,1421 976,1422 976,1424 976,1427 976,1431 976,1436 976,1442 976,1449 976,1457 976,1464 976,1470 976,1475 976,1479 976,1482 976,1484 976,1485 976,1485 976,1484 976,1482 976,1479 976,1475 976,1470 976,1464 976,1459 975,1453 973,1448 970,1444 966,1441 961,1439 955,1438 948,1438 940,1439 933,1441 927,1444 922,1448 918,1453 915,1457 913,1460 912,1462 912,1463 913,1463 915,1462 918,1460 922,1457 927,1453 933,1450 939,1448 944,1447 948,1447 951,1448 953,1450 954,1453 954,1455 953,1456 951,1456 948,1455 944,1453 939,1452 935,1452 932,1453 930,1453 929,1453 929,1453 930,1453 932,1453 935,1453 939,1453 942,1452 944,1450 945,1447 945,1443 944,1440 942,1438 939,1437 935,1437 930,1438 926,1440 923,1443 921,1445 920,1446 920,1446 921,1445 923,1443 926,1442 930,1442 933,1443 935,1443 936,1443 936,1443 935,1443 933,1443 930,1443 928,1444 927,1446 927,1449 928,1453 930,1458 933,1464 937,1471 942,1479 948,1488 955,1498 963,1509 972,1521 980,1534 987,1546 993,1557 998,1567 1002,1576 1005,1584 1007,1591 1008,1597 1008,1602 1007,1606 1005,1609 1002,1611 998,1612 993,1612 987,1611 980,1609 974,1606 969,1602 965,1597 962,1591 960,1584 959,1576 959,1567 960,1557 962,1546 965,1536 969,1527 974,1519 980,1512 985,1506 989,1501 992,1497 994,1494 995,1492 995,1491 994,1491 992,1492 989,1494 985,1497 980,1501 976,1506 973,1512 971,1519 970,1527 970,1536 971,1544 973,1551 976,1557 980,1562 983,1566 985,1569 986,1571 986,1572 985,1572 983,1571 980,1569 978,1566 977,1562 977,1557 978,1551 980,1544 981,1538 981,1533 980,1529 980,1526 980,1524 980,1523 980,1523 980,1524 980,1526 980,1529 980,1533 980,1538 980,1542 980,1545 980,1547 980,1548 980,1548 980,1547 980,1545 980,1542 980,1540 980,1539 980,1539 980,1540 980,1541 979,1541 977,1540 974,1538 970,1535 965,1531 959,1526 952,1520 944,1513 935,1505 925,1496 914,1486 904,1475 895,1463 887,1450 880,1438 874,1427 869,1417 865,1408 862,1400 860,1393 859,1387 859,1382 860,1378 862,1375 865,1373 869,1372 874,1372 880,1373 887,1375 895,1378 904,1382 912,1387 919,1393 925,1400 930,1408 934,1417 937,1427 939,1438 940,1448 940,1457 939,1465 937,1472 934,1478 930,1483 925,1487 919,1490 912,1492 906,1493 901,1493 897,1492 894,1490 892,1487 891,1483 891,1478 892,1472 894,1465 897,1457 901,1448 906,1440 910,1433 913,1427 915,1422 916,1418 916,1415 915,1413 913,1412 910,1412 908,1413 907,1415 907,1418 908,1422 908,1427 908,1433 908,1440 909,1448 911,1457 914,1467 918,1478 923,1490 929,1503 936,1517 944,1532 953,1546 963,1559 974,1571 984,1582 993,1592 1001,1601 1008,1609 1014,1616 1019,1622 1023,1627 1026,1631 1028,1634 1029,1636 1029,1637 1028,1637 1026,1636 1023,1634 1019,1631 1014,1627 1008,1622 1001,1616 993,1609 984,1601 976,1592 969,1582 963,1571 958,1559 954,1546 951,1533 949,1521 948,1510 948,1500 949,1491 951,1483 954,1476 958,1470 963,1465 969,1461 976,1458 982,1456 987,1455 991,1455 994,1456 996,1458 997,1461 997,1465 996,1470 994,1476 991,1483 987,1491 982,1500 976,1510 971,1521 967,1533 964,1544 962,1554 961,1563 961,1571 962,1578 964,1584 967,1589 971,1593 976,1596 980,1598 983,1599 985,1599 986,1598 986,1596 985,1593 983,1589 980,1584 976,1578 973,1571 971,1563 970,1554 970,1544 971,1533 973,1523 976,1514 978,1506 979,1499 979,1493 978,1488 976,1484 975,1481 975,1479 976,1478 976,1478 976,1479 976,1481 976,1484 976,1488 976,1493 976,1499 976,1506 976,1514 976,1523 976,1533 975,1542 973,1550 970,1557 968,1563 967,1568 967,1572 968,1575 970,1577 971,1578 971,1578 970,1577 970,1575 970,1572 970,1568 970,1563 970,1557 970,1550 970,1542 970,1533 970,1523 970,1512 970,1500 970,1487 970,1473 970,1458 970,1444 970,1431 970,1419 970,1408 970,1398 970,1389 970,1381 970,1374 970,1368 970,1363 970,1359 970,1356 970,1354 970,1353 970,1353 970,1354 970,1356 970,1359 970,1363 970,1368 970,1374 970,1381 970,1389 970,1398 970,1408 970,1419 970,1431 970,1444 970,1456 969,1469 967,1483 964,1496 961,1508 959,1519 958,1529 958,1538 959,1546 961,1553 962,1559 962,1564 961,1568 961,1571 961,1573 961,1574 961,1574 961,1573 961,1571 961,1568 961,1564 961,1559 961,1553 961,1546 961,1538 961,1529 961,1519 961,1508 961,1496 961,1485 961,1475 961,1466 961,1458 961,1451 961,1445 961,1440 961,1436 961,1433 961,1431 961,1430 961,1430 961,1431 961,1433 961,1436 961,1440 961,1445 961,1451 961,1458 961,1466 961,1475 961,1485 961,1494 960,1502 958,1509 955,1515 951,1520 946,1524 942,1527 939,1529 937,1530 936,1530 936,1529 937,1527 939,1524 942,1520 945,1515 947,1509 948,1502 948,1494 947,1485 945,1475 944,1464 944,1452 945,1441 945,1431 945,1422 945,1414 945,1407 945,1401 945,1396 945,1392 945,1389 945,1387 945,1386 945,1386 945,1387 945,1389 945,1392 945,1396 945,1401 945,1407 945,1414 945,1422 945,1431 945,1441 945,1451 944,1460 942,1468 939,1475 935,1481 930,1486 924,1490 917,1493 911,1495 906,1496 902,1496 899,1495 897,1493 896,1490 896,1486 897,1481 899,1475 902,1468 906,1460 911,1451 915,1441 918,1432 920,1424 921,1417 921,1411 920,1406 918,1402 915,1399 912,1397 910,1396 909,1396 909,1397 910,1399 912,1402 913,1406 913,1411 912,1417 912,1424 912,1432 912,1439 912,1445 912,1450 912,1454 912,1457 912,1459 912,1460 912,1460 912,1459 912,1457 912,1454 912,1450 912,1445 912,1439 912,1432 912,1424 912,1415 912,1407 912,1400 912,1394 912,1389 912,1385 912,1382 912,1380 912,1379 912,1379 912,1380 912,1382 912,1385 912,1389 912,1394 912,1400 912,1407 912,1413 912,1418 912,1422 912,1425 912,1427 912,1428 912,1428 912,1427 912,1425 912,1422 912,1418 912,1413 912,1409 912,1406 912,1404 912,1403 912,1403 912,1404 912,1406 912,1409 912,1411 913,1414 915,1418 918,1423 922,1429 927,1436 933,1444 940,1453 948,1463 957,1474 967,1486 978,1499 990,1513 1001,1528 1011,1544 1020,1559 1028,1573 1035,1586 1041,1598 1046,1609 1050,1619 1053,1628 1055,1636 1056,1643 1056,1649 1055,1654 1053,1658 1050,1661 1046,1663 1041,1664 1035,1664 1028,1663 1020,1661 1011,1658 1001,1654 992,1649 984,1643 977,1636 971,1628 966,1619 962,1609 959,1598 957,1586 956,1573 956,1559 957,1546 959,1534 962,1523 966,1513 971,1504 977,1496 984,1489 992,1483 999,1478 1005,1474 1010,1471 1014,1469 1017,1468 1019,1468 1020,1469 1020,1471 1019,1474 1017,1478 1014,1483 1010,1489 1005,1496 999,1504 993,1513 988,1523 984,1534 981,1546 979,1557 978,1567 978,1576 979,1584 981,1591 984,1597 988,1602 993,1606 997,1609 1000,1611 1002,1612 1003,1612 1003,1611 1002,1609 1000,1606 997,1602 993,1597 990,1591 988,1584 987,1576 987,1567 988,1557 990,1548 993,1540 995,1533 996,1527 996,1522 995,1518 993,1515 992,1513 992,1512 993,1512 993,1513 993,1515 993,1518 993,1522 993,1527 993,1533 993,1540 993,1548 993,1555 993,1561 993,1566 993,1570 993,1573 993,1575 993,1576 993,1576 993,1575 993,1573 993,1570 993,1566 993,1561 993,1555 993,1550 993,1546 993,1543 993,1541 993,1540 993,1540 993,1541 993,1543 993,1546 993,1550 993,1554 992,1557 990,1559 987,1560 983,1560 978,1559 972,1557 965,1554 957,1550 948,1545 938,1539 927,1532 915,1524 902,1515 888,1505 873,1494 857,1482 840,1469 824,1455 809,1440 795,1424 782,1407 770,1389 759,1370 749,1350 740,1329 732,1307 725,1286 719,1266 714,1247 710,1229 707,1212 705,1196 704,1181 704,1167 705,1154 707,1142 710,1131 714,1121 719,1112 725,1104 732,1097 740,1091 749,1086 759,1082 770,1079 782,1077 795,1076 809,1076 824,1077 838,1079 851,1082 863,1086 874,1091 884,1097 893,1104 901,1112 908,1121 914,1131 919,1142 923,1154 926,1167 928,1181 929,1196 929,1212 928,1229 926,1247 923,1266 919,1286 914,1305 908,1323 901,1340 893,1356 884,1371 874,1385 863,1398 851,1410 838,1421 826,1431 815,1440 805,1448 796,1455 788,1461 781,1466 775,1470 770,1473 766,1475 763,1476 761,1476 760,1475 760,1473 761,1470 763,1466 766,1461 770,1455 775,1448 781,1440 788,1431 796,1421 805,1410 815,1398 826,1385 837,1371 847,1356 856,1340 864,1323 871,1305 877,1288 882,1272 886,1257 889,1243 891,1230 892,1218 892,1207 891,1197 889,1188 886,1180 882,1173 877,1167 871,1162 864,1158 856,1155 847,1153 837,1152 828,1152 820,1153 813,1155 807,1158 802,1162 798,1167 795,1173 793,1180 792,1188 792,1197 793,1207 795,1218 798,1230 802,1243 807,1257 813,1272 820,1288 828,1303 837,1317 845,1330 852,1342 858,1353 863,1363 867,1372 870,1380 872,1387 873,1393 873,1398 872,1402 870,1405 867,1407 863,1408 858,1408 852,1407 845,1405 837,1402 830,1398 824,1393 819,1387 815,1380 812,1372 810,1363 809,1353 809,1342 810,1330 812,1317 815,1303 819,1290 824,1278 830,1267 837,1257 843,1248 848,1240 852,1233 855,1227 857,1222 858,1218 858,1215 857,1213 855,1212 852,1212 848,1213 843,1215 837,1218 832,1222 828,1227 825,1233 823,1240 822,1248 822,1257 823,1267 825,1278 828,1290 832,1301 837,1311 841,1320 844,1328 846,1335 847,1341 847,1346 846,1350 844,1353 841,1355 837,1356 834,1356 832,1355 831,1353 831,1350 832,1346 834,1341 837,1335 839,1328 840,1320 840,1311 839,1301 837,1292 836,1284 836,1277 837,1271 837,1266 837,1262 837,1259 837,1257 837,1256 837,1256 837,1257 837,1259 837,1262 837,1266 837,1271 837,1277 837,1284 837,1292 837,1299 837,1305 837,1310 837,1314 837,1317 837,1319 837,1320 837,1320 837,1319 837,1317 837,1314 837,1310 837,1305 837,1299 837,1294 836,1288 834,1281 831,1273 827,1264 822,1255 816,1247 809,1240 803,1234 798,1229 794,1225 791,1222 789,1220 788,1219 788,1219 789,1220 791,1222 794,1225 798,1229 803,1234 807,1240 810,1247 812,1255 813,1262 813,1268 812,1273 810,1277 807,1280 804,1282 802,1283 801,1283 801,1282 802,1280 804,1277 805,1273 805,1268 804,1262 804,1255 805,1249 807,1244 810,1240 814,1237 819,1235 825,1234 832,1234 840,1235 849,1237 859,1240 870,1244 882,1249 895,1255 907,1262 918,1270 928,1279 937,1289 945,1300 952,1312 958,1325 963,1339 967,1354 970,1370 972,1387 973,1403 973,1418 972,1432 970,1445 967,1457 963,1468 958,1478 952,1487 945,1495 937,1502 928,1508 918,1513 907,1517 897,1520 888,1522 880,1523 873,1523 867,1522 862,1520 858,1517 855,1513 853,1508 852,1502 852,1495 853,1487 855,1478 858,1468 862,1457 867,1445 873,1432 880,1418 888,1403 897,1389 906,1376 914,1364 921,1353 927,1343 932,1334 936,1326 939,1319 941,1313 942,1308 942,1304 941,1301 939,1299 936,1298 932,1298 927,1299 921,1301 914,1304 906,1308 899,1313 893,1319 888,1326 884,1334 881,1343 879,1353 878,1364 878,1376 879,1389 881,1401 884,1412 888,1422 893,1431 899,1439 906,1446 912,1452 917,1457 921,1461 924,1464 926,1466 927,1467 927,1467 926,1466 924,1464 921,1461 917,1457 912,1452 906,1446 901,1439 897,1431 894,1422 892,1412 891,1401 891,1391 892,1382 894,1374 897,1367 901,1361 906,1356 910,1352 913,1349 915,1347 916,1346 916,1346 915,1347 913,1349 910,1352 906,1356 903,1361 901,1367 900,1374 900,1382 901,1391 903,1400 906,1408 908,1415 909,1421 909,1426 908,1430 906,1433 905,1435 905,1436 906,1436 906,1435 906,1433 906,1430 906,1426 906,1421 906,1415 906,1408 906,1400 907,1393 909,1387 912,1382 916,1378 921,1375 927,1373 934,1372 942,1372 951,1373 961,1375 972,1378 982,1382 991,1387 999,1393 1006,1400 1012,1408 1017,1417 1021,1427 1024,1438 1026,1450 1027,1463 1027,1477 1026,1492 1024,1508 1021,1525 1017,1541 1012,1556 1006,1570 999,1583 991,1595 982,1606 974,1616 967,1625 961,1633 956,1640 952,1646 949,1651 947,1655 946,1658 946,1660 947,1661 949,1661 952,1660 956,1658 961,1655 967,1651 974,1646 982,1640 989,1633 995,1625 1000,1616 1004,1606 1007,1595 1009,1583 1010,1570 1010,1556 1009,1541 1007,1527 1004,1514 1000,1502 995,1491 989,1481 982,1472 976,1464 971,1457 967,1451 964,1446 962,1442 961,1439 961,1437 962,1436 964,1436 967,1437 971,1439 976,1442 982,1446 987,1451 991,1457 994,1464 996,1472 997,1481 997,1491 996,1502 994,1514 991,1527 987,1539 982,1550 978,1560 975,1569 973,1577 972,1584 972,1590 973,1595 975,1599 978,1602 982,1604 985,1605 987,1605 988,1604 988,1602 987,1599 985,1595 982,1590 980,1584 979,1577 979,1569 980,1560 982,1550 983,1539 983,1529 982,1520 982,1512 982,1505 982,1499 982,1494 982,1490 982,1487 982,1485 982,1484 982,1484 982,1485 982,1487 982,1490 982,1494 982,1499 982,1505 982,1512 982,1520 982,1529 982,1538 981,1546 979,1553 976,1559 972,1564 967,1568 961,1571 954,1573 948,1574 943,1574 939,1573 936,1571 934,1568 933,1564 933,1559 934,1553 936,1546 939,1538 943,1529 948,1519 952,1508 955,1496 957,1483 958,1471 958,1460 957,1450 955,1441 952,1433 950,1426 949,1420 949,1415 950,1411 952,1408 953,1406 953,1405 952,1405 952,1406 952,1408 952,1411 952,1415 952,1420 952,1426 952,1433 952,1441 952,1450 952,1460 952,1471 952,1481 952,1490 952,1498 952,1505 952,1511 952,1516 952,1520 952,1523 952,1525 952,1526 952,1526 952,1525 952,1523 952,1520 952,1516 952,1511 952,1505 952,1498 952,1490 952,1481 952,1473 952,1466 952,1460 952,1455 952,1451 952,1448 952,1446 952,1445 952,1445 952,1446 952,1448 952,1451 952,1455 952,1460 952,1466 952,1473 952,1479 952,1484 952,1488 952,1491 952,1493 952,1494 952,1494 952,1493 952,1491 952,1488 952,1484 952,1479 952,1475 952,1472 952,1470 952,1469 952,1469 952,1470 952,1472 952,1475" fill="none" stroke="red" stroke-width="0.5" />
  <circle cx="952" cy="1477" r="2" fill="blue" />
</svg>