<svg width="1000" height="1000" xmlns="http://www.w3.org/2000/svg">
  <rect x="200" y="200" width="600" height="600" fill="white" stroke="gray" stroke-width="5" />
  <circle cx="415.8" cy="428.6" r="7" fill="black" />
  <circle cx="523.2" cy="533.0" r="7" fill="black" />
  <circle cx="511.3" cy="400.0" r="7" fill="black" />
  <circle cx="382.3" cy="408.9" r="7" fill="black" />
  <circle cx="396.1" cy="565.5" r="7" fill="black" />
  <circle cx="383.3" cy="494.6" r="7" fill="black" />
  <circle cx="367.5" cy="575.4" r="7" fill="black" />
  <circle cx="523.2" cy="443.3" r="7" fill="black" />
  <circle cx="509.4" cy="587.2" r="7" fill="black" />
  <circle cx="466.0" cy="542.9" r="7" fill="black" />
  <circle cx="445.3" cy="583.3" r="7" fill="black" />
  <circle cx="464.0" cy="529.1" r="7" fill="black" />
  <circle cx="449.3" cy="453.2" r="7" fill="black" />
  <circle cx="486.7" cy="556.7" r="7" fill="black" />
  <circle cx="465.0" cy="544.8" r="7" fill="black" />
  <circle cx="476.8" cy="400.0" r="7" fill="black" />
  <circle cx="411.8" cy="557.6" r="7" fill="black" />
  <circle cx="494.6" cy="473.9" r="7" fill="black" />
  <circle cx="527.1" cy="452.2" r="7" fill="black" />
  <circle cx="412.8" cy="427.6" r="7" fill="black" />
  <circle cx="376.4" cy="423.6" r="7" fill="black" />
  <circle cx="430.5" cy="434.5" r="7" fill="black" />
  <circle cx="362.6" cy="563.5" r="7" fill="black" />
  <circle cx="532.0" cy="396.1" r="7" fill="black" />
  <circle cx="514.3" cy="470.9" r="7" fill="black" />
  <circle cx="393.1" cy="491.6" r="7" fill="black" />
  <circle cx="372.4" cy="416.7" r="7" fill="black" />
  <circle cx="545.8" cy="442.4" r="7" fill="black" />
  <circle cx="377.3" cy="425.6" r="7" fill="black" />
  <circle cx="500.5" cy="394.1" r="7" fill="black" />
  <circle cx="446.3" cy="415.8" r="7" fill="black" />
  <circle cx="536.9" cy="400.0" r="7" fill="black" />
  <circle cx="364.5" cy="559.6" r="7" fill="black" />
  <circle cx="480.8" cy="472.9" r="7" fill="black" />
  <circle cx="368.5" cy="403.9" r="7" fill="black" />
  <circle cx="463.1" cy="569.5" r="7" fill="black" />
  <circle cx="450.2" cy="541.9" r="7" fill="black" />
  <circle cx="513.3" cy="565.5" r="7" fill="black" />
  <circle cx="503.4" cy="437.4" r="7" fill="black" />
  <circle cx="436.5" cy="471.9" r="7" fill="black" />
  <circle cx="534.0" cy="411.8" r="7" fill="black" />
  <circle cx="362.6" cy="461.1" r="7" fill="black" />
  <circle cx="554.7" cy="403.0" r="7" fill="black" />
  <circle cx="454.2" cy="492.6" r="7" fill="black" />
  <circle cx="416.7" cy="469.0" r="7" fill="black" />
  <circle cx="467.0" cy="478.8" r="7" fill="black" />
  <circle cx="431.5" cy="529.1" r="7" fill="black" />
  <circle cx="376.4" cy="402.0" r="7" fill="black" />
  <circle cx="525.1" cy="498.5" r="7" fill="black" />
  <circle cx="488.7" cy="510.3" r="7" fill="black" />
  <circle cx="467.0" cy="510.3" r="7" fill="black" />
  <circle cx="473.9" cy="542.9" r="7" fill="black" />
  <circle cx="389.2" cy="587.2" r="7" fill="black" />
  <circle cx="407.9" cy="405.9" r="7" fill="black" />
  <circle cx="465.0" cy="403.9" r="7" fill="black" />
  <circle cx="517.2" cy="499.5" r="7" fill="black" />
  <circle cx="529.1" cy="567.5" r="7" fill="black" />
  <circle cx="509.4" cy="489.7" r="7" fill="black" />
  <circle cx="420.7" cy="441.4" r="7" fill="black" />
  <circle cx="427.6" cy="472.9" r="7" fill="black" />
  <circle cx="529.1" cy="548.8" r="7" fill="black" />
  <circle cx="528.1" cy="461.1" r="7" fill="black" />
  <circle cx="418.7" cy="472.9" r="7" fill="black" />
  <circle cx="368.5" cy="429.6" r="7" fill="black" />
  <circle cx="418.7" cy="580.3" r="7" fill="black" />
  <circle cx="553.7" cy="414.8" r="7" fill="black" />
  <circle cx="504.4" cy="399.0" r="7" fill="black" />
  <circle cx="472.9" cy="537.9" r="7" fill="black" />
  <circle cx="507.4" cy="513.3" r="7" fill="black" />
  <circle cx="487.7" cy="430.5" r="7" fill="black" />
  <circle cx="364.5" cy="577.3" r="7" fill="black" />
  <circle cx="398.0" cy="407.9" r="7" fill="black" />
  <circle cx="549.8" cy="489.7" r="7" fill="black" />
  <circle cx="407.9" cy="566.5" r="7" fill="black" />
  <circle cx="495.6" cy="573.4" r="7" fill="black" />
  <circle cx="519.2" cy="393.1" r="7" fill="black" />
  <circle cx="483.7" cy="434.5" r="7" fill="black" />
  <circle cx="492.6" cy="422.7" r="7" fill="black" />
  <circle cx="382.3" cy="419.7" r="7" fill="black" />
  <circle cx="368.5" cy="398.0" r="7" fill="black" />
  <circle cx="549.8" cy="512.3" r="7" fill="black" />
  <circle cx="488.7" cy="419.7" r="7" fill="black" />
  <circle cx="466.0" cy="566.5" r="7" fill="black" />
  <circle cx="373.4" cy="576.4" r="7" fill="black" />
  <circle cx="390.1" cy="446.3" r="7" fill="black" />
  <circle cx="460.1" cy="446.3" r="7" fill="black" />
  <circle cx="482.8" cy="452.2" r="7" fill="black" />
  <circle cx="485.7" cy="403.0" r="7" fill="black" />
  <circle cx="510.3" cy="400.0" r="7" fill="black" />
  <circle cx="460.1" cy="572.4" r="7" fill="black" />
  <circle cx="507.4" cy="518.2" r="7" fill="black" />
  <circle cx="494.6" cy="530.0" r="7" fill="black" />
  <circle cx="514.3" cy="488.7" r="7" fill="black" />
  <circle cx="536.9" cy="588.2" r="7" fill="black" />
  <circle cx="521.2" cy="549.8" r="7" fill="black" />
  <circle cx="457.1" cy="399.0" r="7" fill="black" />
  <circle cx="408.9" cy="502.5" r="7" fill="black" />
  <circle cx="430.5" cy="499.5" r="7" fill="black" />
  <circle cx="374.4" cy="442.4" r="7" fill="black" />
  <circle cx="494.6" cy="405.9" r="7" fill="black" />
  <polyline points="456.2,490.6 455.2,489.7 453.2,487.7 450.2,484.7 446.3,480.8 441.4,475.9 435.5,471.9 428.6,469.0 422.7,467.0 417.7,466.0 413.8,466.0 410.8,467.0 408.9,469.0 407.9,471.9 407.9,473.9 408.9,474.9 410.8,474.9 413.8,473.9 417.7,472.9 422.7,472.9 427.6,472.9 433.5,473.9 440.4,475.9 448.3,478.8 457.1,482.8 467.0,487.7 475.9,493.6 483.7,500.5 490.6,508.4 496.6,515.3 501.5,521.2 505.4,526.1 508.4,530.0 510.3,533.0 511.3,535.0 511.3,536.0 510.3,536.0 508.4,535.0 505.4,533.0 501.5,530.0 496.6,526.1 490.6,521.2 483.7,515.3 475.9,510.3 467.0,506.4 459.1,503.4 452.2,501.5 446.3,500.5 441.4,500.5 437.4,501.5 434.5,503.4 432.5,506.4 431.5,510.3 431.5,513.3 432.5,515.3 434.5,516.3 437.4,516.3 441.4,515.3 446.3,513.3 452.2,510.3 459.1,508.4 467.0,507.4 473.9,507.4 479.8,508.4 484.7,510.3 488.7,511.3 491.6,511.3 493.6,510.3 494.6,510.3 494.6,510.3 493.6,510.3 491.6,510.3 488.7,510.3 484.7,510.3 479.8,510.3 473.9,510.3 467.0,510.3 461.1,511.3 456.2,513.3 452.2,516.3 449.3,520.2 447.3,525.1 446.3,531.0 446.3,537.9 447.3,545.8 449.3,554.7 452.2,564.5 456.2,573.4 461.1,581.3 466.0,588.2 470.0,594.1 472.9,599.0 474.9,603.0 475.9,605.9 475.9,607.9 474.9,608.9 472.9,608.9 470.0,607.9 466.0,605.9 463.1,603.0 461.1,599.0 460.1,594.1 460.1,588.2 461.1,581.3 463.1,573.4 466.0,566.5 468.0,560.6 469.0,555.7 469.0,551.7 468.0,548.8 466.0,546.8 463.1,545.8 459.1,545.8 454.2,546.8 448.3,548.8 443.3,551.7 439.4,555.7 436.5,560.6 434.5,566.5 433.5,573.4 433.5,581.3 434.5,588.2 436.5,594.1 439.4,599.0 443.3,603.0 446.3,605.9 448.3,607.9 449.3,608.9 449.3,608.9 448.3,607.9 446.3,605.9 445.3,603.0 445.3,599.0 445.3,594.1 445.3,588.2 445.3,583.3 444.3,577.3 442.4,570.4 439.4,562.6 435.5,553.7 430.5,543.8 424.6,533.0 417.7,521.2 409.9,508.4 403.0,496.6 397.0,485.7 392.1,475.9 388.2,467.0 385.2,459.1 383.3,452.2 382.3,446.3 382.3,441.4 383.3,437.4 385.2,434.5 388.2,432.5 392.1,431.5 397.0,431.5 403.0,432.5 408.9,434.5 413.8,437.4 417.7,441.4 420.7,446.3 422.7,452.2 423.6,459.1 423.6,467.0 422.7,475.9 420.7,485.7 417.7,496.6 413.8,506.4 408.9,515.3 404.9,523.2 402.0,530.0 400.0,536.0 399.0,540.9 399.0,544.8 400.0,547.8 402.0,549.8 404.9,550.7 408.9,550.7 411.8,549.8 413.8,547.8 414.8,544.8 414.8,540.9 413.8,536.0 411.8,530.0 408.9,523.2 406.9,515.3 405.9,506.4 405.9,498.5 406.9,491.6 408.9,485.7 409.9,480.8 409.9,476.8 408.9,473.9 408.9,471.9 408.9,470.9 408.9,470.9 408.9,471.9 408.9,473.9 408.9,476.8 408.9,480.8 408.9,485.7 408.9,491.6 408.9,498.5 408.9,504.4 408.9,509.4 408.9,513.3 408.9,516.3 408.9,518.2 408.9,519.2 408.9,519.2 408.9,518.2 408.9,516.3 408.9,513.3 408.9,509.4 408.9,504.4 408.9,500.5 408.9,497.5 408.9,495.6 408.9,494.6 408.9,494.6 408.9,495.6 408.9,497.5 408.9,500.5 408.9,502.5 409.9,505.4 411.8,509.4 414.8,514.3 418.7,520.2 423.6,527.1 429.6,533.0 434.5,537.9 438.4,541.9 441.4,544.8 443.3,546.8 444.3,547.8 444.3,547.8 443.3,546.8 441.4,544.8 438.4,541.9 434.5,537.9 431.5,533.0 429.6,529.1 428.6,526.1 428.6,524.1 429.6,523.2 431.5,523.2 432.5,524.1 432.5,526.1 431.5,529.1 431.5,531.0 432.5,532.0 434.5,532.0 437.4,531.0 441.4,529.1 446.3,526.1 452.2,522.2 459.1,517.2 467.0,511.3 475.9,504.4 483.7,496.6 490.6,487.7 496.6,477.8 501.5,467.0 505.4,455.2 508.4,442.4 510.3,428.6 511.3,413.8 511.3,400.0 510.3,387.2 508.4,375.4 505.4,364.5 501.5,354.7 496.6,345.8 490.6,337.9 483.7,331.0 476.8,325.1 470.9,320.2 466.0,316.3 462.1,313.3 459.1,311.3 457.1,310.3 456.2,310.3 456.2,311.3 457.1,313.3 459.1,316.3 462.1,320.2 466.0,325.1 470.9,331.0 476.8,337.9 481.8,345.8 485.7,354.7 488.7,364.5 490.6,375.4 491.6,387.2 491.6,400.0 490.6,411.8 488.7,422.7 485.7,432.5 481.8,441.4 476.8,449.3 472.9,456.2 470.0,462.1 468.0,467.0 467.0,470.9 467.0,473.9 468.0,475.9 470.0,476.8 472.9,476.8 476.8,475.9 479.8,473.9 481.8,470.9 482.8,467.0 482.8,462.1 481.8,456.2 479.8,449.3 476.8,441.4 474.9,432.5 473.9,422.7 473.9,411.8 474.9,400.0 476.8,389.2 477.8,379.3 477.8,370.4 476.8,362.6 476.8,355.7 476.8,349.8 476.8,344.8 476.8,340.9 476.8,337.9 476.8,336.0 476.8,335.0 476.8,335.0 476.8,336.0 476.8,337.9 476.8,340.9 476.8,344.8 476.8,349.8 476.8,355.7 476.8,362.6 476.8,370.4 476.8,379.3 476.8,389.2 476.8,400.0 475.9,411.8 473.9,424.6 470.9,438.4 467.0,453.2 462.1,469.0 456.2,483.7 449.3,497.5 441.4,510.3 434.5,522.2 428.6,533.0 423.6,542.9 419.7,551.7 416.7,559.6 414.8,566.5 413.8,572.4 413.8,577.3 414.8,581.3 416.7,584.2 419.7,586.2 423.6,587.2 428.6,587.2 434.5,586.2 439.4,584.2 443.3,581.3 446.3,577.3 448.3,572.4 449.3,566.5 449.3,559.6 448.3,551.7 446.3,542.9 443.3,533.0 439.4,522.2 436.5,510.3 434.5,497.5 433.5,483.7 433.5,470.9 434.5,459.1 436.5,448.3 437.4,438.4 437.4,429.6 436.5,421.7 436.5,414.8 436.5,408.9 436.5,403.9 436.5,400.0 436.5,397.0 436.5,395.1 436.5,394.1 436.5,394.1 436.5,395.1 436.5,397.0 436.5,400.0 436.5,403.9 436.5,408.9 436.5,414.8 436.5,421.7 436.5,429.6 436.5,438.4 436.5,448.3 436.5,459.1 436.5,470.9 436.5,481.8 436.5,491.6 436.5,500.5 436.5,508.4 436.5,515.3 436.5,521.2 436.5,526.1 436.5,530.0 436.5,533.0 436.5,535.0 436.5,536.0 436.5,536.0 436.5,535.0 436.5,533.0 436.5,530.0 436.5,526.1 436.5,521.2 436.5,515.3 436.5,508.4 436.5,500.5 436.5,491.6 436.5,481.8 436.5,471.9 437.4,463.1 439.4,455.2 442.4,448.3 446.3,442.4 451.2,437.4 457.1,433.5 464.0,430.5 470.0,428.6 474.9,427.6 478.8,427.6 481.8,428.6 483.7,430.5 484.7,433.5 484.7,437.4 483.7,442.4 481.8,448.3 478.8,455.2 474.9,463.1 470.0,471.9 465.0,481.8 461.1,492.6 458.1,504.4 456.2,517.2 455.2,531.0 455.2,544.8 456.2,557.6 458.1,569.5 461.1,580.3 465.0,590.1 468.0,599.0 470.0,606.9 470.9,613.8 470.9,619.7 470.0,624.6 468.0,628.6 465.0,631.5 463.1,633.5 462.1,634.5 462.1,634.5 463.1,633.5 465.0,631.5 466.0,628.6 466.0,624.6 465.0,619.7 465.0,613.8 465.0,606.9 465.0,599.0 465.0,590.1 465.0,580.3 465.0,569.5 465.0,557.6 465.0,544.8 464.0,533.0 463.1,522.2 463.1,512.3 463.1,503.4 463.1,495.6 463.1,488.7 463.1,482.8 463.1,477.8 463.1,473.9 463.1,470.9 463.1,469.0 463.1,468.0 463.1,468.0 463.1,469.0 463.1,470.9 463.1,473.9 463.1,477.8 463.1,482.8 463.1,488.7 463.1,495.6 463.1,503.4 463.1,512.3 463.1,522.2 463.1,533.0 463.1,544.8 463.1,557.6 463.1,569.5 462.1,580.3 460.1,590.1 457.1,599.0 453.2,606.9 448.3,613.8 442.4,619.7 435.5,624.6 427.6,628.6 418.7,631.5 408.9,633.5 400.0,634.5 392.1,634.5 385.2,633.5 379.3,631.5 374.4,628.6 370.4,624.6 367.5,619.7 365.5,613.8 364.5,606.9 364.5,599.0 365.5,590.1 367.5,580.3 370.4,569.5 374.4,557.6 379.3,544.8 385.2,531.0 392.1,516.3 400.0,500.5 407.9,483.7 414.8,466.0 420.7,447.3 425.6,427.6 429.6,406.9 432.5,387.2 434.5,368.5 435.5,350.7 435.5,334.0 434.5,318.2 432.5,303.4 429.6,289.7 425.6,276.8 420.7,265.0 414.8,254.2 407.9,244.3 402.0,235.5 397.0,227.6 393.1,220.7 390.1,214.8 388.2,209.9 387.2,205.9 387.2,203.0 388.2,201.0 390.1,200.0 393.1,200.0 397.0,201.0 402.0,203.0 407.9,205.9 412.8,209.9 416.7,214.8 419.7,220.7 421.7,227.6 422.7,235.5 422.7,244.3 421.7,254.2 419.7,265.0 416.7,276.8 412.8,289.7 407.9,303.4 403.9,318.2 401.0,334.0 399.0,350.7 398.0,368.5 398.0,387.2 399.0,405.9 401.0,423.6 403.9,440.4 407.9,456.2 410.8,470.9 412.8,484.7 413.8,497.5 413.8,509.4 412.8,520.2 410.8,530.0 407.9,538.9 405.9,546.8 404.9,553.7 404.9,559.6 405.9,564.5 407.9,568.5 408.9,571.4 408.9,573.4 407.9,574.4 407.9,574.4 407.9,573.4 407.9,571.4 407.9,568.5 407.9,564.5 407.9,559.6 407.9,553.7 407.9,546.8 407.9,538.9 407.9,530.0 407.9,520.2 407.9,509.4 407.9,497.5 407.9,484.7 407.9,470.9 407.9,456.2 407.9,440.4 407.9,423.6 407.9,405.9 408.9,389.2 410.8,373.4 413.8,358.6 417.7,344.8 422.7,332.0 428.6,320.2 435.5,309.4 443.3,299.5 452.2,290.6 462.1,282.8 472.9,275.9 484.7,270.0 497.5,265.0 511.3,261.1 524.1,258.1 536.0,256.2 546.8,255.2 556.7,255.2 565.5,256.2 573.4,258.1 580.3,261.1 586.2,265.0 591.1,270.0 595.1,275.9 598.0,282.8 600.0,290.6 601.0,299.5 601.0,309.4 600.0,320.2 598.0,332.0 595.1,344.8 591.1,358.6 586.2,373.4 580.3,389.2 573.4,405.9 565.5,423.6 556.7,442.4 546.8,462.1 536.0,482.8 524.1,504.4 513.3,527.1 503.4,549.8 494.6,571.4 486.7,592.1 479.8,611.8 473.9,630.5 469.0,648.3 465.0,665.0 462.1,680.8 460.1,695.6 459.1,709.4 459.1,722.2 460.1,734.0 462.1,744.8 465.0,754.7 469.0,763.5 473.9,771.4 479.8,778.3 486.7,784.2 494.6,789.2 503.4,793.1 513.3,796.1 522.2,798.0 530.0,799.0 536.9,799.0 542.9,798.0 547.8,796.1 551.7,793.1 554.7,789.2 556.7,784.2 557.6,778.3 557.6,771.4 556.7,763.5 554.7,754.7 551.7,744.8 547.8,734.0 542.9,722.2 536.9,709.4 530.0,695.6 522.2,680.8 515.3,665.0 509.4,648.3 504.4,630.5 500.5,611.8 497.5,592.1 495.6,571.4 494.6,549.8 494.6,529.1 495.6,509.4 497.5,490.6 500.5,472.9 504.4,456.2 509.4,440.4 515.3,425.6 521.2,411.8 526.1,399.0 530.0,387.2 533.0,376.4 535.0,366.5 536.0,357.6 536.0,349.8 535.0,342.9 533.0,336.9 530.0,332.0 526.1,328.1 521.2,325.1 517.2,323.2 514.3,322.2 512.3,322.2 511.3,323.2 511.3,325.1 512.3,328.1 514.3,332.0 517.2,336.9 521.2,342.9 524.1,349.8 526.1,357.6 527.1,366.5 527.1,376.4 526.1,387.2 524.1,399.0 521.2,411.8 519.2,425.6 518.2,440.4 518.2,456.2 519.2,472.9 521.2,490.6 522.2,509.4 522.2,529.1 521.2,549.8 519.2,571.4 516.3,592.1 512.3,611.8 509.4,630.5 507.4,648.3 506.4,665.0 506.4,680.8 507.4,695.6 509.4,709.4 510.3,722.2 510.3,734.0 509.4,744.8 509.4,754.7 509.4,763.5 509.4,771.4 509.4,778.3 509.4,784.2 509.4,789.2 509.4,793.1 509.4,796.1 509.4,798.0 509.4,799.0 509.4,799.0 509.4,798.0 509.4,796.1 509.4,793.1 509.4,789.2 509.4,784.2 509.4,778.3 509.4,771.4 509.4,763.5 509.4,754.7 509.4,744.8 509.4,734.0 509.4,722.2 509.4,709.4 509.4,695.6 509.4,680.8 509.4,665.0 509.4,648.3 509.4,630.5 509.4,611.8 509.4,592.1 509.4,573.4 509.4,555.7 509.4,538.9 509.4,523.2 509.4,508.4 509.4,494.6 509.4,481.8 509.4,470.0 509.4,459.1 509.4,449.3 509.4,440.4 509.4,432.5 509.4,425.6 509.4,419.7 509.4,414.8 509.4,410.8 509.4,407.9 509.4,405.9 509.4,404.9 509.4,404.9 509.4,405.9 509.4,407.9 509.4,410.8 509.4,414.8 509.4,419.7 509.4,425.6 509.4,432.5 509.4,440.4 509.4,449.3 509.4,459.1 509.4,470.0 509.4,481.8 509.4,494.6 509.4,508.4 509.4,523.2 509.4,538.9 509.4,555.7 509.4,573.4 509.4,590.1 509.4,605.9 509.4,620.7 509.4,634.5 509.4,647.3 509.4,659.1 509.4,670.0 509.4,679.8 509.4,688.7 509.4,696.6 509.4,703.4 509.4,709.4 509.4,714.3 509.4,718.2 509.4,721.2 509.4,723.2 509.4,724.1 509.4,724.1 509.4,723.2 509.4,721.2 509.4,718.2 509.4,714.3 509.4,709.4 509.4,703.4 509.4,696.6 509.4,688.7 509.4,679.8 509.4,670.0 509.4,659.1 509.4,647.3 509.4,634.5 509.4,620.7 509.4,605.9 509.4,590.1 509.4,575.4 509.4,561.6 509.4,548.8 509.4,536.9 509.4,526.1 509.4,516.3 509.4,507.4 509.4,499.5 509.4,492.6 509.4,486.7 509.4,481.8 509.4,477.8 509.4,474.9 509.4,472.9 509.4,471.9 509.4,471.9 509.4,472.9 509.4,474.9 509.4,477.8 509.4,481.8 509.4,486.7 509.4,492.6 509.4,499.5 509.4,507.4 509.4,516.3 509.4,526.1 509.4,536.9 509.4,548.8 509.4,561.6 509.4,575.4 509.4,588.2 509.4,600.0 509.4,610.8 509.4,620.7 509.4,629.6 509.4,637.4 509.4,644.3 509.4,650.2 509.4,655.2 509.4,659.1 509.4,662.1 509.4,664.0 509.4,665.0 509.4,665.0 509.4,664.0 509.4,662.1 509.4,659.1 509.4,655.2 509.4,650.2 509.4,644.3 509.4,637.4 509.4,629.6 509.4,620.7 509.4,610.8 509.4,600.0 509.4,588.2 509.4,577.3 509.4,567.5 509.4,558.6 509.4,550.7 509.4,543.8 509.4,537.9 509.4,533.0 509.4,529.1 509.4,526.1 509.4,524.1 509.4,523.2 509.4,523.2 509.4,524.1 509.4,526.1 509.4,529.1 509.4,533.0 509.4,537.9 509.4,543.8 509.4,550.7 509.4,558.6 509.4,567.5 509.4,577.3 509.4,587.2 508.4,596.1 506.4,603.9 503.4,610.8 499.5,616.7 494.6,621.7 488.7,625.6 481.8,628.6 475.9,630.5 470.9,631.5 467.0,631.5 464.0,630.5 462.1,628.6 461.1,625.6 461.1,621.7 462.1,616.7 464.0,610.8 467.0,603.9 470.9,596.1 475.9,587.2 480.8,577.3 484.7,566.5 487.7,554.7 489.7,541.9 490.6,528.1 490.6,513.3 489.7,497.5 487.7,480.8 484.7,465.0 480.8,450.2 477.8,436.5 475.9,423.6 474.9,411.8 474.9,401.0 475.9,391.1 477.8,382.3 480.8,374.4 482.8,367.5 483.7,361.6 483.7,356.7 482.8,352.7 480.8,349.8 479.8,347.8 479.8,346.8 480.8,346.8 480.8,347.8 480.8,349.8 480.8,352.7 480.8,356.7 480.8,361.6 480.8,367.5 480.8,374.4 480.8,382.3 480.8,391.1 480.8,401.0 480.8,411.8 480.8,423.6 480.8,436.5 480.8,450.2 480.8,465.0 480.8,478.8 480.8,491.6 480.8,503.4 480.8,514.3 480.8,524.1 480.8,533.0 480.8,540.9 480.8,547.8 480.8,553.7 480.8,558.6 480.8,562.6 480.8,565.5 480.8,567.5 480.8,568.5 480.8,568.5 480.8,567.5 480.8,565.5 480.8,562.6 480.8,558.6 480.8,553.7 480.8,547.8 480.8,540.9 480.8,533.0 480.8,524.1 480.8,514.3 480.8,503.4 480.8,491.6 480.8,478.8 480.8,467.0 480.8,456.2 480.8,446.3 480.8,437.4 480.8,429.6 480.8,422.7 480.8,416.7 480.8,411.8 480.8,407.9 480.8,404.9 480.8,403.0 480.8,402.0 480.8,402.0 480.8,403.0 480.8,404.9 480.8,407.9 480.8,411.8 480.8,416.7 480.8,422.7 480.8,429.6 480.8,437.4 480.8,446.3 480.8,456.2 480.8,467.0 480.8,476.8 480.8,485.7 480.8,493.6 480.8,500.5 480.8,506.4 480.8,511.3 480.8,515.3 480.8,518.2 480.8,520.2 480.8,521.2 480.8,521.2 480.8,520.2 480.8,518.2 480.8,515.3 480.8,511.3 480.8,506.4 480.8,500.5 480.8,493.6 480.8,485.7 480.8,476.8 480.8,469.0 480.8,462.1 480.8,456.2 480.8,451.2 480.8,447.3 480.8,444.3 480.8,442.4 480.8,441.4 480.8,441.4 480.8,442.4 480.8,444.3 480.8,447.3 480.8,451.2 480.8,456.2 480.8,462.1 480.8,469.0 480.8,474.9 480.8,479.8 480.8,483.7 480.8,486.7 480.8,488.7 480.8,489.7 480.8,489.7 480.8,488.7 480.8,486.7 480.8,483.7 480.8,479.8 480.8,474.9 480.8,470.9 480.8,468.0 480.8,466.0 480.8,465.0 480.8,465.0 480.8,466.0 480.8,468.0 480.8,470.9 480.8,472.9 479.8,475.9 477.8,479.8 474.9,484.7 470.9,490.6 466.0,497.5 460.1,505.4 453.2,514.3 447.3,524.1 442.4,535.0 438.4,544.8 435.5,553.7 433.5,561.6 432.5,568.5 432.5,574.4 433.5,579.3 435.5,583.3 438.4,586.2 442.4,588.2 447.3,589.2 451.2,589.2 454.2,588.2 456.2,586.2 457.1,583.3 457.1,579.3 456.2,574.4 454.2,568.5 451.2,561.6 449.3,553.7 448.3,544.8 448.3,536.9 449.3,530.0 450.2,524.1 450.2,519.2 450.2,515.3 450.2,512.3 450.2,510.3 450.2,509.4 450.2,509.4 450.2,510.3 450.2,512.3 450.2,515.3 450.2,519.2 450.2,524.1 450.2,530.0 450.2,536.9 450.2,542.9 450.2,547.8 450.2,551.7 450.2,554.7 450.2,556.7 450.2,557.6 450.2,557.6 450.2,556.7 450.2,554.7 450.2,551.7 450.2,547.8 450.2,542.9 450.2,538.9 450.2,536.0 450.2,534.0 450.2,533.0 450.2,533.0 450.2,534.0 450.2,536.0 450.2,538.9 450.2,541.9 449.3,545.8 447.3,550.7 444.3,556.7 440.4,563.5 435.5,571.4 429.6,578.3 422.7,584.2 414.8,589.2 405.9,593.1 396.1,596.1 385.2,598.0 373.4,599.0 362.6,599.0 352.7,598.0 343.8,596.1 336.0,593.1 329.1,589.2 323.2,584.2 318.2,578.3 314.3,573.4 311.3,569.5 309.4,566.5 308.4,564.5 308.4,563.5 309.4,563.5 311.3,564.5 314.3,566.5 318.2,569.5 323.2,573.4 329.1,577.3 336.0,580.3 343.8,582.3 352.7,583.3 362.6,583.3 371.4,582.3 379.3,580.3 386.2,577.3 392.1,575.4 397.0,574.4 401.0,574.4 403.9,575.4 405.9,577.3 406.9,578.3 406.9,578.3 405.9,577.3 403.9,577.3 401.0,577.3 397.0,577.3 392.1,577.3 386.2,577.3 379.3,577.3 371.4,577.3 364.5,577.3 358.6,576.4 353.7,574.4 349.8,571.4 346.8,567.5 344.8,562.6 343.8,556.7 343.8,549.8 344.8,541.9 346.8,533.0 349.8,525.1 353.7,518.2 358.6,512.3 364.5,507.4 371.4,503.4 379.3,500.5 388.2,498.5 398.0,497.5 408.9,497.5 420.7,498.5 433.5,500.5 447.3,503.4 462.1,507.4 477.8,512.3 494.6,518.2 510.3,525.1 525.1,531.0 538.9,536.0 551.7,539.9 563.5,542.9 574.4,544.8 584.2,545.8 593.1,545.8 601.0,544.8 607.9,542.9 613.8,539.9 618.7,536.0 622.7,531.0 625.6,527.1 627.6,524.1 628.6,522.2 628.6,521.2 627.6,521.2 625.6,522.2 622.7,524.1 618.7,527.1 613.8,530.0 607.9,532.0 601.0,533.0 593.1,533.0 584.2,532.0 574.4,530.0 563.5,529.1 551.7,529.1 538.9,530.0 525.1,530.0 510.3,530.0 494.6,530.0 479.8,531.0 466.0,533.0 453.2,536.0 441.4,539.9 430.5,544.8 420.7,550.7 411.8,556.7 403.9,561.6 397.0,565.5 391.1,568.5 386.2,570.4 382.3,571.4 379.3,571.4 377.3,570.4 376.4,568.5 376.4,565.5 377.3,561.6 379.3,556.7 382.3,552.7 386.2,549.8 391.1,547.8 397.0,546.8 403.9,546.8 411.8,547.8 420.7,549.8 430.5,552.7 441.4,556.7 453.2,559.6 466.0,561.6 479.8,562.6 492.6,562.6 504.4,561.6 515.3,559.6 525.1,556.7 534.0,554.7 541.9,553.7 548.8,553.7 554.7,554.7 559.6,556.7 563.5,557.6 566.5,557.6 568.5,556.7 569.5,556.7 569.5,556.7 568.5,556.7 566.5,556.7 563.5,556.7 559.6,556.7 554.7,556.7 548.8,556.7 541.9,556.7 534.0,556.7 525.1,556.7 515.3,556.7 504.4,556.7 492.6,556.7 481.8,556.7 471.9,556.7 463.1,556.7 455.2,556.7 448.3,556.7 442.4,556.7 437.4,556.7 433.5,556.7 430.5,556.7 428.6,556.7 427.6,556.7 427.6,556.7 428.6,556.7 430.5,556.7 433.5,556.7 437.4,556.7 442.4,556.7 448.3,556.7 455.2,556.7 463.1,556.7 471.9,556.7 481.8,556.7 490.6,556.7 498.5,556.7 505.4,556.7 511.3,556.7 516.3,556.7 520.2,556.7 523.2,556.7 525.1,556.7 526.1,556.7 526.1,556.7 525.1,556.7 523.2,556.7 520.2,556.7 516.3,556.7 511.3,556.7 505.4,556.7 498.5,556.7 490.6,556.7 483.7,556.7 477.8,556.7 472.9,556.7 469.0,556.7 466.0,556.7 464.0,556.7 463.1,556.7 463.1,556.7 464.0,556.7 466.0,556.7 469.0,556.7 472.9,556.7 477.8,556.7 483.7,556.7 488.7,556.7 492.6,556.7 495.6,556.7 497.5,556.7 498.5,556.7 498.5,556.7 497.5,556.7 495.6,556.7 492.6,556.7 488.7,556.7 485.7,556.7 483.7,556.7 482.8,556.7 482.8,556.7 483.7,556.7 485.7,556.7 486.7,556.7 488.7,555.7 491.6,553.7 495.6,550.7 500.5,546.8 506.4,541.9 511.3,536.0 515.3,529.1 518.2,521.2 520.2,512.3 521.2,502.5 521.2,491.6 520.2,481.8 518.2,472.9 515.3,465.0 511.3,458.1 508.4,452.2 506.4,447.3 505.4,443.3 505.4,440.4 506.4,438.4 508.4,437.4 509.4,437.4 509.4,438.4 509.4,440.4 509.4,443.3 509.4,447.3 509.4,452.2 509.4,458.1 509.4,465.0 509.4,472.9 509.4,481.8 509.4,489.7 508.4,496.6 506.4,502.5 503.4,507.4 499.5,511.3 494.6,514.3 488.7,516.3 481.8,517.2 473.9,517.2 465.0,516.3 455.2,514.3 444.3,511.3 432.5,507.4 419.7,502.5 405.9,496.6 391.1,489.7 377.3,481.8 364.5,472.9 352.7,463.1 341.9,452.2 332.0,442.4 323.2,433.5 315.3,425.6 308.4,418.7 302.5,412.8 297.5,407.9 293.6,403.9 290.6,401.0 288.7,399.0 287.7,398.0 287.7,398.0 288.7,399.0 290.6,401.0 293.6,403.9 297.5,407.9 302.5,412.8 308.4,418.7 315.3,425.6 323.2,433.5 332.0,442.4 341.9,450.2 352.7,457.1 364.5,463.1 377.3,468.0 390.1,471.9 402.0,474.9 412.8,476.8 422.7,477.8 431.5,477.8 439.4,476.8 446.3,474.9 452.2,471.9 457.1,468.0 461.1,463.1 464.0,457.1 466.0,450.2 467.0,444.3 467.0,439.4 466.0,435.5 464.0,432.5 461.1,430.5 457.1,429.6 452.2,429.6 446.3,430.5 439.4,432.5 431.5,435.5 422.7,439.4 412.8,444.3 402.0,448.3 390.1,451.2 379.3,453.2 369.5,454.2 360.6,454.2 352.7,453.2 345.8,451.2 339.9,448.3 335.0,446.3 331.0,445.3 328.1,445.3 326.1,446.3 325.1,446.3 325.1,446.3 326.1,446.3 328.1,446.3 331.0,446.3 335.0,446.3 339.9,446.3 345.8,446.3 352.7,446.3 360.6,446.3 369.5,446.3 379.3,446.3 390.1,446.3 402.0,447.3 414.8,449.3 428.6,452.2 443.3,456.2 459.1,461.1 475.9,467.0 493.6,473.9 512.3,481.8 530.0,490.6 546.8,500.5 562.6,511.3 577.3,523.2 591.1,536.0 603.9,549.8 615.8,564.5 626.6,578.3 636.5,591.1 645.3,603.0 653.2,613.8 660.1,623.6 666.0,632.5 670.9,640.4 674.9,647.3 677.8,653.2 679.8,658.1 680.8,662.1 680.8,665.0 679.8,667.0 677.8,668.0 674.9,668.0 670.9,667.0 666.0,665.0 660.1,662.1 653.2,658.1 645.3,653.2 636.5,647.3 626.6,640.4 615.8,632.5 603.9,623.6 591.1,613.8 577.3,603.0 562.6,591.1 546.8,578.3 530.0,565.5 513.3,553.7 497.5,542.9 482.8,533.0 469.0,524.1 456.2,516.3 444.3,509.4 433.5,503.4 423.6,498.5 414.8,494.6 406.9,491.6 400.0,489.7 394.1,488.7 389.2,488.7 385.2,489.7 382.3,491.6 380.3,494.6 379.3,498.5 379.3,503.4 380.3,509.4 382.3,516.3 385.2,524.1 389.2,533.0 394.1,542.9 400.0,553.7 406.9,565.5 414.8,576.4 423.6,586.2 433.5,595.1 444.3,603.0 456.2,609.9 469.0,615.8 482.8,620.7 497.5,624.6 513.3,627.6 528.1,629.6 541.9,630.5 554.7,630.5 566.5,629.6 577.3,627.6 587.2,624.6 596.1,620.7 603.9,615.8 610.8,609.9 616.7,603.0 621.7,595.1 625.6,586.2 628.6,576.4 630.5,565.5 631.5,555.7 631.5,546.8 630.5,538.9 628.6,532.0 625.6,526.1 621.7,521.2 616.7,517.2 610.8,514.3 603.9,512.3 596.1,511.3 587.2,511.3 577.3,512.3 566.5,514.3 554.7,517.2 541.9,521.2 528.1,526.1 513.3,532.0 499.5,538.9 486.7,546.8 474.9,555.7 464.0,565.5 454.2,574.4 445.3,582.3 437.4,589.2 430.5,595.1 424.6,600.0 419.7,603.9 415.8,606.9 412.8,608.9 410.8,609.9 409.9,609.9 409.9,608.9 410.8,606.9 412.8,603.9 415.8,600.0 419.7,595.1 424.6,589.2 430.5,582.3 437.4,574.4 445.3,565.5 454.2,557.6 464.0,550.7 474.9,544.8 486.7,539.9 499.5,536.0 513.3,533.0 526.1,531.0 537.9,530.0 548.8,530.0 558.6,531.0 567.5,533.0 575.4,536.0 582.3,539.9 588.2,544.8 593.1,550.7 597.0,557.6 600.0,565.5 602.0,572.4 603.0,578.3 603.0,583.3 602.0,587.2 600.0,590.1 597.0,592.1 593.1,593.1 588.2,593.1 582.3,592.1 575.4,590.1 567.5,587.2 558.6,583.3 548.8,578.3 537.9,572.4 526.1,565.5 513.3,559.6 501.5,554.7 490.6,550.7 480.8,547.8 471.9,545.8 464.0,544.8 457.1,544.8 451.2,545.8 446.3,547.8 442.4,550.7 439.4,554.7 437.4,559.6 436.5,565.5 436.5,570.4 437.4,574.4 439.4,577.3 442.4,579.3 446.3,580.3 451.2,580.3 457.1,579.3 464.0,577.3 471.9,574.4 480.8,570.4 490.6,565.5 501.5,561.6 513.3,558.6 524.1,556.7 534.0,555.7 542.9,555.7 550.7,556.7 557.6,558.6 563.5,561.6 568.5,565.5 572.4,568.5 575.4,570.4 577.3,571.4 578.3,571.4 578.3,570.4 577.3,568.5 575.4,565.5 572.4,563.5 568.5,562.6 563.5,562.6 557.6,563.5 550.7,565.5 542.9,566.5 534.0,566.5 524.1,565.5 513.3,565.5 503.4,564.5 494.6,562.6 486.7,559.6 479.8,555.7 473.9,550.7 469.0,544.8 465.0,537.9 462.1,532.0 460.1,527.1 459.1,523.2 459.1,520.2 460.1,518.2 462.1,517.2 465.0,517.2 469.0,518.2 473.9,520.2 479.8,523.2 486.7,527.1 494.6,532.0 503.4,536.0 513.3,538.9 523.2,540.9 532.0,541.9 539.9,541.9 546.8,540.9 552.7,538.9 557.6,536.0 561.6,533.0 564.5,531.0 566.5,530.0 567.5,530.0 567.5,531.0 566.5,533.0 564.5,534.0 561.6,534.0 557.6,533.0 552.7,533.0 546.8,533.0 539.9,533.0 532.0,533.0 523.2,533.0 513.3,532.0 503.4,530.0 494.6,527.1 486.7,523.2 479.8,518.2 473.9,512.3 469.0,505.4 465.0,497.5 462.1,488.7 460.1,478.8 459.1,468.0 459.1,456.2 460.1,443.3 462.1,431.5 465.0,420.7 469.0,410.8 473.9,402.0 479.8,394.1 486.7,387.2 494.6,381.3 503.4,376.4 511.3,372.4 518.2,369.5 524.1,367.5 529.1,366.5 533.0,366.5 536.0,367.5 537.9,369.5 538.9,372.4 538.9,376.4 537.9,381.3 536.0,387.2 533.0,394.1 529.1,402.0 524.1,410.8 518.2,420.7 511.3,431.5 503.4,441.4 496.6,450.2 490.6,458.1 485.7,465.0 481.8,470.9 478.8,475.9 476.8,479.8 475.9,482.8 475.9,484.7 476.8,485.7 478.8,485.7 481.8,484.7 485.7,482.8 490.6,479.8 496.6,475.9 503.4,470.9 509.4,465.0 514.3,458.1 518.2,450.2 521.2,441.4 523.2,433.5 524.1,426.6 524.1,420.7 523.2,415.8 521.2,411.8 518.2,408.9 514.3,406.9 509.4,405.9 503.4,405.9 498.5,406.9 494.6,408.9 491.6,411.8 489.7,415.8 488.7,420.7 488.7,426.6 489.7,433.5 491.6,439.4 494.6,444.3 498.5,448.3 503.4,451.2 507.4,453.2 510.3,454.2 512.3,454.2 513.3,453.2 513.3,451.2 512.3,448.3 510.3,444.3 507.4,439.4 503.4,435.5 500.5,432.5 498.5,430.5 497.5,429.6 497.5,429.6 498.5,430.5 500.5,432.5 503.4,435.5 505.4,437.4 506.4,438.4 506.4,438.4 505.4,437.4 503.4,437.4 502.5,436.5 502.5,434.5 503.4,431.5 505.4,427.6 508.4,422.7 510.3,416.7 511.3,409.9 511.3,402.0 510.3,395.1 510.3,389.2 510.3,384.2 510.3,380.3 510.3,377.3 510.3,375.4 510.3,374.4 510.3,374.4 510.3,375.4 510.3,377.3 510.3,380.3 510.3,384.2 510.3,389.2 510.3,395.1 510.3,400.0 511.3,403.9 513.3,406.9 516.3,408.9 519.2,409.9 521.2,409.9 522.2,408.9 522.2,406.9 521.2,403.9 519.2,400.0 518.2,395.1 518.2,391.1 519.2,388.2 519.2,386.2 519.2,385.2 519.2,385.2 519.2,386.2 519.2,388.2 519.2,391.1 519.2,393.1 518.2,396.1 516.3,400.0 513.3,404.9 509.4,410.8 504.4,417.7 498.5,425.6 491.6,432.5 483.7,438.4 474.9,443.3 465.0,447.3 454.2,450.2 442.4,452.2 429.6,453.2 415.8,453.2 403.0,452.2 391.1,450.2 380.3,447.3 370.4,443.3 361.6,438.4 353.7,432.5 346.8,427.6 340.9,423.6 336.0,420.7 332.0,418.7 329.1,417.7 327.1,417.7 326.1,418.7 326.1,420.7 327.1,423.6 329.1,427.6 332.0,430.5 336.0,432.5 340.9,433.5 346.8,433.5 353.7,432.5 361.6,430.5 370.4,427.6 380.3,425.6 391.1,424.6 403.0,424.6 413.8,425.6 423.6,427.6 432.5,428.6 440.4,428.6 447.3,427.6 453.2,427.6 458.1,427.6 462.1,427.6 465.0,427.6 467.0,427.6 468.0,427.6 468.0,427.6 467.0,427.6 465.0,427.6 462.1,427.6 458.1,427.6 453.2,427.6 447.3,427.6 440.4,427.6 432.5,427.6 423.6,427.6 413.8,427.6 404.9,427.6 397.0,427.6 390.1,427.6 384.2,427.6 379.3,427.6 375.4,427.6 372.4,427.6 370.4,427.6 369.5,427.6 369.5,427.6 370.4,427.6 372.4,427.6 375.4,427.6 379.3,427.6 384.2,427.6 390.1,427.6 397.0,427.6 404.9,427.6 412.8,427.6 421.7,426.6 431.5,424.6 442.4,421.7 454.2,417.7 465.0,412.8 474.9,406.9 483.7,402.0 491.6,398.0 498.5,395.1 504.4,393.1 509.4,392.1 513.3,392.1 516.3,393.1 518.2,395.1 519.2,398.0 519.2,402.0 518.2,404.9 516.3,406.9 513.3,407.9 509.4,407.9 504.4,406.9 498.5,404.9 491.6,403.9 483.7,403.9 474.9,403.9 465.0,403.9 454.2,404.9 444.3,406.9 435.5,409.9 427.6,413.8 420.7,418.7 414.8,424.6 409.9,431.5 405.9,439.4 403.0,448.3 401.0,456.2 400.0,463.1 400.0,469.0 401.0,473.9 403.0,477.8 405.9,480.8 409.9,482.8 414.8,483.7 420.7,483.7 427.6,482.8 435.5,480.8 444.3,477.8 452.2,473.9 459.1,469.0 465.0,463.1 470.0,456.2 473.9,450.2 476.8,445.3 478.8,441.4 479.8,438.4 479.8,436.5 478.8,435.5 476.8,435.5 473.9,436.5 470.0,438.4 465.0,441.4 459.1,445.3 452.2,450.2 446.3,454.2 441.4,457.1 437.4,459.1 434.5,460.1 432.5,460.1 431.5,459.1 431.5,457.1 432.5,454.2 434.5,452.2 437.4,451.2 441.4,451.2 446.3,452.2 450.2,453.2 453.2,453.2 455.2,453.2 456.2,453.2 456.2,453.2 455.2,453.2 453.2,453.2 450.2,453.2 448.3,453.2 447.3,453.2 447.3,453.2 448.3,453.2 449.3,453.2 451.2,454.2 454.2,456.2 458.1,459.1 463.1,463.1 469.0,468.0 475.9,473.9 483.7,478.8 492.6,482.8 500.5,485.7 507.4,487.7 513.3,488.7 518.2,488.7 522.2,487.7 525.1,485.7 527.1,482.8 528.1,478.8 528.1,473.9 527.1,470.0 525.1,467.0 522.2,465.0 518.2,464.0 513.3,464.0 507.4,465.0 500.5,467.0 494.6,470.0 489.7,473.9 485.7,476.8 482.8,478.8 480.8,479.8 479.8,479.8 479.8,478.8 480.8,476.8 482.8,473.9 485.7,471.9 489.7,470.9 494.6,470.9 498.5,471.9 501.5,473.9 503.4,474.9 504.4,474.9 504.4,473.9 503.4,473.9 501.5,473.9 498.5,473.9 494.6,473.9 489.7,472.9 483.7,470.9 476.8,468.0 469.0,464.0 460.1,459.1 450.2,453.2 439.4,446.3 427.6,438.4 415.8,429.6 404.9,421.7 395.1,414.8 386.2,408.9 378.3,403.9 371.4,400.0 365.5,397.0 360.6,395.1 356.7,394.1 353.7,394.1 351.7,395.1 350.7,397.0 350.7,400.0 351.7,403.9 353.7,408.9 356.7,414.8 360.6,421.7 365.5,428.6 371.4,434.5 378.3,439.4 386.2,443.3 395.1,446.3 404.9,448.3 415.8,449.3 425.6,449.3 434.5,448.3 442.4,446.3 449.3,443.3 455.2,439.4 460.1,434.5 464.0,428.6 467.0,423.6 469.0,419.7 470.0,416.7 470.0,414.8 469.0,413.8 467.0,413.8 464.0,414.8 460.1,416.7 455.2,419.7 449.3,423.6 442.4,428.6 434.5,432.5 425.6,435.5 415.8,437.4 406.9,438.4 399.0,438.4 392.1,437.4 386.2,435.5 381.3,432.5 377.3,428.6 374.4,425.6 372.4,423.6 371.4,422.7 371.4,422.7 372.4,423.6 374.4,425.6 377.3,428.6 381.3,430.5 386.2,431.5 392.1,431.5 399.0,430.5 406.9,428.6 415.8,427.6 423.6,427.6 430.5,428.6 436.5,428.6 441.4,428.6 445.3,428.6 448.3,428.6 450.2,428.6 451.2,428.6 451.2,428.6 450.2,428.6 448.3,428.6 445.3,428.6 441.4,428.6 436.5,428.6 430.5,428.6 423.6,428.6 415.8,428.6 408.9,427.6 403.0,425.6 398.0,422.7 394.1,418.7 391.1,413.8 389.2,407.9 388.2,401.0 388.2,394.1 389.2,388.2 391.1,383.3 394.1,379.3 398.0,376.4 403.0,374.4 408.9,373.4 415.8,373.4 423.6,374.4 432.5,376.4 442.4,379.3 453.2,383.3 465.0,388.2 477.8,394.1 491.6,399.0 504.4,403.0 516.3,405.9 527.1,407.9 536.9,408.9 545.8,408.9 553.7,407.9 560.6,405.9 566.5,403.0 571.4,399.0 575.4,394.1 578.3,390.1 580.3,387.2 581.3,385.2 581.3,384.2 580.3,384.2 578.3,385.2 575.4,387.2 571.4,390.1 566.5,394.1 560.6,397.0 553.7,399.0 545.8,400.0 536.9,400.0 527.1,399.0 516.3,397.0 504.4,394.1 493.6,392.1 483.7,391.1 474.9,391.1 467.0,392.1 460.1,394.1 454.2,395.1 449.3,395.1 445.3,394.1 442.4,394.1 440.4,394.1 439.4,394.1 439.4,394.1 440.4,394.1 442.4,394.1 445.3,394.1 449.3,394.1 454.2,394.1 460.1,394.1 467.0,394.1 474.9,394.1 483.7,394.1 493.6,394.1 502.5,394.1 510.3,394.1 517.2,394.1 523.2,394.1 528.1,394.1 532.0,394.1 535.0,394.1 536.9,394.1 537.9,394.1 537.9,394.1 536.9,394.1 535.0,394.1 532.0,394.1 528.1,394.1 523.2,394.1 517.2,394.1 510.3,394.1 502.5,394.1 495.6,394.1 489.7,394.1 484.7,394.1 480.8,394.1 477.8,394.1 475.9,394.1 474.9,394.1 474.9,394.1 475.9,394.1 477.8,394.1 480.8,394.1 484.7,394.1 489.7,394.1 495.6,394.1 500.5,394.1 504.4,395.1 507.4,397.0 509.4,400.0 510.3,402.0 510.3,403.0 509.4,403.0 507.4,402.0 504.4,402.0 500.5,402.0 495.6,402.0 489.7,402.0 482.8,402.0 474.9,402.0 466.0,402.0 456.2,402.0 445.3,402.0 433.5,402.0 420.7,402.0 406.9,402.0 392.1,402.0 376.4,402.0 361.6,403.0 347.8,404.9 335.0,407.9 323.2,411.8 312.3,416.7 302.5,422.7 293.6,429.6 285.7,437.4 278.8,446.3 272.9,456.2 268.0,467.0 264.0,476.8 261.1,485.7 259.1,493.6 258.1,500.5 258.1,506.4 259.1,511.3 261.1,515.3 264.0,518.2 268.0,520.2 272.9,521.2 278.8,521.2 285.7,520.2 293.6,518.2 302.5,515.3 312.3,511.3 323.2,506.4 335.0,500.5 347.8,493.6 361.6,485.7 376.4,476.8 392.1,469.0 408.9,462.1 424.6,456.2 439.4,451.2 453.2,447.3 466.0,444.3 477.8,442.4 488.7,441.4 498.5,441.4 507.4,442.4 515.3,444.3 522.2,447.3 528.1,451.2 533.0,456.2 536.9,462.1 539.9,469.0 541.9,474.9 542.9,479.8 542.9,483.7 541.9,486.7 539.9,488.7 536.9,489.7 533.0,489.7 528.1,488.7 522.2,486.7 515.3,483.7 507.4,479.8 498.5,474.9 488.7,470.9 477.8,468.0 466.0,466.0 453.2,465.0 439.4,465.0 424.6,466.0 410.8,468.0 398.0,470.9 386.2,472.9 375.4,473.9 365.5,473.9 356.7,472.9 348.8,472.9 341.9,472.9 336.0,472.9 331.0,472.9 327.1,472.9 324.1,472.9 322.2,472.9 321.2,472.9 321.2,472.9 322.2,472.9 324.1,472.9 327.1,472.9 331.0,472.9 336.0,472.9 341.9,472.9 348.8,472.9 356.7,472.9 365.5,472.9 375.4,472.9 386.2,472.9 398.0,472.9 410.8,472.9 422.7,472.9 433.5,472.9 443.3,472.9 452.2,472.9 460.1,472.9 467.0,472.9 472.9,472.9 477.8,472.9 481.8,472.9 484.7,472.9 486.7,472.9 487.7,472.9 487.7,472.9 486.7,472.9 484.7,472.9 481.8,472.9 477.8,472.9 472.9,472.9 467.0,472.9 460.1,472.9 452.2,472.9 443.3,472.9 433.5,472.9 422.7,472.9 412.8,472.9 403.9,472.9 396.1,472.9 389.2,472.9 383.3,472.9 378.3,472.9 374.4,472.9 371.4,472.9 369.5,472.9 368.5,472.9 368.5,472.9 369.5,472.9 371.4,472.9 374.4,472.9 378.3,472.9 383.3,472.9 389.2,472.9 396.1,472.9 403.9,472.9 412.8,472.9 420.7,472.9 427.6,472.9 433.5,472.9 438.4,472.9 442.4,472.9 445.3,472.9 447.3,472.9 448.3,472.9 448.3,472.9 447.3,472.9 445.3,472.9 442.4,472.9 438.4,472.9 433.5,472.9 427.6,472.9 420.7,472.9 414.8,472.9 409.9,472.9 405.9,472.9 403.0,472.9 401.0,472.9 400.0,472.9 400.0,472.9 401.0,472.9 403.0,472.9 405.9,472.9 409.9,472.9 414.8,472.9 418.7,472.9 423.6,473.9 429.6,475.9 436.5,478.8 444.3,482.8 453.2,487.7 461.1,492.6 468.0,496.6 473.9,499.5 478.8,501.5 482.8,502.5 485.7,502.5 487.7,501.5 488.7,499.5 488.7,496.6 487.7,492.6 485.7,489.7 482.8,487.7 478.8,486.7 473.9,486.7 468.0,487.7 461.1,489.7 454.2,492.6 446.3,496.6 437.4,501.5 427.6,507.4 416.7,514.3 404.9,522.2 392.1,531.0 380.3,540.9 369.5,551.7 359.6,563.5 350.7,576.4 342.9,588.2 336.0,599.0 330.0,608.9 325.1,617.7 321.2,625.6 318.2,632.5 316.3,638.4 315.3,643.3 315.3,647.3 316.3,650.2 318.2,652.2 321.2,653.2 325.1,653.2 330.0,652.2 336.0,650.2 342.9,647.3 350.7,643.3 359.6,638.4 369.5,632.5 380.3,625.6 390.1,617.7 399.0,608.9 406.9,599.0 413.8,588.2 419.7,578.3 424.6,569.5 428.6,561.6 431.5,554.7 433.5,548.8 434.5,543.8 434.5,539.9 433.5,536.9 431.5,535.0 428.6,534.0 424.6,534.0 419.7,535.0 413.8,536.9 406.9,539.9 399.0,543.8 390.1,548.8 382.3,554.7 375.4,561.6 369.5,569.5 364.5,578.3 360.6,587.2 357.6,595.1 355.7,602.0 354.7,607.9 354.7,612.8 355.7,616.7 357.6,619.7 360.6,621.7 364.5,622.7 369.5,622.7 375.4,621.7 382.3,619.7 389.2,616.7 395.1,612.8 400.0,607.9 403.9,602.0 406.9,595.1 408.9,587.2 409.9,580.3 409.9,574.4 408.9,569.5 406.9,565.5 403.9,562.6 400.0,560.6 395.1,559.6 389.2,559.6 384.2,560.6 380.3,562.6 377.3,565.5 375.4,569.5 374.4,574.4 374.4,580.3 375.4,587.2 377.3,593.1 380.3,598.0 384.2,602.0 389.2,604.9 393.1,606.9 396.1,607.9 398.0,607.9 399.0,606.9 399.0,604.9 398.0,602.0 396.1,598.0 393.1,593.1 389.2,587.2 386.2,580.3 384.2,572.4 383.3,563.5 383.3,553.7 384.2,542.9 386.2,531.0 389.2,518.2 393.1,504.4 398.0,489.7 403.9,475.9 410.8,463.1 418.7,451.2 427.6,440.4 437.4,430.5 448.3,421.7 460.1,413.8 470.9,406.9 480.8,401.0 489.7,396.1 497.5,392.1 504.4,389.2 510.3,387.2 515.3,386.2 519.2,386.2 522.2,387.2 524.1,389.2 525.1,392.1 525.1,396.1 524.1,401.0 522.2,406.9 519.2,413.8 515.3,421.7 510.3,430.5 504.4,440.4 497.5,451.2 489.7,463.1 480.8,475.9 470.9,487.7 462.1,498.5 454.2,508.4 447.3,517.2 441.4,525.1 436.5,532.0 432.5,537.9 429.6,542.9 427.6,546.8 426.6,549.8 426.6,551.7 427.6,552.7 429.6,552.7 432.5,551.7 436.5,549.8 441.4,546.8 447.3,542.9 454.2,537.9 462.1,532.0 469.0,525.1 474.9,517.2 479.8,508.4 483.7,498.5 486.7,487.7 488.7,477.8 489.7,469.0 489.7,461.1 488.7,454.2 486.7,448.3 483.7,443.3 479.8,439.4 474.9,436.5 469.0,434.5 464.0,433.5 460.1,433.5 457.1,434.5 455.2,436.5 454.2,439.4 454.2,443.3 455.2,448.3 457.1,454.2 460.1,461.1 464.0,469.0 467.0,477.8 469.0,485.7 470.0,492.6 470.0,498.5 469.0,503.4 467.0,507.4 466.0,510.3 466.0,512.3 467.0,513.3 467.0,513.3 467.0,512.3 467.0,510.3 467.0,507.4 467.0,503.4 467.0,498.5 467.0,492.6 467.0,485.7 467.0,478.8 466.0,470.9 464.0,462.1 461.1,452.2 457.1,441.4 452.2,429.6 446.3,416.7 439.4,404.9 431.5,394.1 422.7,384.2 412.8,375.4 402.0,367.5 392.1,360.6 383.3,354.7 375.4,349.8 368.5,345.8 362.6,342.9 357.6,340.9 353.7,339.9 350.7,339.9 348.8,340.9 347.8,342.9 347.8,345.8 348.8,349.8 350.7,354.7 353.7,360.6 357.6,367.5 362.6,375.4 368.5,384.2 375.4,394.1 383.3,404.9 392.1,414.8 400.0,423.6 406.9,431.5 412.8,438.4 417.7,444.3 421.7,449.3 424.6,453.2 426.6,456.2 427.6,458.1 427.6,459.1 426.6,459.1 424.6,458.1 421.7,456.2 417.7,453.2 412.8,449.3 406.9,444.3 400.0,438.4 394.1,431.5 389.2,423.6 385.2,414.8 382.3,406.9 380.3,400.0 379.3,394.1 379.3,389.2 380.3,385.2 382.3,382.3 385.2,380.3 389.2,379.3 394.1,379.3 398.0,380.3 401.0,382.3 403.0,385.2 403.9,389.2 403.9,394.1 403.0,400.0 401.0,406.9 398.0,412.8 396.1,417.7 395.1,421.7 395.1,424.6 396.1,426.6 398.0,427.6 399.0,427.6 399.0,426.6 398.0,424.6 398.0,421.7 398.0,417.7 398.0,412.8 398.0,407.9 397.0,403.9 395.1,401.0 392.1,399.0 388.2,398.0 383.3,398.0 377.3,399.0 372.4,401.0 368.5,403.9 365.5,407.9 363.5,412.8 362.6,418.7 362.6,425.6 363.5,433.5 365.5,442.4 368.5,450.2 372.4,457.1 375.4,463.1 377.3,468.0 378.3,471.9 378.3,474.9 377.3,476.8 375.4,477.8 374.4,477.8 374.4,476.8 374.4,474.9 374.4,471.9 374.4,468.0 374.4,463.1 374.4,457.1 374.4,450.2 374.4,442.4 373.4,433.5 372.4,423.6 372.4,414.8 372.4,406.9 372.4,400.0 372.4,394.1 372.4,389.2 372.4,385.2 372.4,382.3 372.4,380.3 372.4,379.3 372.4,379.3 372.4,380.3 372.4,382.3 372.4,385.2 372.4,389.2 372.4,394.1 372.4,400.0 372.4,406.9 372.4,414.8 372.4,421.7 372.4,427.6 372.4,432.5 372.4,436.5 372.4,439.4 372.4,441.4 372.4,442.4 372.4,442.4 372.4,441.4 372.4,439.4 372.4,436.5 372.4,432.5 372.4,427.6 372.4,421.7 372.4,416.7 373.4,412.8 375.4,409.9 378.3,407.9 382.3,406.9 387.2,406.9 393.1,407.9 400.0,409.9 407.9,412.8 416.7,416.7 424.6,421.7 431.5,427.6 437.4,434.5 442.4,441.4 446.3,447.3 449.3,452.2 451.2,456.2 452.2,459.1 452.2,461.1 451.2,462.1 449.3,462.1 446.3,461.1 442.4,459.1 437.4,456.2 431.5,452.2 424.6,447.3 418.7,441.4 413.8,436.5 409.9,432.5 406.9,429.6 404.9,427.6 403.9,426.6 403.9,426.6 404.9,427.6 406.9,429.6 409.9,432.5 413.8,436.5 418.7,441.4 422.7,445.3 425.6,448.3 427.6,450.2 428.6,451.2 428.6,451.2 427.6,450.2 425.6,448.3 422.7,445.3 420.7,441.4 417.7,436.5 413.8,430.5 408.9,423.6 403.0,417.7 396.1,412.8 388.2,408.9 379.3,405.9 371.4,403.9 364.5,403.0 358.6,403.0 353.7,403.9 349.8,405.9 346.8,408.9 344.8,412.8 343.8,417.7 343.8,423.6 344.8,428.6 346.8,432.5 349.8,435.5 353.7,437.4 358.6,438.4 364.5,438.4 371.4,437.4 377.3,435.5 382.3,432.5 386.2,428.6 389.2,423.6 391.1,419.7 392.1,416.7 392.1,414.8 391.1,413.8 389.2,413.8 386.2,414.8 382.3,416.7 377.3,419.7 373.4,423.6 370.4,426.6 368.5,428.6 367.5,429.6 367.5,429.6 368.5,428.6 370.4,426.6 373.4,423.6 376.4,421.7 378.3,420.7 379.3,420.7 379.3,421.7 378.3,423.6 376.4,424.6 375.4,424.6 375.4,423.6 376.4,423.6 376.4,424.6 375.4,426.6 373.4,429.6 370.4,433.5 366.5,438.4 363.5,444.3 361.6,451.2 360.6,459.1 360.6,468.0 361.6,477.8 363.5,488.7 364.5,500.5 364.5,513.3 364.5,527.1 364.5,541.9 364.5,557.6 364.5,572.4 364.5,586.2 364.5,599.0 364.5,610.8 364.5,621.7 364.5,631.5 364.5,640.4 364.5,648.3 364.5,655.2 364.5,661.1 364.5,666.0 364.5,670.0 364.5,672.9 364.5,674.9 364.5,675.9 364.5,675.9 364.5,674.9 364.5,672.9 364.5,670.0 364.5,666.0 364.5,661.1 364.5,655.2 364.5,648.3 364.5,640.4 364.5,631.5 364.5,621.7 364.5,610.8 364.5,599.0 364.5,586.2 364.5,572.4 364.5,559.6 365.5,547.8 367.5,536.9 370.4,527.1 374.4,518.2 379.3,510.3 385.2,503.4 392.1,497.5 400.0,492.6 408.9,488.7 418.7,485.7 429.6,483.7 441.4,482.8 454.2,482.8 468.0,483.7 482.8,485.7 498.5,488.7 515.3,492.6 533.0,497.5 549.8,503.4 565.5,510.3 580.3,518.2 594.1,527.1 606.9,536.9 618.7,547.8 629.6,559.6 639.4,572.4 648.3,586.2 656.2,599.0 663.1,610.8 669.0,621.7 673.9,631.5 677.8,640.4 680.8,648.3 682.8,655.2 683.7,661.1 683.7,666.0 682.8,670.0 680.8,672.9 677.8,674.9 673.9,675.9 669.0,675.9 663.1,674.9 656.2,672.9 648.3,670.0 639.4,666.0 629.6,661.1 618.7,655.2 606.9,648.3 594.1,640.4 580.3,631.5 565.5,621.7 549.8,610.8 535.0,599.0 521.2,588.2 508.4,578.3 496.6,569.5 485.7,561.6 475.9,554.7 467.0,548.8 459.1,543.8 452.2,539.9 446.3,536.9 441.4,535.0 437.4,534.0 434.5,534.0 432.5,535.0 431.5,536.9 431.5,539.9 432.5,543.8 434.5,548.8 437.4,554.7 441.4,561.6 446.3,569.5 452.2,578.3 459.1,588.2 467.0,597.0 475.9,604.9 485.7,611.8 496.6,617.7 508.4,622.7 521.2,626.6 535.0,629.6 547.8,631.5 559.6,632.5 570.4,632.5 580.3,631.5 589.2,629.6 597.0,626.6 603.9,622.7 609.9,617.7 614.8,611.8 618.7,604.9 621.7,597.0 623.6,588.2 624.6,580.3 624.6,573.4 623.6,567.5 621.7,562.6 618.7,558.6 614.8,555.7 609.9,553.7 603.9,552.7 597.0,552.7 589.2,553.7 580.3,555.7 570.4,558.6 559.6,562.6 547.8,567.5 536.9,573.4 527.1,580.3 518.2,588.2 510.3,595.1 503.4,601.0 497.5,605.9 492.6,609.9 488.7,612.8 485.7,614.8 483.7,615.8 482.8,615.8 482.8,614.8 483.7,612.8 485.7,609.9 488.7,605.9 492.6,601.0 497.5,595.1 503.4,588.2 510.3,582.3 518.2,577.3 527.1,573.4 536.9,570.4 545.8,568.5 553.7,567.5 560.6,567.5 566.5,568.5 571.4,570.4 575.4,573.4 578.3,577.3 580.3,582.3 581.3,588.2 581.3,593.1 580.3,597.0 578.3,600.0 575.4,602.0 571.4,603.0 566.5,603.0 560.6,602.0 553.7,600.0 545.8,597.0 536.9,593.1 529.1,588.2 522.2,584.2 516.3,581.3 511.3,579.3 507.4,578.3 504.4,578.3 502.5,579.3 501.5,581.3 501.5,584.2 502.5,588.2 504.4,591.1 507.4,593.1 511.3,594.1 516.3,594.1 522.2,593.1 529.1,591.1 536.9,588.2 545.8,584.2 553.7,579.3 560.6,573.4 566.5,566.5 571.4,558.6 575.4,549.8 578.3,539.9 580.3,529.1 581.3,517.2 581.3,506.4 580.3,496.6 578.3,487.7 575.4,479.8 571.4,472.9 566.5,467.0 560.6,462.1 553.7,458.1 547.8,455.2 542.9,453.2 538.9,452.2 536.0,452.2 534.0,453.2 533.0,455.2 533.0,458.1 534.0,462.1 536.0,467.0 538.9,472.9 542.9,479.8 547.8,487.7 551.7,496.6 554.7,506.4 556.7,515.3 557.6,523.2 557.6,530.0 556.7,536.0 554.7,540.9 551.7,544.8 549.8,547.8 548.8,549.8 548.8,550.7 549.8,550.7 549.8,549.8 549.8,547.8 549.8,544.8 549.8,540.9 549.8,536.0 549.8,530.0 549.8,523.2 549.8,515.3 549.8,508.4 549.8,502.5 549.8,497.5 549.8,493.6 549.8,490.6 549.8,488.7 549.8,487.7 549.8,487.7 549.8,488.7 549.8,490.6 549.8,493.6 549.8,497.5 549.8,502.5 549.8,508.4 549.8,513.3 549.8,517.2 549.8,520.2 549.8,522.2 549.8,523.2 549.8,523.2 549.8,522.2 549.8,520.2 549.8,517.2 549.8,513.3 549.8,510.3 549.8,508.4 549.8,507.4 549.8,507.4 549.8,508.4 549.8,510.3 549.8,512.3 548.8,513.3 546.8,513.3 543.8,512.3 539.9,510.3 535.0,507.4 529.1,503.4 524.1,498.5 520.2,494.6 517.2,491.6 515.3,489.7 514.3,488.7 514.3,488.7 515.3,489.7 517.2,491.6 520.2,494.6 524.1,498.5 527.1,501.5 529.1,503.4 530.0,504.4 530.0,504.4 529.1,503.4 527.1,501.5 525.1,498.5 522.2,496.6 518.2,495.6 513.3,495.6 507.4,496.6 502.5,498.5 498.5,501.5 495.6,505.4 493.6,510.3 492.6,514.3 492.6,517.2 493.6,519.2 495.6,520.2 498.5,520.2 502.5,519.2 507.4,517.2 511.3,514.3 514.3,512.3 516.3,511.3 517.2,511.3 517.2,512.3 516.3,513.3 514.3,513.3 511.3,513.3 507.4,513.3 502.5,514.3 496.6,516.3 491.6,519.2 487.7,523.2 484.7,528.1 482.8,534.0 481.8,540.9 481.8,548.8 482.8,557.6 484.7,567.5 487.7,576.4 491.6,584.2 495.6,591.1 498.5,597.0 500.5,602.0 501.5,605.9 501.5,608.9 500.5,610.8 498.5,611.8 495.6,611.8 493.6,610.8 492.6,608.9 492.6,605.9 493.6,602.0 495.6,597.0 496.6,591.1 496.6,584.2 495.6,576.4 495.6,569.5 495.6,563.5 495.6,558.6 495.6,554.7 495.6,551.7 495.6,549.8 495.6,548.8 495.6,548.8 495.6,549.8 495.6,551.7 495.6,554.7 495.6,558.6 495.6,563.5 495.6,569.5 495.6,574.4 495.6,578.3 495.6,581.3 495.6,583.3 495.6,584.2 495.6,584.2 495.6,583.3 495.6,581.3 495.6,578.3 495.6,574.4 495.6,571.4 495.6,569.5 495.6,568.5 495.6,568.5 495.6,569.5 495.6,571.4 495.6,573.4 494.6,574.4 492.6,574.4 489.7,573.4 485.7,571.4 482.8,568.5 480.8,564.5 479.8,559.6 479.8,553.7 480.8,546.8 482.8,538.9 485.7,530.0 487.7,520.2 488.7,509.4 488.7,497.5 487.7,484.7 485.7,470.9 484.7,456.2 484.7,440.4 485.7,423.6 485.7,405.9 485.7,389.2 485.7,373.4 485.7,358.6 485.7,344.8 485.7,332.0 485.7,320.2 485.7,309.4 485.7,299.5 485.7,290.6 485.7,282.8 485.7,275.9 485.7,270.0 485.7,265.0 485.7,261.1 485.7,258.1 485.7,256.2 485.7,255.2 485.7,255.2 485.7,256.2 485.7,258.1 485.7,261.1 485.7,265.0 485.7,270.0 485.7,275.9 485.7,282.8 485.7,290.6 485.7,299.5 485.7,309.4 485.7,320.2 485.7,332.0 485.7,344.8 485.7,358.6 485.7,373.4 485.7,389.2 485.7,403.9 485.7,417.7 485.7,430.5 485.7,442.4 485.7,453.2 485.7,463.1 485.7,471.9 485.7,479.8 485.7,486.7 485.7,492.6 485.7,497.5 485.7,501.5 485.7,504.4 485.7,506.4 485.7,507.4 485.7,507.4 485.7,506.4 485.7,504.4 485.7,501.5 485.7,497.5 485.7,492.6 485.7,486.7 485.7,479.8 485.7,471.9 485.7,463.1 485.7,453.2 485.7,442.4 485.7,430.5 485.7,417.7 485.7,403.9 485.7,391.1 485.7,379.3 485.7,368.5 485.7,358.6 485.7,349.8 485.7,341.9 485.7,335.0 485.7,329.1 485.7,324.1 485.7,320.2 485.7,317.2 485.7,315.3 485.7,314.3 485.7,314.3 485.7,315.3 485.7,317.2 485.7,320.2 485.7,324.1 485.7,329.1 485.7,335.0 485.7,341.9 485.7,349.8 485.7,358.6 485.7,368.5 485.7,379.3 485.7,391.1 485.7,403.0 484.7,413.8 482.8,423.6 479.8,432.5 475.9,440.4 470.9,447.3 465.0,453.2 458.1,458.1 452.2,462.1 447.3,465.0 443.3,467.0 440.4,468.0 438.4,468.0 437.4,467.0 437.4,465.0 438.4,462.1 440.4,458.1 443.3,453.2 447.3,447.3 452.2,440.4 457.1,432.5 461.1,423.6 464.0,413.8 466.0,403.0 467.0,393.1 467.0,384.2 466.0,376.4 464.0,369.5 461.1,363.5 457.1,358.6 454.2,354.7 452.2,351.7 451.2,349.8 451.2,348.8 452.2,348.8 454.2,349.8 457.1,351.7 459.1,354.7 460.1,358.6 460.1,363.5 459.1,369.5 457.1,376.4 456.2,384.2 456.2,393.1 457.1,401.0 457.1,407.9 457.1,413.8 457.1,418.7 457.1,422.7 457.1,425.6 457.1,427.6 457.1,428.6 457.1,428.6 457.1,427.6 457.1,425.6 457.1,422.7 457.1,418.7 457.1,413.8 457.1,407.9 457.1,401.0 457.1,395.1 457.1,390.1 457.1,386.2 457.1,383.3 457.1,381.3 457.1,380.3 457.1,380.3 457.1,381.3 457.1,383.3 457.1,386.2 457.1,390.1 457.1,395.1 457.1,399.0 458.1,403.9 460.1,409.9 463.1,416.7 467.0,424.6 471.9,433.5 477.8,441.4 483.7,448.3 488.7,454.2 492.6,459.1 495.6,463.1 497.5,466.0 498.5,468.0 498.5,469.0 497.5,469.0 495.6,468.0 492.6,466.0 488.7,463.1 483.7,459.1 479.8,454.2 476.8,448.3 474.9,441.4 473.9,434.5 473.9,428.6 474.9,423.6 476.8,419.7 479.8,416.7 483.7,414.8 486.7,413.8 488.7,413.8 489.7,414.8 489.7,416.7 488.7,419.7 486.7,423.6 483.7,428.6 481.8,434.5 480.8,439.4 480.8,443.3 481.8,446.3 483.7,448.3 484.7,449.3 484.7,449.3 483.7,448.3 483.7,446.3 483.7,443.3 483.7,439.4 483.7,434.5 482.8,430.5 480.8,427.6 477.8,425.6 473.9,424.6 469.0,424.6 464.0,425.6 460.1,427.6 457.1,430.5 455.2,434.5 454.2,439.4 454.2,445.3 455.2,452.2 457.1,460.1 460.1,469.0 464.0,478.8 467.0,489.7 469.0,501.5 470.0,514.3 470.0,528.1 469.0,540.9 467.0,552.7 464.0,563.5 462.1,573.4 461.1,582.3 461.1,590.1 462.1,597.0 464.0,603.0 465.0,607.9 465.0,611.8 464.0,614.8 464.0,616.7 464.0,617.7 464.0,617.7 464.0,616.7 464.0,614.8 464.0,611.8 464.0,607.9 464.0,603.0 464.0,597.0 464.0,590.1 464.0,582.3 464.0,573.4 464.0,563.5 464.0,552.7 464.0,540.9 464.0,529.1 465.0,516.3 467.0,502.5 470.0,487.7 473.9,471.9 478.8,455.2 484.7,437.4 491.6,418.7 499.5,401.0 508.4,384.2 518.2,368.5 529.1,353.7 540.9,339.9 553.7,327.1 565.5,315.3 576.4,304.4 586.2,294.6 595.1,285.7 603.0,277.8 609.9,270.9 615.8,265.0 620.7,260.1 624.6,256.2 627.6,253.2 629.6,251.2 630.5,250.2 630.5,250.2 629.6,251.2 627.6,253.2 624.6,256.2 620.7,260.1 615.8,265.0 609.9,270.9 603.0,277.8 595.1,285.7 586.2,294.6 576.4,304.4 565.5,315.3 554.7,327.1 544.8,339.9 536.0,353.7 528.1,368.5 521.2,384.2 515.3,401.0 510.3,416.7 506.4,431.5 503.4,445.3 501.5,458.1 500.5,470.0 500.5,480.8 501.5,490.6 503.4,499.5 506.4,507.4 510.3,514.3 515.3,520.2 521.2,525.1 528.1,529.1 536.0,532.0 544.8,534.0 554.7,535.0 563.5,535.0 571.4,534.0 578.3,532.0 584.2,529.1 589.2,525.1 593.1,520.2 596.1,514.3 598.0,507.4 599.0,499.5 599.0,490.6 598.0,480.8 596.1,470.0 593.1,458.1 589.2,445.3 584.2,431.5 578.3,416.7 571.4,403.0 563.5,390.1 554.7,378.3 546.8,367.5 539.9,357.6 534.0,348.8 529.1,340.9 525.1,334.0 522.2,328.1 520.2,323.2 519.2,319.2 519.2,316.3 520.2,314.3 522.2,313.3 525.1,313.3 529.1,314.3 534.0,316.3 539.9,319.2 546.8,323.2 554.7,328.1 561.6,334.0 567.5,340.9 572.4,348.8 576.4,357.6 579.3,367.5 581.3,378.3 582.3,390.1 582.3,403.0 581.3,414.8 579.3,425.6 576.4,435.5 572.4,444.3 567.5,452.2 561.6,459.1 554.7,465.0 548.8,470.0 543.8,473.9 539.9,476.8 536.9,478.8 535.0,479.8 534.0,479.8 534.0,478.8 535.0,476.8 536.9,473.9 539.9,470.0 543.8,465.0 548.8,459.1 554.7,452.2 559.6,444.3 563.5,435.5 566.5,425.6 568.5,414.8 569.5,403.0 569.5,392.1 568.5,382.3 566.5,373.4 563.5,365.5 559.6,358.6 554.7,352.7 550.7,347.8 547.8,343.8 545.8,340.9 544.8,338.9 544.8,337.9 545.8,337.9 547.8,338.9 550.7,340.9 554.7,343.8 557.6,347.8 559.6,352.7 560.6,358.6 560.6,365.5 559.6,373.4 557.6,382.3 554.7,392.1 552.7,403.0 551.7,412.8 551.7,421.7 552.7,429.6 554.7,436.5 555.7,442.4 555.7,447.3 554.7,451.2 554.7,454.2 554.7,456.2 554.7,457.1 554.7,457.1 554.7,456.2 554.7,454.2 554.7,451.2 554.7,447.3 554.7,442.4 554.7,436.5 554.7,429.6 554.7,421.7 554.7,412.8 554.7,403.0 553.7,394.1 551.7,386.2 548.8,379.3 544.8,373.4 539.9,368.5 534.0,364.5 527.1,361.6 519.2,359.6 510.3,358.6 500.5,358.6 489.7,359.6 477.8,361.6 465.0,364.5 451.2,368.5 436.5,373.4 420.7,379.3 403.9,386.2 386.2,394.1 369.5,403.0 353.7,412.8 338.9,423.6 325.1,435.5 312.3,448.3 300.5,462.1 289.7,476.8 279.8,492.6 270.9,509.4 263.1,527.1 256.2,545.8 250.2,565.5 245.3,584.2 241.4,602.0 238.4,618.7 236.5,634.5 235.5,649.3 235.5,663.1 236.5,675.9 238.4,687.7 241.4,698.5 245.3,708.4 250.2,717.2 256.2,725.1 263.1,732.0 270.9,737.9 279.8,742.9 289.7,746.8 300.5,749.8 312.3,751.7 325.1,752.7 338.9,752.7 353.7,751.7 369.5,749.8 384.2,746.8 398.0,742.9 410.8,737.9 422.7,732.0 433.5,725.1 443.3,717.2 452.2,708.4 460.1,698.5 467.0,687.7 472.9,675.9 477.8,663.1 481.8,649.3 484.7,634.5 486.7,618.7 487.7,602.0 487.7,584.2 486.7,567.5 484.7,551.7 481.8,536.9 477.8,523.2 472.9,510.3 467.0,498.5 460.1,487.7 452.2,477.8 443.3,469.0 433.5,461.1 422.7,454.2 410.8,448.3 398.0,443.3 384.2,439.4 371.4,436.5 359.6,434.5 348.8,433.5 338.9,433.5 330.0,434.5 322.2,436.5 315.3,439.4 309.4,443.3 304.4,448.3 300.5,454.2 297.5,461.1 295.6,469.0 294.6,477.8 294.6,487.7 295.6,498.5 297.5,510.3 300.5,523.2 304.4,536.9 309.4,551.7 315.3,567.5 322.2,582.3 330.0,596.1 338.9,608.9 348.8,620.7 359.6,631.5 371.4,641.4 382.3,650.2 392.1,658.1 401.0,665.0 408.9,670.9 415.8,675.9 421.7,679.8 426.6,682.8 430.5,684.7 433.5,685.7 435.5,685.7 436.5,684.7 436.5,682.8 435.5,679.8 433.5,675.9 430.5,670.9 426.6,665.0 421.7,658.1 415.8,650.2 408.9,641.4 401.0,631.5 392.1,620.7 382.3,608.9 373.4,596.1 365.5,582.3 358.6,569.5 352.7,557.6 347.8,546.8 343.8,536.9 340.9,528.1 338.9,520.2 337.9,513.3 337.9,507.4 338.9,502.5 340.9,498.5 343.8,495.6 347.8,493.6 352.7,492.6 358.6,492.6 365.5,493.6 373.4,495.6 380.3,498.5 386.2,502.5 391.1,507.4 395.1,513.3 398.0,520.2 400.0,528.1 401.0,536.9 401.0,546.8 400.0,557.6 398.0,569.5 395.1,580.3 391.1,590.1 386.2,599.0 380.3,606.9 373.4,613.8 367.5,619.7 362.6,624.6 358.6,628.6 355.7,631.5 353.7,633.5 352.7,634.5 352.7,634.5 353.7,633.5 355.7,631.5 358.6,628.6 362.6,624.6 367.5,619.7 373.4,613.8 378.3,606.9 382.3,599.0 385.2,590.1 387.2,580.3 388.2,571.4 388.2,563.5 387.2,556.7 385.2,550.7 382.3,545.8 378.3,541.9 373.4,538.9 369.5,536.9 366.5,536.0 364.5,536.0 363.5,536.9 363.5,538.9 364.5,541.9 366.5,545.8 369.5,550.7 373.4,556.7 376.4,563.5 378.3,571.4 379.3,578.3 379.3,584.2 378.3,589.2 376.4,593.1 373.4,596.1 371.4,598.0 370.4,599.0 370.4,599.0 371.4,598.0 373.4,596.1 374.4,593.1 374.4,589.2 373.4,584.2 373.4,578.3 373.4,573.4 373.4,569.5 373.4,566.5 373.4,564.5 373.4,563.5 373.4,563.5 373.4,564.5 373.4,566.5 373.4,569.5 373.4,573.4 373.4,576.4 374.4,578.3 376.4,579.3 379.3,579.3 383.3,578.3 388.2,576.4 394.1,573.4 401.0,569.5 408.9,564.5 417.7,558.6 427.6,551.7 438.4,543.8 450.2,535.0 461.1,525.1 470.9,514.3 479.8,502.5 487.7,489.7 494.6,475.9 500.5,461.1 505.4,446.3 509.4,432.5 512.3,419.7 514.3,407.9 515.3,397.0 515.3,387.2 514.3,378.3 512.3,370.4 509.4,363.5 505.4,357.6 500.5,352.7 494.6,348.8 487.7,345.8 479.8,343.8 470.9,342.9 461.1,342.9 452.2,343.8 444.3,345.8 437.4,348.8 431.5,352.7 426.6,357.6 422.7,363.5 419.7,370.4 417.7,378.3 416.7,387.2 416.7,397.0 417.7,407.9 419.7,419.7 422.7,432.5 426.6,446.3 431.5,459.1 437.4,470.9 444.3,481.8 452.2,491.6 460.1,500.5 467.0,508.4 472.9,515.3 477.8,521.2 481.8,526.1 484.7,530.0 486.7,533.0 487.7,535.0 487.7,536.0 486.7,536.0 484.7,535.0 481.8,533.0 477.8,530.0 472.9,526.1 467.0,521.2 460.1,515.3 454.2,508.4 449.3,500.5 445.3,491.6 442.4,481.8 440.4,470.9 439.4,459.1 439.4,446.3 440.4,434.5 442.4,423.6 445.3,413.8 449.3,404.9 454.2,397.0 460.1,390.1 465.0,384.2 469.0,379.3 471.9,375.4 473.9,372.4 474.9,370.4 474.9,369.5 473.9,369.5 471.9,370.4 469.0,372.4 465.0,375.4 460.1,379.3 456.2,384.2 453.2,390.1 451.2,397.0 450.2,404.9 450.2,413.8 451.2,423.6 453.2,434.5 456.2,446.3 460.1,457.1 463.1,467.0 465.0,475.9 466.0,483.7 466.0,490.6 465.0,496.6 463.1,501.5 460.1,505.4 458.1,508.4 457.1,510.3 457.1,511.3 458.1,511.3 460.1,510.3 461.1,508.4 461.1,505.4 460.1,501.5 460.1,496.6 460.1,490.6 460.1,483.7 460.1,475.9 460.1,467.0 460.1,457.1 460.1,446.3 461.1,436.5 463.1,427.6 466.0,419.7 470.0,412.8 474.9,406.9 480.8,402.0 487.7,398.0 495.6,395.1 504.4,393.1 514.3,392.1 523.2,392.1 531.0,393.1 537.9,395.1 543.8,398.0 548.8,402.0 552.7,406.9 555.7,412.8 557.6,419.7 558.6,427.6 558.6,436.5 557.6,446.3 555.7,457.1 552.7,469.0 548.8,479.8 543.8,489.7 537.9,498.5 531.0,506.4 523.2,513.3 514.3,519.2 506.4,524.1 499.5,528.1 493.6,531.0 488.7,533.0 484.7,534.0 481.8,534.0 479.8,533.0 478.8,531.0 478.8,528.1 479.8,524.1 481.8,519.2 484.7,513.3 488.7,506.4 493.6,498.5 499.5,489.7 506.4,479.8 514.3,470.9 521.2,461.1 527.1,450.2 532.0,438.4 536.0,425.6 538.9,411.8 540.9,399.0 541.9,387.2 541.9,376.4 540.9,366.5 538.9,357.6 536.0,349.8 532.0,342.9 527.1,336.9 521.2,332.0 514.3,328.1 506.4,325.1 499.5,323.2 493.6,322.2 488.7,322.2 484.7,323.2 481.8,325.1 479.8,328.1 478.8,332.0 478.8,336.9 479.8,342.9 481.8,349.8 484.7,357.6 488.7,366.5 493.6,376.4 499.5,387.2 504.4,399.0 510.3,411.8 517.2,425.6 525.1,440.4 532.0,456.2 537.9,472.9 542.9,490.6 546.8,509.4 549.8,529.1 551.7,548.8 552.7,567.5 552.7,585.2 551.7,602.0 549.8,617.7 546.8,632.5 542.9,646.3 537.9,659.1 532.0,670.9 527.1,681.8 523.2,691.6 520.2,700.5 518.2,708.4 517.2,715.3 517.2,721.2 518.2,726.1 520.2,730.0 523.2,733.0 527.1,735.0 530.0,736.0 532.0,736.0 533.0,735.0 533.0,733.0 532.0,730.0 530.0,726.1 529.1,721.2 529.1,715.3 529.1,708.4 529.1,700.5 529.1,691.6 529.1,681.8 529.1,670.9 529.1,659.1 529.1,646.3 529.1,632.5 529.1,617.7 529.1,602.0 529.1,585.2 529.1,567.5 529.1,548.8 528.1,529.1 526.1,508.4 523.2,486.7 519.2,464.0 514.3,442.4 508.4,421.7 501.5,402.0 493.6,383.3 484.7,365.5 474.9,348.8 464.0,333.0 452.2,318.2 439.4,304.4 425.6,291.6 410.8,279.8 395.1,269.0 378.3,259.1 362.6,250.2 347.8,242.4 334.0,235.5 321.2,229.6 309.4,224.6 298.5,220.7 288.7,217.7 279.8,215.8 271.9,214.8 265.0,214.8 259.1,215.8 254.2,217.7 250.2,220.7 247.3,224.6 245.3,229.6 244.3,235.5 244.3,242.4 245.3,250.2 247.3,259.1 250.2,269.0 254.2,279.8 259.1,291.6 265.0,304.4 271.9,318.2 279.8,333.0 288.7,348.8 298.5,365.5 309.4,383.3 321.2,402.0 334.0,421.7 347.8,442.4 362.6,462.1 376.4,480.8 389.2,498.5 401.0,515.3 411.8,531.0 421.7,545.8 430.5,559.6 438.4,572.4 445.3,584.2 451.2,595.1 456.2,604.9 460.1,613.8 463.1,621.7 465.0,628.6 466.0,634.5 466.0,639.4 465.0,643.3 463.1,646.3 460.1,648.3 456.2,649.3 451.2,649.3 445.3,648.3 438.4,646.3 430.5,643.3 421.7,639.4 411.8,634.5 401.0,628.6 389.2,621.7 376.4,613.8 362.6,604.9 349.8,595.1 337.9,584.2 327.1,572.4 317.2,559.6 308.4,545.8 300.5,531.0 293.6,515.3 287.7,498.5 282.8,480.8 278.8,462.1 275.9,444.3 273.9,427.6 272.9,411.8 272.9,397.0 273.9,383.3 275.9,370.4 278.8,358.6 282.8,347.8 287.7,337.9 293.6,329.1 300.5,321.2 308.4,314.3 317.2,308.4 327.1,303.4 337.9,299.5 349.8,296.6 362.6,294.6 374.4,293.6 385.2,293.6 395.1,294.6 403.9,296.6 411.8,299.5 418.7,303.4 424.6,308.4 429.6,314.3 433.5,321.2 436.5,329.1 438.4,337.9 439.4,347.8 439.4,358.6 438.4,370.4 436.5,383.3 433.5,397.0 429.6,411.8 424.6,427.6 418.7,444.3 411.8,461.1 403.9,476.8 395.1,491.6 385.2,505.4 374.4,518.2 362.6,530.0 351.7,540.9 341.9,550.7 333.0,559.6 325.1,567.5 318.2,574.4 312.3,580.3 307.4,585.2 303.4,589.2 300.5,592.1 298.5,594.1 297.5,595.1 297.5,595.1 298.5,594.1 300.5,592.1 303.4,589.2 307.4,585.2 312.3,580.3 318.2,574.4 325.1,567.5 333.0,559.6 341.9,550.7 351.7,540.9 362.6,530.0 372.4,518.2 381.3,505.4 389.2,491.6 396.1,476.8 402.0,461.1 406.9,446.3 410.8,432.5 413.8,419.7 415.8,407.9 416.7,397.0 416.7,387.2 415.8,378.3 413.8,370.4 410.8,363.5 406.9,357.6 402.0,352.7 396.1,348.8 389.2,345.8 381.3,343.8 372.4,342.9 362.6,342.9 353.7,343.8 345.8,345.8 338.9,348.8 333.0,352.7 328.1,357.6 324.1,363.5 321.2,370.4 319.2,378.3 318.2,387.2 318.2,397.0 319.2,407.9 321.2,419.7 324.1,432.5 328.1,446.3 333.0,461.1 338.9,474.9 345.8,487.7 353.7,499.5 362.6,510.3 370.4,520.2 377.3,529.1 383.3,536.9 388.2,543.8 392.1,549.8 395.1,554.7 397.0,558.6 398.0,561.6 398.0,563.5 397.0,564.5 395.1,564.5 392.1,563.5 388.2,561.6 383.3,558.6 377.3,554.7 370.4,549.8 362.6,543.8 355.7,536.9 349.8,529.1 344.8,520.2 340.9,510.3 337.9,499.5 336.0,487.7 335.0,474.9 335.0,461.1 336.0,448.3 337.9,436.5 340.9,425.6 344.8,415.8 349.8,406.9 355.7,399.0 362.6,392.1 368.5,386.2 373.4,381.3 377.3,377.3 380.3,374.4 382.3,372.4 383.3,371.4 383.3,371.4 382.3,372.4 380.3,374.4 377.3,377.3 373.4,381.3 368.5,386.2 362.6,392.1 357.6,399.0 353.7,406.9 350.7,415.8 348.8,425.6 347.8,436.5 347.8,448.3 348.8,461.1 350.7,472.9 353.7,483.7 357.6,493.6 362.6,502.5 366.5,510.3 369.5,517.2 371.4,523.2 372.4,528.1 372.4,532.0 371.4,535.0 369.5,536.9 366.5,537.9 362.6,537.9 359.6,536.9 357.6,535.0 356.7,532.0 356.7,528.1 357.6,523.2 359.6,517.2 362.6,510.3 364.5,502.5 365.5,493.6 365.5,483.7 364.5,472.9 362.6,461.1 361.6,448.3 361.6,434.5 362.6,419.7 364.5,405.9 367.5,393.1 371.4,381.3 376.4,370.4 382.3,360.6 389.2,351.7 397.0,343.8 405.9,336.9 415.8,331.0 426.6,326.1 438.4,322.2 451.2,319.2 465.0,317.2 479.8,316.3 495.6,316.3 512.3,317.2 530.0,319.2 546.8,322.2 562.6,326.1 577.3,331.0 591.1,336.9 603.9,343.8 615.8,351.7 626.6,360.6 636.5,370.4 645.3,381.3 653.2,393.1 660.1,405.9 666.0,417.7 670.9,428.6 674.9,438.4 677.8,447.3 679.8,455.2 680.8,462.1 680.8,468.0 679.8,472.9 677.8,476.8 674.9,479.8 670.9,481.8 666.0,482.8 660.1,482.8 653.2,481.8 645.3,479.8 636.5,476.8 626.6,472.9 615.8,468.0 603.9,462.1 591.1,455.2 577.3,447.3 562.6,438.4 546.8,428.6 532.0,417.7 518.2,407.9 505.4,399.0 493.6,391.1 482.8,384.2 472.9,378.3 464.0,373.4 456.2,369.5 449.3,366.5 443.3,364.5 438.4,363.5 434.5,363.5 431.5,364.5 429.6,366.5 428.6,369.5 428.6,373.4 429.6,378.3 431.5,384.2 434.5,391.1 438.4,399.0 443.3,407.9 449.3,415.8 456.2,422.7 464.0,428.6 472.9,433.5 482.8,437.4 493.6,440.4 505.4,442.4 518.2,443.3 532.0,443.3 544.8,442.4 556.7,440.4 567.5,437.4 577.3,433.5 586.2,428.6 594.1,422.7 601.0,415.8 606.9,409.9 611.8,404.9 615.8,401.0 618.7,398.0 620.7,396.1 621.7,395.1 621.7,395.1 620.7,396.1 618.7,398.0 615.8,401.0 611.8,404.9 606.9,409.9 601.0,413.8 594.1,416.7 586.2,418.7 577.3,419.7 567.5,419.7 556.7,418.7 544.8,416.7 534.0,413.8 524.1,411.8 515.3,410.8 507.4,410.8 500.5,411.8 494.6,411.8 489.7,411.8 485.7,411.8 482.8,411.8 480.8,411.8 479.8,411.8 479.8,411.8 480.8,411.8 482.8,411.8 485.7,411.8 489.7,411.8 494.6,411.8 500.5,411.8 507.4,411.8 515.3,411.8 524.1,411.8 534.0,411.8 544.8,412.8 554.7,414.8 563.5,415.8 571.4,415.8 578.3,414.8 584.2,414.8 589.2,414.8 593.1,414.8 596.1,414.8 598.0,414.8 599.0,414.8 599.0,414.8 598.0,414.8 596.1,414.8 593.1,414.8 589.2,414.8 584.2,414.8 578.3,414.8 571.4,414.8 563.5,414.8 554.7,414.8 546.8,414.8 539.9,414.8 534.0,414.8 529.1,414.8 525.1,414.8 522.2,414.8 520.2,414.8 519.2,414.8 519.2,414.8 520.2,414.8 522.2,414.8 525.1,414.8 529.1,414.8 534.0,414.8 539.9,414.8 546.8,414.8 553.7,414.8 559.6,415.8 564.5,417.7 568.5,420.7 571.4,424.6 573.4,429.6 574.4,433.5 574.4,436.5 573.4,438.4 571.4,439.4 568.5,439.4 564.5,438.4 559.6,436.5 553.7,433.5 546.8,429.6 538.9,426.6 530.0,424.6 520.2,423.6 509.4,423.6 497.5,424.6 484.7,426.6 470.9,429.6 456.2,431.5 440.4,432.5 423.6,432.5 405.9,431.5 387.2,429.6 368.5,428.6 350.7,428.6 334.0,429.6 318.2,429.6 303.4,429.6 289.7,429.6 276.8,429.6 265.0,429.6 254.2,429.6 244.3,429.6 235.5,429.6 227.6,429.6 220.7,429.6 214.8,429.6 209.9,429.6 205.9,429.6 203.0,429.6 201.0,429.6 200.0,429.6 200.0,429.6 201.0,429.6 203.0,429.6 205.9,429.6 209.9,429.6 214.8,429.6 220.7,429.6 227.6,429.6 235.5,429.6 244.3,429.6 254.2,429.6 265.0,429.6 276.8,429.6 289.7,429.6 303.4,429.6 318.2,429.6 334.0,429.6 350.7,429.6 368.5,429.6 387.2,430.5 404.9,432.5 421.7,435.5 437.4,439.4 452.2,444.3 466.0,450.2 478.8,457.1 490.6,465.0 501.5,473.9 511.3,483.7 520.2,494.6 528.1,506.4 535.0,519.2 540.9,533.0 545.8,547.8 549.8,563.5 552.7,578.3 554.7,592.1 555.7,604.9 555.7,616.7 554.7,627.6 552.7,637.4 549.8,646.3 545.8,654.2 540.9,661.1 535.0,667.0 528.1,671.9 520.2,675.9 511.3,678.8 501.5,680.8 490.6,681.8 478.8,681.8 466.0,680.8 452.2,678.8 437.4,675.9 421.7,671.9 404.9,667.0 389.2,661.1 374.4,654.2 360.6,646.3 347.8,637.4 336.0,627.6 325.1,616.7 315.3,604.9 306.4,592.1 298.5,578.3 291.6,565.5 285.7,553.7 280.8,542.9 276.8,533.0 273.9,524.1 271.9,516.3 270.9,509.4 270.9,503.4 271.9,498.5 273.9,494.6 276.8,491.6 280.8,489.7 285.7,488.7 291.6,488.7 298.5,489.7 306.4,491.6 315.3,494.6 325.1,498.5 336.0,503.4 347.8,509.4 360.6,516.3 374.4,524.1 389.2,533.0 403.0,542.9 415.8,553.7 427.6,565.5 438.4,576.4 448.3,586.2 457.1,595.1 465.0,603.0 471.9,609.9 477.8,615.8 482.8,620.7 486.7,624.6 489.7,627.6 491.6,629.6 492.6,630.5 492.6,630.5 491.6,629.6 489.7,627.6 486.7,624.6 482.8,620.7 477.8,615.8 471.9,609.9 465.0,603.0 457.1,595.1 448.3,586.2 438.4,576.4 427.6,565.5 415.8,555.7 403.0,546.8 391.1,538.9 380.3,532.0 370.4,526.1 361.6,521.2 353.7,517.2 346.8,514.3 340.9,512.3 336.0,511.3 332.0,511.3 329.1,512.3 327.1,514.3 326.1,517.2 326.1,521.2 327.1,526.1 329.1,532.0 332.0,538.9 336.0,546.8 340.9,555.7 346.8,565.5 353.7,574.4 361.6,582.3 370.4,589.2 380.3,595.1 391.1,600.0 401.0,603.9 409.9,606.9 417.7,608.9 424.6,609.9 430.5,609.9 435.5,608.9 439.4,606.9 442.4,603.9 444.3,600.0 445.3,595.1 445.3,589.2 444.3,582.3 442.4,574.4 439.4,565.5 435.5,557.6 430.5,550.7 424.6,544.8 417.7,539.9 409.9,536.0 401.0,533.0 393.1,531.0 386.2,530.0 380.3,530.0 375.4,531.0 371.4,533.0 368.5,536.0 366.5,539.9 365.5,544.8 365.5,550.7 366.5,557.6 368.5,565.5 371.4,572.4 375.4,578.3 380.3,583.3 386.2,587.2 393.1,590.1 399.0,592.1 403.9,593.1 407.9,593.1 410.8,592.1 412.8,590.1 413.8,587.2 413.8,583.3 412.8,578.3 410.8,572.4 407.9,565.5 403.9,559.6 399.0,554.7 395.1,550.7 392.1,547.8 390.1,545.8 389.2,544.8 389.2,544.8 390.1,545.8 392.1,547.8 395.1,550.7 397.0,554.7 398.0,559.6 398.0,565.5 397.0,570.4 396.1,574.4 396.1,577.3 396.1,579.3 396.1,580.3 396.1,580.3 396.1,579.3 396.1,577.3 396.1,574.4 396.1,570.4 396.1,565.5 397.0,559.6 399.0,552.7 402.0,544.8 405.9,536.0 410.8,526.1 416.7,515.3 421.7,503.4 425.6,490.6 428.6,476.8 430.5,464.0 431.5,452.2 431.5,441.4 430.5,431.5 428.6,422.7 425.6,414.8 421.7,407.9 416.7,402.0 412.8,397.0 409.9,393.1 407.9,390.1 406.9,388.2 406.9,387.2 407.9,387.2 409.9,388.2 412.8,390.1 416.7,393.1 419.7,397.0 421.7,402.0 422.7,407.9 422.7,414.8 421.7,422.7 419.7,431.5 416.7,441.4 414.8,452.2 413.8,464.0 413.8,474.9 414.8,484.7 416.7,493.6 417.7,501.5 417.7,508.4 416.7,514.3 416.7,519.2 416.7,523.2 416.7,526.1 416.7,528.1 416.7,529.1 416.7,529.1 416.7,528.1 416.7,526.1 416.7,523.2 416.7,519.2 416.7,514.3 416.7,508.4 416.7,501.5 416.7,493.6 416.7,484.7 416.7,474.9 416.7,466.0 416.7,458.1 416.7,451.2 416.7,445.3 416.7,440.4 416.7,436.5 416.7,433.5 416.7,431.5 416.7,430.5 416.7,430.5 416.7,431.5 416.7,433.5 416.7,436.5 416.7,440.4 416.7,445.3 416.7,451.2 416.7,458.1 416.7,466.0 416.7,472.9 416.7,478.8 416.7,483.7 416.7,487.7 416.7,490.6 416.7,492.6 416.7,493.6 416.7,493.6 416.7,492.6 416.7,490.6 416.7,487.7 416.7,483.7 416.7,478.8 416.7,472.9 416.7,468.0 416.7,464.0 416.7,461.1 416.7,459.1 416.7,458.1 416.7,458.1 416.7,459.1 416.7,461.1 416.7,464.0 416.7,468.0 416.7,470.9 416.7,472.9 416.7,473.9 416.7,473.9 416.7,472.9 416.7,470.9 416.7,469.0 417.7,468.0 419.7,468.0 422.7,469.0 426.6,470.9 431.5,473.9 437.4,477.8 444.3,482.8 452.2,488.7 461.1,495.6 470.9,501.5 481.8,506.4 493.6,510.3 506.4,513.3 518.2,515.3 529.1,516.3 538.9,516.3 547.8,515.3 555.7,513.3 562.6,510.3 568.5,506.4 573.4,501.5 577.3,497.5 580.3,494.6 582.3,492.6 583.3,491.6 583.3,491.6 582.3,492.6 580.3,494.6 577.3,497.5 573.4,499.5 568.5,500.5 562.6,500.5 555.7,499.5 547.8,499.5 538.9,499.5 529.1,499.5 518.2,499.5 508.4,499.5 499.5,499.5 491.6,499.5 484.7,499.5 478.8,499.5 473.9,499.5 470.0,499.5 467.0,499.5 465.0,499.5 464.0,499.5 464.0,499.5 465.0,499.5 467.0,499.5 470.0,499.5 473.9,499.5 478.8,499.5 484.7,499.5 491.6,499.5 499.5,499.5 508.4,499.5 517.2,499.5 525.1,498.5 532.0,496.6 537.9,493.6 542.9,489.7 546.8,484.7 549.8,478.8 551.7,471.9 552.7,464.0 552.7,455.2 551.7,445.3 549.8,434.5 546.8,422.7 542.9,409.9 537.9,398.0 532.0,387.2 525.1,377.3 517.2,368.5 508.4,360.6 498.5,353.7 487.7,347.8 475.9,342.9 463.1,338.9 449.3,336.0 434.5,334.0 418.7,333.0 402.0,333.0 384.2,334.0 367.5,336.0 351.7,338.9 336.9,342.9 323.2,347.8 310.3,353.7 298.5,360.6 287.7,368.5 277.8,377.3 269.0,387.2 261.1,398.0 254.2,408.9 248.3,418.7 243.3,427.6 239.4,435.5 236.5,442.4 234.5,448.3 233.5,453.2 233.5,457.1 234.5,460.1 236.5,462.1 239.4,463.1 243.3,463.1 248.3,462.1 254.2,460.1 261.1,457.1 269.0,453.2 277.8,448.3 287.7,442.4 298.5,435.5 310.3,427.6 323.2,418.7 336.9,408.9 351.7,400.0 367.5,392.1 382.3,385.2 396.1,379.3 408.9,374.4 420.7,370.4 431.5,367.5 441.4,365.5 450.2,364.5 458.1,364.5 465.0,365.5 470.9,367.5 475.9,370.4 479.8,374.4 482.8,379.3 484.7,385.2 485.7,392.1 485.7,400.0 484.7,408.9 482.8,416.7 479.8,423.6 475.9,429.6 470.9,434.5 465.0,438.4 458.1,441.4 450.2,443.3 441.4,444.3 431.5,444.3 420.7,443.3 408.9,441.4 396.1,438.4 382.3,434.5 369.5,429.6 357.6,423.6 346.8,416.7 336.9,408.9 328.1,402.0 320.2,396.1 313.3,391.1 307.4,387.2 302.5,384.2 298.5,382.3 295.6,381.3 293.6,381.3 292.6,382.3 292.6,384.2 293.6,387.2 295.6,391.1 298.5,396.1 302.5,402.0 307.4,408.9 313.3,414.8 320.2,419.7 328.1,423.6 336.9,426.6 346.8,428.6 357.6,429.6 369.5,429.6 382.3,428.6 394.1,426.6 404.9,423.6 414.8,419.7 423.6,414.8 431.5,408.9 438.4,403.9 444.3,400.0 449.3,397.0 453.2,395.1 456.2,394.1 458.1,394.1 459.1,395.1 459.1,397.0 458.1,400.0 456.2,403.9 453.2,408.9 449.3,412.8 444.3,415.8 438.4,417.7 431.5,418.7 423.6,418.7 414.8,417.7 404.9,415.8 394.1,412.8 382.3,408.9 371.4,405.9 361.6,403.9 352.7,403.0 344.8,403.0 337.9,403.9 332.0,405.9 327.1,408.9 323.2,412.8 320.2,417.7 318.2,423.6 317.2,430.5 317.2,438.4 318.2,447.3 320.2,457.1 323.2,468.0 327.1,479.8 332.0,492.6 337.9,504.4 344.8,515.3 352.7,525.1 361.6,534.0 371.4,541.9 382.3,548.8 392.1,554.7 401.0,559.6 408.9,563.5 415.8,566.5 421.7,568.5 426.6,569.5 430.5,569.5 433.5,568.5 435.5,566.5 436.5,563.5 436.5,559.6 435.5,554.7 433.5,548.8 430.5,541.9 426.6,534.0 421.7,525.1 415.8,515.3 408.9,504.4 401.0,494.6 392.1,485.7 383.3,477.8 375.4,470.9 368.5,465.0 362.6,460.1 357.6,456.2 353.7,453.2 350.7,451.2 348.8,450.2 347.8,450.2 347.8,451.2 348.8,453.2 350.7,456.2 353.7,460.1 357.6,465.0 362.6,470.9 368.5,477.8 375.4,485.7 383.3,494.6 390.1,502.5 396.1,509.4 401.0,515.3 404.9,520.2 407.9,524.1 409.9,527.1 410.8,529.1 410.8,530.0 409.9,530.0 407.9,529.1 404.9,527.1 401.0,524.1 396.1,520.2 390.1,515.3 383.3,509.4 375.4,502.5 368.5,494.6 362.6,485.7 357.6,475.9 353.7,465.0 350.7,453.2 348.8,440.4 347.8,426.6 347.8,411.8 348.8,398.0 350.7,385.2 353.7,373.4 357.6,362.6 362.6,352.7 368.5,343.8 373.4,336.0 377.3,329.1 380.3,323.2 382.3,318.2 383.3,314.3 383.3,311.3 382.3,309.4 380.3,308.4 377.3,308.4 373.4,309.4 368.5,311.3 364.5,314.3 361.6,318.2 359.6,323.2 358.6,329.1 358.6,336.0 359.6,343.8 361.6,352.7 364.5,362.6 368.5,373.4 371.4,385.2 373.4,398.0 374.4,409.9 374.4,420.7 373.4,430.5 371.4,439.4 368.5,447.3 366.5,454.2 365.5,460.1 365.5,465.0 366.5,469.0 368.5,471.9 369.5,473.9 369.5,474.9 368.5,474.9 368.5,473.9 368.5,471.9 368.5,469.0 368.5,465.0 368.5,460.1 368.5,454.2 368.5,447.3 368.5,439.4 368.5,430.5 368.5,420.7 368.5,409.9 368.5,398.0 369.5,387.2 371.4,377.3 374.4,368.5 378.3,360.6 383.3,353.7 389.2,347.8 396.1,342.9 403.9,338.9 411.8,336.0 418.7,334.0 424.6,333.0 429.6,333.0 433.5,334.0 436.5,336.0 438.4,338.9 439.4,342.9 439.4,347.8 438.4,353.7 436.5,360.6 433.5,368.5 429.6,377.3 424.6,387.2 418.7,398.0 411.8,409.9 405.9,422.7 401.0,436.5 397.0,451.2 394.1,467.0 392.1,483.7 391.1,501.5 391.1,520.2 392.1,539.9 394.1,558.6 397.0,576.4 401.0,593.1 405.9,608.9 411.8,623.6 416.7,637.4 420.7,650.2 423.6,662.1 425.6,672.9 426.6,682.8 426.6,691.6 425.6,699.5 423.6,706.4 420.7,712.3 416.7,717.2 411.8,721.2 407.9,724.1 404.9,726.1 403.0,727.1 402.0,727.1 402.0,726.1 403.0,724.1 404.9,721.2 407.9,717.2 411.8,712.3 414.8,706.4 416.7,699.5 417.7,691.6 417.7,682.8 416.7,672.9 414.8,662.1 411.8,650.2 409.9,637.4 408.9,623.6 408.9,608.9 409.9,593.1 411.8,576.4 412.8,558.6 412.8,541.9 411.8,526.1 411.8,511.3 411.8,497.5 411.8,484.7 411.8,472.9 411.8,462.1 411.8,452.2 411.8,443.3 411.8,435.5 411.8,428.6 411.8,422.7 411.8,417.7 411.8,413.8 411.8,410.8 411.8,408.9 411.8,407.9 411.8,407.9 411.8,408.9 411.8,410.8 411.8,413.8 411.8,417.7 411.8,422.7 411.8,428.6 411.8,435.5 411.8,443.3 411.8,452.2 411.8,462.1 411.8,472.9 411.8,484.7 411.8,497.5 411.8,511.3 411.8,526.1 411.8,541.9 411.8,557.6 412.8,572.4 414.8,586.2 417.7,599.0 421.7,610.8 426.6,621.7 432.5,631.5 439.4,640.4 447.3,648.3 456.2,655.2 466.0,661.1 476.8,666.0 486.7,670.0 495.6,672.9 503.4,674.9 510.3,675.9 516.3,675.9 521.2,674.9 525.1,672.9 528.1,670.0 530.0,666.0 531.0,661.1 531.0,655.2 530.0,648.3 528.1,640.4 525.1,631.5 521.2,621.7 516.3,610.8 510.3,599.0 503.4,586.2 495.6,572.4 486.7,557.6 478.8,541.9 471.9,525.1 466.0,507.4 461.1,488.7 457.1,469.0 454.2,450.2 452.2,432.5 451.2,415.8 451.2,400.0 452.2,385.2 454.2,371.4 457.1,358.6 461.1,346.8 466.0,336.0 471.9,326.1 478.8,317.2 484.7,309.4 489.7,302.5 493.6,296.6 496.6,291.6 498.5,287.7 499.5,284.7 499.5,282.8 498.5,281.8 496.6,281.8 493.6,282.8 489.7,284.7 484.7,287.7 480.8,291.6 477.8,296.6 475.9,302.5 474.9,309.4 474.9,317.2 475.9,326.1 477.8,336.0 480.8,346.8 482.8,358.6 483.7,371.4 483.7,385.2 482.8,400.0 482.8,415.8 482.8,432.5 482.8,450.2 482.8,467.0 482.8,482.8 482.8,497.5 482.8,511.3 482.8,524.1 482.8,536.0 482.8,546.8 482.8,556.7 482.8,565.5 482.8,573.4 482.8,580.3 482.8,586.2 482.8,591.1 482.8,595.1 482.8,598.0 482.8,600.0 482.8,601.0 482.8,601.0 482.8,600.0 482.8,598.0 482.8,595.1 482.8,591.1 482.8,586.2 482.8,580.3 482.8,573.4 482.8,565.5 482.8,556.7 482.8,546.8 482.8,536.0 482.8,524.1 482.8,511.3 482.8,497.5 482.8,482.8 482.8,467.0 482.8,452.2 481.8,436.5 479.8,421.7 476.8,407.9 472.9,395.1 468.0,383.3 462.1,372.4 455.2,362.6 447.3,353.7 438.4,345.8 428.6,338.9 417.7,333.0 405.9,328.1 393.1,324.1 379.3,321.2 366.5,319.2 354.7,318.2 343.8,318.2 334.0,319.2 325.1,321.2 317.2,324.1 310.3,328.1 304.4,333.0 299.5,338.9 295.6,345.8 292.6,353.7 290.6,362.6 289.7,372.4 289.7,383.3 290.6,395.1 292.6,407.9 295.6,421.7 299.5,434.5 304.4,446.3 310.3,457.1 317.2,467.0 325.1,475.9 334.0,483.7 343.8,490.6 354.7,496.6 366.5,501.5 377.3,505.4 387.2,508.4 396.1,510.3 403.9,511.3 410.8,511.3 416.7,510.3 421.7,508.4 425.6,505.4 428.6,501.5 430.5,496.6 431.5,490.6 431.5,483.7 430.5,475.9 428.6,467.0 425.6,457.1 421.7,446.3 416.7,434.5 410.8,423.6 403.9,413.8 396.1,404.9 387.2,397.0 377.3,390.1 368.5,384.2 360.6,379.3 353.7,375.4 347.8,372.4 342.9,370.4 338.9,369.5 336.0,369.5 334.0,370.4 333.0,372.4 333.0,375.4 334.0,379.3 336.0,384.2 338.9,390.1 342.9,397.0 347.8,404.9 353.7,413.8 360.6,423.6 368.5,432.5 377.3,440.4 385.2,447.3 392.1,453.2 398.0,458.1 403.0,462.1 406.9,465.0 409.9,467.0 411.8,468.0 412.8,468.0 412.8,467.0 411.8,465.0 409.9,462.1 406.9,458.1 403.0,453.2 398.0,447.3 392.1,440.4 385.2,432.5 377.3,425.6 370.4,419.7 364.5,414.8 359.6,410.8 355.7,407.9 352.7,405.9 350.7,404.9 349.8,404.9 349.8,405.9 350.7,407.9 352.7,410.8 355.7,414.8 359.6,419.7 364.5,425.6 370.4,432.5 377.3,440.4 385.2,449.3 394.1,459.1 403.9,470.0 414.8,481.8 426.6,494.6 439.4,508.4 453.2,523.2 468.0,538.9 481.8,553.7 494.6,567.5 506.4,580.3 517.2,592.1 527.1,603.0 536.0,612.8 543.8,621.7 550.7,629.6 556.7,636.5 561.6,642.4 565.5,647.3 568.5,651.2 570.4,654.2 571.4,656.2 571.4,657.1 570.4,657.1 568.5,656.2 565.5,654.2 561.6,651.2 556.7,647.3 550.7,642.4 543.8,636.5 536.0,629.6 527.1,621.7 517.2,612.8 506.4,603.0 494.6,592.1 481.8,580.3 470.0,567.5 459.1,553.7 449.3,540.9 440.4,529.1 432.5,518.2 425.6,508.4 419.7,499.5 414.8,491.6 410.8,484.7 407.9,478.8 405.9,473.9 404.9,470.0 404.9,467.0 405.9,465.0 407.9,464.0 410.8,464.0 414.8,465.0 419.7,467.0 425.6,470.0 432.5,473.9 440.4,478.8 449.3,484.7 459.1,491.6 470.0,499.5 479.8,508.4 488.7,518.2 496.6,529.1 503.4,540.9 509.4,551.7 514.3,561.6 518.2,570.4 521.2,578.3 523.2,585.2 524.1,591.1 524.1,596.1 523.2,600.0 521.2,603.0 518.2,604.9 514.3,605.9 509.4,605.9 503.4,604.9 496.6,603.0 488.7,600.0 479.8,596.1 471.9,591.1 465.0,585.2 459.1,578.3 454.2,570.4 450.2,561.6 447.3,551.7 445.3,542.9 444.3,535.0 444.3,528.1 445.3,522.2 447.3,517.2 450.2,513.3 454.2,510.3 459.1,508.4 465.0,507.4 471.9,507.4 477.8,508.4 482.8,510.3 486.7,513.3 489.7,517.2 491.6,522.2 492.6,528.1 492.6,535.0 491.6,542.9 489.7,549.8 486.7,555.7 482.8,560.6 477.8,564.5 473.9,567.5 470.9,569.5 469.0,570.4 468.0,570.4 468.0,569.5 469.0,567.5 470.9,564.5 473.9,560.6 475.9,555.7 476.8,549.8 476.8,542.9 475.9,536.9 473.9,532.0 472.9,528.1 472.9,525.1 473.9,523.2 473.9,522.2 473.9,522.2 473.9,523.2 473.9,525.1 473.9,528.1 473.9,532.0 473.9,536.9 473.9,542.9 474.9,547.8 476.8,551.7 479.8,554.7 483.7,556.7 488.7,557.6 494.6,557.6 499.5,556.7 503.4,554.7 506.4,551.7 508.4,547.8 509.4,542.9 509.4,536.9 508.4,530.0 506.4,522.2 503.4,513.3 499.5,503.4 494.6,492.6 490.6,480.8 487.7,468.0 485.7,454.2 484.7,439.4 484.7,423.6 485.7,406.9 487.7,391.1 490.6,376.4 494.6,362.6 497.5,349.8 499.5,337.9 500.5,327.1 500.5,317.2 499.5,308.4 497.5,300.5 494.6,293.6 492.6,287.7 491.6,282.8 491.6,278.8 492.6,275.9 494.6,273.9 495.6,272.9 495.6,272.9 494.6,273.9 494.6,275.9 494.6,278.8 494.6,282.8 494.6,287.7 494.6,293.6 494.6,300.5 494.6,308.4 494.6,317.2 494.6,327.1 494.6,337.9 494.6,349.8 494.6,362.6 494.6,376.4 494.6,391.1 494.6,405.9 495.6,421.7 497.5,438.4 500.5,454.2 504.4,469.0 509.4,482.8 515.3,495.6 522.2,507.4 528.1,518.2 533.0,528.1 536.9,536.9 539.9,544.8 541.9,551.7 542.9,557.6 542.9,562.6 541.9,566.5 539.9,569.5 536.9,571.4 533.0,572.4 528.1,572.4 524.1,571.4 521.2,569.5 519.2,566.5 518.2,562.6 518.2,557.6 519.2,551.7 521.2,544.8 524.1,536.9 527.1,528.1 529.1,518.2 530.0,507.4 530.0,495.6 529.1,482.8 527.1,469.0 526.1,454.2 526.1,440.4 527.1,427.6 527.1,415.8 527.1,404.9 527.1,395.1 527.1,386.2 527.1,378.3 527.1,371.4 527.1,365.5 527.1,360.6 527.1,356.7 527.1,353.7 527.1,351.7 527.1,350.7 527.1,350.7 527.1,351.7 527.1,353.7 527.1,356.7 527.1,360.6 527.1,365.5 527.1,371.4 527.1,378.3 527.1,386.2 527.1,395.1 527.1,404.9 527.1,415.8 527.1,427.6 527.1,440.4 527.1,452.2 528.1,463.1 530.0,472.9 533.0,481.8 536.9,489.7 541.9,496.6 545.8,502.5 548.8,507.4 550.7,511.3 551.7,514.3 551.7,516.3 550.7,517.2 548.8,517.2 545.8,516.3 543.8,514.3 542.9,511.3 542.9,507.4 543.8,502.5 545.8,496.6 546.8,489.7 546.8,481.8 545.8,472.9 545.8,463.1 545.8,452.2 545.8,442.4 544.8,433.5 542.9,425.6 539.9,418.7 536.0,412.8 531.0,407.9 525.1,403.9 520.2,401.0 516.3,399.0 513.3,398.0 511.3,398.0 510.3,399.0 510.3,401.0 511.3,403.9 513.3,407.9 516.3,412.8 520.2,418.7 523.2,425.6 525.1,433.5 526.1,442.4 526.1,450.2 525.1,457.1 523.2,463.1 522.2,468.0 522.2,471.9 523.2,474.9 523.2,476.8 523.2,477.8 523.2,477.8 523.2,476.8 523.2,474.9 523.2,471.9 523.2,468.0 523.2,463.1 523.2,457.1 523.2,450.2 523.2,443.3 522.2,437.4 520.2,432.5 517.2,428.6 513.3,425.6 508.4,423.6 502.5,422.7 495.6,422.7 487.7,423.6 478.8,425.6 469.0,428.6 460.1,432.5 452.2,437.4 445.3,443.3 439.4,450.2 434.5,458.1 430.5,467.0 427.6,476.8 425.6,487.7 424.6,499.5 424.6,512.3 425.6,526.1 427.6,540.9 430.5,556.7 434.5,572.4 439.4,587.2 445.3,601.0 452.2,613.8 460.1,625.6 467.0,636.5 472.9,646.3 477.8,655.2 481.8,663.1 484.7,670.0 486.7,675.9 487.7,680.8 487.7,684.7 486.7,687.7 484.7,689.7 481.8,690.6 477.8,690.6 472.9,689.7 467.0,687.7 460.1,684.7 454.2,680.8 449.3,675.9 445.3,670.0 442.4,663.1 440.4,655.2 439.4,646.3 439.4,636.5 440.4,625.6 442.4,613.8 445.3,601.0 449.3,587.2 454.2,572.4 460.1,558.6 465.0,545.8 469.0,534.0 471.9,523.2 473.9,513.3 474.9,504.4 474.9,496.6 473.9,489.7 471.9,483.7 469.0,478.8 465.0,474.9 460.1,471.9 456.2,470.0 453.2,469.0 451.2,469.0 450.2,470.0 450.2,471.9 451.2,474.9 453.2,478.8 456.2,483.7 460.1,489.7 463.1,496.6 465.0,504.4 466.0,513.3 466.0,523.2 465.0,534.0 463.1,545.8 460.1,558.6 458.1,572.4 457.1,585.2 457.1,597.0 458.1,607.9 460.1,617.7 461.1,626.6 461.1,634.5 460.1,641.4 460.1,647.3 460.1,652.2 460.1,656.2 460.1,659.1 460.1,661.1 460.1,662.1 460.1,662.1 460.1,661.1 460.1,659.1 460.1,656.2 460.1,652.2 460.1,647.3 460.1,641.4 460.1,634.5 460.1,626.6 460.1,617.7 460.1,607.9 460.1,597.0 460.1,585.2 460.1,572.4 459.1,558.6 457.1,543.8 454.2,528.1 450.2,511.3 445.3,495.6 439.4,480.8 432.5,467.0 426.6,454.2 421.7,442.4 417.7,431.5 414.8,421.7 412.8,412.8 411.8,404.9 411.8,398.0 412.8,392.1 414.8,387.2 417.7,383.3 421.7,380.3 426.6,378.3 430.5,377.3 433.5,377.3 435.5,378.3 436.5,380.3 436.5,383.3 435.5,387.2 433.5,392.1 430.5,398.0 428.6,404.9 427.6,412.8 427.6,421.7 428.6,431.5 430.5,442.4 431.5,454.2 431.5,467.0 430.5,480.8 430.5,495.6 430.5,509.4 430.5,522.2 430.5,534.0 430.5,544.8 430.5,554.7 430.5,563.5 430.5,571.4 430.5,578.3 430.5,584.2 430.5,589.2 430.5,593.1 430.5,596.1 430.5,598.0 430.5,599.0 430.5,599.0 430.5,598.0 430.5,596.1 430.5,593.1 430.5,589.2 430.5,584.2 430.5,578.3 430.5,571.4 430.5,563.5 430.5,554.7 430.5,544.8 430.5,534.0 430.5,522.2 430.5,509.4 430.5,497.5 430.5,486.7 430.5,476.8 430.5,468.0 430.5,460.1 430.5,453.2 430.5,447.3 430.5,442.4 430.5,438.4 430.5,435.5 430.5,433.5 430.5,432.5 430.5,432.5 430.5,433.5 430.5,435.5 430.5,438.4 430.5,442.4 430.5,447.3 430.5,453.2 430.5,460.1 430.5,468.0 430.5,476.8 430.5,486.7 430.5,497.5 430.5,507.4 430.5,516.3 430.5,524.1 430.5,531.0 430.5,536.9 430.5,541.9 430.5,545.8 430.5,548.8 430.5,550.7 430.5,551.7 430.5,551.7 430.5,550.7 430.5,548.8 430.5,545.8 430.5,541.9 430.5,536.9 430.5,531.0 430.5,524.1 430.5,516.3 430.5,507.4 430.5,499.5 431.5,492.6 433.5,486.7 436.5,481.8 440.4,477.8 445.3,474.9 451.2,472.9 458.1,471.9 466.0,471.9 472.9,472.9 478.8,474.9 483.7,477.8 487.7,481.8 490.6,486.7 492.6,492.6 493.6,499.5 493.6,507.4 492.6,516.3 490.6,526.1 487.7,536.9 483.7,546.8 478.8,555.7 472.9,563.5 468.0,570.4 464.0,576.4 461.1,581.3 459.1,585.2 458.1,588.2 458.1,590.1 459.1,591.1 461.1,591.1 464.0,590.1 468.0,588.2 472.9,585.2 476.8,581.3 479.8,576.4 481.8,570.4 482.8,563.5 482.8,555.7 481.8,546.8 479.8,537.9 476.8,530.0 472.9,523.2 470.0,517.2 468.0,512.3 467.0,508.4 467.0,505.4 468.0,503.4 470.0,502.5 472.9,502.5 474.9,503.4 475.9,505.4 475.9,508.4 474.9,512.3 472.9,517.2 471.9,523.2 471.9,530.0 472.9,537.9 474.9,544.8 477.8,550.7 481.8,555.7 486.7,559.6 492.6,562.6 499.5,564.5 507.4,565.5 514.3,565.5 520.2,564.5 525.1,562.6 529.1,559.6 532.0,555.7 534.0,550.7 535.0,544.8 535.0,537.9 534.0,530.0 532.0,521.2 529.1,513.3 525.1,506.4 520.2,500.5 514.3,495.6 507.4,491.6 501.5,488.7 496.6,486.7 492.6,485.7 489.7,485.7 487.7,486.7 486.7,488.7 486.7,491.6 487.7,495.6 489.7,500.5 492.6,506.4 496.6,513.3 501.5,519.2 507.4,524.1 512.3,528.1 516.3,531.0 519.2,533.0 521.2,534.0 522.2,534.0 522.2,533.0 521.2,531.0 519.2,528.1 516.3,524.1 512.3,519.2 507.4,515.3 503.4,512.3 500.5,510.3 498.5,509.4 497.5,509.4 497.5,510.3 498.5,512.3 500.5,515.3 503.4,518.2 507.4,520.2 510.3,521.2 512.3,521.2 513.3,520.2 513.3,518.2 512.3,517.2 510.3,517.2 507.4,518.2 503.4,518.2 498.5,517.2 492.6,515.3 485.7,512.3 477.8,508.4 469.0,503.4 459.1,497.5 448.3,491.6 436.5,486.7 423.6,482.8 409.9,479.8 395.1,477.8 381.3,476.8 368.5,476.8 356.7,477.8 345.8,479.8 336.0,482.8 327.1,486.7 319.2,491.6 312.3,495.6 306.4,498.5 301.5,500.5 297.5,501.5 294.6,501.5 292.6,500.5 291.6,498.5 291.6,495.6 292.6,491.6 294.6,488.7 297.5,486.7 301.5,485.7 306.4,485.7 312.3,486.7 319.2,488.7 327.1,491.6 336.0,493.6 345.8,494.6 356.7,494.6 368.5,493.6 381.3,491.6 393.1,490.6 403.9,490.6 413.8,491.6 422.7,491.6 430.5,491.6 437.4,491.6 443.3,491.6 448.3,491.6 452.2,491.6 455.2,491.6 457.1,491.6 458.1,491.6 458.1,491.6 457.1,491.6 455.2,491.6 452.2,491.6 448.3,491.6 443.3,491.6 437.4,491.6 430.5,491.6 422.7,491.6 413.8,491.6 403.9,491.6 393.1,491.6 382.3,490.6 372.4,488.7 363.5,485.7 355.7,481.8 348.8,476.8 342.9,470.9 337.9,464.0 334.0,456.2 331.0,447.3 329.1,437.4 328.1,426.6 328.1,416.7 329.1,407.9 331.0,400.0 334.0,393.1 337.9,387.2 342.9,382.3 348.8,378.3 355.7,375.4 363.5,373.4 372.4,372.4 382.3,372.4 391.1,373.4 399.0,375.4 405.9,378.3 411.8,382.3 416.7,387.2 420.7,393.1 423.6,400.0 425.6,407.9 426.6,416.7 426.6,424.6 425.6,431.5 423.6,437.4 420.7,442.4 416.7,446.3 411.8,449.3 405.9,451.2 399.0,452.2 391.1,452.2 382.3,451.2 374.4,449.3 367.5,446.3 361.6,442.4 356.7,437.4 352.7,431.5 349.8,424.6 347.8,418.7 346.8,413.8 346.8,409.9 347.8,406.9 349.8,404.9 352.7,403.9 356.7,403.9 361.6,404.9 367.5,406.9 374.4,409.9 382.3,413.8 389.2,418.7 395.1,422.7 400.0,425.6 403.9,427.6 406.9,428.6 408.9,428.6 409.9,427.6 409.9,425.6 408.9,422.7 406.9,419.7 403.9,417.7 400.0,416.7 395.1,416.7 389.2,417.7 382.3,419.7 376.4,422.7 371.4,426.6 367.5,430.5 364.5,433.5 362.6,435.5 361.6,436.5 361.6,436.5 362.6,435.5 364.5,433.5 367.5,430.5 371.4,428.6 376.4,427.6 382.3,427.6 389.2,428.6 397.0,430.5 405.9,431.5 415.8,431.5 426.6,430.5 438.4,430.5 451.2,430.5 465.0,430.5 479.8,430.5 493.6,430.5 506.4,430.5 518.2,430.5 529.1,430.5 538.9,430.5 547.8,430.5 555.7,430.5 562.6,430.5 568.5,430.5 573.4,430.5 577.3,430.5 580.3,430.5 582.3,430.5 583.3,430.5 583.3,430.5 582.3,430.5 580.3,430.5 577.3,430.5 573.4,430.5 568.5,430.5 562.6,430.5 555.7,430.5 547.8,430.5 538.9,430.5 529.1,430.5 518.2,430.5 506.4,430.5 493.6,430.5 481.8,430.5 470.9,430.5 461.1,430.5 452.2,430.5 444.3,430.5 437.4,430.5 431.5,430.5 426.6,430.5 422.7,430.5 419.7,430.5 417.7,430.5 416.7,430.5 416.7,430.5 417.7,430.5 419.7,430.5 422.7,430.5 426.6,430.5 431.5,430.5 437.4,430.5 444.3,430.5 452.2,430.5 461.1,430.5 470.9,430.5 481.8,430.5 491.6,430.5 500.5,430.5 508.4,430.5 515.3,430.5 521.2,430.5 526.1,430.5 530.0,430.5 533.0,430.5 535.0,430.5 536.0,430.5 536.0,430.5 535.0,430.5 533.0,430.5 530.0,430.5 526.1,430.5 521.2,430.5 515.3,430.5 508.4,430.5 500.5,430.5 491.6,430.5 483.7,430.5 476.8,430.5 470.9,430.5 466.0,430.5 462.1,430.5 459.1,430.5 457.1,430.5 456.2,430.5 456.2,430.5 457.1,430.5 459.1,430.5 462.1,430.5 466.0,430.5 470.9,430.5 476.8,430.5 483.7,430.5 489.7,430.5 494.6,430.5 498.5,430.5 501.5,430.5 503.4,430.5 504.4,430.5 504.4,430.5 503.4,430.5 501.5,430.5 498.5,430.5 494.6,430.5 489.7,430.5 485.7,430.5 482.8,430.5 480.8,430.5 479.8,430.5 479.8,430.5 480.8,430.5 482.8,430.5 485.7,430.5 487.7,430.5 490.6,429.6 492.6,427.6 493.6,424.6 493.6,422.7 492.6,421.7 492.6,421.7 492.6,422.7 491.6,424.6 489.7,427.6 486.7,431.5 482.8,436.5 477.8,442.4 471.9,449.3 466.0,457.1 461.1,466.0 457.1,475.9 454.2,486.7 452.2,498.5 451.2,511.3 451.2,525.1 452.2,539.9 454.2,553.7 457.1,566.5 461.1,578.3 466.0,589.2 470.0,599.0 472.9,607.9 474.9,615.8 475.9,622.7 475.9,628.6 474.9,633.5 472.9,637.4 470.0,640.4 466.0,642.4 463.1,643.3 461.1,643.3 460.1,642.4 460.1,640.4 461.1,637.4 463.1,633.5 466.0,628.6 468.0,622.7 469.0,615.8 469.0,607.9 468.0,599.0 466.0,589.2 465.0,578.3 465.0,566.5 466.0,553.7 466.0,541.9 466.0,531.0 466.0,521.2 466.0,512.3 466.0,504.4 466.0,497.5 466.0,491.6 466.0,486.7 466.0,482.8 466.0,479.8 466.0,477.8 466.0,476.8 466.0,476.8 466.0,477.8 466.0,479.8 466.0,482.8 466.0,486.7 466.0,491.6 466.0,497.5 466.0,504.4 466.0,512.3 466.0,521.2 466.0,531.0 466.0,541.9 466.0,551.7 466.0,560.6 466.0,568.5 466.0,575.4 466.0,581.3 466.0,586.2 466.0,590.1 466.0,593.1 466.0,595.1 466.0,596.1 466.0,596.1 466.0,595.1 466.0,593.1 466.0,590.1 466.0,586.2 466.0,581.3 466.0,575.4 466.0,568.5 466.0,560.6 466.0,551.7 466.0,542.9 465.0,535.0 463.1,528.1 460.1,522.2 456.2,517.2 451.2,513.3 445.3,510.3 438.4,508.4 430.5,507.4 421.7,507.4 413.8,508.4 406.9,510.3 401.0,513.3 396.1,517.2 392.1,522.2 389.2,528.1 387.2,535.0 386.2,542.9 386.2,551.7 387.2,561.6 389.2,572.4 392.1,582.3 396.1,591.1 401.0,599.0 406.9,605.9 413.8,611.8 419.7,616.7 424.6,620.7 428.6,623.6 431.5,625.6 433.5,626.6 434.5,626.6 434.5,625.6 433.5,623.6 431.5,620.7 428.6,616.7 424.6,611.8 419.7,605.9 415.8,599.0 412.8,591.1 410.8,582.3 409.9,574.4 409.9,567.5 410.8,561.6 412.8,556.7 415.8,552.7 418.7,549.8 420.7,547.8 421.7,546.8 421.7,546.8 420.7,547.8 418.7,549.8 417.7,552.7 417.7,556.7 418.7,561.6 418.7,567.5 418.7,574.4 418.7,580.3 417.7,585.2 415.8,589.2 412.8,592.1 408.9,594.1 405.9,595.1 403.9,595.1 403.0,594.1 403.0,592.1 403.9,589.2 405.9,585.2 407.9,580.3 408.9,574.4 408.9,567.5 407.9,561.6 407.9,556.7 407.9,552.7 407.9,549.8 407.9,547.8 407.9,546.8 407.9,546.8 407.9,547.8 407.9,549.8 407.9,552.7 407.9,556.7 407.9,561.6 407.9,566.5 408.9,570.4 410.8,573.4 413.8,575.4 417.7,576.4 422.7,576.4 428.6,575.4 435.5,573.4 443.3,570.4 452.2,566.5 462.1,561.6 472.9,555.7 484.7,548.8 497.5,540.9 511.3,532.0 526.1,522.2 541.9,511.3 556.7,499.5 570.4,488.7 583.3,478.8 595.1,470.0 605.9,462.1 615.8,455.2 624.6,449.3 632.5,444.3 639.4,440.4 645.3,437.4 650.2,435.5 654.2,434.5 657.1,434.5 659.1,435.5 660.1,437.4 660.1,440.4 659.1,444.3 657.1,449.3 654.2,455.2 650.2,462.1 645.3,470.0 639.4,478.8 632.5,488.7 624.6,497.5 615.8,505.4 605.9,512.3 595.1,518.2 583.3,523.2 570.4,527.1 556.7,530.0 543.8,532.0 532.0,533.0 521.2,533.0 511.3,532.0 502.5,530.0 494.6,527.1 487.7,523.2 481.8,518.2 476.8,512.3 472.9,505.4 470.0,497.5 468.0,489.7 467.0,482.8 467.0,476.8 468.0,471.9 470.0,468.0 472.9,465.0 476.8,463.1 481.8,462.1 487.7,462.1 494.6,463.1 502.5,465.0 511.3,468.0 521.2,471.9 532.0,476.8 543.8,482.8 554.7,489.7 564.5,495.6 573.4,500.5 581.3,504.4 588.2,507.4 594.1,509.4 599.0,510.3 603.0,510.3 605.9,509.4 607.9,507.4 608.9,504.4 608.9,500.5 607.9,495.6 605.9,489.7 603.0,484.7 599.0,480.8 594.1,477.8 588.2,475.9 581.3,474.9 573.4,474.9 564.5,475.9 554.7,477.8 545.8,480.8 537.9,484.7 531.0,489.7 525.1,493.6 520.2,496.6 516.3,498.5 513.3,499.5 511.3,499.5 510.3,498.5 510.3,496.6 511.3,493.6 513.3,489.7 516.3,486.7 520.2,484.7 525.1,483.7 531.0,483.7 537.9,484.7 545.8,486.7 552.7,489.7 558.6,491.6 563.5,492.6 567.5,492.6 570.4,491.6 572.4,489.7 573.4,488.7 573.4,488.7 572.4,489.7 570.4,489.7 567.5,489.7 563.5,489.7 558.6,489.7 552.7,489.7 547.8,489.7 543.8,489.7 540.9,489.7 538.9,489.7 537.9,489.7 537.9,489.7 538.9,489.7 540.9,489.7 543.8,489.7 547.8,489.7 550.7,489.7 552.7,489.7 553.7,489.7 553.7,489.7 552.7,489.7 550.7,489.7 549.8,489.7 547.8,488.7 544.8,486.7 540.9,483.7 536.0,479.8 532.0,474.9 529.1,469.0 527.1,462.1 526.1,454.2 526.1,445.3 527.1,435.5 529.1,424.6 532.0,412.8 534.0,400.0 535.0,388.2 535.0,377.3 534.0,367.5 532.0,358.6 531.0,350.7 531.0,343.8 532.0,337.9 532.0,333.0 532.0,329.1 532.0,326.1 532.0,324.1 532.0,323.2 532.0,323.2 532.0,324.1 532.0,326.1 532.0,329.1 532.0,333.0 532.0,337.9 532.0,343.8 532.0,350.7 532.0,358.6 532.0,367.5 532.0,377.3 532.0,388.2 532.0,398.0 532.0,406.9 532.0,414.8 532.0,421.7 532.0,427.6 532.0,432.5 532.0,436.5 532.0,439.4 532.0,441.4 532.0,442.4 532.0,442.4 532.0,441.4 532.0,439.4 532.0,436.5 532.0,432.5 532.0,427.6 532.0,421.7 532.0,414.8 532.0,406.9 532.0,398.0 532.0,390.1 532.0,383.3 532.0,377.3 532.0,372.4 532.0,368.5 532.0,365.5 532.0,363.5 532.0,362.6 532.0,362.6 532.0,363.5 532.0,365.5 532.0,368.5 532.0,372.4 532.0,377.3 532.0,383.3 532.0,390.1 532.0,396.1 531.0,403.0 529.1,410.8 526.1,419.7 522.2,429.6 517.2,440.4 511.3,452.2 504.4,465.0 496.6,478.8 487.7,493.6 477.8,509.4 467.0,526.1 455.2,543.8 442.4,562.6 428.6,580.3 413.8,597.0 398.0,612.8 381.3,627.6 363.5,641.4 346.8,654.2 331.0,666.0 316.3,676.8 302.5,686.7 289.7,695.6 277.8,703.4 267.0,710.3 257.1,716.3 248.3,721.2 240.4,725.1 233.5,728.1 227.6,730.0 222.7,731.0 218.7,731.0 215.8,730.0 213.8,728.1 212.8,725.1 212.8,721.2 213.8,716.3 215.8,710.3 218.7,703.4 222.7,695.6 227.6,686.7 233.5,676.8 240.4,666.0 248.3,654.2 257.1,641.4 267.0,627.6 277.8,612.8 289.7,597.0 302.5,580.3 316.3,563.5 331.0,547.8 346.8,533.0 362.6,519.2 377.3,506.4 391.1,494.6 403.9,483.7 415.8,473.9 426.6,465.0 436.5,457.1 445.3,450.2 453.2,444.3 460.1,439.4 466.0,435.5 470.9,432.5 474.9,430.5 477.8,429.6 479.8,429.6 480.8,430.5 480.8,432.5 479.8,435.5 477.8,439.4 474.9,444.3 470.9,450.2 466.0,457.1 460.1,465.0 453.2,473.9 445.3,483.7 436.5,494.6 426.6,506.4 415.8,519.2 403.9,533.0 391.1,547.8 377.3,563.5 362.6,578.3 348.8,592.1 336.0,604.9 324.1,616.7 313.3,627.6 303.4,637.4 294.6,646.3 286.7,654.2 279.8,661.1 273.9,667.0 269.0,671.9 265.0,675.9 262.1,678.8 260.1,680.8 259.1,681.8 259.1,681.8 260.1,680.8 262.1,678.8 265.0,675.9 269.0,671.9 273.9,667.0 279.8,661.1 286.7,654.2 294.6,646.3 303.4,637.4 313.3,627.6 324.1,616.7 336.0,604.9 348.8,592.1 362.6,578.3 375.4,563.5 387.2,549.8 398.0,536.9 407.9,525.1 416.7,514.3 424.6,504.4 431.5,495.6 437.4,487.7 442.4,480.8 446.3,474.9 449.3,470.0 451.2,466.0 452.2,463.1 452.2,461.1 451.2,460.1 449.3,460.1 446.3,461.1 442.4,463.1 437.4,466.0 431.5,470.0 424.6,474.9 416.7,480.8 407.9,487.7 398.0,495.6 387.2,504.4 375.4,514.3 362.6,525.1 350.7,536.9 339.9,549.8 330.0,563.5 321.2,576.4 313.3,588.2 306.4,599.0 300.5,608.9 295.6,617.7 291.6,625.6 288.7,632.5 286.7,638.4 285.7,643.3 285.7,647.3 286.7,650.2 288.7,652.2 291.6,653.2 295.6,653.2 300.5,652.2 306.4,650.2 313.3,647.3 321.2,643.3 330.0,638.4 339.9,632.5 350.7,625.6 362.6,617.7 373.4,608.9 383.3,599.0 392.1,588.2 400.0,576.4 406.9,563.5 412.8,551.7 417.7,540.9 421.7,531.0 424.6,522.2 426.6,514.3 427.6,507.4 427.6,501.5 426.6,496.6 424.6,492.6 421.7,489.7 417.7,487.7 412.8,486.7 406.9,486.7 400.0,487.7 392.1,489.7 383.3,492.6 373.4,496.6 362.6,501.5 352.7,507.4 343.8,514.3 336.0,522.2 329.1,531.0 323.2,540.9 318.2,551.7 314.3,563.5 311.3,574.4 309.4,584.2 308.4,593.1 308.4,601.0 309.4,607.9 311.3,613.8 314.3,618.7 318.2,622.7 323.2,625.6 329.1,627.6 336.0,628.6 343.8,628.6 352.7,627.6 362.6,625.6 371.4,622.7 379.3,618.7 386.2,613.8 392.1,607.9 397.0,601.0 401.0,593.1 403.9,584.2 405.9,574.4 406.9,563.5 406.9,553.7 405.9,544.8 403.9,536.9 401.0,530.0 397.0,524.1 392.1,519.2 386.2,515.3 379.3,512.3 371.4,510.3 362.6,509.4 354.7,509.4 347.8,510.3 341.9,512.3 336.9,515.3 333.0,519.2 330.0,524.1 328.1,530.0 327.1,536.9 327.1,544.8 328.1,553.7 330.0,563.5 333.0,572.4 336.9,580.3 341.9,587.2 347.8,593.1 354.7,598.0 362.6,602.0 369.5,604.9 375.4,606.9 380.3,607.9 384.2,607.9 387.2,606.9 389.2,604.9 390.1,602.0 390.1,598.0 389.2,593.1 387.2,587.2 384.2,580.3 380.3,572.4 375.4,563.5 369.5,555.7 362.6,548.8 356.7,542.9 351.7,537.9 347.8,534.0 344.8,531.0 342.9,529.1 341.9,528.1 341.9,528.1 342.9,529.1 344.8,531.0 347.8,534.0 351.7,537.9 356.7,542.9 362.6,548.8 367.5,555.7 371.4,563.5 374.4,570.4 376.4,576.4 377.3,581.3 377.3,585.2 376.4,588.2 374.4,590.1 371.4,591.1 367.5,591.1 362.6,590.1 358.6,588.2 355.7,585.2 353.7,581.3 352.7,576.4 352.7,570.4 353.7,563.5 355.7,557.6 358.6,552.7 362.6,548.8 365.5,545.8 367.5,543.8 368.5,542.9 368.5,542.9 367.5,543.8 365.5,545.8 362.6,548.8 360.6,552.7 359.6,557.6 359.6,563.5 360.6,568.5 362.6,572.4 363.5,575.4 363.5,577.3 362.6,578.3 362.6,578.3 362.6,577.3 362.6,575.4 362.6,572.4 362.6,568.5 362.6,563.5 363.5,557.6 365.5,550.7 368.5,542.9 372.4,534.0 377.3,524.1 383.3,513.3 390.1,501.5 398.0,488.7 406.9,474.9 416.7,460.1 427.6,444.3 437.4,429.6 446.3,415.8 454.2,403.0 461.1,391.1 467.0,380.3 471.9,370.4 475.9,361.6 478.8,353.7 480.8,346.8 481.8,340.9 481.8,336.0 480.8,332.0 478.8,329.1 475.9,327.1 471.9,326.1 467.0,326.1 461.1,327.1 454.2,329.1 446.3,332.0 437.4,336.0 429.6,340.9 422.7,346.8 416.7,353.7 411.8,361.6 407.9,370.4 404.9,380.3 403.0,391.1 402.0,403.0 402.0,415.8 403.0,429.6 404.9,442.4 407.9,454.2 411.8,465.0 416.7,474.9 422.7,483.7 429.6,491.6 435.5,498.5 440.4,504.4 444.3,509.4 447.3,513.3 449.3,516.3 450.2,518.2 450.2,519.2 449.3,519.2 447.3,518.2 444.3,516.3 440.4,513.3 435.5,509.4 430.5,504.4 426.6,498.5 423.6,491.6 421.7,483.7 420.7,474.9 420.7,465.0 421.7,454.2 423.6,442.4 426.6,431.5 430.5,421.7 433.5,412.8 435.5,404.9 436.5,398.0 436.5,392.1 435.5,387.2 433.5,383.3 430.5,380.3 428.6,378.3 427.6,377.3 427.6,377.3 428.6,378.3 430.5,380.3 431.5,383.3 431.5,387.2 430.5,392.1 430.5,398.0 430.5,404.9 430.5,412.8 430.5,421.7 430.5,431.5 430.5,440.4 430.5,448.3 430.5,455.2 430.5,461.1 430.5,466.0 430.5,470.0 430.5,472.9 430.5,474.9 430.5,475.9 430.5,475.9 430.5,474.9 430.5,472.9 430.5,470.0 430.5,466.0 430.5,461.1 430.5,455.2 430.5,448.3 430.5,440.4 430.5,433.5 430.5,427.6 430.5,422.7 430.5,418.7 430.5,415.8 430.5,413.8 430.5,412.8 430.5,412.8 430.5,413.8 430.5,415.8 430.5,418.7 430.5,422.7 430.5,427.6 430.5,433.5 430.5,438.4 430.5,442.4 430.5,445.3 430.5,447.3 430.5,448.3 430.5,448.3 430.5,447.3 430.5,445.3 430.5,442.4 430.5,438.4 430.5,434.5 429.6,431.5 427.6,429.6 424.6,428.6 420.7,428.6 415.8,429.6 409.9,431.5 403.0,434.5 395.1,438.4 386.2,443.3 376.4,449.3 367.5,456.2 359.6,464.0 352.7,472.9 346.8,482.8 341.9,493.6 337.9,505.4 335.0,518.2 333.0,532.0 332.0,546.8 332.0,562.6 333.0,577.3 335.0,591.1 337.9,603.9 341.9,615.8 346.8,626.6 352.7,636.5 359.6,645.3 367.5,653.2 374.4,660.1 380.3,666.0 385.2,670.9 389.2,674.9 392.1,677.8 394.1,679.8 395.1,680.8 395.1,680.8 394.1,679.8 392.1,677.8 389.2,674.9 385.2,670.9 380.3,666.0 374.4,660.1 367.5,653.2 361.6,645.3 356.7,636.5 352.7,626.6 349.8,615.8 347.8,603.9 346.8,591.1 346.8,577.3 347.8,564.5 349.8,552.7 352.7,541.9 356.7,532.0 361.6,523.2 367.5,515.3 372.4,508.4 376.4,502.5 379.3,497.5 381.3,493.6 382.3,490.6 382.3,488.7 381.3,487.7 379.3,487.7 376.4,488.7 372.4,490.6 367.5,493.6 363.5,497.5 360.6,502.5 358.6,508.4 357.6,515.3 357.6,523.2 358.6,532.0 360.6,541.9 363.5,552.7 367.5,564.5 370.4,575.4 372.4,585.2 373.4,594.1 373.4,602.0 372.4,608.9 370.4,614.8 367.5,619.7 365.5,623.6 364.5,626.6 364.5,628.6 365.5,629.6 367.5,629.6 368.5,628.6 368.5,626.6 367.5,623.6 367.5,619.7 367.5,614.8 367.5,608.9 367.5,602.0 367.5,594.1 367.5,585.2 367.5,575.4 368.5,564.5 370.4,552.7 373.4,539.9 377.3,526.1 382.3,511.3 388.2,495.6 395.1,478.8 403.0,461.1 411.8,444.3 421.7,428.6 432.5,413.8 444.3,400.0 457.1,387.2 470.9,375.4 485.7,364.5 501.5,354.7 518.2,345.8 534.0,337.9 548.8,331.0 562.6,325.1 575.4,320.2 587.2,316.3 598.0,313.3 607.9,311.3 616.7,310.3 624.6,310.3 631.5,311.3 637.4,313.3 642.4,316.3 646.3,320.2 649.3,325.1 651.2,331.0 652.2,337.9 652.2,345.8 651.2,354.7 649.3,364.5 646.3,375.4 642.4,387.2 637.4,400.0 631.5,413.8 624.6,428.6 616.7,444.3 607.9,461.1 598.0,476.8 587.2,491.6 575.4,505.4 562.6,518.2 548.8,530.0 534.0,540.9 520.2,550.7 507.4,559.6 495.6,567.5 484.7,574.4 474.9,580.3 466.0,585.2 458.1,589.2 451.2,592.1 445.3,594.1 440.4,595.1 436.5,595.1 433.5,594.1 431.5,592.1 430.5,589.2 430.5,585.2 431.5,580.3 433.5,574.4 436.5,567.5 440.4,559.6 445.3,550.7 451.2,540.9 458.1,530.0 466.0,518.2 474.9,505.4 484.7,491.6 495.6,476.8 507.4,461.1 520.2,446.3 532.0,432.5 542.9,419.7 552.7,407.9 561.6,397.0 569.5,387.2 576.4,378.3 582.3,370.4 587.2,363.5 591.1,357.6 594.1,352.7 596.1,348.8 597.0,345.8 597.0,343.8 596.1,342.9 594.1,342.9 591.1,343.8 587.2,345.8 582.3,348.8 576.4,352.7 569.5,357.6 561.6,363.5 552.7,370.4 542.9,378.3 532.0,387.2 522.2,397.0 513.3,407.9 505.4,419.7 498.5,432.5 492.6,446.3 487.7,461.1 483.7,474.9 480.8,487.7 478.8,499.5 477.8,510.3 477.8,520.2 478.8,529.1 480.8,536.9 483.7,543.8 487.7,549.8 492.6,554.7 498.5,558.6 505.4,561.6 513.3,563.5 522.2,564.5 530.0,564.5 536.9,563.5 542.9,561.6 547.8,558.6 551.7,554.7 554.7,549.8 556.7,543.8 557.6,536.9 557.6,529.1 556.7,520.2 554.7,510.3 551.7,499.5 547.8,487.7 542.9,474.9 536.9,461.1 530.0,448.3 524.1,436.5 519.2,425.6 515.3,415.8 512.3,406.9 510.3,399.0 509.4,392.1 509.4,386.2 510.3,381.3 512.3,377.3 515.3,374.4 519.2,372.4 524.1,371.4 528.1,371.4 531.0,372.4 533.0,374.4 534.0,377.3 534.0,381.3 533.0,386.2 531.0,392.1 528.1,399.0 526.1,406.9 525.1,415.8 525.1,425.6 526.1,436.5 528.1,448.3 529.1,461.1 529.1,472.9 528.1,483.7 528.1,493.6 528.1,502.5 528.1,510.3 528.1,517.2 528.1,523.2 528.1,528.1 528.1,532.0 528.1,535.0 528.1,536.9 528.1,537.9 528.1,537.9 528.1,536.9 528.1,535.0 528.1,532.0 528.1,528.1 528.1,523.2 528.1,517.2 528.1,510.3 528.1,502.5 528.1,493.6 528.1,483.7 528.1,472.9" fill="none" stroke="red" stroke-width="7" stroke-opacity="0.5"/>
  <circle cx="528.1" cy="461.1" r="15" fill="blue" fill-opacity="0.5"/>
</svg>