<svg width="1000" height="1000" xmlns="http://www.w3.org/2000/svg">
  <rect x="200" y="200" width="600" height="600" fill="white" stroke="gray" stroke-width="5" />
  <circle cx="511.6" cy="306.6" r="7" fill="black" />
  <circle cx="323.0" cy="357.2" r="7" fill="black" />
  <circle cx="492.5" cy="302.5" r="7" fill="black" />
  <circle cx="492.5" cy="443.3" r="7" fill="black" />
  <circle cx="318.9" cy="385.9" r="7" fill="black" />
  <circle cx="470.6" cy="497.9" r="7" fill="black" />
  <circle cx="414.6" cy="435.1" r="7" fill="black" />
  <circle cx="405.0" cy="306.6" r="7" fill="black" />
  <circle cx="417.3" cy="533.5" r="7" fill="black" />
  <circle cx="391.3" cy="482.9" r="7" fill="black" />
  <circle cx="383.1" cy="504.8" r="7" fill="black" />
  <circle cx="338.0" cy="338.0" r="7" fill="black" />
  <circle cx="344.9" cy="413.2" r="7" fill="black" />
  <circle cx="451.5" cy="380.4" r="7" fill="black" />
  <circle cx="364.0" cy="288.8" r="7" fill="black" />
  <circle cx="458.3" cy="452.8" r="7" fill="black" />
  <circle cx="463.8" cy="394.1" r="7" fill="black" />
  <circle cx="560.8" cy="353.1" r="7" fill="black" />
  <circle cx="422.8" cy="439.2" r="7" fill="black" />
  <circle cx="359.9" cy="532.1" r="7" fill="black" />
  <circle cx="563.6" cy="328.5" r="7" fill="black" />
  <circle cx="515.7" cy="496.6" r="7" fill="black" />
  <circle cx="388.6" cy="305.2" r="7" fill="black" />
  <circle cx="549.9" cy="410.5" r="7" fill="black" />
  <circle cx="582.7" cy="374.9" r="7" fill="black" />
  <circle cx="329.8" cy="373.6" r="7" fill="black" />
  <circle cx="467.9" cy="392.7" r="7" fill="black" />
  <circle cx="584.1" cy="413.2" r="7" fill="black" />
  <circle cx="443.3" cy="428.2" r="7" fill="black" />
  <circle cx="421.4" cy="332.6" r="7" fill="black" />
  <circle cx="467.9" cy="495.2" r="7" fill="black" />
  <circle cx="405.0" cy="290.2" r="7" fill="black" />
  <circle cx="446.0" cy="400.9" r="7" fill="black" />
  <circle cx="327.1" cy="458.3" r="7" fill="black" />
  <circle cx="410.5" cy="288.8" r="7" fill="black" />
  <circle cx="454.2" cy="333.9" r="7" fill="black" />
  <circle cx="566.3" cy="437.8" r="7" fill="black" />
  <circle cx="377.7" cy="361.3" r="7" fill="black" />
  <circle cx="428.2" cy="390.0" r="7" fill="black" />
  <circle cx="461.0" cy="489.7" r="7" fill="black" />
  <circle cx="459.7" cy="346.2" r="7" fill="black" />
  <circle cx="563.6" cy="364.0" r="7" fill="black" />
  <circle cx="343.5" cy="539.0" r="7" fill="black" />
  <circle cx="540.3" cy="327.1" r="7" fill="black" />
  <circle cx="500.7" cy="440.5" r="7" fill="black" />
  <circle cx="320.3" cy="318.9" r="7" fill="black" />
  <circle cx="590.9" cy="500.7" r="7" fill="black" />
  <circle cx="444.6" cy="428.2" r="7" fill="black" />
  <circle cx="452.8" cy="413.2" r="7" fill="black" />
  <circle cx="338.0" cy="513.0" r="7" fill="black" />
  <circle cx="365.4" cy="411.8" r="7" fill="black" />
  <circle cx="354.4" cy="504.8" r="7" fill="black" />
  <circle cx="511.6" cy="529.4" r="7" fill="black" />
  <circle cx="484.3" cy="402.3" r="7" fill="black" />
  <circle cx="385.9" cy="552.6" r="7" fill="black" />
  <circle cx="329.8" cy="305.2" r="7" fill="black" />
  <circle cx="379.0" cy="472.0" r="7" fill="black" />
  <circle cx="558.1" cy="537.6" r="7" fill="black" />
  <circle cx="570.4" cy="472.0" r="7" fill="black" />
  <circle cx="504.8" cy="392.7" r="7" fill="black" />
  <circle cx="365.4" cy="338.0" r="7" fill="black" />
  <circle cx="573.1" cy="310.7" r="7" fill="black" />
  <circle cx="357.2" cy="291.6" r="7" fill="black" />
  <circle cx="534.9" cy="536.2" r="7" fill="black" />
  <circle cx="507.5" cy="451.5" r="7" fill="black" />
  <circle cx="396.8" cy="355.8" r="7" fill="black" />
  <circle cx="534.9" cy="443.3" r="7" fill="black" />
  <circle cx="384.5" cy="364.0" r="7" fill="black" />
  <circle cx="473.3" cy="309.3" r="7" fill="black" />
  <circle cx="420.0" cy="362.6" r="7" fill="black" />
  <circle cx="381.8" cy="474.7" r="7" fill="black" />
  <circle cx="543.1" cy="361.3" r="7" fill="black" />
  <circle cx="484.3" cy="537.6" r="7" fill="black" />
  <circle cx="558.1" cy="379.0" r="7" fill="black" />
  <circle cx="573.1" cy="297.0" r="7" fill="black" />
  <circle cx="492.5" cy="474.7" r="7" fill="black" />
  <circle cx="528.0" cy="359.9" r="7" fill="black" />
  <circle cx="555.4" cy="317.5" r="7" fill="black" />
  <circle cx="507.5" cy="298.4" r="7" fill="black" />
  <circle cx="588.2" cy="357.2" r="7" fill="black" />
  <circle cx="446.0" cy="459.7" r="7" fill="black" />
  <circle cx="384.5" cy="339.4" r="7" fill="black" />
  <circle cx="324.4" cy="310.7" r="7" fill="black" />
  <circle cx="547.2" cy="336.7" r="7" fill="black" />
  <circle cx="431.0" cy="452.8" r="7" fill="black" />
  <circle cx="415.9" cy="526.7" r="7" fill="black" />
  <circle cx="398.2" cy="374.9" r="7" fill="black" />
  <circle cx="472.0" cy="469.2" r="7" fill="black" />
  <circle cx="499.3" cy="328.5" r="7" fill="black" />
  <circle cx="534.9" cy="472.0" r="7" fill="black" />
  <circle cx="537.6" cy="403.6" r="7" fill="black" />
  <circle cx="489.7" cy="431.0" r="7" fill="black" />
  <circle cx="580.0" cy="467.9" r="7" fill="black" />
  <circle cx="474.7" cy="409.1" r="7" fill="black" />
  <circle cx="589.5" cy="376.3" r="7" fill="black" />
  <circle cx="566.3" cy="488.4" r="7" fill="black" />
  <circle cx="422.8" cy="458.3" r="7" fill="black" />
  <circle cx="435.1" cy="398.2" r="7" fill="black" />
  <circle cx="480.2" cy="369.5" r="7" fill="black" />
  <circle cx="525.3" cy="308.0" r="7" fill="black" />
  <circle cx="398.2" cy="482.9" r="7" fill="black" />
  <circle cx="493.8" cy="299.8" r="7" fill="black" />
  <circle cx="504.8" cy="474.7" r="7" fill="black" />
  <circle cx="339.4" cy="298.4" r="7" fill="black" />
  <circle cx="526.7" cy="556.7" r="7" fill="black" />
  <circle cx="444.6" cy="455.6" r="7" fill="black" />
  <circle cx="353.1" cy="301.1" r="7" fill="black" />
  <circle cx="437.8" cy="398.2" r="7" fill="black" />
  <circle cx="481.5" cy="521.2" r="7" fill="black" />
  <circle cx="318.9" cy="381.8" r="7" fill="black" />
  <circle cx="328.5" cy="444.6" r="7" fill="black" />
  <circle cx="487.0" cy="503.4" r="7" fill="black" />
  <circle cx="558.1" cy="318.9" r="7" fill="black" />
  <circle cx="400.9" cy="452.8" r="7" fill="black" />
  <circle cx="469.2" cy="515.7" r="7" fill="black" />
  <circle cx="361.3" cy="484.3" r="7" fill="black" />
  <circle cx="585.4" cy="491.1" r="7" fill="black" />
  <circle cx="459.7" cy="480.2" r="7" fill="black" />
  <circle cx="513.0" cy="342.1" r="7" fill="black" />
  <circle cx="547.2" cy="376.3" r="7" fill="black" />
  <circle cx="381.8" cy="426.9" r="7" fill="black" />
  <circle cx="338.0" cy="455.6" r="7" fill="black" />
  <circle cx="350.3" cy="333.9" r="7" fill="black" />
  <circle cx="488.4" cy="493.8" r="7" fill="black" />
  <circle cx="575.9" cy="355.8" r="7" fill="black" />
  <circle cx="364.0" cy="331.2" r="7" fill="black" />
  <circle cx="534.9" cy="447.4" r="7" fill="black" />
  <circle cx="418.7" cy="440.5" r="7" fill="black" />
  <circle cx="566.3" cy="523.9" r="7" fill="black" />
  <circle cx="589.5" cy="336.7" r="7" fill="black" />
  <circle cx="496.6" cy="317.5" r="7" fill="black" />
  <circle cx="574.5" cy="346.2" r="7" fill="black" />
  <circle cx="567.7" cy="333.9" r="7" fill="black" />
  <circle cx="364.0" cy="431.0" r="7" fill="black" />
  <circle cx="424.1" cy="418.7" r="7" fill="black" />
  <circle cx="485.6" cy="359.9" r="7" fill="black" />
  <circle cx="374.9" cy="417.3" r="7" fill="black" />
  <circle cx="329.8" cy="390.0" r="7" fill="black" />
  <circle cx="469.2" cy="331.2" r="7" fill="black" />
  <circle cx="461.0" cy="517.1" r="7" fill="black" />
  <circle cx="403.6" cy="299.8" r="7" fill="black" />
  <circle cx="403.6" cy="338.0" r="7" fill="black" />
  <circle cx="580.0" cy="500.7" r="7" fill="black" />
  <circle cx="536.2" cy="392.7" r="7" fill="black" />
  <circle cx="530.8" cy="350.3" r="7" fill="black" />
  <circle cx="320.3" cy="523.9" r="7" fill="black" />
  <circle cx="440.5" cy="552.6" r="7" fill="black" />
  <circle cx="452.8" cy="515.7" r="7" fill="black" />
  <circle cx="558.1" cy="336.7" r="7" fill="black" />
  <circle cx="329.8" cy="323.0" r="7" fill="black" />
  <circle cx="502.1" cy="370.8" r="7" fill="black" />
  <circle cx="425.5" cy="283.4" r="7" fill="black" />
  <circle cx="563.6" cy="540.3" r="7" fill="black" />
  <circle cx="508.9" cy="411.8" r="7" fill="black" />
  <circle cx="323.0" cy="339.4" r="7" fill="black" />
  <circle cx="450.1" cy="294.3" r="7" fill="black" />
  <circle cx="379.0" cy="294.3" r="7" fill="black" />
  <circle cx="327.1" cy="362.6" r="7" fill="black" />
  <circle cx="437.8" cy="351.7" r="7" fill="black" />
  <circle cx="436.4" cy="495.2" r="7" fill="black" />
  <circle cx="413.2" cy="317.5" r="7" fill="black" />
  <circle cx="466.5" cy="286.1" r="7" fill="black" />
  <circle cx="376.3" cy="458.3" r="7" fill="black" />
  <circle cx="431.0" cy="305.2" r="7" fill="black" />
  <circle cx="452.8" cy="431.0" r="7" fill="black" />
  <circle cx="466.5" cy="299.8" r="7" fill="black" />
  <circle cx="519.8" cy="533.5" r="7" fill="black" />
  <circle cx="482.9" cy="392.7" r="7" fill="black" />
  <circle cx="350.3" cy="525.3" r="7" fill="black" />
  <circle cx="485.6" cy="302.5" r="7" fill="black" />
  <circle cx="517.1" cy="291.6" r="7" fill="black" />
  <circle cx="534.9" cy="410.5" r="7" fill="black" />
  <circle cx="502.1" cy="552.6" r="7" fill="black" />
  <circle cx="444.6" cy="481.5" r="7" fill="black" />
  <circle cx="436.4" cy="518.5" r="7" fill="black" />
  <circle cx="355.8" cy="323.0" r="7" fill="black" />
  <circle cx="497.9" cy="377.7" r="7" fill="black" />
  <circle cx="336.7" cy="510.3" r="7" fill="black" />
  <circle cx="473.3" cy="383.1" r="7" fill="black" />
  <circle cx="377.7" cy="437.8" r="7" fill="black" />
  <circle cx="331.2" cy="489.7" r="7" fill="black" />
  <circle cx="519.8" cy="308.0" r="7" fill="black" />
  <circle cx="581.3" cy="380.4" r="7" fill="black" />
  <circle cx="414.6" cy="388.6" r="7" fill="black" />
  <circle cx="342.1" cy="365.4" r="7" fill="black" />
  <circle cx="399.5" cy="522.6" r="7" fill="black" />
  <circle cx="441.9" cy="492.5" r="7" fill="black" />
  <circle cx="368.1" cy="323.0" r="7" fill="black" />
  <circle cx="362.6" cy="379.0" r="7" fill="black" />
  <circle cx="536.2" cy="388.6" r="7" fill="black" />
  <circle cx="551.3" cy="406.4" r="7" fill="black" />
  <circle cx="581.3" cy="414.6" r="7" fill="black" />
  <circle cx="343.5" cy="308.0" r="7" fill="black" />
  <circle cx="437.8" cy="485.6" r="7" fill="black" />
  <circle cx="582.7" cy="329.8" r="7" fill="black" />
  <circle cx="361.3" cy="316.2" r="7" fill="black" />
  <circle cx="452.8" cy="392.7" r="7" fill="black" />
  <circle cx="582.7" cy="390.0" r="7" fill="black" />
  <circle cx="543.1" cy="380.4" r="7" fill="black" />
  <circle cx="441.9" cy="488.4" r="7" fill="black" />
  <circle cx="581.3" cy="295.7" r="7" fill="black" />
  <circle cx="562.2" cy="306.6" r="7" fill="black" />
  <circle cx="364.0" cy="458.3" r="7" fill="black" />
  <circle cx="489.7" cy="481.5" r="7" fill="black" />
  <circle cx="365.4" cy="383.1" r="7" fill="black" />
  <circle cx="325.7" cy="407.7" r="7" fill="black" />
  <circle cx="500.7" cy="388.6" r="7" fill="black" />
  <circle cx="331.2" cy="500.7" r="7" fill="black" />
  <circle cx="439.2" cy="470.6" r="7" fill="black" />
  <circle cx="585.4" cy="359.9" r="7" fill="black" />
  <circle cx="566.3" cy="318.9" r="7" fill="black" />
  <circle cx="469.2" cy="504.8" r="7" fill="black" />
  <circle cx="474.7" cy="305.2" r="7" fill="black" />
  <circle cx="476.1" cy="409.1" r="7" fill="black" />
  <circle cx="415.9" cy="403.6" r="7" fill="black" />
  <circle cx="588.2" cy="287.5" r="7" fill="black" />
  <circle cx="473.3" cy="425.5" r="7" fill="black" />
  <circle cx="452.8" cy="286.1" r="7" fill="black" />
  <circle cx="459.7" cy="513.0" r="7" fill="black" />
  <circle cx="340.8" cy="444.6" r="7" fill="black" />
  <circle cx="493.8" cy="321.6" r="7" fill="black" />
  <circle cx="379.0" cy="521.2" r="7" fill="black" />
  <circle cx="519.8" cy="318.9" r="7" fill="black" />
  <circle cx="534.9" cy="469.2" r="7" fill="black" />
  <circle cx="406.4" cy="379.0" r="7" fill="black" />
  <circle cx="570.4" cy="548.5" r="7" fill="black" />
  <circle cx="533.5" cy="288.8" r="7" fill="black" />
  <circle cx="342.1" cy="398.2" r="7" fill="black" />
  <circle cx="519.8" cy="338.0" r="7" fill="black" />
  <circle cx="387.2" cy="462.4" r="7" fill="black" />
  <circle cx="385.9" cy="381.8" r="7" fill="black" />
  <circle cx="353.1" cy="537.6" r="7" fill="black" />
  <circle cx="502.1" cy="410.5" r="7" fill="black" />
  <circle cx="539.0" cy="476.1" r="7" fill="black" />
  <circle cx="385.9" cy="346.2" r="7" fill="black" />
  <circle cx="344.9" cy="533.5" r="7" fill="black" />
  <circle cx="499.3" cy="392.7" r="7" fill="black" />
  <circle cx="355.8" cy="384.5" r="7" fill="black" />
  <circle cx="566.3" cy="329.8" r="7" fill="black" />
  <circle cx="361.3" cy="314.8" r="7" fill="black" />
  <circle cx="487.0" cy="437.8" r="7" fill="black" />
  <circle cx="357.2" cy="528.0" r="7" fill="black" />
  <circle cx="368.1" cy="292.9" r="7" fill="black" />
  <circle cx="514.4" cy="343.5" r="7" fill="black" />
  <circle cx="391.3" cy="340.8" r="7" fill="black" />
  <circle cx="426.9" cy="513.0" r="7" fill="black" />
  <circle cx="584.1" cy="323.0" r="7" fill="black" />
  <circle cx="351.7" cy="328.5" r="7" fill="black" />
  <circle cx="450.1" cy="551.3" r="7" fill="black" />
  <circle cx="415.9" cy="533.5" r="7" fill="black" />
  <circle cx="522.6" cy="489.7" r="7" fill="black" />
  <circle cx="450.1" cy="406.4" r="7" fill="black" />
  <circle cx="521.2" cy="405.0" r="7" fill="black" />
  <circle cx="584.1" cy="544.4" r="7" fill="black" />
  <circle cx="567.7" cy="294.3" r="7" fill="black" />
  <circle cx="487.0" cy="366.7" r="7" fill="black" />
  <circle cx="455.6" cy="499.3" r="7" fill="black" />
  <circle cx="519.8" cy="291.6" r="7" fill="black" />
  <circle cx="571.8" cy="523.9" r="7" fill="black" />
  <circle cx="437.8" cy="342.1" r="7" fill="black" />
  <circle cx="528.0" cy="487.0" r="7" fill="black" />
  <circle cx="519.8" cy="482.9" r="7" fill="black" />
  <circle cx="346.2" cy="317.5" r="7" fill="black" />
  <circle cx="409.1" cy="551.3" r="7" fill="black" />
  <circle cx="541.7" cy="342.1" r="7" fill="black" />
  <circle cx="425.5" cy="537.6" r="7" fill="black" />
  <circle cx="496.6" cy="530.8" r="7" fill="black" />
  <circle cx="481.5" cy="411.8" r="7" fill="black" />
  <circle cx="439.2" cy="503.4" r="7" fill="black" />
  <circle cx="492.5" cy="324.4" r="7" fill="black" />
  <circle cx="437.8" cy="411.8" r="7" fill="black" />
  <circle cx="395.4" cy="333.9" r="7" fill="black" />
  <circle cx="574.5" cy="519.8" r="7" fill="black" />
  <circle cx="515.7" cy="433.7" r="7" fill="black" />
  <circle cx="365.4" cy="424.1" r="7" fill="black" />
  <circle cx="387.2" cy="480.2" r="7" fill="black" />
  <circle cx="433.7" cy="422.8" r="7" fill="black" />
  <circle cx="543.1" cy="394.1" r="7" fill="black" />
  <circle cx="335.3" cy="425.5" r="7" fill="black" />
  <circle cx="350.3" cy="523.9" r="7" fill="black" />
  <circle cx="409.1" cy="500.7" r="7" fill="black" />
  <circle cx="517.1" cy="551.3" r="7" fill="black" />
  <circle cx="543.1" cy="522.6" r="7" fill="black" />
  <circle cx="489.7" cy="376.3" r="7" fill="black" />
  <circle cx="321.6" cy="424.1" r="7" fill="black" />
  <circle cx="503.4" cy="530.8" r="7" fill="black" />
  <circle cx="450.1" cy="502.1" r="7" fill="black" />
  <circle cx="499.3" cy="339.4" r="7" fill="black" />
  <circle cx="456.9" cy="354.4" r="7" fill="black" />
  <circle cx="586.8" cy="309.3" r="7" fill="black" />
  <circle cx="467.9" cy="499.3" r="7" fill="black" />
  <circle cx="532.1" cy="394.1" r="7" fill="black" />
  <circle cx="418.7" cy="297.0" r="7" fill="black" />
  <circle cx="333.9" cy="492.5" r="7" fill="black" />
  <circle cx="374.9" cy="472.0" r="7" fill="black" />
  <circle cx="510.3" cy="340.8" r="7" fill="black" />
  <circle cx="549.9" cy="474.7" r="7" fill="black" />
  <circle cx="327.1" cy="424.1" r="7" fill="black" />
  <circle cx="469.2" cy="395.4" r="7" fill="black" />
  <circle cx="325.7" cy="522.6" r="7" fill="black" />
  <circle cx="590.9" cy="547.2" r="7" fill="black" />
  <circle cx="344.9" cy="314.8" r="7" fill="black" />
  <circle cx="340.8" cy="328.5" r="7" fill="black" />
  <circle cx="582.7" cy="372.2" r="7" fill="black" />
  <circle cx="429.6" cy="466.5" r="7" fill="black" />
  <circle cx="508.9" cy="303.9" r="7" fill="black" />
  <circle cx="555.4" cy="493.8" r="7" fill="black" />
  <circle cx="372.2" cy="414.6" r="7" fill="black" />
  <circle cx="581.3" cy="491.1" r="7" fill="black" />
  <circle cx="560.8" cy="554.0" r="7" fill="black" />
  <circle cx="582.7" cy="496.6" r="7" fill="black" />
  <circle cx="541.7" cy="335.3" r="7" fill="black" />
  <circle cx="469.2" cy="455.6" r="7" fill="black" />
  <circle cx="456.9" cy="313.4" r="7" fill="black" />
  <circle cx="578.6" cy="493.8" r="7" fill="black" />
  <circle cx="523.9" cy="452.8" r="7" fill="black" />
  <circle cx="362.6" cy="506.2" r="7" fill="black" />
  <circle cx="526.7" cy="472.0" r="7" fill="black" />
  <circle cx="589.5" cy="422.8" r="7" fill="black" />
  <circle cx="515.7" cy="431.0" r="7" fill="black" />
  <circle cx="469.2" cy="454.2" r="7" fill="black" />
  <circle cx="543.1" cy="472.0" r="7" fill="black" />
  <circle cx="428.2" cy="290.2" r="7" fill="black" />
  <circle cx="462.4" cy="333.9" r="7" fill="black" />
  <circle cx="582.7" cy="421.4" r="7" fill="black" />
  <circle cx="467.9" cy="488.4" r="7" fill="black" />
  <circle cx="421.4" cy="339.4" r="7" fill="black" />
  <circle cx="528.0" cy="528.0" r="7" fill="black" />
  <circle cx="466.5" cy="439.2" r="7" fill="black" />
  <circle cx="519.8" cy="376.3" r="7" fill="black" />
  <circle cx="474.7" cy="435.1" r="7" fill="black" />
  <circle cx="407.7" cy="392.7" r="7" fill="black" />
  <circle cx="350.3" cy="489.7" r="7" fill="black" />
  <circle cx="339.4" cy="310.7" r="7" fill="black" />
  <circle cx="530.8" cy="305.2" r="7" fill="black" />
  <circle cx="456.9" cy="331.2" r="7" fill="black" />
  <circle cx="493.8" cy="499.3" r="7" fill="black" />
  <circle cx="508.9" cy="420.0" r="7" fill="black" />
  <circle cx="324.4" cy="344.9" r="7" fill="black" />
  <circle cx="336.7" cy="549.9" r="7" fill="black" />
  <circle cx="555.4" cy="339.4" r="7" fill="black" />
  <circle cx="507.5" cy="343.5" r="7" fill="black" />
  <circle cx="429.6" cy="477.4" r="7" fill="black" />
  <circle cx="491.1" cy="496.6" r="7" fill="black" />
  <circle cx="411.8" cy="543.1" r="7" fill="black" />
  <circle cx="478.8" cy="288.8" r="7" fill="black" />
  <circle cx="488.4" cy="403.6" r="7" fill="black" />
  <circle cx="575.9" cy="383.1" r="7" fill="black" />
  <circle cx="335.3" cy="462.4" r="7" fill="black" />
  <circle cx="387.2" cy="398.2" r="7" fill="black" />
  <circle cx="349.0" cy="288.8" r="7" fill="black" />
  <circle cx="485.6" cy="432.3" r="7" fill="black" />
  <circle cx="405.0" cy="429.6" r="7" fill="black" />
  <circle cx="355.8" cy="321.6" r="7" fill="black" />
  <circle cx="541.7" cy="381.8" r="7" fill="black" />
  <circle cx="343.5" cy="472.0" r="7" fill="black" />
  <circle cx="514.4" cy="491.1" r="7" fill="black" />
  <circle cx="571.8" cy="297.0" r="7" fill="black" />
  <circle cx="506.2" cy="472.0" r="7" fill="black" />
  <circle cx="376.3" cy="523.9" r="7" fill="black" />
  <circle cx="528.0" cy="461.0" r="7" fill="black" />
  <circle cx="515.7" cy="358.5" r="7" fill="black" />
  <circle cx="463.8" cy="496.6" r="7" fill="black" />
  <circle cx="500.7" cy="287.5" r="7" fill="black" />
  <circle cx="437.8" cy="377.7" r="7" fill="black" />
  <circle cx="361.3" cy="384.5" r="7" fill="black" />
  <circle cx="368.1" cy="476.1" r="7" fill="black" />
  <circle cx="447.4" cy="388.6" r="7" fill="black" />
  <circle cx="566.3" cy="519.8" r="7" fill="black" />
  <circle cx="450.1" cy="329.8" r="7" fill="black" />
  <circle cx="426.9" cy="365.4" r="7" fill="black" />
  <circle cx="559.5" cy="388.6" r="7" fill="black" />
  <circle cx="357.2" cy="541.7" r="7" fill="black" />
  <circle cx="443.3" cy="508.9" r="7" fill="black" />
  <circle cx="519.8" cy="405.0" r="7" fill="black" />
  <circle cx="323.0" cy="526.7" r="7" fill="black" />
  <circle cx="407.7" cy="321.6" r="7" fill="black" />
  <circle cx="407.7" cy="323.0" r="7" fill="black" />
  <circle cx="451.5" cy="346.2" r="7" fill="black" />
  <circle cx="409.1" cy="462.4" r="7" fill="black" />
  <circle cx="514.4" cy="323.0" r="7" fill="black" />
  <circle cx="504.8" cy="465.1" r="7" fill="black" />
  <circle cx="327.1" cy="532.1" r="7" fill="black" />
  <circle cx="344.9" cy="351.7" r="7" fill="black" />
  <circle cx="358.5" cy="323.0" r="7" fill="black" />
  <circle cx="502.1" cy="365.4" r="7" fill="black" />
  <circle cx="496.6" cy="377.7" r="7" fill="black" />
  <circle cx="431.0" cy="377.7" r="7" fill="black" />
  <circle cx="443.3" cy="462.4" r="7" fill="black" />
  <circle cx="552.6" cy="310.7" r="7" fill="black" />
  <circle cx="402.3" cy="482.9" r="7" fill="black" />
  <circle cx="528.0" cy="384.5" r="7" fill="black" />
  <circle cx="415.9" cy="359.9" r="7" fill="black" />
  <circle cx="349.0" cy="402.3" r="7" fill="black" />
  <circle cx="374.9" cy="431.0" r="7" fill="black" />
  <circle cx="332.6" cy="463.8" r="7" fill="black" />
  <circle cx="506.2" cy="353.1" r="7" fill="black" />
  <circle cx="515.7" cy="473.3" r="7" fill="black" />
  <circle cx="395.4" cy="552.6" r="7" fill="black" />
  <circle cx="476.1" cy="357.2" r="7" fill="black" />
  <circle cx="324.4" cy="414.6" r="7" fill="black" />
  <circle cx="409.1" cy="299.8" r="7" fill="black" />
  <circle cx="473.3" cy="338.0" r="7" fill="black" />
  <circle cx="447.4" cy="362.6" r="7" fill="black" />
  <circle cx="474.7" cy="443.3" r="7" fill="black" />
  <circle cx="484.3" cy="297.0" r="7" fill="black" />
  <circle cx="539.0" cy="482.9" r="7" fill="black" />
  <circle cx="425.5" cy="504.8" r="7" fill="black" />
  <circle cx="532.1" cy="425.5" r="7" fill="black" />
  <circle cx="359.9" cy="422.8" r="7" fill="black" />
  <circle cx="472.0" cy="346.2" r="7" fill="black" />
  <circle cx="503.4" cy="379.0" r="7" fill="black" />
  <circle cx="533.5" cy="508.9" r="7" fill="black" />
  <circle cx="441.9" cy="349.0" r="7" fill="black" />
  <circle cx="344.9" cy="485.6" r="7" fill="black" />
  <circle cx="439.2" cy="344.9" r="7" fill="black" />
  <circle cx="395.4" cy="292.9" r="7" fill="black" />
  <circle cx="432.3" cy="532.1" r="7" fill="black" />
  <circle cx="327.1" cy="329.8" r="7" fill="black" />
  <circle cx="590.9" cy="499.3" r="7" fill="black" />
  <circle cx="574.5" cy="284.7" r="7" fill="black" />
  <circle cx="544.4" cy="470.6" r="7" fill="black" />
  <circle cx="487.0" cy="539.0" r="7" fill="black" />
  <circle cx="409.1" cy="395.4" r="7" fill="black" />
  <circle cx="320.3" cy="310.7" r="7" fill="black" />
  <circle cx="495.2" cy="411.8" r="7" fill="black" />
  <circle cx="391.3" cy="376.3" r="7" fill="black" />
  <circle cx="461.0" cy="428.2" r="7" fill="black" />
  <circle cx="338.0" cy="354.4" r="7" fill="black" />
  <circle cx="351.7" cy="488.4" r="7" fill="black" />
  <circle cx="539.0" cy="313.4" r="7" fill="black" />
  <circle cx="394.1" cy="308.0" r="7" fill="black" />
  <circle cx="413.2" cy="343.5" r="7" fill="black" />
  <circle cx="327.1" cy="551.3" r="7" fill="black" />
  <circle cx="515.7" cy="499.3" r="7" fill="black" />
  <circle cx="530.8" cy="347.6" r="7" fill="black" />
  <circle cx="549.9" cy="443.3" r="7" fill="black" />
  <circle cx="506.2" cy="433.7" r="7" fill="black" />
  <circle cx="590.9" cy="346.2" r="7" fill="black" />
  <circle cx="329.8" cy="351.7" r="7" fill="black" />
  <circle cx="584.1" cy="513.0" r="7" fill="black" />
  <circle cx="343.5" cy="309.3" r="7" fill="black" />
  <circle cx="496.6" cy="469.2" r="7" fill="black" />
  <circle cx="342.1" cy="462.4" r="7" fill="black" />
  <circle cx="331.2" cy="452.8" r="7" fill="black" />
  <circle cx="379.0" cy="309.3" r="7" fill="black" />
  <circle cx="362.6" cy="374.9" r="7" fill="black" />
  <circle cx="465.1" cy="431.0" r="7" fill="black" />
  <circle cx="395.4" cy="514.4" r="7" fill="black" />
  <circle cx="390.0" cy="362.6" r="7" fill="black" />
  <circle cx="566.3" cy="503.4" r="7" fill="black" />
  <circle cx="369.5" cy="511.6" r="7" fill="black" />
  <circle cx="592.3" cy="312.1" r="7" fill="black" />
  <circle cx="446.0" cy="381.8" r="7" fill="black" />
  <circle cx="409.1" cy="489.7" r="7" fill="black" />
  <circle cx="522.6" cy="420.0" r="7" fill="black" />
  <circle cx="342.1" cy="294.3" r="7" fill="black" />
  <circle cx="368.1" cy="402.3" r="7" fill="black" />
  <circle cx="329.8" cy="303.9" r="7" fill="black" />
  <circle cx="493.8" cy="415.9" r="7" fill="black" />
  <circle cx="428.2" cy="415.9" r="7" fill="black" />
  <circle cx="428.2" cy="411.8" r="7" fill="black" />
  <circle cx="329.8" cy="374.9" r="7" fill="black" />
  <circle cx="354.4" cy="466.5" r="7" fill="black" />
  <circle cx="533.5" cy="489.7" r="7" fill="black" />
  <circle cx="435.1" cy="364.0" r="7" fill="black" />
  <circle cx="403.6" cy="473.3" r="7" fill="black" />
  <circle cx="327.1" cy="515.7" r="7" fill="black" />
  <circle cx="343.5" cy="312.1" r="7" fill="black" />
  <circle cx="562.2" cy="410.5" r="7" fill="black" />
  <circle cx="349.0" cy="456.9" r="7" fill="black" />
  <circle cx="588.2" cy="529.4" r="7" fill="black" />
  <circle cx="487.0" cy="344.9" r="7" fill="black" />
  <circle cx="332.6" cy="478.8" r="7" fill="black" />
  <circle cx="482.9" cy="466.5" r="7" fill="black" />
  <circle cx="405.0" cy="320.3" r="7" fill="black" />
  <circle cx="482.9" cy="463.8" r="7" fill="black" />
  <circle cx="399.5" cy="513.0" r="7" fill="black" />
  <circle cx="418.7" cy="306.6" r="7" fill="black" />
  <circle cx="428.2" cy="384.5" r="7" fill="black" />
  <circle cx="493.8" cy="472.0" r="7" fill="black" />
  <circle cx="402.3" cy="549.9" r="7" fill="black" />
  <circle cx="432.3" cy="346.2" r="7" fill="black" />
  <circle cx="484.3" cy="518.5" r="7" fill="black" />
  <circle cx="502.1" cy="517.1" r="7" fill="black" />
  <circle cx="543.1" cy="502.1" r="7" fill="black" />
  <circle cx="495.2" cy="511.6" r="7" fill="black" />
  <circle cx="370.8" cy="323.0" r="7" fill="black" />
  <circle cx="473.3" cy="398.2" r="7" fill="black" />
  <circle cx="329.8" cy="328.5" r="7" fill="black" />
  <circle cx="390.0" cy="406.4" r="7" fill="black" />
  <circle cx="328.5" cy="530.8" r="7" fill="black" />
  <circle cx="567.7" cy="306.6" r="7" fill="black" />
  <circle cx="417.3" cy="342.1" r="7" fill="black" />
  <circle cx="489.7" cy="518.5" r="7" fill="black" />
  <circle cx="466.5" cy="478.8" r="7" fill="black" />
  <circle cx="507.5" cy="532.1" r="7" fill="black" />
  <polyline points="455.6,420.0 454.2,418.7 452.8,415.9 452.8,413.2 451.5,409.1 450.1,406.4 447.4,403.6 446.0,400.9 443.3,398.2 440.5,396.8 437.8,396.8 435.1,398.2 433.7,398.2 433.7,398.2 435.1,398.2 437.8,398.2 439.2,399.5 439.2,402.3 437.8,406.4 437.8,411.8 436.4,415.9 435.1,420.0 433.7,422.8 431.0,424.1 426.9,424.1 424.1,422.8 422.8,420.0 422.8,418.7 424.1,418.7 426.9,417.3 428.2,415.9 428.2,413.2 428.2,411.8 426.9,409.1 424.1,405.0 420.0,402.3 415.9,399.5 411.8,395.4 407.7,392.7 405.0,388.6 403.6,383.1 402.3,379.0 399.5,376.3 398.2,374.9 395.4,374.9 391.3,376.3 388.6,379.0 385.9,381.8 384.5,385.9 384.5,391.3 385.9,395.4 387.2,398.2 390.0,402.3 391.3,405.0 391.3,406.4 390.0,406.4 387.2,405.0 383.1,402.3 377.7,400.9 372.2,400.9 368.1,402.3 365.4,405.0 364.0,407.7 364.0,410.5 365.4,411.8 368.1,414.6 372.2,415.9 374.9,417.3 376.3,417.3 376.3,415.9 374.9,414.6 372.2,414.6 368.1,415.9 365.4,418.7 362.6,421.4 359.9,422.8 358.5,424.1 358.5,424.1 359.9,424.1 362.6,424.1 365.4,424.1 366.7,425.5 366.7,428.2 365.4,429.6 364.0,431.0 364.0,431.0 365.4,431.0 368.1,431.0 372.2,431.0 374.9,431.0 379.0,429.6 381.8,426.9 383.1,425.5 383.1,425.5 381.8,426.9 379.0,429.6 377.7,433.7 377.7,437.8 376.3,443.3 376.3,450.1 376.3,458.3 374.9,465.1 374.9,472.0 373.6,477.4 370.8,481.5 366.7,484.3 364.0,485.6 362.6,485.6 361.3,484.3 358.5,484.3 354.4,485.6 351.7,488.4 350.3,489.7 347.6,489.7 346.2,488.4 344.9,485.6 343.5,481.5 343.5,476.1 343.5,472.0 342.1,466.5 342.1,462.4 340.8,458.3 338.0,455.6 333.9,454.2 331.2,452.8 328.5,450.1 327.1,447.4 327.1,446.0 328.5,444.6 331.2,444.6 335.3,444.6 340.8,444.6 346.2,446.0 350.3,448.7 353.1,452.8 354.4,456.9 354.4,462.4 354.4,466.5 355.8,472.0 358.5,476.1 362.6,478.8 365.4,480.2 366.7,480.2 368.1,478.8 368.1,476.1 369.5,473.3 372.2,472.0 376.3,472.0 379.0,472.0 380.4,473.3 381.8,474.7 384.5,477.4 387.2,480.2 391.3,482.9 395.4,484.3 398.2,484.3 402.3,482.9 405.0,480.2 406.4,476.1 406.4,473.3 405.0,472.0 403.6,472.0 403.6,473.3 402.3,476.1 399.5,480.2 398.2,482.9 398.2,487.0 399.5,489.7 402.3,491.1 406.4,491.1 409.1,489.7 410.5,489.7 410.5,491.1 409.1,493.8 409.1,497.9 409.1,500.7 410.5,504.8 410.5,510.3 409.1,515.7 406.4,519.8 403.6,522.6 400.9,523.9 399.5,523.9 399.5,522.6 399.5,519.8 399.5,515.7 399.5,513.0 398.2,511.6 396.8,511.6 395.4,513.0 395.4,514.4 394.1,517.1 391.3,521.2 387.2,523.9 383.1,525.3 379.0,525.3 376.3,523.9 374.9,522.6 374.9,521.2 376.3,521.2 379.0,521.2 381.8,519.8 383.1,517.1 383.1,513.0 383.1,508.9 383.1,504.8 381.8,502.1 379.0,500.7 374.9,500.7 369.5,502.1 362.6,503.4 354.4,504.8 344.9,507.5 336.7,510.3 329.8,514.4 324.4,519.8 320.3,523.9 317.5,526.7 316.2,528.0 316.2,528.0 317.5,526.7 320.3,526.7 323.0,526.7 324.4,525.3 325.7,522.6 327.1,518.5 327.1,515.7 328.5,513.0 331.2,508.9 332.6,504.8 332.6,499.3 333.9,492.5 333.9,487.0 332.6,482.9 332.6,478.8 332.6,473.3 332.6,467.9 332.6,463.8 331.2,461.0 328.5,459.7 327.1,458.3 327.1,458.3 328.5,459.7 331.2,462.4 333.9,463.8 335.3,463.8 335.3,462.4 336.7,459.7 339.4,456.9 343.5,455.6 346.2,455.6 349.0,456.9 353.1,458.3 358.5,458.3 364.0,458.3 370.8,459.7 379.0,461.0 387.2,462.4 396.8,462.4 407.7,461.0 418.7,458.3 431.0,455.6 444.6,454.2 458.3,452.8 473.3,450.1 489.7,446.0 504.8,440.5 518.5,433.7 532.1,425.5 547.2,417.3 562.2,410.5 575.9,405.0 588.2,399.5 599.1,392.7 608.7,384.5 616.9,374.9 623.7,366.7 629.2,359.9 633.3,354.4 636.0,350.3 637.4,347.6 637.4,346.2 636.0,346.2 633.3,346.2 629.2,346.2 623.7,346.2 616.9,346.2 608.7,346.2 599.1,346.2 590.9,346.2 582.7,346.2 574.5,346.2 564.9,347.6 555.4,347.6 544.4,346.2 532.1,344.9 519.8,342.1 508.9,340.8 499.3,339.4 488.4,339.4 477.4,338.0 465.1,335.3 454.2,333.9 444.6,333.9 436.4,335.3 426.9,338.0 417.3,342.1 409.1,347.6 399.5,354.4 390.0,362.6 379.0,369.5 366.7,376.3 355.8,384.5 346.2,392.7 336.7,399.5 325.7,407.7 316.2,414.6 308.0,420.0 301.1,424.1 295.7,426.9 291.6,428.2 288.8,428.2 287.5,426.9 287.5,425.5 288.8,424.1 291.6,424.1 295.7,424.1 301.1,424.1 308.0,424.1 316.2,424.1 325.7,424.1 335.3,425.5 343.5,425.5 350.3,424.1 355.8,421.4 359.9,417.3 362.6,411.8 364.0,405.0 365.4,396.8 365.4,388.6 364.0,381.8 362.6,374.9 359.9,369.5 355.8,365.4 350.3,362.6 343.5,359.9 336.7,355.8 329.8,351.7 324.4,349.0 320.3,346.2 317.5,343.5 316.2,340.8 316.2,339.4 317.5,339.4 320.3,339.4 323.0,339.4 324.4,340.8 324.4,343.5 324.4,344.9 323.0,347.6 323.0,351.7 323.0,357.2 324.4,361.3 327.1,366.7 329.8,373.6 331.2,380.4 331.2,385.9 329.8,390.0 327.1,392.7 323.0,394.1 320.3,394.1 318.9,392.7 318.9,390.0 318.9,385.9 318.9,381.8 320.3,376.3 323.0,372.2 325.7,366.7 327.1,362.6 329.8,357.2 333.9,350.3 336.7,342.1 338.0,335.3 340.8,328.5 343.5,320.3 347.6,312.1 353.1,302.5 357.2,291.6 359.9,282.0 361.3,273.8 361.3,267.0 359.9,261.5 357.2,257.4 353.1,254.7 350.3,253.3 349.0,253.3 349.0,254.7 349.0,257.4 349.0,261.5 349.0,267.0 349.0,273.8 349.0,282.0 349.0,288.8 347.6,295.7 344.9,303.9 343.5,312.1 342.1,321.6 339.4,332.6 338.0,343.5 338.0,354.4 338.0,365.4 339.4,376.3 342.1,388.6 343.5,400.9 344.9,413.2 344.9,424.1 343.5,433.7 340.8,441.9 336.7,448.7 331.2,456.9 327.1,466.5 324.4,477.4 323.0,487.0 323.0,495.2 324.4,502.1 327.1,507.5 331.2,511.6 333.9,514.4 336.7,515.7 338.0,515.7 338.0,514.4 338.0,513.0 336.7,510.3 333.9,506.2 331.2,500.7 329.8,496.6 329.8,492.5 331.2,489.7 331.2,488.4 329.8,488.4 328.5,489.7 328.5,492.5 328.5,496.6 328.5,502.1 328.5,508.9 328.5,517.1 328.5,525.3 327.1,532.1 327.1,537.6 327.1,544.4 327.1,551.3 328.5,556.7 331.2,560.8 333.9,563.6 335.3,564.9 336.7,564.9 336.7,563.6 336.7,560.8 336.7,556.7 336.7,552.6 336.7,549.9 338.0,545.8 340.8,540.3 344.9,533.5 350.3,525.3 355.8,518.5 359.9,511.6 362.6,506.2 365.4,502.1 368.1,499.3 369.5,497.9 369.5,497.9 369.5,499.3 369.5,502.1 369.5,506.2 369.5,511.6 368.1,518.5 365.4,526.7 361.3,533.5 357.2,541.7 354.4,548.5 353.1,554.0 350.3,558.1 347.6,560.8 344.9,562.2 343.5,562.2 343.5,560.8 343.5,558.1 343.5,554.0 343.5,548.5 343.5,543.1 343.5,539.0 344.9,536.2 347.6,534.9 350.3,534.9 351.7,536.2 353.1,537.6 355.8,537.6 358.5,536.2 359.9,533.5 359.9,532.1 358.5,529.4 357.2,528.0 354.4,525.3 350.3,523.9 344.9,523.9 338.0,525.3 332.6,528.0 328.5,530.8 325.7,534.9 324.4,540.3 324.4,547.2 325.7,552.6 328.5,556.7 332.6,559.5 338.0,560.8 344.9,560.8 353.1,559.5 362.6,556.7 373.6,552.6 385.9,549.9 399.5,547.2 411.8,543.1 425.5,537.6 440.5,530.8 454.2,522.6 469.2,515.7 484.3,507.5 497.9,499.3 513.0,492.5 528.0,487.0 541.7,481.5 554.0,476.1 567.7,472.0 580.0,467.9 590.9,463.8 600.5,458.3 608.7,451.5 615.5,443.3 621.0,436.4 625.1,431.0 627.8,426.9 629.2,424.1 629.2,422.8 627.8,422.8 625.1,422.8 621.0,422.8 615.5,422.8 608.7,422.8 600.5,422.8 590.9,422.8 582.7,421.4 575.9,418.7 569.0,414.6 560.8,410.5 551.3,406.4 541.7,400.9 532.1,394.1 521.2,385.9 508.9,379.0 497.9,373.6 487.0,366.7 474.7,361.3 462.4,354.4 451.5,346.2 439.2,338.0 425.5,328.5 413.2,317.5 399.5,308.0 384.5,299.8 368.1,292.9 353.1,287.5 339.4,283.4 327.1,280.6 316.2,279.3 306.6,279.3 298.4,280.6 291.6,283.4 286.1,287.5 282.0,292.9 279.3,299.8 277.9,306.6 277.9,312.1 279.3,317.5 282.0,321.6 286.1,324.4 291.6,325.7 298.4,325.7 306.6,324.4 314.8,321.6 321.6,317.5 327.1,312.1 332.6,305.2 339.4,298.4 346.2,292.9 353.1,288.8 358.5,286.1 362.6,284.7 365.4,284.7 366.7,286.1 366.7,287.5 365.4,288.8 364.0,288.8 361.3,290.2 357.2,292.9 354.4,297.0 353.1,301.1 350.3,306.6 347.6,310.7 344.9,314.8 343.5,317.5 343.5,318.9 344.9,318.9 346.2,317.5 346.2,314.8 344.9,310.7 343.5,308.0 343.5,306.6 343.5,306.6 343.5,308.0 343.5,309.3 342.1,310.7 339.4,310.7 335.3,309.3 329.8,309.3 324.4,310.7 320.3,310.7 317.5,312.1 316.2,314.8 316.2,317.5 317.5,318.9 320.3,318.9 324.4,320.3 329.8,323.0 333.9,327.1 336.7,332.6 338.0,338.0 340.8,344.9 344.9,351.7 347.6,358.5 351.7,366.7 357.2,376.3 361.3,384.5 364.0,391.3 365.4,396.8 365.4,400.9 364.0,403.6 361.3,405.0 357.2,405.0 351.7,403.6 347.6,400.9 342.1,398.2 338.0,394.1 332.6,388.6 328.5,383.1 325.7,379.0 324.4,376.3 324.4,374.9 325.7,374.9 328.5,374.9 329.8,374.9 332.6,373.6 336.7,370.8 339.4,368.1 342.1,365.4 346.2,361.3 350.3,355.8 353.1,349.0 354.4,340.8 354.4,333.9 354.4,328.5 355.8,321.6 358.5,316.2 361.3,312.1 362.6,309.3 362.6,308.0 361.3,308.0 361.3,309.3 361.3,312.1 361.3,314.8 361.3,316.2 359.9,318.9 358.5,323.0 355.8,325.7 351.7,328.5 349.0,331.2 347.6,332.6 347.6,333.9 349.0,333.9 350.3,333.9 353.1,332.6 357.2,331.2 361.3,331.2 364.0,331.2 365.4,332.6 365.4,335.3 365.4,338.0 366.7,339.4 369.5,339.4 373.6,339.4 379.0,339.4 384.5,339.4 391.3,340.8 399.5,340.8 406.4,340.8 413.2,340.8 421.4,339.4 431.0,339.4 440.5,338.0 450.1,335.3 459.7,333.9 469.2,331.2 477.4,329.8 487.0,327.1 497.9,325.7 508.9,323.0 519.8,318.9 532.1,314.8 543.1,312.1 552.6,310.7 560.8,308.0 567.7,306.6 575.9,306.6 582.7,308.0 588.2,309.3 592.3,312.1 595.0,313.4 596.4,313.4 596.4,312.1 595.0,309.3 592.3,308.0 589.5,308.0 586.8,309.3 582.7,310.7 577.2,310.7 573.1,310.7 567.7,309.3 562.2,306.6 558.1,305.2 555.4,305.2 554.0,306.6 554.0,309.3 555.4,313.4 555.4,317.5 556.7,320.3 558.1,321.6 558.1,321.6 558.1,320.3 558.1,318.9 559.5,318.9 562.2,318.9 566.3,318.9 569.0,320.3 570.4,323.0 570.4,327.1 569.0,329.8 567.7,333.9 564.9,336.7 560.8,338.0 555.4,339.4 548.5,340.8 541.7,342.1 536.2,344.9 530.8,347.6 523.9,350.3 515.7,351.7 506.2,353.1 495.2,355.8 485.6,359.9 477.4,364.0 467.9,369.5 456.9,376.3 446.0,381.8 435.1,385.9 422.8,390.0 409.1,395.4 394.1,399.5 377.7,402.3 361.3,405.0 343.5,409.1 324.4,414.6 306.6,421.4 290.2,428.2 275.2,433.7 261.5,437.8 249.2,440.5 238.3,441.9 228.7,441.9 220.5,440.5 213.7,439.2 208.2,436.4 204.1,432.3 201.4,428.2 200.0,425.5 200.0,424.1 201.4,424.1 204.1,424.1 208.2,424.1 213.7,424.1 220.5,424.1 228.7,424.1 238.3,424.1 249.2,424.1 261.5,424.1 275.2,424.1 290.2,424.1 306.6,424.1 321.6,424.1 338.0,425.5 355.8,426.9 374.9,429.6 395.4,431.0 417.3,431.0 440.5,429.6 465.1,429.6 489.7,431.0 515.7,431.0 540.3,429.6 564.9,426.9 589.5,422.8 612.8,420.0 634.6,418.7 655.1,418.7 674.3,420.0 692.0,422.8 708.4,426.9 723.5,432.3 737.1,439.2 749.4,447.4 760.4,456.9 769.9,466.5 778.1,474.7 785.0,481.5 790.4,487.0 794.5,491.1 797.3,495.2 798.6,497.9 798.6,499.3 797.3,499.3 794.5,499.3 790.4,499.3 785.0,499.3 778.1,499.3 769.9,499.3 760.4,499.3 749.4,499.3 737.1,499.3 723.5,499.3 708.4,499.3 692.0,499.3 674.3,499.3 655.1,499.3 634.6,499.3 612.8,499.3 590.9,499.3 567.7,500.7 543.1,502.1 517.1,502.1 492.5,500.7 467.9,499.3 444.6,499.3 422.8,500.7 402.3,500.7 383.1,500.7 365.4,499.3 349.0,496.6 333.9,492.5 320.3,487.0 308.0,480.2 297.0,472.0 287.5,462.4 279.3,452.8 272.4,444.6 267.0,437.8 262.9,432.3 260.1,428.2 258.8,425.5 258.8,424.1 260.1,424.1 262.9,424.1 267.0,424.1 272.4,424.1 279.3,424.1 287.5,424.1 297.0,424.1 308.0,424.1 317.5,424.1 327.1,424.1 338.0,422.8 347.6,420.0 355.8,415.9 362.6,410.5 368.1,403.6 372.2,395.4 377.7,385.9 384.5,374.9 390.0,364.0 396.8,351.7 403.6,338.0 410.5,323.0 418.7,306.6 428.2,290.2 436.4,275.2 443.3,261.5 448.7,249.2 452.8,238.3 456.9,228.7 459.7,220.5 461.0,213.7 461.0,208.2 459.7,204.1 456.9,201.4 454.2,200.0 452.8,200.0 452.8,201.4 452.8,204.1 452.8,208.2 452.8,213.7 452.8,220.5 452.8,228.7 452.8,238.3 452.8,249.2 452.8,261.5 452.8,275.2 451.5,288.8 451.5,301.1 452.8,314.8 455.6,329.8 459.7,346.2 462.4,362.6 466.5,380.4 470.6,396.8 473.3,411.8 474.7,426.9 474.7,443.3 473.3,458.3 472.0,473.3 470.6,488.4 469.2,504.8 469.2,519.8 470.6,533.5 473.3,545.8 477.4,556.7 482.9,566.3 489.7,574.5 497.9,581.3 506.2,586.8 513.0,590.9 518.5,593.6 522.6,595.0 525.3,595.0 526.7,593.6 526.7,590.9 526.7,586.8 526.7,581.3 526.7,574.5 526.7,566.3 526.7,556.7 525.3,548.5 522.6,540.3 519.8,533.5 515.7,528.0 510.3,523.9 503.4,518.5 495.2,511.6 487.0,503.4 477.4,496.6 467.9,488.4 459.7,480.2 450.1,470.6 440.5,462.4 431.0,452.8 422.8,443.3 414.6,435.1 407.7,425.5 402.3,414.6 398.2,402.3 395.4,388.6 394.1,376.3 392.7,365.4 390.0,355.8 385.9,346.2 383.1,335.3 380.4,323.0 379.0,309.3 379.0,294.3 380.4,280.6 383.1,268.3 387.2,257.4 392.7,247.8 399.5,239.6 406.4,232.8 411.8,227.3 417.3,223.2 421.4,220.5 424.1,219.1 425.5,219.1 425.5,220.5 425.5,223.2 425.5,227.3 425.5,232.8 425.5,239.6 425.5,247.8 425.5,257.4 425.5,268.3 424.1,277.9 421.4,286.1 417.3,292.9 411.8,299.8 405.0,306.6 399.5,314.8 395.4,321.6 392.7,327.1 391.3,331.2 391.3,333.9 392.7,335.3 394.1,335.3 395.4,333.9 398.2,331.2 402.3,327.1 407.7,321.6 411.8,314.8 417.3,306.6 421.4,298.4 424.1,290.2 425.5,283.4 425.5,277.9 424.1,273.8 421.4,271.1 417.3,269.7 413.2,269.7 410.5,271.1 409.1,273.8 409.1,277.9 410.5,283.4 410.5,288.8 409.1,294.3 409.1,299.8 407.7,303.9 405.0,306.6 400.9,308.0 396.8,308.0 394.1,308.0 391.3,306.6 388.6,305.2 387.2,302.5 387.2,298.4 388.6,294.3 391.3,291.6 394.1,290.2 395.4,290.2 395.4,291.6 395.4,292.9 396.8,292.9 399.5,291.6 402.3,290.2 405.0,290.2 406.4,291.6 406.4,294.3 405.0,297.0 403.6,299.8 403.6,303.9 405.0,309.3 405.0,314.8 405.0,320.3 406.4,324.4 407.7,327.1 407.7,328.5 407.7,328.5 407.7,327.1 407.7,324.4 407.7,323.0 409.1,323.0 411.8,324.4 415.9,327.1 418.7,329.8 421.4,332.6 422.8,336.7 425.5,342.1 428.2,346.2 432.3,349.0 437.8,351.7 441.9,355.8 444.6,359.9 447.4,362.6 451.5,366.7 454.2,372.2 455.6,376.3 455.6,379.0 454.2,380.4 451.5,380.4 447.4,380.4 441.9,379.0 437.8,377.7 433.7,377.7 431.0,377.7 428.2,379.0 426.9,381.8 426.9,383.1 428.2,384.5 428.2,387.2 428.2,390.0 426.9,391.3 424.1,391.3 420.0,390.0 414.6,388.6 410.5,385.9 407.7,381.8 406.4,379.0 406.4,374.9 407.7,369.5 410.5,362.6 411.8,355.8 413.2,349.0 413.2,343.5 414.6,339.4 417.3,336.7 421.4,335.3 426.9,335.3 432.3,336.7 436.4,339.4 439.2,343.5 441.9,349.0 446.0,353.1 450.1,355.8 454.2,357.2 456.9,357.2 458.3,355.8 458.3,354.4 456.9,354.4 456.9,355.8 458.3,357.2 461.0,357.2 465.1,357.2 470.6,357.2 476.1,357.2 480.2,358.5 482.9,361.3 484.3,365.4 484.3,368.1 482.9,369.5 480.2,369.5 476.1,370.8 473.3,373.6 472.0,377.7 472.0,380.4 473.3,383.1 473.3,387.2 472.0,391.3 469.2,395.4 467.9,398.2 467.9,399.5 469.2,399.5 472.0,398.2 473.3,398.2 473.3,396.8 472.0,394.1 469.2,392.7 467.9,392.7 465.1,394.1 463.8,394.1 461.0,392.7 456.9,392.7 452.8,392.7 450.1,391.3 447.4,388.6 443.3,384.5 437.8,379.0 433.7,372.2 428.2,366.7 421.4,362.6 415.9,359.9 409.1,355.8 403.6,353.1 399.5,351.7 396.8,351.7 395.4,353.1 395.4,354.4 396.8,355.8 396.8,358.5 395.4,362.6 392.7,365.4 388.6,366.7 385.9,366.7 384.5,365.4 384.5,364.0 383.1,361.3 380.4,359.9 379.0,359.9 377.7,361.3 374.9,364.0 370.8,368.1 366.7,373.6 362.6,379.0 358.5,385.9 353.1,394.1 349.0,402.3 346.2,409.1 344.9,414.6 344.9,418.7 346.2,421.4 349.0,422.8 353.1,422.8 358.5,421.4 364.0,418.7 368.1,414.6 370.8,409.1 372.2,402.3 372.2,394.1 373.6,387.2 373.6,381.8 372.2,377.7 369.5,374.9 366.7,373.6 365.4,373.6 365.4,374.9 365.4,377.7 365.4,380.4 365.4,383.1 366.7,384.5 368.1,384.5 368.1,383.1 368.1,380.4 368.1,376.3 368.1,370.8 368.1,364.0 368.1,355.8 368.1,346.2 368.1,335.3 368.1,323.0 368.1,312.1 366.7,302.5 364.0,294.3 359.9,287.5 355.8,282.0 350.3,277.9 346.2,275.2 343.5,273.8 342.1,273.8 342.1,275.2 342.1,277.9 342.1,282.0 342.1,287.5 342.1,294.3 340.8,301.1 338.0,306.6 333.9,312.1 329.8,318.9 327.1,324.4 325.7,328.5 325.7,331.2 327.1,332.6 327.1,332.6 327.1,331.2 327.1,329.8 328.5,328.5 329.8,328.5 329.8,327.1 329.8,324.4 329.8,320.3 329.8,314.8 329.8,309.3 329.8,303.9 331.2,299.8 331.2,297.0 331.2,295.7 329.8,295.7 329.8,297.0 329.8,299.8 329.8,302.5 329.8,305.2 331.2,309.3 333.9,314.8 338.0,321.6 343.5,327.1 347.6,331.2 351.7,333.9 354.4,335.3 355.8,335.3 355.8,333.9 355.8,331.2 355.8,327.1 355.8,323.0 357.2,320.3 359.9,318.9 364.0,318.9 368.1,320.3 370.8,323.0 374.9,324.4 380.4,324.4 387.2,323.0 395.4,320.3 405.0,316.2 415.9,310.7 425.5,306.6 435.1,301.1 444.6,294.3 452.8,286.1 459.7,279.3 465.1,273.8 470.6,269.7 474.7,267.0 477.4,265.6 478.8,265.6 478.8,267.0 478.8,269.7 478.8,273.8 478.8,279.3 478.8,284.7 478.8,288.8 480.2,294.3 482.9,298.4 485.6,302.5 488.4,305.2 491.1,306.6 492.5,306.6 492.5,305.2 492.5,302.5 493.8,299.8 493.8,298.4 492.5,297.0 489.7,297.0 487.0,297.0 484.3,297.0 480.2,298.4 474.7,299.8 470.6,299.8 466.5,299.8 461.0,298.4 455.6,295.7 450.1,294.3 443.3,294.3 435.1,295.7 426.9,297.0 418.7,297.0 411.8,298.4 406.4,301.1 402.3,303.9 399.5,305.2 398.2,305.2 398.2,305.2 399.5,305.2 402.3,305.2 406.4,305.2 411.8,305.2 418.7,305.2 425.5,305.2 431.0,305.2 437.8,306.6 446.0,309.3 454.2,310.7 461.0,310.7 467.9,309.3 473.3,309.3 477.4,309.3 480.2,308.0 481.5,306.6 481.5,305.2 480.2,305.2 477.4,305.2 474.7,305.2 470.6,306.6 465.1,309.3 461.0,312.1 456.9,313.4 451.5,316.2 447.4,320.3 444.6,325.7 441.9,329.8 437.8,335.3 435.1,340.8 432.3,346.2 428.2,353.1 424.1,358.5 420.0,362.6 417.3,365.4 415.9,366.7 415.9,366.7 417.3,365.4 420.0,365.4 424.1,365.4 426.9,365.4 431.0,364.0 435.1,364.0 437.8,362.6 439.2,359.9 439.2,355.8 439.2,350.3 439.2,344.9 440.5,340.8 440.5,338.0 439.2,336.7 437.8,336.7 437.8,338.0 437.8,340.8 437.8,342.1 439.2,342.1 441.9,340.8 446.0,338.0 448.7,333.9 450.1,329.8 452.8,327.1 455.6,325.7 456.9,325.7 456.9,327.1 456.9,329.8 456.9,331.2 458.3,333.9 461.0,335.3 462.4,335.3 462.4,333.9 463.8,333.9 466.5,335.3 470.6,336.7 473.3,338.0 474.7,340.8 474.7,343.5 473.3,344.9 472.0,346.2 472.0,346.2 473.3,344.9 476.1,344.9 480.2,344.9 484.3,344.9 487.0,344.9 491.1,343.5 496.6,343.5 503.4,343.5 508.9,343.5 513.0,342.1 515.7,340.8 519.8,338.0 523.9,336.7 529.4,335.3 536.2,335.3 541.7,335.3 547.2,336.7 552.6,336.7 558.1,336.7 562.2,335.3 564.9,332.6 566.3,329.8 566.3,328.5 564.9,328.5 563.6,328.5 563.6,329.8 564.9,329.8 567.7,329.8 571.8,329.8 577.2,329.8 582.7,329.8 586.8,331.2 589.5,333.9 590.9,335.3 590.9,336.7 589.5,336.7 586.8,335.3 584.1,332.6 582.7,328.5 582.7,325.7 584.1,323.0 584.1,318.9 582.7,313.4 581.3,306.6 581.3,301.1 581.3,295.7 581.3,290.2 580.0,286.1 578.6,283.4 575.9,282.0 574.5,282.0 574.5,283.4 574.5,284.7 573.1,287.5 570.4,291.6 567.7,294.3 566.3,295.7 566.3,297.0 567.7,297.0 570.4,297.0 571.8,297.0 573.1,297.0 575.9,295.7 580.0,292.9 584.1,290.2 588.2,287.5 590.9,286.1 592.3,286.1 592.3,287.5 590.9,288.8 588.2,288.8 584.1,288.8 578.6,288.8 571.8,288.8 563.6,288.8 554.0,288.8 543.1,288.8 533.5,288.8 525.3,290.2 517.1,291.6 510.3,291.6 504.8,290.2 500.7,287.5 495.2,286.1 488.4,286.1 480.2,286.1 473.3,286.1 466.5,286.1 461.0,287.5 456.9,290.2 454.2,294.3 452.8,299.8 452.8,306.6 454.2,314.8 456.9,321.6 461.0,327.1 466.5,331.2 473.3,333.9 481.5,335.3 491.1,335.3 499.3,336.7 507.5,339.4 514.4,343.5 522.6,349.0 532.1,354.4 543.1,361.3 555.4,366.7 566.3,370.8 578.6,373.6 589.5,376.3 599.1,377.7 607.3,377.7 614.1,376.3 619.6,373.6 623.7,369.5 626.4,364.0 627.8,359.9 627.8,357.2 626.4,355.8 623.7,355.8 619.6,357.2 614.1,357.2 607.3,357.2 599.1,357.2 592.3,358.5 585.4,359.9 577.2,362.6 570.4,364.0 563.6,364.0 558.1,365.4 551.3,368.1 545.8,372.2 541.7,376.3 539.0,381.8 536.2,388.6 534.9,395.4 534.9,403.6 534.9,410.5 533.5,417.3 530.8,422.8 526.7,426.9 521.2,431.0 515.7,433.7 508.9,436.4 500.7,440.5 492.5,443.3 484.3,446.0 474.7,450.1 463.8,455.6 451.5,459.7 440.5,462.4 429.6,466.5 420.0,469.2 411.8,470.6 405.0,470.6 399.5,469.2 395.4,466.5 392.7,462.4 391.3,456.9 391.3,452.8 392.7,450.1 395.4,448.7 398.2,448.7 399.5,450.1 400.9,452.8 403.6,456.9 406.4,459.7 409.1,462.4 413.2,463.8 418.7,463.8 422.8,463.8 425.5,462.4 426.9,459.7 426.9,458.3 425.5,458.3 422.8,458.3 420.0,456.9 418.7,454.2 418.7,450.1 418.7,444.6 418.7,440.5 420.0,437.8 421.4,436.4 422.8,436.4 422.8,437.8 422.8,439.2 421.4,439.2 418.7,437.8 414.6,435.1 409.1,432.3 405.0,429.6 402.3,425.5 400.9,420.0 400.9,413.2 402.3,407.7 405.0,403.6 409.1,400.9 413.2,399.5 415.9,399.5 417.3,400.9 417.3,402.3 415.9,403.6 415.9,406.4 417.3,410.5 420.0,415.9 424.1,422.8 429.6,428.2 436.4,432.3 444.6,435.1 454.2,436.4 465.1,436.4 474.7,435.1 485.6,432.3 497.9,429.6 510.3,425.5 522.6,420.0 536.2,413.2 548.5,405.0 559.5,395.4 571.8,384.5 582.7,372.2 592.3,361.3 600.5,351.7 607.3,343.5 612.8,336.7 616.9,331.2 619.6,327.1 621.0,324.4 621.0,323.0 619.6,323.0 616.9,324.4 612.8,327.1 607.3,331.2 600.5,336.7 592.3,343.5 584.1,350.3 575.9,355.8 566.3,361.3 558.1,368.1 549.9,374.9 541.7,381.8 532.1,390.0 522.6,398.2 514.4,405.0 504.8,410.5 493.8,415.9 481.5,420.0 470.6,424.1 461.0,428.2 452.8,431.0 446.0,432.3 440.5,433.7 436.4,433.7 433.7,432.3 432.3,429.6 432.3,428.2 433.7,428.2 436.4,428.2 440.5,428.2 443.3,428.2 444.6,428.2 447.4,429.6 451.5,431.0 456.9,431.0 461.0,431.0 465.1,431.0 469.2,429.6 472.0,426.9 473.3,425.5 474.7,422.8 474.7,418.7 474.7,413.2 474.7,409.1 476.1,406.4 476.1,405.0 476.1,405.0 476.1,406.4 476.1,409.1 477.4,411.8 480.2,413.2 481.5,413.2 481.5,411.8 482.9,409.1 484.3,405.0 484.3,402.3 482.9,398.2 482.9,392.7 484.3,385.9 487.0,380.4 489.7,376.3 493.8,373.6 497.9,370.8 500.7,369.5 502.1,366.7 502.1,365.4 502.1,365.4 502.1,366.7 502.1,369.5 502.1,370.8 503.4,373.6 503.4,376.3 503.4,379.0 502.1,380.4 499.3,380.4 497.9,379.0 496.6,377.7 496.6,377.7 497.9,377.7 500.7,379.0 502.1,381.8 502.1,385.9 500.7,388.6 499.3,392.7 499.3,395.4 500.7,396.8 503.4,396.8 504.8,395.4 504.8,392.7 503.4,391.3 502.1,391.3 502.1,392.7 502.1,395.4 502.1,399.5 502.1,405.0 502.1,410.5 503.4,414.6 506.2,417.3 508.9,420.0 510.3,421.4 510.3,421.4 508.9,420.0 508.9,417.3 508.9,414.6 508.9,411.8 510.3,407.7 513.0,405.0 517.1,403.6 519.8,403.6 521.2,405.0 521.2,405.0 519.8,405.0 519.8,403.6 521.2,403.6 523.9,403.6 528.0,403.6 533.5,403.6 537.6,403.6 541.7,402.3 544.4,399.5 545.8,396.8 545.8,395.4 544.4,394.1 543.1,394.1 540.3,392.7 536.2,392.7 530.8,391.3 526.7,388.6 522.6,384.5 519.8,380.4 518.5,377.7 518.5,376.3 519.8,376.3 522.6,377.7 525.3,380.4 528.0,384.5 532.1,387.2 537.6,388.6 544.4,388.6 552.6,388.6 559.5,388.6 567.7,387.2 574.5,384.5 581.3,380.4 586.8,374.9 590.9,369.5 593.6,364.0 595.0,359.9 595.0,357.2 593.6,355.8 590.9,355.8 588.2,357.2 584.1,359.9 581.3,364.0 580.0,369.5 578.6,376.3 575.9,383.1 574.5,388.6 574.5,392.7 575.9,395.4 578.6,396.8 581.3,396.8 582.7,395.4 582.7,392.7 582.7,390.0 582.7,385.9 582.7,380.4 582.7,374.9 581.3,370.8 578.6,365.4 574.5,358.5 571.8,353.1 569.0,349.0 564.9,346.2 562.2,344.9 560.8,344.9 560.8,346.2 560.8,349.0 560.8,353.1 559.5,358.5 558.1,365.4 558.1,372.2 558.1,379.0 556.7,387.2 554.0,396.8 552.6,407.7 551.3,420.0 549.9,433.7 547.2,448.7 543.1,465.1 539.0,482.9 534.9,499.3 532.1,514.4 528.0,528.0 522.6,540.3 517.1,551.3 513.0,560.8 510.3,569.0 508.9,575.9 508.9,581.3 507.5,585.4 506.2,588.2 503.4,589.5 502.1,589.5 502.1,588.2 502.1,585.4 502.1,581.3 502.1,575.9 502.1,569.0 502.1,560.8 502.1,552.6 503.4,543.1 503.4,534.9 503.4,526.7 502.1,517.1 499.3,506.2 495.2,493.8 489.7,481.5 482.9,467.9 474.7,454.2 466.5,439.2 459.7,425.5 454.2,410.5 450.1,394.1 447.4,376.3 446.0,358.5 446.0,342.1 447.4,327.1 450.1,313.4 454.2,301.1 459.7,290.2 466.5,280.6 474.7,272.4 484.3,265.6 493.8,260.1 502.1,256.0 508.9,253.3 514.4,251.9 518.5,251.9 521.2,253.3 522.6,256.0 522.6,260.1 521.2,265.6 519.8,272.4 519.8,280.6 518.5,287.5 515.7,292.9 511.6,298.4 508.9,303.9 504.8,308.0 499.3,313.4 495.2,318.9 492.5,324.4 491.1,328.5 491.1,331.2 492.5,332.6 495.2,332.6 497.9,331.2 499.3,328.5 499.3,324.4 497.9,320.3 496.6,317.5 495.2,316.2 493.8,316.2 493.8,317.5 493.8,320.3 493.8,321.6 495.2,323.0 497.9,323.0 502.1,323.0 507.5,323.0 514.4,323.0 519.8,321.6 525.3,318.9 530.8,314.8 534.9,312.1 537.6,310.7 539.0,310.7 539.0,312.1 539.0,313.4 540.3,316.2 540.3,320.3 540.3,324.4 540.3,327.1 539.0,331.2 536.2,336.7 532.1,343.5 529.4,351.7 528.0,359.9 528.0,368.1 529.4,374.9 532.1,380.4 536.2,384.5 539.0,387.2 541.7,388.6 543.1,388.6 543.1,387.2 543.1,384.5 543.1,380.4 544.4,377.7 547.2,376.3 548.5,376.3 549.9,377.7 549.9,380.4 549.9,384.5 549.9,390.0 549.9,396.8 549.9,403.6 549.9,410.5 549.9,418.7 549.9,428.2 549.9,436.4 549.9,443.3 548.5,450.1 545.8,458.3 543.1,467.9 539.0,476.1 533.5,482.9 526.7,488.4 521.2,492.5 515.7,496.6 508.9,499.3 502.1,500.7 496.6,500.7 492.5,499.3 489.7,496.6 488.4,493.8 488.4,492.5 489.7,492.5 491.1,493.8 491.1,496.6 492.5,497.9 493.8,499.3 496.6,499.3 500.7,499.3 506.2,499.3 511.6,499.3 515.7,499.3 521.2,497.9 525.3,495.2 529.4,492.5 533.5,489.7 536.2,485.6 537.6,480.2 540.3,474.7 544.4,470.6 547.2,467.9 548.5,466.5 549.9,466.5 549.9,467.9 549.9,470.6 549.9,474.7 548.5,477.4 545.8,478.8 544.4,478.8 543.1,477.4 543.1,474.7 543.1,472.0 541.7,469.2 539.0,467.9 536.2,467.9 534.9,469.2 534.9,472.0 533.5,473.3 530.8,473.3 526.7,472.0 521.2,472.0 515.7,473.3 508.9,473.3 503.4,472.0 496.6,469.2 488.4,467.9 480.2,467.9 472.0,469.2 465.1,472.0 459.7,476.1 452.8,481.5 444.6,488.4 436.4,495.2 429.6,503.4 424.1,513.0 420.0,523.9 415.9,533.5 411.8,543.1 409.1,551.3 405.0,558.1 399.5,563.6 394.1,567.7 390.0,570.4 387.2,571.8 385.9,571.8 385.9,570.4 385.9,567.7 385.9,563.6 385.9,558.1 385.9,552.6 387.2,548.5 390.0,545.8 392.7,544.4 395.4,544.4 399.5,545.8 402.3,548.5 403.6,549.9 403.6,549.9 402.3,549.9 399.5,551.3 395.4,552.6 392.7,552.6 391.3,551.3 391.3,548.5 392.7,544.4 395.4,539.0 399.5,533.5 405.0,526.7 411.8,521.2 420.0,514.4 428.2,508.9 437.8,504.8 447.4,502.1 455.6,499.3 463.8,496.6 470.6,492.5 476.1,487.0 482.9,480.2 489.7,474.7 496.6,470.6 504.8,465.1 511.6,458.3 519.8,452.8 526.7,448.7 534.9,443.3 543.1,439.2 552.6,436.4 560.8,432.3 567.7,426.9 575.9,420.0 584.1,413.2 590.9,407.7 596.4,403.6 600.5,400.9 603.2,399.5 604.6,399.5 604.6,400.9 603.2,403.6 600.5,407.7 596.4,413.2 590.9,417.3 586.8,420.0 584.1,421.4 582.7,421.4 581.3,420.0 581.3,417.3 581.3,414.6 580.0,413.2 577.2,413.2 573.1,414.6 567.7,417.3 563.6,421.4 560.8,426.9 559.5,432.3 559.5,436.4 560.8,439.2 563.6,440.5 564.9,440.5 566.3,439.2 566.3,437.8 567.7,437.8 570.4,439.2 571.8,441.9 571.8,446.0 570.4,451.5 570.4,458.3 570.4,465.1 570.4,472.0 569.0,480.2 566.3,488.4 564.9,497.9 564.9,507.5 566.3,515.7 566.3,523.9 564.9,533.5 563.6,543.1 560.8,554.0 559.5,563.6 559.5,571.8 560.8,578.6 563.6,584.1 566.3,588.2 569.0,590.9 570.4,592.3 570.4,592.3 570.4,590.9 570.4,588.2 570.4,584.1 570.4,578.6 570.4,571.8 570.4,563.6 570.4,555.4 570.4,548.5 570.4,540.3 571.8,530.8 574.5,519.8 578.6,507.5 582.7,496.6 585.4,487.0 588.2,478.8 589.5,472.0 589.5,466.5 588.2,462.4 585.4,459.7 582.7,458.3 581.3,458.3 581.3,459.7 581.3,462.4 581.3,466.5 581.3,472.0 581.3,478.8 581.3,487.0 580.0,493.8 580.0,500.7 581.3,508.9 584.1,518.5 588.2,529.4 592.3,539.0 595.0,547.2 596.4,554.0 596.4,559.5 596.4,563.6 595.0,566.3 592.3,567.7 590.9,567.7 590.9,566.3 590.9,563.6 590.9,559.5 590.9,554.0 590.9,547.2 589.5,540.3 586.8,533.5 582.7,525.3 577.2,515.7 570.4,507.5 563.6,500.7 555.4,493.8 545.8,488.4 534.9,482.9 522.6,478.8 508.9,474.7 493.8,472.0 480.2,469.2 467.9,465.1 455.6,459.7 444.6,455.6 435.1,452.8 426.9,451.5 420.0,451.5 414.6,452.8 410.5,455.6 407.7,459.7 406.4,465.1 406.4,472.0 407.7,477.4 410.5,481.5 414.6,484.3 420.0,485.6 426.9,485.6 435.1,484.3 444.6,481.5 455.6,478.8 467.9,476.1 481.5,473.3 493.8,472.0 506.2,472.0 518.5,473.3 530.8,476.1 544.4,480.2 559.5,485.6 575.9,492.5 590.9,500.7 604.6,507.5 616.9,513.0 627.8,517.1 637.4,519.8 645.6,521.2 652.4,521.2 657.9,521.2 662.0,519.8 664.7,517.1 666.1,514.4 666.1,513.0 664.7,513.0 662.0,513.0 657.9,513.0 652.4,513.0 645.6,513.0 637.4,513.0 627.8,513.0 616.9,513.0 604.6,513.0 593.6,513.0 584.1,513.0 574.5,514.4 566.3,517.1 558.1,519.8 549.9,521.2 543.1,522.6 537.6,525.3 533.5,529.4 530.8,532.1 529.4,534.9 529.4,536.2 530.8,536.2 533.5,536.2 534.9,536.2 537.6,537.6 541.7,537.6 547.2,537.6 554.0,537.6 559.5,539.0 563.6,540.3 566.3,540.3 567.7,539.0 567.7,537.6 566.3,537.6 563.6,537.6 560.8,537.6 558.1,537.6 556.7,536.2 556.7,533.5 558.1,529.4 560.8,523.9 563.6,519.8 564.9,514.4 566.3,508.9 566.3,503.4 567.7,497.9 570.4,493.8 574.5,491.1 578.6,489.7 581.3,489.7 585.4,491.1 588.2,492.5 589.5,492.5 589.5,491.1 588.2,491.1 585.4,491.1 581.3,491.1 578.6,492.5 577.2,493.8 577.2,493.8 578.6,493.8 578.6,495.2 577.2,497.9 574.5,502.1 570.4,507.5 567.7,514.4 566.3,519.8 566.3,523.9 567.7,526.7 570.4,528.0 571.8,528.0 571.8,526.7 571.8,523.9 573.1,522.6 575.9,522.6 580.0,523.9 584.1,526.7 586.8,530.8 588.2,536.2 588.2,540.3 586.8,543.1 584.1,544.4 580.0,544.4 574.5,543.1 567.7,540.3 559.5,536.2 549.9,530.8 539.0,523.9 529.4,517.1 521.2,508.9 514.4,499.3 507.5,488.4 500.7,478.8 492.5,470.6 482.9,463.8 474.7,458.3 467.9,454.2 459.7,451.5 452.8,450.1 447.4,450.1 443.3,451.5 440.5,454.2 439.2,458.3 439.2,461.0 440.5,462.4 443.3,462.4 444.6,461.0 446.0,459.7 446.0,459.7 444.6,461.0 441.9,463.8 440.5,467.9 439.2,470.6 436.4,474.7 433.7,477.4 431.0,478.8 429.6,478.8 429.6,477.4 431.0,477.4 433.7,478.8 437.8,481.5 440.5,485.6 441.9,488.4 441.9,492.5 440.5,497.9 439.2,503.4 437.8,508.9 436.4,514.4 436.4,518.5 435.1,523.9 432.3,528.0 431.0,530.8 431.0,532.1 432.3,532.1 432.3,533.5 431.0,533.5 428.2,533.5 424.1,533.5 420.0,533.5 417.3,533.5 415.9,532.1 415.9,529.4 415.9,526.7 417.3,522.6 420.0,517.1 422.8,511.6 425.5,504.8 428.2,499.3 432.3,492.5 437.8,485.6 444.6,478.8 452.8,473.3 462.4,469.2 470.6,466.5 477.4,465.1 482.9,465.1 487.0,465.1 489.7,466.5 492.5,469.2 493.8,472.0 493.8,473.3 492.5,474.7 492.5,474.7 493.8,474.7 496.6,474.7 500.7,474.7 504.8,474.7 510.3,476.1 515.7,478.8 519.8,482.9 522.6,485.6 523.9,488.4 523.9,489.7 522.6,489.7 519.8,491.1 517.1,491.1 514.4,491.1 513.0,492.5 511.6,495.2 511.6,499.3 511.6,504.8 511.6,511.6 511.6,519.8 511.6,529.4 510.3,537.6 507.5,544.4 503.4,549.9 497.9,554.0 492.5,556.7 488.4,558.1 485.6,558.1 484.3,556.7 484.3,554.0 484.3,549.9 484.3,544.4 484.3,537.6 482.9,529.4 481.5,521.2 478.8,513.0 474.7,503.4 470.6,495.2 467.9,488.4 466.5,482.9 466.5,478.8 465.1,476.1 462.4,474.7 461.0,474.7 461.0,476.1 461.0,478.8 461.0,482.9 461.0,487.0 461.0,489.7 462.4,493.8 465.1,496.6 467.9,497.9 470.6,497.9 472.0,496.6 472.0,495.2 470.6,495.2 467.9,495.2 463.8,496.6 458.3,499.3 451.5,503.4 443.3,508.9 436.4,513.0 431.0,515.7 426.9,517.1 424.1,517.1 422.8,515.7 422.8,514.4 424.1,513.0 426.9,513.0 431.0,514.4 436.4,515.7 443.3,515.7 451.5,515.7 461.0,517.1 472.0,518.5 484.3,518.5 495.2,517.1 507.5,514.4 521.2,511.6 533.5,508.9 544.4,504.8 554.0,499.3 562.2,492.5 569.0,484.3 574.5,474.7 578.6,466.5 581.3,459.7 582.7,454.2 582.7,450.1 581.3,447.4 578.6,446.0 574.5,446.0 569.0,447.4 562.2,447.4 554.0,447.4 544.4,447.4 534.9,447.4 526.7,448.7 519.8,450.1 513.0,451.5 507.5,451.5 502.1,450.1 495.2,447.4 489.7,446.0 485.6,444.6 482.9,441.9 481.5,439.2 481.5,437.8 482.9,437.8 485.6,437.8 487.0,437.8 489.7,436.4 493.8,433.7 499.3,432.3 503.4,432.3 506.2,433.7 510.3,436.4 515.7,440.5 521.2,446.0 525.3,452.8 528.0,461.0 529.4,467.9 529.4,473.3 529.4,477.4 528.0,480.2 525.3,481.5 523.9,481.5 523.9,480.2 523.9,477.4 523.9,473.3 523.9,467.9 523.9,461.0 523.9,452.8 522.6,443.3 519.8,432.3 515.7,422.8 510.3,414.6 506.2,407.7 502.1,402.3 496.6,398.2 492.5,395.4 489.7,394.1 488.4,394.1 488.4,395.4 488.4,398.2 488.4,400.9 488.4,403.6 489.7,407.7 492.5,410.5 495.2,411.8 496.6,414.6 496.6,418.7 495.2,424.1 492.5,431.0 488.4,439.2 482.9,447.4 478.8,454.2 476.1,459.7 474.7,463.8 474.7,466.5 476.1,467.9 478.8,467.9 482.9,466.5 485.6,463.8 487.0,459.7 487.0,456.9 485.6,455.6 482.9,454.2 478.8,454.2 473.3,454.2 469.2,454.2 466.5,455.6 465.1,455.6 465.1,455.6 466.5,455.6 469.2,455.6 470.6,456.9 470.6,459.7 469.2,463.8 466.5,469.2 462.4,476.1 456.9,484.3 452.8,493.8 450.1,502.1 448.7,508.9 448.7,514.4 450.1,518.5 451.5,521.2 452.8,522.6 452.8,522.6 452.8,521.2 452.8,518.5 452.8,515.7 454.2,513.0 456.9,511.6 458.3,511.6 459.7,513.0 462.4,515.7 466.5,518.5 472.0,519.8 478.8,519.8 484.3,518.5 489.7,518.5 496.6,519.8 502.1,522.6 506.2,526.7 508.9,529.4 510.3,530.8 510.3,532.1 508.9,532.1 507.5,532.1 504.8,530.8 503.4,530.8 500.7,530.8 496.6,530.8 491.1,532.1 487.0,534.9 484.3,537.6 482.9,539.0 482.9,539.0 484.3,539.0 487.0,539.0 488.4,540.3 488.4,543.1 487.0,547.2 484.3,551.3 480.2,554.0 474.7,555.4 467.9,555.4 459.7,554.0 450.1,551.3 441.9,549.9 435.1,549.9 429.6,551.3 425.5,552.6 422.8,554.0 421.4,554.0 421.4,552.6 422.8,552.6 425.5,552.6 429.6,552.6 435.1,552.6 440.5,552.6 447.4,551.3 455.6,548.5 465.1,544.4 476.1,539.0 488.4,532.1 502.1,523.9 515.7,514.4 529.4,503.4 541.7,491.1 552.6,477.4 562.2,462.4 570.4,446.0 577.2,428.2 582.7,409.1 586.8,388.6 589.5,369.5 590.9,351.7 590.9,335.3 589.5,320.3 586.8,306.6 582.7,294.3 577.2,283.4 570.4,273.8 562.2,265.6 552.6,258.8 541.7,253.3 532.1,249.2 523.9,246.5 517.1,245.1 511.6,245.1 507.5,246.5 504.8,249.2 503.4,253.3 503.4,258.8 504.8,265.6 507.5,273.8 508.9,283.4 510.3,294.3 511.6,306.6 513.0,317.5 513.0,329.8 514.4,343.5 515.7,358.5 518.5,372.2 522.6,384.5 528.0,395.4 532.1,405.0 534.9,413.2 536.2,420.0 536.2,425.5 536.2,429.6 534.9,432.3 532.1,433.7 530.8,433.7 530.8,432.3 530.8,429.6 530.8,425.5 530.8,420.0 530.8,413.2 530.8,405.0 530.8,395.4 530.8,384.5 530.8,372.2 530.8,361.3 530.8,350.3 529.4,338.0 526.7,324.4 523.9,312.1 521.2,301.1 519.8,291.6 519.8,283.4 519.8,276.5 518.5,271.1 515.7,267.0 511.6,264.2 508.9,262.9 507.5,262.9 507.5,264.2 507.5,267.0 507.5,271.1 507.5,276.5 507.5,283.4 507.5,291.6 507.5,298.4 508.9,303.9 511.6,308.0 515.7,310.7 518.5,312.1 519.8,312.1 519.8,310.7 519.8,308.0 521.2,306.6 523.9,306.6 525.3,308.0 528.0,308.0 529.4,306.6 530.8,305.2 530.8,305.2 529.4,306.6 526.7,309.3 522.6,313.4 517.1,318.9 511.6,325.7 507.5,332.6 504.8,338.0 503.4,342.1 503.4,344.9 504.8,346.2 506.2,346.2 507.5,344.9 507.5,343.5 508.9,342.1" fill="none" stroke="red" stroke-width="7" stroke-opacity="0.5"/>
  <circle cx="510.3" cy="340.8" r="15" fill="blue" fill-opacity="0.5"/>
</svg>