<svg width="1000" height="1000" xmlns="http://www.w3.org/2000/svg">
  <rect x="200" y="200" width="600" height="600" fill="none" stroke="gray" stroke-width="5" />
  <circle cx="456.5" cy="320.6" r="3" fill="black" />
  <circle cx="541.6" cy="384.7" r="3" fill="black" />
  <circle cx="414.4" cy="305.3" r="3" fill="black" />
  <circle cx="385.6" cy="307.2" r="3" fill="black" />
  <circle cx="384.7" cy="309.1" r="3" fill="black" />
  <circle cx="532.1" cy="375.1" r="3" fill="black" />
  <circle cx="423.9" cy="312.9" r="3" fill="black" />
  <circle cx="388.5" cy="306.2" r="3" fill="black" />
  <circle cx="571.3" cy="448.8" r="3" fill="black" />
  <circle cx="393.3" cy="303.3" r="3" fill="black" />
  <circle cx="399.0" cy="312.9" r="3" fill="black" />
  <circle cx="503.3" cy="348.3" r="3" fill="black" />
  <circle cx="440.2" cy="312.0" r="3" fill="black" />
  <circle cx="477.5" cy="334.0" r="3" fill="black" />
  <circle cx="407.7" cy="308.1" r="3" fill="black" />
  <circle cx="560.8" cy="415.3" r="3" fill="black" />
  <circle cx="574.2" cy="467.9" r="3" fill="black" />
  <circle cx="432.5" cy="312.0" r="3" fill="black" />
  <circle cx="395.2" cy="311.0" r="3" fill="black" />
  <circle cx="401.9" cy="312.9" r="3" fill="black" />
  <circle cx="384.7" cy="311.0" r="3" fill="black" />
  <circle cx="430.6" cy="312.9" r="3" fill="black" />
  <circle cx="500.5" cy="340.7" r="3" fill="black" />
  <circle cx="409.6" cy="307.2" r="3" fill="black" />
  <circle cx="401.9" cy="301.4" r="3" fill="black" />
  <circle cx="425.8" cy="313.9" r="3" fill="black" />
  <circle cx="505.3" cy="351.2" r="3" fill="black" />
  <circle cx="502.4" cy="344.5" r="3" fill="black" />
  <circle cx="568.4" cy="440.2" r="3" fill="black" />
  <circle cx="410.5" cy="303.3" r="3" fill="black" />
  <circle cx="513.9" cy="358.9" r="3" fill="black" />
  <circle cx="546.4" cy="387.6" r="3" fill="black" />
  <circle cx="493.8" cy="335.9" r="3" fill="black" />
  <circle cx="562.7" cy="421.1" r="3" fill="black" />
  <circle cx="557.9" cy="402.9" r="3" fill="black" />
  <circle cx="385.6" cy="312.0" r="3" fill="black" />
  <circle cx="575.1" cy="469.9" r="3" fill="black" />
  <circle cx="465.1" cy="328.2" r="3" fill="black" />
  <circle cx="525.4" cy="368.4" r="3" fill="black" />
  <circle cx="412.4" cy="308.1" r="3" fill="black" />
  <circle cx="410.5" cy="308.1" r="3" fill="black" />
  <circle cx="386.6" cy="306.2" r="3" fill="black" />
  <circle cx="415.3" cy="308.1" r="3" fill="black" />
  <circle cx="395.2" cy="302.4" r="3" fill="black" />
  <circle cx="575.1" cy="471.8" r="3" fill="black" />
  <circle cx="397.1" cy="312.0" r="3" fill="black" />
  <circle cx="403.8" cy="312.0" r="3" fill="black" />
  <circle cx="507.2" cy="354.1" r="3" fill="black" />
  <circle cx="573.2" cy="463.2" r="3" fill="black" />
  <circle cx="417.2" cy="307.2" r="3" fill="black" />
  <circle cx="534.9" cy="378.0" r="3" fill="black" />
  <circle cx="422.0" cy="312.0" r="3" fill="black" />
  <circle cx="572.2" cy="452.6" r="3" fill="black" />
  <circle cx="409.6" cy="306.2" r="3" fill="black" />
  <circle cx="404.8" cy="311.0" r="3" fill="black" />
  <circle cx="405.7" cy="302.4" r="3" fill="black" />
  <circle cx="437.3" cy="312.0" r="3" fill="black" />
  <circle cx="497.6" cy="337.8" r="3" fill="black" />
  <circle cx="565.6" cy="425.8" r="3" fill="black" />
  <circle cx="398.1" cy="301.4" r="3" fill="black" />
  <circle cx="485.2" cy="334.9" r="3" fill="black" />
  <circle cx="386.6" cy="312.0" r="3" fill="black" />
  <circle cx="390.4" cy="311.0" r="3" fill="black" />
  <circle cx="521.5" cy="365.6" r="3" fill="black" />
  <circle cx="537.8" cy="380.9" r="3" fill="black" />
  <circle cx="447.8" cy="314.8" r="3" fill="black" />
  <circle cx="389.5" cy="306.2" r="3" fill="black" />
  <circle cx="510.0" cy="356.0" r="3" fill="black" />
  <circle cx="574.2" cy="466.0" r="3" fill="black" />
  <circle cx="388.5" cy="312.0" r="3" fill="black" />
  <circle cx="553.1" cy="394.3" r="3" fill="black" />
  <circle cx="567.5" cy="431.6" r="3" fill="black" />
  <circle cx="468.9" cy="331.1" r="3" fill="black" />
  <circle cx="419.1" cy="310.0" r="3" fill="black" />
  <circle cx="389.5" cy="305.3" r="3" fill="black" />
  <circle cx="409.6" cy="306.2" r="3" fill="black" />
  <circle cx="473.7" cy="333.0" r="3" fill="black" />
  <circle cx="460.3" cy="324.4" r="3" fill="black" />
  <circle cx="481.3" cy="334.0" r="3" fill="black" />
  <circle cx="407.7" cy="307.2" r="3" fill="black" />
  <circle cx="555.0" cy="398.1" r="3" fill="black" />
  <circle cx="517.7" cy="361.7" r="3" fill="black" />
  <circle cx="435.4" cy="312.0" r="3" fill="black" />
  <circle cx="390.4" cy="304.3" r="3" fill="black" />
  <circle cx="408.6" cy="306.2" r="3" fill="black" />
  <circle cx="573.2" cy="460.3" r="3" fill="black" />
  <circle cx="568.4" cy="436.4" r="3" fill="black" />
  <circle cx="444.0" cy="312.9" r="3" fill="black" />
  <circle cx="406.7" cy="310.0" r="3" fill="black" />
  <circle cx="390.4" cy="305.3" r="3" fill="black" />
  <circle cx="392.3" cy="311.0" r="3" fill="black" />
  <circle cx="391.4" cy="304.3" r="3" fill="black" />
  <circle cx="559.8" cy="408.6" r="3" fill="black" />
  <circle cx="529.2" cy="371.3" r="3" fill="black" />
  <circle cx="569.4" cy="445.0" r="3" fill="black" />
  <circle cx="572.2" cy="456.5" r="3" fill="black" />
  <circle cx="452.6" cy="317.7" r="3" fill="black" />
  <circle cx="550.2" cy="390.4" r="3" fill="black" />
  <circle cx="489.0" cy="334.9" r="3" fill="black" />
  <circle cx="427.8" cy="313.9" r="3" fill="black" />
  <polyline points="575.1,472.7 574.2,471.8 572.2,469.9 569.4,467.0 565.6,463.2 560.8,458.4 556.9,452.6 554.1,445.9 552.2,438.3 551.2,429.7 551.2,420.1 552.2,409.6 554.1,400.0 556.9,391.4 558.9,383.7 559.8,377.0 559.8,371.3 558.9,366.5 557.9,362.7 557.9,359.8 557.9,357.9 557.9,356.9 557.9,356.9 557.9,357.9 557.9,359.8 557.9,362.7 557.9,366.5 557.9,371.3 557.9,377.0 557.9,383.7 557.9,391.4 557.9,400.0 557.9,407.7 557.9,414.4 557.9,420.1 557.9,424.9 557.9,428.7 557.9,431.6 557.9,433.5 557.9,434.4 557.9,434.4 557.9,433.5 557.9,431.6 557.9,428.7 557.9,424.9 557.9,420.1 557.9,414.4 557.9,407.7 557.9,401.9 557.9,397.1 557.9,393.3 557.9,390.4 557.9,388.5 557.9,387.6 557.9,387.6 557.9,388.5 557.9,390.4 557.9,393.3 557.9,397.1 557.9,401.9 557.9,405.7 557.9,408.6 557.9,410.5 557.9,411.5 557.9,411.5 557.9,410.5 557.9,408.6 557.9,405.7 557.9,402.9 556.9,399.0 555.0,394.3 552.2,388.5 548.3,381.8 543.5,374.2 537.8,365.6 531.1,356.0 523.4,345.5 514.8,334.0 505.3,321.5 494.7,308.1 483.3,295.7 470.8,284.2 457.4,273.7 443.1,264.1 427.8,255.5 411.5,247.8 394.3,241.1 378.0,235.4 362.7,230.6 348.3,226.8 334.9,223.9 322.5,222.0 311.0,221.1 300.5,221.1 290.9,222.0 282.3,223.9 274.6,226.8 267.9,230.6 262.2,235.4 257.4,241.1 253.6,247.8 250.7,255.5 248.8,264.1 247.8,273.7 247.8,284.2 248.8,295.7 250.7,306.2 253.6,315.8 257.4,324.4 262.2,332.1 267.9,338.8 274.6,344.5 282.3,349.3 290.9,353.1 300.5,356.0 311.0,357.9 322.5,358.9 334.9,358.9 348.3,357.9 362.7,356.0 378.0,353.1 392.3,349.3 405.7,344.5 418.2,338.8 429.7,332.1 440.2,324.4 449.8,315.8 458.4,306.2 466.0,297.6 472.7,290.0 478.5,283.3 483.3,277.5 487.1,272.7 490.0,268.9 491.9,266.0 492.8,264.1 492.8,263.2 491.9,263.2 490.0,264.1 487.1,266.0 483.3,268.9 478.5,272.7 472.7,277.5 466.0,283.3 458.4,290.0 449.8,297.6 440.2,305.3 429.7,312.0 418.2,317.7 405.7,322.5 392.3,326.3 379.9,329.2 368.4,331.1 357.9,332.1 348.3,332.1 339.7,331.1 332.1,329.2 325.4,326.3 319.6,322.5 314.8,317.7 311.0,312.0 308.1,305.3 306.2,299.5 305.3,294.7 305.3,290.9 306.2,288.0 308.1,286.1 311.0,285.2 314.8,285.2 319.6,286.1 325.4,288.0 332.1,290.9 339.7,294.7 348.3,299.5 357.9,305.3 368.4,310.0 379.9,313.9 390.4,316.7 400.0,318.7 408.6,319.6 416.3,319.6 423.0,318.7 428.7,316.7 433.5,313.9 437.3,310.0 440.2,305.3 442.1,301.4 443.1,298.6 443.1,296.7 442.1,295.7 440.2,295.7 437.3,296.7 433.5,298.6 428.7,301.4 423.0,305.3 416.3,308.1 408.6,310.0 400.0,311.0 390.4,311.0 381.8,310.0 374.2,308.1 367.5,305.3 361.7,303.3 356.9,302.4 353.1,302.4 350.2,303.3 348.3,305.3 347.4,306.2 347.4,306.2 348.3,305.3 350.2,305.3 353.1,305.3 356.9,305.3 361.7,305.3 367.5,305.3 374.2,305.3 381.8,305.3 389.5,305.3 398.1,306.2 407.7,307.2 417.2,307.2 425.8,308.1 433.5,310.0 440.2,311.0 445.9,311.0 450.7,311.0 454.5,311.0 457.4,311.0 459.3,311.0 460.3,311.0 460.3,311.0 459.3,311.0 457.4,311.0 454.5,311.0 450.7,311.0 445.9,311.0 440.2,311.0 433.5,311.0 425.8,311.0 417.2,311.0 407.7,311.0 397.1,311.0 387.6,311.0 378.9,311.0 371.3,311.0 364.6,311.0 358.9,311.0 354.1,311.0 350.2,311.0 347.4,311.0 345.5,311.0 344.5,311.0 344.5,311.0 345.5,311.0 347.4,311.0 350.2,311.0 354.1,311.0 358.9,311.0 364.6,311.0 371.3,311.0 378.9,311.0 387.6,311.0 395.2,311.0 401.9,311.0 407.7,311.0 412.4,311.0 416.3,311.0 419.1,311.0 421.1,311.0 422.0,311.0 422.0,311.0 421.1,311.0 419.1,311.0 416.3,311.0 412.4,311.0 407.7,311.0 401.9,311.0 395.2,311.0 389.5,311.0 384.7,311.0 380.9,311.0 378.0,311.0 376.1,311.0 375.1,311.0 375.1,311.0 376.1,311.0 378.0,311.0 380.9,311.0 384.7,311.0 389.5,311.0 393.3,311.0 396.2,311.0 398.1,311.0 399.0,311.0 399.0,311.0 398.1,311.0 396.2,311.0 393.3,311.0 391.4,311.0 390.4,311.0 390.4,311.0 391.4,311.0 392.3,311.0 394.3,312.0 397.1,312.0 401.0,312.0 405.7,312.0 411.5,312.0 418.2,312.0 423.9,312.0 428.7,312.0 432.5,312.0 435.4,312.0 437.3,312.0 438.3,312.0 438.3,312.0 437.3,312.0 435.4,312.0 432.5,312.0 428.7,312.0 423.9,312.0 420.1,312.0 417.2,312.0 415.3,312.0 414.4,312.0 414.4,312.0 415.3,312.0 417.2,312.0 420.1,312.0 422.0,312.0 423.0,311.0 423.0,309.1 422.0,308.1 420.1,308.1 417.2,308.1 413.4,308.1 408.6,308.1 404.8,308.1 401.9,308.1 400.0,308.1 399.0,308.1 399.0,308.1 400.0,308.1 401.9,308.1 404.8,308.1 407.7,308.1 411.5,309.1 416.3,311.0 422.0,313.9 428.7,317.7 436.4,322.5 445.0,328.2 454.5,334.9 465.1,342.6 476.6,351.2 489.0,360.8 502.4,371.3 516.7,380.9 532.1,389.5 546.4,397.1 559.8,403.8 572.2,409.6 583.7,414.4 594.3,418.2 603.8,421.1 612.4,423.0 620.1,423.9 626.8,423.9 632.5,423.0 637.3,421.1 641.1,418.2 644.0,414.4 645.9,409.6 646.9,403.8 646.9,397.1 645.9,389.5 644.0,380.9 641.1,373.2 637.3,366.5 632.5,360.8 626.8,356.0 620.1,352.2 612.4,349.3 603.8,347.4 594.3,346.4 583.7,346.4 572.2,347.4 559.8,349.3 546.4,352.2 532.1,356.0 518.7,360.8 506.2,366.5 494.7,373.2 484.2,378.9 474.6,383.7 466.0,387.6 458.4,390.4 451.7,392.3 445.9,393.3 441.1,393.3 437.3,392.3 434.4,390.4 432.5,387.6 431.6,383.7 431.6,378.9 432.5,375.1 434.4,372.2 437.3,370.3 441.1,369.4 445.9,369.4 451.7,370.3 458.4,372.2 466.0,375.1 474.6,377.0 484.2,378.0 494.7,378.0 506.2,377.0 518.7,375.1 532.1,374.2 544.5,374.2 556.0,375.1 566.5,375.1 576.1,375.1 584.7,375.1 592.3,375.1 599.0,375.1 604.8,375.1 609.6,375.1 613.4,375.1 616.3,375.1 618.2,375.1 619.1,375.1 619.1,375.1 618.2,375.1 616.3,375.1 613.4,375.1 609.6,375.1 604.8,375.1 599.0,375.1 592.3,375.1 584.7,375.1 576.1,375.1 566.5,375.1 556.0,375.1 544.5,375.1 532.1,375.1 520.6,376.1 510.0,378.0 500.5,380.9 491.9,384.7 484.2,389.5 477.5,395.2 471.8,401.9 467.0,409.6 463.2,418.2 460.3,427.8 458.4,438.3 457.4,449.8 457.4,460.3 458.4,469.9 460.3,478.5 463.2,486.1 467.0,492.8 471.8,498.6 477.5,503.3 484.2,507.2 491.9,510.0 500.5,512.0 510.0,512.9 520.6,512.9 532.1,512.0 544.5,510.0 557.9,507.2 572.2,503.3 585.6,498.6 598.1,492.8 609.6,486.1 620.1,478.5 629.7,469.9 638.3,460.3 645.9,451.7 652.6,444.0 658.4,437.3 663.2,431.6 667.0,426.8 669.9,423.0 671.8,420.1 672.7,418.2 672.7,417.2 671.8,417.2 669.9,418.2 667.0,420.1 663.2,423.0 658.4,426.8 652.6,431.6 645.9,437.3 638.3,444.0 629.7,451.7 620.1,458.4 609.6,464.1 598.1,468.9 585.6,472.7 572.2,475.6 559.8,477.5 548.3,478.5 537.8,478.5 528.2,477.5 519.6,475.6 512.0,472.7 505.3,468.9 499.5,464.1 494.7,458.4 490.9,452.6 488.0,447.8 486.1,444.0 485.2,441.1 485.2,439.2 486.1,438.3 488.0,438.3 490.9,439.2 494.7,441.1 499.5,444.0 505.3,447.8 512.0,452.6 519.6,456.5 528.2,459.3 537.8,461.2 548.3,462.2 559.8,462.2 572.2,461.2 583.7,459.3 594.3,456.5 603.8,452.6 612.4,449.8 620.1,447.8 626.8,446.9 632.5,446.9 637.3,447.8 641.1,449.8 644.0,452.6 645.9,454.5 646.9,455.5 646.9,455.5 645.9,454.5 644.0,452.6 641.1,451.7 637.3,451.7 632.5,452.6 626.8,452.6 620.1,452.6 612.4,452.6 603.8,452.6 594.3,452.6 583.7,452.6 572.2,452.6 559.8,451.7 546.4,449.8 532.1,446.9 516.7,443.1 500.5,438.3 483.3,432.5 465.1,425.8 447.8,418.2 431.6,409.6 416.3,400.0 401.9,389.5 388.5,378.0 376.1,365.6 364.6,352.2 354.1,337.8 344.5,322.5 335.9,308.1 328.2,294.7 321.5,282.3 315.8,270.8 311.0,260.3 307.2,250.7 304.3,242.1 302.4,234.4 301.4,227.8 301.4,222.0 302.4,217.2 304.3,213.4 307.2,210.5 311.0,208.6 315.8,207.7 321.5,207.7 328.2,208.6 335.9,210.5 344.5,213.4 354.1,217.2 364.6,222.0 376.1,227.8 388.5,234.4 401.9,242.1 416.3,250.7 431.6,260.3 447.8,270.8 463.2,282.3 477.5,294.7 490.9,308.1 503.3,320.6 514.8,332.1 525.4,342.6 534.9,352.2 543.5,360.8 551.2,368.4 557.9,375.1 563.6,380.9 568.4,385.6 572.2,389.5 575.1,392.3 577.0,394.3 578.0,395.2 578.0,395.2 577.0,394.3 575.1,392.3 572.2,389.5 568.4,385.6 563.6,380.9 557.9,375.1 551.2,368.4 543.5,360.8 534.9,352.2 525.4,342.6 514.8,332.1 503.3,320.6 490.9,310.0 477.5,300.5 463.2,291.9 449.8,284.2 437.3,277.5 425.8,271.8 415.3,267.0 405.7,263.2 397.1,260.3 389.5,258.4 382.8,257.4 377.0,257.4 372.2,258.4 368.4,260.3 365.6,263.2 363.6,267.0 362.7,271.8 362.7,277.5 363.6,284.2 365.6,291.9 368.4,300.5 372.2,310.0 377.0,318.7 382.8,326.3 389.5,333.0 397.1,338.8 405.7,343.5 415.3,347.4 425.8,350.2 437.3,352.2 449.8,353.1 461.2,353.1 471.8,352.2 481.3,350.2 490.0,347.4 497.6,343.5 504.3,338.8 510.0,333.0 514.8,326.3 518.7,318.7 521.5,312.0 523.4,306.2 524.4,301.4 524.4,297.6 523.4,294.7 521.5,292.8 518.7,291.9 514.8,291.9 510.0,292.8 504.3,294.7 497.6,297.6 490.0,301.4 481.3,306.2 471.8,312.0 461.2,317.7 451.7,322.5 443.1,326.3 435.4,329.2 428.7,331.1 423.0,332.1 418.2,332.1 414.4,331.1 411.5,329.2 409.6,326.3 408.6,322.5 408.6,317.7 409.6,313.9 411.5,311.0 414.4,309.1 418.2,308.1 423.0,308.1 428.7,309.1 435.4,311.0 443.1,313.9 451.7,317.7 459.3,320.6 466.0,322.5 471.8,323.4 476.6,323.4 480.4,322.5 483.3,320.6 485.2,317.7 486.1,315.8 486.1,314.8 485.2,314.8 483.3,315.8 480.4,317.7 476.6,318.7 471.8,318.7 466.0,317.7 459.3,317.7 452.6,317.7 445.0,316.7 436.4,314.8 426.8,312.0 416.3,308.1 406.7,305.3 398.1,303.3 390.4,302.4 383.7,302.4 378.0,303.3 373.2,305.3 369.4,306.2 366.5,306.2 364.6,305.3 363.6,305.3 363.6,305.3 364.6,305.3 366.5,305.3 369.4,305.3 373.2,305.3 378.0,305.3 383.7,305.3 390.4,305.3 398.1,305.3 406.7,305.3 414.4,305.3 423.0,306.2 432.5,308.1 443.1,311.0 454.5,314.8 465.1,319.6 474.6,323.4 483.3,326.3 490.9,328.2 497.6,329.2 503.3,329.2 508.1,328.2 512.0,326.3 514.8,323.4 516.7,320.6 517.7,318.7 517.7,317.7 516.7,317.7 514.8,318.7 512.0,320.6 508.1,321.5 503.3,321.5 497.6,320.6 490.9,320.6 483.3,320.6 474.6,320.6 465.1,320.6 456.5,320.6 446.9,319.6 436.4,317.7 424.9,314.8 412.4,311.0 401.0,306.2 390.4,302.4 380.9,299.5 372.2,297.6 364.6,296.7 357.9,296.7 352.2,297.6 347.4,299.5 343.5,302.4 340.7,304.3 338.8,305.3 337.8,305.3 337.8,304.3 338.8,303.3 340.7,303.3 343.5,303.3 347.4,303.3 352.2,303.3 357.9,303.3 364.6,303.3 372.2,303.3 380.9,303.3 390.4,303.3 401.0,303.3 410.5,303.3 421.1,304.3 430.6,306.2 439.2,309.1 446.9,312.9 453.6,315.8 459.3,317.7 464.1,318.7 467.9,318.7 470.8,317.7 472.7,315.8 473.7,313.9 473.7,312.9 472.7,312.9 470.8,313.9 467.9,313.9 464.1,313.9 459.3,313.9 453.6,313.9 446.9,313.9 439.2,313.9 430.6,313.9 423.0,313.9 416.3,313.9 410.5,313.9 405.7,313.9 401.9,313.9 399.0,313.9 397.1,313.9 396.2,313.9 396.2,313.9 397.1,313.9 399.0,313.9 401.9,313.9 405.7,313.9 410.5,313.9 416.3,313.9 423.0,313.9 428.7,313.9 433.5,313.9 437.3,313.9 440.2,313.9 442.1,313.9 443.1,313.9 443.1,313.9 442.1,313.9 440.2,313.9 437.3,313.9 433.5,313.9 428.7,313.9 424.9,313.9 422.0,313.9 420.1,313.9 419.1,313.9 419.1,313.9 420.1,313.9 422.0,313.9 424.9,313.9 426.8,313.9 427.8,313.9 427.8,313.9 426.8,313.9 425.8,313.9 425.8,314.8 426.8,316.7 428.7,319.6 431.6,323.4 435.4,328.2 440.2,334.0 445.9,340.7 452.6,348.3 460.3,356.9 468.9,364.6 478.5,371.3 489.0,377.0 500.5,381.8 512.9,385.6 524.4,388.5 534.9,390.4 544.5,391.4 553.1,391.4 560.8,390.4 567.5,388.5 573.2,385.6 578.0,381.8 581.8,377.0 584.7,371.3 586.6,364.6 587.6,358.9 587.6,354.1 586.6,350.2 584.7,347.4 581.8,345.5 578.0,344.5 573.2,344.5 567.5,345.5 560.8,347.4 553.1,350.2 544.5,354.1 534.9,358.9 524.4,362.7 514.8,365.6 506.2,367.5 498.6,368.4 491.9,368.4 486.1,367.5 481.3,365.6 477.5,362.7 474.6,360.8 472.7,359.8 471.8,359.8 471.8,360.8 472.7,361.7 474.6,361.7 477.5,361.7 481.3,361.7 486.1,361.7 491.9,361.7 498.6,361.7 506.2,361.7 514.8,361.7 522.5,361.7 529.2,361.7 534.9,361.7 539.7,361.7 543.5,361.7 546.4,361.7 548.3,361.7 549.3,361.7 549.3,361.7 548.3,361.7 546.4,361.7 543.5,361.7 539.7,361.7 534.9,361.7 529.2,361.7 522.5,361.7 516.7,361.7 512.0,361.7 508.1,361.7 505.3,361.7 503.3,361.7 502.4,361.7 502.4,361.7 503.3,361.7 505.3,361.7 508.1,361.7 512.0,361.7 516.7,361.7 520.6,361.7 523.4,361.7 525.4,361.7 526.3,361.7 526.3,361.7 525.4,361.7 523.4,361.7 520.6,361.7 517.7,361.7 513.9,360.8 509.1,358.9 503.3,356.0 496.7,352.2 489.0,347.4 480.4,341.6 470.8,334.9 460.3,327.3 448.8,318.7 438.3,311.0 428.7,304.3 420.1,298.6 412.4,293.8 405.7,290.0 400.0,287.1 395.2,285.2 391.4,284.2 388.5,284.2 386.6,285.2 385.6,287.1 385.6,290.0 386.6,293.8 388.5,298.6 391.4,304.3 395.2,311.0 400.0,316.7 405.7,321.5 412.4,325.4 420.1,328.2 428.7,330.1 438.3,331.1 447.8,331.1 456.5,330.1 464.1,328.2 470.8,325.4 476.6,321.5 481.3,316.7 485.2,312.9 488.0,310.0 490.0,308.1 490.9,307.2 490.9,307.2 490.0,308.1 488.0,310.0 485.2,312.9 481.3,314.8 476.6,315.8 470.8,315.8 464.1,314.8 456.5,314.8 447.8,314.8 440.2,315.8 433.5,317.7 427.8,320.6 423.0,324.4 419.1,329.2 416.3,334.9 414.4,341.6 413.4,349.3 413.4,357.9 414.4,367.5 416.3,378.0 419.1,387.6 423.0,396.2 427.8,403.8 433.5,410.5 440.2,416.3 447.8,421.1 456.5,424.9 466.0,427.8 476.6,429.7 488.0,430.6 500.5,430.6 513.9,429.7 528.2,427.8 541.6,424.9 554.1,421.1 565.6,416.3 576.1,410.5 585.6,403.8 594.3,396.2 601.9,387.6 608.6,379.9 614.4,373.2 619.1,367.5 623.0,362.7 625.8,358.9 627.8,356.0 628.7,354.1 628.7,353.1 627.8,353.1 625.8,354.1 623.0,356.0 619.1,358.9 614.4,362.7 608.6,367.5 601.9,373.2 594.3,379.9 585.6,385.6 576.1,390.4 565.6,394.3 554.1,397.1 541.6,399.0 530.1,400.0 519.6,400.0 510.0,399.0 501.4,397.1 493.8,394.3 487.1,390.4 481.3,385.6 476.6,380.9 472.7,377.0 469.9,374.2 467.9,372.2 467.0,371.3 467.0,371.3 467.9,372.2 469.9,374.2 472.7,377.0 476.6,380.9 481.3,383.7 487.1,385.6 493.8,386.6 501.4,386.6 510.0,385.6 519.6,383.7 530.1,380.9 539.7,378.9 548.3,378.0 556.0,378.0 562.7,378.9 568.4,380.9 573.2,381.8 577.0,381.8 579.9,380.9 581.8,380.9 582.8,380.9 582.8,380.9 581.8,380.9 579.9,380.9 577.0,380.9 573.2,380.9 568.4,380.9 562.7,380.9 556.0,380.9 548.3,380.9 539.7,380.9 532.1,380.9 525.4,380.9 519.6,380.9 514.8,380.9 511.0,380.9 508.1,380.9 506.2,380.9 505.3,380.9 505.3,380.9 506.2,380.9 508.1,380.9 511.0,380.9 514.8,380.9 519.6,380.9 525.4,380.9 532.1,380.9 537.8,380.9 544.5,381.8 550.2,383.7 555.0,386.6 558.9,390.4 561.7,393.3 563.6,395.2 564.6,396.2 564.6,396.2 563.6,395.2 561.7,393.3 558.9,390.4 555.0,388.5 550.2,387.6 546.4,387.6 543.5,388.5 541.6,390.4 540.7,391.4 540.7,391.4 541.6,390.4 543.5,390.4 546.4,390.4 550.2,390.4 555.0,391.4 560.8,393.3 567.5,396.2 573.2,400.0 578.0,404.8 581.8,410.5 584.7,417.2 586.6,424.9 587.6,431.6 587.6,437.3 586.6,442.1 584.7,445.9 581.8,448.8 578.0,450.7 573.2,451.7 567.5,451.7 562.7,450.7 558.9,448.8 556.0,445.9 554.1,442.1 553.1,437.3 553.1,431.6 554.1,426.8 556.0,423.0 558.9,420.1 562.7,418.2 567.5,417.2 571.3,417.2 574.2,418.2 576.1,420.1 577.0,423.0 577.0,426.8 576.1,431.6 574.2,435.4 571.3,438.3 567.5,440.2 564.6,441.1 562.7,441.1 561.7,440.2 561.7,438.3 562.7,435.4 564.6,431.6 567.5,428.7 569.4,426.8 570.3,425.8 570.3,425.8 569.4,426.8 567.5,428.7 566.5,431.6 566.5,433.5 567.5,434.4 567.5,434.4 567.5,433.5 567.5,431.6 566.5,428.7 564.6,424.9 561.7,420.1 557.9,414.4 553.1,407.7 547.4,400.0 540.7,391.4 533.0,381.8 524.4,371.3 514.8,359.8 506.2,349.3 498.6,339.7 491.9,331.1 486.1,323.4 481.3,316.7 477.5,311.0 474.6,306.2 472.7,302.4 471.8,299.5 471.8,297.6 472.7,296.7 474.6,296.7 477.5,297.6 481.3,299.5 486.1,302.4 491.9,306.2 498.6,311.0 506.2,316.7 512.9,323.4 518.7,331.1 523.4,339.7 527.3,349.3 530.1,357.9 532.1,365.6 533.0,372.2 533.0,378.0 532.1,382.8 530.1,386.6 527.3,389.5 523.4,391.4 518.7,392.3 512.9,392.3 508.1,391.4 504.3,389.5 501.4,386.6 499.5,382.8 498.6,378.0 498.6,372.2 499.5,365.6 501.4,357.9 504.3,351.2 508.1,345.5 511.0,340.7 512.9,336.8 513.9,334.0 513.9,332.1 512.9,331.1 511.0,331.1 510.0,332.1 510.0,334.0 510.0,336.8 510.0,340.7 510.0,345.5 510.0,351.2 510.0,356.0 511.0,361.7 512.9,368.4 515.8,376.1 519.6,384.7 524.4,394.3 530.1,404.8 536.8,414.4 544.5,423.0 553.1,430.6 560.8,437.3 567.5,443.1 573.2,447.8 578.0,451.7 581.8,454.5 584.7,456.5 586.6,457.4 587.6,457.4 587.6,456.5 586.6,454.5 584.7,451.7 581.8,447.8 578.0,443.1 573.2,437.3 567.5,430.6 560.8,423.0 555.0,414.4 550.2,406.7 546.4,400.0 543.5,394.3 541.6,389.5 540.7,385.6 540.7,382.8 541.6,380.9 543.5,379.9 546.4,379.9 550.2,380.9 555.0,382.8 559.8,385.6 563.6,389.5 566.5,394.3 568.4,400.0 569.4,406.7 569.4,412.4 568.4,417.2 566.5,421.1 563.6,423.9 559.8,425.8 556.9,426.8 555.0,426.8 554.1,425.8 554.1,423.9 555.0,421.1 556.9,417.2 559.8,412.4 561.7,408.6 562.7,405.7 562.7,403.8 561.7,402.9 559.8,402.9 558.9,403.8 558.9,405.7 559.8,408.6 561.7,412.4 564.6,417.2 566.5,423.0 567.5,427.8 567.5,431.6 566.5,434.4 565.6,436.4 565.6,437.3 565.6,437.3 565.6,436.4 565.6,434.4 565.6,431.6 565.6,427.8 565.6,424.9 565.6,423.0 565.6,422.0 565.6,422.0 565.6,423.0 565.6,424.9 565.6,425.8 564.6,425.8 562.7,424.9 559.8,423.0 556.0,420.1 551.2,416.3 545.5,411.5 538.8,405.7 531.1,399.0 522.5,391.4 512.9,382.8 502.4,373.2 490.9,362.7 478.5,351.2 465.1,338.8 452.6,327.3 441.1,316.7 430.6,307.2 421.1,298.6 412.4,290.9 404.8,284.2 398.1,278.5 392.3,273.7 387.6,269.9 383.7,267.0 380.9,265.1 378.9,264.1 378.0,264.1 378.0,265.1 378.9,267.0 380.9,269.9 383.7,273.7 387.6,278.5 392.3,284.2 398.1,290.9 404.8,298.6 412.4,307.2 421.1,316.7 430.6,327.3 441.1,336.8 452.6,345.5 465.1,353.1 476.6,359.8 487.1,365.6 496.7,370.3 505.3,374.2 512.9,377.0 519.6,378.9 525.4,379.9 530.1,379.9 534.0,378.9 536.8,377.0 538.8,374.2 539.7,370.3 539.7,365.6 538.8,359.8 536.8,353.1 534.0,345.5 530.1,336.8 525.4,328.2 519.6,320.6 512.9,313.9 505.3,308.1 496.7,303.3 487.1,299.5 476.6,296.7 465.1,294.7 454.5,293.8 445.0,293.8 436.4,294.7 428.7,296.7 422.0,299.5 416.3,303.3 411.5,308.1 407.7,313.9 404.8,320.6 402.9,328.2 401.9,334.9 401.9,340.7 402.9,345.5 404.8,349.3 407.7,352.2 411.5,354.1 416.3,355.0 422.0,355.0 428.7,354.1 436.4,352.2 445.0,349.3 454.5,345.5 465.1,340.7 474.6,334.9 483.3,328.2 490.9,322.5 497.6,317.7 503.3,313.9 508.1,311.0 512.0,309.1 514.8,308.1 516.7,308.1 517.7,309.1 517.7,311.0 516.7,313.9 514.8,317.7 512.0,322.5 508.1,328.2 503.3,333.0 497.6,336.8 490.9,339.7 483.3,341.6 474.6,342.6 465.1,342.6 456.5,341.6 448.8,339.7 442.1,336.8 436.4,333.0 431.6,328.2 427.8,324.4 424.9,321.5 423.0,319.6 422.0,318.7 422.0,318.7 423.0,319.6 424.9,321.5 427.8,324.4 431.6,328.2 436.4,331.1 442.1,333.0 448.8,334.0 456.5,334.0 465.1,333.0 472.7,331.1 479.4,328.2 485.2,326.3 490.0,325.4 493.8,325.4 496.7,326.3 498.6,328.2 499.5,329.2 499.5,329.2 498.6,328.2 496.7,328.2 493.8,328.2 490.0,328.2 485.2,328.2 479.4,328.2 472.7,328.2 465.1,328.2 456.5,327.3 446.9,325.4 436.4,322.5 424.9,318.7 412.4,313.9 399.0,308.1 386.6,303.3 375.1,299.5 364.6,296.7 355.0,294.7 346.4,293.8 338.8,293.8 332.1,294.7 326.3,296.7 321.5,299.5 317.7,303.3 314.8,306.2 312.9,308.1 312.0,309.1 312.0,309.1 312.9,308.1 314.8,306.2 317.7,305.3 321.5,305.3 326.3,306.2 332.1,306.2 338.8,306.2 346.4,306.2 355.0,306.2 364.6,306.2 375.1,306.2 386.6,306.2 399.0,307.2 412.4,309.1 426.8,312.0 442.1,315.8 458.4,320.6 473.7,324.4 488.0,327.3 501.4,329.2 513.9,330.1 525.4,330.1 535.9,329.2 545.5,327.3 554.1,324.4 561.7,322.5 568.4,321.5 574.2,321.5 578.9,322.5 582.8,324.4 585.6,325.4 587.6,325.4 588.5,324.4 588.5,324.4 587.6,324.4 585.6,324.4 582.8,324.4 578.9,324.4 574.2,324.4 568.4,324.4 561.7,324.4 554.1,324.4 545.5,324.4 535.9,324.4 525.4,324.4 513.9,324.4 501.4,324.4 488.0,324.4 473.7,324.4 460.3,324.4 447.8,325.4 436.4,327.3 425.8,330.1 416.3,334.0 407.7,338.8 400.0,344.5 393.3,349.3 387.6,353.1 382.8,356.0 378.9,357.9 376.1,358.9 374.2,358.9 373.2,357.9 373.2,356.0 374.2,353.1 376.1,349.3 378.9,344.5 382.8,340.7 387.6,337.8 393.3,335.9 400.0,334.9 407.7,334.9 416.3,335.9 425.8,337.8 436.4,340.7 447.8,344.5 460.3,347.4 473.7,349.3 488.0,350.2 502.4,350.2 515.8,349.3 528.2,347.4 539.7,344.5 550.2,342.6 559.8,341.6 568.4,341.6 576.1,342.6 582.8,344.5 588.5,345.5 593.3,345.5 597.1,344.5 600.0,344.5 601.9,344.5 602.9,344.5 602.9,344.5 601.9,344.5 600.0,344.5 597.1,344.5 593.3,344.5 588.5,344.5 582.8,344.5 576.1,344.5 568.4,344.5 559.8,344.5 550.2,344.5 539.7,344.5 528.2,344.5 515.8,344.5 502.4,344.5 490.0,345.5 478.5,347.4 467.9,350.2 458.4,354.1 449.8,358.9 442.1,364.6 435.4,371.3 429.7,378.9 424.9,387.6 421.1,397.1 418.2,407.7 416.3,419.1 415.3,431.6 415.3,443.1 416.3,453.6 418.2,463.2 421.1,471.8 424.9,479.4 429.7,486.1 435.4,491.9 442.1,496.7 449.8,500.5 458.4,503.3 467.9,505.3 478.5,506.2 490.0,506.2 502.4,505.3 515.8,503.3 530.1,500.5 545.5,496.7 561.7,491.9 577.0,486.1 591.4,479.4 604.8,471.8 617.2,463.2 628.7,453.6 639.2,443.1 648.8,433.5 657.4,424.9 665.1,417.2 671.8,410.5 677.5,404.8 682.3,400.0 686.1,396.2 689.0,393.3 690.9,391.4 691.9,390.4 691.9,390.4 690.9,391.4 689.0,393.3 686.1,396.2 682.3,400.0 677.5,404.8 671.8,410.5 665.1,417.2 657.4,424.9 648.8,433.5 639.2,441.1 628.7,447.8 617.2,453.6 604.8,458.4 591.4,462.2 577.0,465.1 563.6,467.0 551.2,467.9 539.7,467.9 529.2,467.0 519.6,465.1 511.0,462.2 503.3,458.4 496.7,453.6 490.9,447.8 486.1,441.1 482.3,435.4 479.4,430.6 477.5,426.8 476.6,423.9 476.6,422.0 477.5,421.1 479.4,421.1 482.3,422.0 486.1,423.9 490.9,426.8 496.7,430.6 503.3,435.4 511.0,440.2 519.6,444.0 529.2,446.9 539.7,448.8 551.2,449.8 563.6,449.8 575.1,448.8 585.6,446.9 595.2,444.0 603.8,440.2 611.5,437.3 618.2,435.4 623.9,434.4 628.7,434.4 632.5,435.4 635.4,437.3 637.3,440.2 638.3,442.1 638.3,443.1 637.3,443.1 635.4,442.1 632.5,440.2 628.7,439.2 623.9,439.2 618.2,440.2 611.5,440.2 603.8,440.2 595.2,440.2 585.6,440.2 575.1,440.2 565.6,440.2 556.9,440.2 549.3,440.2 542.6,440.2 536.8,440.2 532.1,440.2 528.2,440.2 525.4,440.2 523.4,440.2 522.5,440.2 522.5,440.2 523.4,440.2 525.4,440.2 528.2,440.2 532.1,440.2 536.8,440.2 542.6,440.2 549.3,440.2 556.9,440.2 565.6,440.2 573.2,440.2 579.9,440.2 585.6,440.2 590.4,440.2 594.3,440.2 597.1,440.2 599.0,440.2 600.0,440.2 600.0,440.2 599.0,440.2 597.1,440.2 594.3,440.2 590.4,440.2 585.6,440.2 579.9,440.2 573.2,440.2 567.5,440.2 562.7,440.2 558.9,440.2 556.0,440.2 554.1,440.2 553.1,440.2 553.1,440.2 554.1,440.2 556.0,440.2 558.9,440.2 562.7,440.2 567.5,440.2 571.3,440.2 574.2,440.2 576.1,440.2 577.0,440.2 577.0,440.2 576.1,440.2 574.2,440.2 571.3,440.2 568.4,440.2 564.6,439.2 559.8,437.3 554.1,434.4 547.4,430.6 539.7,425.8 531.1,420.1 521.5,413.4 511.0,405.7 501.4,397.1 492.8,387.6 485.2,377.0 478.5,365.6 472.7,353.1 467.9,341.6 464.1,331.1 461.2,321.5 459.3,312.9 458.4,305.3 458.4,298.6 459.3,292.8 461.2,288.0 464.1,284.2 467.9,281.3 472.7,279.4 478.5,278.5 485.2,278.5 492.8,279.4 501.4,281.3 509.1,284.2 515.8,288.0 521.5,292.8 526.3,298.6 530.1,305.3 533.0,312.9 534.9,321.5 535.9,331.1 535.9,341.6 534.9,351.2 533.0,359.8 530.1,367.5 526.3,374.2 521.5,379.9 515.8,384.7 509.1,388.5 503.3,391.4 498.6,393.3 494.7,394.3 491.9,394.3 490.0,393.3 489.0,391.4 489.0,388.5 490.0,384.7 491.9,379.9 494.7,374.2 498.6,367.5 503.3,359.8 507.2,351.2 510.0,343.5 512.0,336.8 512.9,331.1 512.9,326.3 512.0,322.5 510.0,319.6 507.2,317.7 503.3,316.7 500.5,316.7 498.6,317.7 497.6,319.6 497.6,322.5 498.6,326.3 500.5,331.1 503.3,336.8 505.3,343.5 506.2,349.3 506.2,354.1 505.3,357.9 503.3,360.8 502.4,362.7 502.4,363.6 503.3,363.6 503.3,362.7 503.3,360.8 503.3,357.9 503.3,354.1 503.3,349.3 503.3,345.5 503.3,342.6 503.3,340.7 503.3,339.7 503.3,339.7 503.3,340.7 503.3,342.6 503.3,345.5 503.3,348.3 504.3,352.2 506.2,356.9 509.1,362.7 512.9,369.4 517.7,377.0 523.4,385.6 530.1,395.2 537.8,405.7 546.4,417.2 556.0,429.7 566.5,443.1 576.1,457.4 584.7,470.8 592.3,483.3 599.0,494.7 604.8,505.3 609.6,514.8 613.4,523.4 616.3,531.1 618.2,537.8 619.1,543.5 619.1,548.3 618.2,552.2 616.3,555.0 613.4,556.9 609.6,557.9 604.8,557.9 599.0,556.9 592.3,555.0 584.7,552.2 576.1,548.3 568.4,543.5 561.7,537.8 556.0,531.1 551.2,523.4 547.4,514.8 544.5,505.3 542.6,494.7 541.6,483.3 541.6,470.8 542.6,459.3 544.5,448.8 547.4,439.2 551.2,430.6 556.0,423.0 561.7,416.3 568.4,410.5 575.1,405.7 580.9,401.9 585.6,399.0 589.5,397.1 592.3,396.2 594.3,396.2 595.2,397.1 595.2,399.0 594.3,401.9 592.3,405.7 589.5,410.5 585.6,416.3 580.9,423.0 575.1,430.6 570.3,439.2 566.5,448.8 563.6,459.3 561.7,469.9 560.8,479.4 560.8,488.0 561.7,495.7 563.6,502.4 566.5,508.1 570.3,512.9 575.1,516.7 578.9,519.6 581.8,521.5 583.7,522.5 584.7,522.5 584.7,521.5 583.7,519.6 581.8,516.7 578.9,512.9 575.1,508.1 572.2,502.4 570.3,495.7 569.4,488.0 569.4,479.4 570.3,469.9 572.2,461.2 575.1,453.6 577.0,446.9 578.0,441.1 578.0,436.4 577.0,432.5 575.1,429.7 574.2,427.8 574.2,426.8 575.1,426.8 575.1,427.8 575.1,429.7 575.1,432.5 575.1,436.4 575.1,441.1 575.1,446.9 575.1,453.6 575.1,461.2 575.1,469.9 574.2,477.5 572.2,484.2 569.4,490.0 567.5,494.7 566.5,498.6 566.5,501.4 567.5,503.3 568.4,504.3 568.4,504.3 568.4,503.3 568.4,501.4 568.4,498.6 568.4,494.7 568.4,490.0 568.4,484.2 568.4,477.5 568.4,469.9 568.4,461.2 568.4,451.7 568.4,441.1 568.4,431.6 568.4,423.0 568.4,415.3 568.4,408.6 568.4,402.9 568.4,398.1 568.4,394.3 568.4,391.4 568.4,389.5 568.4,388.5 568.4,388.5 568.4,389.5 568.4,391.4 568.4,394.3 568.4,398.1 568.4,402.9 568.4,408.6 568.4,415.3 568.4,423.0 568.4,431.6 568.4,439.2 568.4,445.9 568.4,451.7 568.4,456.5 568.4,460.3 568.4,463.2 568.4,465.1 568.4,466.0 568.4,466.0 568.4,465.1 568.4,463.2 568.4,460.3 568.4,456.5 568.4,451.7 568.4,445.9 568.4,439.2 568.4,433.5 568.4,428.7 568.4,424.9 568.4,422.0 568.4,420.1 568.4,419.1 568.4,419.1 568.4,420.1 568.4,422.0 568.4,424.9 568.4,428.7 568.4,433.5 568.4,437.3 568.4,440.2 568.4,442.1 568.4,443.1 568.4,443.1 568.4,442.1 568.4,440.2 568.4,437.3 568.4,435.4 568.4,434.4 568.4,434.4 568.4,435.4 568.4,436.4 567.5,436.4 565.6,435.4 562.7,433.5 558.9,430.6 554.1,426.8 548.3,422.0 541.6,416.3 534.0,409.6 525.4,401.9 517.7,393.3 511.0,383.7 505.3,373.2 500.5,363.6 496.7,355.0 493.8,347.4 491.9,340.7 490.9,334.9 490.9,330.1 491.9,326.3 493.8,323.4 496.7,321.5 500.5,320.6 505.3,320.6 511.0,321.5 517.7,323.4 525.4,326.3 532.1,330.1 537.8,334.9 542.6,340.7 546.4,347.4 549.3,355.0 551.2,363.6 552.2,371.3 552.2,378.0 551.2,383.7 549.3,388.5 546.4,392.3 542.6,395.2 537.8,397.1 532.1,398.1 525.4,398.1 519.6,397.1 514.8,395.2 511.0,392.3 508.1,388.5 506.2,383.7 505.3,378.0 505.3,371.3 506.2,365.6 508.1,360.8 511.0,356.9 514.8,354.1 519.6,352.2 525.4,351.2 530.1,351.2 534.0,352.2 536.8,354.1 538.8,356.9 539.7,360.8 539.7,365.6 538.8,369.4 536.8,372.2 534.0,374.2 530.1,375.1 525.4,375.1 521.5,374.2 518.7,372.2 516.7,369.4 515.8,367.5 515.8,366.5 516.7,366.5 518.7,367.5 521.5,368.4 525.4,368.4 530.1,369.4 535.9,371.3 542.6,374.2 550.2,378.0 558.9,382.8 566.5,388.5 573.2,395.2 578.9,402.9 583.7,411.5 587.6,421.1 590.4,429.7 592.3,437.3 593.3,444.0 593.3,449.8 592.3,454.5 590.4,458.4 587.6,461.2 583.7,463.2 578.9,464.1 573.2,464.1 566.5,463.2 560.8,461.2 556.0,458.4 552.2,454.5 549.3,449.8 547.4,444.0 546.4,437.3 546.4,429.7 547.4,421.1 549.3,413.4 552.2,406.7 556.0,401.0 560.8,396.2 564.6,392.3 567.5,389.5 569.4,387.6 570.3,386.6 570.3,386.6 569.4,387.6 567.5,389.5 564.6,392.3 562.7,396.2 561.7,401.0 561.7,406.7 562.7,413.4 562.7,421.1 563.6,429.7 565.6,439.2 568.4,449.8 572.2,461.2 575.1,471.8 577.0,481.3 578.0,490.0 578.0,497.6 577.0,504.3 575.1,510.0 574.2,514.8 574.2,518.7 574.2,521.5 574.2,523.4 574.2,524.4 574.2,524.4 574.2,523.4 574.2,521.5 574.2,518.7 574.2,514.8 574.2,510.0 574.2,504.3 574.2,497.6 574.2,490.0 574.2,481.3 574.2,471.8 574.2,463.2 574.2,455.5 574.2,448.8 574.2,443.1 574.2,438.3 574.2,434.4 574.2,431.6 574.2,429.7 574.2,428.7 574.2,428.7 574.2,429.7 574.2,431.6 574.2,434.4 574.2,438.3 574.2,443.1 574.2,448.8 574.2,455.5 574.2,463.2 574.2,469.9 574.2,475.6 574.2,480.4 574.2,484.2 574.2,487.1 574.2,489.0 574.2,490.0 574.2,490.0 574.2,489.0 574.2,487.1 574.2,484.2 574.2,480.4 574.2,475.6 574.2,469.9 574.2,465.1 574.2,461.2 574.2,458.4 574.2,456.5 574.2,455.5 574.2,455.5 574.2,456.5 574.2,458.4 574.2,461.2 574.2,465.1 574.2,467.9 574.2,469.9 574.2,470.8 574.2,470.8 574.2,469.9 574.2,467.9 574.2,466.0 573.2,463.2 571.3,459.3 568.4,454.5 564.6,448.8 559.8,442.1 554.1,434.4 547.4,425.8 539.7,416.3 531.1,405.7 521.5,394.3 511.0,381.8 499.5,368.4 487.1,354.1 473.7,338.8 461.2,324.4 449.8,311.0 439.2,298.6 429.7,287.1 421.1,276.6 413.4,267.0 406.7,258.4 401.0,250.7 396.2,244.0 392.3,238.3 389.5,233.5 387.6,229.7 386.6,226.8 386.6,224.9 387.6,223.9 389.5,223.9 392.3,224.9 396.2,226.8 401.0,229.7 406.7,233.5 413.4,238.3 421.1,244.0 429.7,250.7 439.2,258.4 449.8,267.0 461.2,276.6 473.7,287.1 485.2,298.6 495.7,311.0 505.3,324.4 513.9,336.8 521.5,348.3 528.2,358.9 534.0,368.4 538.8,377.0 542.6,384.7 545.5,391.4 547.4,397.1 548.3,401.9 548.3,405.7 547.4,408.6 545.5,410.5 542.6,411.5 538.8,411.5 534.0,410.5 528.2,408.6 521.5,405.7 513.9,401.9 505.3,397.1 495.7,391.4 485.2,384.7 473.7,377.0 463.2,368.4 453.6,358.9 445.0,348.3 437.3,336.8 430.6,326.3 424.9,316.7 420.1,308.1 416.3,300.5 413.4,293.8 411.5,288.0 410.5,283.3 410.5,279.4 411.5,276.6 413.4,274.6 416.3,273.7 420.1,273.7 424.9,274.6 430.6,276.6 437.3,279.4 445.0,283.3 453.6,288.0 463.2,293.8 473.7,300.5 483.3,308.1 491.9,316.7 499.5,326.3 506.2,334.9 512.0,342.6 516.7,349.3 520.6,355.0 523.4,359.8 525.4,363.6 526.3,366.5 526.3,368.4 525.4,369.4 523.4,369.4 520.6,368.4 516.7,366.5 512.0,363.6 506.2,359.8 499.5,355.0 491.9,349.3 483.3,342.6 473.7,334.9 465.1,328.2 457.4,322.5 450.7,317.7 445.0,313.9 440.2,311.0 436.4,309.1 433.5,308.1 431.6,308.1 430.6,309.1 430.6,311.0 431.6,313.9 433.5,317.7 436.4,322.5 440.2,328.2 445.0,333.0 450.7,336.8 457.4,339.7 465.1,341.6 473.7,342.6 481.3,342.6 488.0,341.6 493.8,339.7 498.6,336.8 502.4,333.0 505.3,330.1 507.2,328.2 508.1,327.3 508.1,327.3 507.2,328.2 505.3,330.1 502.4,333.0 498.6,334.9 493.8,335.9 488.0,335.9 481.3,334.9 473.7,333.0 467.0,332.1 461.2,332.1 456.5,333.0 452.6,334.9 449.8,337.8 447.8,341.6 446.9,346.4 446.9,352.2 447.8,358.9 449.8,366.5 452.6,373.2 456.5,378.9 461.2,383.7 467.0,387.6 473.7,390.4 481.3,392.3 490.0,393.3 499.5,393.3 510.0,392.3 521.5,390.4 532.1,387.6 541.6,383.7 550.2,378.9 557.9,373.2 564.6,368.4 570.3,364.6 575.1,361.7 578.9,359.8 581.8,358.9 583.7,358.9 584.7,359.8 584.7,361.7 583.7,364.6 581.8,368.4 578.9,371.3 575.1,373.2 570.3,374.2 564.6,374.2 557.9,373.2 550.2,371.3 541.6,370.3 532.1,370.3 523.4,371.3 515.8,371.3 509.1,371.3 503.3,371.3 498.6,371.3 494.7,371.3 491.9,371.3 490.0,371.3 489.0,371.3 489.0,371.3 490.0,371.3 491.9,371.3 494.7,371.3 498.6,371.3 503.3,371.3 509.1,371.3 515.8,371.3 523.4,371.3 530.1,371.3 535.9,371.3 540.7,371.3 544.5,371.3 547.4,371.3 549.3,371.3 550.2,371.3 550.2,371.3 549.3,371.3 547.4,371.3 544.5,371.3 540.7,371.3 535.9,371.3 530.1,371.3 525.4,371.3 521.5,371.3 518.7,371.3 516.7,371.3 515.8,371.3 515.8,371.3 516.7,371.3 518.7,371.3 521.5,371.3 525.4,371.3 529.2,371.3 534.0,372.2 539.7,374.2 546.4,377.0 554.1,380.9 562.7,385.6 572.2,391.4 580.9,398.1 588.5,405.7 595.2,414.4 601.0,423.9 605.7,434.4 609.6,445.9 612.4,458.4 614.4,469.9 615.3,480.4 615.3,490.0 614.4,498.6 612.4,506.2 609.6,512.9 605.7,518.7 601.0,523.4 595.2,527.3 588.5,530.1 580.9,532.1 573.2,533.0 566.5,533.0 560.8,532.1 556.0,530.1 552.2,527.3 549.3,523.4 547.4,518.7 546.4,512.9 546.4,506.2 547.4,498.6 549.3,490.0 552.2,480.4 556.0,469.9 560.8,460.3 566.5,451.7 573.2,444.0 578.9,437.3 583.7,431.6 587.6,426.8 590.4,423.0 592.3,420.1 593.3,418.2 593.3,417.2 592.3,417.2 590.4,418.2 587.6,420.1 583.7,423.0 578.9,426.8 573.2,431.6 568.4,437.3 564.6,444.0 561.7,451.7 559.8,460.3 558.9,467.9 558.9,474.6 559.8,480.4 561.7,485.2 564.6,489.0 568.4,491.9 573.2,493.8 577.0,494.7 579.9,494.7 581.8,493.8 582.8,491.9 582.8,489.0 581.8,485.2 579.9,480.4 577.0,474.6 573.2,467.9 570.3,460.3 568.4,453.6 567.5,447.8 567.5,443.1 568.4,439.2 570.3,436.4 573.2,434.4 575.1,433.5 576.1,433.5 576.1,434.4 575.1,436.4 573.2,439.2 572.2,443.1 572.2,447.8 573.2,453.6 573.2,460.3 572.2,466.0 570.3,470.8 567.5,474.6 563.6,477.5 558.9,479.4 553.1,480.4 546.4,480.4 538.8,479.4 530.1,477.5 520.6,474.6 510.0,470.8 500.5,466.0 491.9,460.3 484.2,453.6 477.5,445.9 471.8,437.3 467.0,427.8 463.2,417.2 460.3,405.7 458.4,393.3 457.4,379.9 457.4,365.6 458.4,350.2 460.3,335.9 463.2,322.5 467.0,310.0 471.8,298.6 477.5,288.0 484.2,278.5 491.9,269.9 500.5,262.2 508.1,255.5 514.8,249.8 520.6,245.0 525.4,241.1 529.2,238.3 532.1,236.4 534.0,235.4 534.9,235.4 534.9,236.4 534.0,238.3 532.1,241.1 529.2,245.0 525.4,249.8 520.6,255.5 514.8,262.2 508.1,269.9 500.5,278.5 493.8,288.0 488.0,298.6 483.3,310.0 479.4,322.5 476.6,335.9 474.6,348.3 473.7,359.8 473.7,370.3 474.6,379.9 476.6,388.5 479.4,396.2 483.3,402.9 488.0,408.6 493.8,413.4 500.5,417.2 506.2,420.1 511.0,422.0 514.8,423.0 517.7,423.0 519.6,422.0 520.6,420.1 520.6,417.2 519.6,413.4 517.7,408.6 514.8,402.9 511.0,396.2 506.2,388.5 500.5,379.9 495.7,370.3 491.9,359.8 489.0,348.3 487.1,337.8 486.1,328.2 486.1,319.6 487.1,312.0 489.0,305.3 491.9,299.5 495.7,294.7 500.5,290.9 504.3,288.0 507.2,286.1 509.1,285.2 510.0,285.2 510.0,286.1 509.1,288.0 507.2,290.9 504.3,294.7 500.5,299.5 497.6,305.3 495.7,312.0 494.7,319.6 494.7,328.2 495.7,337.8 497.6,346.4 500.5,354.1 502.4,360.8 503.3,366.5 503.3,371.3 502.4,375.1 500.5,378.0 499.5,379.9 499.5,380.9 500.5,380.9 500.5,379.9 500.5,378.0 500.5,375.1 500.5,371.3 500.5,366.5 500.5,360.8 500.5,354.1 500.5,346.4 500.5,339.7 500.5,334.0 500.5,329.2 500.5,325.4 500.5,322.5 500.5,320.6 500.5,319.6 500.5,319.6 500.5,320.6 500.5,322.5 500.5,325.4 500.5,329.2 500.5,334.0 500.5,339.7 500.5,344.5 500.5,348.3 500.5,351.2 500.5,353.1 500.5,354.1 500.5,354.1 500.5,353.1 500.5,351.2 500.5,348.3 500.5,344.5 500.5,340.7 499.5,335.9 497.6,330.1 494.7,323.4 490.9,315.8 486.1,309.1 480.4,303.3 473.7,298.6 466.0,294.7 457.4,291.9 447.8,290.0 437.3,289.0 425.8,289.0 413.4,290.0 401.9,291.9 391.4,294.7 381.8,298.6 373.2,303.3 365.6,309.1 358.9,313.9 353.1,317.7 348.3,320.6 344.5,322.5 341.6,323.4 339.7,323.4 338.8,322.5 338.8,320.6 339.7,317.7 341.6,313.9 344.5,311.0 348.3,309.1 353.1,308.1 358.9,308.1 365.6,309.1 373.2,311.0 381.8,312.0 391.4,312.0 401.9,312.0 411.5,312.0 420.1,312.0 427.8,312.0 434.4,312.0 440.2,312.0 445.0,312.0 448.8,312.0 451.7,312.0 453.6,312.0 454.5,312.0 454.5,312.0 453.6,312.0 451.7,312.0 448.8,312.0 445.0,312.0 440.2,312.0 434.4,312.0 427.8,312.0 420.1,312.0 411.5,312.0 403.8,312.0 397.1,312.9 391.4,314.8 386.6,317.7 382.8,321.5 379.9,326.3 378.0,332.1 377.0,338.8 377.0,346.4 378.0,355.0 379.9,362.7 382.8,369.4 386.6,375.1 391.4,379.9 397.1,383.7 403.8,386.6 411.5,388.5 420.1,389.5 429.7,389.5 440.2,388.5 451.7,386.6 464.1,383.7 477.5,379.9 491.9,375.1 507.2,369.4 521.5,362.7 534.9,356.9 547.4,352.2 558.9,348.3 569.4,345.5 578.9,343.5 587.6,342.6 595.2,342.6 601.9,343.5 607.7,345.5 612.4,348.3 616.3,352.2 619.1,356.9 621.1,360.8 622.0,363.6 622.0,365.6 621.1,366.5 619.1,366.5 616.3,365.6 612.4,363.6 607.7,360.8 601.9,358.9 595.2,357.9 587.6,357.9 578.9,358.9 569.4,358.9 558.9,358.9 547.4,358.9 534.9,358.9 521.5,358.9 509.1,358.9 497.6,358.9 487.1,358.9 477.5,358.9 468.9,358.9 461.2,358.9 454.5,358.9 448.8,358.9 444.0,358.9 440.2,358.9 437.3,358.9 435.4,358.9 434.4,358.9 434.4,358.9 435.4,358.9 437.3,358.9 440.2,358.9 444.0,358.9 448.8,358.9 454.5,358.9 461.2,358.9 468.9,358.9 477.5,358.9 487.1,358.9 497.6,358.9 509.1,358.9 519.6,358.9 529.2,358.9 537.8,358.9 545.5,358.9 552.2,358.9 557.9,358.9 562.7,358.9 566.5,358.9 569.4,358.9 571.3,358.9 572.2,358.9 572.2,358.9 571.3,358.9 569.4,358.9 566.5,358.9 562.7,358.9 557.9,358.9 552.2,358.9 545.5,358.9 537.8,358.9 529.2,358.9 519.6,358.9 511.0,358.9 503.3,358.9 496.7,358.9 490.9,358.9 486.1,358.9 482.3,358.9 479.4,358.9 477.5,358.9 476.6,358.9 476.6,358.9 477.5,358.9 479.4,358.9 482.3,358.9 486.1,358.9 490.9,358.9 496.7,358.9 503.3,358.9 511.0,358.9 517.7,358.9 523.4,358.9 528.2,358.9 532.1,358.9 534.9,358.9 536.8,358.9 537.8,358.9 537.8,358.9 536.8,358.9 534.9,358.9 532.1,358.9 528.2,358.9 523.4,358.9 517.7,358.9 512.9,358.9 509.1,358.9 506.2,358.9 504.3,358.9 503.3,358.9 503.3,358.9 504.3,358.9 506.2,358.9 509.1,358.9 512.9,358.9 515.8,358.9 517.7,358.9 518.7,358.9 518.7,358.9 517.7,358.9 515.8,358.9 513.9,358.9 511.0,357.9 507.2,356.0 502.4,353.1 496.7,349.3 490.0,344.5 482.3,338.8 473.7,332.1 464.1,324.4 453.6,315.8 442.1,308.1 429.7,301.4 416.3,295.7 403.8,290.9 392.3,287.1 381.8,284.2 372.2,282.3 363.6,281.3 356.0,281.3 349.3,282.3 343.5,284.2 338.8,287.1 334.9,290.9 332.1,295.7 330.1,301.4 329.2,308.1 329.2,313.9 330.1,318.7 332.1,322.5 334.9,325.4 338.8,327.3 343.5,328.2 349.3,328.2 356.0,327.3 363.6,325.4 372.2,322.5 381.8,318.7 392.3,313.9 403.8,308.1 414.4,303.3 423.9,299.5 432.5,296.7 440.2,294.7 446.9,293.8 452.6,293.8 457.4,294.7 461.2,296.7 464.1,299.5 466.0,303.3 467.0,308.1 467.0,312.0 466.0,314.8 464.1,316.7 461.2,317.7 457.4,317.7 452.6,316.7 446.9,314.8 440.2,312.0 432.5,308.1 423.9,305.3 414.4,303.3 405.7,302.4 398.1,302.4 391.4,303.3 385.6,305.3 380.9,308.1 377.0,310.0 374.2,311.0 372.2,311.0 371.3,310.0 371.3,308.1 372.2,307.2 374.2,307.2 377.0,308.1 380.9,308.1 385.6,308.1 391.4,308.1 398.1,308.1 405.7,308.1 412.4,308.1 420.1,309.1 428.7,311.0 438.3,312.9 446.9,313.9 454.5,313.9 461.2,312.9 467.0,312.9 471.8,312.9 475.6,312.9 478.5,312.9 480.4,312.9 481.3,312.9 481.3,312.9 480.4,312.9 478.5,312.9 475.6,312.9 471.8,312.9 467.0,312.9 461.2,312.9 454.5,312.9 446.9,312.9 440.2,312.9 434.4,312.9 429.7,312.9 425.8,312.9 423.0,312.9 421.1,312.9 420.1,312.9 420.1,312.9 421.1,312.9 423.0,312.9 425.8,312.9 429.7,312.9 434.4,312.9 440.2,312.9 445.0,312.9 448.8,312.9 451.7,312.9 453.6,312.9 454.5,312.9 454.5,312.9 453.6,312.9 451.7,312.9 448.8,312.9 445.0,312.9 442.1,312.9 440.2,312.9 439.2,312.9 439.2,312.9 440.2,312.9 442.1,312.9 444.0,312.9 446.9,313.9 450.7,315.8 455.5,318.7 461.2,322.5 467.9,327.3 475.6,333.0 484.2,337.8 491.9,341.6 498.6,344.5 504.3,346.4 509.1,347.4 512.9,347.4 515.8,346.4 517.7,344.5 518.7,341.6 518.7,337.8 517.7,334.9 515.8,333.0 512.9,332.1 509.1,332.1 504.3,333.0 498.6,334.9 491.9,335.9 486.1,335.9 481.3,334.9 477.5,334.9 474.6,334.9 472.7,334.9 471.8,334.9 471.8,334.9 472.7,334.9 474.6,334.9 477.5,334.9 481.3,334.9 486.1,334.9 490.0,334.9 492.8,334.9 494.7,334.9 495.7,334.9 495.7,334.9 494.7,334.9 492.8,334.9 490.0,334.9 488.0,334.9 487.1,334.9 487.1,334.9 488.0,334.9 489.0,334.9 490.9,335.9 493.8,337.8 497.6,340.7 502.4,344.5 508.1,349.3 514.8,355.0 522.5,361.7 531.1,369.4 538.8,378.0 545.5,385.6 551.2,392.3 556.0,398.1 559.8,402.9 562.7,406.7 564.6,409.6 565.6,411.5 565.6,412.4 564.6,412.4 562.7,411.5 559.8,409.6 556.0,406.7 551.2,402.9 545.5,398.1 538.8,392.3 533.0,385.6 528.2,378.0 524.4,371.3 521.5,365.6 519.6,360.8 518.7,356.9 518.7,354.1 519.6,352.2 521.5,351.2 524.4,351.2 528.2,352.2 533.0,354.1 536.8,356.9 539.7,360.8 541.6,365.6 542.6,371.3 542.6,378.0 541.6,383.7 539.7,388.5 536.8,392.3 534.9,395.2 534.0,397.1 534.0,398.1 534.9,398.1 534.9,397.1 534.9,395.2 534.9,392.3 534.9,388.5 534.9,383.7 534.9,378.0 534.0,371.3 532.1,363.6 529.2,355.0 525.4,345.5 520.6,334.9 514.8,323.4 508.1,311.0 500.5,299.5 491.9,289.0 482.3,279.4 471.8,270.8 460.3,263.2 447.8,256.5 434.4,250.7 420.1,245.9 404.8,242.1 390.4,239.2 377.0,237.3 364.6,236.4 353.1,236.4 342.6,237.3 333.0,239.2 324.4,242.1 316.7,245.9 310.0,250.7 304.3,256.5 299.5,263.2 295.7,270.8 292.8,279.4 290.9,289.0 290.0,299.5 290.0,309.1 290.9,317.7 292.8,325.4 295.7,332.1 299.5,337.8 304.3,342.6 310.0,346.4 316.7,349.3 324.4,351.2 333.0,352.2 342.6,352.2 353.1,351.2 364.6,349.3 377.0,346.4 390.4,342.6 402.9,337.8 414.4,332.1 424.9,325.4 434.4,317.7 443.1,309.1 450.7,301.4 457.4,294.7 463.2,289.0 467.9,284.2 471.8,280.4 474.6,277.5 476.6,275.6 477.5,274.6 477.5,274.6 476.6,275.6 474.6,277.5 471.8,280.4 467.9,284.2 463.2,289.0 457.4,294.7 450.7,301.4 443.1,307.2 434.4,312.0 424.9,315.8 414.4,318.7 402.9,320.6 390.4,321.5 378.9,321.5 368.4,320.6 358.9,318.7 350.2,315.8 342.6,312.0 335.9,307.2 330.1,303.3 325.4,300.5 321.5,298.6 318.7,297.6 316.7,297.6 315.8,298.6 315.8,300.5 316.7,303.3 318.7,305.3 321.5,306.2 325.4,306.2 330.1,305.3 335.9,304.3 342.6,304.3 350.2,304.3 358.9,304.3 368.4,304.3 378.9,304.3 390.4,304.3 401.9,305.3 412.4,307.2 422.0,310.0 430.6,312.9 438.3,314.8 445.0,315.8 450.7,315.8 455.5,314.8 459.3,312.9 462.2,312.0 464.1,312.0 465.1,312.9 465.1,312.9 464.1,312.9 462.2,312.9 459.3,312.9 455.5,312.9 450.7,312.9 445.0,312.9 438.3,312.9 430.6,312.9 422.0,312.9 412.4,312.9 401.9,312.9 390.4,312.0 379.9,312.0 370.3,312.0 361.7,312.0 354.1,312.0 347.4,312.0 341.6,312.0 336.8,312.0 333.0,312.0 330.1,312.0 328.2,312.0 327.3,312.0 327.3,312.0 328.2,312.0 330.1,312.0 333.0,312.0 336.8,312.0 341.6,312.0 347.4,312.0 354.1,312.0 361.7,312.0 370.3,312.0 379.9,312.0 388.5,312.0 396.2,312.0 402.9,312.0 408.6,312.0 413.4,312.0 417.2,312.0 420.1,312.0 422.0,312.0 423.0,312.0 423.0,312.0 422.0,312.0 420.1,312.0 417.2,312.0 413.4,312.0 408.6,312.0 402.9,312.0 396.2,312.0 388.5,312.0 381.8,312.0 376.1,312.0 371.3,312.0 367.5,312.0 364.6,312.0 362.7,312.0 361.7,312.0 361.7,312.0 362.7,312.0 364.6,312.0 367.5,312.0 371.3,312.0 376.1,312.0 381.8,312.0 386.6,312.0 390.4,312.0 393.3,312.0 395.2,312.0 396.2,312.0 396.2,312.0 395.2,312.0 393.3,312.0 390.4,312.0 386.6,312.0 383.7,312.0 381.8,312.0 380.9,312.0 380.9,312.0 381.8,312.0 383.7,312.0 385.6,312.0 388.5,312.9 392.3,314.8 397.1,317.7 402.9,321.5 409.6,326.3 417.2,332.1 425.8,338.8 435.4,346.4 445.9,355.0 457.4,364.6 469.9,375.1 483.3,386.6 497.6,397.1 512.9,406.7 529.2,415.3 546.4,423.0 562.7,429.7 578.0,435.4 592.3,440.2 605.7,444.0 618.2,446.9 629.7,448.8 640.2,449.8 649.8,449.8 658.4,448.8 666.0,446.9 672.7,444.0 678.5,440.2 683.3,435.4 687.1,429.7 690.0,423.0 691.9,415.3 692.8,406.7 692.8,397.1 691.9,388.5 690.0,380.9 687.1,374.2 683.3,368.4 678.5,363.6 672.7,359.8 666.0,356.9 658.4,355.0 649.8,354.1 640.2,354.1 629.7,355.0 618.2,356.9 605.7,359.8 592.3,363.6 578.0,368.4 562.7,374.2 548.3,380.9 534.9,388.5 522.5,395.2 511.0,401.0 500.5,405.7 490.9,409.6 482.3,412.4 474.6,414.4 467.9,415.3 462.2,415.3 457.4,414.4 453.6,412.4 450.7,409.6 448.8,405.7 447.8,401.0 447.8,395.2 448.8,390.4 450.7,386.6 453.6,383.7 457.4,381.8 462.2,380.9 467.9,380.9 474.6,381.8 482.3,383.7 490.9,386.6 500.5,390.4 511.0,394.3 522.5,397.1 534.9,399.0 548.3,400.0 560.8,400.0 572.2,399.0 582.8,397.1 592.3,394.3 601.0,392.3 608.6,391.4 615.3,391.4 621.1,392.3 625.8,394.3 629.7,395.2 632.5,395.2 634.4,394.3 635.4,394.3 635.4,394.3 634.4,394.3 632.5,394.3 629.7,394.3 625.8,394.3 621.1,394.3 615.3,394.3 608.6,394.3 601.0,394.3 592.3,394.3 582.8,394.3 572.2,394.3 560.8,394.3 550.2,394.3 540.7,394.3 532.1,394.3 524.4,394.3 517.7,394.3 512.0,394.3 507.2,394.3 503.3,394.3 500.5,394.3 498.6,394.3 497.6,394.3 497.6,394.3 498.6,394.3 500.5,394.3 503.3,394.3 507.2,394.3 512.0,394.3 517.7,394.3 524.4,394.3 532.1,394.3 540.7,394.3 550.2,394.3 558.9,394.3 566.5,394.3 573.2,394.3 578.9,394.3 583.7,394.3 587.6,394.3 590.4,394.3 592.3,394.3 593.3,394.3 593.3,394.3 592.3,394.3 590.4,394.3 587.6,394.3 583.7,394.3 578.9,394.3 573.2,394.3 566.5,394.3 558.9,394.3 552.2,394.3 546.4,394.3 541.6,394.3 537.8,394.3 534.9,394.3 533.0,394.3 532.1,394.3 532.1,394.3 533.0,394.3 534.9,394.3 537.8,394.3 541.6,394.3 546.4,394.3 552.2,394.3 556.9,394.3 560.8,394.3 563.6,394.3 565.6,394.3 566.5,394.3 566.5,394.3 565.6,394.3 563.6,394.3 560.8,394.3 556.9,394.3 553.1,394.3 548.3,393.3 542.6,391.4 535.9,388.5 528.2,384.7 519.6,379.9 510.0,374.2 501.4,367.5 493.8,359.8 487.1,353.1 481.3,347.4 476.6,342.6 472.7,338.8 469.9,335.9 467.9,334.0 467.0,333.0 467.0,333.0 467.9,334.0 469.9,335.9 472.7,338.8 476.6,342.6 481.3,347.4 487.1,353.1 493.8,357.9 501.4,361.7 508.1,364.6 513.9,366.5 518.7,367.5 522.5,367.5 525.4,366.5 527.3,364.6 528.2,361.7 528.2,357.9 527.3,354.1 525.4,351.2 522.5,349.3 518.7,348.3 513.9,348.3 508.1,349.3 503.3,351.2 499.5,354.1 496.7,356.0 494.7,356.9 493.8,356.9 493.8,356.0 494.7,354.1 496.7,353.1 499.5,353.1 503.3,354.1 507.2,354.1 510.0,353.1 512.0,351.2 512.9,350.2 512.9,350.2 512.0,351.2 510.0,351.2 507.2,351.2 505.3,351.2 502.4,350.2 498.6,348.3 493.8,345.5 488.0,341.6 481.3,336.8 473.7,331.1 465.1,324.4 455.5,316.7 445.0,308.1 433.5,300.5 421.1,293.8 407.7,288.0 395.2,283.3 383.7,279.4 373.2,276.6 363.6,274.6 355.0,273.7 347.4,273.7 340.7,274.6 334.9,276.6 330.1,279.4 326.3,283.3 323.4,288.0 321.5,293.8 320.6,300.5 320.6,306.2 321.5,311.0 323.4,314.8 326.3,317.7 330.1,319.6 334.9,320.6 340.7,320.6 347.4,319.6 355.0,317.7 363.6,314.8 373.2,311.0 383.7,306.2 395.2,301.4 405.7,297.6 415.3,294.7 423.9,292.8 431.6,291.9 438.3,291.9 444.0,292.8 448.8,294.7 452.6,297.6 455.5,301.4 457.4,304.3 458.4,306.2 458.4,307.2 457.4,307.2 455.5,306.2 452.6,304.3 448.8,301.4 444.0,299.5 438.3,298.6 431.6,298.6 423.9,299.5 415.3,301.4 405.7,302.4 397.1,302.4 389.5,301.4 382.8,301.4 377.0,301.4 372.2,301.4 368.4,301.4 365.6,301.4 363.6,301.4 362.7,301.4 362.7,301.4 363.6,301.4 365.6,301.4 368.4,301.4 372.2,301.4 377.0,301.4 382.8,301.4 389.5,301.4 397.1,301.4 403.8,301.4 409.6,301.4 414.4,301.4 418.2,301.4 421.1,301.4 423.0,301.4 423.9,301.4 423.9,301.4 423.0,301.4 421.1,301.4 418.2,301.4 414.4,301.4 409.6,301.4 403.8,301.4 398.1,301.4 393.3,302.4 389.5,304.3 386.6,307.2 384.7,309.1 383.7,310.0 383.7,310.0 384.7,309.1 386.6,307.2 389.5,306.2 393.3,306.2 398.1,307.2 403.8,307.2 409.6,307.2 416.3,308.1 423.9,310.0 432.5,312.9 442.1,316.7 452.6,321.5 464.1,327.3 476.6,334.0 490.0,341.6 504.3,350.2 519.6,359.8 535.9,370.3 553.1,381.8 571.3,394.3 588.5,407.7 604.8,422.0 620.1,437.3 634.4,451.7 647.8,465.1 660.3,477.5 671.8,489.0 682.3,499.5 691.9,509.1 700.5,517.7 708.1,525.4 714.8,532.1 720.6,537.8 725.4,542.6 729.2,546.4 732.1,549.3 734.0,551.2 734.9,552.2 734.9,552.2 734.0,551.2 732.1,549.3 729.2,546.4 725.4,542.6 720.6,537.8 714.8,532.1 708.1,525.4 700.5,517.7 691.9,509.1 682.3,499.5 671.8,489.0 660.3,477.5 647.8,465.1 634.4,451.7 620.1,439.2 604.8,427.8 588.5,417.2 571.3,407.7 555.0,399.0 539.7,391.4 525.4,384.7 512.0,378.9 499.5,374.2 488.0,370.3 477.5,367.5 467.9,365.6 459.3,364.6 451.7,364.6 445.0,365.6 439.2,367.5 434.4,370.3 430.6,374.2 427.8,378.9 425.8,384.7 424.9,391.4 424.9,399.0 425.8,407.7 427.8,417.2 430.6,427.8 434.4,439.2 439.2,449.8 445.0,459.3 451.7,467.9 459.3,475.6 467.9,482.3 477.5,488.0 488.0,492.8 499.5,496.7 512.0,499.5 525.4,501.4 539.7,502.4 555.0,502.4 571.3,501.4 586.6,499.5 601.0,496.7 614.4,492.8 626.8,488.0 638.3,482.3 648.8,475.6 658.4,467.9 667.0,459.3 674.6,449.8 681.3,441.1 687.1,433.5 691.9,426.8 695.7,421.1 698.6,416.3 700.5,412.4 701.4,409.6 701.4,407.7 700.5,406.7 698.6,406.7 695.7,407.7 691.9,409.6 687.1,412.4 681.3,416.3 674.6,421.1 667.0,426.8 658.4,433.5 648.8,441.1 638.3,448.8 626.8,455.5 614.4,461.2 601.0,466.0 586.6,469.9 571.3,472.7 556.9,474.6 543.5,475.6 531.1,475.6 519.6,474.6 509.1,472.7 499.5,469.9 490.9,466.0 483.3,461.2 476.6,455.5 470.8,448.8 466.0,443.1 462.2,438.3 459.3,434.4 457.4,431.6 456.5,429.7 456.5,428.7 457.4,428.7 459.3,429.7 462.2,431.6 466.0,434.4 470.8,438.3 476.6,443.1 483.3,448.8 490.9,453.6 499.5,457.4 509.1,460.3 519.6,462.2 531.1,463.2 543.5,463.2 556.9,462.2 571.3,460.3 584.7,457.4 597.1,453.6 608.6,448.8 619.1,445.0 628.7,442.1 637.3,440.2 645.0,439.2 651.7,439.2 657.4,440.2 662.2,442.1 666.0,445.0 668.9,448.8 670.8,451.7 671.8,453.6 671.8,454.5 670.8,454.5 668.9,453.6 666.0,451.7 662.2,448.8 657.4,446.9 651.7,445.9 645.0,445.9 637.3,446.9 628.7,448.8 619.1,449.8 608.6,449.8 597.1,448.8 584.7,448.8 571.3,448.8 558.9,447.8 547.4,445.9 536.8,445.0 527.3,445.0 518.7,445.0 511.0,445.0 504.3,445.0 498.6,445.0 493.8,445.0 490.0,445.0 487.1,445.0 485.2,445.0 484.2,445.0 484.2,445.0 485.2,445.0 487.1,445.0 490.0,445.0 493.8,445.0 498.6,445.0 504.3,445.0 511.0,445.0 518.7,445.0 527.3,445.0 536.8,445.0 547.4,445.0 558.9,445.0 569.4,445.0 578.9,444.0 587.6,442.1 595.2,439.2 601.9,435.4 607.7,430.6 612.4,424.9 616.3,418.2 619.1,410.5 621.1,401.9 622.0,392.3 622.0,381.8 621.1,370.3 619.1,357.9 616.3,344.5 612.4,330.1 607.7,314.8 601.9,300.5 595.2,287.1 587.6,274.6 578.9,263.2 569.4,252.6 558.9,243.1 547.4,234.4 534.9,226.8 521.5,220.1 507.2,214.4 491.9,209.6 475.6,205.7 458.4,202.9 440.2,201.0 421.1,200.0 401.0,200.0 381.8,201.0 363.6,202.9 346.4,205.7 330.1,209.6 314.8,214.4 300.5,220.1 287.1,226.8 274.6,234.4 263.2,243.1 252.6,252.6 243.1,263.2 234.4,274.6 226.8,287.1 220.1,300.5 214.4,312.9 209.6,324.4 205.7,334.9 202.9,344.5 201.0,353.1 200.0,360.8 200.0,367.5 201.0,373.2 202.9,378.0 205.7,381.8 209.6,384.7 214.4,386.6 220.1,387.6 226.8,387.6 234.4,386.6 243.1,384.7 252.6,381.8 263.2,378.0 274.6,373.2 287.1,367.5 300.5,360.8 314.8,353.1 330.1,344.5 346.4,334.9 363.6,324.4 381.8,312.9 399.0,302.4 415.3,292.8 430.6,284.2 445.0,276.6 458.4,269.9 470.8,264.1 482.3,259.3 492.8,255.5 502.4,252.6 511.0,250.7 518.7,249.8 525.4,249.8 531.1,250.7 535.9,252.6 539.7,255.5 542.6,259.3 544.5,264.1 545.5,269.9 545.5,276.6 544.5,284.2 542.6,292.8 539.7,302.4 535.9,311.0 531.1,318.7 525.4,325.4 518.7,331.1 511.0,335.9 502.4,339.7 492.8,342.6 482.3,344.5 470.8,345.5 458.4,345.5 445.0,344.5 430.6,342.6 415.3,339.7 399.0,335.9 383.7,331.1 369.4,325.4 356.0,318.7 343.5,311.0 332.1,304.3 321.5,298.6 312.0,293.8 303.3,290.0 295.7,287.1 289.0,285.2 283.3,284.2 278.5,284.2 274.6,285.2 271.8,287.1 269.9,290.0 268.9,293.8 268.9,298.6 269.9,304.3 271.8,309.1 274.6,312.9 278.5,315.8 283.3,317.7 289.0,318.7 295.7,318.7 303.3,317.7 312.0,315.8 321.5,312.9 332.1,309.1 343.5,306.2 356.0,304.3 369.4,303.3 383.7,303.3 397.1,304.3 409.6,306.2 421.1,307.2 431.6,307.2 441.1,306.2 449.8,306.2 457.4,306.2 464.1,306.2 469.9,306.2 474.6,306.2 478.5,306.2 481.3,306.2 483.3,306.2 484.2,306.2 484.2,306.2 483.3,306.2 481.3,306.2 478.5,306.2 474.6,306.2 469.9,306.2 464.1,306.2 457.4,306.2 449.8,306.2 441.1,306.2 431.6,306.2 421.1,306.2 409.6,306.2 397.1,306.2 385.6,306.2 375.1,306.2 365.6,306.2 356.9,306.2 349.3,306.2 342.6,306.2 336.8,306.2 332.1,306.2 328.2,306.2 325.4,306.2 323.4,306.2 322.5,306.2 322.5,306.2 323.4,306.2 325.4,306.2 328.2,306.2 332.1,306.2 336.8,306.2 342.6,306.2 349.3,306.2 356.9,306.2 365.6,306.2 375.1,306.2 385.6,306.2 395.2,306.2 403.8,306.2 411.5,306.2 418.2,306.2 423.9,306.2 428.7,306.2 432.5,306.2 435.4,306.2 437.3,306.2 438.3,306.2 438.3,306.2 437.3,306.2 435.4,306.2 432.5,306.2 428.7,306.2 423.9,306.2 418.2,306.2 411.5,306.2 403.8,306.2 395.2,306.2 387.6,306.2 380.9,306.2 375.1,306.2 370.3,306.2 366.5,306.2 363.6,306.2 361.7,306.2 360.8,306.2 360.8,306.2 361.7,306.2 363.6,306.2 366.5,306.2 370.3,306.2 375.1,306.2 380.9,306.2 387.6,306.2 393.3,306.2 398.1,306.2 401.9,306.2 404.8,306.2 406.7,306.2 407.7,306.2 407.7,306.2 406.7,306.2 404.8,306.2 401.9,306.2 398.1,306.2 393.3,306.2 388.5,306.2 384.7,307.2 381.8,309.1 379.9,311.0 378.9,312.0 378.9,312.0 379.9,311.0 381.8,311.0 384.7,311.0 388.5,311.0 393.3,311.0 399.0,311.0 404.8,311.0 410.5,310.0 415.3,308.1 419.1,307.2 422.0,307.2 423.9,308.1 424.9,308.1 424.9,308.1 423.9,308.1 422.0,308.1 419.1,308.1 415.3,308.1 410.5,308.1 404.8,309.1 399.0,311.0 394.3,312.9 390.4,313.9 387.6,313.9 385.6,312.9 384.7,312.9 384.7,312.9 385.6,312.9 387.6,312.9 390.4,312.9 394.3,312.9 399.0,312.9 404.8,312.0 409.6,310.0 413.4,309.1 416.3,309.1 418.2,310.0 419.1,310.0 419.1,310.0 418.2,310.0 416.3,310.0 413.4,310.0 409.6,310.0 406.7,310.0 404.8,311.0 403.8,312.9 403.8,315.8 404.8,319.6 406.7,324.4 409.6,330.1 413.4,336.8 418.2,344.5 423.9,353.1 430.6,362.7 438.3,373.2 446.9,384.7 456.5,397.1 467.0,410.5 478.5,423.0 490.9,434.4 504.3,445.0 518.7,454.5 534.0,463.2 550.2,470.8 565.6,477.5 579.9,483.3 593.3,488.0 605.7,491.9 617.2,494.7 627.8,496.7 637.3,497.6 645.9,497.6 653.6,496.7 660.3,494.7 666.0,491.9 670.8,488.0 674.6,483.3 677.5,477.5 679.4,470.8 680.4,463.2 680.4,454.5 679.4,445.0 677.5,434.4 674.6,423.0 670.8,412.4 666.0,402.9 660.3,394.3 653.6,386.6 645.9,379.9 637.3,374.2 627.8,369.4 617.2,365.6 605.7,362.7 593.3,360.8 579.9,359.8 565.6,359.8 552.2,360.8 539.7,362.7 528.2,365.6 517.7,369.4 508.1,374.2 499.5,379.9 491.9,386.6 485.2,394.3 479.4,402.9 474.6,412.4 470.8,421.1 467.9,428.7 466.0,435.4 465.1,441.1 465.1,445.9 466.0,449.8 467.9,452.6 470.8,454.5 474.6,455.5 479.4,455.5 485.2,454.5 491.9,452.6 499.5,449.8 508.1,445.9 517.7,441.1 528.2,435.4 539.7,428.7 552.2,421.1 563.6,414.4 574.2,408.6 583.7,403.8 592.3,400.0 600.0,397.1 606.7,395.2 612.4,394.3 617.2,394.3 621.1,395.2 623.9,397.1 625.8,400.0 626.8,403.8 626.8,408.6 625.8,414.4 623.9,419.1 621.1,423.0 617.2,425.8 612.4,427.8 606.7,428.7 600.0,428.7 592.3,427.8 583.7,425.8 574.2,423.0 563.6,419.1 554.1,415.3 545.5,412.4 537.8,410.5 531.1,409.6 525.4,409.6 520.6,410.5 516.7,412.4 513.9,415.3 512.0,417.2 511.0,418.2 511.0,418.2 512.0,417.2 513.9,415.3 516.7,414.4 520.6,414.4 525.4,415.3 531.1,415.3 537.8,415.3 545.5,415.3 554.1,415.3 561.7,415.3 568.4,415.3 574.2,415.3 578.9,415.3 582.8,415.3 585.6,415.3 587.6,415.3 588.5,415.3 588.5,415.3 587.6,415.3 585.6,415.3 582.8,415.3 578.9,415.3 574.2,415.3 568.4,415.3 561.7,415.3 556.0,415.3 551.2,415.3 547.4,415.3 544.5,415.3 542.6,415.3 541.6,415.3 541.6,415.3 542.6,415.3 544.5,415.3 547.4,415.3 551.2,415.3 556.0,415.3 560.8,415.3 564.6,414.4 567.5,412.4 569.4,409.6 570.3,405.7 570.3,401.0 569.4,395.2 567.5,388.5 564.6,380.9 560.8,372.2 556.0,362.7 550.2,352.2 543.5,340.7 535.9,328.2 527.3,314.8 517.7,302.4 507.2,290.9 495.7,280.4 483.3,270.8 469.9,262.2 455.5,254.5 440.2,247.8 423.9,242.1 406.7,237.3 390.4,233.5 375.1,230.6 360.8,228.7 347.4,227.8 334.9,227.8 323.4,228.7 312.9,230.6 303.3,233.5 294.7,237.3 287.1,242.1 280.4,247.8 274.6,254.5 269.9,262.2 266.0,270.8 263.2,280.4 261.2,290.9 260.3,302.4 260.3,312.9 261.2,322.5 263.2,331.1 266.0,338.8 269.9,345.5 274.6,351.2 280.4,356.0 287.1,359.8 294.7,362.7 303.3,364.6 312.9,365.6 323.4,365.6 334.9,364.6 347.4,362.7 360.8,359.8 375.1,356.0 390.4,351.2 404.8,345.5 418.2,338.8 430.6,331.1 442.1,322.5 452.6,312.9 462.2,302.4 470.8,292.8 478.5,284.2 485.2,276.6 490.9,269.9 495.7,264.1 499.5,259.3 502.4,255.5 504.3,252.6 505.3,250.7 505.3,249.8 504.3,249.8 502.4,250.7 499.5,252.6 495.7,255.5 490.9,259.3 485.2,264.1 478.5,269.9 470.8,276.6 462.2,284.2 452.6,292.8 442.1,302.4 430.6,311.0 418.2,318.7 404.8,325.4 392.3,331.1 380.9,335.9 370.3,339.7 360.8,342.6 352.2,344.5 344.5,345.5 337.8,345.5 332.1,344.5 327.3,342.6 323.4,339.7 320.6,335.9 318.7,331.1 317.7,325.4 317.7,318.7 318.7,311.0 320.6,302.4 323.4,294.7 327.3,288.0 332.1,282.3 337.8,277.5 344.5,273.7 352.2,270.8 360.8,268.9 370.3,267.9 380.9,267.9 392.3,268.9 402.9,270.8 412.4,273.7 421.1,277.5 428.7,282.3 435.4,288.0 441.1,294.7 445.9,302.4 449.8,309.1 452.6,314.8 454.5,319.6 455.5,323.4 455.5,326.3 454.5,328.2 452.6,329.2 449.8,329.2 445.9,328.2 441.1,326.3 435.4,323.4 428.7,319.6 421.1,314.8 412.4,309.1 402.9,302.4 394.3,296.7 386.6,291.9 379.9,288.0 374.2,285.2 369.4,283.3 365.6,282.3 362.7,282.3 360.8,283.3 359.8,285.2 359.8,288.0 360.8,291.9 362.7,296.7 365.6,302.4 369.4,307.2 374.2,311.0 379.9,313.9 386.6,315.8 394.3,316.7 401.0,316.7 406.7,315.8 411.5,313.9 415.3,311.0 418.2,307.2 420.1,302.4 421.1,298.6 421.1,295.7 420.1,293.8 418.2,292.8 415.3,292.8 411.5,293.8 406.7,295.7 401.0,298.6 395.2,302.4 390.4,307.2 386.6,312.9 383.7,317.7 381.8,321.5 380.9,324.4 380.9,326.3 381.8,327.3 383.7,327.3 386.6,326.3 390.4,324.4 395.2,321.5 401.0,317.7 407.7,312.9 415.3,309.1 423.9,306.2 431.6,304.3 438.3,303.3 444.0,303.3 448.8,304.3 452.6,306.2 455.5,309.1 457.4,312.9 458.4,315.8 458.4,317.7 457.4,318.7 455.5,318.7 452.6,317.7 448.8,315.8 444.0,312.9 438.3,311.0 431.6,310.0 423.9,310.0 417.2,311.0 411.5,312.9 406.7,313.9 402.9,313.9 400.0,312.9 398.1,312.9 397.1,312.9 397.1,312.9 398.1,312.9 400.0,312.9 402.9,312.9 406.7,312.9 411.5,312.9 417.2,312.9 423.9,312.9 431.6,313.9 440.2,315.8 449.8,318.7 460.3,322.5 471.8,327.3 484.2,333.0 497.6,339.7 512.0,347.4 527.3,356.0 543.5,365.6 558.9,376.1 573.2,387.6 586.6,398.1 599.0,407.7 610.5,416.3 621.1,423.9 630.6,430.6 639.2,436.4 646.9,441.1 653.6,445.0 659.3,447.8 664.1,449.8 667.9,450.7 670.8,450.7 672.7,449.8 673.7,447.8 673.7,445.0 672.7,441.1 670.8,436.4 667.9,430.6 664.1,423.9 659.3,416.3 653.6,407.7 646.9,398.1 639.2,389.5 630.6,381.8 621.1,375.1 610.5,369.4 599.0,364.6 586.6,360.8 573.2,357.9 558.9,356.0 545.5,355.0 533.0,355.0 521.5,356.0 511.0,357.9 501.4,360.8 492.8,364.6 485.2,369.4 478.5,375.1 472.7,381.8 467.9,389.5 464.1,398.1 461.2,405.7 459.3,412.4 458.4,418.2 458.4,423.0 459.3,426.8 461.2,429.7 464.1,431.6 467.9,432.5 472.7,432.5 478.5,431.6 485.2,429.7 492.8,426.8 501.4,423.0 511.0,418.2 521.5,412.4 533.0,405.7 545.5,398.1 556.9,391.4 567.5,385.6 577.0,380.9 585.6,377.0 593.3,374.2 600.0,372.2 605.7,371.3 610.5,371.3 614.4,372.2 617.2,374.2 619.1,377.0 620.1,380.9 620.1,385.6 619.1,391.4 617.2,398.1 614.4,403.8 610.5,408.6 605.7,412.4 600.0,415.3 593.3,417.2 585.6,418.2 577.0,418.2 567.5,417.2 556.9,415.3 547.4,412.4 538.8,408.6 531.1,403.8 524.4,398.1 518.7,393.3 513.9,389.5 510.0,386.6 507.2,384.7 505.3,383.7 504.3,383.7 504.3,384.7 505.3,386.6 507.2,389.5 510.0,393.3 513.9,398.1 518.7,401.9 524.4,404.8 531.1,406.7 538.8,407.7 547.4,407.7 555.0,406.7 561.7,404.8 567.5,401.9 572.2,398.1 576.1,395.2 578.9,393.3 580.9,392.3 581.8,392.3 581.8,393.3 580.9,395.2 578.9,398.1 576.1,400.0 572.2,401.0 567.5,401.0 561.7,400.0 555.0,398.1 547.4,395.2 538.8,391.4 529.2,386.6 518.7,380.9 507.2,374.2 494.7,366.5 481.3,357.9 468.9,348.3 457.4,337.8 446.9,328.2 437.3,319.6 428.7,312.0 421.1,305.3 414.4,299.5 408.6,294.7 403.8,290.9 400.0,288.0 397.1,286.1 395.2,285.2 394.3,285.2 394.3,286.1 395.2,288.0 397.1,290.9 400.0,294.7 403.8,299.5 408.6,305.3 414.4,312.0 421.1,319.6 428.7,328.2 437.3,335.9 446.9,342.6 457.4,348.3 468.9,353.1 481.3,356.9 492.8,359.8 503.3,361.7 512.9,362.7 521.5,362.7 529.2,361.7 535.9,359.8 541.6,356.9 546.4,353.1 550.2,348.3 553.1,342.6 555.0,335.9 556.0,330.1 556.0,325.4 555.0,321.5 553.1,318.7 550.2,316.7 546.4,315.8 541.6,315.8 535.9,316.7 529.2,318.7 521.5,321.5 512.9,325.4 503.3,330.1 492.8,334.0 481.3,336.8 470.8,338.8 461.2,339.7 452.6,339.7 445.0,338.8 438.3,336.8 432.5,334.0 427.8,332.1 423.9,331.1 421.1,331.1 419.1,332.1 418.2,334.0 418.2,334.9 419.1,334.9 421.1,334.0 423.9,334.0 427.8,334.0 432.5,334.0 438.3,334.0 445.0,334.0 452.6,334.0 461.2,334.0 470.8,334.0 481.3,334.0 490.9,334.9 499.5,334.9 507.2,334.9 513.9,334.9 519.6,334.9 524.4,334.9 528.2,334.9 531.1,334.9 533.0,334.9 534.0,334.9 534.0,334.9 533.0,334.9 531.1,334.9 528.2,334.9 524.4,334.9 519.6,334.9 513.9,334.9 507.2,334.9 499.5,334.9 490.9,334.9 483.3,334.9 476.6,334.9 470.8,334.9 466.0,334.9 462.2,334.9 459.3,334.9 457.4,334.9 456.5,334.9 456.5,334.9 457.4,334.9 459.3,334.9 462.2,334.9 466.0,334.9 470.8,334.9 476.6,334.9 483.3,334.9 489.0,334.9 493.8,334.9 497.6,334.9 500.5,334.9 502.4,334.9 503.3,334.9 503.3,334.9 502.4,334.9 500.5,334.9 497.6,334.9 493.8,334.9 489.0,334.9 485.2,334.9 482.3,335.9 480.4,337.8 479.4,338.8 479.4,338.8 480.4,337.8 482.3,337.8 485.2,337.8 489.0,337.8 493.8,337.8 497.6,337.8 500.5,336.8 502.4,334.9 503.3,332.1 503.3,328.2 502.4,323.4 500.5,317.7 497.6,311.0 493.8,303.3 489.0,296.7 483.3,290.9 476.6,286.1 468.9,282.3 460.3,279.4 450.7,277.5 440.2,276.6 428.7,276.6 416.3,277.5 402.9,279.4 390.4,282.3 378.9,286.1 368.4,290.9 358.9,296.7 350.2,301.4 342.6,305.3 335.9,308.1 330.1,310.0 325.4,311.0 321.5,311.0 318.7,310.0 316.7,308.1 315.8,305.3 315.8,301.4 316.7,298.6 318.7,296.7 321.5,295.7 325.4,295.7 330.1,296.7 335.9,298.6 342.6,301.4 350.2,303.3 358.9,304.3 368.4,304.3 378.9,303.3 390.4,301.4 401.9,300.5 412.4,300.5 422.0,301.4 430.6,301.4 438.3,301.4 445.0,301.4 450.7,301.4 455.5,301.4 459.3,301.4 462.2,301.4 464.1,301.4 465.1,301.4 465.1,301.4 464.1,301.4 462.2,301.4 459.3,301.4 455.5,301.4 450.7,301.4 445.0,301.4 438.3,301.4 430.6,301.4 422.0,301.4 412.4,301.4 401.9,301.4 390.4,302.4 379.9,304.3 370.3,307.2 361.7,309.1 354.1,310.0 347.4,310.0 341.6,309.1 336.8,307.2 333.0,306.2 330.1,306.2 328.2,307.2 327.3,307.2 327.3,307.2 328.2,307.2 330.1,307.2 333.0,307.2 336.8,307.2 341.6,307.2 347.4,307.2 354.1,307.2 361.7,307.2 370.3,307.2 379.9,307.2 388.5,307.2 396.2,307.2 402.9,307.2 408.6,307.2 413.4,307.2 417.2,307.2 420.1,307.2 422.0,307.2 423.0,307.2 423.0,307.2 422.0,307.2 420.1,307.2 417.2,307.2 413.4,307.2 408.6,307.2 402.9,307.2 396.2,307.2 388.5,307.2 381.8,307.2 376.1,307.2 371.3,307.2 367.5,307.2 364.6,307.2 362.7,307.2 361.7,307.2 361.7,307.2 362.7,307.2 364.6,307.2 367.5,307.2 371.3,307.2 376.1,307.2 381.8,307.2 386.6,307.2 390.4,307.2 393.3,307.2 395.2,307.2 396.2,307.2 396.2,307.2 395.2,307.2 393.3,307.2 390.4,307.2 386.6,307.2 383.7,307.2 381.8,307.2 380.9,307.2 380.9,307.2 381.8,307.2 383.7,307.2 385.6,307.2 388.5,306.2 392.3,306.2 397.1,306.2 402.9,306.2 408.6,306.2 415.3,307.2 423.0,309.1 431.6,312.0 441.1,315.8 451.7,320.6 463.2,326.3 473.7,331.1 483.3,334.9 491.9,337.8 499.5,339.7 506.2,340.7 512.0,340.7 516.7,339.7 520.6,337.8 523.4,334.9 525.4,331.1 526.3,328.2 526.3,326.3 525.4,325.4 523.4,325.4 520.6,326.3 516.7,328.2 512.0,331.1 506.2,333.0 499.5,334.0 491.9,334.0 483.3,333.0 473.7,331.1 465.1,330.1 457.4,330.1 450.7,331.1 445.0,331.1 440.2,331.1 436.4,331.1 433.5,331.1 431.6,331.1 430.6,331.1 430.6,331.1 431.6,331.1 433.5,331.1 436.4,331.1 440.2,331.1 445.0,331.1 450.7,331.1 457.4,331.1 465.1,331.1 471.8,331.1 477.5,331.1 482.3,331.1 486.1,331.1 489.0,331.1 490.9,331.1 491.9,331.1 491.9,331.1 490.9,331.1 489.0,331.1 486.1,331.1 482.3,331.1 477.5,331.1 471.8,331.1 467.0,331.1 463.2,331.1 460.3,331.1 458.4,331.1 457.4,331.1 457.4,331.1 458.4,331.1 460.3,331.1 463.2,331.1 467.0,331.1 469.9,331.1 471.8,331.1 472.7,331.1 472.7,331.1 471.8,331.1 469.9,331.1 468.9,331.1 468.9,332.1 469.9,334.0 471.8,336.8 474.6,340.7 478.5,345.5 483.3,351.2 489.0,357.9 495.7,365.6 503.3,374.2 512.0,383.7 521.5,392.3 532.1,400.0 541.6,406.7 550.2,412.4 557.9,417.2 564.6,421.1 570.3,423.9 575.1,425.8 578.9,426.8 581.8,426.8 583.7,425.8 584.7,423.9 584.7,421.1 583.7,417.2 581.8,412.4 578.9,406.7 575.1,400.0 570.3,392.3 564.6,384.7 557.9,378.0 550.2,372.2 541.6,367.5 534.0,363.6 527.3,360.8 521.5,358.9 516.7,357.9 512.9,357.9 510.0,358.9 508.1,360.8 507.2,363.6 507.2,367.5 508.1,372.2 510.0,378.0 512.9,384.7 516.7,390.4 521.5,395.2 527.3,399.0 534.0,401.9 541.6,403.8 548.3,404.8 554.1,404.8 558.9,403.8 562.7,401.9 565.6,399.0 567.5,395.2 568.4,390.4 568.4,384.7 567.5,379.9 565.6,376.1 562.7,373.2 558.9,371.3 554.1,370.3 548.3,370.3 541.6,371.3 535.9,373.2 531.1,376.1 527.3,379.9 524.4,384.7 522.5,388.5 521.5,391.4 521.5,393.3 522.5,394.3 524.4,394.3 527.3,393.3 531.1,391.4 535.9,388.5 541.6,384.7 546.4,379.9 550.2,374.2 553.1,367.5 555.0,359.8 556.0,351.2 556.0,341.6 555.0,331.1 553.1,319.6 550.2,307.2 546.4,295.7 541.6,285.2 535.9,275.6 529.2,267.0 521.5,259.3 512.9,252.6 503.3,246.9 492.8,242.1 481.3,238.3 468.9,235.4 455.5,233.5 441.1,232.5 425.8,232.5 409.6,233.5 393.3,235.4 378.0,238.3 363.6,242.1 350.2,246.9 337.8,252.6 326.3,259.3 315.8,267.0 306.2,275.6 297.6,285.2 290.0,295.7 283.3,305.3 277.5,313.9 272.7,321.5 268.9,328.2 266.0,334.0 264.1,338.8 263.2,342.6 263.2,345.5 264.1,347.4 266.0,348.3 268.9,348.3 272.7,347.4 277.5,345.5 283.3,342.6 290.0,338.8 297.6,334.0 306.2,328.2 315.8,321.5 326.3,313.9 337.8,305.3 350.2,297.6 363.6,290.9 378.0,285.2 393.3,280.4 407.7,276.6 421.1,273.7 433.5,271.8 445.0,270.8 455.5,270.8 465.1,271.8 473.7,273.7 481.3,276.6 488.0,280.4 493.8,285.2 498.6,290.9 502.4,297.6 505.3,303.3 507.2,308.1 508.1,312.0 508.1,314.8 507.2,316.7 505.3,317.7 502.4,317.7 498.6,316.7 493.8,314.8 488.0,312.0 481.3,308.1 473.7,303.3 465.1,299.5 455.5,296.7 445.0,294.7 433.5,293.8 421.1,293.8 407.7,294.7 393.3,296.7 379.9,299.5 367.5,303.3 356.0,306.2 345.5,308.1 335.9,309.1 327.3,309.1 319.6,308.1 312.9,306.2 307.2,303.3 302.4,301.4 298.6,300.5 295.7,300.5 293.8,301.4 292.8,303.3 292.8,304.3 293.8,304.3 295.7,303.3 298.6,303.3 302.4,303.3 307.2,303.3 312.9,303.3 319.6,303.3 327.3,303.3 335.9,303.3 345.5,303.3 356.0,303.3 367.5,303.3 379.9,303.3 393.3,303.3 407.7,304.3 423.0,306.2 439.2,309.1 456.5,312.9 474.6,317.7 493.8,323.4 513.9,330.1 534.9,337.8 556.9,346.4 578.0,356.0 598.1,366.5 617.2,378.0 635.4,390.4 652.6,403.8 668.9,418.2 684.2,433.5 698.6,449.8 712.0,465.1 724.4,479.4 735.9,492.8 746.4,505.3 756.0,516.7 764.6,527.3 772.2,536.8 778.9,545.5 784.7,553.1 789.5,559.8 793.3,565.6 796.2,570.3 798.1,574.2 799.0,577.0 799.0,578.9 798.1,579.9 796.2,579.9 793.3,578.9 789.5,577.0 784.7,574.2 778.9,570.3 772.2,565.6 764.6,559.8 756.0,553.1 746.4,545.5 735.9,536.8 724.4,527.3 712.0,516.7 698.6,505.3 684.2,492.8 668.9,479.4 652.6,465.1 635.4,451.7 617.2,439.2 598.1,427.8 578.0,417.2 558.9,407.7 540.7,399.0 523.4,391.4 507.2,384.7 491.9,378.9 477.5,374.2 464.1,370.3 451.7,367.5 440.2,365.6 429.7,364.6 420.1,364.6 411.5,365.6 403.8,367.5 397.1,370.3 391.4,374.2 386.6,378.9 382.8,384.7 379.9,391.4 378.0,399.0 377.0,407.7 377.0,417.2 378.0,427.8 379.9,439.2 382.8,451.7 386.6,463.2 391.4,473.7 397.1,483.3 403.8,491.9 411.5,499.5 420.1,506.2 429.7,512.0 440.2,516.7 451.7,520.6 464.1,523.4 477.5,525.4 491.9,526.3 507.2,526.3 523.4,525.4 540.7,523.4 558.9,520.6 576.1,516.7 592.3,512.0 607.7,506.2 622.0,499.5 635.4,491.9 647.8,483.3 659.3,473.7 669.9,463.2 679.4,453.6 688.0,445.0 695.7,437.3 702.4,430.6 708.1,424.9 712.9,420.1 716.7,416.3 719.6,413.4 721.5,411.5 722.5,410.5 722.5,410.5 721.5,411.5 719.6,413.4 716.7,416.3 712.9,420.1 708.1,424.9 702.4,430.6 695.7,437.3 688.0,445.0 679.4,453.6 669.9,461.2 659.3,467.9 647.8,473.7 635.4,478.5 622.0,482.3 607.7,485.2 592.3,487.1 576.1,488.0 560.8,488.0 546.4,487.1 533.0,485.2 520.6,482.3 509.1,478.5 498.6,473.7 489.0,467.9 480.4,461.2 472.7,455.5 466.0,450.7 460.3,446.9 455.5,444.0 451.7,442.1 448.8,441.1 446.9,441.1 445.9,442.1 445.9,444.0 446.9,446.9 448.8,450.7 451.7,455.5 455.5,459.3 460.3,462.2 466.0,464.1 472.7,465.1 480.4,465.1 489.0,464.1 498.6,462.2 509.1,459.3 520.6,456.5 533.0,454.5 546.4,453.6 560.8,453.6 574.2,454.5 586.6,456.5 598.1,457.4 608.6,457.4 618.2,456.5 626.8,456.5 634.4,456.5 641.1,456.5 646.9,456.5 651.7,456.5 655.5,456.5 658.4,456.5 660.3,456.5 661.2,456.5 661.2,456.5 660.3,456.5 658.4,456.5 655.5,456.5 651.7,456.5 646.9,456.5 641.1,456.5 634.4,456.5 626.8,456.5 618.2,456.5 608.6,456.5 598.1,456.5 586.6,456.5 574.2,456.5 562.7,456.5 552.2,456.5 542.6,456.5 534.0,456.5 526.3,456.5 519.6,456.5 513.9,456.5 509.1,456.5 505.3,456.5 502.4,456.5 500.5,456.5 499.5,456.5 499.5,456.5 500.5,456.5 502.4,456.5 505.3,456.5 509.1,456.5 513.9,456.5 519.6,456.5 526.3,456.5 534.0,456.5 542.6,456.5 552.2,456.5 562.7,456.5 572.2,456.5 580.9,455.5 588.5,453.6 595.2,450.7 601.0,446.9 605.7,442.1 609.6,436.4 612.4,429.7 614.4,422.0 615.3,413.4 615.3,403.8 614.4,393.3 612.4,381.8 609.6,369.4 605.7,356.0 601.0,341.6 595.2,328.2 588.5,315.8 580.9,304.3 572.2,293.8 562.7,284.2 552.2,275.6 540.7,267.9 528.2,261.2 514.8,255.5 500.5,250.7 485.2,246.9 470.8,244.0 457.4,242.1 445.0,241.1 433.5,241.1 423.0,242.1 413.4,244.0 404.8,246.9 397.1,250.7 390.4,255.5 384.7,261.2 379.9,267.9 376.1,275.6 373.2,284.2 371.3,293.8 370.3,304.3 370.3,315.8 371.3,328.2 373.2,339.7 376.1,350.2 379.9,359.8 384.7,368.4 390.4,376.1 397.1,382.8 404.8,388.5 413.4,393.3 423.0,397.1 433.5,400.0 445.0,401.9 457.4,402.9 470.8,402.9 483.3,401.9 494.7,400.0 505.3,397.1 514.8,393.3 523.4,388.5 531.1,382.8 537.8,376.1 543.5,368.4 548.3,359.8 552.2,350.2 555.0,339.7 556.9,330.1 557.9,321.5 557.9,313.9 556.9,307.2 555.0,301.4 552.2,296.7 548.3,292.8 543.5,290.0 537.8,288.0 531.1,287.1 523.4,287.1 514.8,288.0 505.3,290.0 494.7,292.8 483.3,296.7 472.7,301.4 463.2,307.2 454.5,313.9 446.9,321.5 440.2,330.1 434.4,337.8 429.7,344.5 425.8,350.2 423.0,355.0 421.1,358.9 420.1,361.7 420.1,363.6 421.1,364.6 423.0,364.6 425.8,363.6 429.7,361.7 434.4,358.9 440.2,355.0 446.9,350.2 454.5,344.5 463.2,337.8 472.7,332.1 481.3,327.3 489.0,323.4 495.7,320.6 501.4,318.7 506.2,317.7 510.0,317.7 512.9,318.7 514.8,320.6 515.8,323.4 515.8,327.3 514.8,332.1 512.9,335.9 510.0,338.8 506.2,340.7 501.4,341.6 495.7,341.6 489.0,340.7 481.3,338.8 474.6,335.9 468.9,334.0 464.1,333.0 460.3,333.0 457.4,334.0 455.5,334.0 454.5,334.0 454.5,334.0 455.5,334.0 457.4,334.0 460.3,334.0 464.1,334.0 468.9,334.0 474.6,334.0 479.4,334.0 483.3,334.0 486.1,334.0 488.0,334.0 489.0,334.0 489.0,334.0 488.0,334.0 486.1,334.0 483.3,334.0 479.4,334.0 476.6,334.0 474.6,334.0 473.7,334.0 473.7,334.0 474.6,334.0 476.6,334.0" fill="none" stroke="red" stroke-width="3" stroke-opacity="0.5"/>
  <circle cx="477.5" cy="334.0" r="50" fill="blue" fill-opacity="0.5"/>
</svg>