<svg width="1000" height="1000" xmlns="http://www.w3.org/2000/svg">
  <rect x="200" y="200" width="600" height="600" fill="white" stroke="gray" stroke-width="5" />
  <circle cx="288.6" cy="270.5" r="7" fill="black" />
  <circle cx="284.1" cy="275.0" r="7" fill="black" />
  <circle cx="279.5" cy="277.3" r="7" fill="black" />
  <circle cx="277.3" cy="279.5" r="7" fill="black" />
  <circle cx="275.0" cy="279.5" r="7" fill="black" />
  <circle cx="272.7" cy="281.8" r="7" fill="black" />
  <circle cx="272.7" cy="281.8" r="7" fill="black" />
  <circle cx="270.5" cy="284.1" r="7" fill="black" />
  <circle cx="265.9" cy="286.4" r="7" fill="black" />
  <circle cx="263.6" cy="290.9" r="7" fill="black" />
  <circle cx="263.6" cy="297.7" r="7" fill="black" />
  <circle cx="263.6" cy="304.5" r="7" fill="black" />
  <circle cx="265.9" cy="309.1" r="7" fill="black" />
  <circle cx="268.2" cy="315.9" r="7" fill="black" />
  <circle cx="268.2" cy="322.7" r="7" fill="black" />
  <circle cx="270.5" cy="329.5" r="7" fill="black" />
  <circle cx="272.7" cy="334.1" r="7" fill="black" />
  <circle cx="272.7" cy="340.9" r="7" fill="black" />
  <circle cx="275.0" cy="350.0" r="7" fill="black" />
  <circle cx="279.5" cy="359.1" r="7" fill="black" />
  <circle cx="284.1" cy="370.5" r="7" fill="black" />
  <circle cx="288.6" cy="379.5" r="7" fill="black" />
  <circle cx="295.5" cy="388.6" r="7" fill="black" />
  <circle cx="302.3" cy="395.5" r="7" fill="black" />
  <circle cx="311.4" cy="400.0" r="7" fill="black" />
  <circle cx="318.2" cy="406.8" r="7" fill="black" />
  <circle cx="322.7" cy="411.4" r="7" fill="black" />
  <circle cx="325.0" cy="415.9" r="7" fill="black" />
  <circle cx="327.3" cy="418.2" r="7" fill="black" />
  <circle cx="331.8" cy="418.2" r="7" fill="black" />
  <circle cx="336.4" cy="420.5" r="7" fill="black" />
  <circle cx="338.6" cy="420.5" r="7" fill="black" />
  <circle cx="340.9" cy="418.2" r="7" fill="black" />
  <circle cx="345.5" cy="418.2" r="7" fill="black" />
  <circle cx="347.7" cy="415.9" r="7" fill="black" />
  <circle cx="352.3" cy="411.4" r="7" fill="black" />
  <circle cx="359.1" cy="409.1" r="7" fill="black" />
  <circle cx="368.2" cy="409.1" r="7" fill="black" />
  <circle cx="379.5" cy="411.4" r="7" fill="black" />
  <circle cx="388.6" cy="411.4" r="7" fill="black" />
  <circle cx="395.5" cy="411.4" r="7" fill="black" />
  <circle cx="404.5" cy="411.4" r="7" fill="black" />
  <circle cx="415.9" cy="409.1" r="7" fill="black" />
  <circle cx="429.5" cy="409.1" r="7" fill="black" />
  <circle cx="440.9" cy="409.1" r="7" fill="black" />
  <circle cx="454.5" cy="406.8" r="7" fill="black" />
  <circle cx="468.2" cy="406.8" r="7" fill="black" />
  <circle cx="484.1" cy="406.8" r="7" fill="black" />
  <circle cx="497.7" cy="406.8" r="7" fill="black" />
  <circle cx="511.4" cy="404.5" r="7" fill="black" />
  <circle cx="527.3" cy="402.3" r="7" fill="black" />
  <circle cx="540.9" cy="402.3" r="7" fill="black" />
  <circle cx="552.3" cy="400.0" r="7" fill="black" />
  <circle cx="563.6" cy="400.0" r="7" fill="black" />
  <circle cx="575.0" cy="400.0" r="7" fill="black" />
  <circle cx="588.6" cy="402.3" r="7" fill="black" />
  <circle cx="602.3" cy="402.3" r="7" fill="black" />
  <circle cx="613.6" cy="400.0" r="7" fill="black" />
  <circle cx="622.7" cy="400.0" r="7" fill="black" />
  <circle cx="631.8" cy="400.0" r="7" fill="black" />
  <circle cx="640.9" cy="397.7" r="7" fill="black" />
  <circle cx="652.3" cy="397.7" r="7" fill="black" />
  <circle cx="661.4" cy="395.5" r="7" fill="black" />
  <circle cx="668.2" cy="390.9" r="7" fill="black" />
  <circle cx="672.7" cy="388.6" r="7" fill="black" />
  <circle cx="679.5" cy="386.4" r="7" fill="black" />
  <circle cx="686.4" cy="381.8" r="7" fill="black" />
  <circle cx="690.9" cy="375.0" r="7" fill="black" />
  <circle cx="695.5" cy="368.2" r="7" fill="black" />
  <circle cx="700.0" cy="363.6" r="7" fill="black" />
  <circle cx="706.8" cy="361.4" r="7" fill="black" />
  <circle cx="709.1" cy="363.6" r="7" fill="black" />
  <circle cx="709.1" cy="365.9" r="7" fill="black" />
  <circle cx="709.1" cy="365.9" r="7" fill="black" />
  <circle cx="709.1" cy="365.9" r="7" fill="black" />
  <circle cx="709.1" cy="368.2" r="7" fill="black" />
  <circle cx="706.8" cy="372.7" r="7" fill="black" />
  <circle cx="702.3" cy="375.0" r="7" fill="black" />
  <circle cx="697.7" cy="379.5" r="7" fill="black" />
  <circle cx="695.5" cy="381.8" r="7" fill="black" />
  <circle cx="693.2" cy="381.8" r="7" fill="black" />
  <circle cx="693.2" cy="384.1" r="7" fill="black" />
  <circle cx="690.9" cy="386.4" r="7" fill="black" />
  <circle cx="686.4" cy="386.4" r="7" fill="black" />
  <circle cx="684.1" cy="388.6" r="7" fill="black" />
  <circle cx="681.8" cy="390.9" r="7" fill="black" />
  <circle cx="681.8" cy="395.5" r="7" fill="black" />
  <circle cx="684.1" cy="400.0" r="7" fill="black" />
  <circle cx="688.6" cy="404.5" r="7" fill="black" />
  <circle cx="690.9" cy="409.1" r="7" fill="black" />
  <circle cx="695.5" cy="411.4" r="7" fill="black" />
  <circle cx="702.3" cy="411.4" r="7" fill="black" />
  <circle cx="709.1" cy="413.6" r="7" fill="black" />
  <circle cx="713.6" cy="415.9" r="7" fill="black" />
  <circle cx="720.5" cy="420.5" r="7" fill="black" />
  <circle cx="727.3" cy="425.0" r="7" fill="black" />
  <circle cx="736.4" cy="429.5" r="7" fill="black" />
  <circle cx="752.3" cy="436.4" r="7" fill="black" />
  <circle cx="761.4" cy="440.9" r="7" fill="black" />
  <circle cx="768.2" cy="447.7" r="7" fill="black" />
  <circle cx="772.7" cy="456.8" r="7" fill="black" />
  <circle cx="775.0" cy="465.9" r="7" fill="black" />
  <circle cx="777.3" cy="477.3" r="7" fill="black" />
  <circle cx="781.8" cy="486.4" r="7" fill="black" />
  <circle cx="786.4" cy="497.7" r="7" fill="black" />
  <circle cx="788.6" cy="511.4" r="7" fill="black" />
  <circle cx="788.6" cy="525.0" r="7" fill="black" />
  <circle cx="788.6" cy="538.6" r="7" fill="black" />
  <circle cx="786.4" cy="552.3" r="7" fill="black" />
  <circle cx="786.4" cy="565.9" r="7" fill="black" />
  <circle cx="788.6" cy="581.8" r="7" fill="black" />
  <circle cx="793.2" cy="595.5" r="7" fill="black" />
  <circle cx="795.5" cy="606.8" r="7" fill="black" />
  <circle cx="797.7" cy="618.2" r="7" fill="black" />
  <circle cx="797.7" cy="631.8" r="7" fill="black" />
  <circle cx="795.5" cy="643.2" r="7" fill="black" />
  <polyline points="295.5,265.9 293.2,268.2 288.6,270.5 284.1,275.0 279.5,277.3 275.0,279.5 270.5,284.1 265.9,286.4 263.6,290.9 263.6,297.7 263.6,304.5 265.9,309.1 268.2,315.9 268.2,322.7 270.5,329.5 272.7,334.1 272.7,340.9 275.0,350.0 279.5,359.1 284.1,370.5 288.6,379.5 295.5,388.6 302.3,395.5 311.4,400.0 318.2,406.8 325.0,415.9 331.8,422.7 336.4,427.3 338.6,429.5 338.6,429.5 336.4,427.3 331.8,422.7 329.5,418.2 329.5,415.9 331.8,415.9 331.8,418.2 334.1,420.5 336.4,420.5 338.6,420.5 340.9,418.2 345.5,415.9 347.7,415.9 347.7,418.2 345.5,418.2 340.9,418.2 334.1,418.2 327.3,418.2 322.7,415.9 320.5,411.4 320.5,409.1 322.7,409.1 322.7,411.4 325.0,411.4 329.5,411.4 336.4,411.4 345.5,411.4 352.3,411.4 359.1,409.1 368.2,409.1 379.5,411.4 388.6,411.4 395.5,411.4 404.5,411.4 415.9,409.1 429.5,409.1 440.9,409.1 454.5,406.8 468.2,406.8 484.1,406.8 497.7,406.8 511.4,404.5 527.3,402.3 540.9,402.3 552.3,400.0 563.6,400.0 575.0,400.0 588.6,402.3 602.3,402.3 613.6,400.0 622.7,400.0 631.8,400.0 640.9,397.7 652.3,397.7 661.4,395.5 668.2,390.9 672.7,388.6 679.5,386.4 686.4,386.4 693.2,384.1 697.7,379.5 702.3,375.0 706.8,372.7 709.1,368.2 709.1,363.6 706.8,361.4 702.3,361.4 700.0,363.6 695.5,368.2 690.9,375.0 686.4,381.8 684.1,388.6 681.8,395.5 681.8,400.0 684.1,402.3 684.1,402.3 684.1,400.0 681.8,395.5 681.8,390.9 684.1,386.4 688.6,384.1 690.9,384.1 690.9,386.4 693.2,386.4 693.2,384.1 693.2,381.8 695.5,381.8 700.0,379.5 706.8,375.0 711.4,368.2 713.6,363.6 713.6,361.4 711.4,361.4 709.1,363.6 709.1,365.9 709.1,370.5 709.1,377.3 709.1,386.4 709.1,397.7 709.1,411.4 709.1,422.7 709.1,431.8 709.1,438.6 709.1,443.2 709.1,445.5 709.1,445.5 709.1,443.2 709.1,438.6 709.1,431.8 709.1,422.7 709.1,413.6 706.8,406.8 702.3,402.3 700.0,400.0 700.0,400.0 702.3,402.3 702.3,406.8 702.3,411.4 704.5,415.9 709.1,418.2 713.6,418.2 715.9,415.9 715.9,415.9 713.6,415.9 713.6,418.2 715.9,420.5 720.5,420.5 727.3,422.7 731.8,425.0 734.1,425.0 734.1,425.0 731.8,425.0 727.3,425.0 725.0,427.3 725.0,429.5 727.3,429.5 731.8,429.5 736.4,429.5 743.2,431.8 752.3,436.4 761.4,440.9 768.2,447.7 772.7,456.8 775.0,465.9 777.3,477.3 781.8,486.4 786.4,497.7 788.6,511.4 788.6,525.0 788.6,538.6 786.4,552.3 786.4,565.9 788.6,581.8 793.2,595.5 795.5,606.8 797.7,618.2 797.7,631.8 795.5,643.2 790.9,652.3 784.1,659.1 775.0,663.6 763.6,665.9 750.0,665.9 734.1,663.6 715.9,659.1 695.5,652.3 677.3,643.2 661.4,631.8 647.7,618.2 636.4,602.3 627.3,584.1 620.5,563.6 615.9,543.2 613.6,522.7 613.6,502.3 615.9,481.8 620.5,461.4 627.3,440.9 636.4,420.5 647.7,402.3 661.4,386.4 677.3,372.7 695.5,361.4 711.4,352.3 725.0,345.5 736.4,340.9 745.5,338.6 752.3,338.6 756.8,340.9 759.1,345.5 759.1,352.3 756.8,361.4 752.3,372.7 745.5,386.4 736.4,402.3 725.0,415.9 711.4,427.3 695.5,436.4 681.8,443.2 670.5,447.7 661.4,450.0 654.5,450.0 650.0,447.7 647.7,443.2 647.7,436.4 650.0,427.3 654.5,415.9 661.4,406.8 670.5,400.0 681.8,395.5 695.5,393.2 706.8,393.2 715.9,395.5 722.7,400.0 727.3,406.8 729.5,411.4 729.5,413.6 727.3,413.6 722.7,411.4 715.9,411.4 706.8,411.4 695.5,411.4 686.4,409.1 679.5,409.1 675.0,409.1 672.7,409.1 672.7,409.1 675.0,409.1 679.5,409.1 686.4,409.1 690.9,409.1 693.2,406.8 693.2,404.5 690.9,404.5 688.6,404.5 684.1,402.3 677.3,397.7 668.2,390.9 656.8,381.8 643.2,370.5 627.3,356.8 609.1,340.9 588.6,322.7 568.2,302.3 547.7,281.8 527.3,263.6 506.8,247.7 486.4,234.1 465.9,222.7 445.5,213.6 425.0,206.8 404.5,202.3 384.1,200.0 363.6,200.0 343.2,202.3 322.7,206.8 302.3,213.6 281.8,222.7 263.6,234.1 247.7,247.7 234.1,263.6 222.7,279.5 213.6,293.2 206.8,304.5 202.3,313.6 200.0,320.5 200.0,325.0 202.3,327.3 206.8,327.3 213.6,325.0 222.7,320.5 234.1,313.6 247.7,304.5 263.6,293.2 277.3,279.5 288.6,268.2 297.7,259.1 304.5,252.3 309.1,247.7 311.4,245.5 311.4,245.5 309.1,247.7 304.5,252.3 297.7,259.1 288.6,268.2 277.3,279.5 268.2,288.6 261.4,295.5 256.8,300.0 254.5,302.3 254.5,302.3 256.8,300.0 261.4,295.5 268.2,288.6" fill="none" stroke="red" stroke-width="7" stroke-opacity="0.5"/>
  <circle cx="272.7" cy="281.8" r="15" fill="blue" fill-opacity="0.5"/>
</svg>