<svg width="1000" height="1000" xmlns="http://www.w3.org/2000/svg">
  <rect x="200" y="200" width="600" height="600" fill="white" stroke="gray" stroke-width="5" />
  <circle cx="200.0" cy="745.5" r="7" fill="black" />
  <circle cx="200.0" cy="742.0" r="7" fill="black" />
  <circle cx="210.2" cy="735.2" r="7" fill="black" />
  <circle cx="210.2" cy="731.8" r="7" fill="black" />
  <circle cx="213.6" cy="721.6" r="7" fill="black" />
  <circle cx="220.5" cy="711.4" r="7" fill="black" />
  <circle cx="227.3" cy="690.9" r="7" fill="black" />
  <circle cx="227.3" cy="680.7" r="7" fill="black" />
  <circle cx="244.3" cy="663.6" r="7" fill="black" />
  <circle cx="247.7" cy="650.0" r="7" fill="black" />
  <circle cx="268.2" cy="633.0" r="7" fill="black" />
  <circle cx="278.4" cy="619.3" r="7" fill="black" />
  <circle cx="305.7" cy="598.9" r="7" fill="black" />
  <circle cx="326.1" cy="585.2" r="7" fill="black" />
  <circle cx="346.6" cy="568.2" r="7" fill="black" />
  <circle cx="370.5" cy="554.5" r="7" fill="black" />
  <circle cx="394.3" cy="544.3" r="7" fill="black" />
  <circle cx="408.0" cy="534.1" r="7" fill="black" />
  <circle cx="421.6" cy="527.3" r="7" fill="black" />
  <circle cx="445.5" cy="517.0" r="7" fill="black" />
  <circle cx="459.1" cy="517.0" r="7" fill="black" />
  <circle cx="476.1" cy="513.6" r="7" fill="black" />
  <circle cx="496.6" cy="510.2" r="7" fill="black" />
  <circle cx="503.4" cy="500.0" r="7" fill="black" />
  <circle cx="513.6" cy="496.6" r="7" fill="black" />
  <circle cx="527.3" cy="483.0" r="7" fill="black" />
  <circle cx="534.1" cy="476.1" r="7" fill="black" />
  <circle cx="537.5" cy="462.5" r="7" fill="black" />
  <circle cx="547.7" cy="448.9" r="7" fill="black" />
  <circle cx="558.0" cy="428.4" r="7" fill="black" />
  <circle cx="564.8" cy="421.6" r="7" fill="black" />
  <circle cx="571.6" cy="401.1" r="7" fill="black" />
  <circle cx="578.4" cy="390.9" r="7" fill="black" />
  <circle cx="588.6" cy="370.5" r="7" fill="black" />
  <circle cx="595.5" cy="363.6" r="7" fill="black" />
  <circle cx="602.3" cy="350.0" r="7" fill="black" />
  <circle cx="609.1" cy="336.4" r="7" fill="black" />
  <circle cx="622.7" cy="322.7" r="7" fill="black" />
  <circle cx="636.4" cy="312.5" r="7" fill="black" />
  <circle cx="646.6" cy="295.5" r="7" fill="black" />
  <circle cx="660.2" cy="285.2" r="7" fill="black" />
  <circle cx="673.9" cy="271.6" r="7" fill="black" />
  <circle cx="687.5" cy="258.0" r="7" fill="black" />
  <circle cx="694.3" cy="247.7" r="7" fill="black" />
  <circle cx="714.8" cy="230.7" r="7" fill="black" />
  <circle cx="728.4" cy="223.9" r="7" fill="black" />
  <circle cx="738.6" cy="217.0" r="7" fill="black" />
  <circle cx="755.7" cy="210.2" r="7" fill="black" />
  <circle cx="769.3" cy="203.4" r="7" fill="black" />
  <circle cx="796.6" cy="200.0" r="7" fill="black" />
  <polyline points="206.8,748.9 203.4,745.5 200.0,745.5 200.0,742.0 203.4,735.2 210.2,731.8 213.6,731.8 213.6,735.2 210.2,735.2 210.2,731.8 213.6,725.0 213.6,721.6 217.0,714.8 220.5,711.4 227.3,704.5 230.7,697.7 230.7,690.9 227.3,687.5 227.3,687.5 227.3,690.9 227.3,690.9 227.3,687.5 227.3,680.7 230.7,673.9 237.5,667.0 244.3,663.6 247.7,656.8 247.7,650.0 251.1,643.2 258.0,636.4 264.8,633.0 268.2,633.0 275.0,629.5 278.4,622.7 278.4,619.3 281.8,612.5 288.6,605.7 295.5,598.9 302.3,595.5 305.7,595.5 305.7,598.9 309.1,598.9 315.9,595.5 322.7,588.6 326.1,585.2 333.0,578.4 339.8,571.6 346.6,568.2 353.4,561.4 360.2,554.5 367.0,551.1 370.5,551.1 370.5,554.5 373.9,554.5 380.7,551.1 387.5,544.3 394.3,540.9 397.7,540.9 397.7,544.3 394.3,544.3 394.3,540.9 397.7,534.1 404.5,530.7 408.0,530.7 408.0,534.1 411.4,534.1 418.2,530.7 421.6,527.3 428.4,520.5 435.2,517.0 442.0,517.0 445.5,517.0 452.3,517.0 459.1,517.0 465.9,513.6 472.7,513.6 476.1,513.6 483.0,510.2 489.8,510.2 496.6,510.2 503.4,506.8 506.8,500.0 506.8,496.6 503.4,496.6 503.4,500.0 506.8,500.0 513.6,496.6 520.5,489.8 527.3,483.0 534.1,476.1 537.5,469.3 537.5,462.5 540.9,455.7 547.7,448.9 554.5,442.0 558.0,435.2 558.0,428.4 561.4,421.6 564.8,418.2 564.8,418.2 564.8,421.6 568.2,421.6 571.6,418.2 571.6,411.4 571.6,404.5 571.6,401.1 575.0,394.3 578.4,390.9 585.2,384.1 588.6,377.3 588.6,370.5 592.0,363.6 595.5,360.2 595.5,360.2 595.5,363.6 598.9,363.6 602.3,360.2 602.3,353.4 602.3,350.0 605.7,343.2 609.1,336.4 615.9,329.5 622.7,322.7 629.5,315.9 636.4,312.5 643.2,305.7 646.6,298.9 646.6,295.5 650.0,288.6 656.8,285.2 660.2,285.2 667.0,281.8 673.9,275.0 677.3,271.6 677.3,271.6 673.9,271.6 673.9,268.2 677.3,261.4 684.1,258.0 687.5,258.0 694.3,254.5 697.7,247.7 697.7,244.3 694.3,244.3 694.3,247.7 697.7,247.7 704.5,244.3 711.4,237.5 714.8,230.7 721.6,223.9 728.4,220.5 731.8,220.5 731.8,223.9 728.4,223.9 728.4,220.5 731.8,217.0 738.6,217.0 745.5,213.6 752.3,210.2 755.7,210.2 762.5,206.8 769.3,203.4 776.1,200.0 783.0,200.0 789.8,200.0" fill="none" stroke="red" stroke-width="7" stroke-opacity="0.5"/>
  <circle cx="796.6" cy="200.0" r="15" fill="blue" fill-opacity="0.5"/>
</svg>