<svg width="1000" height="1000" xmlns="http://www.w3.org/2000/svg">
  <rect x="200" y="200" width="600" height="600" fill="white" stroke="gray" stroke-width="5" />
  <circle cx="590.0" cy="569.7" r="7" fill="black" />
  <circle cx="651.8" cy="654.1" r="7" fill="black" />
  <circle cx="496.1" cy="476.7" r="7" fill="black" />
  <circle cx="484.7" cy="467.5" r="7" fill="black" />
  <circle cx="456.4" cy="446.9" r="7" fill="black" />
  <circle cx="309.3" cy="345.6" r="7" fill="black" />
  <circle cx="658.4" cy="668.1" r="7" fill="black" />
  <circle cx="644.1" cy="641.2" r="7" fill="black" />
  <circle cx="673.2" cy="698.4" r="7" fill="black" />
  <circle cx="327.6" cy="359.7" r="7" fill="black" />
  <circle cx="343.1" cy="370.2" r="7" fill="black" />
  <circle cx="289.8" cy="329.6" r="7" fill="black" />
  <circle cx="244.1" cy="288.1" r="7" fill="black" />
  <circle cx="323.0" cy="356.2" r="7" fill="black" />
  <circle cx="386.3" cy="399.7" r="7" fill="black" />
  <circle cx="677.0" cy="706.2" r="7" fill="black" />
  <circle cx="423.2" cy="425.5" r="7" fill="black" />
  <circle cx="507.9" cy="486.4" r="7" fill="black" />
  <circle cx="519.3" cy="496.7" r="7" fill="black" />
  <circle cx="370.0" cy="388.8" r="7" fill="black" />
  <circle cx="407.4" cy="414.6" r="7" fill="black" />
  <circle cx="305.3" cy="342.5" r="7" fill="black" />
  <circle cx="605.2" cy="587.7" r="7" fill="black" />
  <circle cx="248.1" cy="292.4" r="7" fill="black" />
  <circle cx="579.1" cy="558.5" r="7" fill="black" />
  <circle cx="364.5" cy="385.1" r="7" fill="black" />
  <circle cx="632.3" cy="622.9" r="7" fill="black" />
  <circle cx="554.2" cy="528.5" r="7" fill="black" />
  <circle cx="473.2" cy="458.9" r="7" fill="black" />
  <circle cx="490.4" cy="472.1" r="7" fill="black" />
  <circle cx="233.5" cy="275.5" r="7" fill="black" />
  <circle cx="255.8" cy="300.4" r="7" fill="black" />
  <circle cx="559.4" cy="534.2" r="7" fill="black" />
  <circle cx="574.0" cy="552.5" r="7" fill="black" />
  <circle cx="348.5" cy="373.7" r="7" fill="black" />
  <circle cx="418.0" cy="421.7" r="7" fill="black" />
  <circle cx="268.7" cy="311.6" r="7" fill="black" />
  <circle cx="318.2" cy="352.5" r="7" fill="black" />
  <circle cx="301.3" cy="339.3" r="7" fill="black" />
  <circle cx="264.1" cy="308.2" r="7" fill="black" />
  <circle cx="391.4" cy="403.4" r="7" fill="black" />
  <circle cx="380.8" cy="396.0" r="7" fill="black" />
  <circle cx="217.2" cy="252.4" r="7" fill="black" />
  <circle cx="236.9" cy="279.8" r="7" fill="black" />
  <circle cx="681.0" cy="713.6" r="7" fill="black" />
  <circle cx="277.5" cy="319.0" r="7" fill="black" />
  <circle cx="467.5" cy="454.9" r="7" fill="black" />
  <circle cx="600.3" cy="581.4" r="7" fill="black" />
  <circle cx="313.6" cy="349.1" r="7" fill="black" />
  <circle cx="434.0" cy="432.0" r="7" fill="black" />
  <circle cx="623.7" cy="611.2" r="7" fill="black" />
  <circle cx="412.6" cy="418.0" r="7" fill="black" />
  <circle cx="569.1" cy="546.2" r="7" fill="black" />
  <circle cx="332.5" cy="363.4" r="7" fill="black" />
  <circle cx="337.6" cy="366.8" r="7" fill="black" />
  <circle cx="230.3" cy="271.2" r="7" fill="black" />
  <circle cx="636.3" cy="628.9" r="7" fill="black" />
  <circle cx="513.6" cy="491.6" r="7" fill="black" />
  <circle cx="595.1" cy="575.4" r="7" fill="black" />
  <circle cx="293.6" cy="332.8" r="7" fill="black" />
  <circle cx="479.0" cy="463.2" r="7" fill="black" />
  <circle cx="213.4" cy="247.5" r="7" fill="black" />
  <circle cx="584.5" cy="564.2" r="7" fill="black" />
  <circle cx="285.8" cy="326.2" r="7" fill="black" />
  <circle cx="402.0" cy="410.9" r="7" fill="black" />
  <circle cx="661.8" cy="675.3" r="7" fill="black" />
  <circle cx="353.6" cy="377.4" r="7" fill="black" />
  <circle cx="640.1" cy="635.2" r="7" fill="black" />
  <circle cx="665.5" cy="682.7" r="7" fill="black" />
  <circle cx="525.3" cy="502.1" r="7" fill="black" />
  <circle cx="548.8" cy="522.7" r="7" fill="black" />
  <circle cx="531.3" cy="507.3" r="7" fill="black" />
  <circle cx="359.1" cy="381.1" r="7" fill="black" />
  <circle cx="537.3" cy="512.2" r="7" fill="black" />
  <circle cx="273.2" cy="315.3" r="7" fill="black" />
  <circle cx="375.4" cy="392.3" r="7" fill="black" />
  <circle cx="450.4" cy="442.9" r="7" fill="black" />
  <circle cx="609.7" cy="593.7" r="7" fill="black" />
  <circle cx="439.2" cy="435.5" r="7" fill="black" />
  <circle cx="648.1" cy="647.5" r="7" fill="black" />
  <circle cx="669.5" cy="690.4" r="7" fill="black" />
  <circle cx="281.8" cy="322.5" r="7" fill="black" />
  <circle cx="396.9" cy="407.2" r="7" fill="black" />
  <circle cx="227.5" cy="266.7" r="7" fill="black" />
  <circle cx="224.3" cy="261.8" r="7" fill="black" />
  <circle cx="240.3" cy="283.8" r="7" fill="black" />
  <circle cx="619.2" cy="605.4" r="7" fill="black" />
  <circle cx="564.2" cy="540.2" r="7" fill="black" />
  <circle cx="297.3" cy="335.9" r="7" fill="black" />
  <circle cx="220.9" cy="257.2" r="7" fill="black" />
  <circle cx="614.3" cy="599.4" r="7" fill="black" />
  <circle cx="655.2" cy="660.9" r="7" fill="black" />
  <circle cx="428.6" cy="428.9" r="7" fill="black" />
  <circle cx="628.0" cy="616.9" r="7" fill="black" />
  <circle cx="543.1" cy="517.3" r="7" fill="black" />
  <circle cx="444.6" cy="439.2" r="7" fill="black" />
  <circle cx="259.8" cy="304.4" r="7" fill="black" />
  <circle cx="501.9" cy="481.5" r="7" fill="black" />
  <circle cx="462.1" cy="450.9" r="7" fill="black" />
  <circle cx="251.8" cy="296.4" r="7" fill="black" />
  <polyline points="206.6,240.9 206.9,241.2 207.4,241.8 208.3,242.6 209.4,243.8 210.9,245.2 212.3,246.4 213.4,247.5 214.9,248.9 216.0,250.6 217.2,252.4 218.6,254.4 220.3,256.7 221.7,258.7 223.2,260.4 224.3,261.8 225.8,263.5 227.2,265.5 228.3,267.5 229.5,269.5 230.3,271.2 231.5,273.2 232.9,275.3 234.3,277.0 235.8,278.4 236.9,279.8 238.3,281.5 240.1,283.5 241.5,285.3 242.9,286.7 244.1,288.1 245.5,289.8 246.9,291.3 248.1,292.4 249.5,293.8 250.6,295.3 251.8,296.4 253.2,297.9 254.6,299.3 255.8,300.4 257.2,301.9 258.7,303.3 259.8,304.4 261.2,305.9 262.7,307.0 264.1,308.2 265.8,309.6 267.2,310.7 268.7,311.6 270.4,312.7 271.8,314.2 273.2,315.3 275.0,316.7 276.4,317.9 277.5,319.0 279.0,320.5 280.4,321.6 281.8,322.5 283.5,323.6 285.0,325.0 286.7,326.8 288.7,328.5 291.0,330.5 293.6,332.8 295.9,335.1 298.4,337.1 301.3,339.3 303.9,341.3 306.4,343.3 309.3,345.6 312.2,347.6 315.0,349.9 318.2,352.5 321.3,355.1 324.5,357.4 327.6,359.7 331.0,361.9 334.2,364.2 337.6,366.8 341.3,369.1 344.8,371.4 348.5,373.7 351.9,376.3 355.4,378.5 359.1,381.1 362.8,383.7 366.2,386.3 370.0,388.8 373.7,391.1 377.1,393.4 380.8,396.0 384.3,398.6 387.7,400.9 391.4,403.4 394.8,406.0 398.3,408.3 402.0,410.9 405.4,413.4 408.9,415.7 412.6,418.0 416.0,420.6 419.5,422.9 423.2,425.5 426.9,427.8 430.3,429.8 434.0,432.0 437.5,434.3 440.9,436.6 444.6,439.2 448.6,441.5 452.4,444.1 456.4,446.9 460.1,449.5 463.8,452.1 467.5,454.9 471.2,457.8 475.0,460.4 479.0,463.2 482.7,466.1 486.4,469.0 490.4,472.1 494.1,475.0 497.9,478.1 501.9,481.5 505.9,485.0 509.6,488.1 513.6,491.6 517.6,495.0 521.3,498.4 525.3,502.1 529.3,505.6 533.3,508.7 537.3,512.2 541.1,515.6 544.8,519.0 548.8,522.7 552.5,526.5 555.9,530.2 559.4,534.2 562.5,538.2 565.7,542.2 569.1,546.2 572.5,550.2 575.7,554.2 579.1,558.5 582.8,562.5 586.3,566.2 590.0,569.7 593.4,573.4 596.9,577.4 600.3,581.4 603.4,585.7 606.6,589.7 609.7,593.7 612.6,597.7 615.7,601.4 619.2,605.4 622.3,609.2 625.2,612.9 628.0,616.9 630.9,620.9 633.5,624.9 636.3,628.9 638.9,632.9 641.5,636.9 644.1,641.2 646.4,645.5 648.9,649.8 651.8,654.1 654.4,658.7 656.7,663.2 658.7,668.1 660.7,672.7 662.9,677.5 665.5,682.7 667.8,688.1 670.4,693.3 673.2,698.4 675.8,703.6 678.4,708.4 681.0,713.6 683.3,718.5 685.3,723.0 687.0,727.3 688.4,731.3 689.6,735.1 690.4,738.5 691.0,741.6 691.3,744.5 691.3,747.1 691.0,749.4 690.4,751.4 689.6,753.1 688.4,754.5 687.0,755.7 685.3,756.5 683.3,757.1 681.0,757.4 679.0,757.4 677.3,757.1 675.8,756.5 674.7,755.7 673.8,754.5 673.2,753.1 673.0,751.4 673.0,749.4 673.2,747.1 673.8,744.5 674.7,741.6 675.8,738.5 677.0,735.1 677.8,731.3 678.4,727.3 678.7,723.0 678.7,718.5 678.4,714.2 677.8,710.2 677.0,706.2 675.8,701.9 674.4,697.3 672.7,693.0 670.7,688.4 668.4,683.5 665.8,678.7 663.2,674.1 660.4,669.8 657.8,665.5 655.2,660.9 652.4,656.1 649.8,651.5 647.5,647.2 645.2,643.2 642.6,639.2 640.1,635.2 637.2,630.9 634.6,626.9 632.3,622.9 629.8,618.6 626.9,614.6 624.0,610.9 620.9,607.2 617.5,603.1 614.3,599.4 610.9,595.4 607.7,591.4 604.9,587.7 601.7,583.7 598.3,579.4 595.1,575.4 591.7,571.1 588.3,567.1 584.8,563.4 581.1,559.9 577.4,556.2 574.0,552.5 570.2,548.5 566.8,544.5 563.7,540.8 560.2,536.8 557.1,532.5 554.2,528.5 551.1,524.2 547.6,520.2 544.2,516.5 540.5,513.0 536.5,509.9 532.2,506.7 527.6,503.3 523.3,499.9 519.3,496.7 515.0,493.3 511.0,490.1 507.3,487.0 503.3,483.5 499.6,480.1 496.1,476.7 492.4,473.0 489.0,469.5 485.6,466.4 481.8,463.5 478.1,460.9 474.1,458.4 469.8,455.8 465.8,453.2 462.1,450.9 458.1,448.4 454.1,445.5 450.4,442.9 446.4,440.1 442.6,437.5 439.2,435.2 435.8,433.2 432.0,430.9 428.6,428.9 424.9,426.6 421.5,424.0 418.0,421.7 414.3,419.2 410.9,416.9 407.4,414.6 403.7,412.0 400.3,409.4 396.9,407.2 393.1,404.6 389.7,402.0 386.3,399.7 382.5,397.1 378.8,394.6 375.4,392.3 371.7,389.7 368.0,387.4 364.5,385.1 360.8,382.5 357.1,380.0 353.6,377.4 349.9,374.5 346.5,372.0 343.1,369.7 339.6,367.7 335.9,365.4 332.5,363.4 328.8,361.1 324.7,358.5 320.5,355.7 315.9,352.5 311.6,349.1 307.3,345.4 303.3,341.9 299.3,338.2 295.0,334.5 290.4,330.5 285.8,326.2 281.3,322.2 276.4,318.5 271.2,314.7 265.8,310.7 260.1,306.4 254.4,301.9 248.9,297.6 243.8,293.6 238.9,289.8 234.3,286.4 230.0,283.3 226.0,280.4 222.3,277.8 218.9,275.5 215.7,273.5 212.9,271.8 210.3,269.8 208.0,267.5 206.0,265.2 204.3,263.2 202.9,261.5 201.7,260.1 200.9,258.9 200.3,258.1 200.0,257.5 200.0,257.2 200.3,257.2 200.9,257.2 201.7,257.2 202.9,257.2 204.3,257.2 206.0,257.2 208.0,257.2 210.3,257.2 212.9,257.2 215.7,257.2 218.3,257.2 220.9,257.2 223.7,257.5 226.3,258.1 228.6,258.9 230.6,260.1 232.3,261.5 233.8,263.2 234.9,265.2 235.8,267.5 236.3,270.1 237.2,273.0 238.3,276.1 239.2,279.0 239.8,281.5 240.3,283.8 240.6,285.8 240.6,287.6 240.3,289.0 239.8,290.1 238.9,291.0 237.8,291.6 236.3,291.8 234.9,291.8 233.8,291.6 232.9,291.0 232.3,290.1 232.0,289.0 232.0,287.6 232.3,285.8 232.9,283.8 233.5,281.5 233.8,279.3 233.8,277.3 233.5,275.5 232.9,273.5 232.0,271.2 230.9,269.2 230.0,267.5 229.5,266.1 229.2,264.9 228.9,264.1 228.3,263.5 227.8,263.2 227.5,263.2 227.5,263.5 227.5,264.1 227.5,264.9 227.5,265.8 227.5,266.7 227.8,267.8 228.3,269.2 229.2,271.0 230.3,273.0 231.8,275.3 233.5,277.8 235.5,280.7 237.8,283.8 240.3,287.3 243.2,291.0 246.4,295.0 249.8,299.3 253.5,303.9 257.5,308.7 261.8,313.9 266.4,319.3 271.2,325.0 276.4,330.5 281.8,335.6 287.6,340.5 293.6,345.1 299.9,349.4 306.4,353.4 313.3,357.1 320.5,360.5 327.9,363.7 335.6,367.1 343.1,370.2 350.2,373.4 357.7,376.8 365.4,380.5 373.4,384.5 381.7,388.8 390.3,393.4 399.1,398.3 408.3,403.4 417.7,408.9 427.5,414.6 437.5,420.6 447.8,426.9 458.4,433.5 469.0,440.3 479.3,447.5 489.3,454.9 499.0,462.7 508.4,470.7 517.6,479.0 526.5,487.6 535.6,496.4 544.5,505.6 553.1,515.0 561.4,524.7 569.4,534.8 577.1,545.1 584.5,555.7 591.7,566.5 598.6,577.1 605.2,587.7 611.4,598.6 617.5,609.2 623.2,619.5 628.9,629.5 634.9,639.2 641.2,648.6 647.8,657.8 654.6,666.7 661.8,675.3 668.7,683.5 675.3,691.6 681.5,699.3 687.6,706.7 693.3,713.9 698.7,720.7 703.9,727.3 708.7,733.6 713.3,739.6 717.6,745.4 721.6,750.8 725.3,755.9 728.8,760.8 731.9,765.4 734.8,769.7 737.3,773.7 739.6,777.4 741.6,780.8 743.3,784.0 744.8,786.8 745.9,789.4 746.8,791.7 747.4,793.7 747.6,795.4 747.6,796.9 747.4,798.0 746.8,798.9 745.9,799.4 744.8,799.7 743.3,799.7 741.6,799.4 739.6,798.9 737.3,798.0 734.8,796.9 731.9,795.4 728.8,793.7 725.3,791.7 721.6,789.4 717.6,786.8 713.3,784.0 708.7,780.8 703.9,777.4 698.7,773.7 693.3,769.7 687.6,765.4 681.5,760.8 675.3,755.9 669.2,750.8 663.5,745.4 658.1,739.6 652.9,733.6 648.1,727.3 643.5,720.7 639.2,713.9 635.2,706.7 631.5,699.9 628.0,693.3 624.9,686.7 622.0,679.8 619.5,672.7 617.2,665.5 615.2,658.1 613.4,650.9 612.0,644.1 610.6,636.9 608.9,629.8 606.9,622.3 604.6,614.6 602.0,606.6 599.1,598.3 596.0,589.7 592.6,580.8 588.8,572.2 584.8,563.9 580.5,555.9 576.0,548.2 571.7,540.8 567.4,533.6 562.8,526.8 558.2,520.2 553.4,513.9 548.2,507.9 542.8,502.1 537.1,496.7 531.0,491.6 524.7,486.7 518.2,482.1 511.3,477.8 504.1,473.8 496.7,469.8 489.0,466.1 481.3,462.7 473.2,458.9 465.5,455.5 458.1,452.4 450.9,449.5 444.1,446.9 437.5,444.6 431.2,442.6 425.2,440.9 419.5,439.5 414.0,438.3 408.9,437.5 404.0,436.9 399.4,436.6 395.1,436.6 391.1,436.9 387.4,437.5 384.0,438.3 380.8,439.2 378.0,439.8 375.4,440.1 373.1,440.1 371.1,440.1 369.4,439.8 368.0,439.2 366.8,438.3 366.0,437.2 365.4,436.3 365.1,435.8 365.1,435.5 365.4,435.5 366.0,435.5 366.8,435.5 368.0,435.5 369.4,435.5 371.1,435.5 373.1,435.5 375.4,435.5 378.0,435.5 380.8,435.5 384.0,435.5 387.4,435.5 391.1,435.5 395.1,435.5 399.4,435.5 404.0,435.5 408.9,435.5 414.0,435.5 419.5,435.5 424.6,435.5 429.8,435.5 434.6,435.5 439.2,435.5 444.1,435.8 449.2,436.3 454.6,437.2 460.4,438.3 466.4,439.8 472.7,441.5 478.7,443.5 484.4,445.8 489.8,448.4 495.0,451.2 499.9,454.4 504.4,457.8 508.7,461.5 512.7,465.5 516.5,469.8 519.9,474.4 523.0,479.3 525.9,484.4 529.0,489.8 531.9,495.6 534.5,501.3 537.3,506.7 540.2,512.2 543.1,517.3 545.6,522.2 548.5,527.3 551.6,532.2 554.8,536.8 558.2,541.1 561.9,545.1 566.0,548.8 570.2,552.5 574.8,556.5 579.7,560.5 584.5,564.2 589.1,567.7 594.0,571.4 599.1,575.4 604.6,579.7 610.3,584.3 616.3,589.1 622.0,594.3 627.5,599.7 632.6,605.4 637.5,611.4 642.1,617.7 646.6,624.3 650.9,630.6 654.9,636.6 658.7,642.3 662.1,647.8 665.2,653.2 668.1,658.4 670.7,663.2 673.0,667.8 675.0,672.1 676.7,676.1 678.1,679.8 679.3,683.3 680.1,686.4 680.7,689.3 681.0,691.8 681.0,694.1 680.7,696.1 680.1,697.9 679.3,699.3 678.1,700.4 676.7,701.3 675.0,701.9 673.0,702.1 671.2,702.1 669.8,701.9 668.7,701.3 667.8,700.4 667.2,699.3 667.0,697.9 667.0,696.1 667.2,694.1 667.8,692.4 668.7,691.0 669.2,689.8 669.5,689.0 669.8,688.4 669.8,688.1 669.5,688.1 669.5,688.4 669.5,689.0 669.5,689.8 669.5,690.4 669.2,690.7 668.7,690.7 667.8,690.4 666.7,689.8 665.2,689.0 663.5,687.8 661.5,686.4 659.2,684.7 657.2,682.7 655.5,680.4 654.1,677.8 652.9,675.3 652.1,673.0 651.5,671.0 651.2,669.2 651.2,667.8 651.5,666.7 652.1,665.8 652.9,665.2 654.1,664.9 655.5,664.9 656.9,665.2 658.1,665.8 658.9,666.7 659.5,667.2 659.8,667.8 659.8,668.1 659.5,668.1 658.9,668.1 658.4,668.1 657.5,667.8 656.4,667.2 654.9,666.4 653.2,665.2 651.2,663.8 648.9,662.1 646.9,660.1 645.2,657.8 643.8,655.2 642.6,652.9 641.8,650.9 641.2,649.2 640.9,647.8 640.9,646.6 641.2,645.8 641.8,645.2 642.6,644.9 643.8,644.9 645.2,645.2 646.6,645.8 647.8,646.6 648.6,647.2 649.2,647.5 649.5,647.5 649.5,647.5 649.2,647.5 648.6,647.5 648.1,647.5 647.2,647.2 646.1,646.6 644.6,645.8 642.9,644.6 640.9,643.2 638.6,641.5 636.1,639.5 633.2,637.2 630.0,634.6 626.6,631.8 623.5,629.2 620.6,626.6 618.0,624.0 615.7,621.5 613.7,619.2 612.0,617.2 610.6,615.5 609.4,614.0 608.6,612.9 608.0,612.0 607.7,611.4 607.7,611.2 608.0,611.2 608.6,611.2 609.4,611.2 610.6,611.2 612.0,611.2 613.7,611.2 615.7,611.2 618.0,611.2 620.0,611.2 622.0,611.2 623.7,611.2 625.2,610.9 626.3,610.3 627.2,609.4 627.8,608.3 628.0,606.9 628.0,605.2 627.8,603.1 627.2,600.9 626.3,598.3 625.2,595.4 623.7,592.3 622.0,588.8 620.0,585.1 617.7,581.1 615.2,576.8 612.3,572.2 609.2,567.4 605.7,562.2 602.0,556.8 598.0,551.1 593.7,545.1 589.1,539.3 584.3,533.9 579.4,528.8 574.2,523.9 568.8,519.0 563.1,513.9 557.1,508.4 550.8,503.3 544.2,498.4 537.3,493.8 530.5,489.6 523.3,485.6 516.2,481.8 509.3,478.4 502.7,475.3 496.4,472.4 490.4,469.8 484.7,467.5 479.3,465.5 474.1,463.8 469.2,462.4 464.7,461.2 460.4,460.4 456.4,459.8 452.6,459.5 449.2,459.5 446.1,459.8 443.2,460.4 440.6,461.2 438.3,462.4 436.3,463.8 434.6,465.5 433.2,467.5 432.0,469.8 431.2,472.4 430.6,475.3 430.3,478.4 430.3,481.5 430.6,484.4 431.2,487.0 432.0,489.3 433.2,491.3 434.6,493.0 436.3,494.4 438.3,495.6 440.6,496.4 443.2,497.0 446.1,497.3 449.2,497.3 452.6,497.0 456.4,496.4 460.4,495.6 464.7,494.4 469.2,493.0 474.1,491.3 479.3,489.3 484.1,487.0 488.7,485.0 493.0,483.3 497.0,481.8 500.7,480.7 504.1,479.8 507.3,479.3 510.2,479.0 512.7,479.0 515.0,479.3 517.0,479.8 518.7,480.7 520.2,481.8 521.3,483.3 522.2,484.4 522.7,485.3 523.0,485.8 523.0,486.1 522.7,486.4 522.2,486.4 521.3,486.4 520.2,486.4 518.7,486.4 517.0,486.4 515.0,486.4 512.7,486.4 510.2,486.4 507.9,486.4 505.9,486.7 504.1,487.3 502.7,488.1 501.6,489.3 500.7,490.7 500.1,492.4 499.9,494.4 499.9,496.7 500.1,499.3 500.7,502.1 501.6,505.0 502.7,507.6 504.1,509.9 505.9,511.9 507.9,513.6 510.2,515.0 512.7,516.2 515.6,517.0 518.7,517.6 522.2,517.9 525.3,517.9 528.2,517.6 530.8,517.0 533.0,516.2 535.1,515.0 536.8,513.6 538.2,511.9 539.3,510.4 540.2,509.3 540.8,508.4 541.1,507.9 541.1,507.6 540.8,507.3 540.2,507.3 539.3,507.3 538.2,507.3 536.8,507.3 535.1,507.3 533.0,507.3 531.3,507.3 529.9,507.6 528.8,508.2 527.9,509.0 527.3,510.2 527.0,511.6 527.0,513.3 527.3,515.3 527.9,517.6 528.8,520.2 529.9,523.0 531.3,526.2 533.0,529.6 535.1,533.3 537.3,537.3 539.9,541.1 542.8,544.5 545.9,547.6 548.8,550.5 551.4,553.1 553.9,555.4 556.2,557.4 558.2,559.1 559.9,560.5 561.4,561.7 562.5,562.5 563.4,563.1 563.9,563.4 564.2,563.4 564.2,563.1 564.2,562.5 564.2,561.7 564.2,560.5 564.2,559.1 564.2,557.4 564.2,555.4 564.2,553.1 564.2,550.5 564.2,547.6 564.2,545.1 564.2,542.5 564.2,540.2 563.9,537.6 563.4,534.8 562.5,531.6 561.4,528.2 559.9,524.5 558.2,520.5 556.2,516.2 553.9,511.6 551.4,506.7 548.5,501.6 545.4,496.1 541.9,490.4 538.2,484.4 534.2,478.1 529.9,471.5 525.3,464.7 520.5,457.5 515.3,450.1 509.9,442.3 504.1,434.3 498.1,426.0 491.8,417.5 485.3,408.6 478.4,399.4 471.2,390.0 463.8,380.3 456.1,370.2 448.6,360.5 441.5,351.1 434.6,341.9 427.8,333.0 420.6,324.5 413.2,316.2 405.7,308.2 398.0,300.4 390.3,293.0 382.8,285.8 375.7,279.0 368.8,272.4 362.2,266.1 355.9,260.1 349.9,254.4 344.2,248.9 338.8,243.8 333.6,238.9 328.8,234.3 324.2,230.0 319.9,226.0 315.9,222.3 312.2,218.9 308.7,215.7 305.6,212.9 302.7,210.3 300.1,208.0 297.9,206.0 295.9,204.3 294.1,202.9 292.7,201.7 291.6,200.9 290.7,200.3 290.1,200.0 289.8,200.0 289.8,200.3 289.8,200.9 289.8,201.7 289.8,202.9 289.8,204.3 289.8,206.0 289.8,208.0 289.8,210.3 289.8,212.9 289.8,215.7 289.8,218.9 289.8,222.3 289.8,226.0 289.8,230.0 289.8,234.3 289.8,238.9 289.8,243.8 289.8,248.9 289.8,254.4 289.8,260.1 289.8,266.1 289.8,272.4 289.8,279.0 289.8,285.8 289.8,293.0 289.8,300.4 289.8,308.2 289.8,315.6 289.8,322.7 289.8,329.6 290.1,336.2 290.7,342.5 291.6,348.5 292.7,354.2 294.1,359.7 295.9,364.8 297.9,369.7 300.1,374.2 302.7,378.5 305.6,382.5 308.4,386.3 311.0,389.7 313.3,392.8 315.6,395.7 317.6,398.3 319.3,400.6 320.7,402.6 321.9,404.3 322.7,405.7 323.3,406.9 323.6,407.7 323.6,408.3 323.3,408.6 323.0,408.6 323.0,408.3 323.0,407.7 323.0,406.9 323.0,405.7 323.0,404.3 323.0,402.6 323.0,400.6 323.0,398.3 323.0,395.7 323.0,392.8 323.0,389.7 323.0,386.3 323.0,382.5 323.0,378.5 323.0,374.2 323.0,369.7 323.0,365.1 323.0,360.5 323.0,356.2 322.7,352.2 322.2,348.5 321.3,345.1 320.2,341.9 318.7,339.1 317.0,336.5 315.0,334.2 312.7,332.2 310.2,330.5 307.3,329.0 304.4,327.9 301.9,327.0 299.6,326.5 297.6,326.2 295.9,326.2 294.4,326.5 293.3,327.0 292.4,327.9 291.8,329.0 291.6,330.5 291.6,332.2 291.8,334.2 292.4,335.9 293.3,337.3 294.4,338.5 295.6,339.3 296.4,339.9 297.0,340.2 297.3,340.2 297.3,339.9 297.3,339.3 297.3,338.5 297.3,337.3 297.3,335.9 297.6,334.8 298.1,333.9 299.0,333.3 300.1,333.0 301.6,333.0 303.3,333.3 304.7,333.9 305.9,334.8 306.7,335.9 307.3,337.3 307.6,339.1 307.6,340.5 307.3,341.6 306.7,342.5 306.2,343.1 305.6,343.3 305.3,343.3 305.3,343.1 305.3,342.5 305.6,342.2 306.2,342.2 307.0,342.5 308.2,343.1 309.6,343.9 311.3,345.1 312.7,346.2 313.9,347.4 314.7,348.2 315.3,348.8 315.6,349.1 315.6,349.1 315.3,349.1 314.7,349.1 314.2,349.1" fill="none" stroke="red" stroke-width="7" stroke-opacity="0.5"/>
  <circle cx="313.6" cy="349.1" r="15" fill="blue" fill-opacity="0.5"/>
</svg>