<svg width="1000" height="1000" xmlns="http://www.w3.org/2000/svg">
  <rect x="200" y="200" width="600" height="600" fill="white" stroke="gray" stroke-width="5" />
  <circle cx="382.3" cy="299.6" r="7" fill="black" />
  <circle cx="417.9" cy="321.4" r="7" fill="black" />
  <circle cx="568.4" cy="401.5" r="7" fill="black" />
  <circle cx="558.8" cy="394.6" r="7" fill="black" />
  <circle cx="571.3" cy="402.5" r="7" fill="black" />
  <circle cx="562.2" cy="396.3" r="7" fill="black" />
  <circle cx="459.0" cy="338.7" r="7" fill="black" />
  <circle cx="529.3" cy="376.9" r="7" fill="black" />
  <circle cx="451.4" cy="335.1" r="7" fill="black" />
  <circle cx="330.6" cy="309.2" r="7" fill="black" />
  <circle cx="508.5" cy="363.0" r="7" fill="black" />
  <circle cx="571.3" cy="403.5" r="7" fill="black" />
  <circle cx="395.6" cy="310.8" r="7" fill="black" />
  <circle cx="441.2" cy="331.8" r="7" fill="black" />
  <circle cx="522.5" cy="373.2" r="7" fill="black" />
  <circle cx="501.2" cy="358.8" r="7" fill="black" />
  <circle cx="463.2" cy="340.3" r="7" fill="black" />
  <circle cx="571.5" cy="404.6" r="7" fill="black" />
  <circle cx="482.7" cy="348.7" r="7" fill="black" />
  <circle cx="445.7" cy="332.2" r="7" fill="black" />
  <circle cx="359.7" cy="294.2" r="7" fill="black" />
  <circle cx="540.5" cy="381.7" r="7" fill="black" />
  <circle cx="333.7" cy="307.5" r="7" fill="black" />
  <circle cx="573.2" cy="409.4" r="7" fill="black" />
  <circle cx="361.8" cy="293.4" r="7" fill="black" />
  <circle cx="369.7" cy="292.9" r="7" fill="black" />
  <circle cx="327.9" cy="308.5" r="7" fill="black" />
  <circle cx="437.2" cy="328.9" r="7" fill="black" />
  <circle cx="374.6" cy="293.3" r="7" fill="black" />
  <circle cx="556.5" cy="392.3" r="7" fill="black" />
  <circle cx="336.4" cy="306.6" r="7" fill="black" />
  <circle cx="536.6" cy="380.3" r="7" fill="black" />
  <circle cx="398.7" cy="313.3" r="7" fill="black" />
  <circle cx="343.9" cy="306.7" r="7" fill="black" />
  <circle cx="392.3" cy="308.1" r="7" fill="black" />
  <circle cx="554.7" cy="391.1" r="7" fill="black" />
  <circle cx="570.5" cy="401.5" r="7" fill="black" />
  <circle cx="357.4" cy="301.5" r="7" fill="black" />
  <circle cx="368.8" cy="293.1" r="7" fill="black" />
  <circle cx="567.1" cy="400.2" r="7" fill="black" />
  <circle cx="355.7" cy="301.9" r="7" fill="black" />
  <circle cx="472.6" cy="344.3" r="7" fill="black" />
  <circle cx="367.1" cy="292.3" r="7" fill="black" />
  <circle cx="385.2" cy="301.5" r="7" fill="black" />
  <circle cx="572.4" cy="405.6" r="7" fill="black" />
  <circle cx="565.7" cy="399.0" r="7" fill="black" />
  <circle cx="546.2" cy="384.8" r="7" fill="black" />
  <circle cx="380.3" cy="298.3" r="7" fill="black" />
  <circle cx="467.8" cy="342.4" r="7" fill="black" />
  <circle cx="357.8" cy="300.4" r="7" fill="black" />
  <circle cx="573.6" cy="406.7" r="7" fill="black" />
  <circle cx="363.0" cy="293.4" r="7" fill="black" />
  <circle cx="532.6" cy="377.6" r="7" fill="black" />
  <circle cx="387.5" cy="304.0" r="7" fill="black" />
  <circle cx="365.3" cy="293.6" r="7" fill="black" />
  <circle cx="505.0" cy="360.3" r="7" fill="black" />
  <circle cx="497.1" cy="356.5" r="7" fill="black" />
  <circle cx="405.4" cy="317.0" r="7" fill="black" />
  <circle cx="359.3" cy="298.1" r="7" fill="black" />
  <circle cx="359.9" cy="293.6" r="7" fill="black" />
  <circle cx="401.5" cy="314.5" r="7" fill="black" />
  <circle cx="571.3" cy="405.6" r="7" fill="black" />
  <circle cx="543.0" cy="383.0" r="7" fill="black" />
  <circle cx="491.9" cy="353.4" r="7" fill="black" />
  <circle cx="525.6" cy="375.3" r="7" fill="black" />
  <circle cx="422.7" cy="322.7" r="7" fill="black" />
  <circle cx="371.1" cy="292.5" r="7" fill="black" />
  <circle cx="360.9" cy="294.2" r="7" fill="black" />
  <circle cx="339.5" cy="306.4" r="7" fill="black" />
  <circle cx="358.8" cy="299.2" r="7" fill="black" />
  <circle cx="518.9" cy="370.5" r="7" fill="black" />
  <circle cx="432.9" cy="327.2" r="7" fill="black" />
  <circle cx="548.6" cy="386.3" r="7" fill="black" />
  <circle cx="573.4" cy="408.3" r="7" fill="black" />
  <circle cx="359.9" cy="296.7" r="7" fill="black" />
  <circle cx="341.6" cy="306.7" r="7" fill="black" />
  <circle cx="512.1" cy="365.7" r="7" fill="black" />
  <circle cx="362.0" cy="293.8" r="7" fill="black" />
  <circle cx="390.4" cy="305.4" r="7" fill="black" />
  <circle cx="376.9" cy="294.6" r="7" fill="black" />
  <circle cx="454.5" cy="337.2" r="7" fill="black" />
  <circle cx="350.1" cy="304.2" r="7" fill="black" />
  <circle cx="373.0" cy="293.1" r="7" fill="black" />
  <circle cx="487.9" cy="352.0" r="7" fill="black" />
  <circle cx="477.3" cy="346.6" r="7" fill="black" />
  <circle cx="358.4" cy="294.6" r="7" fill="black" />
  <circle cx="408.5" cy="317.7" r="7" fill="black" />
  <circle cx="563.4" cy="398.3" r="7" fill="black" />
  <circle cx="515.6" cy="367.6" r="7" fill="black" />
  <circle cx="560.1" cy="395.8" r="7" fill="black" />
  <circle cx="347.4" cy="305.0" r="7" fill="black" />
  <circle cx="565.1" cy="398.3" r="7" fill="black" />
  <circle cx="427.6" cy="325.0" r="7" fill="black" />
  <circle cx="354.5" cy="301.9" r="7" fill="black" />
  <circle cx="358.6" cy="295.0" r="7" fill="black" />
  <circle cx="377.6" cy="296.1" r="7" fill="black" />
  <circle cx="552.0" cy="388.2" r="7" fill="black" />
  <circle cx="412.9" cy="319.3" r="7" fill="black" />
  <circle cx="352.4" cy="303.7" r="7" fill="black" />
  <circle cx="364.2" cy="293.6" r="7" fill="black" />
  <polyline points="573.0,409.8 572.8,409.6 572.4,409.2 571.9,408.7 571.1,407.9 570.1,406.9 569.0,405.8 567.6,404.4 566.1,402.9 564.4,401.2 562.4,399.2 560.3,397.1 558.0,394.8 555.5,392.3 552.8,389.6 549.9,386.7 546.8,383.6 543.5,380.3 540.1,376.9 536.4,373.2 532.6,369.4 528.5,365.3 524.3,361.1 519.8,356.6 515.2,352.0 510.4,347.2 505.4,342.2 500.2,337.0 494.8,331.6 489.2,326.0 483.4,320.2 477.5,314.3 471.3,308.1 464.9,301.7 458.4,295.6 451.6,289.6 444.7,283.8 437.6,278.2 430.3,272.8 422.7,267.6 415.0,262.6 407.1,257.8 399.0,253.2 390.8,248.7 382.3,244.5 374.0,240.5 365.9,236.6 358.0,232.9 350.3,229.5 342.8,226.2 335.5,223.1 328.3,220.2 321.4,217.5 314.6,215.0 308.1,212.7 301.7,210.6 295.6,208.7 289.6,206.9 283.8,205.4 278.2,204.0 272.8,202.9 267.6,201.9 262.6,201.2 257.8,200.6 253.2,200.2 248.7,200.0 244.5,200.0 240.5,200.2 236.6,200.6 232.9,201.2 229.5,201.9 226.2,202.9 223.1,204.0 220.2,205.4 217.5,206.9 215.0,208.7 212.7,210.6 210.6,212.7 208.7,215.0 206.9,217.5 205.4,220.2 204.0,223.1 202.9,226.2 201.9,229.5 201.2,232.9 200.6,236.6 200.2,240.5 200.0,244.5 200.0,248.7 200.2,253.2 200.6,257.8 201.2,262.6 201.9,267.6 202.9,272.8 204.0,278.2 205.4,283.8 206.9,289.6 208.7,295.6 210.6,301.3 212.7,306.9 215.0,312.3 217.5,317.5 220.2,322.5 223.1,327.4 226.2,332.0 229.5,336.4 232.9,340.7 236.6,344.7 240.5,348.6 244.5,352.2 248.7,355.7 253.2,359.0 257.8,362.0 262.6,364.9 267.6,367.6 272.8,370.1 278.2,372.4 283.8,374.6 289.6,376.5 295.6,378.2 301.7,379.8 308.1,381.1 314.6,382.3 321.4,383.2 328.3,384.0 335.5,384.6 342.8,385.0 350.3,385.2 358.0,385.2 365.9,385.0 374.0,384.6 382.3,384.0 390.4,383.2 398.3,382.3 406.0,381.1 413.5,379.8 420.8,378.2 427.9,376.5 434.9,374.6 441.6,372.4 448.2,370.1 454.5,367.6 460.7,364.9 466.7,362.0 472.4,359.0 478.0,355.7 483.4,352.2 488.6,348.6 493.6,344.7 498.5,340.7 503.1,336.4 507.5,332.0 511.8,327.4 515.8,322.5 519.7,317.5 523.3,312.3 526.8,306.9 530.1,301.3 533.1,296.0 536.0,290.8 538.7,285.7 541.2,280.9 543.5,276.3 545.7,271.9 547.6,267.6 549.3,263.6 550.9,259.7 552.2,256.1 553.4,252.6 554.3,249.3 555.1,246.2 555.7,243.4 556.1,240.7 556.3,238.2 556.3,235.8 556.1,233.7 555.7,231.8 555.1,230.1 554.3,228.5 553.4,227.2 552.2,226.0 550.9,225.0 549.3,224.3 547.6,223.7 545.7,223.3 543.5,223.1 541.2,223.1 538.7,223.3 536.0,223.7 533.1,224.3 530.1,225.0 526.8,226.0 523.3,227.2 519.7,228.5 515.8,230.1 511.8,231.8 507.5,233.7 503.1,235.8 498.5,238.2 493.6,240.7 488.6,243.4 483.4,246.2 478.0,249.3 472.4,252.6 466.7,256.1 460.7,259.7 454.5,263.6 448.2,267.6 441.6,271.9 434.9,276.3 427.9,280.9 420.8,285.7 413.5,290.8 406.0,296.0 398.3,301.0 390.4,305.8 382.3,310.4 374.4,314.8 366.7,319.1 359.2,323.1 351.8,327.0 344.7,330.6 337.8,334.1 331.0,337.4 324.5,340.5 318.1,343.4 311.9,346.1 306.0,348.6 300.2,350.9 294.6,353.0 289.2,354.9 284.0,356.6 279.0,358.2 274.2,359.5 269.6,360.7 265.1,361.7 260.9,362.4 256.8,363.0 253.0,363.4 249.3,363.6 245.9,363.6 242.6,363.4 239.5,363.0 236.6,362.4 233.9,361.7 231.4,360.7 229.1,359.5 227.0,358.2 225.0,356.6 223.3,354.9 221.8,353.0 220.4,350.9 219.3,348.6 218.3,346.1 217.5,343.4 217.0,340.5 216.6,337.4 216.4,334.1 216.4,330.6 216.6,327.0 217.0,323.1 217.5,319.1 218.3,314.8 219.3,310.4 220.4,305.8 221.8,301.0 223.3,296.3 225.0,291.9 227.0,287.7 229.1,283.6 231.4,279.8 233.9,276.1 236.6,272.6 239.5,269.4 242.6,266.3 245.9,263.4 249.3,260.7 253.0,258.2 256.8,255.9 260.9,253.8 265.1,251.8 269.6,250.1 274.2,248.6 279.0,247.2 284.0,246.1 289.2,245.1 294.6,244.3 300.2,243.7 306.0,243.4 311.9,243.2 318.1,243.2 324.5,243.4 331.0,243.7 337.8,244.3 344.7,245.1 351.8,246.1 359.2,247.2 366.7,248.6 374.4,250.1 382.3,251.8 390.0,253.8 397.5,255.9 404.8,258.2 411.9,260.7 418.9,263.4 425.6,266.3 432.2,269.4 438.5,272.6 444.7,276.1 450.7,279.8 456.5,283.6 462.0,287.7 467.4,291.9 472.6,296.3 477.6,300.6 482.5,304.6 487.1,308.5 491.5,312.1 495.8,315.6 499.8,318.9 503.7,322.0 507.3,324.9 510.8,327.6 514.1,330.1 517.1,332.4 520.0,334.5 522.7,336.4 525.2,338.2 527.6,339.7 529.7,341.0 531.6,342.2 533.3,343.2 534.9,343.9 536.2,344.5 537.4,344.9 538.3,345.1 539.1,345.1 539.7,344.9 540.1,344.5 540.3,343.9 540.3,343.2 540.1,342.2 539.7,341.0 539.1,339.7 538.3,338.2 537.4,336.4 536.2,334.5 534.9,332.4 533.3,330.1 531.6,327.6 529.7,324.9 527.6,322.0 525.2,318.9 522.7,315.6 520.0,312.1 517.1,308.5 514.1,304.6 510.8,300.6 507.3,296.7 503.7,293.1 499.8,289.6 495.8,286.3 491.5,283.2 487.1,280.3 482.5,277.6 477.6,275.1 472.6,272.8 467.4,270.7 462.0,268.8 456.5,267.1 450.7,265.5 444.7,264.2 438.5,263.0 432.2,262.0 425.6,261.3 418.9,260.7 411.9,260.3 404.8,260.1 397.5,260.1 390.0,260.3 382.3,260.7 374.8,261.3 367.4,262.0 360.3,263.0 353.4,264.2 346.6,265.5 340.1,267.1 333.7,268.8 327.6,270.7 321.6,272.8 315.8,275.1 310.2,277.6 304.8,280.3 299.6,283.2 294.6,286.3 289.8,289.6 285.2,293.1 280.7,296.7 276.5,300.2 272.4,303.5 268.6,306.6 264.9,309.4 261.5,312.1 258.2,314.6 255.1,317.0 252.2,319.1 249.5,321.0 247.0,322.7 244.7,324.3 242.6,325.6 240.7,326.8 238.9,327.7 237.4,328.5 236.0,329.1 234.9,329.5 233.9,329.7 233.1,329.7 232.6,329.5 232.2,329.1 232.0,328.5 232.0,327.7 232.2,326.8 232.6,325.6 233.1,324.3 233.9,322.7 234.9,321.0 236.0,319.1 237.4,317.0 238.9,314.6 240.7,312.1 242.6,309.4 244.7,306.6 247.0,303.5 249.5,300.2 252.2,297.1 255.1,294.2 258.2,291.5 261.5,289.0 264.9,286.7 268.6,284.6 272.4,282.7 276.5,280.9 280.7,279.4 285.2,278.0 289.8,276.9 294.6,275.9 299.6,275.1 304.8,274.6 310.2,274.2 315.8,274.0 321.6,274.0 327.6,274.2 333.7,274.6 340.1,275.1 346.6,275.9 353.4,276.9 360.3,278.0 367.4,279.4 374.8,280.9 382.3,282.7 389.6,284.6 396.7,286.7 403.7,289.0 410.4,291.5 417.0,294.2 423.3,297.1 429.5,299.8 435.5,302.3 441.2,304.6 446.8,306.7 452.2,308.7 457.4,310.4 462.4,311.9 467.2,313.3 471.9,314.5 476.3,315.4 480.5,316.2 484.6,316.8 488.4,317.1 492.1,317.3 495.6,317.3 498.8,317.1 501.9,316.8 504.8,316.2 507.5,315.4 510.0,314.5 512.3,313.3 514.5,311.9 516.4,310.4 518.1,308.7 519.7,306.7 521.0,304.6 522.2,302.3 523.1,299.8 523.9,297.5 524.5,295.4 524.9,293.4 525.0,291.7 525.0,290.2 524.9,288.8 524.5,287.7 523.9,286.7 523.1,285.9 522.2,285.4 521.0,285.0 519.7,284.8 518.1,284.8 516.4,285.0 514.5,285.4 512.3,285.9 510.0,286.7 507.5,287.7 504.8,288.8 501.9,290.2 498.8,291.7 495.6,293.4 492.1,295.4 488.4,297.5 484.6,299.6 480.5,301.5 476.3,303.3 471.9,304.8 467.2,306.2 462.4,307.3 457.4,308.3 452.2,309.1 446.8,309.6 441.2,310.0 435.5,310.2 429.5,310.2 423.3,310.0 417.0,309.6 410.4,309.1 403.7,308.3 396.7,307.3 389.6,306.2 382.3,304.8 375.1,303.3 368.2,301.5 361.5,299.6 354.9,297.9 348.6,296.3 342.4,295.0 336.4,293.8 330.6,292.9 325.0,292.1 319.7,291.5 314.5,291.1 309.4,290.9 304.6,290.9 300.0,291.1 295.6,291.5 291.3,292.1 287.3,292.9 283.4,293.8 279.8,295.0 276.3,296.3 273.0,297.9 269.9,299.6 267.1,301.2 264.4,302.5 261.8,303.7 259.5,304.6 257.4,305.4 255.5,306.0 253.8,306.4 252.2,306.6 250.9,306.6 249.7,306.4 248.7,306.0 248.0,305.4 247.4,304.6 247.0,303.7 246.8,302.5 246.8,301.2 247.0,299.6 247.4,298.3 248.0,297.1 248.7,296.1 249.7,295.4 250.9,294.8 252.2,294.4 253.8,294.2 255.5,294.2 257.4,294.4 259.5,294.8 261.8,295.4 264.4,296.1 267.1,297.1 269.9,298.3 273.0,299.6 276.3,300.8 279.8,301.7 283.4,302.5 287.3,303.1 291.3,303.5 295.6,303.7 300.0,303.7 304.6,303.5 309.4,303.1 314.5,302.5 319.7,301.7 325.0,300.8 330.6,299.6 336.4,298.7 342.4,297.9 348.6,297.3 354.9,296.9 361.5,296.7 368.2,296.7 375.1,296.9 382.3,297.3 389.2,297.9 396.0,298.7 402.5,299.6 408.9,300.4 415.0,301.0 421.0,301.3 426.8,301.5 432.4,301.5 437.8,301.3 443.0,301.0 448.0,300.4 452.8,299.6 457.4,299.0 461.8,298.7 466.1,298.5 470.1,298.5 474.0,298.7 477.6,299.0 481.1,299.6 484.4,300.0 487.5,300.2 490.4,300.2 493.1,300.0 495.6,299.6 497.9,299.4 500.0,299.4 501.9,299.6 503.7,299.6 505.2,299.6 506.6,299.6 507.7,299.6 508.7,299.6 509.4,299.6 510.0,299.6 510.4,299.6 510.6,299.6 510.6,299.6 510.4,299.6 510.0,299.6 509.4,299.6 508.7,299.6 507.7,299.6 506.6,299.6 505.2,299.6 503.7,299.6 501.9,299.6 500.0,299.6 497.9,299.6 495.6,299.6 493.1,299.6 490.4,299.6 487.5,299.6 484.4,299.6 481.1,299.6 477.6,299.6 474.0,299.6 470.1,299.6 466.1,299.6 461.8,299.6 457.4,299.6 452.8,299.6 448.0,299.6 443.0,299.6 437.8,299.6 432.4,299.6 426.8,299.6 421.0,299.6 415.0,299.6 408.9,299.6 402.5,299.6 396.0,299.6 389.2,299.6 382.3,299.6 375.5,299.4 369.0,299.0 362.6,298.5 356.5,298.1 350.5,297.9 344.7,297.9 339.1,298.1 333.7,298.3 328.5,298.3 323.5,298.3 318.7,298.3 314.1,298.3 309.6,298.3 305.4,298.3 301.3,298.3 297.5,298.3 293.8,298.3 290.4,298.3 287.1,298.3 284.0,298.3 281.1,298.3 278.4,298.3 275.9,298.3 273.6,298.3 271.5,298.3 269.6,298.3 267.8,298.3 266.3,298.3 264.9,298.3 263.8,298.3 262.8,298.3 262.0,298.3 261.5,298.3 261.1,298.3 260.9,298.3 260.9,298.3 261.1,298.3 261.5,298.3 262.0,298.3 262.8,298.3 263.8,298.3 264.9,298.3 266.3,298.3 267.8,298.3 269.6,298.3 271.5,298.3 273.6,298.3 275.9,298.3 278.4,298.3 281.1,298.3 284.0,298.3 287.1,298.3 290.4,298.3 293.8,298.3 297.5,298.3 301.3,298.3 305.4,298.3 309.6,298.3 314.1,298.3 318.7,298.3 323.5,298.3 328.5,298.3 333.7,298.3 339.1,298.3 344.7,298.3 350.5,298.3 356.5,298.3 362.6,298.3 369.0,298.3 375.5,298.3 381.9,298.3 388.1,298.3 394.0,298.3 399.8,298.3 405.4,298.3 410.8,298.3 416.0,298.3 421.0,298.3 425.8,298.3 430.4,298.3 434.9,298.3 439.1,298.3 443.2,298.3 447.0,298.3 450.7,298.3 454.1,298.3 457.4,298.3 460.5,298.3 463.4,298.3 466.1,298.3 468.6,298.3 470.9,298.3 473.0,298.3 475.0,298.3 476.7,298.3 478.2,298.3 479.6,298.3 480.7,298.3 481.7,298.3 482.5,298.3 483.0,298.3 483.4,298.3 483.6,298.3 483.6,298.3 483.4,298.3 483.0,298.3 482.5,298.3 481.7,298.3 480.7,298.3 479.6,298.3 478.2,298.3 476.7,298.3 475.0,298.3 473.0,298.3 470.9,298.3 468.6,298.3 466.1,298.3 463.4,298.3 460.5,298.3 457.4,298.3 454.1,298.3 450.7,298.3 447.0,298.3 443.2,298.3 439.1,298.3 434.9,298.3 430.4,298.3 425.8,298.3 421.0,298.3 416.0,298.3 410.8,298.3 405.4,298.3 399.8,298.3 394.0,298.3 388.1,298.3 381.9,298.3 375.9,298.3 370.1,298.3 364.5,298.3 359.2,298.3 353.9,298.3 348.9,298.3 344.1,298.3 339.5,298.3 335.1,298.3 330.8,298.3 326.8,298.3 322.9,298.3 319.3,298.3 315.8,298.3 312.5,298.3 309.4,298.3 306.6,298.3 303.9,298.3 301.3,298.3 299.0,298.3 296.9,298.3 295.0,298.3 293.3,298.3 291.7,298.3 290.4,298.3 289.2,298.3 288.2,298.3 287.5,298.3 286.9,298.3 286.5,298.3 286.3,298.3 286.3,298.3 286.5,298.3 286.9,298.3 287.5,298.3 288.2,298.3 289.2,298.3 290.4,298.3 291.7,298.3 293.3,298.3 295.0,298.3 296.9,298.3 299.0,298.3 301.3,298.3 303.9,298.3 306.6,298.3 309.4,298.3 312.5,298.3 315.8,298.3 319.3,298.3 322.9,298.3 326.8,298.3 330.8,298.3 335.1,298.3 339.5,298.3 344.1,298.3 348.9,298.3 353.9,298.3 359.2,298.3 364.5,298.3 370.1,298.3 375.9,298.3 381.5,298.3 386.9,298.3 392.1,298.3 397.1,298.3 401.9,298.3 406.6,298.3 411.0,298.3 415.2,298.3 419.3,298.3 423.1,298.3 426.8,298.3 430.3,298.3 433.5,298.3 436.6,298.3 439.5,298.3 442.2,298.3 444.7,298.3 447.0,298.3 449.1,298.3 451.1,298.3 452.8,298.3 454.3,298.3 455.7,298.3 456.8,298.3 457.8,298.3 458.6,298.3 459.2,298.3 459.5,298.3 459.7,298.3 459.7,298.3 459.5,298.3 459.2,298.3 458.6,298.3 457.8,298.3 456.8,298.3 455.7,298.3 454.3,298.3 452.8,298.3 451.1,298.3 449.1,298.3 447.0,298.3 444.7,298.3 442.2,298.3 439.5,298.3 436.6,298.3 433.5,298.3 430.3,298.3 426.8,298.3 423.1,298.3 419.3,298.3 415.2,298.3 411.0,298.3 406.6,298.3 401.9,298.3 397.1,298.3 392.1,298.3 386.9,298.3 381.5,298.3 376.3,298.3 371.3,298.3 366.5,298.3 361.8,298.3 357.4,298.3 353.2,298.3 349.1,298.3 345.3,298.3 341.6,298.3 338.2,298.3 334.9,298.3 331.8,298.3 328.9,298.3 326.2,298.3 323.7,298.3 321.4,298.3 319.3,298.3 317.3,298.3 315.6,298.3 314.1,298.3 312.7,298.3 311.6,298.3 310.6,298.3 309.8,298.3 309.2,298.3 308.9,298.3 308.7,298.3 308.7,298.3 308.9,298.3 309.2,298.3 309.8,298.3 310.6,298.3 311.6,298.3 312.7,298.3 314.1,298.3 315.6,298.3 317.3,298.3 319.3,298.3 321.4,298.3 323.7,298.3 326.2,298.3 328.9,298.3 331.8,298.3 334.9,298.3 338.2,298.3 341.6,298.3 345.3,298.3 349.1,298.3 353.2,298.3 357.4,298.3 361.8,298.3 366.5,298.3 371.3,298.3 376.3,298.3 381.1,298.3 385.7,298.3 390.2,298.3 394.4,298.3 398.5,298.3 402.3,298.3 406.0,298.3 409.4,298.3 412.7,298.3 415.8,298.3 418.7,298.3 421.4,298.3 423.9,298.3 426.2,298.3 428.3,298.3 430.3,298.3 432.0,298.3 433.5,298.3 434.9,298.3 436.0,298.3 437.0,298.3 437.8,298.3 438.3,298.3 438.7,298.3 438.9,298.3 438.9,298.3 438.7,298.3 438.3,298.3 437.8,298.3 437.0,298.3 436.0,298.3 434.9,298.3 433.5,298.3 432.0,298.3 430.3,298.3 428.3,298.3 426.2,298.3 423.9,298.3 421.4,298.3 418.7,298.3 415.8,298.3 412.7,298.3 409.4,298.3 406.0,298.3 402.3,298.3 398.5,298.3 394.4,298.3 390.2,298.3 385.7,298.3 381.1,298.3 376.7,298.3 372.4,298.3 368.4,298.3 364.5,298.3 360.9,298.3 357.4,298.3 354.1,298.3 351.1,298.3 348.2,298.3 345.5,298.3 343.0,298.3 340.7,298.3 338.5,298.3 336.6,298.3 334.9,298.3 333.3,298.3 332.0,298.3 330.8,298.3 329.9,298.3 329.1,298.3 328.5,298.3 328.1,298.3 327.9,298.3 327.9,298.3 328.1,298.3 328.5,298.3 329.1,298.3 329.9,298.3 330.8,298.3 332.0,298.3 333.3,298.3 334.9,298.3 336.6,298.3 338.5,298.3 340.7,298.3 343.0,298.3 345.5,298.3 348.2,298.3 351.1,298.3 354.1,298.3 357.4,298.3 360.9,298.3 364.5,298.3 368.4,298.3 372.4,298.3 376.7,298.3 380.7,298.3 384.6,298.3 388.2,298.3 391.7,298.3 395.0,298.3 398.1,298.3 401.0,298.3 403.7,298.3 406.2,298.3 408.5,298.3 410.6,298.3 412.5,298.3 414.3,298.3 415.8,298.3 417.1,298.3 418.3,298.3 419.3,298.3 420.0,298.3 420.6,298.3 421.0,298.3 421.2,298.3 421.2,298.3 421.0,298.3 420.6,298.3 420.0,298.3 419.3,298.3 418.3,298.3 417.1,298.3 415.8,298.3 414.3,298.3 412.5,298.3 410.6,298.3 408.5,298.3 406.2,298.3 403.7,298.3 401.0,298.3 398.1,298.3 395.0,298.3 391.7,298.3 388.2,298.3 384.6,298.3 380.7,298.3 377.1,298.3 373.6,298.3 370.3,298.3 367.2,298.3 364.4,298.3 361.7,298.3 359.2,298.3 356.8,298.3 354.7,298.3 352.8,298.3 351.1,298.3 349.5,298.3 348.2,298.3 347.0,298.3 346.1,298.3 345.3,298.3 344.7,298.3 344.3,298.3 344.1,298.3 344.1,298.3 344.3,298.3 344.7,298.3 345.3,298.3 346.1,298.3 347.0,298.3 348.2,298.3 349.5,298.3 351.1,298.3 352.8,298.3 354.7,298.3 356.8,298.3 359.2,298.3 361.7,298.3 364.4,298.3 367.2,298.3 370.3,298.3 373.6,298.3 377.1,298.3 380.3,298.3 383.4,298.1 386.3,297.7 389.0,297.1 391.5,296.3 393.8,295.8 396.0,295.4 397.9,295.2 399.6,295.2 401.2,295.4 402.5,295.8 403.7,296.1 404.6,296.3 405.4,296.3 406.0,296.1 406.4,296.1 406.6,296.1 406.6,296.1 406.4,296.1 406.0,296.1 405.4,296.1 404.6,296.1 403.7,296.1 402.5,296.1 401.2,296.1 399.6,296.1 397.9,296.1 396.0,296.1 393.8,296.1 391.5,296.1 389.0,296.1 386.3,296.1 383.4,296.1 380.3,296.1 377.5,296.1 374.8,296.1 372.3,296.1 369.9,296.1 367.8,296.1 365.9,296.1 364.2,296.1 362.6,296.1 361.3,296.1 360.1,296.1 359.2,296.1 358.4,296.1 357.8,296.1 357.4,296.1 357.2,296.1 357.2,296.1 357.4,296.1 357.8,296.1 358.4,296.1 359.2,296.1 360.1,296.1 361.3,296.1 362.6,296.1 364.2,296.1 365.9,296.1 367.8,296.1 369.9,296.1 372.3,296.1 374.8,296.1 377.5,296.1 380.0,296.1 382.3,296.1 384.4,296.1 386.3,296.1 388.1,296.1 389.6,296.1 390.9,296.1 392.1,296.1 393.1,296.1 393.8,296.1 394.4,296.1 394.8,296.1 395.0,296.1 395.0,296.1 394.8,296.1 394.4,296.1 393.8,296.1 393.1,296.1 392.1,296.1 390.9,296.1 389.6,296.1 388.1,296.1 386.3,296.1 384.4,296.1 382.3,296.1 380.0,296.1 377.6,296.1 375.5,296.0 373.6,295.6 371.9,295.0 370.3,294.6 369.0,294.4 367.8,294.4 366.9,294.6 366.1,294.6 365.5,294.6 365.1,294.6 364.9,294.6 364.9,294.6 365.1,294.6 365.5,294.6 366.1,294.6 366.9,294.6 367.8,294.6 369.0,294.6 370.3,294.6 371.9,294.6 373.6,294.6 375.5,294.6 377.3,294.6 378.8,294.6 380.2,294.6 381.3,294.6 382.3,294.6 383.0,294.6 383.6,294.6 384.0,294.6 384.2,294.6 384.2,294.6 384.0,294.6 383.6,294.6 383.0,294.6 382.3,294.6 381.3,294.6 380.2,294.6 378.8,294.6 377.3,294.6 375.9,294.6 374.8,294.6 373.8,294.6 373.0,294.6 372.4,294.6 372.1,294.6 371.9,294.6 371.9,294.6 372.1,294.6 372.4,294.6 373.0,294.6 373.8,294.6 374.8,294.6 375.9,294.6 376.9,294.6 377.6,294.4 378.2,294.0 378.6,293.4 378.8,293.1 378.8,292.9 378.6,292.9 378.2,293.1 377.6,293.3 376.9,293.3 375.9,293.3 374.8,293.3 373.8,293.3 373.0,293.3 372.4,293.3 372.1,293.3 371.9,293.3 371.9,293.3 372.1,293.3 372.4,293.3 373.0,293.3 373.8,293.3 374.6,293.3 375.1,293.1 375.5,293.1 375.7,293.1 375.7,293.1 375.5,293.1 375.1,293.1 374.6,293.1 373.8,293.1 373.0,293.1 372.1,292.9 371.1,292.5 369.9,292.3 369.0,292.3 368.2,292.5 367.6,292.9 367.2,293.1 367.1,293.1 367.1,292.9 367.2,292.9 367.6,292.9 368.2,292.9 369.0,292.9 369.7,292.9 370.3,293.1 370.7,293.1 370.9,293.1 370.9,293.1 370.7,293.1 370.3,293.1 369.7,293.1 369.0,293.1 368.4,293.1 368.0,293.1 367.8,293.1 367.8,293.1 368.0,293.1 368.4,293.1 368.8,293.1 369.0,292.9 369.0,292.5 368.8,292.3 368.4,292.3 367.8,292.3 367.1,292.3 366.1,292.5 365.3,292.9 364.7,293.4 364.4,293.8 364.2,294.0 364.2,294.0 364.4,293.8 364.7,293.6 365.3,293.6 365.7,293.6 365.9,293.6 365.9,293.6 365.7,293.6 365.3,293.6 364.7,293.6 364.2,293.6 363.4,293.4 362.8,293.4 362.4,293.4 362.2,293.4 362.2,293.4 362.4,293.4 362.8,293.4 363.0,293.4 363.0,293.6 362.8,293.8 362.4,293.8 362.0,293.8 361.8,293.6 361.8,293.4 361.7,293.4 361.3,293.6 360.9,294.0 360.7,294.2 360.7,294.2 360.9,294.2 360.9,294.0 360.7,293.6 360.3,293.4 359.9,293.4 359.7,293.6 359.7,293.6 359.9,293.6 359.9,293.8 359.7,294.2 359.3,294.6 358.8,294.8 358.4,294.8 358.2,294.6 358.2,294.6 358.4,294.6 358.6,294.8 358.6,295.0 358.8,295.4 359.2,296.0 359.7,296.7 360.1,297.3 360.3,297.7 360.3,297.9 360.1,297.9 359.9,297.7 359.9,297.3 359.9,296.7 359.7,296.3 359.3,296.1 359.2,296.1 359.2,296.3 359.3,296.7 359.3,297.3 359.3,298.1 359.2,299.0 358.8,299.8 358.6,300.4 358.6,300.8 358.8,301.0 358.8,301.0 358.8,300.8 358.8,300.4 358.8,299.8 358.8,299.2 358.6,298.8 358.2,298.7 357.8,298.7 357.6,298.8 357.6,299.2 357.8,299.8 357.8,300.4 357.6,301.2 357.4,301.7 357.4,302.1 357.4,302.3 357.4,302.3 357.4,302.1 357.4,301.7 357.4,301.5 357.2,301.5 356.8,301.7 356.3,301.9 355.7,301.9 354.9,301.9 354.3,301.9 353.9,301.9 353.8,301.9 353.8,301.9 353.9,301.9 354.3,301.9 354.5,301.9 354.5,302.1 354.3,302.5 353.9,303.1 353.4,303.7 352.6,304.0 352.0,304.2 351.6,304.2 351.4,304.0 351.4,303.7 351.6,303.5 352.0,303.5 352.4,303.7 352.6,304.0 352.6,304.2 352.4,304.2 352.0,304.2 351.4,304.2 350.7,304.2 350.1,304.2 349.3,304.4 348.4,304.8 347.4,305.0 346.2,305.4 344.9,306.0 343.7,306.7 342.8,307.3 342.0,307.7 341.4,307.9 341.0,307.9 340.8,307.7 340.8,307.3 341.0,306.7 341.4,306.4 342.0,306.2 342.8,306.2 343.7,306.4 344.5,306.7 345.1,306.9 345.5,306.9 345.7,306.7 345.7,306.7 345.5,306.7 345.1,306.7 344.5,306.7 343.9,306.7 343.2,306.7 342.2,306.7 341.4,306.7 340.8,306.7 340.5,306.7 340.3,306.7 340.3,306.7 340.5,306.7 340.8,306.7 341.4,306.7 341.8,306.7 342.0,306.7 342.0,306.7 341.8,306.7 341.6,306.7 341.2,306.6 340.7,306.4 339.9,306.4 339.3,306.4 338.9,306.4 338.7,306.4 338.7,306.4 338.9,306.4 339.3,306.4 339.5,306.4 339.5,306.6 339.3,306.6 338.9,306.6 338.3,306.6 337.6,306.6 336.6,306.6 335.8,306.6 335.3,306.6 334.9,306.6 334.7,306.6 334.7,306.6 334.9,306.6 335.3,306.6 335.8,306.6 336.4,306.6 336.8,306.7 337.0,307.1 337.0,307.5 336.8,307.7 336.4,307.7 335.8,307.5 335.1,307.5 334.1,307.5 333.3,307.5 332.8,307.5 332.4,307.5 332.2,307.5 332.2,307.5 332.4,307.5 332.8,307.5 333.3,307.5 333.7,307.5 333.9,307.7 333.9,308.1 333.7,308.5 333.3,308.7 332.8,308.7 332.0,308.5 331.0,308.5 329.9,308.5 328.5,308.5 327.4,308.5 326.4,308.5 325.6,308.5 325.0,308.5 324.7,308.5 324.5,308.5 324.5,308.5 324.7,308.5 325.0,308.5 325.6,308.5 326.4,308.5 327.4,308.5 328.1,308.5 328.7,308.5 329.1,308.5 329.3,308.5 329.3,308.5 329.1,308.5 328.7,308.5 328.1,308.5 327.7,308.5 327.6,308.5 327.6,308.5 327.7,308.5 327.9,308.5 328.3,308.7 328.9,309.1 329.7,309.2 330.6,309.2 331.8,309.4 333.1,309.8 334.7,310.4 336.4,311.2 338.3,312.1 340.5,313.3 342.8,314.6 345.3,316.2 348.0,317.9 350.9,319.8 353.9,322.0 357.2,324.3 360.7,326.8 364.4,329.5 368.2,332.4 372.3,335.5 376.5,338.7 380.9,342.2 385.5,345.9 390.4,349.7 395.4,353.8 400.6,358.0 406.0,362.4 411.6,367.1 417.3,371.9 423.3,376.9 429.5,382.1 435.8,387.5 442.4,393.1 449.1,398.8 456.1,404.8 463.2,410.6 470.5,416.2 478.0,421.6 485.7,426.8 493.6,431.8 501.7,436.6 510.0,441.2 518.5,445.7 527.2,449.9 536.0,453.9 545.1,457.8 554.3,461.5 563.8,464.9 573.2,468.2 582.5,471.3 591.5,474.2 600.4,476.9 609.1,479.4 617.5,481.7 625.8,483.8 633.9,485.7 641.8,487.5 649.5,489.0 657.0,490.4 664.4,491.5 671.5,492.5 678.4,493.3 685.2,493.8 691.7,494.2 698.1,494.4 704.2,494.4 710.2,494.2 716.0,493.8 721.6,493.3 727.0,492.5 732.2,491.5 737.2,490.4 742.0,489.0 746.6,487.5 751.1,485.7 755.3,483.8 759.3,481.7 763.2,479.4 766.9,476.9 770.3,474.2 773.6,471.3 776.7,468.2 779.6,464.9 782.3,461.5 784.8,457.8 787.1,453.9 789.2,449.9 791.1,445.7 792.9,441.2 794.4,436.6 795.8,431.8 796.9,426.8 797.9,421.6 798.7,416.2 799.2,410.6 799.6,405.2 799.8,400.0 799.8,395.0 799.6,390.2 799.2,385.5 798.7,381.1 797.9,376.9 796.9,372.8 795.8,369.0 794.4,365.3 792.9,361.8 791.1,358.6 789.2,355.5 787.1,352.6 784.8,349.9 782.3,347.4 779.6,345.1 776.7,343.0 773.6,341.0 770.3,339.3 766.9,337.8 763.2,336.4 759.3,335.3 755.3,334.3 751.1,333.5 746.6,332.9 742.0,332.6 737.2,332.4 732.2,332.4 727.0,332.6 721.6,332.9 716.0,333.5 710.2,334.3 704.2,335.3 698.1,336.4 691.7,337.8 685.2,339.3 678.4,341.0 671.5,343.0 664.4,345.1 657.0,347.4 649.5,349.9 641.8,352.6 633.9,355.5 625.8,358.6 617.5,361.8 609.1,365.3 600.4,369.0 591.5,372.8 582.5,376.9 573.2,381.1 564.2,385.5 555.3,390.2 546.6,395.0 538.2,400.0 529.9,405.2 521.8,410.2 513.9,415.0 506.2,419.7 498.7,424.1 491.3,428.3 484.2,432.4 477.3,436.2 470.5,439.9 464.0,443.4 457.6,446.6 451.4,449.7 445.5,452.6 439.7,455.3 434.1,457.8 428.7,460.1 423.5,462.2 418.5,464.2 413.7,465.9 409.1,467.4 404.6,468.8 400.4,469.9 396.3,470.9 392.5,471.7 388.8,472.3 385.4,472.6 382.1,472.8 379.0,472.8 376.1,472.6 373.4,472.3 370.9,471.7 368.6,470.9 366.5,469.9 364.5,468.8 362.8,467.4 361.3,465.9 359.9,464.2 358.8,462.2 357.8,460.1 357.0,457.8 356.5,455.3 356.1,452.6 355.9,449.7 355.9,446.6 356.1,443.4 356.5,439.9 357.0,436.2 357.8,432.4 358.8,428.3 359.9,424.1 361.3,419.7 362.8,415.0 364.5,410.2 366.5,405.6 368.6,401.2 370.9,396.9 373.4,392.9 376.1,389.0 379.0,385.4 382.1,381.9 385.4,378.6 388.8,375.5 392.5,372.6 396.3,369.9 400.4,367.4 404.6,365.1 409.1,363.0 413.7,361.1 418.5,359.3 423.5,357.8 428.7,356.5 434.1,355.3 439.7,354.3 445.5,353.6 451.4,353.0 457.6,352.6 464.0,352.4 470.5,352.4 477.3,352.6 484.2,353.0 491.3,353.6 498.7,354.3 506.2,355.3 513.9,356.5 521.8,357.8 529.9,359.3 538.2,361.1 546.6,363.0 555.3,365.1 564.2,367.4 573.2,369.9 582.1,372.6 590.8,375.5 599.2,378.6 607.5,381.9 615.6,385.4 623.5,389.0 631.2,392.9 638.7,396.9 646.1,401.2 653.2,405.6 660.1,409.8 666.9,413.9 673.4,417.7 679.8,421.4 685.9,424.9 691.9,428.1 697.7,431.2 703.3,434.1 708.7,436.8 713.9,439.3 718.9,441.6 723.7,443.7 728.3,445.7 732.8,447.4 737.0,448.9 741.0,450.3 744.9,451.4 748.6,452.4 752.0,453.2 755.3,453.8 758.4,454.1 761.3,454.3 764.0,454.3 766.5,454.1 768.8,453.8 770.9,453.2 772.8,452.4 774.6,451.4 776.1,450.3 777.5,448.9 778.6,447.4 779.6,445.7 780.3,443.7 780.9,441.6 781.3,439.3 781.5,436.8 781.5,434.1 781.3,431.2 780.9,428.1 780.3,424.9 779.6,421.4 778.6,417.7 777.5,413.9 776.1,409.8 774.6,406.0 772.8,402.3 770.9,398.8 768.8,395.6 766.5,392.5 764.0,389.6 761.3,386.9 758.4,384.4 755.3,382.1 752.0,380.0 748.6,378.0 744.9,376.3 741.0,374.8 737.0,373.4 732.8,372.3 728.3,371.3 723.7,370.5 718.9,369.9 713.9,369.6 708.7,369.4 703.3,369.4 697.7,369.6 691.9,369.9 685.9,370.5 679.8,371.3 673.4,372.3 666.9,373.4 660.1,374.8 653.2,376.3 646.1,378.0 638.7,380.0 631.2,382.1 623.5,384.4 615.6,386.9 607.5,389.6 599.2,392.5 590.8,395.6 582.1,398.8 573.2,402.3 564.5,406.0 556.1,409.4 547.8,412.7 539.7,415.8 531.8,418.7 524.1,421.4 516.6,423.9 509.2,426.2 502.1,428.3 495.2,430.3 488.4,432.0 481.9,433.5 475.5,434.9 469.4,436.0 463.4,437.0 457.6,437.8 452.0,438.3 446.6,438.7 441.4,438.9 436.4,438.9 431.6,438.7 427.0,438.3 422.5,437.8 418.3,437.0 414.3,436.0 410.4,434.9 406.7,433.5 403.3,432.0 400.0,430.3 396.9,428.3 394.0,426.2 391.3,423.9 388.8,421.4 386.5,418.7 384.4,415.8 382.5,412.7 380.7,409.4 379.2,406.4 377.8,403.5 376.7,400.8 375.7,398.3 375.0,396.0 374.4,393.8 374.0,391.9 373.8,390.2 373.8,388.6 374.0,387.3 374.4,386.1 375.0,385.2 375.7,384.4 376.7,383.8 377.8,383.4 379.2,383.2 380.7,383.2 382.5,383.4 384.4,383.8 386.5,384.4 388.8,385.2 391.3,386.1 394.0,387.3 396.9,388.6 400.0,390.2 403.3,391.9 406.7,393.8 410.4,396.0 414.3,398.3 418.3,400.8 422.5,403.5 427.0,406.4 431.6,409.4 436.4,412.3 441.4,415.0 446.6,417.5 452.0,419.8 457.6,422.0 463.4,423.9 469.4,425.6 475.5,427.2 481.9,428.5 488.4,429.7 495.2,430.6 502.1,431.4 509.2,432.0 516.6,432.4 524.1,432.6 531.8,432.6 539.7,432.4 547.8,432.0 556.1,431.4 564.5,430.6 573.2,429.7 581.7,428.5 590.0,427.2 598.1,425.6 606.0,423.9 613.7,422.0 621.2,419.8 628.5,417.5 635.6,415.0 642.6,412.3 649.3,409.4 655.9,406.7 662.2,404.2 668.4,401.9 674.4,399.8 680.2,397.9 685.7,396.1 691.1,394.6 696.3,393.3 701.3,392.1 706.2,391.1 710.8,390.4 715.2,389.8 719.5,389.4 723.5,389.2 727.4,389.2 731.0,389.4 734.5,389.8 737.8,390.4 740.8,391.1 743.7,392.1 746.4,393.3 748.9,394.6 751.3,396.1 753.4,397.9 755.3,399.8 757.0,401.9 758.6,404.2 759.9,406.7 761.1,409.4 762.0,411.9 762.8,414.3 763.4,416.4 763.8,418.3 764.0,420.0 764.0,421.6 763.8,422.9 763.4,424.1 762.8,425.0 762.0,425.8 761.1,426.4 759.9,426.8 758.6,427.0 757.0,427.0 755.3,426.8 753.4,426.4 751.3,425.8 748.9,425.0 746.4,424.1 743.7,422.9 740.8,421.6 737.8,420.0 734.5,418.3 731.0,416.4 727.4,414.3 723.5,411.9 719.5,409.4 715.2,407.1 710.8,405.0 706.2,403.1 701.3,401.3 696.3,399.8 691.1,398.5 685.7,397.3 680.2,396.3 674.4,395.6 668.4,395.0 662.2,394.6 655.9,394.4 649.3,394.4 642.6,394.6 635.6,395.0 628.5,395.6 621.2,396.3 613.7,397.3 606.0,398.5 598.1,399.8 590.0,401.3 581.7,403.1 573.2,405.0 564.9,407.1 556.8,409.4 548.9,411.6 541.2,413.5 533.7,415.2 526.4,416.8 519.3,418.1 512.3,419.3 505.6,420.2 499.0,421.0 492.7,421.6 486.5,422.0 480.5,422.2 474.8,422.2 469.2,422.0 463.8,421.6 458.6,421.0 453.6,420.2 448.7,419.3 444.1,418.1 439.7,416.8 435.5,415.2 431.4,413.5 427.6,411.6 423.9,409.4 420.4,407.5 417.1,405.8 414.1,404.2 411.2,402.9 408.5,401.7 406.0,400.8 403.7,400.0 401.5,399.4 399.6,399.0 397.9,398.8 396.3,398.8 395.0,399.0 393.8,399.4 392.9,400.0 392.1,400.8 391.5,401.7 391.1,402.9 390.9,404.2 390.9,405.8 391.1,407.5 391.5,409.4 392.1,411.2 392.9,412.7 393.8,414.1 395.0,415.2 396.3,416.2 397.9,417.0 399.6,417.5 401.5,417.9 403.7,418.1 406.0,418.1 408.5,417.9 411.2,417.5 414.1,417.0 417.1,416.2 420.4,415.2 423.9,414.1 427.6,412.7 431.4,411.2 435.5,409.4 439.7,407.9 444.1,406.6 448.7,405.4 453.6,404.4 458.6,403.7 463.8,403.1 469.2,402.7 474.8,402.5 480.5,402.5 486.5,402.7 492.7,403.1 499.0,403.7 505.6,404.4 512.3,405.4 519.3,406.6 526.4,407.9 533.7,409.4 541.2,410.8 548.9,411.9 556.8,412.9 564.9,413.7 573.2,414.3 581.3,414.6 589.2,414.8 596.9,414.8 604.4,414.6 611.8,414.3 618.9,413.7 625.8,412.9 632.6,411.9 639.1,410.8 645.5,409.4 651.6,408.3 657.6,407.3 663.4,406.6 669.0,406.0 674.4,405.6 679.6,405.4 684.6,405.4 689.4,405.6 694.0,406.0 698.5,406.6 702.7,407.3 706.7,408.3 710.6,409.4 714.3,410.4 717.7,411.2 721.0,411.8 724.1,412.1 727.0,412.3 729.7,412.3 732.2,412.1 734.5,411.8 736.6,411.2 738.5,410.4 740.3,409.4 741.8,408.7 743.2,408.1 744.3,407.7 745.3,407.5 746.1,407.5 746.6,407.7 747.0,408.1 747.2,408.7 747.2,409.4 747.0,410.0 746.6,410.4 746.1,410.6 745.3,410.6 744.3,410.4 743.2,410.0 741.8,409.4 740.3,409.1 738.5,408.9 736.6,408.9 734.5,409.1 732.2,409.4 729.7,409.6 727.0,409.6 724.1,409.4 721.0,409.4 717.7,409.4 714.3,409.4 710.6,409.4 706.7,409.4 702.7,409.4 698.5,409.4 694.0,409.4 689.4,409.4 684.6,409.4 679.6,409.4 674.4,409.4 669.0,409.4 663.4,409.4 657.6,409.4 651.6,409.4 645.5,409.4 639.1,409.4 632.6,409.4 625.8,409.4 618.9,409.4 611.8,409.4 604.4,409.4 596.9,409.4 589.2,409.4 581.3,409.4 573.2,409.4 565.3,409.2 557.6,408.9 550.1,408.3 542.8,407.9 535.6,407.7 528.7,407.7 522.0,407.9 515.4,408.3 509.1,408.5 502.9,408.5 496.9,408.3 491.1,408.3 485.5,408.3 480.2,408.3 475.0,408.3 469.9,408.3 465.1,408.3 460.5,408.3 456.1,408.3 451.8,408.3 447.8,408.3 443.9,408.3 440.3,408.3 436.8,408.3 433.5,408.3 430.4,408.3 427.6,408.3 424.9,408.3 422.4,408.3 420.0,408.3 417.9,408.3 416.0,408.3 414.3,408.3 412.7,408.3 411.4,408.3 410.2,408.3 409.2,408.3 408.5,408.3 407.9,408.3 407.5,408.3 407.3,408.3 407.3,408.3 407.5,408.3 407.9,408.3 408.5,408.3 409.2,408.3 410.2,408.3 411.4,408.3 412.7,408.3 414.3,408.3 416.0,408.3 417.9,408.3 420.0,408.3 422.4,408.3 424.9,408.3 427.6,408.3 430.4,408.3 433.5,408.3 436.8,408.3 440.3,408.3 443.9,408.3 447.8,408.3 451.8,408.3 456.1,408.3 460.5,408.3 465.1,408.3 469.9,408.3 475.0,408.3 480.2,408.3 485.5,408.3 491.1,408.3 496.9,408.3 502.9,408.3 509.1,408.3 515.4,408.3 522.0,408.3 528.7,408.3 535.6,408.3 542.8,408.3 550.1,408.3 557.6,408.3 565.3,408.3 573.2,408.3 580.9,408.3 588.4,408.3 595.8,408.3 602.9,408.3 609.8,408.3 616.6,408.3 623.1,408.3 629.5,408.3 635.6,408.3 641.6,408.3 647.4,408.3 653.0,408.3 658.4,408.3 663.6,408.3 668.6,408.3 673.4,408.3 678.0,408.3 682.5,408.3 686.7,408.3 690.8,408.3 694.6,408.3 698.3,408.3 701.7,408.3 705.0,408.3 708.1,408.3 711.0,408.3 713.7,408.3 716.2,408.3 718.5,408.3 720.6,408.3 722.5,408.3 724.3,408.3 725.8,408.3 727.2,408.3 728.3,408.3 729.3,408.3 730.1,408.3 730.6,408.3 731.0,408.3 731.2,408.3 731.2,408.3 731.0,408.3 730.6,408.3 730.1,408.3 729.3,408.3 728.3,408.3 727.2,408.3 725.8,408.3 724.3,408.3 722.5,408.3 720.6,408.3 718.5,408.3 716.2,408.3 713.7,408.3 711.0,408.3 708.1,408.3 705.0,408.3 701.7,408.3 698.3,408.3 694.6,408.3 690.8,408.3 686.7,408.3 682.5,408.3 678.0,408.3 673.4,408.3 668.6,408.3 663.6,408.3 658.4,408.3 653.0,408.3 647.4,408.3 641.6,408.3 635.6,408.3 629.5,408.3 623.1,408.3 616.6,408.3 609.8,408.3 602.9,408.3 595.8,408.3 588.4,408.3 580.9,408.3 573.4,408.3 566.1,408.1 559.0,407.7 552.0,407.1 545.3,406.7 538.7,406.6 532.4,406.6 526.2,406.7 520.2,406.7 514.5,406.7 508.9,406.7 503.5,406.7 498.3,406.7 493.3,406.7 488.4,406.7 483.8,406.7 479.4,406.7 475.1,406.7 471.1,406.7 467.2,406.7 463.6,406.7 460.1,406.7 456.8,406.7 453.8,406.7 450.9,406.7 448.2,406.7 445.7,406.7 443.4,406.7 441.2,406.7 439.3,406.7 437.6,406.7 436.0,406.7 434.7,406.7 433.5,406.7 432.6,406.7 431.8,406.7 431.2,406.7 430.8,406.7 430.6,406.7 430.6,406.7 430.8,406.7 431.2,406.7 431.8,406.7 432.6,406.7 433.5,406.7 434.7,406.7 436.0,406.7 437.6,406.7 439.3,406.7 441.2,406.7 443.4,406.7 445.7,406.7 448.2,406.7 450.9,406.7 453.8,406.7 456.8,406.7 460.1,406.7 463.6,406.7 467.2,406.7 471.1,406.7 475.1,406.7 479.4,406.7 483.8,406.7 488.4,406.7 493.3,406.7 498.3,406.7 503.5,406.7 508.9,406.7 514.5,406.7 520.2,406.7 526.2,406.7 532.4,406.7 538.7,406.7 545.3,406.7 552.0,406.7 559.0,406.7 566.1,406.7 573.4,406.7 580.5,406.7 587.5,406.7 594.2,406.7 600.8,406.7 607.1,406.7 613.3,406.7 619.3,406.7 625.0,406.7 630.6,406.7 636.0,406.7 641.2,406.7 646.2,406.7 651.1,406.7 655.7,406.7 660.1,406.7 664.4,406.7 668.4,406.7 672.3,406.7 675.9,406.7 679.4,406.7 682.7,406.7 685.7,406.7 688.6,406.7 691.3,406.7 693.8,406.7 696.1,406.7 698.3,406.7 700.2,406.7 701.9,406.7 703.5,406.7 704.8,406.7 706.0,406.7 706.9,406.7 707.7,406.7 708.3,406.7 708.7,406.7 708.9,406.7 708.9,406.7 708.7,406.7 708.3,406.7 707.7,406.7 706.9,406.7 706.0,406.7 704.8,406.7 703.5,406.7 701.9,406.7 700.2,406.7 698.3,406.7 696.1,406.7 693.8,406.7 691.3,406.7 688.6,406.7 685.7,406.7 682.7,406.7 679.4,406.7 675.9,406.7 672.3,406.7 668.4,406.7 664.4,406.7 660.1,406.7 655.7,406.7 651.1,406.7 646.2,406.7 641.2,406.7 636.0,406.7 630.6,406.7 625.0,406.7 619.3,406.7 613.3,406.7 607.1,406.7 600.8,406.7 594.2,406.7 587.5,406.7 580.5,406.7 573.6,406.7 566.9,406.6 560.3,406.2 553.9,405.6 547.8,405.2 541.8,405.0 536.0,405.0 530.4,405.2 525.0,405.6 519.8,405.8 514.8,405.8 510.0,405.6 505.4,405.6 501.0,405.6 496.7,405.6 492.7,405.6 488.8,405.6 485.2,405.6 481.7,405.6 478.4,405.6 475.3,405.6 472.4,405.6 469.7,405.6 467.2,405.6 464.9,405.6 462.8,405.6 460.9,405.6 459.2,405.6 457.6,405.6 456.3,405.6 455.1,405.6 454.1,405.6 453.4,405.6 452.8,405.6 452.4,405.6 452.2,405.6 452.2,405.6 452.4,405.6 452.8,405.6 453.4,405.6 454.1,405.6 455.1,405.6 456.3,405.6 457.6,405.6 459.2,405.6 460.9,405.6 462.8,405.6 464.9,405.6 467.2,405.6 469.7,405.6 472.4,405.6 475.3,405.6 478.4,405.6 481.7,405.6 485.2,405.6 488.8,405.6 492.7,405.6 496.7,405.6 501.0,405.6 505.4,405.6 510.0,405.6 514.8,405.6 519.8,405.6 525.0,405.6 530.4,405.6 536.0,405.6 541.8,405.6 547.8,405.6 553.9,405.6 560.3,405.6 566.9,405.6 573.2,405.6 579.4,405.6 585.4,405.6 591.1,405.6 596.7,405.6 602.1,405.6 607.3,405.6 612.3,405.6 617.1,405.6 621.8,405.6 626.2,405.6 630.4,405.6 634.5,405.6 638.3,405.6 642.0,405.6 645.5,405.6 648.7,405.6 651.8,405.6 654.7,405.6 657.4,405.6 659.9,405.6 662.2,405.6 664.4,405.6 666.3,405.6 668.0,405.6 669.6,405.6 670.9,405.6 672.1,405.6 673.0,405.6 673.8,405.6 674.4,405.6 674.8,405.6 675.0,405.6 675.0,405.6 674.8,405.6 674.4,405.6 673.8,405.6 673.0,405.6 672.1,405.6 670.9,405.6 669.6,405.6 668.0,405.6 666.3,405.6 664.4,405.6 662.2,405.6 659.9,405.6 657.4,405.6 654.7,405.6 651.8,405.6 648.7,405.6 645.5,405.6 642.0,405.6 638.3,405.6 634.5,405.6 630.4,405.6 626.2,405.6 621.8,405.6 617.1,405.6 612.3,405.6 607.3,405.6 602.1,405.6 596.7,405.6 591.1,405.6 585.4,405.6 579.4,405.6 573.2,405.6 567.2,405.6 561.5,405.6 555.9,405.6 550.5,405.6 545.3,405.6 540.3,405.6 535.5,405.6 530.8,405.6 526.4,405.6 522.2,405.6 518.1,405.6 514.3,405.6 510.6,405.6 507.1,405.6 503.9,405.6 500.8,405.6 497.9,405.6 495.2,405.6 492.7,405.6 490.4,405.6 488.2,405.6 486.3,405.6 484.6,405.6 483.0,405.6 481.7,405.6 480.5,405.6 479.6,405.6 478.8,405.6 478.2,405.6 477.8,405.6 477.6,405.6 477.6,405.6 477.8,405.6 478.2,405.6 478.8,405.6 479.6,405.6 480.5,405.6 481.7,405.6 483.0,405.6 484.6,405.6 486.3,405.6 488.2,405.6 490.4,405.6 492.7,405.6 495.2,405.6 497.9,405.6 500.8,405.6 503.9,405.6 507.1,405.6 510.6,405.6 514.3,405.6 518.1,405.6 522.2,405.6 526.4,405.6 530.8,405.6 535.5,405.6 540.3,405.6 545.3,405.6 550.5,405.6 555.9,405.6 561.5,405.6 567.2,405.6 572.8,405.6 578.2,405.6 583.4,405.6 588.4,405.6 593.3,405.6 597.9,405.6 602.3,405.6 606.6,405.6 610.6,405.6 614.5,405.6 618.1,405.6 621.6,405.6 624.9,405.6 627.9,405.6 630.8,405.6 633.5,405.6 636.0,405.6 638.3,405.6 640.5,405.6 642.4,405.6 644.1,405.6 645.7,405.6 647.0,405.6 648.2,405.6 649.1,405.6 649.9,405.6 650.5,405.6 650.9,405.6 651.1,405.6 651.1,405.6 650.9,405.6 650.5,405.6 649.9,405.6 649.1,405.6 648.2,405.6 647.0,405.6 645.7,405.6 644.1,405.6 642.4,405.6 640.5,405.6 638.3,405.6 636.0,405.6 633.5,405.6 630.8,405.6 627.9,405.6 624.9,405.6 621.6,405.6 618.1,405.6 614.5,405.6 610.6,405.6 606.6,405.6 602.3,405.6 597.9,405.6 593.3,405.6 588.4,405.6 583.4,405.6 578.2,405.6 572.8,405.6 567.6,405.6 562.6,405.6 557.8,405.6 553.2,405.6 548.7,405.6 544.5,405.6 540.5,405.6 536.6,405.6 532.9,405.6 529.5,405.6 526.2,405.6 523.1,405.6 520.2,405.6 517.5,405.6 515.0,405.6 512.7,405.6 510.6,405.6 508.7,405.6 506.9,405.6 505.4,405.6 504.0,405.6 502.9,405.6 501.9,405.6 501.2,405.6 500.6,405.6 500.2,405.6 500.0,405.6 500.0,405.6 500.2,405.6 500.6,405.6 501.2,405.6 501.9,405.6 502.9,405.6 504.0,405.6 505.4,405.6 506.9,405.6 508.7,405.6 510.6,405.6 512.7,405.6 515.0,405.6 517.5,405.6 520.2,405.6 523.1,405.6 526.2,405.6 529.5,405.6 532.9,405.6 536.6,405.6 540.5,405.6 544.5,405.6 548.7,405.6 553.2,405.6 557.8,405.6 562.6,405.6 567.6,405.6 572.4,405.6 577.1,405.6 581.5,405.6 585.7,405.6 589.8,405.6 593.6,405.6 597.3,405.6 600.8,405.6 604.0,405.6 607.1,405.6 610.0,405.6 612.7,405.6 615.2,405.6 617.5,405.6 619.7,405.6 621.6,405.6 623.3,405.6 624.9,405.6 626.2,405.6 627.4,405.6 628.3,405.6 629.1,405.6 629.7,405.6 630.1,405.6 630.3,405.6 630.3,405.6 630.1,405.6 629.7,405.6 629.1,405.6 628.3,405.6 627.4,405.6 626.2,405.6 624.9,405.6 623.3,405.6 621.6,405.6 619.7,405.6 617.5,405.6 615.2,405.6 612.7,405.6 610.0,405.6 607.1,405.6 604.0,405.6 600.8,405.6 597.3,405.6 593.6,405.6 589.8,405.6 585.7,405.6 581.5,405.6 577.1,405.6 572.4,405.6 568.0,405.6 563.8,405.6 559.7,405.6 555.9,405.6 552.2,405.6 548.7,405.6 545.5,405.6 542.4,405.6 539.5,405.6 536.8,405.6 534.3,405.6 532.0,405.6 529.9,405.6 527.9,405.6 526.2,405.6 524.7,405.6 523.3,405.6 522.2,405.6 521.2,405.6 520.4,405.6 519.8,405.6 519.5,405.6 519.3,405.6 519.3,405.6 519.5,405.6 519.8,405.6 520.4,405.6 521.2,405.6 522.2,405.6 523.3,405.6 524.7,405.6 526.2,405.6 527.9,405.6 529.9,405.6 532.0,405.6 534.3,405.6 536.8,405.6 539.5,405.6 542.4,405.6 545.5,405.6 548.7,405.6 552.2,405.6 555.9,405.6 559.7,405.6 563.8,405.6 568.0,405.6 572.1,405.6 575.9,405.6 579.6,405.6 583.0,405.6 586.3,405.6 589.4,405.6 592.3,405.6 595.0,405.6 597.5,405.6 599.8,405.6 601.9,405.6 603.9,405.6 605.6,405.6 607.1,405.6 608.5,405.6 609.6,405.6 610.6,405.6 611.4,405.6 611.9,405.6 612.3,405.6 612.5,405.6 612.5,405.6 612.3,405.6 611.9,405.6 611.4,405.6 610.6,405.6 609.6,405.6 608.5,405.6 607.1,405.6 605.6,405.6 603.9,405.6 601.9,405.6 599.8,405.6 597.5,405.6 595.0,405.6 592.3,405.6 589.4,405.6 586.3,405.6 583.0,405.6 579.6,405.6 575.9,405.6 572.1,405.6 568.4,405.6 564.9,405.6 561.7,405.6 558.6,405.6 555.7,405.6 553.0,405.6 550.5,405.6 548.2,405.6 546.1,405.6 544.1,405.6 542.4,405.6 540.8,405.6 539.5,405.6 538.3,405.6 537.4,405.6 536.6,405.6 536.0,405.6 535.6,405.6 535.5,405.6 535.5,405.6 535.6,405.6 536.0,405.6 536.6,405.6 537.4,405.6 538.3,405.6 539.5,405.6 540.8,405.6 542.4,405.6 544.1,405.6 546.1,405.6 548.2,405.6 550.5,405.6 553.0,405.6 555.7,405.6 558.6,405.6 561.7,405.6 564.9,405.6 568.4,405.6 571.7,405.6 574.8,405.6 577.6,405.6 580.3,405.6 582.9,405.6 585.2,405.6 587.3,405.6 589.2,405.6 590.9,405.6 592.5,405.6 593.8,405.6 595.0,405.6 596.0,405.6 596.7,405.6 597.3,405.6 597.7,405.6 597.9,405.6 597.9,405.6 597.7,405.6 597.3,405.6 596.7,405.6 596.0,405.6 595.0,405.6 593.8,405.6 592.5,405.6 590.9,405.6 589.2,405.6 587.3,405.6 585.2,405.6 582.9,405.6 580.3,405.6 577.6,405.6 574.8,405.6 571.7,405.6 568.8,405.6 566.1,405.6 563.6,405.6 561.3,405.6 559.2,405.6 557.2,405.6 555.5,405.6 553.9,405.6 552.6,405.6 551.4,405.6 550.5,405.6 549.7,405.6 549.1,405.6 548.7,405.6 548.6,405.6 548.6,405.6 548.7,405.6 549.1,405.6 549.7,405.6 550.5,405.6 551.4,405.6 552.6,405.6 553.9,405.6 555.5,405.6 557.2,405.6 559.2,405.6 561.3,405.6 563.6,405.6 566.1,405.6 568.8,405.6 571.3,405.6 573.6,405.4 575.7,405.0 577.6,404.6 579.4,404.4 580.9,404.4 582.3,404.6 583.4,404.6 584.4,404.6 585.2,404.6 585.7,404.6 586.1,404.6 586.3,404.6 586.3,404.6 586.1,404.6 585.7,404.6 585.2,404.6 584.4,404.6 583.4,404.6 582.3,404.6 580.9,404.6 579.4,404.6 577.6,404.6 575.7,404.6 573.6,404.6 571.5,404.6 569.6,404.4 567.8,404.0 566.3,403.5 564.9,403.1 563.8,402.9 562.8,402.9 562.0,403.1 561.5,403.5 561.1,403.7 560.9,403.7 560.9,403.5 561.1,403.5 561.5,403.5 562.0,403.5 562.8,403.5 563.8,403.5 564.9,403.5 566.3,403.5 567.8,403.5 569.6,403.5 571.3,403.5 572.8,403.3 574.2,402.9 575.3,402.5 576.3,402.3 577.1,402.3 577.6,402.5 578.0,402.5 578.2,402.5 578.2,402.5 578.0,402.5 577.6,402.5 577.1,402.5 576.3,402.5 575.3,402.5 574.2,402.5 572.8,402.5 571.3,402.5 569.9,402.3 568.8,401.9 567.8,401.5 567.1,401.3 566.5,401.3 566.1,401.5 565.9,401.5 565.9,401.5 566.1,401.5 566.5,401.5 567.1,401.5 567.8,401.5 568.8,401.5 569.9,401.5 570.9,401.5 571.7,401.5 572.3,401.5 572.6,401.5 572.8,401.5 572.8,401.5 572.6,401.5 572.3,401.5 571.7,401.5 570.9,401.5 570.3,401.5 569.9,401.5 569.7,401.5 569.7,401.5 569.9,401.5 570.3,401.5 570.5,401.5 570.5,401.5 570.3,401.5 569.9,401.5 569.4,401.5 568.6,401.5 568.0,401.5 567.6,401.5 567.4,401.5 567.4,401.5 567.6,401.5 568.0,401.5 568.4,401.5 568.6,401.3 568.6,401.0 568.4,400.4 568.0,400.0 567.4,399.8 567.1,399.8 566.9,400.0 566.9,400.2 567.1,400.2 567.1,400.0 566.9,399.6 566.5,399.0 565.9,398.7 565.5,398.5 565.3,398.5 565.3,398.7 565.5,399.0 565.7,399.2 565.7,399.2 565.7,399.0 565.5,398.7 565.1,398.3 564.5,398.1 563.8,398.1 563.2,398.3 562.8,398.3 562.6,398.3 562.6,398.3 562.8,398.3 563.2,398.3 563.4,398.3 563.4,398.1 563.2,397.7 562.8,397.1 562.2,396.3 561.5,395.8 560.5,395.4 559.7,395.2 559.2,395.2 558.8,395.4 558.6,395.8 558.6,396.0 558.8,396.0 559.2,395.8 559.7,395.8 560.1,395.8 560.3,395.6 560.3,395.2 560.1,394.6 559.7,394.2 559.2,394.0 558.8,394.0 558.6,394.2 558.6,394.6 558.8,394.8 558.8,394.8 558.8,394.6 558.6,394.2 558.2,393.6 557.6,392.9 556.8,392.3 556.3,391.9 555.9,391.7 555.7,391.7 555.7,391.9 555.9,392.3 556.3,392.5 556.5,392.5 556.5,392.3 556.3,391.9 555.9,391.3 555.3,390.9 554.7,390.8 554.3,390.8 554.1,390.9 554.1,391.1 554.3,391.1 554.7,391.1 554.9,390.9 554.9,390.6 554.7,390.0 554.3,389.2 553.8,388.2 553.0,387.5 552.0,386.9 551.3,386.5 550.7,386.3 550.3,386.3 550.1,386.5 550.1,386.9 550.3,387.5 550.7,388.2 551.3,388.8 552.0,389.2 552.6,389.4 553.0,389.4 553.2,389.2 553.2,388.8 553.0,388.2 552.6,387.9 552.0,387.7 551.6,387.7 551.4,387.9 551.4,388.2 551.6,388.4 552.0,388.4 552.2,388.2 552.2,388.2 552.0,388.2 551.6,388.1 551.1,387.7 550.3,387.1 549.3,386.3 548.6,385.7 548.0,385.4 547.6,385.2 547.4,385.2 547.4,385.4 547.6,385.7 548.0,386.3 548.6,386.7 548.9,386.9 549.1,386.9 549.1,386.7 548.9,386.3 548.6,386.1 548.4,386.1 548.4,386.3 548.6,386.3 548.6,386.1 548.4,385.7 548.0,385.2 547.4,384.8 546.6,384.6 546.1,384.6 545.7,384.8 545.5,384.8 545.5,384.8 545.7,384.8 546.1,384.8 546.2,384.8 546.2,384.6 546.1,384.2 545.7,383.6 545.1,383.0 544.3,382.7 543.4,382.5 542.6,382.5 542.0,382.7 541.6,383.0 541.4,383.2 541.4,383.2 541.6,383.0 542.0,383.0 542.6,383.0 543.0,383.0 543.2,382.9 543.2,382.5 543.0,381.9 542.6,381.5 542.0,381.3 541.2,381.3 540.5,381.5 539.9,381.7 539.5,381.7 539.3,381.7 539.3,381.7 539.5,381.7 539.9,381.7 540.5,381.7 540.8,381.5 541.0,381.1 541.0,380.5 540.8,380.2 540.5,380.0 539.9,380.0 539.1,380.2 538.2,380.3 537.0,380.3 536.0,380.3 535.3,380.3 534.7,380.3 534.3,380.3 534.1,380.3 534.1,380.3 534.3,380.3 534.7,380.3 535.3,380.3 536.0,380.3 536.6,380.3 537.0,380.2 537.2,379.8 537.2,379.2 537.0,378.4 536.6,377.6 536.0,377.1 535.3,376.7 534.3,376.5 533.1,376.5 532.2,376.7 531.4,377.1 530.8,377.6 530.4,378.0 530.3,378.2 530.3,378.2 530.4,378.0 530.8,377.6 531.4,377.5 532.2,377.5 532.8,377.6 533.1,377.6 533.3,377.6 533.3,377.6 533.1,377.6 532.8,377.6 532.6,377.6 532.2,377.5 531.6,377.1 530.8,376.9 529.9,376.9 529.1,376.9 528.5,376.9 528.1,376.9 527.9,376.9 527.9,376.9 528.1,376.9 528.5,376.9 529.1,376.9 529.5,376.9 529.7,376.9 529.7,376.9 529.5,376.9 529.3,376.9 528.9,376.7 528.3,376.3 527.6,375.7 526.6,375.3 525.6,375.1 524.9,375.1 524.3,375.3 523.9,375.3 523.7,375.3 523.7,375.3 523.9,375.3 524.3,375.3 524.9,375.3 525.6,375.3 526.2,375.1 526.6,374.8 526.8,374.2 526.8,373.4 526.6,372.8 526.2,372.4 525.6,372.3 524.9,372.3 523.9,372.4 522.7,372.8 521.8,373.2 521.0,373.4 520.4,373.4 520.0,373.2 519.8,373.2 519.8,373.2 520.0,373.2 520.4,373.2 521.0,373.2 521.8,373.2 522.5,373.2 523.1,373.0 523.5,372.6 523.7,372.1 523.7,371.3 523.5,370.5 523.1,369.9 522.5,369.6 521.8,369.4 520.8,369.4 519.7,369.6 518.7,369.9 517.9,370.5 517.3,370.9 517.0,371.1 516.8,371.1 516.8,370.9 517.0,370.5 517.3,370.3 517.9,370.3 518.7,370.5 519.3,370.5 519.7,370.5 519.8,370.5 519.8,370.5 519.7,370.5 519.3,370.5 518.9,370.5 518.3,370.3 517.5,369.9 516.6,369.4 515.6,368.6 514.8,367.6 514.3,366.9 513.9,366.3 513.7,365.9 513.7,365.7 513.9,365.7 514.3,365.9 514.8,366.3 515.6,366.9 516.2,367.6 516.6,368.2 516.8,368.6 516.8,368.8 516.6,368.8 516.2,368.6 515.6,368.2 515.2,367.6 515.0,367.2 515.0,367.1 515.2,367.1 515.6,367.2 515.8,367.6 515.8,367.8 515.6,367.8 515.6,367.6 515.4,367.2 515.0,366.7 514.5,365.9 513.7,365.3 512.7,364.9 511.9,364.7 511.4,364.7 511.0,364.9 510.8,365.3 510.8,365.7 511.0,365.9 511.4,365.9 511.9,365.7 512.3,365.7 512.5,365.7 512.5,365.7 512.3,365.7 512.1,365.7 511.8,365.5 511.2,365.1 510.4,364.5 509.4,363.8 508.5,363.0 507.3,362.0 506.0,360.9 504.8,359.9 503.9,359.2 503.1,358.6 502.5,358.2 502.1,358.0 501.9,358.0 501.9,358.2 502.1,358.6 502.5,359.2 503.1,359.9 503.9,360.5 504.8,360.9 505.6,361.1 506.2,361.1 506.6,360.9 506.7,360.5 506.7,360.3 506.6,360.3 506.2,360.3 505.6,360.3 505.0,360.3 504.2,360.1 503.3,359.7 502.1,359.2 501.2,358.8 500.0,358.2 498.7,357.4 497.1,356.5 495.4,355.3 493.4,353.9 491.7,352.8 490.2,351.8 488.8,351.1 487.7,350.5 486.7,350.1 485.9,349.9 485.4,349.9 485.0,350.1 484.8,350.5 484.8,351.1 485.0,351.8 485.4,352.8 485.9,353.6 486.7,354.1 487.7,354.5 488.8,354.7 490.2,354.7 491.7,354.5 493.1,354.1 494.2,353.6 495.2,353.2 496.0,353.0 496.5,353.0 496.9,353.2 497.1,353.4 497.1,353.4 496.9,353.4 496.5,353.4 496.0,353.4 495.2,353.4 494.2,353.4 493.1,353.4 491.9,353.4 490.6,353.2 489.0,352.8 487.7,352.2 486.5,351.8 485.5,351.6 484.8,351.6 484.2,351.8 483.8,352.0 483.6,352.0 483.6,352.0 483.8,352.0 484.2,352.0 484.8,352.0 485.5,352.0 486.5,352.0 487.7,352.0 488.6,352.0 489.4,352.0 490.0,352.0 490.4,352.0 490.6,352.0 490.6,352.0 490.4,352.0 490.0,352.0 489.4,352.0 488.6,352.0 487.9,352.0 486.9,351.8 485.7,351.4 484.4,350.9 482.9,350.1 481.5,349.1 480.3,348.4 479.4,347.8 478.6,347.4 478.0,347.2 477.6,347.2 477.5,347.4 477.5,347.8 477.6,348.4 478.0,348.7 478.6,348.9 479.4,348.9 480.3,348.7 481.5,348.7 482.7,348.7 483.6,348.6 484.4,348.2 485.0,347.6 485.4,346.8 485.5,346.2 485.5,345.9 485.4,345.7 485.0,345.7 484.4,345.9 483.6,346.2 482.7,346.6 481.5,346.8 480.2,346.8 478.6,346.6 477.3,346.6 475.7,346.4 474.0,346.1 472.4,345.5 471.1,344.7 469.9,344.1 469.0,343.7 468.2,343.5 467.6,343.5 467.2,343.7 467.1,344.1 467.1,344.3 467.2,344.3 467.6,344.3 468.2,344.3 469.0,344.3 469.9,344.3 471.1,344.3 472.4,344.3 473.6,344.3 474.6,344.3 475.3,344.3 475.9,344.3 476.3,344.3 476.5,344.3 476.5,344.3 476.3,344.3 475.9,344.3 475.3,344.3 474.6,344.3 473.6,344.3 472.6,344.3 471.5,344.1 470.1,343.7 468.6,343.2 467.2,342.4 466.1,341.8 465.1,341.4 464.4,341.2 463.8,341.2 463.4,341.4 463.2,341.8 463.2,342.4 463.4,342.8 463.8,343.0 464.4,343.0 465.1,342.8 466.1,342.4 467.2,342.2 468.2,342.2 469.0,342.4 469.6,342.4 469.9,342.4 470.1,342.4 470.1,342.4 469.9,342.4 469.6,342.4 469.0,342.4 468.2,342.4 467.6,342.4 467.2,342.4 467.1,342.4 467.1,342.4 467.2,342.4 467.6,342.4 467.8,342.4 467.8,342.2 467.6,341.8 467.2,341.2 466.7,340.5 465.9,339.9 464.9,339.5 463.8,339.3 462.8,339.3 462.0,339.5 461.5,339.9 461.1,340.3 460.9,340.5 460.9,340.5 461.1,340.3 461.5,340.3 462.0,340.3 462.8,340.3 463.4,340.3 463.8,340.3 464.0,340.3 464.0,340.3 463.8,340.3 463.4,340.3 463.2,340.3 462.8,340.1 462.2,339.7 461.5,339.1 460.5,338.7 459.3,338.5 458.4,338.5 457.6,338.7 457.0,338.7 456.6,338.7 456.5,338.7 456.5,338.7 456.6,338.7 457.0,338.7 457.6,338.7 458.4,338.7 459.0,338.7 459.3,338.5 459.5,338.2 459.5,337.6 459.3,337.2 459.0,337.0 458.4,337.0 457.6,337.2 456.6,337.2 455.5,337.2 454.5,337.2 453.4,337.0 452.0,336.6 450.9,336.0 449.9,335.3 449.1,334.7 448.6,334.3 448.2,334.1 448.0,334.1 448.0,334.3 448.2,334.7 448.6,335.1 449.1,335.3 449.9,335.3 450.9,335.1 451.6,335.1 452.2,335.1 452.6,335.1 452.8,335.1 452.8,335.1 452.6,335.1 452.2,335.1 451.6,335.1 451.3,335.1 451.1,335.1 451.1,335.1 451.3,335.1 451.4,335.1 451.4,334.9 451.3,334.5 450.9,333.9 450.3,333.1 449.5,332.2 448.6,331.4 447.4,330.8 446.1,330.4 444.9,330.3 443.9,330.3 443.2,330.4 442.6,330.8 442.2,331.4 442.0,332.2 442.0,332.8 442.2,333.1 442.6,333.3 443.2,333.3 443.9,333.1 444.9,332.8 445.7,332.2 446.2,331.8 446.6,331.6 446.8,331.6 446.8,331.8 446.6,331.8 446.2,331.8 445.7,331.8 444.9,331.8 443.9,331.8 442.8,331.8 441.4,331.8 440.3,331.8 439.3,331.8 438.5,331.8 438.0,331.8 437.6,331.8 437.4,331.8 437.4,331.8 437.6,331.8 438.0,331.8 438.5,331.8 439.3,331.8 440.3,331.8 441.2,331.8 442.0,331.6 442.6,331.2 443.0,330.6 443.2,329.9 443.2,328.9 443.0,328.1 442.6,327.6 442.0,327.2 441.2,327.0 440.3,327.0 439.1,327.2 437.8,327.6 436.6,328.1 435.6,328.9 434.9,329.5 434.3,329.9 433.9,330.1 433.7,330.1 433.7,329.9 433.9,329.5 434.3,328.9 434.9,328.5 435.6,328.3 436.6,328.3 437.4,328.5 438.0,328.9 438.3,329.1 438.5,329.1 438.5,328.9 438.3,328.9 438.0,328.9 437.4,328.9 437.0,328.9 436.8,328.9 436.8,328.9 437.0,328.9 437.2,328.9 437.2,328.7 437.0,328.3 436.6,327.7 436.0,327.2 435.3,326.8 434.3,326.6 433.1,326.6 432.2,326.8 431.4,327.2 430.8,327.4 430.4,327.4 430.3,327.2 430.3,327.2 430.4,327.2 430.8,327.2 431.4,327.2 432.2,327.2 432.9,327.2 433.5,327.0 433.9,326.6 434.1,326.0 434.1,325.2 433.9,324.7 433.5,324.3 432.9,324.1 432.2,324.1 431.2,324.3 430.1,324.7 428.7,325.0 427.6,325.2 426.6,325.2 425.8,325.0 425.2,325.0 424.9,325.0 424.7,325.0 424.7,325.0 424.9,325.0 425.2,325.0 425.8,325.0 426.6,325.0 427.6,325.0 428.3,324.9 428.9,324.5 429.3,323.9 429.5,323.1 429.5,322.5 429.3,322.2 428.9,322.0 428.3,322.0 427.6,322.2 426.6,322.5 425.4,322.7 424.1,322.7 422.7,322.7 421.2,322.5 419.5,322.2 417.9,321.6 416.6,321.2 415.4,321.0 414.5,321.0 413.7,321.2 413.1,321.4 412.7,321.4 412.5,321.4 412.5,321.4 412.7,321.4 413.1,321.4 413.7,321.4 414.5,321.4 415.4,321.4 416.6,321.4 417.9,321.4 419.1,321.2 420.0,320.8 420.8,320.2 421.4,319.5 421.8,318.9 422.0,318.5 422.0,318.3 421.8,318.3 421.4,318.5 420.8,318.9 420.0,319.3 419.1,319.5 417.9,319.5 416.6,319.3 415.0,319.3 413.3,319.3 411.8,319.3 410.4,319.3 409.2,319.3 408.3,319.3 407.5,319.3 406.9,319.3 406.6,319.3 406.4,319.3 406.4,319.3 406.6,319.3 406.9,319.3 407.5,319.3 408.3,319.3 409.2,319.3 410.4,319.3 411.8,319.3 412.9,319.3 413.9,319.1 414.6,318.7 415.2,318.1 415.6,317.7 415.8,317.5 415.8,317.5 415.6,317.7 415.2,317.7 414.6,317.7 413.9,317.7 412.9,317.7 411.8,317.7 410.4,317.7 408.9,317.7 407.5,317.7 406.4,317.7 405.4,317.7 404.6,317.7 404.0,317.7 403.7,317.7 403.5,317.7 403.5,317.7 403.7,317.7 404.0,317.7 404.6,317.7 405.4,317.7 406.4,317.7 407.5,317.7 408.5,317.7 409.2,317.5 409.8,317.1 410.2,317.0 410.4,317.0 410.4,317.0 410.2,317.0 409.8,317.0 409.2,317.0 408.5,317.0 407.5,317.0 406.4,317.0 405.4,317.0 404.2,316.8 402.9,316.4 401.5,315.8 400.4,315.0 399.4,314.5 398.7,314.1 398.1,313.9 397.7,313.9 397.5,314.1 397.5,314.5 397.7,314.6 398.1,314.6 398.7,314.5 399.4,314.5 400.4,314.5 401.5,314.5 402.5,314.3 403.3,313.9 403.9,313.3 404.2,312.9 404.4,312.7 404.4,312.7 404.2,312.9 403.9,313.3 403.3,313.5 402.5,313.5 401.5,313.3 400.4,313.3 399.0,313.3 397.9,313.3 396.9,313.3 396.1,313.3 395.6,313.3 395.2,313.3 395.0,313.3 395.0,313.3 395.2,313.3 395.6,313.3 396.1,313.3 396.9,313.3 397.9,313.3 398.7,313.3 399.2,313.1 399.6,312.7 399.8,312.1 399.8,311.4 399.6,310.8 399.2,310.4 398.7,310.2 397.9,310.2 396.9,310.4 395.8,310.8 394.8,311.0 394.0,311.0 393.4,310.8 393.1,310.8 392.9,310.8 392.9,310.8 393.1,310.8 393.4,310.8 394.0,310.8 394.8,310.8 395.6,310.8 396.1,310.6 396.5,310.2 396.7,309.6 396.7,308.9 396.5,308.1 396.1,307.5 395.6,307.1 394.8,306.9 393.8,306.9 392.7,307.1 391.7,307.5 390.9,308.1 390.4,308.5 390.0,308.7 389.8,308.7 389.8,308.5 390.0,308.1 390.4,307.9 390.9,307.9 391.7,308.1 392.3,308.1 392.7,307.9 392.9,307.5 392.9,306.9 392.7,306.2 392.3,305.4 391.7,304.8 390.9,304.4 390.4,304.2 390.0,304.2 389.8,304.4 389.8,304.8 390.0,305.4 390.4,305.8 390.6,306.0 390.6,306.0 390.4,305.8 390.4,305.4 390.2,304.8 389.8,304.0 389.2,303.5 388.4,303.1 387.5,302.9 386.7,302.9 386.1,303.1 385.7,303.5 385.5,304.0 385.5,304.4 385.7,304.6 386.1,304.6 386.7,304.4 387.5,304.0 388.1,303.5 388.4,302.7 388.6,301.7 388.6,301.0 388.4,300.4 388.1,300.0 387.5,299.8 386.7,299.8 385.7,300.0 385.0,300.4 384.4,301.0 384.0,301.5 383.8,301.9 383.8,302.1 384.0,302.1 384.4,301.9 385.0,301.5 385.4,301.3 385.5,301.3 385.5,301.5 385.4,301.5" fill="none" stroke="red" stroke-width="7" stroke-opacity="0.5"/>
  <circle cx="385.2" cy="301.5" r="15" fill="blue" fill-opacity="0.5"/>
</svg>