<svg width="1293" height="1152" xmlns="http://www.w3.org/2000/svg">
  <circle cx="537" cy="667" r="1" fill="black" />
  <circle cx="537" cy="666" r="1" fill="black" />
  <circle cx="540" cy="664" r="1" fill="black" />
  <circle cx="540" cy="663" r="1" fill="black" />
  <circle cx="541" cy="660" r="1" fill="black" />
  <circle cx="543" cy="657" r="1" fill="black" />
  <circle cx="545" cy="651" r="1" fill="black" />
  <circle cx="545" cy="648" r="1" fill="black" />
  <circle cx="550" cy="643" r="1" fill="black" />
  <circle cx="551" cy="639" r="1" fill="black" />
  <circle cx="557" cy="634" r="1" fill="black" />
  <circle cx="560" cy="630" r="1" fill="black" />
  <circle cx="568" cy="624" r="1" fill="black" />
  <circle cx="574" cy="620" r="1" fill="black" />
  <circle cx="580" cy="615" r="1" fill="black" />
  <circle cx="587" cy="611" r="1" fill="black" />
  <circle cx="594" cy="608" r="1" fill="black" />
  <circle cx="598" cy="605" r="1" fill="black" />
  <circle cx="602" cy="603" r="1" fill="black" />
  <circle cx="609" cy="600" r="1" fill="black" />
  <circle cx="613" cy="600" r="1" fill="black" />
  <circle cx="618" cy="599" r="1" fill="black" />
  <circle cx="624" cy="598" r="1" fill="black" />
  <circle cx="626" cy="595" r="1" fill="black" />
  <circle cx="629" cy="594" r="1" fill="black" />
  <circle cx="633" cy="590" r="1" fill="black" />
  <circle cx="635" cy="588" r="1" fill="black" />
  <circle cx="636" cy="584" r="1" fill="black" />
  <circle cx="639" cy="580" r="1" fill="black" />
  <circle cx="642" cy="574" r="1" fill="black" />
  <circle cx="644" cy="572" r="1" fill="black" />
  <circle cx="646" cy="566" r="1" fill="black" />
  <circle cx="648" cy="563" r="1" fill="black" />
  <circle cx="651" cy="557" r="1" fill="black" />
  <circle cx="653" cy="555" r="1" fill="black" />
  <circle cx="655" cy="551" r="1" fill="black" />
  <circle cx="657" cy="547" r="1" fill="black" />
  <circle cx="661" cy="543" r="1" fill="black" />
  <circle cx="665" cy="540" r="1" fill="black" />
  <circle cx="668" cy="535" r="1" fill="black" />
  <circle cx="672" cy="532" r="1" fill="black" />
  <circle cx="676" cy="528" r="1" fill="black" />
  <circle cx="680" cy="524" r="1" fill="black" />
  <circle cx="682" cy="521" r="1" fill="black" />
  <circle cx="688" cy="516" r="1" fill="black" />
  <circle cx="692" cy="514" r="1" fill="black" />
  <circle cx="695" cy="512" r="1" fill="black" />
  <circle cx="700" cy="510" r="1" fill="black" />
  <circle cx="704" cy="508" r="1" fill="black" />
  <circle cx="712" cy="507" r="1" fill="black" />
  <polyline points="539,668 540,667 542,665 545,662 549,658 554,653 560,647 567,640 575,632 584,623 594,613 605,602 617,590 630,577 644,563 657,550 669,538 680,527 690,517 699,508 707,500 714,493 720,487 725,482 729,478 732,475 734,473 735,472 735,472 734,473 732,475 729,478 725,482 720,487 714,493 707,500 699,508 690,517 680,527 669,538 657,550 646,563 636,575 627,586 619,596 612,605 606,613 601,620 597,626 594,631 592,635 591,638 591,640 592,641 594,641 597,640 601,638 606,635 612,631 619,626 627,620 636,613 646,605 655,596 663,586 670,575 676,563 681,552 685,542 688,533 690,525 691,518 691,512 690,507 688,503 685,500 681,498 676,497 670,497 663,498 655,500 648,503 642,507 637,512 633,518 630,525 628,533 627,542 627,552 628,563 630,573 633,582 637,590 642,597 648,603 653,608 657,612 660,615 662,617 663,618 663,618 662,617 660,615 657,612 653,608 648,603 644,597 641,590 639,582 638,573 638,563 639,554 641,546 644,539 648,533 651,528 653,524 654,521 654,519 653,518 651,518 648,519 646,521 645,524 645,528 646,533 648,539 649,546 649,554 648,563 646,573 643,584 639,594 634,603 629,611 625,618 622,624 620,629 619,633 619,636 620,638 622,639 625,639 629,638 632,636 634,633 635,629 635,624 634,618 632,611 629,603 627,594 626,586 626,579 627,573 629,568 630,564 630,561 629,559 629,558 629,558 629,559 629,561 629,564 629,568 629,573 629,579 629,586 629,594 628,601 626,607 624,612 623,616 623,619 624,621 624,622 624,622 624,621 624,619 624,616 624,612 624,607 624,601 624,596 624,592 624,589 624,587 624,586 624,586 624,587 624,589 624,592 624,596 624,599 624,601 624,602 624,602 624,601 624,599 624,598 623,598 621,599 618,601 614,604 609,608 603,613 596,619 588,626 579,634 569,643 558,653 546,663 535,672 525,680 516,687 508,693 501,698 495,702 490,705 486,707 483,708 481,708 480,707 480,705 481,702 483,698 486,693 490,687 495,680 501,672 508,663 516,655 525,648 535,642 544,637 552,633 559,630 565,628 570,627 574,627 577,628 579,630 580,633 580,637 579,642 577,648 574,655 570,663 565,670 559,676 552,681 544,685 537,688 531,690 526,691 522,691 519,690 517,688 516,685 516,681 517,676 519,670 522,663 526,657 531,652 537,648 542,645 546,643 549,642 551,642 552,643 552,645 551,648 549,652 546,657 542,663 539,668 537,672 536,675 536,677 537,678 539,678 540,677 540,675 540,672 540,668 540,663 540,659 540,656 540,654 540,653 540,653 540,654 540,656 540,659 540,663 540,666 540,668 540,669 540,669 540,668 540,666 540,664 541,661 543,657 546,652 550,646 555,639 561,631 568,622 576,614 583,607 589,601 594,596 598,592 601,589 603,587 604,586 604,586 603,587 601,589 598,592 594,596 589,601 583,607 578,614 574,620 571,625 569,629 568,632 568,634 569,635 571,635 574,634 578,632 581,629 583,625 584,620 584,615 583,611 581,608 580,606 580,605 580,605 580,606 580,608 580,611 580,615 579,620 577,626 574,631 570,635 565,638 560,640 556,641 553,641 551,640 550,638 550,635 551,631 553,628 556,626 560,625 563,625 565,626 566,628 566,630 565,631 563,631 560,630 558,628 557,625 557,621 558,616 560,610 563,605 567,601 572,598 578,596 585,595 593,595 600,596 606,598 611,601 615,605 618,608 620,610 621,611 621,611 620,610 618,608 615,607 611,607 606,608 600,608 594,608 589,607 585,605 582,602 580,598 579,593 579,587 580,580 582,572 585,563 589,553 594,542 600,530 607,519 615,509 624,500 634,492 645,485 657,479 670,474 682,470 693,467 703,465 712,464 720,464 727,465 733,467 738,470 742,474 745,479 747,485 748,492 748,500 747,509 745,519 742,528 738,536 733,543 727,549 720,554 712,558 703,561 693,563 682,564 672,564 663,563 655,561 648,558 642,554 637,549 633,543 630,536 628,528 627,521 627,515 628,510 630,506 633,503 637,501 642,500 648,500 655,501 663,503 672,506 682,510 691,515 699,521 706,526 712,530 717,533 721,535 724,536 726,536 727,535 727,533 726,530 724,526 721,521 717,517 712,514 706,512 699,511 691,511 682,512 674,514 667,517 661,521 656,524 652,526 649,527 647,527 646,526 646,524 647,521 649,519 652,518 656,518 661,519 667,521 674,522 682,522 689,521 695,521 700,521 704,521 707,521 709,521 710,521 710,521 709,521 707,521 704,521 700,521 695,521 689,521 682,521 676,522 671,524 667,527 664,529 662,530 661,530 661,529 662,528 664,528 667,528 671,528 676,528 682,527 689,525 697,522 704,518 710,513 715,509 719,506 722,504 724,503 725,503 725,504 724,506 722,509 719,511 715,512 710,512 704,511 699,510 695,510 692,510 690,510 689,510 689,510 690,510 692,510 695,510 699,510 702,510 704,510 705,510 705,510 704,510 702,510 700,510 697,511 693,513 688,516 682,520 675,525 667,531 658,538 648,546 637,555 625,565 612,576 598,588 583,601 567,615 551,630 536,644 522,657 509,669 497,680 486,690 476,699 467,707 459,714 452,720 446,725 441,729 437,732 434,734 432,735 431,735 431,734 432,732 434,729 437,725 441,720 446,714 452,707 459,699 467,690 476,680 486,669 497,657 509,644 522,632 536,621 551,611 565,602 578,594 590,587 601,581 611,576 620,572 628,569 635,567 641,566 646,566 650,567 653,569 655,572 656,576 656,581 655,587 653,594 650,602 646,611 641,621 635,632 628,642 620,651 611,659 601,666 590,672 578,677 565,681 551,684 538,686 526,687 515,687 505,686 496,684 488,681 481,677 475,672 470,666 466,659 463,651 461,642 460,634 460,627 461,621 463,616 466,612 470,609 475,607 481,606 488,606 496,607 505,609 515,612 526,616 538,621 551,627 563,634 574,640 584,645 593,649 601,652 608,654 614,655 619,655 623,654 626,652 628,649 629,645 629,640 628,636 626,633 623,631 619,630 614,630 608,631 601,633 593,636 584,639 574,641 563,642 551,642 540,641 530,639 521,638 513,638 506,639 500,639 495,639 491,639 488,639 486,639 485,639 485,639 486,639 488,639 491,639 495,639 500,639 506,639 513,639 521,639 530,639 540,639 551,639 563,638 574,636 584,633 593,629 601,624 608,620 614,617 619,615 623,614 626,614 628,615 629,617 629,620 628,624 626,627 623,629 619,630 614,630 608,629 601,627 593,624 584,622 574,621 565,621 557,622 550,624 544,625 539,625 535,624 532,624 530,624 529,624 529,624 530,624 532,624 535,624 539,624 544,624 550,624 557,624 565,624 572,624 578,624 583,624 587,624 590,624 592,624 593,624 593,624 592,624 590,624 587,624 583,624 578,624 572,624 567,624 563,624 560,624 558,624 557,624 557,624 558,624 560,624 563,624 567,624 570,624 572,624 573,624 573,624 572,624 570,624 568,624 567,623 567,621 568,618 570,614 573,609 577,603 582,596 588,588 595,579 603,569 612,558 622,548 633,539 645,531 656,524 666,518 675,513 683,509 690,506 696,504 701,503 705,503 708,504 710,506 711,509 711,513 710,518 708,524 705,531 701,539 696,548 690,557 683,565 675,572 666,578 656,583 647,587 639,590 632,592 626,593 621,593 617,592 614,590 612,587 611,583 611,578 612,572 614,565 617,557 621,550 626,544 632,539 639,535 647,532 654,530 660,529 665,529 669,530 672,532 674,535 675,539 675,544 674,550 672,557 669,563 665,568 660,572 654,575 649,577 645,578 642,578 640,577 639,575 639,572 640,568 642,563 645,557 649,552 652,548 654,545 655,543 655,542 654,542 652,543 651,545 651,548 651,552 651,557 650,563 648,570 645,578 641,587 636,597 630,608 623,620 615,633 606,647 596,662 585,676 573,689 560,701 546,712 533,722 521,731 510,739 500,746 491,752 483,757 476,761 470,764 465,766 461,767 458,767 456,766 455,764 455,761 456,757 458,752 461,746 465,739 470,731 476,722 483,712 491,701 500,689 510,676 521,664 533,653 544,643 554,634 563,626 571,619 578,613 584,608 589,604 593,601 596,599 598,598 599,598 599,599 598,601 596,604 593,608 589,613 584,619 578,626 571,634 563,643 554,653 544,664 535,674 527,683 520,691 514,698 509,704 505,709 502,713 500,716 499,718 499,719 500,719 502,718 505,716 509,713 514,709 520,704 527,698 535,691 542,683 548,674 553,666 557,659 560,653 562,648 563,644 563,641 562,639 560,638 557,638 553,639 548,641 542,644 537,648 533,653 530,659 528,666 527,672 527,677 528,681 530,684 533,686 537,687 540,687 542,686 543,684 543,681 542,677 540,672 537,666 535,661 534,657 534,654 535,652 537,651 538,651 538,652 537,654 537,657 537,661 537,666 537,670 537,673 537,675 537,676 537,676 537,675 537,673 537,670 537,667 538,663 540,658 543,652 547,645 552,637 558,628 565,618 573,607 582,595 592,582 603,568 615,553 628,537 642,520 657,504 673,489 690,475 708,462 725,450 741,439 756,429 770,420 783,412 795,405 806,399 816,394 825,390 833,387 840,385 846,384 851,384 855,385 858,387 860,390 861,394 861,399 860,405 858,412 855,420 851,429 846,439 840,450 833,462 825,475 816,489 806,504 795,518 783,531 770,543 756,554 741,564 725,573 710,581 696,588 683,594 671,599 660,603 650,606 641,608 633,609 626,609 620,608 615,606 611,603 608,599 606,594 605,588 605,581 606,573 608,564 611,554 615,543 620,531 626,518 633,506 641,495 650,485 660,476 671,468 683,461 696,455 710,450 723,446 735,443 746,441 756,440 765,440 773,441 780,443 786,446 791,450 795,455 798,461 800,468 801,476 801,485 800,495 798,506 795,516 791,525 786,533 780,540 773,546 765,551 756,555 746,558 735,560 723,561 712,561 702,560 693,558 685,555 678,551 672,546 667,540 663,533 660,525 658,516 657,507 657,499 658,492 660,486 663,481 667,477 672,474 678,472 685,471 693,471 702,472 712,474 721,477 729,481 736,486 742,492 747,499 751,507 754,514 756,520 757,525 757,529 756,532 754,534 751,535 747,535 742,534 736,532 729,529 721,525 712,520 704,514 697,507 691,501 686,496 682,492 679,489 677,487 676,486 676,486 677,487 679,489 682,492 686,496 691,501 697,507 704,512 712,516 719,519 725,521 730,522 734,522 737,521 739,519 740,516 740,512 739,507 737,503 734,500 730,498 725,497 719,497 712,498 706,500 701,503 697,507 694,510 692,512 691,513 691,513 692,512 694,510 697,507 701,505 706,504 712,504 717,505 721,507 724,508 726,508 727,507 727,507 726,507 724,507 721,507 717,507 712,507 706,508 699,510 691,513 682,517 672,522 661,528 649,535 636,543 624,552 613,562 603,573 594,584 586,594 579,603 573,611 568,618 564,624 561,629 559,633 558,636 558,638 559,639 561,639 564,638 568,636 573,633 579,629 586,624 594,618 603,611 613,603 624,594 636,584 647,575 657,567 666,560 674,554 681,549 687,545 692,542 696,540 699,539 701,539 702,540 702,542 701,545 699,549 696,554 692,560 687,567 681,575 674,584 666,594 657,605 647,615 636,624 624,632 611,639 597,645 584,650 572,654 561,657 551,659 542,660 534,660 527,659 521,657 516,654 512,650 509,645 507,639 506,632 506,624 507,615 509,607 512,600 516,594 521,589 527,585 534,582 542,580 551,579 561,579 572,580 584,582 595,585 605,589 614,594 622,600 629,607 635,613 640,618 644,622 647,625 649,627 650,628 650,628 649,627 647,625 644,622 640,618 635,613 629,609 622,606 614,604 605,603 595,603 586,604 578,606 571,609 565,611 560,612 556,612 553,611 551,611 550,611 550,611 551,611 553,611 556,611 560,611 565,611 571,611 578,611 586,611 593,611 599,611 604,611 608,611 611,611 613,611 614,611 614,611 613,611 611,611 608,611 604,611 599,611 593,611 587,611 582,610 578,608 575,605 573,601 572,596 572,590 573,583 575,577 578,572 582,568 587,565 593,563 600,562 608,562 617,563 627,565 638,568 648,572 657,577 665,581 672,584 678,586 683,587 687,587 690,586 692,584 693,581 693,579 692,578 690,578 687,579 683,580 678,580 672,580 665,580 657,580 648,580 639,580 631,579 624,577 618,574 613,570 609,565 606,559 604,552 603,544 603,535 604,525 606,514 609,504 613,495 618,487 624,480 631,474 639,469 648,465 658,462 669,460 681,459 694,459 706,460 717,462 727,465 736,469 744,474 751,480 757,487 762,495 766,504 769,512 771,519 772,525 772,530 771,534 769,537 766,539 762,540 757,540 751,539 744,537 736,534 727,530 717,525 706,519 696,512 687,506 679,501 672,497 666,494 661,492 657,491 654,491 652,492 651,494 651,497 652,501 654,506 657,510 661,513 666,515 672,516 679,516 687,515 696,513 704,510 711,508 717,507 722,507 726,508 729,508 731,508 732,508 732,508 731,508 729,508 726,508 722,508 717,508 711,508 704,508 696,509 687,511 677,514 666,518 656,523 647,529 639,536 632,543 626,549 621,554 617,558 614,561 612,563 611,564 611,564 612,563 614,561 617,558 621,554 626,549 632,543 639,538 647,534 656,531 664,529 671,528 677,528 682,529 686,531 689,534 691,538 692,543 692,547 691,550 689,552 686,553 682,553 677,552 671,550 664,547 658,543 653,540 649,538 646,537 644,537 643,538 643,540 644,543 646,545 649,546 653,546 658,545 662,543 665,542 667,542 668,543 668,543 667,543 665,543 662,543 660,543 659,543 659,543 660,543 661,543 661,544 660,546 658,549 655,553 651,558 646,564 640,571 633,579 626,588 620,596 615,603 611,609 608,614 606,618 605,621 605,623 606,624 608,624 611,623 615,621 620,618 626,614 631,609 635,603 638,596 640,590 641,585 641,581 640,578 638,576 635,575 631,575 626,576 622,578 619,581 617,585 616,590 616,595 617,599 619,602 622,604 626,605 629,605 631,604 632,602 632,599 631,595 629,592 626,590 624,589 623,589 623,590 624,592 626,595 629,597 633,598 638,598 644,597 651,595 657,592 662,588 666,583 669,577 671,570 672,562 672,553 671,545 669,538 666,532 662,527 657,523 653,520 650,518 648,517 647,517 647,518 648,520 650,523 653,527 657,532 660,538 662,545 663,551 663,556 662,560 660,563 657,565 655,566 654,566 654,565 655,563 657,560 658,556 658,551 657,547 657,542 658,538 660,535 663,533 665,532 666,532 666,533 665,535 665,538 665,540 664,543 662,547 659,552 655,558 650,565 644,573 637,582 629,592 620,601 610,609 601,616 593,622 586,627 580,631 575,634 571,636 568,637 566,637 565,636 565,634 566,631 568,627 571,622 575,616 580,609 586,601 593,594 601,588 609,583 616,579 622,576 627,574 631,573 634,573 636,574 637,576 637,579 636,583 634,588 631,594 627,600 622,605 616,609 609,612 603,614 598,615 594,615 591,614 589,612 588,609 588,605 589,600 591,596 594,593 598,591 603,590 609,590 614,591 618,593 621,596 623,600 624,603 624,605 623,606 621,606 618,605 614,603 609,600 603,598 596,597 588,597 579,598 569,600 558,603 546,607 535,612 525,618 516,625 508,633 501,642 495,650 490,657 486,663 483,668 481,672 480,675 480,677 481,678 483,678 486,677 490,675 495,672 501,668 508,663 516,657 525,650 535,644 545,639 554,635 562,632 569,630 575,629 580,629 584,630 587,632 589,635 590,639 590,644 589,648 587,651 584,653 580,654 575,654 569,653 562,651 554,648 545,646 537,645 530,645 524,646 519,648 515,649 512,649 510,648 509,648 509,648 510,648 512,648 515,648 519,648 524,648 530,648 537,648 545,648 554,647 564,645 575,642 587,638 600,633 614,627 629,620 643,612 656,603 668,593 679,582 689,572 698,563 706,555 713,548 719,542 724,537 728,533 731,530 733,528 734,527 734,527 733,528 731,530 728,533 724,537 719,542 713,548 706,555 698,563 689,572 679,580 668,587 656,593 643,598 631,602 620,605 610,607 601,608 593,608 586,607 580,605 575,602 571,598 568,593 566,587 565,580 565,574 566,569 568,565 571,562 575,560 580,559 586,559 593,560 601,562 610,565 620,569 631,574 642,578 652,581 661,583 669,584 676,584 682,583 687,581 691,578 694,574 696,571 697,569 697,568 696,568 694,569 691,571 687,574 682,576 676,577 669,577 661,576 652,574 642,573 633,573 625,574 618,574 612,574 607,574 603,574 600,574 598,574 597,574 597,574 598,574 600,574 603,574 607,574 612,574 618,574 625,574 633,574 642,574 650,575 657,577 663,580 668,584 672,589 675,595 677,600 678,604 678,607 677,609 675,610 672,610 668,609 663,607 657,604 650,600 642,597 633,595 623,594 613,594 604,595 596,597 589,600 583,602 578,603 574,603 571,602 569,600 568,599 568,599 569,600 571,600 574,600 578,600 583,600 589,600 596,600 604,600 613,600 623,599 634,597 646,594 659,590 673,585 686,579 698,572 709,564 719,555 728,545 736,534 743,524 749,515 754,507 758,500 761,494 763,489 764,485 764,482 763,480 761,479 758,479 754,480 749,482 743,485 736,489 728,494 719,500 709,507 698,515 686,524 675,532 665,539 656,545 648,550 641,554 635,557 630,559 626,560 623,560 621,559 620,557 620,554 621,550 623,545 626,539 630,532 635,524 641,517 648,511 656,506 665,502 675,499 684,497 692,496 699,496 705,497 710,499 714,502 717,506 719,511 720,517 720,524 719,530 717,535 714,539 710,542 705,544 699,545 692,545 684,544 677,542 671,539 666,535 662,530 659,524 657,519 656,515 656,512 657,510 659,509 662,509 666,510 671,512 677,515 682,519 686,524 689,528 691,531 692,533 692,534 691,534 689,533 686,531 682,528 679,524 677,521 676,519 676,518 677,518 679,519 680,521 680,524 681,526 683,527 686,527 690,526 693,524 695,521 696,517 696,514 695,512 693,511 692,511 692,512 692,514 691,517 689,521 686,526 682,532 677,539 671,547 664,556 656,566 647,577 637,589 626,602 614,616 601,631 587,647 572,662 556,676 541,689 527,701 514,712 502,722 491,731 481,739 472,746 464,752 457,757 451,761 446,764 442,766 439,767 437,767 436,766 436,764 437,761 439,757 442,752 446,746 451,739 457,731 464,722 472,712 481,701 491,689 502,676 514,662 527,649 541,637 554,626 566,616 577,607 587,599 596,592 604,586 611,581 617,577 622,574 626,572 629,571 631,571 632,572 632,574 631,577 629,581 626,586 622,592 617,599 611,607 604,616 596,626 587,637 577,649 566,660 554,670 543,679 533,687 524,694 516,700 509,705 503,709 498,712 494,714 491,715 489,715 488,714 488,712 489,709 491,705 494,700 498,694 503,687 509,679 516,670 524,660 533,651 543,643 552,636 560,630 567,625 573,621 578,618 582,616 585,615 587,615 588,616 588,618 587,621 585,625 582,630 578,636 573,643 567,651 560,658 552,664 545,669 539,673 534,676 530,678 527,679 525,679 524,678 524,676 525,673 527,669 530,664 534,658 539,651 545,645 550,640 554,636 557,633 559,631 560,630 560,630 559,631 557,633 554,636 550,640 545,645 541,651 538,656 536,660 535,663 535,665 536,666 538,666 541,665 545,663 548,660 550,656 551,651 551,647 550,644 548,642 545,641 543,641 542,642 542,644 543,647 545,651 548,654 552,656 557,657 563,657 570,656 578,654 587,651 597,647 608,642 620,636 633,629 645,621 656,612 666,602 675,591 683,579 690,568 696,558 701,549 705,541 708,534 710,528 711,523 711,519 710,516 708,514 705,513 701,513 696,514 690,516 683,519 675,523 666,528 656,534 645,541 635,549 626,558 618,568 611,577 605,585 600,592 596,598 593,603 591,607 590,610 590,612 591,613 593,613 596,612 600,610 605,607 611,603 618,598 626,592 635,585 644,577 652,570 659,564 665,559 670,555 674,552 677,550 679,549 680,549 680,550 679,552 677,555 674,559 670,564 665,570 659,575 652,579 644,582 637,584 631,585 626,585 622,584 619,582 617,579 616,575 616,572 617,570 619,569 622,569 626,570 631,572 637,573 644,573 650,572 655,572 659,572 662,572 664,572 665,572 665,572 664,572 662,572 659,572 655,572 650,572 644,572 637,573 631,575 626,578 622,582 619,587 617,591 616,594 616,596 617,597 619,597 622,596 626,594 631,591 635,588 638,586 640,585 641,585 641,586 640,588 638,591 635,595 631,600 626,606 620,613 613,621 605,630 596,640 586,651 575,661 563,670 550,678 538,685 527,691 517,696 508,700 500,703 493,705 487,706 482,706 478,705 475,703 473,700 472,696 472,691 473,685 475,678 478,670 482,661 487,653 493,646 500,640 508,635 517,631 527,628 538,626 548,625 557,625 565,626 572,628 578,631 583,635 587,640 590,646 592,653 593,660 593,666 592,671 590,675 587,678 583,680 578,681 572,681 565,680 557,678 548,675 540,671 533,666 527,660 522,655 518,651 515,648 513,646 512,645 512,645 513,646 515,648 518,651 522,655 527,660 533,664 540,667 546,669 551,670 555,670 558,669 560,667 561,664 561,660 560,657 558,655 555,654 551,654 546,655 541,657 537,660 534,662 532,663 531,663 531,662 532,660 534,659 537,659 541,660 546,660 552,659 557,657 561,654 564,650 566,645 567,639 567,634 566,630 564,627 561,625 557,624 554,624 552,625 551,627 551,630 552,634 554,637 557,639 559,640 560,640 560,639 559,637 557,634 556,630 556,625 557,619 559,612 562,604 566,597 571,591 577,586 584,582 592,579 601,577 611,576 620,576 628,577 635,579 641,582 646,586 650,591 653,597 655,602 656,606 656,609 655,611 653,612 650,612 646,611 641,609 635,606 628,602 620,599 613,597 607,596 602,596 598,597 595,599 593,600 592,600 592,599 593,599 595,599 598,599 602,599 607,599 613,599 618,599 624,598 631,596 639,593 648,589 658,584 668,578 677,571 685,563 692,554 698,544 703,535 707,527 710,520 712,514 713,509 713,505 712,502 710,500 707,499 703,499 698,500 692,502 685,505 677,509 668,514 660,520 653,527 647,535 642,542 638,548 635,553 633,557 632,560 632,562 633,563 635,563 638,562 642,560 647,557 653,553 660,548 668,542 675,535 681,529 686,524 690,520 693,517 695,515 696,514 696,514 695,515 693,517 690,520 686,524 681,529 675,535 668,540 662,544 657,547 653,549 650,550 648,550 647,549 647,547 648,544 650,540 653,535 657,531 662,528 668,526 673,525 677,525 680,526 682,528 683,531 683,535 682,538 680,540 677,541 673,541 668,540 664,538 661,535 659,533 658,532 658,532 659,533 661,535 664,536 668,536 671,535 673,535 674,535 674,535 673,535 671,535 668,535 664,536 659,538 653,541 648,545 644,550 641,555 639,559 638,562 638,564 639,565 641,565 644,564 648,562 653,559 657,555 660,552 662,550 663,549 663,549 662,550 660,552 657,555 653,557 650,558 648,558 647,557 647,555 648,554 650,554 653,555 655,555 656,554 656,552 655,551 653,551 650,552 646,554 641,557 635,561 628,566 620,572 611,579 601,587 590,596 578,606 565,617 551,629 538,642 526,654 515,665 505,675 496,684 488,692 481,699 475,705 470,710 466,714 463,717 461,719 460,720 460,720 461,719 463,717 466,714 470,710 475,705 481,699 488,692 496,684 505,675 515,665 526,654 538,643 550,633 561,624 571,616 580,609 588,603 595,598 601,594 606,591 610,589 613,588 615,588 616,589 616,591 615,594 613,598 610,603 606,609 601,616 595,624 588,633 580,643 571,652 561,660 550,667 540,673 531,678 523,682 516,685 510,687 505,688 501,688 498,687 496,685 495,682 495,678 496,673 498,667 501,660 505,652 510,643 516,635 523,628 531,622 540,617 550,613 559,610 567,608 574,607 580,607 585,608 589,610 592,613 594,617 595,622 595,628 594,635 592,643 589,650 585,656 580,661 574,665 567,668 559,670 550,671 542,671 535,670 529,668 524,665 520,661 517,656 515,650 514,643 514,637 515,632 517,628 520,625 524,623 529,622 535,622 542,623 550,625 557,628 563,632 568,637 572,643 575,648 577,652 578,655 578,657 577,658 575,658 572,657 568,655 563,652 557,648 550,643 544,637 539,630 535,622 532,613 530,603 529,594 529,586 530,579 532,573 535,568 539,564 544,561 550,559 557,558 565,558 574,559 584,561 595,564 605,568 614,573 622,579 629,586 635,594 640,603 644,611 647,618 649,624 650,629 650,633 649,636 647,638 644,639 640,639 635,638 629,636 622,633 614,629 605,624 597,618 590,611 584,603 579,596 575,590 572,585 570,581 569,578 569,576 570,575 572,575 575,576 579,578 584,581 590,585 597,590 603,596 608,603 612,609 615,614 617,618 618,621 618,623 617,624 615,624 612,623 608,621 603,618 599,614 596,609 594,603 593,598 593,594 594,591 596,589 599,588 602,588 604,589 605,591 605,594 604,598 602,603 599,607 597,610 596,612 596,613 597,613 598,612 598,610 598,607 598,605 599,602 601,598 604,593 608,589 613,586 619,584 626,583 633,583 639,584 644,586 648,589 651,591 653,592 654,592 654,591 653,590 651,590 648,590 644,590 639,590" fill="none" stroke="red" stroke-width="0.5" />
  <circle cx="633" cy="590" r="2" fill="blue" />
</svg>