<svg width="1000" height="1000" xmlns="http://www.w3.org/2000/svg">
  <rect x="200" y="200" width="600" height="600" fill="white" stroke="gray" stroke-width="5" />
  <circle cx="200.0" cy="714.3" r="7" fill="black" />
  <circle cx="200.0" cy="711.1" r="7" fill="black" />
  <circle cx="209.5" cy="704.8" r="7" fill="black" />
  <circle cx="209.5" cy="701.6" r="7" fill="black" />
  <circle cx="212.7" cy="692.1" r="7" fill="black" />
  <circle cx="219.0" cy="682.5" r="7" fill="black" />
  <circle cx="225.4" cy="663.5" r="7" fill="black" />
  <circle cx="225.4" cy="654.0" r="7" fill="black" />
  <circle cx="241.3" cy="638.1" r="7" fill="black" />
  <circle cx="244.4" cy="625.4" r="7" fill="black" />
  <circle cx="263.5" cy="609.5" r="7" fill="black" />
  <circle cx="273.0" cy="596.8" r="7" fill="black" />
  <circle cx="298.4" cy="577.8" r="7" fill="black" />
  <circle cx="317.5" cy="565.1" r="7" fill="black" />
  <circle cx="336.5" cy="549.2" r="7" fill="black" />
  <circle cx="358.7" cy="536.5" r="7" fill="black" />
  <circle cx="381.0" cy="527.0" r="7" fill="black" />
  <circle cx="393.7" cy="517.5" r="7" fill="black" />
  <circle cx="406.3" cy="511.1" r="7" fill="black" />
  <circle cx="428.6" cy="501.6" r="7" fill="black" />
  <circle cx="441.3" cy="501.6" r="7" fill="black" />
  <circle cx="457.1" cy="498.4" r="7" fill="black" />
  <circle cx="476.2" cy="495.2" r="7" fill="black" />
  <circle cx="482.5" cy="485.7" r="7" fill="black" />
  <circle cx="492.1" cy="482.5" r="7" fill="black" />
  <circle cx="504.8" cy="469.8" r="7" fill="black" />
  <circle cx="511.1" cy="463.5" r="7" fill="black" />
  <circle cx="514.3" cy="450.8" r="7" fill="black" />
  <circle cx="523.8" cy="438.1" r="7" fill="black" />
  <circle cx="533.3" cy="419.0" r="7" fill="black" />
  <circle cx="539.7" cy="412.7" r="7" fill="black" />
  <circle cx="546.0" cy="393.7" r="7" fill="black" />
  <circle cx="552.4" cy="384.1" r="7" fill="black" />
  <circle cx="561.9" cy="365.1" r="7" fill="black" />
  <circle cx="568.3" cy="358.7" r="7" fill="black" />
  <circle cx="574.6" cy="346.0" r="7" fill="black" />
  <circle cx="581.0" cy="333.3" r="7" fill="black" />
  <circle cx="593.7" cy="320.6" r="7" fill="black" />
  <circle cx="606.3" cy="311.1" r="7" fill="black" />
  <circle cx="615.9" cy="295.2" r="7" fill="black" />
  <circle cx="628.6" cy="285.7" r="7" fill="black" />
  <circle cx="641.3" cy="273.0" r="7" fill="black" />
  <circle cx="654.0" cy="260.3" r="7" fill="black" />
  <circle cx="660.3" cy="250.8" r="7" fill="black" />
  <circle cx="679.4" cy="234.9" r="7" fill="black" />
  <circle cx="692.1" cy="228.6" r="7" fill="black" />
  <circle cx="701.6" cy="222.2" r="7" fill="black" />
  <circle cx="717.5" cy="215.9" r="7" fill="black" />
  <circle cx="730.2" cy="209.5" r="7" fill="black" />
  <circle cx="755.6" cy="206.3" r="7" fill="black" />
  <polyline points="206.3,717.5 203.2,714.3 200.0,714.3 200.0,711.1 203.2,704.8 209.5,695.2 219.0,682.5 231.7,666.7 247.6,647.6 266.7,625.4 288.9,600.0 314.3,571.4 342.9,539.7 374.6,504.8 409.5,473.0 447.6,444.4 482.5,419.0 514.3,396.8 542.9,377.8 568.3,361.9 590.5,349.2 609.5,339.7 625.4,333.3 638.1,330.2 647.6,330.2 654.0,333.3 657.1,339.7 657.1,349.2 654.0,361.9 647.6,377.8 638.1,396.8 625.4,419.0 609.5,444.4 590.5,473.0 568.3,498.4 542.9,520.6 514.3,539.7 482.5,555.6 454.0,568.3 428.6,577.8 406.3,584.1 387.3,587.3 371.4,587.3 358.7,584.1 349.2,577.8 342.9,568.3 339.7,555.6 339.7,539.7 342.9,520.6 349.2,498.4 358.7,479.4 371.4,463.5 387.3,450.8 406.3,441.3 428.6,434.9 454.0,431.7 476.2,431.7 495.2,434.9 511.1,441.3 523.8,450.8 533.3,463.5 539.7,479.4 542.9,495.2 542.9,507.9 539.7,517.5 533.3,523.8 523.8,527.0 511.1,527.0 495.2,523.8 476.2,517.5 460.3,507.9 447.6,495.2 438.1,485.7 431.7,479.4 428.6,476.2 428.6,476.2 431.7,479.4 438.1,485.7 447.6,495.2 460.3,501.6 476.2,504.8 488.9,504.8 498.4,501.6 504.8,495.2 507.9,492.1 507.9,492.1 504.8,495.2 498.4,495.2 488.9,495.2 476.2,495.2 466.7,492.1 460.3,485.7 457.1,482.5 457.1,482.5 460.3,482.5 466.7,482.5 476.2,482.5 488.9,482.5 498.4,482.5 504.8,482.5 507.9,482.5 507.9,482.5 504.8,482.5 498.4,482.5 492.1,482.5 488.9,479.4 488.9,473.0 492.1,463.5 498.4,457.1 507.9,454.0 514.3,454.0 517.5,457.1 517.5,463.5 514.3,466.7 511.1,466.7 511.1,463.5 514.3,457.1 514.3,450.8 517.5,441.3 523.8,434.9 527.0,431.7 527.0,431.7 523.8,434.9 523.8,438.1 527.0,438.1 533.3,434.9 539.7,428.6 542.9,419.0 542.9,412.7 539.7,409.5 539.7,409.5 539.7,412.7 542.9,412.7 549.2,409.5 552.4,403.2 552.4,393.7 552.4,384.1 555.6,371.4 561.9,358.7 568.3,349.2 571.4,342.9 571.4,339.7 568.3,339.7 568.3,342.9 568.3,349.2 568.3,358.7 571.4,365.1 577.8,368.3 587.3,368.3 593.7,365.1 596.8,358.7 596.8,349.2 593.7,336.5 593.7,320.6 596.8,307.9 603.2,298.4 606.3,292.1 606.3,288.9 606.3,288.9 606.3,292.1 606.3,298.4 606.3,307.9 606.3,314.3 606.3,317.5 606.3,317.5 606.3,314.3 606.3,311.1 609.5,304.8 615.9,295.2 625.4,282.5 638.1,273.0 647.6,266.7 654.0,263.5 657.1,263.5 657.1,266.7 654.0,273.0 647.6,276.2 641.3,276.2 638.1,273.0 638.1,273.0 641.3,273.0 647.6,269.8 657.1,263.5 663.5,254.0 666.7,247.6 666.7,244.4 663.5,244.4 660.3,247.6 660.3,250.8 663.5,250.8 669.8,247.6 679.4,241.3 692.1,231.7 701.6,225.4 707.9,222.2 711.1,222.2 711.1,225.4 707.9,228.6 701.6,228.6 692.1,228.6 685.7,225.4 682.5,219.0 682.5,209.5 685.7,203.2 692.1,200.0 701.6,200.0 714.3,203.2 730.2,206.3 749.2,206.3 765.1,206.3 777.8,206.3 787.3,206.3 793.7,206.3 796.8,206.3 796.8,206.3 793.7,206.3 787.3,206.3 777.8,206.3 765.1,206.3 755.6,206.3 742.9,209.5 730.2,209.5 717.5,212.7 707.9,215.9 701.6,215.9 698.4,215.9 698.4,215.9 701.6,215.9 707.9,215.9 717.5,215.9 723.8,219.0 727.0,222.2 727.0,222.2 723.8,222.2 717.5,222.2 707.9,222.2 701.6,222.2 692.1,225.4 679.4,231.7 669.8,234.9 663.5,234.9 660.3,234.9 660.3,234.9 663.5,234.9 669.8,234.9 679.4,234.9 685.7,238.1 688.9,244.4 688.9,254.0 685.7,260.3 679.4,263.5 669.8,263.5 657.1,260.3 647.6,260.3 641.3,260.3 638.1,260.3 638.1,260.3 641.3,260.3 647.6,260.3 654.0,260.3 657.1,263.5 657.1,269.8 654.0,279.4 647.6,285.7 638.1,288.9 628.6,288.9 622.2,285.7 619.0,285.7 619.0,285.7 622.2,285.7 628.6,285.7 631.7,288.9 631.7,295.2 628.6,298.4 622.2,298.4 615.9,295.2 606.3,295.2 593.7,298.4 581.0,304.8 571.4,314.3 565.1,327.0 561.9,336.5 561.9,342.9 565.1,346.0 571.4,346.0 581.0,342.9 587.3,336.5 590.5,333.3 590.5,333.3 587.3,333.3 581.0,333.3 574.6,336.5 571.4,342.9 571.4,346.0 574.6,346.0 574.6,349.2 571.4,355.6 565.1,365.1 561.9,371.4 561.9,374.6 561.9,374.6 561.9,371.4 561.9,365.1 558.7,361.9 552.4,361.9 546.0,365.1 542.9,371.4 542.9,381.0 546.0,393.7 546.0,409.5 542.9,422.2 536.5,431.7 533.3,438.1 533.3,441.3 533.3,441.3 533.3,438.1 533.3,431.7 533.3,422.2 533.3,415.9 533.3,412.7 533.3,412.7 533.3,415.9 533.3,419.0 530.2,425.4 523.8,434.9 514.3,447.6 504.8,463.5 498.4,476.2 495.2,485.7 495.2,492.1 498.4,495.2 504.8,495.2 507.9,492.1 507.9,485.7 504.8,476.2 504.8,469.8 501.6,466.7 495.2,466.7 485.7,469.8 479.4,476.2 476.2,485.7 476.2,492.1 479.4,495.2 482.5,495.2 482.5,492.1 482.5,485.7 479.4,482.5 473.0,482.5 463.5,485.7 457.1,492.1 454.0,498.4 454.0,501.6 457.1,501.6 457.1,498.4 454.0,498.4 447.6,501.6 441.3,501.6 431.7,501.6 425.4,501.6 422.2,501.6 422.2,501.6 425.4,501.6 428.6,501.6 428.6,504.8 425.4,511.1 419.0,514.3 409.5,514.3 403.2,511.1 400.0,511.1 400.0,511.1 403.2,511.1 406.3,511.1 406.3,514.3 403.2,517.5 396.8,517.5 393.7,517.5 387.3,520.6 381.0,527.0 371.4,536.5 358.7,542.9 349.2,546.0 342.9,546.0 339.7,542.9 339.7,536.5 342.9,533.3 349.2,533.3 358.7,536.5 365.1,542.9 368.3,549.2 368.3,552.4 365.1,552.4 358.7,549.2 349.2,549.2 336.5,549.2 320.6,552.4 307.9,558.7 298.4,565.1 292.1,568.3 288.9,568.3 288.9,565.1 292.1,565.1 298.4,565.1 307.9,565.1 317.5,565.1 323.8,568.3 327.0,574.6 327.0,577.8 323.8,577.8 317.5,577.8 307.9,577.8 298.4,577.8 285.7,581.0 273.0,587.3 263.5,596.8 257.1,603.2 254.0,606.3 254.0,606.3 257.1,603.2 263.5,596.8 273.0,593.7 279.4,593.7 282.5,596.8 282.5,596.8 279.4,596.8 273.0,596.8 263.5,600.0 257.1,606.3 254.0,609.5 254.0,609.5 257.1,609.5 263.5,609.5 266.7,612.7 266.7,619.0 263.5,625.4 257.1,628.6 247.6,628.6 241.3,625.4 238.1,625.4 238.1,625.4 241.3,625.4 244.4,625.4 244.4,628.6 241.3,634.9 241.3,638.1 238.1,644.4 231.7,654.0 225.4,660.3 222.2,663.5 222.2,663.5 225.4,660.3 225.4,654.0 225.4,650.8 225.4,650.8 225.4,654.0 225.4,660.3 225.4,663.5 222.2,669.8 219.0,679.4 219.0,685.7 219.0,688.9 219.0,688.9 219.0,685.7 219.0,682.5 215.9,682.5 212.7,685.7 212.7,692.1 209.5,701.6 209.5,707.9 209.5,711.1 209.5,711.1 209.5,707.9" fill="none" stroke="red" stroke-width="7" stroke-opacity="0.5"/>
  <circle cx="209.5" cy="704.8" r="15" fill="blue" fill-opacity="0.5"/>
</svg>