<svg width="1881" height="1194" xmlns="http://www.w3.org/2000/svg">
  <circle cx="895" cy="524" r="37.62" fill="black" />
  <circle cx="984" cy="591" r="37.62" fill="black" />
  <circle cx="851" cy="508" r="37.62" fill="black" />
  <circle cx="821" cy="510" r="37.62" fill="black" />
  <circle cx="820" cy="512" r="37.62" fill="black" />
  <circle cx="974" cy="581" r="37.62" fill="black" />
  <circle cx="861" cy="516" r="37.62" fill="black" />
  <circle cx="824" cy="509" r="37.62" fill="black" />
  <circle cx="1015" cy="658" r="37.62" fill="black" />
  <circle cx="829" cy="506" r="37.62" fill="black" />
  <circle cx="835" cy="516" r="37.62" fill="black" />
  <circle cx="944" cy="553" r="37.62" fill="black" />
  <circle cx="878" cy="515" r="37.62" fill="black" />
  <circle cx="917" cy="538" r="37.62" fill="black" />
  <circle cx="844" cy="511" r="37.62" fill="black" />
  <circle cx="1004" cy="623" r="37.62" fill="black" />
  <circle cx="1018" cy="678" r="37.62" fill="black" />
  <circle cx="870" cy="515" r="37.62" fill="black" />
  <circle cx="831" cy="514" r="37.62" fill="black" />
  <circle cx="838" cy="516" r="37.62" fill="black" />
  <circle cx="820" cy="514" r="37.62" fill="black" />
  <circle cx="868" cy="516" r="37.62" fill="black" />
  <circle cx="941" cy="545" r="37.62" fill="black" />
  <circle cx="846" cy="510" r="37.62" fill="black" />
  <circle cx="838" cy="504" r="37.62" fill="black" />
  <circle cx="863" cy="517" r="37.62" fill="black" />
  <circle cx="946" cy="556" r="37.62" fill="black" />
  <circle cx="943" cy="549" r="37.62" fill="black" />
  <circle cx="1012" cy="649" r="37.62" fill="black" />
  <circle cx="847" cy="506" r="37.62" fill="black" />
  <circle cx="955" cy="564" r="37.62" fill="black" />
  <circle cx="989" cy="594" r="37.62" fill="black" />
  <circle cx="934" cy="540" r="37.62" fill="black" />
  <circle cx="1006" cy="629" r="37.62" fill="black" />
  <circle cx="1001" cy="610" r="37.62" fill="black" />
  <circle cx="821" cy="515" r="37.62" fill="black" />
  <circle cx="1019" cy="680" r="37.62" fill="black" />
  <circle cx="904" cy="532" r="37.62" fill="black" />
  <circle cx="967" cy="574" r="37.62" fill="black" />
  <circle cx="849" cy="511" r="37.62" fill="black" />
  <circle cx="847" cy="511" r="37.62" fill="black" />
  <circle cx="822" cy="509" r="37.62" fill="black" />
  <circle cx="852" cy="511" r="37.62" fill="black" />
  <circle cx="831" cy="505" r="37.62" fill="black" />
  <circle cx="1019" cy="682" r="37.62" fill="black" />
  <circle cx="833" cy="515" r="37.62" fill="black" />
  <circle cx="840" cy="515" r="37.62" fill="black" />
  <circle cx="948" cy="559" r="37.62" fill="black" />
  <circle cx="1017" cy="673" r="37.62" fill="black" />
  <circle cx="854" cy="510" r="37.62" fill="black" />
  <circle cx="977" cy="584" r="37.62" fill="black" />
  <circle cx="859" cy="515" r="37.62" fill="black" />
  <circle cx="1016" cy="662" r="37.62" fill="black" />
  <circle cx="846" cy="509" r="37.62" fill="black" />
  <circle cx="841" cy="514" r="37.62" fill="black" />
  <circle cx="842" cy="505" r="37.62" fill="black" />
  <circle cx="875" cy="515" r="37.62" fill="black" />
  <circle cx="938" cy="542" r="37.62" fill="black" />
  <circle cx="1009" cy="634" r="37.62" fill="black" />
  <circle cx="834" cy="504" r="37.62" fill="black" />
  <circle cx="925" cy="539" r="37.62" fill="black" />
  <circle cx="822" cy="515" r="37.62" fill="black" />
  <circle cx="826" cy="514" r="37.62" fill="black" />
  <circle cx="963" cy="571" r="37.62" fill="black" />
  <circle cx="980" cy="587" r="37.62" fill="black" />
  <circle cx="886" cy="518" r="37.62" fill="black" />
  <circle cx="825" cy="509" r="37.62" fill="black" />
  <circle cx="951" cy="561" r="37.62" fill="black" />
  <circle cx="1018" cy="676" r="37.62" fill="black" />
  <circle cx="824" cy="515" r="37.62" fill="black" />
  <circle cx="996" cy="601" r="37.62" fill="black" />
  <circle cx="1011" cy="640" r="37.62" fill="black" />
  <circle cx="908" cy="535" r="37.62" fill="black" />
  <circle cx="856" cy="513" r="37.62" fill="black" />
  <circle cx="825" cy="508" r="37.62" fill="black" />
  <circle cx="846" cy="509" r="37.62" fill="black" />
  <circle cx="913" cy="537" r="37.62" fill="black" />
  <circle cx="899" cy="528" r="37.62" fill="black" />
  <circle cx="921" cy="538" r="37.62" fill="black" />
  <circle cx="844" cy="510" r="37.62" fill="black" />
  <circle cx="998" cy="605" r="37.62" fill="black" />
  <circle cx="959" cy="567" r="37.62" fill="black" />
  <circle cx="873" cy="515" r="37.62" fill="black" />
  <circle cx="826" cy="507" r="37.62" fill="black" />
  <circle cx="845" cy="509" r="37.62" fill="black" />
  <circle cx="1017" cy="670" r="37.62" fill="black" />
  <circle cx="1012" cy="645" r="37.62" fill="black" />
  <circle cx="882" cy="516" r="37.62" fill="black" />
  <circle cx="843" cy="513" r="37.62" fill="black" />
  <circle cx="826" cy="508" r="37.62" fill="black" />
  <circle cx="828" cy="514" r="37.62" fill="black" />
  <circle cx="827" cy="507" r="37.62" fill="black" />
  <circle cx="1003" cy="616" r="37.62" fill="black" />
  <circle cx="971" cy="577" r="37.62" fill="black" />
  <circle cx="1013" cy="654" r="37.62" fill="black" />
  <circle cx="1016" cy="666" r="37.62" fill="black" />
  <circle cx="891" cy="521" r="37.62" fill="black" />
  <circle cx="993" cy="597" r="37.62" fill="black" />
  <circle cx="929" cy="539" r="37.62" fill="black" />
  <circle cx="865" cy="517" r="37.62" fill="black" />
  <polyline points="1019,683 1018,682 1016,680 1013,677 1009,673 1004,668 1000,662 997,655 995,647 994,638 994,628 995,617 997,607 1000,598 1002,590 1003,583 1003,577 1002,572 1001,568 1001,565 1001,563 1001,562 1001,562 1001,563 1001,565 1001,568 1001,572 1001,577 1001,583 1001,590 1001,598 1001,607 1001,615 1001,622 1001,628 1001,633 1001,637 1001,640 1001,642 1001,643 1001,643 1001,642 1001,640 1001,637 1001,633 1001,628 1001,622 1001,615 1001,609 1001,604 1001,600 1001,597 1001,595 1001,594 1001,594 1001,595 1001,597 1001,600 1001,604 1001,609 1001,613 1001,616 1001,618 1001,619 1001,619 1001,618 1001,616 1001,613 1001,610 1000,606 998,601 995,595 991,588 986,580 980,571 973,561 965,550 956,538 946,525 935,511 923,498 910,486 896,475 881,465 865,456 848,448 830,441 813,435 797,430 782,426 768,423 755,421 743,420 732,420 722,421 713,423 705,426 698,430 692,435 687,441 683,448 680,456 678,465 677,475 677,486 678,498 680,509 683,519 687,528 692,536 698,543 705,549 713,554 722,558 732,561 743,563 755,564 768,564 782,563 797,561 813,558 828,554 842,549 855,543 867,536 878,528 888,519 897,509 905,500 912,492 918,485 923,479 927,474 930,470 932,467 933,465 933,464 932,464 930,465 927,467 923,470 918,474 912,479 905,485 897,492 888,500 878,508 867,515 855,521 842,526 828,530 815,533 803,535 792,536 782,536 773,535 765,533 758,530 752,526 747,521 743,515 740,508 738,502 737,497 737,493 738,490 740,488 743,487 747,487 752,488 758,490 765,493 773,497 782,502 792,508 803,513 815,517 826,520 836,522 845,523 853,523 860,522 866,520 871,517 875,513 878,508 880,504 881,501 881,499 880,498 878,498 875,499 871,501 866,504 860,508 853,511 845,513 836,514 826,514 817,513 809,511 802,508 796,506 791,505 787,505 784,506 782,508 781,509 781,509 782,508 784,508 787,508 791,508 796,508 802,508 809,508 817,508 825,508 834,509 844,510 854,510 863,511 871,513 878,514 884,514 889,514 893,514 896,514 898,514 899,514 899,514 898,514 896,514 893,514 889,514 884,514 878,514 871,514 863,514 854,514 844,514 833,514 823,514 814,514 806,514 799,514 793,514 788,514 784,514 781,514 779,514 778,514 778,514 779,514 781,514 784,514 788,514 793,514 799,514 806,514 814,514 823,514 831,514 838,514 844,514 849,514 853,514 856,514 858,514 859,514 859,514 858,514 856,514 853,514 849,514 844,514 838,514 831,514 825,514 820,514 816,514 813,514 811,514 810,514 810,514 811,514 813,514 816,514 820,514 825,514 829,514 832,514 834,514 835,514 835,514 834,514 832,514 829,514 827,514 826,514 826,514 827,514 828,514 830,515 833,515 837,515 842,515 848,515 855,515 861,515 866,515 870,515 873,515 875,515 876,515 876,515 875,515 873,515 870,515 866,515 861,515 857,515 854,515 852,515 851,515 851,515 852,515 854,515 857,515 859,515 860,514 860,512 859,511 857,511 854,511 850,511 845,511 841,511 838,511 836,511 835,511 835,511 836,511 838,511 841,511 844,511 848,512 853,514 859,517 866,521 874,526 883,532 893,539 904,547 916,556 929,566 943,577 958,587 974,596 989,604 1003,611 1016,617 1028,622 1039,626 1049,629 1058,631 1066,632 1073,632 1079,631 1084,629 1088,626 1091,622 1093,617 1094,611 1094,604 1093,596 1091,587 1088,579 1084,572 1079,566 1073,561 1066,557 1058,554 1049,552 1039,551 1028,551 1016,552 1003,554 989,557 974,561 960,566 947,572 935,579 924,585 914,590 905,594 897,597 890,599 884,600 879,600 875,599 872,597 870,594 869,590 869,585 870,581 872,578 875,576 879,575 884,575 890,576 897,578 905,581 914,583 924,584 935,584 947,583 960,581 974,580 987,580 999,581 1010,581 1020,581 1029,581 1037,581 1044,581 1050,581 1055,581 1059,581 1062,581 1064,581 1065,581 1065,581 1064,581 1062,581 1059,581 1055,581 1050,581 1044,581 1037,581 1029,581 1020,581 1010,581 999,581 987,581 974,581 962,582 951,584 941,587 932,591 924,596 917,602 911,609 906,617 902,626 899,636 897,647 896,659 896,670 897,680 899,689 902,697 906,704 911,710 917,715 924,719 932,722 941,724 951,725 962,725 974,724 987,722 1001,719 1016,715 1030,710 1043,704 1055,697 1066,689 1076,680 1085,670 1093,661 1100,653 1106,646 1111,640 1115,635 1118,631 1120,628 1121,626 1121,625 1120,625 1118,626 1115,628 1111,631 1106,635 1100,640 1093,646 1085,653 1076,661 1066,668 1055,674 1043,679 1030,683 1016,686 1003,688 991,689 980,689 970,688 961,686 953,683 946,679 940,674 935,668 931,662 928,657 926,653 925,650 925,648 926,647 928,647 931,648 935,650 940,653 946,657 953,662 961,666 970,669 980,671 991,672 1003,672 1016,671 1028,669 1039,666 1049,662 1058,659 1066,657 1073,656 1079,656 1084,657 1088,659 1091,662 1093,664 1094,665 1094,665 1093,664 1091,662 1088,661 1084,661 1079,662 1073,662 1066,662 1058,662 1049,662 1039,662 1028,662 1016,662 1003,661 989,659 974,656 958,652 941,647 923,641 904,634 886,626 869,617 853,607 838,596 824,584 811,571 799,557 788,542 778,526 769,511 761,497 754,484 748,472 743,461 739,451 736,442 734,434 733,427 733,421 734,416 736,412 739,409 743,407 748,406 754,406 761,407 769,409 778,412 788,416 799,421 811,427 824,434 838,442 853,451 869,461 886,472 902,484 917,497 931,511 944,524 956,536 967,547 977,557 986,566 994,574 1001,581 1007,587 1012,592 1016,596 1019,599 1021,601 1022,602 1022,602 1021,601 1019,599 1016,596 1012,592 1007,587 1001,581 994,574 986,566 977,557 967,547 956,536 944,524 931,513 917,503 902,494 888,486 875,479 863,473 852,468 842,464 833,461 825,459 818,458 812,458 807,459 803,461 800,464 798,468 797,473 797,479 798,486 800,494 803,503 807,513 812,522 818,530 825,537 833,543 842,548 852,552 863,555 875,557 888,558 900,558 911,557 921,555 930,552 938,548 945,543 951,537 956,530 960,522 963,515 965,509 966,504 966,500 965,497 963,495 960,494 956,494 951,495 945,497 938,500 930,504 921,509 911,515 900,521 890,526 881,530 873,533 866,535 860,536 855,536 851,535 848,533 846,530 845,526 845,521 846,517 848,514 851,512 855,511 860,511 866,512 873,514 881,517 890,521 898,524 905,526 911,527 916,527 920,526 923,524 925,521 926,519 926,518 925,518 923,519 920,521 916,522 911,522 905,521 898,521 891,521 883,520 874,518 864,515 853,511 843,508 834,506 826,505 819,505 813,506 808,508 804,509 801,509 799,508 798,508 798,508 799,508 801,508 804,508 808,508 813,508 819,508 826,508 834,508 843,508 851,508 860,509 870,511 881,514 893,518 904,523 914,527 923,530 931,532 938,533 944,533 949,532 953,530 956,527 958,524 959,522 959,521 958,521 956,522 953,524 949,525 944,525 938,524 931,524 923,524 914,524 904,524 895,524 885,523 874,521 862,518 849,514 837,509 826,505 816,502 807,500 799,499 792,499 786,500 781,502 777,505 774,507 772,508 771,508 771,507 772,506 774,506 777,506 781,506 786,506 792,506 799,506 807,506 816,506 826,506 837,506 847,506 858,507 868,509 877,512 885,516 892,519 898,521 903,522 907,522 910,521 912,519 913,517 913,516 912,516 910,517 907,517 903,517 898,517 892,517 885,517 877,517 868,517 860,517 853,517 847,517 842,517 838,517 835,517 833,517 832,517 832,517 833,517 835,517 838,517 842,517 847,517 853,517 860,517 866,517 871,517 875,517 878,517 880,517 881,517 881,517 880,517 878,517 875,517 871,517 866,517 862,517 859,517 857,517 856,517 856,517 857,517 859,517 862,517 864,517 865,517 865,517 864,517 863,517 863,518 864,520 866,523 869,527 873,532 878,538 884,545 891,553 899,562 908,570 918,577 929,583 941,588 954,592 966,595 977,597 987,598 996,598 1004,597 1011,595 1017,592 1022,588 1026,583 1029,577 1031,570 1032,564 1032,559 1031,555 1029,552 1026,550 1022,549 1017,549 1011,550 1004,552 996,555 987,559 977,564 966,568 956,571 947,573 939,574 932,574 926,573 921,571 917,568 914,566 912,565 911,565 911,566 912,567 914,567 917,567 921,567 926,567 932,567 939,567 947,567 956,567 964,567 971,567 977,567 982,567 986,567 989,567 991,567 992,567 992,567 991,567 989,567 986,567 982,567 977,567 971,567 964,567 958,567 953,567 949,567 946,567 944,567 943,567 943,567 944,567 946,567 949,567 953,567 958,567 962,567 965,567 967,567 968,567 968,567 967,567 965,567 962,567 959,567 955,566 950,564 944,561 937,557 929,552 920,546 910,539 899,531 887,522 876,514 866,507 857,501 849,496 842,492 836,489 831,487 827,486 824,486 822,487 821,489 821,492 822,496 824,501 827,507 831,514 836,520 842,525 849,529 857,532 866,534 876,535 886,535 895,534 903,532 910,529 916,525 921,520 925,516 928,513 930,511 931,510 931,510 930,511 928,513 925,516 921,518 916,519 910,519 903,518 895,518 886,518 878,519 871,521 865,524 860,528 856,533 853,539 851,546 850,554 850,563 851,573 853,584 856,594 860,603 865,611 871,618 878,624 886,629 895,633 905,636 916,638 928,639 941,639 955,638 970,636 984,633 997,629 1009,624 1020,618 1030,611 1039,603 1047,594 1054,586 1060,579 1065,573 1069,568 1072,564 1074,561 1075,559 1075,558 1074,558 1072,559 1069,561 1065,564 1060,568 1054,573 1047,579 1039,586 1030,592 1020,597 1009,601 997,604 984,606 972,607 961,607 951,606 942,604 934,601 927,597 921,592 916,587 912,583 909,580 907,578 906,577 906,577 907,578 909,580 912,583 916,587 921,590 927,592 934,593 942,593 951,592 961,590 972,587 982,585 991,584 999,584 1006,585 1012,587 1017,588 1021,588 1024,587 1026,587 1027,587 1027,587 1026,587 1024,587 1021,587 1017,587 1012,587 1006,587 999,587 991,587 982,587 974,587 967,587 961,587 956,587 952,587 949,587 947,587 946,587 946,587 947,587 949,587 952,587 956,587 961,587 967,587 974,587 980,587 987,588 993,590 998,593 1002,597 1005,600 1007,602 1008,603 1008,603 1007,602 1005,600 1002,597 998,595 993,594 989,594 986,595 984,597 983,598 983,598 984,597 986,597 989,597 993,597 998,598 1004,600 1011,603 1017,607 1022,612 1026,618 1029,625 1031,633 1032,640 1032,646 1031,651 1029,655 1026,658 1022,660 1017,661 1011,661 1006,660 1002,658 999,655 997,651 996,646 996,640 997,635 999,631 1002,628 1006,626 1011,625 1015,625 1018,626 1020,628 1021,631 1021,635 1020,640 1018,644 1015,647 1011,649 1008,650 1006,650 1005,649 1005,647 1006,644 1008,640 1011,637 1013,635 1014,634 1014,634 1013,635 1011,637 1010,640 1010,642 1011,643 1011,643 1011,642 1011,640 1010,637 1008,633 1005,628 1001,622 996,615 990,607 983,598 975,588 966,577 956,565 947,554 939,544 932,535 926,527 921,520 917,514 914,509 912,505 911,502 911,500 912,499 914,499 917,500 921,502 926,505 932,509 939,514 947,520 954,527 960,535 965,544 969,554 972,563 974,571 975,578 975,584 974,589 972,593 969,596 965,598 960,599 954,599 949,598 945,596 942,593 940,589 939,584 939,578 940,571 942,563 945,556 949,550 952,545 954,541 955,538 955,536 954,535 952,535 951,536 951,538 951,541 951,545 951,550 951,556 951,561 952,567 954,574 957,582 961,591 966,601 972,612 979,622 987,631 996,639 1004,646 1011,652 1017,657 1022,661 1026,664 1029,666 1031,667 1032,667 1032,666 1031,664 1029,661 1026,657 1022,652 1017,646 1011,639 1004,631 998,622 993,614 989,607 986,601 984,596 983,592 983,589 984,587 986,586 989,586 993,587 998,589 1003,592 1007,596 1010,601 1012,607 1013,614 1013,620 1012,625 1010,629 1007,632 1003,634 1000,635 998,635 997,634 997,632 998,629 1000,625 1003,620 1005,616 1006,613 1006,611 1005,610 1003,610 1002,611 1002,613 1003,616 1005,620 1008,625 1010,631 1011,636 1011,640 1010,643 1009,645 1009,646 1009,646 1009,645 1009,643 1009,640 1009,636 1009,633 1009,631 1009,630 1009,630 1009,631 1009,633 1009,634 1008,634 1006,633 1003,631 999,628 994,624 988,619 981,613 973,606 964,598 954,589 943,579 931,568 918,556 904,543 891,531 879,520 868,510 858,501 849,493 841,486 834,480 828,475 823,471 819,468 816,466 814,465 813,465 813,466 814,468 816,471 819,475 823,480 828,486 834,493 841,501 849,510 858,520 868,531 879,541 891,550 904,558 916,565 927,571 937,576 946,580 954,583 961,585 967,586 972,586 976,585 979,583 981,580 982,576 982,571 981,565 979,558 976,550 972,541 967,532 961,524 954,517 946,511 937,506 927,502 916,499 904,497 893,496 883,496 874,497 866,499 859,502 853,506 848,511 844,517 841,524 839,532 838,539 838,545 839,550 841,554 844,557 848,559 853,560 859,560 866,559 874,557 883,554 893,550 904,545 914,539 923,532 931,526 938,521 944,517 949,514 953,512 956,511 958,511 959,512 959,514 958,517 956,521 953,526 949,532 944,537 938,541 931,544 923,546 914,547 904,547 895,546 887,544 880,541 874,537 869,532 865,528 862,525 860,523 859,522 859,522 860,523 862,525 865,528 869,532 874,535 880,537 887,538 895,538 904,537 912,535 919,532 925,530 930,529 934,529 937,530 939,532 940,533 940,533 939,532 937,532 934,532 930,532 925,532 919,532 912,532 904,532 895,531 885,529 874,526 862,522 849,517 835,511 822,506 810,502 799,499 789,497 780,496 772,496 765,497 759,499 754,502 750,506 747,509 745,511 744,512 744,512 745,511 747,509 750,508 754,508 759,509 765,509 772,509 780,509 789,509 799,509 810,509 822,509 835,510 849,512 864,515 880,519 897,524 913,528 928,531 942,533 955,534 967,534 978,533 988,531 997,528 1005,526 1012,525 1018,525 1023,526 1027,528 1030,529 1032,529 1033,528 1033,528 1032,528 1030,528 1027,528 1023,528 1018,528 1012,528 1005,528 997,528 988,528 978,528 967,528 955,528 942,528 928,528 913,528 899,528 886,529 874,531 863,534 853,538 844,543 836,549 829,554 823,558 818,561 814,563 811,564 809,564 808,563 808,561 809,558 811,554 814,549 818,545 823,542 829,540 836,539 844,539 853,540 863,542 874,545 886,549 899,552 913,554 928,555 943,555 957,554 970,552 982,549 993,547 1003,546 1012,546 1020,547 1027,549 1033,550 1038,550 1042,549 1045,549 1047,549 1048,549 1048,549 1047,549 1045,549 1042,549 1038,549 1033,549 1027,549 1020,549 1012,549 1003,549 993,549 982,549 970,549 957,549 943,549 930,550 918,552 907,555 897,559 888,564 880,570 873,577 867,585 862,594 858,604 855,615 853,627 852,640 852,652 853,663 855,673 858,682 862,690 867,697 873,703 880,708 888,712 897,715 907,717 918,718 930,718 943,717 957,715 972,712 988,708 1005,703 1021,697 1036,690 1050,682 1063,673 1075,663 1086,652 1096,642 1105,633 1113,625 1120,618 1126,612 1131,607 1135,603 1138,600 1140,598 1141,597 1141,597 1140,598 1138,600 1135,603 1131,607 1126,612 1120,618 1113,625 1105,633 1096,642 1086,650 1075,657 1063,663 1050,668 1036,672 1021,675 1007,677 994,678 982,678 971,677 961,675 952,672 944,668 937,663 931,657 926,650 922,644 919,639 917,635 916,632 916,630 917,629 919,629 922,630 926,632 931,635 937,639 944,644 952,649 961,653 971,656 982,658 994,659 1007,659 1019,658 1030,656 1040,653 1049,649 1057,646 1064,644 1070,643 1075,643 1079,644 1082,646 1084,649 1085,651 1085,652 1084,652 1082,651 1079,649 1075,648 1070,648 1064,649 1057,649 1049,649 1040,649 1030,649 1019,649 1009,649 1000,649 992,649 985,649 979,649 974,649 970,649 967,649 965,649 964,649 964,649 965,649 967,649 970,649 974,649 979,649 985,649 992,649 1000,649 1009,649 1017,649 1024,649 1030,649 1035,649 1039,649 1042,649 1044,649 1045,649 1045,649 1044,649 1042,649 1039,649 1035,649 1030,649 1024,649 1017,649 1011,649 1006,649 1002,649 999,649 997,649 996,649 996,649 997,649 999,649 1002,649 1006,649 1011,649 1015,649 1018,649 1020,649 1021,649 1021,649 1020,649 1018,649 1015,649 1012,649 1008,648 1003,646 997,643 990,639 982,634 973,628 963,621 952,613 942,604 933,594 925,583 918,571 912,558 907,546 903,535 900,525 898,516 897,508 897,501 898,495 900,490 903,486 907,483 912,481 918,480 925,480 933,481 942,483 950,486 957,490 963,495 968,501 972,508 975,516 977,525 978,535 978,546 977,556 975,565 972,573 968,580 963,586 957,591 950,595 944,598 939,600 935,601 932,601 930,600 929,598 929,595 930,591 932,586 935,580 939,573 944,565 948,556 951,548 953,541 954,535 954,530 953,526 951,523 948,521 944,520 941,520 939,521 938,523 938,526 939,530 941,535 944,541 946,548 947,554 947,559 946,563 944,566 943,568 943,569 944,569 944,568 944,566 944,563 944,559 944,554 944,550 944,547 944,545 944,544 944,544 944,545 944,547 944,550 944,553 945,557 947,562 950,568 954,575 959,583 965,592 972,602 980,613 989,625 999,638 1010,652 1020,667 1029,681 1037,694 1044,706 1050,717 1055,727 1059,736 1062,744 1064,751 1065,757 1065,762 1064,766 1062,769 1059,771 1055,772 1050,772 1044,771 1037,769 1029,766 1020,762 1012,757 1005,751 999,744 994,736 990,727 987,717 985,706 984,694 984,681 985,669 987,658 990,648 994,639 999,631 1005,624 1012,618 1019,613 1025,609 1030,606 1034,604 1037,603 1039,603 1040,604 1040,606 1039,609 1037,613 1034,618 1030,624 1025,631 1019,639 1014,648 1010,658 1007,669 1005,680 1004,690 1004,699 1005,707 1007,714 1010,720 1014,725 1019,729 1023,732 1026,734 1028,735 1029,735 1029,734 1028,732 1026,729 1023,725 1019,720 1016,714 1014,707 1013,699 1013,690 1014,680 1016,671 1019,663 1021,656 1022,650 1022,645 1021,641 1019,638 1018,636 1018,635 1019,635 1019,636 1019,638 1019,641 1019,645 1019,650 1019,656 1019,663 1019,671 1019,680 1018,688 1016,695 1013,701 1011,706 1010,710 1010,713 1011,715 1012,716 1012,716 1012,715 1012,713 1012,710 1012,706 1012,701 1012,695 1012,688 1012,680 1012,671 1012,661 1012,650 1012,640 1012,631 1012,623 1012,616 1012,610 1012,605 1012,601 1012,598 1012,596 1012,595 1012,595 1012,596 1012,598 1012,601 1012,605 1012,610 1012,616 1012,623 1012,631 1012,640 1012,648 1012,655 1012,661 1012,666 1012,670 1012,673 1012,675 1012,676 1012,676 1012,675 1012,673 1012,670 1012,666 1012,661 1012,655 1012,648 1012,642 1012,637 1012,633 1012,630 1012,628 1012,627 1012,627 1012,628 1012,630 1012,633 1012,637 1012,642 1012,646 1012,649 1012,651 1012,652 1012,652 1012,651 1012,649 1012,646 1012,644 1012,643 1012,643 1012,644 1012,645 1011,645 1009,644 1006,642 1002,639 997,635 991,630 984,624 976,617 967,609 959,600 952,590 946,579 941,569 937,560 934,552 932,545 931,539 931,534 932,530 934,527 937,525 941,524 946,524 952,525 959,527 967,530 974,534 980,539 985,545 989,552 992,560 994,569 995,577 995,584 994,590 992,595 989,599 985,602 980,604 974,605 967,605 961,604 956,602 952,599 949,595 947,590 946,584 946,577 947,571 949,566 952,562 956,559 961,557 967,556 972,556 976,557 979,559 981,562 982,566 982,571 981,575 979,578 976,580 972,581 967,581 963,580 960,578 958,575 957,573 957,572 958,572 960,573 963,574 967,574 972,575 978,577 985,580 993,584 1002,589 1010,595 1017,602 1023,610 1028,619 1032,629 1035,638 1037,646 1038,653 1038,659 1037,664 1035,668 1032,671 1028,673 1023,674 1017,674 1010,673 1004,671 999,668 995,664 992,659 990,653 989,646 989,638 990,629 992,621 995,614 999,608 1004,603 1008,599 1011,596 1013,594 1014,593 1014,593 1013,594 1011,596 1008,599 1006,603 1005,608 1005,614 1006,621 1006,629 1007,638 1009,648 1012,659 1016,671 1019,682 1021,692 1022,701 1022,709 1021,716 1019,722 1018,727 1018,731 1018,734 1018,736 1018,737 1018,737 1018,736 1018,734 1018,731 1018,727 1018,722 1018,716 1018,709 1018,701 1018,692 1018,682 1018,673 1018,665 1018,658 1018,652 1018,647 1018,643 1018,640 1018,638 1018,637 1018,637 1018,638 1018,640 1018,643 1018,647 1018,652 1018,658 1018,665 1018,673 1018,680 1018,686 1018,691 1018,695 1018,698 1018,700 1018,701 1018,701 1018,700 1018,698 1018,695 1018,691 1018,686 1018,680 1018,675 1018,671 1018,668 1018,666 1018,665 1018,665 1018,666 1018,668 1018,671 1018,675 1018,678 1018,680 1018,681 1018,681 1018,680 1018,678 1018,676 1017,673 1015,669 1012,664 1008,658 1003,651 997,643 990,634 982,624 973,613 963,601 952,588 940,574 927,559 913,543 900,528 888,514 877,501 867,489 858,478 850,468 843,459 837,451 832,444 828,438 825,433 823,429 822,426 822,424 823,423 825,423 828,424 832,426 837,429 843,433 850,438 858,444 867,451 877,459 888,468 900,478 913,489 925,501 936,514 946,528 955,541 963,553 970,564 976,574 981,583 985,591 988,598 990,604 991,609 991,613 990,616 988,618 985,619 981,619 976,618 970,616 963,613 955,609 946,604 936,598 925,591 913,583 902,574 892,564 883,553 875,541 868,530 862,520 857,511 853,503 850,496 848,490 847,485 847,481 848,478 850,476 853,475 857,475 862,476 868,478 875,481 883,485 892,490 902,496 913,503 923,511 932,520 940,530 947,539 953,547 958,554 962,560 965,565 967,569 968,572 968,574 967,575 965,575 962,574 958,572 953,569 947,565 940,560 932,554 923,547 913,539 904,532 896,526 889,521 883,517 878,514 874,512 871,511 869,511 868,512 868,514 869,517 871,521 874,526 878,532 883,537 889,541 896,544 904,546 913,547 921,547 928,546 934,544 939,541 943,537 946,534 948,532 949,531 949,531 948,532 946,534 943,537 939,539 934,540 928,540 921,539 913,537 906,536 900,536 895,537 891,539 888,542 886,546 885,551 885,557 886,564 888,572 891,579 895,585 900,590 906,594 913,597 921,599 930,600 940,600 951,599 963,597 974,594 984,590 993,585 1001,579 1008,574 1014,570 1019,567 1023,565 1026,564 1028,564 1029,565 1029,567 1028,570 1026,574 1023,577 1019,579 1014,580 1008,580 1001,579 993,577 984,576 974,576 965,577 957,577 950,577 944,577 939,577 935,577 932,577 930,577 929,577 929,577 930,577 932,577 935,577 939,577 944,577 950,577 957,577 965,577 972,577 978,577 983,577 987,577 990,577 992,577 993,577 993,577 992,577 990,577 987,577 983,577 978,577 972,577 967,577 963,577 960,577 958,577 957,577 957,577 958,577 960,577 963,577 967,577 971,577 976,578 982,580 989,583 997,587 1006,592 1016,598 1025,605 1033,613 1040,622 1046,632 1051,643 1055,655 1058,668 1060,680 1061,691 1061,701 1060,710 1058,718 1055,725 1051,731 1046,736 1040,740 1033,743 1025,745 1017,746 1010,746 1004,745 999,743 995,740 992,736 990,731 989,725 989,718 990,710 992,701 995,691 999,680 1004,670 1010,661 1017,653 1023,646 1028,640 1032,635 1035,631 1037,628 1038,626 1038,625 1037,625 1035,626 1032,628 1028,631 1023,635 1017,640 1012,646 1008,653 1005,661 1003,670 1002,678 1002,685 1003,691 1005,696 1008,700 1012,703 1017,705 1021,706 1024,706 1026,705 1027,703 1027,700 1026,696 1024,691 1021,685 1017,678 1014,670 1012,663 1011,657 1011,652 1012,648 1014,645 1017,643 1019,642 1020,642 1020,643 1019,645 1017,648 1016,652 1016,657 1017,663 1017,670 1016,676 1014,681 1011,685 1007,688 1002,690 996,691 989,691 981,690 972,688 962,685 951,681 941,676 932,670 924,663 917,655 911,646 906,636 902,625 899,613 897,600 896,586 896,571 897,555 899,540 902,526 906,513 911,501 917,490 924,480 932,471 941,463 949,456 956,450 962,445 967,441 971,438 974,436 976,435 977,435 977,436 976,438 974,441 971,445 967,450 962,456 956,463 949,471 941,480 934,490 928,501 923,513 919,526 916,540 914,553 913,565 913,576 914,586 916,595 919,603 923,610 928,616 934,621 941,625 947,628 952,630 956,631 959,631 961,630 962,628 962,625 961,621 959,616 956,610 952,603 947,595 941,586 936,576 932,565 929,553 927,542 926,532 926,523 927,515 929,508 932,502 936,497 941,493 945,490 948,488 950,487 951,487 951,488 950,490 948,493 945,497 941,502 938,508 936,515 935,523 935,532 936,542 938,551 941,559 943,566 944,572 944,577 943,581 941,584 940,586 940,587 941,587 941,586 941,584 941,581 941,577 941,572 941,566 941,559 941,551 941,544 941,538 941,533 941,529 941,526 941,524 941,523 941,523 941,524 941,526 941,529 941,533 941,538 941,544 941,549 941,553 941,556 941,558 941,559 941,559 941,558 941,556 941,553 941,549 941,545 940,540 938,534 935,527 931,519 926,512 920,506 913,501 905,497 896,494 886,492 875,491 863,491 850,492 838,494 827,497 817,501 808,506 800,512 793,517 787,521 782,524 778,526 775,527 773,527 772,526 772,524 773,521 775,517 778,514 782,512 787,511 793,511 800,512 808,514 817,515 827,515 838,515 848,515 857,515 865,515 872,515 878,515 883,515 887,515 890,515 892,515 893,515 893,515 892,515 890,515 887,515 883,515 878,515 872,515 865,515 857,515 848,515 840,515 833,516 827,518 822,521 818,525 815,530 813,536 812,543 812,551 813,560 815,568 818,575 822,581 827,586 833,590 840,593 848,595 857,596 867,596 878,595 890,593 903,590 917,586 932,581 948,575 963,568 977,562 990,557 1002,553 1013,550 1023,548 1032,547 1040,547 1047,548 1053,550 1058,553 1062,557 1065,562 1067,566 1068,569 1068,571 1067,572 1065,572 1062,571 1058,569 1053,566 1047,564 1040,563 1032,563 1023,564 1013,564 1002,564 990,564 977,564 963,564 950,564 938,564 927,564 917,564 908,564 900,564 893,564 887,564 882,564 878,564 875,564 873,564 872,564 872,564 873,564 875,564 878,564 882,564 887,564 893,564 900,564 908,564 917,564 927,564 938,564 950,564 961,564 971,564 980,564 988,564 995,564 1001,564 1006,564 1010,564 1013,564 1015,564 1016,564 1016,564 1015,564 1013,564 1010,564 1006,564 1001,564 995,564 988,564 980,564 971,564 961,564 952,564 944,564 937,564 931,564 926,564 922,564 919,564 917,564 916,564 916,564 917,564 919,564 922,564 926,564 931,564 937,564 944,564 952,564 959,564 965,564 970,564 974,564 977,564 979,564 980,564 980,564 979,564 977,564 974,564 970,564 965,564 959,564 954,564 950,564 947,564 945,564 944,564 944,564 945,564 947,564 950,564 954,564 957,564 959,564 960,564 960,564 959,564 957,564 955,564 952,563 948,561 943,558 937,554 930,549 922,543 913,536 903,528 892,519 880,511 867,504 853,498 840,493 828,489 817,486 807,484 798,483 790,483 783,484 777,486 772,489 768,493 765,498 763,504 762,511 762,517 763,522 765,526 768,529 772,531 777,532 783,532 790,531 798,529 807,526 817,522 828,517 840,511 851,506 861,502 870,499 878,497 885,496 891,496 896,497 900,499 903,502 905,506 906,511 906,515 905,518 903,520 900,521 896,521 891,520 885,518 878,515 870,511 861,508 851,506 842,505 834,505 827,506 821,508 816,511 812,513 809,514 807,514 806,513 806,511 807,510 809,510 812,511 816,511 821,511 827,511 834,511 842,511 849,511 857,512 866,514 876,516 885,517 893,517 900,516 906,516 911,516 915,516 918,516 920,516 921,516 921,516 920,516 918,516 915,516 911,516 906,516 900,516 893,516 885,516 878,516 872,516 867,516 863,516 860,516 858,516 857,516 857,516 858,516 860,516 863,516 867,516 872,516 878,516 883,516 887,516 890,516 892,516 893,516 893,516 892,516 890,516 887,516 883,516 880,516 878,516 877,516 877,516 878,516 880,516 882,516 885,517 889,519 894,522 900,526 907,531 915,537 924,542 932,546 939,549 945,551 950,552 954,552 957,551 959,549 960,546 960,542 959,539 957,537 954,536 950,536 945,537 939,539 932,540 926,540 921,539 917,539 914,539 912,539 911,539 911,539 912,539 914,539 917,539 921,539 926,539 930,539 933,539 935,539 936,539 936,539 935,539 933,539 930,539 928,539 927,539 927,539 928,539 929,539 931,540 934,542 938,545 943,549 949,554 956,560 964,567 973,575 981,584 988,592 994,599 999,605 1003,610 1006,614 1008,617 1009,619 1009,620 1008,620 1006,619 1003,617 999,614 994,610 988,605 981,599 975,592 970,584 966,577 963,571 961,566 960,562 960,559 961,557 963,556 966,556 970,557 975,559 979,562 982,566 984,571 985,577 985,584 984,590 982,595 979,599 977,602 976,604 976,605 977,605 977,604 977,602 977,599 977,595 977,590 977,584 976,577 974,569 971,560 967,550 962,539 956,527 949,514 941,502 932,491 922,481 911,472 899,464 886,457 872,451 857,446 841,442 826,439 812,437 799,436 787,436 776,437 766,439 757,442 749,446 742,451 736,457 731,464 727,472 724,481 722,491 721,502 721,512 722,521 724,529 727,536 731,542 736,547 742,551 749,554 757,556 766,557 776,557 787,556 799,554 812,551 826,547 839,542 851,536 862,529 872,521 881,512 889,504 896,497 902,491 907,486 911,482 914,479 916,477 917,476 917,476 916,477 914,479 911,482 907,486 902,491 896,497 889,504 881,510 872,515 862,519 851,522 839,524 826,525 814,525 803,524 793,522 784,519 776,515 769,510 763,506 758,503 754,501 751,500 749,500 748,501 748,503 749,506 751,508 754,509 758,509 763,508 769,507 776,507 784,507 793,507 803,507 814,507 826,507 838,508 849,510 859,513 868,516 876,518 883,519 889,519 894,518 898,516 901,515 903,515 904,516 904,516 903,516 901,516 898,516 894,516 889,516 883,516 876,516 868,516 859,516 849,516 838,516 826,515 815,515 805,515 796,515 788,515 781,515 775,515 770,515 766,515 763,515 761,515 760,515 760,515 761,515 763,515 766,515 770,515 775,515 781,515 788,515 796,515 805,515 815,515 824,515 832,515 839,515 845,515 850,515 854,515 857,515 859,515 860,515 860,515 859,515 857,515 854,515 850,515 845,515 839,515 832,515 824,515 817,515 811,515 806,515 802,515 799,515 797,515 796,515 796,515 797,515 799,515 802,515 806,515 811,515 817,515 822,515 826,515 829,515 831,515 832,515 832,515 831,515 829,515 826,515 822,515 819,515 817,515 816,515 816,515 817,515 819,515 821,515 824,516 828,518 833,521 839,525 846,530 854,536 863,543 873,551 884,560 896,570 909,581 923,593 938,604 954,614 971,623 989,631 1006,638 1022,644 1037,649 1051,653 1064,656 1076,658 1087,659 1097,659 1106,658 1114,656 1121,653 1127,649 1132,644 1136,638 1139,631 1141,623 1142,614 1142,604 1141,595 1139,587 1136,580 1132,574 1127,569 1121,565 1114,562 1106,560 1097,559 1087,559 1076,560 1064,562 1051,565 1037,569 1022,574 1006,580 991,587 977,595 964,602 952,608 941,613 931,617 922,620 914,622 907,623 901,623 896,622 892,620 889,617 887,613 886,608 886,602 887,597 889,593 892,590 896,588 901,587 907,587 914,588 922,590 931,593 941,597 952,601 964,604 977,606 991,607 1004,607 1016,606 1027,604 1037,601 1046,599 1054,598 1061,598 1067,599 1072,601 1076,602 1079,602 1081,601 1082,601 1082,601 1081,601 1079,601 1076,601 1072,601 1067,601 1061,601 1054,601 1046,601 1037,601 1027,601 1016,601 1004,601 993,601 983,601 974,601 966,601 959,601 953,601 948,601 944,601 941,601 939,601 938,601 938,601 939,601 941,601 944,601 948,601 953,601 959,601 966,601 974,601 983,601 993,601 1002,601 1010,601 1017,601 1023,601 1028,601 1032,601 1035,601 1037,601 1038,601 1038,601 1037,601 1035,601 1032,601 1028,601 1023,601 1017,601 1010,601 1002,601 995,601 989,601 984,601 980,601 977,601 975,601 974,601 974,601 975,601 977,601 980,601 984,601 989,601 995,601 1000,601 1004,601 1007,601 1009,601 1010,601 1010,601 1009,601 1007,601 1004,601 1000,601 996,601 991,600 985,598 978,595 970,591 961,586 951,580 942,573 934,565 927,558 921,552 916,547 912,543 909,540 907,538 906,537 906,537 907,538 909,540 912,543 916,547 921,552 927,558 934,563 942,567 949,570 955,572 960,573 964,573 967,572 969,570 970,567 970,563 969,559 967,556 964,554 960,553 955,553 949,554 944,556 940,559 937,561 935,562 934,562 934,561 935,559 937,558 940,558 944,559 948,559 951,558 953,556 954,555 954,555 953,556 951,556 948,556 946,556 943,555 939,553 934,550 928,546 921,541 913,535 904,528 894,520 883,511 871,503 858,496 844,490 831,485 819,481 808,478 798,476 789,475 781,475 774,476 768,478 763,481 759,485 756,490 754,496 753,503 753,509 754,514 756,518 759,521 763,523 768,524 774,524 781,523 789,521 798,518 808,514 819,509 831,504 842,500 852,497 861,495 869,494 876,494 882,495 887,497 891,500 894,504 896,507 897,509 897,510 896,510 894,509 891,507 887,504 882,502 876,501 869,501 861,502 852,504 842,505 833,505 825,504 818,504 812,504 807,504 803,504 800,504 798,504 797,504 797,504 798,504 800,504 803,504 807,504 812,504 818,504 825,504 833,504 840,504 846,504 851,504 855,504 858,504 860,504 861,504 861,504 860,504 858,504 855,504 851,504 846,504 840,504 834,504 829,505 825,507 822,510 820,512 819,513 819,513 820,512 822,510 825,509 829,509 834,510 840,510 846,510 853,511 861,513 870,516 880,520 891,525 903,531 916,538 930,546 945,555 961,565 978,576 996,588 1015,601 1033,615 1050,630 1066,646 1081,661 1095,675 1108,688 1120,700 1131,711 1141,721 1150,730 1158,738 1165,745 1171,751 1176,756 1180,760 1183,763 1185,765 1186,766 1186,766 1185,765 1183,763 1180,760 1176,756 1171,751 1165,745 1158,738 1150,730 1141,721 1131,711 1120,700 1108,688 1095,675 1081,661 1066,648 1050,636 1033,625 1015,615 998,606 982,598 967,591 953,585 940,580 928,576 917,573 907,571 898,570 890,570 883,571 877,573 872,576 868,580 865,585 863,591 862,598 862,606 863,615 865,625 868,636 872,648 877,659 883,669 890,678 898,686 907,693 917,699 928,704 940,708 953,711 967,713 982,714 998,714 1015,713 1031,711 1046,708 1060,704 1073,699 1085,693 1096,686 1106,678 1115,669 1123,659 1130,650 1136,642 1141,635 1145,629 1148,624 1150,620 1151,617 1151,615 1150,614 1148,614 1145,615 1141,617 1136,620 1130,624 1123,629 1115,635 1106,642 1096,650 1085,658 1073,665 1060,671 1046,676 1031,680 1015,683 1000,685 986,686 973,686 961,685 950,683 940,680 931,676 923,671 916,665 910,658 905,652 901,647 898,643 896,640 895,638 895,637 896,637 898,638 901,640 905,643 910,647 916,652 923,658 931,663 940,667 950,670 961,672 973,673 986,673 1000,672 1015,670 1029,667 1042,663 1054,658 1065,654 1075,651 1084,649 1092,648 1099,648 1105,649 1110,651 1114,654 1117,658 1119,661 1120,663 1120,664 1119,664 1117,663 1114,661 1110,658 1105,656 1099,655 1092,655 1084,656 1075,658 1065,659 1054,659 1042,658 1029,658 1015,658 1002,657 990,655 979,654 969,654 960,654 952,654 945,654 939,654 934,654 930,654 927,654 925,654 924,654 924,654 925,654 927,654 930,654 934,654 939,654 945,654 952,654 960,654 969,654 979,654 990,654 1002,654 1013,654 1023,653 1032,651 1040,648 1047,644 1053,639 1058,633 1062,626 1065,618 1067,609 1068,599 1068,588 1067,576 1065,563 1062,549 1058,534 1053,518 1047,503 1040,489 1032,476 1023,464 1013,453 1002,443 990,434 977,426 963,419 948,413 932,408 915,404 897,401 878,399 858,398 837,398 817,399 798,401 780,404 763,408 747,413 732,419 718,426 705,434 693,443 682,453 672,464 663,476 655,489 648,503 642,516 637,528 633,539 630,549 628,558 627,566 627,573 628,579 630,584 633,588 637,591 642,593 648,594 655,594 663,593 672,591 682,588 693,584 705,579 718,573 732,566 747,558 763,549 780,539 798,528 817,516 835,505 852,495 868,486 883,478 897,471 910,465 922,460 933,456 943,453 952,451 960,450 967,450 973,451 978,453 982,456 985,460 987,465 988,471 988,478 987,486 985,495 982,505 978,514 973,522 967,529 960,535 952,540 943,544 933,547 922,549 910,550 897,550 883,549 868,547 852,544 835,540 819,535 804,529 790,522 777,514 765,507 754,501 744,496 735,492 727,489 720,487 714,486 709,486 705,487 702,489 700,492 699,496 699,501 700,507 702,512 705,516 709,519 714,521 720,522 727,522 735,521 744,519 754,516 765,512 777,509 790,507 804,506 819,506 833,507 846,509 858,510 869,510 879,509 888,509 896,509 903,509 909,509 914,509 918,509 921,509 923,509 924,509 924,509 923,509 921,509 918,509 914,509 909,509 903,509 896,509 888,509 879,509 869,509 858,509 846,509 833,509 821,509 810,509 800,509 791,509 783,509 776,509 770,509 765,509 761,509 758,509 756,509 755,509 755,509 756,509 758,509 761,509 765,509 770,509 776,509 783,509 791,509 800,509 810,509 821,509 831,509 840,509 848,509 855,509 861,509 866,509 870,509 873,509 875,509 876,509 876,509 875,509 873,509 870,509 866,509 861,509 855,509 848,509 840,509 831,509 823,509 816,509 810,509 805,509 801,509 798,509 796,509 795,509 795,509 796,509 798,509 801,509 805,509 810,509 816,509 823,509 829,509 834,509 838,509 841,509 843,509 844,509 844,509 843,509 841,509 838,509 834,509 829,509 824,509 820,510 817,512 815,514 814,515 814,515 815,514 817,514 820,514 824,514 829,514 835,514 841,514 847,513 852,511 856,510 859,510 861,511 862,511 862,511 861,511 859,511 856,511 852,511 847,511 841,512 835,514 830,516 826,517 823,517 821,516 820,516 820,516 821,516 823,516 826,516 830,516 835,516 841,515 846,513 850,512 853,512 855,513 856,513 856,513 855,513 853,513 850,513 846,513 843,513 841,514 840,516 840,519 841,523 843,528 846,534 850,541 855,549 861,558 868,568 876,579 885,591 895,604 906,618 918,631 931,643 945,654 960,664 976,673 993,681 1009,688 1024,694 1038,699 1051,703 1063,706 1074,708 1084,709 1093,709 1101,708 1108,706 1114,703 1119,699 1123,694 1126,688 1128,681 1129,673 1129,664 1128,654 1126,643 1123,631 1119,620 1114,610 1108,601 1101,593 1093,586 1084,580 1074,575 1063,571 1051,568 1038,566 1024,565 1009,565 995,566 982,568 970,571 959,575 949,580 940,586 932,593 925,601 919,610 914,620 910,629 907,637 905,644 904,650 904,655 905,659 907,662 910,664 914,665 919,665 925,664 932,662 940,659 949,655 959,650 970,644 982,637 995,629 1007,622 1018,616 1028,611 1037,607 1045,604 1052,602 1058,601 1063,601 1067,602 1070,604 1072,607 1073,611 1073,616 1072,622 1070,627 1067,631 1063,634 1058,636 1052,637 1045,637 1037,636 1028,634 1018,631 1007,627 997,623 988,620 980,618 973,617 967,617 962,618 958,620 955,623 953,625 952,626 952,626 953,625 955,623 958,622 962,622 967,623 973,623 980,623 988,623 997,623 1005,623 1012,623 1018,623 1023,623 1027,623 1030,623 1032,623 1033,623 1033,623 1032,623 1030,623 1027,623 1023,623 1018,623 1012,623 1005,623 999,623 994,623 990,623 987,623 985,623 984,623 984,623 985,623 987,623 990,623 994,623 999,623 1004,623 1008,622 1011,620 1013,617 1014,613 1014,608 1013,602 1011,595 1008,587 1004,578 999,568 993,557 986,545 978,532 969,518 959,505 948,493 936,482 923,472 909,463 894,455 878,448 861,442 843,437 826,433 810,430 795,428 781,427 768,427 756,428 745,430 735,433 726,437 718,442 711,448 705,455 700,463 696,472 693,482 691,493 690,505 690,516 691,526 693,535 696,543 700,550 705,556 711,561 718,565 726,568 735,570 745,571 756,571 768,570 781,568 795,565 810,561 826,556 841,550 855,543 868,535 880,526 891,516 901,505 910,495 918,486 925,478 931,471 936,465 940,460 943,456 945,453 946,451 946,450 945,450 943,451 940,453 936,456 931,460 925,465 918,471 910,478 901,486 891,495 880,505 868,514 855,522 841,529 828,535 816,540 805,544 795,547 786,549 778,550 771,550 765,549 760,547 756,544 753,540 751,535 750,529 750,522 751,514 753,505 756,497 760,490 765,484 771,479 778,475 786,472 795,470 805,469 816,469 828,470 839,472 849,475 858,479 866,484 873,490 879,497 884,505 888,512 891,518 893,523 894,527 894,530 893,532 891,533 888,533 884,532 879,530 873,527 866,523 858,518 849,512 839,505 830,499 822,494 815,490 809,487 804,485 800,484 797,484 795,485 794,487 794,490 795,494 797,499 800,505 804,510 809,514 815,517 822,519 830,520 837,520 843,519 848,517 852,514 855,510 857,505 858,501 858,498 857,496 855,495 852,495 848,496 843,498 837,501 831,505 826,510 822,516 819,521 817,525 816,528 816,530 817,531 819,531 822,530 826,528 831,525 837,521 844,516 852,512 861,509 869,507 876,506 882,506 887,507 891,509 894,512 896,516 897,519 897,521 896,522 894,522 891,521 887,519 882,516 876,514 869,513 861,513 854,514 848,516 843,517 839,517 836,516 834,516 833,516 833,516 834,516 836,516 839,516 843,516 848,516 854,516 861,516 869,517 878,519 888,522 899,526 911,531 924,537 938,544 953,552 969,561 986,571 1002,582 1017,594 1031,605 1044,615 1056,624 1067,632 1077,639 1086,645 1094,650 1101,654 1107,657 1112,659 1116,660 1119,660 1121,659 1122,657 1122,654 1121,650 1119,645 1116,639 1112,632 1107,624 1101,615 1094,605 1086,596 1077,588 1067,581 1056,575 1044,570 1031,566 1017,563 1002,561 988,560 975,560 963,561 952,563 942,566 933,570 925,575 918,581 912,588 907,596 903,605 900,613 898,620 897,626 897,631 898,635 900,638 903,640 907,641 912,641 918,640 925,638 933,635 942,631 952,626 963,620 975,613 988,605 1000,598 1011,592 1021,587 1030,583 1038,580 1045,578 1051,577 1056,577 1060,578 1063,580 1065,583 1066,587 1066,592 1065,598 1063,605 1060,611 1056,616 1051,620 1045,623 1038,625 1030,626 1021,626 1011,625 1000,623 990,620 981,616 973,611 966,605 960,600 955,596 951,593 948,591 946,590 945,590 945,591 946,593 948,596 951,600 955,605 960,609 966,612 973,614 981,615 990,615 998,614 1005,612 1011,609 1016,605 1020,602 1023,600 1025,599 1026,599 1026,600 1025,602 1023,605 1020,607 1016,608 1011,608 1005,607 998,605 990,602 981,598 971,593 960,587 948,580 935,572 921,563 908,553 896,542 885,532 875,523 866,515 858,508 851,502 845,497 840,493 836,490 833,488 831,487 830,487 830,488 831,490 833,493 836,497 840,502 845,508 851,515 858,523 866,532 875,540 885,547 896,553 908,558 921,562 933,565 944,567 954,568 963,568 971,567 978,565 984,562 989,558 993,553 996,547 998,540 999,534 999,529 998,525 996,522 993,520 989,519 984,519 978,520 971,522 963,525 954,529 944,534 933,538 921,541 910,543 900,544 891,544 883,543 876,541 870,538 865,536 861,535 858,535 856,536 855,538 855,539 856,539 858,538 861,538 865,538 870,538 876,538 883,538 891,538 900,538 910,538 921,538 931,539 940,539 948,539 955,539 961,539 966,539 970,539 973,539 975,539 976,539 976,539 975,539 973,539 970,539 966,539 961,539 955,539 948,539 940,539 931,539 923,539 916,539 910,539 905,539 901,539 898,539 896,539 895,539 895,539 896,539 898,539 901,539 905,539 910,539 916,539 923,539 929,539 934,539 938,539 941,539 943,539 944,539 944,539 943,539 941,539 938,539 934,539 929,539 925,539 922,540 920,542 919,543 919,543 920,542 922,542 925,542 929,542 934,542 938,542 941,541 943,539 944,536 944,532 943,527 941,521 938,514 934,506 929,499 923,493 916,488 908,484 899,481 889,479 878,478 866,478 853,479 839,481 826,484 814,488 803,493 793,499 784,504 776,508 769,511 763,513 758,514 754,514 751,513 749,511 748,508 748,504 749,501 751,499 754,498 758,498 763,499 769,501 776,504 784,506 793,507 803,507 814,506 826,504 838,503 849,503 859,504 868,504 876,504 883,504 889,504 894,504 898,504 901,504 903,504 904,504 904,504 903,504 901,504 898,504 894,504 889,504 883,504 876,504 868,504 859,504 849,504 838,504 826,505 815,507 805,510 796,512 788,513 781,513 775,512 770,510 766,509 763,509 761,510 760,510 760,510 761,510 763,510 766,510 770,510 775,510 781,510 788,510 796,510 805,510 815,510 824,510 832,510 839,510 845,510 850,510 854,510 857,510 859,510 860,510 860,510 859,510 857,510 854,510 850,510 845,510 839,510 832,510 824,510 817,510 811,510 806,510 802,510 799,510 797,510 796,510 796,510 797,510 799,510 802,510 806,510 811,510 817,510 822,510 826,510 829,510 831,510 832,510 832,510 831,510 829,510 826,510 822,510 819,510 817,510 816,510 816,510 817,510 819,510 821,510 824,509 828,509 833,509 839,509 845,509 852,510 860,512 869,515 879,519 890,524 902,530 913,535 923,539 932,542 940,544 947,545 953,545 958,544 962,542 965,539 967,535 968,532 968,530 967,529 965,529 962,530 958,532 953,535 947,537 940,538 932,538 923,537 913,535 904,534 896,534 889,535 883,535 878,535 874,535 871,535 869,535 868,535 868,535 869,535 871,535 874,535 878,535 883,535 889,535 896,535 904,535 911,535 917,535 922,535 926,535 929,535 931,535 932,535 932,535 931,535 929,535 926,535 922,535 917,535 911,535 906,535 902,535 899,535 897,535 896,535 896,535 897,535 899,535 902,535 906,535 909,535 911,535 912,535 912,535 911,535 909,535 908,535 908,536 909,538 911,541 914,545 918,550 923,556 929,563 936,571 944,580 953,590 963,599 974,607 984,614 993,620 1001,625 1008,629 1014,632 1019,634 1023,635 1026,635 1028,634 1029,632 1029,629 1028,625 1026,620 1023,614 1019,607 1014,599 1008,591 1001,584 993,578 984,573 976,569 969,566 963,564 958,563 954,563 951,564 949,566 948,569 948,573 949,578 951,584 954,591 958,597 963,602 969,606 976,609 984,611 991,612 997,612 1002,611 1006,609 1009,606 1011,602 1012,597 1012,591 1011,586 1009,582 1006,579 1002,577 997,576 991,576 984,577 978,579 973,582 969,586 966,591 964,595 963,598 963,600 964,601 966,601 969,600 973,598 978,595 984,591 989,586 993,580 996,573 998,565 999,556 999,546 998,535 996,523 993,510 989,498 984,487 978,477 971,468 963,460 954,453 944,447 933,442 921,438 908,435 894,433 879,432 863,432 846,433 829,435 813,438 798,442 784,447 771,453 759,460 748,468 738,477 729,487 721,498 714,508 708,517 703,525 699,532 696,538 694,543 693,547 693,550 694,552 696,553 699,553 703,552 708,550 714,547 721,543 729,538 738,532 748,525 759,517 771,508 784,500 798,493 813,487 829,482 844,478 858,475 871,473 883,472 894,472 904,473 913,475 921,478 928,482 934,487 939,493 943,500 946,506 948,511 949,515 949,518 948,520 946,521 943,521 939,520 934,518 928,515 921,511 913,506 904,502 894,499 883,497 871,496 858,496 844,497 829,499 815,502 802,506 790,509 779,511 769,512 760,512 752,511 745,509 739,506 734,504 730,503 727,503 725,504 724,506 724,507 725,507 727,506 730,506 734,506 739,506 745,506 752,506 760,506 769,506 779,506 790,506 802,506 815,506 829,506 844,507 860,509 877,512 895,516 914,521 934,527 955,534 977,542 1000,551 1022,561 1043,572 1063,584 1082,597 1100,611 1117,626 1133,642 1148,659 1162,675 1175,690 1187,704 1198,717 1208,729 1217,740 1225,750 1232,759 1238,767 1243,774 1247,780 1250,785 1252,789 1253,792 1253,794 1252,795 1250,795 1247,794 1243,792 1238,789 1232,785 1225,780 1217,774 1208,767 1198,759 1187,750 1175,740 1162,729 1148,717 1133,704 1117,690 1100,675 1082,661 1063,648 1043,636 1022,625 1002,615 983,606 965,598 948,591 932,585 917,580 903,576 890,573 878,571 867,570 857,570 848,571 840,573 833,576 827,580 822,585 818,591 815,598 813,606 812,615 812,625 813,636 815,648 818,661 822,673 827,684 833,694 840,703 848,711 857,718 867,724 878,729 890,733 903,736 917,738 932,739 948,739 965,738 983,736 1002,733 1020,729 1037,724 1053,718 1068,711 1082,703 1095,694 1107,684 1118,673 1128,663 1137,654 1145,646 1152,639 1158,633 1163,628 1167,624 1170,621 1172,619 1173,618 1173,618 1172,619 1170,621 1167,624 1163,628 1158,633 1152,639 1145,646 1137,654 1128,663 1118,671 1107,678 1095,684 1082,689 1068,693 1053,696 1037,698 1020,699 1004,699 989,698 975,696 962,693 950,689 939,684 929,678 920,671 912,665 905,660 899,656 894,653 890,651 887,650 885,650 884,651 884,653 885,656 887,660 890,665 894,669 899,672 905,674 912,675 920,675 929,674 939,672 950,669 962,666 975,664 989,663 1004,663 1018,664 1031,666 1043,667 1054,667 1064,666 1073,666 1081,666 1088,666 1094,666 1099,666 1103,666 1106,666 1108,666 1109,666 1109,666 1108,666 1106,666 1103,666 1099,666 1094,666 1088,666 1081,666 1073,666 1064,666 1054,666 1043,666 1031,666 1018,666 1006,666 995,666 985,666 976,666 968,666 961,666 955,666 950,666 946,666 943,666 941,666 940,666 940,666 941,666 943,666 946,666 950,666 955,666 961,666 968,666 976,666 985,666 995,666 1006,666 1016,666 1025,665 1033,663 1040,660 1046,656 1051,651 1055,645 1058,638 1060,630 1061,621 1061,611 1060,600 1058,588 1055,575 1051,561 1046,546 1040,532 1033,519 1025,507 1016,496 1006,486 995,477 983,469 970,462 956,456 941,451 925,447 910,444 896,442 883,441 871,441 860,442 850,444 841,447 833,451 826,456 820,462 815,469 811,477 808,486 806,496 805,507 805,519 806,532 808,544 811,555 815,565 820,574 826,582 833,589 841,595 850,600 860,604 871,607 883,609 896,610 910,610 923,609 935,607 946,604 956,600 965,595 973,589 980,582 986,574 991,565 995,555 998,544 1000,534 1001,525 1001,517 1000,510 998,504 995,499 991,495 986,492 980,490 973,489 965,489 956,490 946,492 935,495 923,499 912,504 902,510 893,517 885,525 878,534 872,542 867,549 863,555 860,560 858,564 857,567 857,569 858,570 860,570 863,569 867,567 872,564 878,560 885,555 893,549 902,542 912,536 921,531 929,527 936,524 942,522 947,521 951,521 954,522 956,524 957,527 957,531 956,536 954,540 951,543 947,545 942,546 936,546 929,545 921,543 914,540 908,538 903,537 899,537 896,538 894,538 893,538 893,538 894,538 896,538 899,538 903,538 908,538 914,538 919,538 923,538 926,538 928,538 929,538 929,538 928,538 926,538 923,538 919,538 916,538 914,538 913,538 913,538 914,538 916,538" fill="none" stroke="red" stroke-width="18.81" />
  <circle cx="917" cy="538" r="37.62" fill="blue" />
</svg>