<svg width="7" height="18" xmlns="http://www.w3.org/2000/svg">
  <circle cx="0" cy="1" r="1" fill="black" />
  <circle cx="2" cy="8" r="1" fill="black" />
  <circle cx="5" cy="15" r="1" fill="black" />
  <circle cx="4" cy="14" r="1" fill="black" />
  <circle cx="4" cy="13" r="1" fill="black" />
  <circle cx="0" cy="3" r="1" fill="black" />
  <circle cx="0" cy="0" r="1" fill="black" />
  <circle cx="3" cy="11" r="1" fill="black" />
  <circle cx="1" cy="5" r="1" fill="black" />
  <circle cx="6" cy="16" r="1" fill="black" />
  <polyline points="1,0 0,0 0,1 1,3 2,6 2,8 3,11 4,14 4,16 4,17 4,17 4,16 4,14 4,13 5,13 5,14 5,15 6,16 6,16 5,15 3,13 1,10 0,6 0,3 1,1 1,0 1,0 1,1 1,3" fill="none" stroke="red" stroke-width="1" />
  <circle cx="1" cy="5" r="2" fill="blue" />
</svg>