<svg width="1000" height="1000" xmlns="http://www.w3.org/2000/svg">
  <rect x="200" y="200" width="600" height="600" fill="white" stroke="gray" stroke-width="5" />
  <circle cx="622.8" cy="370.2" r="7" fill="black" />
  <circle cx="452.5" cy="451.7" r="7" fill="black" />
  <circle cx="395.3" cy="709.0" r="7" fill="black" />
  <circle cx="346.1" cy="304.6" r="7" fill="black" />
  <circle cx="233.6" cy="356.3" r="7" fill="black" />
  <circle cx="670.8" cy="293.1" r="7" fill="black" />
  <circle cx="590.5" cy="494.2" r="7" fill="black" />
  <circle cx="277.8" cy="575.3" r="7" fill="black" />
  <circle cx="646.6" cy="232.7" r="7" fill="black" />
  <circle cx="356.1" cy="309.2" r="7" fill="black" />
  <circle cx="213.3" cy="544.5" r="7" fill="black" />
  <circle cx="473.1" cy="484.2" r="7" fill="black" />
  <circle cx="241.8" cy="574.3" r="7" fill="black" />
  <circle cx="727.5" cy="699.8" r="7" fill="black" />
  <circle cx="244.1" cy="384.1" r="7" fill="black" />
  <circle cx="404.7" cy="226.4" r="7" fill="black" />
  <circle cx="367.9" cy="514.6" r="7" fill="black" />
  <circle cx="216.6" cy="675.2" r="7" fill="black" />
  <circle cx="790.7" cy="440.4" r="7" fill="black" />
  <circle cx="428.4" cy="706.2" r="7" fill="black" />
  <circle cx="279.9" cy="261.0" r="7" fill="black" />
  <circle cx="692.3" cy="447.1" r="7" fill="black" />
  <circle cx="305.8" cy="352.2" r="7" fill="black" />
  <circle cx="786.1" cy="598.5" r="7" fill="black" />
  <circle cx="621.8" cy="576.3" r="7" fill="black" />
  <circle cx="644.3" cy="202.7" r="7" fill="black" />
  <circle cx="566.9" cy="598.5" r="7" fill="black" />
  <circle cx="710.8" cy="796.9" r="7" fill="black" />
  <circle cx="609.7" cy="525.1" r="7" fill="black" />
  <circle cx="320.9" cy="668.4" r="7" fill="black" />
  <circle cx="786.4" cy="619.8" r="7" fill="black" />
  <circle cx="533.8" cy="256.5" r="7" fill="black" />
  <circle cx="486.0" cy="539.7" r="7" fill="black" />
  <circle cx="231.2" cy="517.2" r="7" fill="black" />
  <circle cx="207.5" cy="755.5" r="7" fill="black" />
  <circle cx="382.1" cy="468.3" r="7" fill="black" />
  <circle cx="545.0" cy="552.1" r="7" fill="black" />
  <circle cx="202.5" cy="580.5" r="7" fill="black" />
  <circle cx="265.4" cy="559.0" r="7" fill="black" />
  <circle cx="779.4" cy="375.5" r="7" fill="black" />
  <circle cx="332.8" cy="631.5" r="7" fill="black" />
  <circle cx="398.4" cy="407.5" r="7" fill="black" />
  <circle cx="716.9" cy="259.9" r="7" fill="black" />
  <circle cx="706.8" cy="460.7" r="7" fill="black" />
  <circle cx="421.9" cy="688.4" r="7" fill="black" />
  <circle cx="619.2" cy="622.5" r="7" fill="black" />
  <circle cx="732.2" cy="239.0" r="7" fill="black" />
  <circle cx="305.9" cy="238.8" r="7" fill="black" />
  <circle cx="692.1" cy="521.4" r="7" fill="black" />
  <circle cx="421.6" cy="711.0" r="7" fill="black" />
  <circle cx="667.8" cy="456.2" r="7" fill="black" />
  <circle cx="448.2" cy="240.3" r="7" fill="black" />
  <circle cx="693.0" cy="593.8" r="7" fill="black" />
  <circle cx="650.1" cy="482.4" r="7" fill="black" />
  <circle cx="525.7" cy="748.0" r="7" fill="black" />
  <circle cx="397.5" cy="355.2" r="7" fill="black" />
  <circle cx="489.2" cy="419.2" r="7" fill="black" />
  <circle cx="299.5" cy="797.5" r="7" fill="black" />
  <circle cx="680.6" cy="770.4" r="7" fill="black" />
  <circle cx="313.8" cy="245.7" r="7" fill="black" />
  <circle cx="755.3" cy="590.7" r="7" fill="black" />
  <circle cx="405.6" cy="745.0" r="7" fill="black" />
  <circle cx="267.7" cy="202.8" r="7" fill="black" />
  <circle cx="769.1" cy="407.2" r="7" fill="black" />
  <circle cx="286.5" cy="362.7" r="7" fill="black" />
  <circle cx="202.8" cy="477.1" r="7" fill="black" />
  <circle cx="494.2" cy="703.2" r="7" fill="black" />
  <circle cx="407.7" cy="207.9" r="7" fill="black" />
  <circle cx="524.4" cy="231.7" r="7" fill="black" />
  <circle cx="643.6" cy="499.9" r="7" fill="black" />
  <circle cx="289.6" cy="678.7" r="7" fill="black" />
  <circle cx="698.1" cy="530.8" r="7" fill="black" />
  <circle cx="706.5" cy="657.3" r="7" fill="black" />
  <circle cx="201.3" cy="421.4" r="7" fill="black" />
  <circle cx="474.9" cy="633.6" r="7" fill="black" />
  <circle cx="408.9" cy="654.6" r="7" fill="black" />
  <circle cx="751.4" cy="659.1" r="7" fill="black" />
  <circle cx="237.4" cy="647.2" r="7" fill="black" />
  <circle cx="434.3" cy="410.8" r="7" fill="black" />
  <circle cx="596.1" cy="469.5" r="7" fill="black" />
  <circle cx="714.8" cy="248.4" r="7" fill="black" />
  <circle cx="486.4" cy="355.4" r="7" fill="black" />
  <circle cx="245.6" cy="304.7" r="7" fill="black" />
  <circle cx="735.0" cy="673.8" r="7" fill="black" />
  <circle cx="479.8" cy="416.3" r="7" fill="black" />
  <circle cx="661.1" cy="235.6" r="7" fill="black" />
  <circle cx="731.4" cy="516.6" r="7" fill="black" />
  <circle cx="304.3" cy="748.6" r="7" fill="black" />
  <circle cx="556.3" cy="235.7" r="7" fill="black" />
  <circle cx="582.8" cy="270.5" r="7" fill="black" />
  <circle cx="368.1" cy="333.1" r="7" fill="black" />
  <circle cx="750.4" cy="347.3" r="7" fill="black" />
  <circle cx="426.8" cy="317.9" r="7" fill="black" />
  <circle cx="653.7" cy="385.4" r="7" fill="black" />
  <circle cx="780.6" cy="716.9" r="7" fill="black" />
  <circle cx="378.4" cy="356.1" r="7" fill="black" />
  <circle cx="310.1" cy="339.4" r="7" fill="black" />
  <circle cx="309.7" cy="381.8" r="7" fill="black" />
  <circle cx="680.9" cy="540.6" r="7" fill="black" />
  <circle cx="544.4" cy="600.8" r="7" fill="black" />
  <polyline points="492.5,499.4 492.4,499.3 492.1,499.0 491.6,498.5 491.0,497.9 490.3,497.2 489.4,496.3 488.3,495.2 487.3,494.2 486.3,493.1 485.2,492.1 484.2,491.0 483.1,490.0 482.1,488.9 481.0,487.9 480.0,486.9 478.9,485.8 477.9,484.8 476.8,483.9 475.8,483.1 474.8,482.5 473.7,482.1 472.8,481.8 472.1,481.6 471.5,481.6 471.0,481.8 470.7,482.1 470.6,482.5 470.6,483.1 470.7,483.9 471.0,484.5 471.5,484.9 472.1,485.2 472.8,485.4 473.4,485.4 473.9,485.2 474.2,484.9 474.3,484.5 474.3,484.2 474.2,484.0 473.9,484.0 473.4,484.2 473.1,484.2 472.7,484.0 472.1,483.7 471.3,483.3 470.4,482.7 469.4,481.9 468.3,481.0 467.3,480.0 466.2,478.9 465.2,477.9 464.1,476.8 463.1,475.8 462.1,474.8 461.0,473.7 460.0,472.7 458.9,471.6 457.9,470.6 456.8,469.5 455.8,468.5 454.7,467.4 453.7,466.4 452.6,465.3 451.7,464.3 451.0,463.2 450.4,462.2 450.0,461.2 449.7,460.1 449.5,459.1 449.5,458.0 449.7,457.0 450.0,455.9 450.4,454.9 451.0,453.8 451.7,452.8 452.5,451.7 453.1,450.7 453.5,449.7 453.8,448.6 454.0,447.6 454.0,446.5 453.8,445.5 453.5,444.4 453.1,443.4 452.5,442.3 451.7,441.3 450.8,440.2 449.8,439.2 448.8,438.1 447.7,437.1 446.7,436.1 445.6,435.0 444.6,434.0 443.5,432.9 442.5,431.9 441.4,430.8 440.4,429.8 439.3,428.7 438.3,427.7 437.3,426.6 436.2,425.6 435.2,424.6 434.3,423.5 433.5,422.5 432.9,421.4 432.5,420.4 432.2,419.3 432.0,418.3 432.0,417.2 432.2,416.2 432.5,415.1 432.9,414.1 433.5,413.0 434.3,412.0 434.9,411.0 435.3,410.1 435.6,409.3 435.8,408.7 435.8,408.3 435.6,408.0 435.3,407.8 434.9,407.8 434.3,408.0 433.8,408.3 433.5,408.7 433.4,409.3 433.4,410.1 433.5,410.8 433.8,411.4 434.3,411.9 434.6,412.2 434.7,412.3 434.7,412.3 434.6,412.2 434.3,411.9 434.1,411.4 434.1,410.8 434.3,410.4 434.3,410.1 434.3,409.9 434.3,409.9 434.3,410.1 434.3,410.4 434.3,410.8 434.1,411.1 433.8,411.3 433.4,411.3 432.8,411.1 432.0,410.8 431.1,410.4 430.1,409.8 429.0,409.0 428.0,408.1 426.9,407.4 425.9,406.8 424.9,406.3 423.8,406.0 422.8,405.9 421.7,405.9 420.7,406.0 419.6,406.3 418.6,406.8 417.5,407.4 416.5,407.8 415.4,408.1 414.4,408.3 413.3,408.3 412.3,408.1 411.3,407.8 410.2,407.5 409.2,407.4 408.1,407.4 407.1,407.5 406.0,407.5 405.0,407.5 403.9,407.5 402.9,407.5 401.8,407.5 400.8,407.5 399.8,407.5 398.7,407.5 397.8,407.5 397.1,407.5 396.5,407.5 396.0,407.5 395.7,407.5 395.6,407.5 395.6,407.5 395.7,407.5 396.0,407.5 396.5,407.5 397.1,407.5 397.8,407.5 398.4,407.5 398.9,407.4 399.2,407.1 399.3,406.6 399.3,406.0 399.2,405.3 398.9,404.4 398.4,403.3 397.8,402.3 397.4,401.2 397.1,400.2 396.9,399.2 396.9,398.1 397.1,397.1 397.4,396.0 397.5,395.0 397.5,393.9 397.5,392.9 397.5,391.8 397.5,390.8 397.5,389.7 397.5,388.7 397.5,387.6 397.5,386.6 397.5,385.6 397.5,384.5 397.5,383.5 397.5,382.4 397.5,381.4 397.5,380.3 397.5,379.3 397.5,378.2 397.5,377.2 397.5,376.1 397.5,375.1 397.5,374.1 397.5,373.0 397.5,372.0 397.5,370.9 397.5,369.9 397.5,368.8 397.5,367.8 397.5,366.7 397.5,365.7 397.5,364.6 397.5,363.6 397.5,362.5 397.5,361.5 397.5,360.5 397.5,359.4 397.5,358.4 397.5,357.3 397.5,356.3 397.5,355.2 397.4,354.3 397.1,353.6 396.6,353.0 396.0,352.5 395.3,352.2 394.4,352.1 393.3,352.1 392.3,352.2 391.2,352.5 390.2,353.0 389.1,353.6 388.1,354.3 387.1,355.2 386.0,356.1 385.0,356.9 383.9,357.5 382.9,357.9 381.8,358.2 380.8,358.4 379.7,358.4 378.7,358.2 377.8,357.9 377.0,357.5 376.4,356.9 376.0,356.1 375.7,355.5 375.5,355.1 375.5,354.8 375.7,354.6 376.0,354.6 376.4,354.8 377.0,355.1 377.8,355.5 378.4,356.1 378.8,356.6 379.1,356.9 379.3,357.0 379.3,357.0 379.1,356.9 378.8,356.6 378.4,356.1 377.8,355.5 377.0,354.8 376.1,353.9 375.1,352.8 374.1,351.8 373.0,350.7 372.0,349.7 370.9,348.7 369.9,347.6 368.8,346.6 367.9,345.5 367.2,344.5 366.6,343.4 366.1,342.4 365.8,341.3 365.7,340.3 365.7,339.2 365.8,338.2 366.1,337.2 366.6,336.1 367.2,335.1 367.9,334.0 368.5,333.1 369.0,332.4 369.3,331.8 369.4,331.3 369.4,331.0 369.3,330.9 369.0,330.9 368.5,331.0 368.1,331.3 367.8,331.8 367.6,332.4 367.6,333.1 367.8,333.7 368.1,334.2 368.2,334.5 368.2,334.6 368.1,334.6 368.1,334.5 368.1,334.2 368.1,333.7 368.1,333.1 367.9,332.4 367.6,331.5 367.2,330.4 366.6,329.4 365.8,328.3 364.9,327.3 363.9,326.2 362.8,325.2 361.8,324.2 360.8,323.1 359.7,322.1 358.7,321.0 357.6,320.0 356.6,318.9 355.7,317.9 354.9,316.8 354.3,315.8 353.9,314.7 353.6,313.7 353.4,312.6 353.4,311.6 353.6,310.6 353.9,309.5 354.3,308.6 354.9,307.9 355.7,307.3 356.3,306.8 356.7,306.5 357.0,306.4 357.2,306.4 357.2,306.5 357.0,306.8 356.7,307.3 356.3,307.9 356.0,308.6 355.8,309.2 355.8,309.7 356.0,310.0 356.1,310.1 356.1,310.1 356.1,310.0 356.1,309.7 356.1,309.2 356.0,308.6 355.7,307.9 355.2,307.0 354.6,305.9 353.9,304.9 353.0,304.0 351.9,303.2 350.9,302.6 349.9,302.2 348.8,301.9 347.8,301.7 346.7,301.7 345.8,301.9 345.1,302.2 344.5,302.6 344.0,303.2 343.7,304.0 343.6,304.6 343.6,305.0 343.7,305.3 344.0,305.5 344.5,305.5 345.1,305.3 345.8,305.0 346.4,304.6 346.9,304.3 347.2,304.1 347.3,304.1 347.3,304.3 347.2,304.6 346.9,304.7 346.4,304.7 346.1,304.6 345.7,304.6 345.1,304.7 344.3,305.0 343.4,305.5 342.4,306.1 341.3,306.8 340.3,307.7 339.2,308.8 338.2,309.8 337.2,310.9 336.1,311.9 335.1,312.9 334.0,314.0 333.0,315.0 331.9,316.1 330.9,317.1 329.8,318.2 328.8,319.2 327.7,320.3 326.7,321.3 325.6,322.4 324.6,323.4 323.6,324.5 322.5,325.5 321.5,326.5 320.4,327.6 319.4,328.6 318.3,329.7 317.3,330.7 316.2,331.8 315.2,332.8 314.1,333.9 313.1,334.9 312.1,336.0 311.0,337.0 310.1,338.0 309.4,339.1 308.8,340.0 308.3,340.7 308.0,341.3 307.9,341.8 307.9,342.1 308.0,342.2 308.3,342.2 308.8,342.1 309.4,341.8 310.1,341.3 310.7,340.7 311.2,340.0 311.5,339.4 311.6,338.9 311.6,338.6 311.5,338.5 311.2,338.5 310.7,338.6 310.1,338.9 309.7,339.4 309.4,339.7 309.2,339.8 309.2,339.8 309.4,339.7 309.7,339.4 310.1,339.2 310.4,339.2 310.6,339.4 310.6,339.4 310.4,339.4 310.1,339.4 309.7,339.5 309.1,339.8 308.3,340.3 307.4,340.9 306.4,341.6 305.5,342.5 304.7,343.6 304.1,344.6 303.7,345.7 303.4,346.7 303.2,347.8 303.2,348.8 303.4,349.9 303.7,350.9 304.1,351.9 304.7,352.8 305.5,353.6 306.1,354.2 306.5,354.6 306.8,354.9 307.0,355.1 307.0,355.1 306.8,354.9 306.5,354.6 306.1,354.2 305.8,353.6 305.6,352.8 305.6,352.2 305.8,351.8 305.8,351.5 305.8,351.3 305.8,351.3 305.8,351.5 305.8,351.8 305.8,352.2 305.6,352.8 305.3,353.6 304.9,354.5 304.3,355.5 303.5,356.6 302.6,357.6 301.6,358.7 300.5,359.7 299.5,360.8 298.5,361.8 297.4,362.7 296.4,363.4 295.3,364.0 294.3,364.5 293.2,364.8 292.2,364.9 291.1,364.9 290.1,364.8 289.0,364.5 288.0,364.0 287.0,363.4 286.1,362.7 285.3,362.1 284.7,361.7 284.3,361.4 284.0,361.2 283.8,361.2 283.8,361.4 284.0,361.7 284.3,362.1 284.7,362.7 285.3,363.1 286.1,363.4 286.7,363.6 287.1,363.6 287.4,363.4 287.5,363.1 287.5,362.7 287.4,362.4 287.1,362.3 286.7,362.3 286.4,362.4 286.2,362.7 286.2,362.8 286.4,362.8 286.5,362.7 286.8,362.7 287.3,362.8 287.8,363.1 288.6,363.6 289.5,364.2 290.5,364.9 291.6,365.8 292.6,366.9 293.7,367.9 294.7,369.0 295.8,370.0 296.8,371.1 297.9,372.1 298.9,373.2 300.0,374.2 301.0,375.2 302.0,376.3 303.1,377.3 304.1,378.4 305.2,379.4 306.2,380.5 307.3,381.5 308.3,382.4 309.4,383.2 310.3,383.8 311.0,384.2 311.6,384.5 312.1,384.7 312.4,384.7 312.5,384.5 312.5,384.2 312.4,383.8 312.1,383.2 311.6,382.4 311.0,381.8 310.3,381.4 309.7,381.1 309.2,380.9 308.9,380.9 308.8,381.1 308.8,381.4 308.9,381.8 309.2,382.1 309.7,382.3 310.0,382.3 310.1,382.1 310.1,381.8 310.0,381.7 309.7,381.7 309.5,381.8 309.5,381.8 309.7,381.8 309.7,382.0 309.5,382.3 309.2,382.7 308.8,383.3 308.2,384.1 307.4,384.7 306.5,385.1 305.5,385.4 304.4,385.6 303.4,385.6 302.3,385.4 301.3,385.1 300.2,384.7 299.2,384.1 298.2,383.6 297.1,383.3 296.1,383.2 295.0,383.2 294.0,383.3 292.9,383.6 291.9,384.1 290.8,384.4 289.8,384.5 288.7,384.5 287.7,384.4 286.7,384.1 285.6,383.9 284.6,383.9 283.5,384.1 282.5,384.1 281.4,384.1 280.4,384.1 279.3,384.1 278.3,384.1 277.2,384.1 276.2,384.1 275.1,384.1 274.1,384.1 273.1,384.1 272.0,384.1 271.0,384.1 269.9,384.1 268.9,384.1 267.8,384.1 266.8,384.1 265.7,384.1 264.7,384.1 263.6,384.1 262.6,384.1 261.6,384.1 260.5,384.1 259.5,384.1 258.4,384.1 257.4,384.1 256.3,384.1 255.3,384.1 254.2,384.1 253.2,384.1 252.1,384.1 251.1,384.1 250.0,384.1 249.0,384.1 248.0,384.1 246.9,384.1 245.9,384.1 244.8,384.1 243.9,384.1 243.2,384.1 242.6,384.1 242.1,384.1 241.8,384.1 241.7,384.1 241.7,384.1 241.8,384.1 242.1,384.1 242.6,384.1 243.2,384.1 243.9,384.1 244.5,384.1 245.0,384.1 245.3,384.1 245.4,384.1 245.4,384.1 245.3,384.1 245.0,384.1 244.5,384.1 244.1,384.1 243.5,383.9 242.7,383.6 241.8,383.2 240.8,382.6 239.7,381.8 238.7,380.9 237.6,379.9 236.6,378.8 235.6,377.8 234.5,376.7 233.6,375.7 232.9,374.7 232.3,373.6 231.8,372.6 231.5,371.5 231.4,370.5 231.4,369.4 231.5,368.4 231.8,367.3 232.3,366.3 232.9,365.2 233.6,364.2 234.2,363.1 234.7,362.1 235.0,361.1 235.1,360.0 235.1,359.0 235.0,357.9 234.7,356.9 234.2,356.0 233.6,355.2 233.2,354.6 232.9,354.2 232.7,353.9 232.7,353.7 232.9,353.7 233.2,353.9 233.6,354.2 233.9,354.6 234.1,355.2 234.1,356.0 233.9,356.6 233.6,357.0 233.5,357.3 233.5,357.5 233.6,357.5 233.6,357.3 233.6,357.0 233.6,356.6 233.6,356.3 233.8,355.8 234.1,355.2 234.5,354.5 235.1,353.6 235.9,352.5 236.8,351.5 237.8,350.4 238.8,349.4 239.9,348.4 240.9,347.3 242.0,346.3 243.0,345.2 244.1,344.2 245.1,343.1 246.0,342.1 246.8,341.0 247.4,340.0 247.8,338.9 248.1,337.9 248.3,336.9 248.3,335.8 248.1,334.8 247.8,333.7 247.4,332.7 246.8,331.6 246.0,330.6 245.4,329.5 245.0,328.5 244.7,327.4 244.5,326.4 244.5,325.3 244.7,324.3 245.0,323.3 245.4,322.2 245.7,321.2 245.9,320.1 245.9,319.1 245.7,318.0 245.6,317.0 245.6,315.9 245.6,314.9 245.6,313.8 245.6,312.8 245.6,311.8 245.6,310.7 245.6,309.7 245.6,308.6 245.6,307.6 245.6,306.5 245.6,305.5 245.6,304.6 245.6,303.8 245.6,303.2 245.6,302.8 245.6,302.5 245.6,302.3 245.6,302.3 245.6,302.5 245.6,302.8 245.6,303.2 245.6,303.8 245.6,304.6 245.6,305.2 245.6,305.6 245.6,305.9 245.6,306.1 245.6,306.1 245.6,305.9 245.6,305.6 245.6,305.2 245.6,304.7 245.7,304.1 246.0,303.4 246.5,302.5 247.1,301.4 247.8,300.4 248.7,299.4 249.8,298.3 250.8,297.3 251.8,296.2 252.9,295.2 253.9,294.1 255.0,293.1 256.0,292.0 257.1,291.0 258.1,289.9 259.2,288.9 260.2,287.8 261.3,286.8 262.3,285.8 263.3,284.7 264.4,283.7 265.4,282.6 266.5,281.6 267.5,280.5 268.6,279.5 269.6,278.4 270.7,277.4 271.7,276.3 272.8,275.3 273.8,274.3 274.9,273.2 275.9,272.2 276.9,271.1 278.0,270.1 279.0,269.0 279.9,268.0 280.7,266.9 281.3,265.9 281.7,264.8 282.0,263.8 282.2,262.7 282.2,261.7 282.0,260.8 281.7,260.1 281.3,259.5 280.7,259.0 279.9,258.7 279.3,258.6 278.9,258.6 278.6,258.7 278.4,259.0 278.4,259.5 278.6,260.1 278.9,260.8 279.3,261.4 279.9,261.9 280.4,262.2 280.7,262.3 280.8,262.3 280.8,262.2 280.7,261.9 280.4,261.4 279.9,261.0 279.6,260.4 279.5,259.6 279.5,258.7 279.6,257.7 279.9,256.6 280.4,255.6 281.0,254.5 281.7,253.5 282.6,252.4 283.7,251.4 284.7,250.3 285.8,249.3 286.8,248.3 287.8,247.2 288.9,246.2 289.9,245.1 291.0,244.1 292.0,243.0 293.1,242.0 294.1,240.9 295.2,239.9 296.2,238.8 297.3,237.9 298.3,237.2 299.4,236.6 300.4,236.2 301.4,235.9 302.5,235.7 303.5,235.7 304.6,235.9 305.6,236.2 306.5,236.6 307.3,237.2 307.9,237.9 308.3,238.8 308.6,239.6 308.8,240.2 308.8,240.6 308.6,240.9 308.3,241.1 307.9,241.1 307.3,240.9 306.5,240.6 305.9,240.2 305.5,239.6 305.2,238.8 305.0,238.2 305.0,237.8 305.2,237.5 305.5,237.4 305.9,237.4 306.2,237.5 306.4,237.8 306.4,238.2 306.2,238.8 305.9,239.3 305.8,239.6 305.8,239.7 305.9,239.7 305.9,239.6 305.9,239.3 305.9,238.8 306.1,238.5 306.4,238.4 306.8,238.4 307.4,238.5 308.2,238.8 309.1,239.3 310.1,239.9 311.2,240.6 312.2,241.5 313.2,242.6 314.1,243.6 314.9,244.7 315.5,245.7 315.9,246.6 316.2,247.4 316.4,248.0 316.4,248.4 316.2,248.7 315.9,248.9 315.5,248.9 314.9,248.7 314.1,248.4 313.5,248.0 313.1,247.4 312.8,246.6 312.6,245.7 312.6,245.0 312.8,244.4 313.1,243.9 313.5,243.6 313.8,243.5 314.0,243.5 314.0,243.6 313.8,243.9 313.8,244.4 313.8,245.0 313.8,245.7 313.7,246.3 313.4,246.8 312.9,247.1 312.4,247.2 311.6,247.2 310.7,247.1 309.7,246.8 308.6,246.3 307.6,245.7 306.5,245.0 305.5,244.1 304.4,243.0 303.4,242.0 302.3,240.9 301.3,239.9 300.2,238.8 299.2,237.8 298.2,236.8 297.1,235.7 296.1,234.7 295.0,233.6 294.0,232.6 292.9,231.5 291.9,230.5 290.8,229.4 289.8,228.4 288.7,227.3 287.7,226.3 286.7,225.2 285.6,224.2 284.6,223.2 283.5,222.1 282.5,221.1 281.4,220.0 280.4,219.0 279.3,217.9 278.3,216.9 277.2,215.8 276.2,214.8 275.1,213.7 274.1,212.7 273.1,211.7 272.0,210.6 271.0,209.6 269.9,208.5 268.9,207.5 267.8,206.4 266.9,205.4 266.2,204.3 265.6,203.3 265.1,202.4 264.8,201.6 264.7,201.0 264.7,200.6 264.8,200.3 265.1,200.1 265.6,200.1 266.2,200.3 266.9,200.6 267.7,201.0 268.3,201.6 268.7,202.4 269.0,203.0 269.2,203.4 269.2,203.7 269.0,203.9 268.7,203.9 268.3,203.7 267.7,203.4 267.2,203.0 266.9,202.7 266.8,202.5 266.8,202.5 266.9,202.7 267.2,202.8 267.7,202.8 268.3,203.0 269.0,203.3 269.9,203.7 271.0,204.3 272.0,205.1 273.1,206.0 274.1,207.0 275.1,207.9 276.2,208.7 277.2,209.3 278.3,209.7 279.3,210.0 280.4,210.2 281.4,210.2 282.5,210.0 283.5,209.7 284.6,209.3 285.6,208.7 286.7,207.9 287.7,207.3 288.7,206.9 289.8,206.6 290.8,206.4 291.9,206.4 292.9,206.6 294.0,206.9 295.0,207.3 296.1,207.9 297.1,208.4 298.2,208.7 299.2,208.8 300.2,208.8 301.3,208.7 302.3,208.4 303.4,207.9 304.4,207.6 305.5,207.5 306.5,207.5 307.6,207.6 308.6,207.9 309.7,208.1 310.7,208.1 311.8,207.9 312.8,207.9 313.8,207.9 314.9,207.9 315.9,207.9 317.0,207.9 318.0,207.9 319.1,207.9 320.1,207.9 321.2,207.9 322.2,207.9 323.3,207.9 324.3,207.9 325.3,207.9 326.4,207.9 327.4,207.9 328.5,207.9 329.5,207.9 330.6,207.9 331.6,207.9 332.7,207.9 333.7,207.9 334.8,207.9 335.8,207.9 336.9,207.9 337.9,207.9 338.9,207.9 340.0,207.9 341.0,207.9 342.1,207.9 343.1,207.9 344.2,207.9 345.2,207.9 346.3,207.9 347.3,207.9 348.4,207.9 349.4,207.9 350.4,207.9 351.5,207.9 352.5,207.9 353.6,207.9 354.6,207.9 355.7,207.9 356.7,207.9 357.8,207.9 358.8,207.9 359.9,207.9 360.9,207.9 362.0,207.9 363.0,207.9 364.0,207.9 365.1,207.9 366.1,207.9 367.2,207.9 368.2,207.9 369.3,207.9 370.3,207.9 371.4,207.9 372.4,207.9 373.5,207.9 374.5,207.9 375.5,207.9 376.6,207.9 377.6,207.9 378.7,207.9 379.7,207.9 380.8,207.9 381.8,207.9 382.9,207.9 383.9,207.9 385.0,207.9 386.0,207.9 387.1,207.9 388.1,207.9 389.1,207.9 390.2,207.9 391.2,207.9 392.3,207.9 393.3,207.9 394.4,207.9 395.4,207.9 396.5,207.9 397.5,207.9 398.6,207.9 399.6,207.9 400.6,207.9 401.7,207.9 402.7,207.9 403.8,207.9 404.8,207.9 405.9,207.9 406.9,207.9 407.8,207.9 408.6,207.9 409.2,207.9 409.6,207.9 409.9,207.9 410.1,207.9 410.1,207.9 409.9,207.9 409.6,207.9 409.2,207.9 408.6,207.9 407.8,207.9 407.2,207.9 406.8,207.9 406.5,207.9 406.3,207.9 406.3,207.9 406.5,207.9 406.8,207.9 407.2,207.9 407.7,207.9 408.0,208.1 408.1,208.4 408.1,208.8 408.0,209.4 407.7,210.2 407.2,211.1 406.6,212.1 405.9,213.1 405.0,214.2 404.2,215.2 403.6,216.3 403.2,217.3 402.9,218.4 402.7,219.4 402.7,220.5 402.9,221.5 403.2,222.6 403.6,223.6 404.2,224.7 404.7,225.7 405.0,226.6 405.1,227.3 405.1,227.9 405.0,228.4 404.7,228.7 404.5,228.8 404.5,228.8 404.7,228.7 404.7,228.4 404.7,227.9 404.7,227.3 404.7,226.6 404.7,226.0 404.7,225.5 404.7,225.2 404.7,225.1 404.7,225.1 404.7,225.2 404.7,225.5 404.7,226.0 404.7,226.4 404.8,227.0 405.1,227.8 405.6,228.7 406.2,229.7 406.9,230.8 407.8,231.8 408.9,232.9 409.9,233.9 411.0,235.0 412.0,236.0 413.0,237.1 414.1,238.1 415.1,239.1 416.2,240.2 417.2,241.1 418.3,241.8 419.3,242.4 420.4,242.9 421.4,243.2 422.5,243.3 423.5,243.3 424.6,243.2 425.6,242.9 426.6,242.4 427.7,241.8 428.7,241.1 429.8,240.3 430.8,239.7 431.9,239.3 432.9,239.0 434.0,238.8 435.0,238.8 436.1,239.0 437.1,239.3 438.1,239.7 439.2,240.3 440.2,240.8 441.3,241.1 442.3,241.2 443.4,241.2 444.4,241.1 445.5,240.8 446.5,240.3 447.6,240.0 448.5,239.9 449.2,239.9 449.8,240.0 450.2,240.3 450.5,240.5 450.7,240.5 450.7,240.3 450.5,240.3 450.2,240.3 449.8,240.3 449.2,240.3 448.5,240.3 447.9,240.3 447.4,240.3 447.1,240.3 447.0,240.3 447.0,240.3 447.1,240.3 447.4,240.3 447.9,240.3 448.2,240.3 448.6,240.2 449.2,239.9 450.0,239.4 450.8,238.8 451.9,238.1 452.9,237.2 454.0,236.2 455.0,235.1 456.1,234.1 457.1,233.0 458.2,232.0 459.2,231.1 460.3,230.3 461.3,229.7 462.4,229.3 463.4,229.0 464.4,228.8 465.5,228.8 466.5,229.0 467.6,229.3 468.6,229.7 469.7,230.3 470.7,231.1 471.8,231.7 472.8,232.1 473.9,232.4 474.9,232.6 475.9,232.6 477.0,232.4 478.0,232.1 479.1,231.7 480.1,231.4 481.2,231.2 482.2,231.2 483.3,231.4 484.3,231.7 485.4,231.8 486.4,231.8 487.5,231.7 488.5,231.7 489.5,231.7 490.6,231.7 491.6,231.7 492.7,231.7 493.7,231.7 494.8,231.7 495.8,231.7 496.9,231.7 497.9,231.7 499.0,231.7 500.0,231.7 501.0,231.7 502.1,231.7 503.1,231.7 504.2,231.7 505.2,231.7 506.3,231.7 507.3,231.7 508.4,231.7 509.4,231.7 510.5,231.7 511.5,231.7 512.5,231.7 513.6,231.7 514.6,231.7 515.7,231.7 516.7,231.7 517.8,231.7 518.8,231.7 519.9,231.7 520.9,231.7 522.0,231.7 523.0,231.7 524.1,231.7 525.0,231.7 525.7,231.7 526.3,231.7 526.7,231.7 527.0,231.7 527.2,231.7 527.2,231.7 527.0,231.7 526.7,231.7 526.3,231.7 525.7,231.7 525.0,231.7 524.4,231.7 523.9,231.8 523.6,232.1 523.5,232.6 523.5,233.2 523.6,233.9 523.9,234.8 524.4,235.9 525.0,236.9 525.7,237.9 526.6,239.0 527.6,240.0 528.7,241.1 529.7,242.1 530.8,243.2 531.8,244.2 532.9,245.3 533.8,246.3 534.5,247.4 535.1,248.4 535.6,249.5 535.9,250.5 536.0,251.5 536.0,252.6 535.9,253.6 535.6,254.7 535.1,255.7 534.5,256.6 533.8,257.4 533.2,258.0 532.7,258.4 532.4,258.7 532.3,258.9 532.3,258.9 532.4,258.7 532.7,258.4 533.2,258.0 533.8,257.4 534.2,256.6 534.5,256.0 534.7,255.6 534.7,255.3 534.5,255.1 534.2,255.1 533.8,255.3 533.5,255.6 533.3,256.0 533.3,256.5 533.5,256.8 533.8,256.9 533.9,256.9 533.9,256.8 533.8,256.5 533.8,256.0 533.9,255.4 534.2,254.7 534.7,253.8 535.3,252.7 536.0,251.7 536.9,250.6 537.9,249.6 539.0,248.6 540.0,247.5 541.1,246.5 542.1,245.4 543.2,244.4 544.2,243.3 545.3,242.3 546.3,241.2 547.4,240.2 548.4,239.1 549.5,238.1 550.5,237.1 551.5,236.0 552.6,235.1 553.6,234.4 554.7,233.8 555.7,233.3 556.6,233.0 557.4,232.9 558.0,232.9 558.4,233.0 558.7,233.3 558.9,233.8 558.9,234.4 558.7,235.1 558.4,235.7 558.0,236.2 557.4,236.5 556.6,236.6 556.0,236.6 555.6,236.5 555.3,236.2 555.1,235.7 555.1,235.4 555.3,235.3 555.6,235.3 556.0,235.4 556.3,235.7 556.8,236.2 557.4,236.8 558.1,237.5 559.0,238.4 560.1,239.4 561.1,240.5 562.2,241.5 563.2,242.6 564.2,243.6 565.3,244.7 566.3,245.7 567.4,246.8 568.4,247.8 569.5,248.9 570.5,249.9 571.6,250.9 572.6,252.0 573.7,253.0 574.7,254.1 575.7,255.1 576.8,256.2 577.8,257.2 578.9,258.3 579.9,259.3 581.0,260.4 582.0,261.4 582.9,262.5 583.7,263.5 584.3,264.5 584.7,265.6 585.0,266.6 585.2,267.7 585.2,268.7 585.0,269.8 584.7,270.7 584.3,271.4 583.7,272.0 582.9,272.5 582.3,272.8 581.9,272.9 581.6,272.9 581.4,272.8 581.4,272.5 581.6,272.0 581.9,271.4 582.3,270.7 582.8,270.1 583.1,269.6 583.2,269.3 583.2,269.2 583.1,269.2 582.8,269.3 582.6,269.6 582.6,270.1 582.8,270.5 583.1,270.8 583.5,271.0 584.1,271.0 584.9,270.8 585.8,270.5 586.8,270.1 587.8,269.5 588.9,268.7 589.9,267.8 591.0,266.8 592.0,265.7 593.1,264.7 594.1,263.6 595.2,262.6 596.2,261.6 597.3,260.5 598.3,259.5 599.4,258.4 600.4,257.4 601.4,256.3 602.5,255.3 603.5,254.2 604.6,253.2 605.6,252.1 606.7,251.1 607.7,250.0 608.8,249.0 609.8,248.0 610.9,246.9 611.9,245.9 612.9,244.8 614.0,243.8 615.0,242.7 616.1,241.7 617.1,240.6 618.2,239.6 619.2,238.5 620.3,237.5 621.3,236.5 622.4,235.4 623.4,234.4 624.5,233.3 625.5,232.4 626.5,231.7 627.6,231.1 628.6,230.6 629.7,230.3 630.7,230.2 631.8,230.2 632.8,230.3 633.9,230.6 634.9,231.1 636.0,231.7 637.0,232.4 638.0,233.0 639.1,233.5 640.1,233.8 641.2,233.9 642.2,233.9 643.3,233.8 644.3,233.5 645.4,233.0 646.4,232.7 647.3,232.6 648.1,232.6 648.7,232.7 649.1,232.7 649.4,232.7 649.6,232.7 649.6,232.7 649.4,232.7 649.1,232.7 648.7,232.7 648.1,232.7 647.3,232.7 646.6,232.7 646.0,232.9 645.5,233.2 645.2,233.6 645.1,234.2 645.1,235.0 645.2,235.6 645.5,236.0 646.0,236.3 646.6,236.5 647.3,236.5 648.2,236.3 649.3,236.0 650.3,235.6 651.3,235.3 652.4,235.1 653.4,235.1 654.5,235.3 655.5,235.6 656.6,235.7 657.6,235.7 658.7,235.6 659.7,235.6 660.8,235.6 661.7,235.6 662.4,235.6 663.0,235.6 663.4,235.6 663.7,235.6 663.9,235.6 663.9,235.6 663.7,235.6 663.4,235.6 663.0,235.6 662.4,235.6 661.7,235.6 661.1,235.6 660.3,235.4 659.4,235.1 658.4,234.7 657.3,234.1 656.3,233.3 655.2,232.4 654.2,231.4 653.1,230.3 652.1,229.3 651.0,228.2 650.0,227.2 649.0,226.1 647.9,225.1 646.9,224.1 645.8,223.0 644.8,222.0 643.9,220.9 643.1,219.9 642.5,218.8 642.1,217.8 641.8,216.7 641.6,215.7 641.6,214.6 641.8,213.6 642.1,212.5 642.5,211.5 643.1,210.5 643.9,209.4 644.5,208.4 644.9,207.3 645.2,206.3 645.4,205.2 645.4,204.2 645.2,203.1 644.9,202.2 644.5,201.5 644.2,200.9 644.0,200.4 644.0,200.1 644.2,200.0 644.3,200.0 644.3,200.1 644.3,200.4 644.3,200.9 644.3,201.5 644.3,202.2 644.3,202.8 644.3,203.3 644.3,203.6 644.3,203.7 644.3,203.7 644.3,203.6 644.3,203.3 644.3,202.8 644.3,202.5 644.3,202.4 644.3,202.4 644.3,202.5 644.3,202.7 644.5,203.0 644.8,203.4 645.2,204.0 645.8,204.8 646.6,205.7 647.5,206.7 648.5,207.8 649.6,208.8 650.6,209.9 651.6,210.9 652.7,212.0 653.7,213.0 654.8,214.0 655.8,215.1 656.9,216.1 657.9,217.2 659.0,218.2 660.0,219.3 661.1,220.3 662.1,221.4 663.1,222.4 664.2,223.5 665.2,224.5 666.3,225.5 667.3,226.6 668.4,227.6 669.4,228.7 670.5,229.7 671.5,230.8 672.6,231.8 673.6,232.9 674.7,233.9 675.7,235.0 676.7,236.0 677.8,237.1 678.8,238.1 679.9,239.1 680.9,240.2 682.0,241.2 683.0,242.3 684.1,243.3 685.1,244.4 686.2,245.4 687.2,246.5 688.2,247.5 689.3,248.4 690.3,249.2 691.4,249.8 692.4,250.2 693.5,250.5 694.5,250.6 695.6,250.6 696.6,250.5 697.7,250.2 698.7,249.8 699.8,249.2 700.8,248.4 701.8,247.8 702.9,247.4 703.9,247.1 705.0,246.9 706.0,246.9 707.1,247.1 708.1,247.4 709.2,247.8 710.2,248.4 711.3,248.9 712.3,249.2 713.3,249.3 714.4,249.3 715.3,249.2 716.0,248.9 716.6,248.4 717.1,248.1 717.4,248.0 717.5,248.0 717.5,248.1 717.4,248.4 717.1,248.6 716.6,248.6 716.0,248.4 715.3,248.4 714.7,248.4 714.2,248.4 713.9,248.4 713.8,248.4 713.8,248.4 713.9,248.4 714.2,248.4 714.7,248.4 715.0,248.4 715.1,248.4 715.1,248.4 715.0,248.4 714.8,248.4 714.8,248.6 715.0,248.9 715.3,249.3 715.7,249.9 716.3,250.6 716.9,251.5 717.4,252.6 717.7,253.6 717.8,254.7 717.8,255.7 717.7,256.8 717.4,257.8 716.9,258.9 716.6,259.9 716.5,260.8 716.5,261.6 716.6,262.2 716.9,262.6 717.1,262.9 717.1,263.0 716.9,263.0 716.9,262.9 716.9,262.6 716.9,262.2 716.9,261.6 716.9,260.8 716.9,259.9 717.1,258.9 717.4,257.8 717.8,256.8 718.4,255.7 719.2,254.7 720.1,253.6 721.1,252.6 722.2,251.5 723.2,250.5 724.3,249.5 725.3,248.4 726.3,247.4 727.4,246.3 728.4,245.3 729.5,244.2 730.5,243.2 731.6,242.1 732.5,241.1 733.2,240.0 733.8,239.0 734.3,238.1 734.6,237.4 734.7,236.8 734.7,236.3 734.6,236.0 734.3,235.9 733.8,235.9 733.2,236.0 732.5,236.3 731.9,236.8 731.4,237.4 731.1,238.1 731.0,239.0 731.0,239.7 731.1,240.3 731.4,240.8 731.9,241.1 732.2,241.2 732.3,241.2 732.3,241.1 732.2,240.8 732.2,240.3 732.2,239.7 732.2,239.0 732.0,238.4 731.7,237.9 731.3,237.6 730.7,237.5 729.9,237.5 729.0,237.6 728.0,237.9 726.9,238.4 725.9,239.0 724.9,239.7 723.8,240.6 722.8,241.7 721.7,242.7 720.7,243.8 719.6,244.8 718.6,245.9 717.5,246.9 716.5,248.0 715.4,249.0 714.4,250.0 713.3,251.1 712.3,252.1 711.3,253.2 710.2,254.2 709.2,255.3 708.1,256.3 707.1,257.4 706.0,258.4 705.0,259.5 703.9,260.5 702.9,261.6 701.8,262.6 700.8,263.6 699.8,264.7 698.7,265.7 697.7,266.8 696.6,267.8 695.6,268.9 694.5,269.9 693.5,271.0 692.4,272.0 691.4,273.1 690.3,274.1 689.3,275.1 688.2,276.2 687.2,277.2 686.2,278.3 685.1,279.3 684.1,280.4 683.0,281.4 682.0,282.5 680.9,283.5 679.9,284.6 678.8,285.6 677.8,286.7 676.7,287.7 675.7,288.7 674.7,289.8 673.6,290.8 672.6,291.9 671.5,292.9 670.6,293.8 669.9,294.6 669.3,295.2 668.8,295.6 668.5,295.9 668.4,296.1 668.4,296.1 668.5,295.9 668.8,295.6 669.3,295.2 669.9,294.6 670.6,293.8 671.2,293.1 671.7,292.5 672.0,292.0 672.1,291.7 672.1,291.6 672.0,291.6 671.7,291.7 671.2,292.0 670.8,292.5 670.5,293.1 670.3,293.5 670.3,293.8 670.5,294.0 670.8,294.0 670.9,293.8 670.9,293.5 670.8,293.1 670.5,292.8 670.0,292.6 669.4,292.6 668.7,292.8 667.8,293.1 666.7,293.5 665.7,294.1 664.6,294.9 663.6,295.8 662.5,296.8 661.5,297.9 660.5,298.9 659.4,300.0 658.4,301.0 657.3,302.0 656.3,303.1 655.2,304.1 654.2,305.2 653.3,306.2 652.5,307.3 651.9,308.3 651.5,309.4 651.2,310.4 651.0,311.5 651.0,312.5 651.2,313.5 651.5,314.6 651.9,315.6 652.5,316.7 653.3,317.7 653.9,318.8 654.3,319.8 654.6,320.9 654.8,321.9 654.8,323.0 654.6,324.0 654.3,325.0 653.9,326.1 653.6,327.1 653.4,328.2 653.4,329.2 653.6,330.3 653.7,331.3 653.7,332.4 653.7,333.4 653.7,334.5 653.7,335.5 653.7,336.6 653.7,337.6 653.7,338.6 653.7,339.7 653.7,340.7 653.7,341.8 653.7,342.8 653.7,343.9 653.7,344.9 653.7,346.0 653.7,347.0 653.7,348.1 653.7,349.1 653.7,350.1 653.7,351.2 653.7,352.2 653.7,353.3 653.7,354.3 653.7,355.4 653.7,356.4 653.7,357.5 653.7,358.5 653.7,359.6 653.7,360.6 653.7,361.7 653.7,362.7 653.7,363.7 653.7,364.8 653.7,365.8 653.7,366.9 653.7,367.9 653.7,369.0 653.7,370.0 653.7,371.1 653.7,372.1 653.7,373.2 653.7,374.2 653.7,375.2 653.7,376.3 653.7,377.3 653.7,378.4 653.7,379.4 653.7,380.5 653.7,381.5 653.7,382.6 653.7,383.6 653.7,384.7 653.7,385.6 653.7,386.3 653.7,386.9 653.7,387.4 653.7,387.6 653.7,387.8 653.7,387.8 653.7,387.6 653.7,387.4 653.7,386.9 653.7,386.3 653.7,385.6 653.7,385.0 653.7,384.5 653.7,384.2 653.7,384.1 653.7,384.1 653.7,384.2 653.7,384.5 653.7,385.0 653.7,385.4 653.6,385.7 653.3,385.9 652.8,385.9 652.2,385.7 651.5,385.4 650.6,385.0 649.6,384.4 648.5,383.6 647.5,382.7 646.4,381.7 645.4,380.6 644.3,379.6 643.3,378.5 642.2,377.5 641.2,376.4 640.1,375.4 639.1,374.4 638.0,373.3 637.0,372.3 636.0,371.2 634.9,370.2 633.9,369.3 632.8,368.5 631.8,367.9 630.7,367.5 629.7,367.2 628.6,367.0 627.6,367.0 626.5,367.2 625.5,367.5 624.5,367.9 623.4,368.5 622.5,369.3 621.8,370.2 621.2,370.9 620.7,371.5 620.4,372.0 620.3,372.3 620.3,372.4 620.4,372.4 620.7,372.3 621.2,372.0 621.8,371.5 622.5,370.9 623.1,370.2 623.6,369.6 623.9,369.1 624.0,368.8 624.0,368.7 623.9,368.7 623.6,368.8 623.1,369.1 622.8,369.6 622.7,370.2 622.7,370.6 622.8,370.9 622.8,371.1 622.8,371.1 622.8,370.9 622.8,370.6 622.8,370.2 622.7,369.9 622.4,369.7 621.9,369.7 621.3,369.9 620.6,370.2 619.7,370.6 618.6,371.2 617.6,372.0 616.5,372.9 615.5,373.9 614.4,375.0 613.4,376.0 612.4,377.0 611.3,378.1 610.3,379.1 609.2,380.2 608.2,381.2 607.1,382.3 606.1,383.3 605.0,384.4 604.0,385.4 602.9,386.5 601.9,387.5 600.8,388.5 599.8,389.6 598.8,390.6 597.7,391.7 596.7,392.7 595.8,393.8 595.0,394.8 594.4,395.9 594.0,396.9 593.7,398.0 593.5,399.0 593.5,400.0 593.7,401.1 594.0,402.1 594.4,403.2 595.0,404.2 595.8,405.3 596.4,406.3 596.8,407.4 597.1,408.4 597.3,409.5 597.3,410.5 597.1,411.6 596.8,412.6 596.4,413.6 596.1,414.7 595.9,415.7 595.9,416.8 596.1,417.8 596.1,418.9 596.1,419.9 596.1,421.0 596.1,422.0 596.1,423.1 596.1,424.1 596.1,425.1 596.1,426.2 596.1,427.2 596.1,428.3 596.1,429.3 596.1,430.4 596.1,431.4 596.1,432.5 596.1,433.5 596.1,434.6 596.1,435.6 596.1,436.7 596.1,437.7 596.1,438.7 596.1,439.8 596.1,440.8 596.1,441.9 596.1,442.9 596.1,444.0 596.1,445.0 596.1,446.1 596.1,447.1 596.1,448.2 596.1,449.2 596.1,450.2 596.1,451.3 596.1,452.3 596.1,453.4 596.1,454.4 596.1,455.5 596.1,456.5 596.1,457.6 596.1,458.6 596.1,459.7 596.1,460.7 596.1,461.8 596.1,462.8 596.1,463.8 596.1,464.9 596.1,465.9 596.1,467.0 596.1,468.0 596.1,469.1 596.1,470.0 596.1,470.7 596.1,471.3 596.1,471.8 596.1,472.1 596.1,472.2 596.1,472.2 596.1,472.1 596.1,471.8 596.1,471.3 596.1,470.7 596.1,470.0 596.1,469.4 596.1,468.9 596.1,468.6 596.1,468.5 596.1,468.5 596.1,468.6 596.1,468.9 596.1,469.4 596.1,469.7 596.1,469.8 596.1,469.8 596.1,469.7 596.1,469.5 595.9,469.5 595.6,469.7 595.2,470.0 594.6,470.4 593.8,471.0 592.9,471.8 591.9,472.7 590.8,473.7 589.9,474.8 589.2,475.8 588.6,476.8 588.1,477.9 587.8,478.9 587.7,480.0 587.7,481.0 587.8,482.1 588.1,483.1 588.6,484.2 589.2,485.2 589.9,486.3 590.5,487.3 591.0,488.3 591.3,489.4 591.4,490.4 591.4,491.5 591.3,492.5 591.0,493.6 590.5,494.5 590.2,495.2 590.1,495.8 590.1,496.3 590.2,496.6 590.5,496.7 590.7,496.7 590.7,496.6 590.5,496.3 590.5,495.8 590.5,495.2 590.5,494.5 590.5,493.9 590.5,493.4 590.5,493.1 590.5,493.0 590.5,493.0 590.5,493.1 590.5,493.4 590.5,493.9 590.5,494.2 590.7,494.6 591.0,495.2 591.4,496.0 592.0,496.9 592.8,497.9 593.7,499.0 594.7,500.0 595.8,501.0 596.8,502.1 597.9,503.1 598.9,504.2 600.0,505.2 601.0,506.3 602.0,507.3 603.1,508.4 604.1,509.4 605.2,510.5 606.2,511.5 607.3,512.5 608.3,513.6 609.4,514.6 610.3,515.7 611.0,516.7 611.6,517.8 612.1,518.8 612.4,519.9 612.5,520.9 612.5,522.0 612.4,523.0 612.1,524.1 611.6,525.1 611.0,526.0 610.3,526.7 609.7,527.3 609.2,527.8 608.9,528.1 608.8,528.2 608.8,528.2 608.9,528.1 609.2,527.8 609.7,527.3 610.0,526.7 610.1,526.0 610.1,525.1 610.0,524.4 609.7,523.8 609.5,523.3 609.5,523.0 609.7,522.9 609.7,522.9 609.7,523.0 609.7,523.3 609.7,523.8 609.7,524.4 609.7,525.1 609.8,525.7 610.1,526.1 610.6,526.4 611.2,526.6 611.9,526.6 612.8,526.4 613.8,526.1 614.9,525.7 615.9,525.1 617.0,524.4 618.0,523.5 619.1,522.4 620.1,521.4 621.2,520.3 622.2,519.3 623.3,518.2 624.3,517.2 625.3,516.1 626.4,515.1 627.4,514.0 628.5,513.0 629.5,512.0 630.6,510.9 631.6,509.9 632.7,508.8 633.7,507.8 634.8,506.7 635.8,505.7 636.9,504.6 637.9,503.6 638.9,502.5 640.0,501.5 641.0,500.4 642.1,499.6 643.1,498.8 644.0,498.2 644.8,497.8 645.4,497.5 645.8,497.3 646.1,497.3 646.3,497.5 646.3,497.8 646.1,498.2 645.8,498.8 645.4,499.6 644.8,500.1 644.0,500.6 643.4,500.9 643.0,501.0 642.7,501.0 642.5,500.9 642.5,500.6 642.7,500.1 643.0,499.9 643.4,499.7 643.7,499.7 643.9,499.9 643.9,499.9 643.7,499.9 643.6,499.9 643.6,499.7 643.7,499.4 644.0,499.0 644.5,498.4 645.1,497.6 645.8,496.7 646.7,495.7 647.8,494.6 648.8,493.6 649.9,492.5 650.7,491.5 651.5,490.4 652.1,489.4 652.5,488.3 652.8,487.3 653.0,486.3 653.0,485.2 652.8,484.2 652.5,483.1 652.1,482.2 651.5,481.5 650.7,480.9 650.1,480.4 649.7,480.1 649.4,480.0 649.3,480.0 649.3,480.1 649.4,480.4 649.7,480.9 650.1,481.5 650.4,482.2 650.6,482.8 650.6,483.3 650.4,483.6 650.1,483.7 650.0,483.7 650.0,483.6 650.1,483.3 650.1,482.8 650.1,482.4 650.3,481.8 650.6,481.0 651.0,480.1 651.6,479.1 652.4,478.0 653.3,477.0 654.3,475.9 655.4,474.9 656.4,473.9 657.5,472.8 658.5,471.8 659.6,470.7 660.6,469.7 661.7,468.6 662.7,467.6 663.7,466.5 664.8,465.5 665.8,464.4 666.9,463.4 667.8,462.4 668.5,461.3 669.1,460.3 669.6,459.2 669.9,458.2 670.0,457.1 670.0,456.2 669.9,455.5 669.6,454.9 669.1,454.4 668.5,454.1 667.8,454.0 667.2,454.0 666.7,454.1 666.4,454.4 666.3,454.9 666.3,455.5 666.4,456.2 666.7,456.8 667.2,457.3 667.8,457.6 668.2,457.7 668.5,457.7 668.7,457.6 668.7,457.3 668.5,456.8 668.2,456.2 667.8,455.8 667.5,455.5 667.3,455.3 667.3,455.3 667.5,455.5 667.8,455.8 667.9,456.2 667.9,456.5 667.8,456.7 667.8,456.7 667.8,456.5 667.8,456.2 667.9,455.8 668.2,455.2 668.7,454.4 669.3,453.5 670.0,452.5 670.9,451.4 672.0,450.4 673.0,449.4 674.1,448.3 675.1,447.3 676.1,446.4 677.2,445.6 678.2,445.0 679.3,444.6 680.3,444.3 681.4,444.1 682.4,444.1 683.5,444.3 684.5,444.6 685.6,445.0 686.6,445.6 687.6,446.4 688.7,447.1 689.7,447.7 690.8,448.2 691.8,448.5 692.7,448.6 693.5,448.6 694.1,448.5 694.5,448.2 694.8,447.7 695.0,447.1 695.0,446.7 694.8,446.4 694.5,446.2 694.1,446.2 693.5,446.4 692.7,446.7 692.1,447.1 691.7,447.4 691.4,447.6 691.2,447.6 691.2,447.4 691.4,447.1 691.7,447.0 692.1,447.0 692.4,447.1 692.6,447.1 692.6,447.1 692.4,447.1 692.3,447.1 692.3,447.3 692.4,447.6 692.7,448.0 693.2,448.6 693.8,449.4 694.5,450.2 695.4,451.3 696.5,452.3 697.5,453.4 698.6,454.4 699.6,455.5 700.6,456.5 701.7,457.6 702.7,458.6 703.8,459.7 704.8,460.7 705.9,461.6 706.8,462.4 707.5,462.9 708.1,463.4 708.6,463.7 708.9,463.8 709.0,463.8 709.0,463.7 708.9,463.4 708.6,462.9 708.1,462.4 707.5,461.6 706.8,460.7 705.9,460.0 704.8,459.4 703.8,458.9 702.7,458.6 701.7,458.5 700.6,458.5 699.6,458.6 698.6,458.9 697.5,459.4 696.5,460.0 695.4,460.7 694.4,461.6 693.3,462.6 692.3,463.7 691.4,464.7 690.6,465.8 690.0,466.8 689.6,467.9 689.3,468.9 689.1,470.0 689.1,471.0 689.3,472.1 689.6,473.1 690.0,474.2 690.6,475.2 691.4,476.2 692.1,477.3 692.7,478.3 693.2,479.4 693.5,480.4 693.6,481.5 693.6,482.5 693.5,483.6 693.2,484.6 692.7,485.7 692.1,486.7 691.7,487.7 691.4,488.8 691.2,489.8 691.2,490.9 691.4,491.9 691.7,493.0 692.1,494.0 692.4,495.1 692.6,496.1 692.6,497.2 692.4,498.2 692.1,499.3 692.0,500.3 692.0,501.3 692.1,502.4 692.1,503.4 692.1,504.5 692.1,505.5 692.1,506.6 692.1,507.6 692.1,508.7 692.1,509.7 692.1,510.8 692.1,511.8 692.1,512.8 692.1,513.9 692.1,514.9 692.1,516.0 692.1,517.0 692.1,518.1 692.1,519.1 692.1,520.2 692.1,521.2 692.1,522.1 692.1,522.9 692.1,523.5 692.1,523.9 692.1,524.2 692.1,524.4 692.1,524.4 692.1,524.2 692.1,523.9 692.1,523.5 692.1,522.9 692.1,522.1 692.1,521.4 692.3,520.8 692.6,520.3 693.0,520.0 693.6,519.9 694.4,519.9 695.3,520.0 696.3,520.3 697.4,520.8 698.3,521.4 699.0,522.1 699.6,523.0 700.0,524.1 700.3,525.1 700.5,526.1 700.5,527.2 700.3,528.2 700.0,529.3 699.6,530.3 699.0,531.2 698.3,532.0 697.7,532.6 697.2,533.0 696.9,533.3 696.8,533.5 696.8,533.5 696.9,533.3 697.2,533.0 697.7,532.6 698.1,532.0 698.4,531.2 698.6,530.6 698.6,530.2 698.4,529.9 698.1,529.7 698.0,529.7 698.0,529.9 698.1,530.2 698.1,530.6 698.1,530.9 698.1,531.1 698.1,531.1 698.1,530.9 698.1,530.8 698.0,530.8 697.7,530.9 697.2,531.2 696.6,531.7 695.9,532.3 695.0,533.0 693.9,533.9 692.9,535.0 691.8,536.0 690.8,537.1 689.7,538.1 688.7,539.1 687.6,540.2 686.6,541.1 685.6,541.8 684.5,542.4 683.5,542.9 682.4,543.2 681.4,543.3 680.5,543.3 679.7,543.2 679.1,542.9 678.7,542.4 678.4,541.8 678.2,541.1 678.2,540.5 678.4,540.0 678.7,539.7 679.1,539.6 679.7,539.6 680.5,539.7 681.1,540.0 681.5,540.5 681.8,540.8 682.0,540.9 682.0,540.9 681.8,540.8 681.5,540.6 681.1,540.6 680.8,540.6 680.6,540.6 680.6,540.6 680.8,540.6 680.9,540.6 681.2,540.8 681.7,541.1 682.3,541.5 683.0,542.1 683.9,542.9 685.0,543.8 686.0,544.8 687.1,545.9 688.1,546.9 689.1,548.0 690.2,549.0 691.2,550.0 692.3,551.1 693.2,552.1 693.9,553.2 694.5,554.2 695.0,555.3 695.3,556.3 695.4,557.4 695.4,558.4 695.3,559.5 695.0,560.5 694.5,561.6 693.9,562.6 693.2,563.6 692.6,564.7 692.1,565.7 691.8,566.8 691.7,567.8 691.7,568.9 691.8,569.9 692.1,571.0 692.6,572.0 693.0,573.1 693.3,574.1 693.5,575.1 693.5,576.2 693.3,577.2 693.0,578.3 692.9,579.3 692.9,580.4 693.0,581.4 693.0,582.5 693.0,583.5 693.0,584.6 693.0,585.6 693.0,586.7 693.0,587.7 693.0,588.7 693.0,589.8 693.0,590.8 693.0,591.9 693.0,592.9 693.0,593.8 693.2,594.6 693.5,595.2 693.9,595.6 694.5,595.9 695.3,596.1 696.2,596.1 697.2,595.9 698.3,595.6 699.3,595.2 700.3,594.6 701.4,593.8 702.4,592.9 703.5,591.9 704.5,590.8 705.6,589.9 706.6,589.2 707.7,588.6 708.7,588.1 709.8,587.8 710.8,587.7 711.9,587.7 712.9,587.8 713.9,588.1 715.0,588.6 716.0,589.2 717.1,589.9 718.1,590.7 719.2,591.3 720.2,591.7 721.3,592.0 722.3,592.2 723.4,592.2 724.4,592.0 725.4,591.7 726.5,591.3 727.5,590.7 728.6,590.2 729.6,589.9 730.7,589.8 731.7,589.8 732.8,589.9 733.8,590.2 734.9,590.7 735.9,591.0 737.0,591.1 738.0,591.1 739.0,591.0 740.1,590.7 741.1,590.5 742.2,590.5 743.2,590.7 744.3,590.7 745.3,590.7 746.4,590.7 747.4,590.7 748.5,590.7 749.5,590.7 750.5,590.7 751.6,590.7 752.6,590.7 753.7,590.7 754.7,590.7 755.6,590.7 756.4,590.7 757.0,590.7 757.4,590.7 757.7,590.7 757.9,590.7 757.9,590.7 757.7,590.7 757.4,590.7 757.0,590.7 756.4,590.7 755.6,590.7 755.0,590.7 754.6,590.7 754.3,590.7 754.1,590.7 754.1,590.7 754.3,590.7 754.6,590.7 755.0,590.7 755.3,590.7 755.8,590.8 756.4,591.1 757.1,591.6 758.0,592.2 759.1,592.9 760.1,593.8 761.2,594.9 762.2,595.9 763.2,597.0 764.3,598.0 765.3,598.9 766.4,599.7 767.4,600.2 768.5,600.7 769.5,601.0 770.6,601.1 771.6,601.1 772.7,601.0 773.7,600.7 774.8,600.2 775.8,599.7 776.8,598.9 777.9,598.3 778.9,597.9 780.0,597.6 781.0,597.4 782.1,597.4 783.1,597.6 784.2,597.9 785.2,598.3 786.1,598.6 786.9,598.8 787.5,598.8 787.9,598.6 788.2,598.5 788.3,598.5 788.3,598.5 788.2,598.5 787.9,598.5 787.5,598.5 786.9,598.5 786.1,598.5 785.5,598.6 785.1,598.9 784.8,599.4 784.6,600.0 784.6,600.7 784.8,601.6 785.1,602.6 785.5,603.7 786.1,604.7 786.6,605.8 786.9,606.8 787.0,607.9 787.0,608.9 786.9,610.0 786.6,611.0 786.4,612.1 786.4,613.1 786.4,614.1 786.4,615.2 786.4,616.2 786.4,617.3 786.4,618.3 786.4,619.4 786.4,620.3 786.4,621.0 786.4,621.6 786.4,622.1 786.4,622.4 786.4,622.5 786.4,622.5 786.4,622.4 786.4,622.1 786.4,621.6 786.4,621.0 786.4,620.3 786.4,619.7 786.4,619.2 786.4,618.9 786.4,618.8 786.4,618.8 786.4,618.9 786.4,619.2 786.4,619.7 786.4,620.0 786.4,620.1 786.4,620.1 786.4,620.0 786.4,619.8 786.3,619.8 786.0,620.0 785.5,620.3 784.9,620.7 784.2,621.3 783.3,622.1 782.2,623.0 781.2,624.0 780.1,625.0 779.1,626.1 778.0,627.1 777.0,628.2 775.9,629.2 774.9,630.3 773.9,631.3 772.8,632.4 771.8,633.4 770.7,634.5 769.7,635.5 768.6,636.6 767.6,637.6 766.5,638.6 765.5,639.7 764.4,640.7 763.4,641.8 762.4,642.8 761.3,643.9 760.3,644.9 759.2,646.0 758.2,647.0 757.1,648.1 756.1,649.1 755.0,650.1 754.0,651.2 752.9,652.2 751.9,653.3 751.0,654.3 750.2,655.4 749.7,656.4 749.2,657.5 748.9,658.5 748.8,659.4 748.8,660.2 748.9,660.8 749.2,661.2 749.7,661.5 750.2,661.7 751.0,661.7 751.6,661.5 752.0,661.2 752.3,660.8 752.5,660.2 752.5,659.4 752.3,658.8 752.0,658.4 751.6,658.1 751.3,657.9 751.1,657.9 751.1,658.1 751.3,658.4 751.4,658.8 751.4,659.1 751.3,659.6 751.0,660.2 750.5,660.9 750.0,661.8 749.2,662.8 748.3,663.9 747.3,664.9 746.2,666.0 745.2,667.0 744.1,668.1 743.1,669.1 742.0,670.2 741.0,671.2 739.9,672.3 738.9,673.3 737.8,674.2 736.8,675.0 735.8,675.5 734.9,676.0 734.1,676.3 733.5,676.4 733.1,676.4 732.8,676.3 732.6,676.0 732.6,675.5 732.8,675.0 733.1,674.2 733.5,673.6 734.1,673.2 734.9,672.9 735.5,672.7 735.9,672.7 736.2,672.9 736.4,673.2 736.4,673.6 736.2,673.9 735.9,674.1 735.5,674.1 735.0,673.9 734.7,673.8 734.6,673.8 734.6,673.8 734.7,673.8 735.0,673.8 735.2,673.9 735.2,674.2 735.0,674.7 734.7,675.2 734.3,676.0 733.7,676.9 732.9,677.9 732.0,679.0 731.0,680.0 729.9,681.1 728.9,682.1 727.8,683.2 726.9,684.2 726.2,685.3 725.6,686.3 725.1,687.4 724.9,688.4 724.7,689.4 724.7,690.5 724.9,691.5 725.1,692.6 725.6,693.6 726.2,694.7 726.9,695.7 727.5,696.8 728.0,697.8 728.3,698.9 728.4,699.8 728.4,700.5 728.3,701.1 728.0,701.5 727.5,701.8 727.2,702.0 727.1,702.0 727.1,701.8 727.2,701.5 727.5,701.1 727.7,700.5 727.7,699.8 727.5,699.2 727.5,698.7 727.5,698.4 727.5,698.3 727.5,698.3 727.5,698.4 727.5,698.7 727.5,699.2 727.5,699.8 727.4,700.2 727.1,700.5 726.6,700.6 726.0,700.6 725.3,700.5 724.4,700.2 723.4,699.8 722.3,699.2 721.3,698.4 720.2,697.5 719.2,696.5 718.1,695.4 717.1,694.4 716.0,693.3 715.0,692.3 713.9,691.2 712.9,690.2 711.9,689.1 710.8,688.1 709.8,687.1 708.7,686.0 707.7,685.0 706.6,683.9 705.7,682.9 705.0,681.8 704.4,680.8 703.9,679.7 703.6,678.7 703.5,677.6 703.5,676.6 703.6,675.5 703.9,674.5 704.4,673.5 705.0,672.4 705.7,671.4 706.5,670.3 707.1,669.3 707.5,668.2 707.8,667.2 708.0,666.1 708.0,665.1 707.8,664.0 707.5,663.0 707.1,662.0 706.5,660.9 706.0,659.9 705.7,658.8 705.6,657.8 705.6,656.9 705.7,656.1 706.0,655.5 706.5,655.1 706.8,654.8 706.9,654.6 706.9,654.6 706.8,654.8 706.5,655.1 706.3,655.5 706.3,656.1 706.5,656.9 706.5,657.5 706.5,657.9 706.5,658.2 706.5,658.4 706.5,658.4 706.5,658.2 706.5,657.9 706.5,657.5 706.5,657.2 706.5,657.0 706.5,657.0 706.5,657.2 706.5,657.3 706.3,657.3 706.0,657.2 705.6,656.9 705.0,656.4 704.2,655.8 703.3,655.1 702.3,654.2 701.2,653.1 700.2,652.1 699.2,651.0 698.1,650.0 697.1,649.0 696.0,647.9 695.0,646.9 693.9,645.8 692.9,644.8 691.8,643.7 690.8,642.7 689.7,641.6 688.7,640.6 687.6,639.5 686.6,638.5 685.6,637.5 684.5,636.4 683.5,635.4 682.4,634.3 681.4,633.3 680.3,632.2 679.3,631.2 678.2,630.1 677.2,629.1 676.1,628.0 675.1,627.0 674.1,625.9 673.0,624.9 672.0,623.9 670.9,622.8 669.9,621.9 668.8,621.2 667.8,620.6 666.7,620.1 665.7,619.8 664.6,619.7 663.6,619.7 662.5,619.8 661.5,620.1 660.5,620.6 659.4,621.2 658.4,621.9 657.3,622.5 656.3,623.0 655.2,623.3 654.2,623.4 653.1,623.4 652.1,623.3 651.0,623.0 650.0,622.5 649.0,622.2 647.9,622.1 646.9,622.1 645.8,622.2 644.8,622.5 643.7,622.7 642.7,622.7 641.6,622.5 640.6,622.5 639.5,622.5 638.5,622.5 637.5,622.5 636.4,622.5 635.4,622.5 634.3,622.5 633.3,622.5 632.2,622.5 631.2,622.5 630.1,622.5 629.1,622.5 628.0,622.5 627.0,622.5 625.9,622.5 624.9,622.5 623.9,622.5 622.8,622.5 621.8,622.5 620.7,622.5 619.7,622.5 618.8,622.5 618.0,622.5 617.4,622.5 617.0,622.5 616.7,622.5 616.5,622.5 616.5,622.5 616.7,622.5 617.0,622.5 617.4,622.5 618.0,622.5 618.8,622.5 619.4,622.5 619.8,622.5 620.1,622.5 620.3,622.5 620.3,622.5 620.1,622.5 619.8,622.5 619.4,622.5 619.1,622.5 618.9,622.5 618.9,622.5 619.1,622.5 619.2,622.5 619.5,622.4 620.0,622.1 620.6,621.6 621.3,621.0 621.9,620.3 622.4,619.4 622.7,618.3 622.8,617.3 622.8,616.2 622.7,615.2 622.4,614.1 621.9,613.1 621.6,612.1 621.5,611.0 621.5,610.0 621.6,608.9 621.8,607.9 621.8,606.8 621.8,605.8 621.8,604.7 621.8,603.7 621.8,602.6 621.8,601.6 621.8,600.5 621.8,599.5 621.8,598.5 621.8,597.4 621.8,596.4 621.8,595.3 621.8,594.3 621.8,593.2 621.8,592.2 621.8,591.1 621.8,590.1 621.8,589.0 621.8,588.0 621.8,587.0 621.8,585.9 621.8,584.9 621.8,583.8 621.8,582.8 621.8,581.7 621.8,580.7 621.8,579.6 621.8,578.6 621.8,577.5 621.8,576.5 621.8,575.6 621.8,574.9 621.8,574.3 621.8,573.8 621.8,573.5 621.8,573.4 621.8,573.4 621.8,573.5 621.8,573.8 621.8,574.3 621.8,574.9 621.8,575.6 621.8,576.3 621.6,577.2 621.3,578.3 620.9,579.3 620.3,580.4 619.5,581.4 618.6,582.5 617.6,583.5 616.5,584.6 615.5,585.6 614.4,586.7 613.4,587.7 612.4,588.7 611.3,589.8 610.3,590.8 609.2,591.9 608.2,592.9 607.1,594.0 606.1,595.0 605.0,596.1 604.0,597.1 602.9,598.2 601.9,599.1 600.8,599.8 599.8,600.4 598.8,600.8 597.7,601.1 596.7,601.3 595.6,601.3 594.6,601.1 593.5,600.8 592.5,600.4 591.4,599.8 590.4,599.1 589.3,598.5 588.3,598.0 587.3,597.7 586.2,597.6 585.2,597.6 584.1,597.7 583.1,598.0 582.0,598.5 581.0,598.8 579.9,598.9 578.9,598.9 577.8,598.8 576.8,598.5 575.7,598.3 574.7,598.3 573.7,598.5 572.6,598.5 571.6,598.5 570.5,598.5 569.5,598.5 568.4,598.5 567.4,598.5 566.5,598.5 565.7,598.5 565.1,598.5 564.7,598.5 564.4,598.5 564.2,598.5 564.2,598.5 564.4,598.5 564.7,598.5 565.1,598.5 565.7,598.5 566.5,598.5 567.1,598.5 567.5,598.5 567.8,598.5 568.0,598.5 568.0,598.5 567.8,598.5 567.5,598.5 567.1,598.5 566.8,598.5 566.6,598.5 566.6,598.5 566.8,598.5 566.9,598.5 566.9,598.6 566.8,598.9 566.5,599.4 566.0,600.0 565.4,600.7 564.7,601.3 563.8,601.7 562.7,602.0 561.7,602.2 560.7,602.2 559.6,602.0 558.6,601.7 557.5,601.3 556.5,600.8 555.4,600.5 554.4,600.4 553.3,600.4 552.3,600.5 551.2,600.8 550.2,601.0 549.2,601.0 548.1,600.8 547.1,600.8 546.0,600.8 545.0,600.8 544.1,600.8 543.3,600.8 542.7,600.8 542.3,600.8 542.0,600.8 541.8,600.8 541.8,600.8 542.0,600.8 542.3,600.8 542.7,600.8 543.3,600.8 544.1,600.8 544.7,600.8 545.1,600.8 545.4,600.8 545.6,600.8 545.6,600.8 545.4,600.8 545.1,600.8 544.7,600.8 544.4,600.8 544.2,600.7 544.2,600.4 544.4,600.0 544.7,599.4 545.0,598.6 545.1,597.7 545.1,596.7 545.0,595.6 545.0,594.6 545.0,593.5 545.0,592.5 545.0,591.4 545.0,590.4 545.0,589.3 545.0,588.3 545.0,587.3 545.0,586.2 545.0,585.2 545.0,584.1 545.0,583.1 545.0,582.0 545.0,581.0 545.0,579.9 545.0,578.9 545.0,577.8 545.0,576.8 545.0,575.7 545.0,574.7 545.0,573.7 545.0,572.6 545.0,571.6 545.0,570.5 545.0,569.5 545.0,568.4 545.0,567.4 545.0,566.3 545.0,565.3 545.0,564.2 545.0,563.2 545.0,562.2 545.0,561.1 545.0,560.1 545.0,559.0 545.0,558.0 545.0,556.9 545.0,555.9 545.0,554.8 545.0,553.8 545.0,552.7 545.0,551.8 545.0,551.1 545.0,550.5 545.0,550.0 545.0,549.8 545.0,549.6 545.0,549.6 545.0,549.8 545.0,550.0 545.0,550.5 545.0,551.1 545.0,551.8 545.0,552.4 545.0,552.9 545.0,553.2 545.0,553.3 545.0,553.3 545.0,553.2 545.0,552.9 545.0,552.4 545.0,552.1 544.8,551.7 544.5,551.1 544.1,550.3 543.5,549.5 542.7,548.4 541.8,547.4 540.8,546.3 539.7,545.3 538.7,544.2 537.6,543.2 536.6,542.1 535.6,541.1 534.5,540.0 533.5,539.1 532.4,538.4 531.4,537.8 530.3,537.4 529.3,537.1 528.2,536.9 527.2,536.9 526.1,537.1 525.1,537.4 524.1,537.8 523.0,538.4 522.0,539.1 520.9,539.7 519.9,540.2 518.8,540.5 517.8,540.6 516.7,540.6 515.7,540.5 514.6,540.2 513.6,539.7 512.5,539.4 511.5,539.3 510.5,539.3 509.4,539.4 508.4,539.7 507.3,539.9 506.3,539.9 505.2,539.7 504.2,539.7 503.1,539.7 502.1,539.7 501.0,539.7 500.0,539.7 499.0,539.7 497.9,539.7 496.9,539.7 495.8,539.7 494.8,539.7 493.7,539.7 492.7,539.7 491.6,539.7 490.6,539.7 489.5,539.7 488.5,539.7 487.5,539.7 486.4,539.7 485.5,539.7 484.8,539.7 484.2,539.7 483.7,539.7 483.4,539.7 483.3,539.7 483.3,539.7 483.4,539.7 483.7,539.7 484.2,539.7 484.8,539.7 485.5,539.7 486.1,539.7 486.6,539.7 486.9,539.7 487.0,539.7 487.0,539.7 486.9,539.7 486.6,539.7 486.1,539.7 485.8,539.7 485.7,539.7 485.7,539.7 485.8,539.7 486.0,539.7 486.0,539.9 485.8,540.2 485.5,540.6 485.1,541.2 484.5,542.0 483.7,542.9 482.8,543.9 481.8,545.0 480.7,546.0 479.7,547.1 478.6,548.1 477.6,549.2 476.5,550.2 475.5,551.2 474.6,552.3 473.9,553.3 473.3,554.4 472.8,555.4 472.5,556.5 472.4,557.5 472.4,558.6 472.5,559.6 472.8,560.7 473.3,561.7 473.9,562.7 474.6,563.8 475.2,564.8 475.6,565.9 475.9,566.9 476.1,568.0 476.1,569.0 475.9,570.1 475.6,571.1 475.2,572.2 474.9,573.2 474.8,574.3 474.8,575.3 474.9,576.3 474.9,577.4 474.9,578.4 474.9,579.5 474.9,580.5 474.9,581.6 474.9,582.6 474.9,583.7 474.9,584.7 474.9,585.8 474.9,586.8 474.9,587.8 474.9,588.9 474.9,589.9 474.9,591.0 474.9,592.0 474.9,593.1 474.9,594.1 474.9,595.2 474.9,596.2 474.9,597.3 474.9,598.3 474.9,599.4 474.9,600.4 474.9,601.4 474.9,602.5 474.9,603.5 474.9,604.6 474.9,605.6 474.9,606.7 474.9,607.7 474.9,608.8 474.9,609.8 474.9,610.9 474.9,611.9 474.9,612.9 474.9,614.0 474.9,615.0 474.9,616.1 474.9,617.1 474.9,618.2 474.9,619.2 474.9,620.3 474.9,621.3 474.9,622.4 474.9,623.4 474.9,624.5 474.9,625.5 474.9,626.5 474.9,627.6 474.9,628.6 474.9,629.7 474.9,630.7 474.9,631.8 474.9,632.8 474.9,633.7 474.9,634.5 474.9,635.1 474.9,635.5 474.9,635.8 474.9,636.0 474.9,636.0 474.9,635.8 474.9,635.5 474.9,635.1 474.9,634.5 474.9,633.7 474.9,633.1 474.9,632.7 474.9,632.4 474.9,632.2 474.9,632.2 474.9,632.4 474.9,632.7 474.9,633.1 474.9,633.6 474.8,634.2 474.5,634.9 474.0,635.8 473.4,636.9 472.7,637.9 471.8,638.9 470.7,640.0 469.7,641.0 468.6,642.1 467.6,643.1 466.5,644.2 465.5,645.2 464.4,646.3 463.4,647.3 462.4,648.4 461.3,649.4 460.3,650.4 459.2,651.5 458.2,652.5 457.1,653.6 456.1,654.6 455.0,655.5 454.0,656.3 452.9,656.9 451.9,657.3 450.8,657.6 449.8,657.8 448.8,657.8 447.7,657.6 446.7,657.3 445.6,656.9 444.6,656.3 443.5,655.5 442.5,654.6 441.4,653.9 440.4,653.3 439.3,652.8 438.3,652.5 437.3,652.4 436.2,652.4 435.2,652.5 434.1,652.8 433.1,653.3 432.0,653.9 431.0,654.6 429.9,655.2 428.9,655.7 427.8,656.0 426.8,656.1 425.7,656.1 424.7,656.0 423.7,655.7 422.6,655.2 421.6,654.6 420.5,654.2 419.5,653.9 418.4,653.7 417.4,653.7 416.3,653.9 415.3,654.2 414.2,654.6 413.2,654.9 412.2,655.1 411.1,655.1 410.1,654.9 409.0,654.6 408.1,654.5 407.4,654.5 406.8,654.6 406.3,654.6 406.0,654.6 405.9,654.6 405.9,654.6 406.0,654.6 406.3,654.6 406.8,654.6 407.4,654.6 408.1,654.6 408.9,654.6 409.8,654.8 410.8,655.1 411.9,655.5 412.9,656.1 413.9,656.9 415.0,657.8 416.0,658.8 417.1,659.9 418.1,660.9 419.2,662.0 420.2,663.0 421.3,664.0 422.2,665.1 422.9,666.1 423.5,667.2 424.0,668.2 424.3,669.3 424.4,670.3 424.4,671.4 424.3,672.4 424.0,673.5 423.5,674.5 422.9,675.5 422.2,676.6 421.6,677.6 421.1,678.7 420.8,679.7 420.7,680.8 420.7,681.8 420.8,682.9 421.1,683.9 421.6,685.0 421.9,686.0 422.0,687.1 422.0,688.1 421.9,689.0 421.9,689.7 421.9,690.3 421.9,690.8 421.9,691.1 421.9,691.2 421.9,691.2 421.9,691.1 421.9,690.8 421.9,690.3 421.9,689.7 421.9,689.0 421.9,688.4 421.7,687.9 421.6,687.6 421.6,687.5 421.6,687.5 421.6,687.6 421.6,687.9 421.6,688.4 421.6,689.0 421.6,689.7 421.6,690.6 421.6,691.7 421.6,692.7 421.6,693.8 421.6,694.8 421.6,695.9 421.6,696.9 421.6,698.0 421.6,699.0 421.6,700.0 421.6,701.1 421.6,702.1 421.6,703.2 421.6,704.2 421.6,705.3 421.6,706.3 421.6,707.4 421.6,708.4 421.6,709.5 421.6,710.5 421.6,711.4 421.6,712.2 421.6,712.7 421.6,713.2 421.6,713.5 421.6,713.6 421.6,713.6 421.6,713.5 421.6,713.2 421.6,712.7 421.6,712.2 421.6,711.4 421.6,710.8 421.6,710.4 421.6,710.1 421.6,709.9 421.6,709.9 421.6,710.1 421.6,710.4 421.6,710.8 421.6,711.1 421.6,711.3 421.6,711.3 421.6,711.1 421.6,711.0 421.7,710.7 422.0,710.2 422.5,709.6 423.1,708.9 423.8,708.0 424.7,706.9 425.7,706.0 426.8,705.3 427.8,704.7 428.7,704.2 429.5,703.9 430.1,703.8 430.5,703.8 430.8,703.9 431.0,704.2 431.0,704.7 430.8,705.3 430.5,706.0 430.1,706.6 429.5,707.1 428.7,707.4 428.1,707.5 427.7,707.5 427.4,707.4 427.2,707.1 427.2,706.6 427.4,706.2 427.7,705.9 428.1,705.7 428.4,705.7 428.6,705.9 428.6,706.2 428.4,706.3 428.4,706.3 428.4,706.2 428.3,706.2 428.0,706.3 427.5,706.6 426.9,707.1 426.2,707.7 425.3,708.4 424.3,709.0 423.2,709.5 422.2,709.8 421.1,709.9 420.1,709.9 419.0,709.8 418.0,709.5 416.9,709.0 415.9,708.7 414.8,708.6 413.8,708.6 412.7,708.7 411.7,709.0 410.7,709.2 409.6,709.2 408.6,709.0 407.5,709.0 406.5,709.0 405.4,709.0 404.4,709.0 403.3,709.0 402.3,709.0 401.2,709.0 400.2,709.0 399.2,709.0 398.1,709.0 397.1,709.0 396.0,709.0 395.1,709.0 394.4,709.0 393.8,709.0 393.3,709.0 393.0,709.0 392.9,709.0 392.9,709.0 393.0,709.0 393.3,709.0 393.8,709.0 394.4,709.0 395.1,709.0 395.7,709.0 396.2,709.0 396.5,709.0 396.6,709.0 396.6,709.0 396.5,709.0 396.2,709.0 395.7,709.0 395.3,709.0 395.0,709.2 394.8,709.5 394.8,709.9 395.0,710.5 395.3,711.3 395.7,712.2 396.3,713.2 397.1,714.2 398.0,715.3 399.0,716.3 400.0,717.4 401.1,718.4 402.1,719.5 403.2,720.5 404.2,721.6 405.3,722.6 406.2,723.7 406.9,724.7 407.5,725.7 408.0,726.8 408.3,727.8 408.4,728.9 408.4,729.9 408.3,731.0 408.0,732.0 407.5,733.1 406.9,734.1 406.2,735.2 405.6,736.2 405.1,737.3 404.8,738.3 404.7,739.3 404.7,740.4 404.8,741.4 405.1,742.5 405.6,743.5 405.9,744.6 406.0,745.5 406.0,746.2 405.9,746.8 405.6,747.3 405.4,747.6 405.4,747.7 405.6,747.7 405.6,747.6 405.6,747.3 405.6,746.8 405.6,746.2 405.6,745.5 405.6,744.9 405.6,744.4 405.6,744.1 405.6,744.0 405.6,744.0 405.6,744.1 405.6,744.4 405.6,744.9 405.6,745.2 405.6,745.3 405.6,745.3 405.6,745.2 405.6,745.0 405.4,745.0 405.1,745.2 404.7,745.5 404.1,745.9 403.3,746.5 402.4,747.3 401.4,748.2 400.3,748.9 399.3,749.5 398.3,750.0 397.2,750.2 396.2,750.4 395.1,750.4 394.1,750.2 393.0,750.0 392.0,749.5 390.9,748.9 389.9,748.5 388.8,748.2 387.8,748.0 386.8,748.0 385.7,748.2 384.7,748.5 383.6,748.6 382.6,748.6 381.5,748.6 380.5,748.6 379.4,748.6 378.4,748.6 377.3,748.6 376.3,748.6 375.2,748.6 374.2,748.6 373.2,748.6 372.1,748.6 371.1,748.6 370.0,748.6 369.0,748.6 367.9,748.6 366.9,748.6 365.8,748.6 364.8,748.6 363.7,748.6 362.7,748.6 361.7,748.6 360.6,748.6 359.6,748.6 358.5,748.6 357.5,748.6 356.4,748.6 355.4,748.6 354.3,748.6 353.3,748.6 352.2,748.6 351.2,748.6 350.1,748.6 349.1,748.6 348.1,748.6 347.0,748.6 346.0,748.6 344.9,748.6 343.9,748.6 342.8,748.6 341.8,748.6 340.7,748.6 339.7,748.6 338.6,748.6 337.6,748.6 336.6,748.6 335.5,748.6 334.5,748.6 333.4,748.6 332.4,748.6 331.3,748.6 330.3,748.6 329.2,748.6 328.2,748.6 327.1,748.6 326.1,748.6 325.0,748.6 324.0,748.6 323.0,748.6 321.9,748.6 320.9,748.6 319.8,748.6 318.8,748.6 317.7,748.6 316.7,748.6 315.6,748.6 314.6,748.6 313.5,748.6 312.5,748.6 311.5,748.6 310.4,748.6 309.4,748.6 308.3,748.6 307.3,748.6 306.2,748.6 305.2,748.6 304.3,748.6 303.2,748.8 302.2,749.1 301.1,749.5 300.1,750.1 299.2,750.8 298.5,751.7 297.9,752.8 297.4,753.8 297.1,754.9 297.0,755.9 297.0,757.0 297.1,758.0 297.4,759.1 297.9,760.1 298.5,761.2 299.2,762.2 299.8,763.2 300.2,764.3 300.5,765.3 300.7,766.4 300.7,767.4 300.5,768.5 300.2,769.5 299.8,770.6 299.5,771.6 299.4,772.7 299.4,773.7 299.5,774.8 299.5,775.8 299.5,776.8 299.5,777.9 299.5,778.9 299.5,780.0 299.5,781.0 299.5,782.1 299.5,783.1 299.5,784.2 299.5,785.2 299.5,786.3 299.5,787.3 299.5,788.3 299.5,789.4 299.5,790.4 299.5,791.5 299.5,792.5 299.5,793.6 299.5,794.6 299.5,795.7 299.5,796.7 299.5,797.6 299.5,798.4 299.5,799.0 299.5,799.4 299.5,799.7 299.5,799.9 299.5,799.9 299.5,799.7 299.5,799.4 299.5,799.0 299.5,798.4 299.5,797.6 299.5,797.0 299.5,796.6 299.5,796.3 299.5,796.1 299.5,796.1 299.5,796.3 299.5,796.6 299.5,797.0 299.5,797.5 299.4,797.8 299.1,797.9 298.6,797.9 298.0,797.8 297.3,797.5 296.4,797.0 295.3,796.4 294.3,795.7 293.2,794.8 292.2,793.7 291.1,792.7 290.1,791.6 289.2,790.6 288.4,789.5 287.8,788.5 287.4,787.5 287.1,786.4 287.0,785.4 287.0,784.3 287.1,783.3 287.4,782.2 287.8,781.2 288.4,780.1 289.2,779.1 289.8,778.0 290.2,777.0 290.5,775.9 290.7,774.9 290.7,773.9 290.5,772.8 290.2,771.8 289.8,770.7 289.5,769.7 289.3,768.6 289.3,767.6 289.5,766.5 289.6,765.5 289.6,764.4 289.6,763.4 289.6,762.4 289.6,761.3 289.6,760.3 289.6,759.2 289.6,758.2 289.6,757.1 289.6,756.1 289.6,755.0 289.6,754.0 289.6,752.9 289.6,751.9 289.6,750.8 289.6,749.8 289.6,748.8 289.6,747.7 289.6,746.7 289.6,745.6 289.6,744.6 289.6,743.5 289.6,742.5 289.6,741.4 289.6,740.4 289.6,739.3 289.6,738.3 289.6,737.3 289.6,736.2 289.6,735.2 289.6,734.1 289.6,733.1 289.6,732.0 289.6,731.0 289.6,729.9 289.6,728.9 289.6,727.8 289.6,726.8 289.6,725.7 289.6,724.7 289.6,723.7 289.6,722.6 289.6,721.6 289.6,720.5 289.6,719.5 289.6,718.4 289.6,717.4 289.6,716.3 289.6,715.3 289.6,714.2 289.6,713.2 289.6,712.2 289.6,711.1 289.6,710.1 289.6,709.0 289.6,708.0 289.6,706.9 289.6,705.9 289.6,704.8 289.6,703.8 289.6,702.7 289.6,701.7 289.6,700.6 289.6,699.6 289.6,698.6 289.6,697.5 289.6,696.5 289.6,695.4 289.6,694.4 289.6,693.3 289.6,692.3 289.6,691.2 289.6,690.2 289.6,689.1 289.6,688.1 289.6,687.1 289.6,686.0 289.6,685.0 289.6,683.9 289.6,682.9 289.6,681.8 289.6,680.8 289.6,679.7 289.6,678.7 289.8,677.6 290.1,676.6 290.5,675.5 291.1,674.5 291.9,673.5 292.8,672.4 293.8,671.4 294.9,670.3 295.9,669.3 297.0,668.4 298.0,667.6 299.1,667.0 300.1,666.6 301.1,666.3 302.2,666.1 303.2,666.1 304.3,666.3 305.3,666.6 306.4,667.0 307.4,667.6 308.5,668.4 309.5,669.0 310.6,669.4 311.6,669.7 312.6,669.9 313.7,669.9 314.7,669.7 315.8,669.4 316.8,669.0 317.9,668.4 318.9,667.9 320.0,667.6 320.9,667.5 321.6,667.5 322.2,667.6 322.7,667.9 323.0,668.4 323.1,668.7 323.1,668.8 323.0,668.8 322.7,668.7 322.2,668.4 321.6,668.2 320.9,668.2 320.3,668.4 319.8,668.4 319.5,668.4 319.4,668.4 319.4,668.4 319.5,668.4 319.8,668.4 320.3,668.4 320.9,668.4 321.6,668.2 322.5,667.9 323.6,667.5 324.6,666.9 325.6,666.1 326.7,665.2 327.7,664.2 328.8,663.1 329.8,662.1 330.9,661.1 331.9,660.0 332.8,659.0 333.6,657.9 334.2,656.9 334.6,655.8 334.9,654.8 335.1,653.7 335.1,652.7 334.9,651.6 334.6,650.6 334.2,649.6 333.6,648.5 332.8,647.5 332.2,646.4 331.8,645.4 331.5,644.3 331.3,643.3 331.3,642.2 331.5,641.2 331.8,640.1 332.2,639.1 332.8,638.0 333.3,637.0 333.6,636.0 333.7,634.9 333.7,633.9 333.6,632.8 333.3,631.8 332.8,630.9 332.5,630.1 332.4,629.5 332.4,629.1 332.5,628.8 332.8,628.6 333.0,628.6 333.0,628.8 332.8,629.1 332.8,629.5 332.8,630.1 332.8,630.9 332.8,631.5 332.7,632.2 332.4,633.1 331.9,634.2 331.3,635.2 330.6,636.3 329.7,637.3 328.6,638.3 327.6,639.4 326.5,640.4 325.5,641.5 324.5,642.5 323.4,643.6 322.4,644.6 321.3,645.7 320.3,646.7 319.2,647.6 318.2,648.4 317.1,649.0 316.1,649.4 315.0,649.7 314.0,649.9 312.9,649.9 311.9,649.7 310.9,649.4 309.8,649.0 308.8,648.4 307.7,647.6 306.7,647.0 305.6,646.6 304.6,646.3 303.5,646.1 302.5,646.1 301.4,646.3 300.4,646.6 299.4,647.0 298.3,647.3 297.3,647.5 296.2,647.5 295.2,647.3 294.1,647.2 293.1,647.2 292.0,647.2 291.0,647.2 289.9,647.2 288.9,647.2 287.8,647.2 286.8,647.2 285.8,647.2 284.7,647.2 283.7,647.2 282.6,647.2 281.6,647.2 280.5,647.2 279.5,647.2 278.4,647.2 277.4,647.2 276.3,647.2 275.3,647.2 274.3,647.2 273.2,647.2 272.2,647.2 271.1,647.2 270.1,647.2 269.0,647.2 268.0,647.2 266.9,647.2 265.9,647.2 264.8,647.2 263.8,647.2 262.7,647.2 261.7,647.2 260.7,647.2 259.6,647.2 258.6,647.2 257.5,647.2 256.5,647.2 255.4,647.2 254.4,647.2 253.3,647.2 252.3,647.2 251.2,647.2 250.2,647.2 249.2,647.2 248.1,647.2 247.1,647.2 246.0,647.2 245.0,647.2 243.9,647.2 242.9,647.2 241.8,647.2 240.8,647.2 239.7,647.2 238.7,647.2 237.6,647.2 236.8,647.2 236.0,647.2 235.4,647.2 235.0,647.2 234.7,647.2 234.5,647.2 234.5,647.2 234.7,647.2 235.0,647.2 235.4,647.2 236.0,647.2 236.8,647.2 237.4,647.2 237.8,647.3 238.1,647.6 238.2,648.1 238.2,648.7 238.1,649.4 237.8,650.3 237.4,651.3 236.8,652.4 236.0,653.4 235.1,654.5 234.1,655.5 233.0,656.6 232.0,657.6 230.9,658.7 229.9,659.7 228.8,660.8 227.8,661.8 226.7,662.8 225.7,663.9 224.7,664.9 223.6,666.0 222.6,667.0 221.5,668.1 220.5,669.1 219.4,670.2 218.4,671.2 217.3,672.3 216.4,673.3 215.7,674.4 215.1,675.2 214.6,676.0 214.3,676.6 214.2,677.0 214.2,677.3 214.3,677.5 214.6,677.5 215.1,677.3 215.7,677.0 216.4,676.6 217.0,676.0 217.5,675.2 217.8,674.7 217.9,674.2 217.9,673.9 217.8,673.8 217.5,673.8 217.0,673.9 216.6,674.2 216.3,674.7 216.1,675.2 216.1,675.7 216.3,676.0 216.6,676.1 216.7,676.1 216.7,676.0 216.6,675.7 216.6,675.2 216.4,675.0 216.1,674.8 215.7,674.8 215.1,675.0 214.3,675.2 213.4,675.7 212.4,676.3 211.4,677.0 210.3,677.9 209.3,679.0 208.2,680.0 207.3,681.1 206.6,682.1 206.0,683.2 205.5,684.2 205.2,685.3 205.1,686.3 205.1,687.4 205.2,688.4 205.5,689.4 206.0,690.5 206.6,691.5 207.3,692.6 207.9,693.6 208.4,694.7 208.7,695.7 208.8,696.8 208.8,697.8 208.7,698.9 208.4,699.9 207.9,700.9 207.5,702.0 207.2,703.0 207.0,704.1 207.0,705.1 207.2,706.2 207.5,707.2 207.6,708.3 207.6,709.3 207.5,710.4 207.5,711.4 207.5,712.5 207.5,713.5 207.5,714.5 207.5,715.6 207.5,716.6 207.5,717.7 207.5,718.7 207.5,719.8 207.5,720.8 207.5,721.9 207.5,722.9 207.5,724.0 207.5,725.0 207.5,726.0 207.5,727.1 207.5,728.1 207.5,729.2 207.5,730.2 207.5,731.3 207.5,732.3 207.5,733.4 207.5,734.4 207.5,735.5 207.5,736.5 207.5,737.5 207.5,738.6 207.5,739.6 207.5,740.7 207.5,741.7 207.5,742.8 207.5,743.8 207.5,744.9 207.5,745.9 207.5,747.0 207.5,748.0 207.5,749.1 207.5,750.1 207.5,751.1 207.5,752.2 207.5,753.2 207.5,754.3 207.5,755.3 207.5,756.2 207.5,757.0 207.5,757.6 207.5,758.0 207.5,758.3 207.5,758.5 207.5,758.5 207.5,758.3 207.5,758.0 207.5,757.6 207.5,757.0 207.5,756.2 207.5,755.5 207.3,754.6 207.0,753.5 206.6,752.5 206.0,751.4 205.2,750.4 204.3,749.4 203.3,748.3 202.4,747.3 201.6,746.2 201.0,745.2 200.6,744.1 200.3,743.1 200.1,742.0 200.1,741.0 200.3,739.9 200.6,738.9 201.0,737.8 201.6,736.8 202.4,735.8 203.0,734.7 203.4,733.7 203.7,732.6 203.9,731.6 203.9,730.5 203.7,729.5 203.4,728.4 203.0,727.4 202.5,726.3 202.2,725.3 202.1,724.3 202.1,723.2 202.2,722.2 202.5,721.1 202.7,720.1 202.7,719.0 202.5,718.0 202.5,716.9 202.5,715.9 202.5,714.8 202.5,713.8 202.5,712.7 202.5,711.7 202.5,710.7 202.5,709.6 202.5,708.6 202.5,707.5 202.5,706.5 202.5,705.4 202.5,704.4 202.5,703.3 202.5,702.3 202.5,701.2 202.5,700.2 202.5,699.2 202.5,698.1 202.5,697.1 202.5,696.0 202.5,695.0 202.5,693.9 202.5,692.9 202.5,691.8 202.5,690.8 202.5,689.7 202.5,688.7 202.5,687.6 202.5,686.6 202.5,685.6 202.5,684.5 202.5,683.5 202.5,682.4 202.5,681.4 202.5,680.3 202.5,679.3 202.5,678.2 202.5,677.2 202.5,676.1 202.5,675.1 202.5,674.1 202.5,673.0 202.5,672.0 202.5,670.9 202.5,669.9 202.5,668.8 202.5,667.8 202.5,666.7 202.5,665.7 202.5,664.6 202.5,663.6 202.5,662.5 202.5,661.5 202.5,660.5 202.5,659.4 202.5,658.4 202.5,657.3 202.5,656.3 202.5,655.2 202.5,654.2 202.5,653.1 202.5,652.1 202.5,651.0 202.5,650.0 202.5,649.0 202.5,647.9 202.5,646.9 202.5,645.8 202.5,644.8 202.5,643.7 202.5,642.7 202.5,641.6 202.5,640.6 202.5,639.5 202.5,638.5 202.5,637.5 202.5,636.4 202.5,635.4 202.5,634.3 202.5,633.3 202.5,632.2 202.5,631.2 202.5,630.1 202.5,629.1 202.5,628.0 202.5,627.0 202.5,625.9 202.5,624.9 202.5,623.9 202.5,622.8 202.5,621.8 202.5,620.7 202.5,619.7 202.5,618.6 202.5,617.6 202.5,616.5 202.5,615.5 202.5,614.4 202.5,613.4 202.5,612.4 202.5,611.3 202.5,610.3 202.5,609.2 202.5,608.2 202.5,607.1 202.5,606.1 202.5,605.0 202.5,604.0 202.5,602.9 202.5,601.9 202.5,600.8 202.5,599.8 202.5,598.8 202.5,597.7 202.5,596.7 202.5,595.6 202.5,594.6 202.5,593.5 202.5,592.5 202.5,591.4 202.5,590.4 202.5,589.3 202.5,588.3 202.5,587.3 202.5,586.2 202.5,585.2 202.5,584.1 202.5,583.1 202.5,582.0 202.5,581.0 202.5,580.1 202.5,579.3 202.5,578.7 202.5,578.3 202.5,578.0 202.5,577.8 202.5,577.8 202.5,578.0 202.5,578.3 202.5,578.7 202.5,579.3 202.5,580.1 202.5,580.7 202.5,581.1 202.5,581.4 202.5,581.6 202.5,581.6 202.5,581.4 202.5,581.1 202.5,580.7 202.5,580.4 202.5,580.2 202.5,580.2 202.5,580.4 202.5,580.5 202.7,580.5 203.0,580.4 203.4,580.1 204.0,579.6 204.8,579.0 205.7,578.3 206.7,577.4 207.8,576.3 208.8,575.3 209.9,574.3 210.9,573.4 212.0,572.6 213.0,572.0 214.0,571.6 215.1,571.3 216.1,571.1 217.2,571.1 218.2,571.3 219.3,571.6 220.3,572.0 221.4,572.6 222.4,573.4 223.5,574.3 224.5,575.0 225.5,575.6 226.6,576.0 227.6,576.3 228.7,576.5 229.7,576.5 230.8,576.3 231.8,576.0 232.9,575.6 233.9,575.0 235.0,574.3 236.0,573.7 237.1,573.2 238.1,572.9 239.1,572.8 240.2,572.8 241.2,572.9 242.1,573.2 242.9,573.7 243.5,574.3 243.9,574.7 244.2,575.0 244.4,575.1 244.4,575.1 244.2,575.0 243.9,574.7 243.5,574.3 242.9,574.0 242.1,573.8 241.5,573.8 241.1,574.0 240.8,574.3 240.6,574.4 240.6,574.4 240.8,574.3 241.1,574.3 241.5,574.3 241.8,574.3 242.3,574.4 242.9,574.7 243.6,575.1 244.5,575.4 245.6,575.6 246.6,575.6 247.7,575.4 248.7,575.3 249.8,575.3 250.8,575.3 251.8,575.3 252.9,575.3 253.9,575.3 255.0,575.3 256.0,575.3 257.1,575.3 258.1,575.3 259.2,575.3 260.2,575.3 261.3,575.3 262.3,575.3 263.3,575.3 264.4,575.3 265.4,575.3 266.5,575.3 267.5,575.3 268.6,575.3 269.6,575.3 270.7,575.3 271.7,575.3 272.8,575.3 273.8,575.3 274.9,575.3 275.9,575.3 276.9,575.3 277.8,575.3 278.6,575.1 279.2,574.9 279.6,574.4 279.9,573.8 280.1,573.1 280.1,572.2 279.9,571.1 279.6,570.1 279.2,569.0 278.6,568.0 277.8,566.9 276.9,565.9 275.9,564.8 274.9,563.8 273.8,562.7 272.8,561.7 271.7,560.7 270.7,559.6 269.6,558.7 268.6,558.0 267.5,557.4 266.5,556.9 265.4,556.6 264.5,556.5 263.8,556.5 263.2,556.6 262.7,556.9 262.5,557.4 262.3,558.0 262.3,558.7 262.5,559.3 262.7,559.8 263.2,560.1 263.8,560.2 264.5,560.2 265.4,560.1 266.2,559.8 266.8,559.3 267.2,559.0 267.5,558.9 267.7,558.9 267.7,559.0 267.5,559.0 267.2,559.0 266.8,559.0 266.2,559.0 265.4,559.0 264.5,558.9 263.5,558.6 262.5,558.1 261.4,557.5 260.4,556.8 259.3,555.9 258.3,554.8 257.2,553.8 256.2,552.7 255.1,551.7 254.1,550.6 253.0,549.6 252.0,548.6 250.9,547.5 249.9,546.5 248.9,545.4 247.8,544.5 246.8,543.8 245.7,543.2 244.7,542.7 243.6,542.4 242.6,542.3 241.5,542.3 240.5,542.4 239.4,542.7 238.4,543.2 237.4,543.8 236.3,544.5 235.3,545.1 234.2,545.6 233.2,545.9 232.1,546.0 231.1,546.0 230.0,545.9 229.0,545.6 227.9,545.1 226.9,544.5 225.8,544.1 224.8,543.8 223.8,543.6 222.7,543.6 221.7,543.8 220.6,544.1 219.6,544.5 218.5,544.8 217.5,545.0 216.4,545.0 215.4,544.8 214.3,544.5 213.3,544.4 212.4,544.4 211.7,544.5 211.1,544.5 210.6,544.5 210.3,544.5 210.2,544.5 210.2,544.5 210.3,544.5 210.6,544.5 211.1,544.5 211.7,544.5 212.4,544.5 213.3,544.5 214.3,544.4 215.4,544.1 216.4,543.6 217.5,543.0 218.5,542.3 219.6,541.4 220.6,540.3 221.7,539.3 222.7,538.2 223.8,537.2 224.8,536.2 225.8,535.1 226.9,534.1 227.9,533.0 229.0,532.0 230.0,530.9 231.1,529.9 232.0,528.8 232.7,527.8 233.3,526.7 233.8,525.7 234.1,524.7 234.2,523.6 234.2,522.6 234.1,521.5 233.8,520.5 233.3,519.4 232.7,518.4 232.0,517.3 231.2,516.4 230.6,515.7 230.2,515.1 229.9,514.6 229.7,514.3 229.7,514.2 229.9,514.2 230.2,514.3 230.6,514.6 231.2,515.1 231.7,515.7 232.0,516.4 232.1,517.2 232.1,517.8 232.0,518.2 231.7,518.5 231.2,518.7 230.9,518.7 230.8,518.5 230.8,518.2 230.9,517.8 231.2,517.2 231.4,516.4 231.4,515.5 231.2,514.5 230.9,513.4 230.5,512.4 229.9,511.4 229.1,510.3 228.2,509.3 227.2,508.2 226.1,507.2 225.1,506.1 224.1,505.1 223.0,504.0 222.0,503.0 220.9,501.9 219.9,500.9 218.8,499.9 217.8,498.8 216.7,497.8 215.7,496.7 214.6,495.7 213.6,494.6 212.5,493.6 211.5,492.5 210.5,491.5 209.4,490.4 208.4,489.4 207.3,488.3 206.3,487.3 205.2,486.3 204.2,485.2 203.1,484.2 202.2,483.1 201.5,482.1 200.9,481.0 200.4,480.0 200.1,478.9 200.0,477.9 200.0,477.0 200.1,476.2 200.4,475.6 200.9,475.2 201.5,474.9 202.2,474.8 202.8,474.8 203.3,474.9 203.6,475.2 203.7,475.6 203.7,476.2 203.6,477.0 203.3,477.6 202.8,478.0 202.5,478.3 202.4,478.5 202.4,478.5 202.5,478.3 202.8,478.0 203.0,477.6 203.0,477.1 202.8,476.8 202.8,476.7 202.8,476.7 202.8,476.8 202.8,477.1 202.7,477.3 202.4,477.3 201.9,477.1 201.3,476.8 200.9,476.4 200.6,475.8 200.4,475.0 200.4,474.2 200.6,473.1 200.9,472.1 201.3,471.0 201.6,470.0 201.8,468.9 201.8,467.9 201.6,466.8 201.3,465.8 201.2,464.7 201.2,463.7 201.3,462.6 201.3,461.6 201.3,460.6 201.3,459.5 201.3,458.5 201.3,457.4 201.3,456.4 201.3,455.3 201.3,454.3 201.3,453.2 201.3,452.2 201.3,451.1 201.3,450.1 201.3,449.1 201.3,448.0 201.3,447.0 201.3,445.9 201.3,444.9 201.3,443.8 201.3,442.8 201.3,441.7 201.3,440.7 201.3,439.6 201.3,438.6 201.3,437.5 201.3,436.5 201.3,435.5 201.3,434.4 201.3,433.4 201.3,432.3 201.3,431.3 201.3,430.2 201.3,429.2 201.3,428.1 201.3,427.1 201.3,426.0 201.3,425.0 201.3,424.0 201.3,422.9 201.3,421.9 201.3,421.0 201.3,420.2 201.3,419.6 201.3,419.2 201.3,418.9 201.3,418.7 201.3,418.7 201.3,418.9 201.3,419.2 201.3,419.6 201.3,420.2 201.3,421.0 201.3,421.6 201.3,422.0 201.3,422.3 201.3,422.5 201.3,422.5 201.3,422.3 201.3,422.0 201.3,421.6 201.3,421.3 201.3,421.1 201.3,421.1 201.3,421.3 201.3,421.4 201.5,421.7 201.8,422.2 202.2,422.8 202.8,423.5 203.6,424.4 204.5,425.4 205.5,426.5 206.6,427.5 207.6,428.6 208.7,429.6 209.7,430.7 210.8,431.7 211.8,432.8 212.8,433.8 213.9,434.9 214.9,435.9 216.0,437.0 217.0,438.0 218.1,439.0 219.1,440.1 220.2,441.1 221.2,442.2 222.3,443.2 223.3,444.3 224.4,445.3 225.4,446.4 226.4,447.4 227.5,448.5 228.5,449.5 229.6,450.5 230.6,451.6 231.7,452.6 232.7,453.7 233.8,454.7 234.8,455.8 235.9,456.8 236.9,457.9 237.9,458.9 239.0,460.0 240.0,461.0 241.1,462.1 242.1,463.1 243.2,464.1 244.2,465.2 245.3,466.2 246.3,467.3 247.4,468.3 248.4,469.2 249.5,470.0 250.5,470.6 251.5,471.0 252.6,471.3 253.6,471.5 254.7,471.5 255.7,471.3 256.8,471.0 257.8,470.6 258.9,470.0 259.9,469.2 261.0,468.3 262.0,467.6 263.0,467.0 264.1,466.5 265.1,466.2 266.2,466.1 267.2,466.1 268.3,466.2 269.3,466.5 270.4,467.0 271.4,467.6 272.5,468.3 273.5,468.9 274.6,469.4 275.6,469.7 276.6,469.8 277.7,469.8 278.7,469.7 279.8,469.4 280.8,468.9 281.9,468.3 282.9,467.9 284.0,467.6 285.0,467.4 286.1,467.4 287.1,467.6 288.1,467.9 289.2,468.3 290.2,468.6 291.3,468.8 292.3,468.8 293.4,468.6 294.4,468.3 295.5,468.2 296.5,468.2 297.6,468.3 298.6,468.3 299.7,468.3 300.7,468.3 301.7,468.3 302.8,468.3 303.8,468.3 304.9,468.3 305.9,468.3 307.0,468.3 308.0,468.3 309.1,468.3 310.1,468.3 311.2,468.3 312.2,468.3 313.2,468.3 314.3,468.3 315.3,468.3 316.4,468.3 317.4,468.3 318.5,468.3 319.5,468.3 320.6,468.3 321.6,468.3 322.7,468.3 323.7,468.3 324.8,468.3 325.8,468.3 326.8,468.3 327.9,468.3 328.9,468.3 330.0,468.3 331.0,468.3 332.1,468.3 333.1,468.3 334.2,468.3 335.2,468.3 336.3,468.3 337.3,468.3 338.3,468.3 339.4,468.3 340.4,468.3 341.5,468.3 342.5,468.3 343.6,468.3 344.6,468.3 345.7,468.3 346.7,468.3 347.8,468.3 348.8,468.3 349.9,468.3 350.9,468.3 351.9,468.3 353.0,468.3 354.0,468.3 355.1,468.3 356.1,468.3 357.2,468.3 358.2,468.3 359.3,468.3 360.3,468.3 361.4,468.3 362.4,468.3 363.4,468.3 364.5,468.3 365.5,468.3 366.6,468.3 367.6,468.3 368.7,468.3 369.7,468.3 370.8,468.3 371.8,468.3 372.9,468.3 373.9,468.3 375.0,468.3 376.0,468.3 377.0,468.3 378.1,468.3 379.1,468.3 380.2,468.3 381.2,468.3 382.1,468.3 382.9,468.5 383.5,468.8 383.9,469.2 384.2,469.8 384.4,470.6 384.4,471.5 384.2,472.5 383.9,473.6 383.5,474.6 382.9,475.6 382.1,476.7 381.2,477.7 380.2,478.8 379.1,479.8 378.1,480.9 377.0,481.9 376.0,483.0 375.0,484.0 373.9,485.1 372.9,486.1 371.8,487.2 370.8,488.2 369.7,489.2 368.7,490.3 367.8,491.3 367.0,492.4 366.4,493.4 366.0,494.5 365.7,495.5 365.5,496.6 365.5,497.6 365.7,498.7 366.0,499.7 366.4,500.7 367.0,501.8 367.8,502.8 368.4,503.9 368.8,504.9 369.1,506.0 369.3,507.0 369.3,508.1 369.1,509.1 368.8,510.2 368.4,511.2 367.9,512.3 367.6,513.3 367.5,514.3 367.5,515.2 367.6,516.0 367.9,516.6 368.1,517.0 368.1,517.3 367.9,517.5 367.9,517.5 367.9,517.3 367.9,517.0 367.9,516.6 367.9,516.0 367.9,515.2 367.9,514.6 368.1,513.9 368.4,513.0 368.8,512.0 369.4,510.9 370.2,509.9 371.1,508.8 372.1,507.8 373.2,506.7 374.2,505.7 375.2,504.6 376.3,503.6 377.3,502.5 378.4,501.5 379.4,500.4 380.5,499.4 381.5,498.4 382.6,497.3 383.6,496.3 384.7,495.2 385.7,494.2 386.8,493.1 387.8,492.1 388.8,491.0 389.9,490.0 390.9,488.9 392.0,487.9 393.0,486.9 394.1,485.8 395.1,484.8 396.2,483.7 397.2,482.7 398.3,481.6 399.3,480.6 400.3,479.5 401.4,478.5 402.4,477.4 403.5,476.4 404.5,475.3 405.6,474.3 406.6,473.3 407.7,472.2 408.7,471.2 409.8,470.1 410.8,469.1 411.9,468.0 412.9,467.0 413.9,465.9 415.0,464.9 416.0,463.8 417.1,462.8 418.1,461.8 419.2,460.7 420.2,459.7 421.3,458.6 422.3,457.6 423.4,456.5 424.4,455.5 425.4,454.4 426.5,453.4 427.5,452.3 428.6,451.3 429.6,450.2 430.7,449.2 431.7,448.2 432.8,447.1 433.8,446.1 434.9,445.0 435.9,444.0 437.0,442.9 438.0,441.9 439.0,440.8 440.1,439.8 441.1,438.7 442.2,437.7 443.2,436.7 444.3,435.6 445.3,434.6 446.4,433.5 447.4,432.5 448.5,431.4 449.5,430.4 450.5,429.3 451.6,428.3 452.6,427.2 453.7,426.2 454.7,425.1 455.8,424.1 456.8,423.1 457.9,422.0 458.9,421.0 460.0,419.9 461.0,418.9 462.1,417.8 463.1,416.8 464.1,415.9 465.2,415.1 466.2,414.5 467.3,414.1 468.3,413.8 469.4,413.6 470.4,413.6 471.5,413.8 472.5,414.1 473.6,414.5 474.6,415.1 475.6,415.9 476.7,416.5 477.7,416.9 478.8,417.2 479.8,417.4 480.7,417.4 481.5,417.2 482.1,416.9 482.5,416.5 482.8,416.2 483.0,416.0 483.0,416.0 482.8,416.2 482.5,416.3 482.1,416.3 481.5,416.3 480.7,416.3 479.8,416.3 479.1,416.5 478.5,416.8 478.0,417.2 477.7,417.8 477.6,418.6 477.6,419.2 477.7,419.6 478.0,419.9 478.5,420.1 479.1,420.1 479.8,419.9 480.7,419.6 481.8,419.2 482.8,418.9 483.9,418.7 484.9,418.7 486.0,418.9 487.0,419.2 488.0,419.3 489.1,419.3 490.0,419.2 490.7,419.2 491.3,419.2 491.8,419.2 492.1,419.2 492.2,419.2 492.2,419.2 492.1,419.2 491.8,419.2 491.3,419.2 490.7,419.2 490.0,419.2 489.2,419.2 488.3,419.0 487.3,418.7 486.4,418.3 485.7,417.7 485.1,416.9 484.6,416.0 484.3,415.0 484.2,413.9 484.2,412.9 484.3,411.9 484.6,410.8 485.1,409.8 485.7,408.7 486.4,407.7 487.0,406.6 487.5,405.6 487.7,404.5 487.9,403.5 487.9,402.4 487.7,401.4 487.5,400.3 487.0,399.3 486.4,398.3 486.0,397.2 485.7,396.2 485.5,395.1 485.5,394.1 485.7,393.0 486.0,392.0 486.4,390.9 486.7,389.9 486.9,388.8 486.9,387.8 486.7,386.8 486.4,385.7 486.3,384.7 486.3,383.6 486.4,382.6 486.4,381.5 486.4,380.5 486.4,379.4 486.4,378.4 486.4,377.3 486.4,376.3 486.4,375.2 486.4,374.2 486.4,373.2 486.4,372.1 486.4,371.1 486.4,370.0 486.4,369.0 486.4,367.9 486.4,366.9 486.4,365.8 486.4,364.8 486.4,363.7 486.4,362.7 486.4,361.7 486.4,360.6 486.4,359.6 486.4,358.5 486.4,357.5 486.4,356.4 486.4,355.4 486.3,354.3 486.0,353.3 485.5,352.2 484.9,351.2 484.2,350.1 483.3,349.1 482.2,348.1 481.2,347.0 480.1,346.0 479.1,344.9 478.0,343.9 477.0,342.8 475.9,341.8 474.9,340.7 473.9,339.7 472.8,338.6 471.8,337.6 470.7,336.6 469.7,335.5 468.6,334.5 467.6,333.4 466.5,332.4 465.5,331.3 464.4,330.3 463.4,329.2 462.4,328.2 461.3,327.1 460.3,326.1 459.2,325.0 458.2,324.0 457.1,323.0 456.1,321.9 455.0,320.9 454.0,319.8 452.9,318.8 451.9,317.9 450.8,317.1 449.8,316.5 448.8,316.1 447.7,315.8 446.7,315.6 445.6,315.6 444.6,315.8 443.5,316.1 442.5,316.5 441.4,317.1 440.4,317.9 439.3,318.5 438.3,318.9 437.3,319.2 436.2,319.4 435.2,319.4 434.1,319.2 433.1,318.9 432.0,318.5 431.0,317.9 429.9,317.4 428.9,317.1 427.8,317.0 426.8,317.0 425.9,317.1 425.1,317.4 424.6,317.9 424.1,318.2 423.8,318.3 423.7,318.3 423.7,318.2 423.8,317.9 424.1,317.7 424.6,317.7 425.1,317.9 425.9,317.9 426.8,317.9 427.8,318.0 428.9,318.3 429.9,318.8 431.0,319.4 432.0,320.1 433.1,321.0 434.1,322.1 435.2,323.1 436.2,324.2 437.3,325.2 438.3,326.2 439.3,327.3 440.4,328.3 441.4,329.4 442.5,330.4 443.5,331.5 444.6,332.5 445.6,333.6 446.7,334.6 447.7,335.7 448.8,336.7 449.8,337.7 450.8,338.8 451.9,339.8 452.9,340.9 454.0,341.9 455.0,343.0 456.1,344.0 457.1,345.1 458.2,346.1 459.2,347.2 460.3,348.1 461.3,348.8 462.4,349.4 463.4,349.9 464.4,350.1 465.5,350.3 466.5,350.3 467.6,350.1 468.6,349.9 469.7,349.4 470.7,348.8 471.8,348.1 472.8,347.3 473.9,346.7 474.9,346.3 475.9,346.0 477.0,345.8 478.0,345.8 479.1,346.0 480.1,346.3 481.2,346.7 482.2,347.3 483.3,347.8 484.3,348.1 485.4,348.2 486.4,348.2 487.5,348.1 488.5,347.8 489.5,347.3 490.6,347.0 491.6,346.9 492.7,346.9 493.7,347.0 494.8,347.3 495.8,347.5 496.9,347.5 497.9,347.3 499.0,347.3 500.0,347.3 501.0,347.3 502.1,347.3 503.1,347.3 504.2,347.3 505.2,347.3 506.3,347.3 507.3,347.3 508.4,347.3 509.4,347.3 510.5,347.3 511.5,347.3 512.5,347.3 513.6,347.3 514.6,347.3 515.7,347.3 516.7,347.3 517.8,347.3 518.8,347.3 519.9,347.3 520.9,347.3 522.0,347.3 523.0,347.3 524.1,347.3 525.1,347.3 526.1,347.3 527.2,347.3 528.2,347.3 529.3,347.3 530.3,347.3 531.4,347.3 532.4,347.3 533.5,347.3 534.5,347.3 535.6,347.3 536.6,347.3 537.6,347.3 538.7,347.3 539.7,347.3 540.8,347.3 541.8,347.3 542.9,347.3 543.9,347.3 545.0,347.3 546.0,347.3 547.1,347.3 548.1,347.3 549.2,347.3 550.2,347.3 551.2,347.3 552.3,347.3 553.3,347.3 554.4,347.3 555.4,347.3 556.5,347.3 557.5,347.3 558.6,347.3 559.6,347.3 560.7,347.3 561.7,347.3 562.7,347.3 563.8,347.3 564.8,347.3 565.9,347.3 566.9,347.3 568.0,347.3 569.0,347.3 570.1,347.3 571.1,347.3 572.2,347.3 573.2,347.3 574.3,347.3 575.3,347.3 576.3,347.3 577.4,347.3 578.4,347.3 579.5,347.3 580.5,347.3 581.6,347.3 582.6,347.3 583.7,347.3 584.7,347.3 585.8,347.3 586.8,347.3 587.8,347.3 588.9,347.3 589.9,347.3 591.0,347.3 592.0,347.3 593.1,347.3 594.1,347.3 595.2,347.3 596.2,347.3 597.3,347.3 598.3,347.3 599.4,347.3 600.4,347.3 601.4,347.3 602.5,347.3 603.5,347.3 604.6,347.3 605.6,347.3 606.7,347.3 607.7,347.3 608.8,347.3 609.8,347.3 610.9,347.3 611.9,347.3 612.9,347.3 614.0,347.3 615.0,347.3 616.1,347.3 617.1,347.3 618.2,347.3 619.2,347.3 620.3,347.3 621.3,347.3 622.4,347.3 623.4,347.3 624.5,347.3 625.5,347.3 626.5,347.3 627.6,347.3 628.6,347.3 629.7,347.3 630.7,347.3 631.8,347.3 632.8,347.3 633.9,347.3 634.9,347.3 636.0,347.3 637.0,347.3 638.0,347.3 639.1,347.3 640.1,347.3 641.2,347.3 642.2,347.3 643.3,347.3 644.3,347.3 645.4,347.3 646.4,347.3 647.5,347.3 648.5,347.3 649.6,347.3 650.6,347.3 651.6,347.3 652.7,347.3 653.7,347.3 654.8,347.3 655.8,347.3 656.9,347.3 657.9,347.3 659.0,347.3 660.0,347.3 661.1,347.3 662.1,347.3 663.1,347.3 664.2,347.3 665.2,347.3 666.3,347.3 667.3,347.3 668.4,347.3 669.4,347.3 670.5,347.3 671.5,347.3 672.6,347.3 673.6,347.3 674.7,347.3 675.7,347.3 676.7,347.3 677.8,347.3 678.8,347.3 679.9,347.3 680.9,347.3 682.0,347.3 683.0,347.3 684.1,347.3 685.1,347.3 686.2,347.3 687.2,347.3 688.2,347.3 689.3,347.3 690.3,347.3 691.4,347.3 692.4,347.3 693.5,347.3 694.5,347.3 695.6,347.3 696.6,347.3 697.7,347.3 698.7,347.3 699.8,347.3 700.8,347.3 701.8,347.3 702.9,347.3 703.9,347.3 705.0,347.3 706.0,347.3 707.1,347.3 708.1,347.3 709.2,347.3 710.2,347.3 711.3,347.3 712.3,347.3 713.3,347.3 714.4,347.3 715.4,347.3 716.5,347.3 717.5,347.3 718.6,347.3 719.6,347.3 720.7,347.3 721.7,347.3 722.8,347.3 723.8,347.3 724.9,347.3 725.9,347.3 726.9,347.3 728.0,347.3 729.0,347.3 730.1,347.3 731.1,347.3 732.2,347.3 733.2,347.3 734.3,347.3 735.3,347.3 736.4,347.3 737.4,347.3 738.4,347.3 739.5,347.3 740.5,347.3 741.6,347.3 742.6,347.3 743.7,347.3 744.7,347.3 745.8,347.3 746.8,347.3 747.9,347.3 748.9,347.3 750.0,347.3 750.8,347.3 751.6,347.3 752.2,347.3 752.6,347.3 752.9,347.3 753.1,347.3 753.1,347.3 752.9,347.3 752.6,347.3 752.2,347.3 751.6,347.3 750.8,347.3 750.2,347.3 749.8,347.3 749.5,347.3 749.4,347.3 749.4,347.3 749.5,347.3 749.8,347.3 750.2,347.3 750.5,347.3 750.7,347.3 750.7,347.3 750.5,347.3 750.4,347.3 750.4,347.5 750.5,347.8 750.8,348.2 751.3,348.8 751.9,349.6 752.6,350.4 753.5,351.5 754.6,352.5 755.6,353.6 756.7,354.6 757.7,355.7 758.8,356.7 759.8,357.8 760.9,358.8 761.9,359.9 762.9,360.9 764.0,362.0 765.0,363.0 766.1,364.0 767.1,365.1 768.2,366.1 769.2,367.2 770.3,368.2 771.3,369.3 772.4,370.3 773.4,371.4 774.5,372.4 775.5,373.5 776.5,374.5 777.6,375.5 778.6,376.4 779.5,377.2 780.3,377.8 780.9,378.2 781.3,378.5 781.6,378.7 781.8,378.7 781.8,378.5 781.6,378.2 781.3,377.8 780.9,377.2 780.3,376.4 779.5,375.5 778.9,374.8 778.5,374.2 778.2,373.8 778.0,373.5 778.0,373.3 778.2,373.3 778.5,373.5 778.9,373.8 779.4,374.2 779.7,374.8 779.8,375.5 779.8,376.1 779.7,376.6 779.4,376.9 779.2,377.0 779.2,377.0 779.4,376.9 779.4,376.6 779.4,376.1 779.4,375.5 779.2,375.1 778.9,374.8 778.5,374.7 777.9,374.7 777.1,374.8 776.2,375.1 775.2,375.5 774.2,376.1 773.1,376.9 772.1,377.8 771.0,378.8 770.0,379.9 769.1,380.9 768.3,382.0 767.7,383.0 767.3,384.1 767.0,385.1 766.8,386.2 766.8,387.2 767.0,388.2 767.3,389.3 767.7,390.3 768.3,391.4 769.1,392.4 769.7,393.5 770.1,394.5 770.4,395.6 770.6,396.6 770.6,397.7 770.4,398.7 770.1,399.8 769.7,400.8 769.1,401.8 768.6,402.9 768.3,403.9 768.2,405.0 768.2,406.0 768.3,407.1 768.6,408.0 769.1,408.7 769.4,409.3 769.5,409.8 769.5,410.1 769.4,410.2 769.1,410.2 768.9,410.1 768.9,409.8 769.1,409.3 769.1,408.7 769.1,408.0 769.1,407.2 769.2,406.6 769.5,406.2 770.0,405.9 770.6,405.7 771.3,405.7 772.2,405.9 773.3,406.2 774.3,406.6 775.3,407.2 776.4,408.0 777.4,408.9 778.5,409.9 779.5,411.0 780.6,412.0 781.6,413.0 782.7,414.1 783.7,415.1 784.8,416.2 785.8,417.2 786.9,418.3 787.9,419.3 788.9,420.4 790.0,421.4 790.9,422.5 791.6,423.5 792.2,424.6 792.7,425.6 793.0,426.6 793.1,427.7 793.1,428.7 793.0,429.8 792.7,430.8 792.2,431.9 791.6,432.9 790.9,434.0 790.3,435.0 789.8,436.1 789.5,437.1 789.4,438.1 789.4,439.2 789.5,440.2 789.8,441.1 790.3,441.9 790.7,442.5 791.0,442.9 791.2,443.2 791.2,443.4 791.0,443.4 790.7,443.2 790.6,442.9 790.6,442.5 790.7,441.9 790.7,441.1 790.7,440.4 790.6,439.8 790.3,439.3 789.8,439.0 789.2,438.9 788.5,438.9 787.6,439.0 786.6,439.3 785.5,439.8 784.5,440.4 783.4,441.1 782.4,442.0 781.3,443.1 780.3,444.1 779.2,445.2 778.2,446.2 777.1,447.3 776.1,448.3 775.0,449.4 774.0,450.4 773.0,451.4 771.9,452.5 770.9,453.5 769.8,454.6 768.8,455.6 767.7,456.7 766.7,457.7 765.6,458.8 764.6,459.8 763.5,460.9 762.5,461.9 761.5,462.9 760.4,464.0 759.4,465.0 758.3,466.1 757.3,467.1 756.2,468.2 755.2,469.2 754.1,470.3 753.1,471.3 752.0,472.4 751.0,473.4 750.0,474.5 748.9,475.5 747.9,476.5 746.8,477.6 745.8,478.6 744.7,479.7 743.7,480.7 742.6,481.8 741.6,482.8 740.5,483.9 739.5,484.9 738.4,486.0 737.4,487.0 736.4,488.0 735.3,489.1 734.3,490.1 733.2,491.2 732.2,492.2 731.3,493.3 730.5,494.3 729.9,495.4 729.5,496.4 729.2,497.5 729.0,498.5 729.0,499.6 729.2,500.6 729.5,501.6 729.9,502.7 730.5,503.7 731.3,504.8 731.9,505.8 732.3,506.9 732.6,507.9 732.8,509.0 732.8,510.0 732.6,511.1 732.3,512.1 731.9,513.1 731.4,514.2 731.1,515.2 731.0,516.3 731.0,517.2 731.1,517.9 731.4,518.5 731.6,519.0 731.6,519.3 731.4,519.4 731.4,519.4 731.4,519.3 731.4,519.0 731.4,518.5 731.4,517.9 731.4,517.2 731.4,516.6 731.6,516.1 731.9,515.8 732.3,515.7 732.9,515.7 733.7,515.8 734.6,516.1 735.6,516.6 736.7,517.2 737.7,517.9 738.7,518.8 739.8,519.9 740.8,520.9 741.9,522.0 742.9,523.0 744.0,524.1 745.0,525.1 746.1,526.1 747.1,527.2 748.2,528.2 749.2,529.3 750.2,530.3 751.3,531.4 752.3,532.4 753.4,533.5 754.4,534.5 755.5,535.6 756.5,536.6 757.6,537.6 758.6,538.7 759.7,539.7 760.7,540.8 761.8,541.8 762.8,542.9 763.8,543.9 764.9,545.0 765.9,546.0 767.0,547.1 768.0,548.1 769.1,549.2 770.1,550.2 771.2,551.2 772.2,552.3 773.3,553.3 774.3,554.4 775.3,555.4 776.4,556.5 777.4,557.5 778.5,558.6 779.5,559.6 780.6,560.7 781.5,561.7 782.2,562.7 782.8,563.8 783.3,564.8 783.6,565.9 783.7,566.9 783.7,568.0 783.6,569.0 783.3,570.1 782.8,571.1 782.2,572.2 781.5,573.2 780.6,574.3 779.8,575.3 779.2,576.3 778.8,577.4 778.5,578.4 778.3,579.5 778.3,580.5 778.5,581.6 778.8,582.6 779.2,583.7 779.8,584.7 780.6,585.8 781.2,586.8 781.6,587.8 781.9,588.9 782.1,589.9 782.1,591.0 781.9,592.0 781.6,593.1 781.2,594.1 780.6,595.2 780.1,596.2 779.8,597.3 779.7,598.3 779.7,599.4 779.8,600.4 780.1,601.4 780.6,602.5 780.9,603.5 781.0,604.6 781.0,605.6 780.9,606.7 780.6,607.7 780.4,608.8 780.4,609.8 780.6,610.9 780.6,611.9 780.6,612.9 780.6,614.0 780.6,615.0 780.6,616.1 780.6,617.1 780.6,618.2 780.6,619.2 780.6,620.3 780.6,621.3 780.6,622.4 780.6,623.4 780.6,624.5 780.6,625.5 780.6,626.5 780.6,627.6 780.6,628.6 780.6,629.7 780.6,630.7 780.6,631.8 780.6,632.8 780.6,633.9 780.6,634.9 780.6,636.0 780.6,637.0 780.6,638.0 780.6,639.1 780.6,640.1 780.6,641.2 780.6,642.2 780.6,643.3 780.6,644.3 780.6,645.4 780.6,646.4 780.6,647.5 780.6,648.5 780.6,649.6 780.6,650.6 780.6,651.6 780.6,652.7 780.6,653.7 780.6,654.8 780.6,655.8 780.6,656.9 780.6,657.9 780.6,659.0 780.6,660.0 780.6,661.1 780.6,662.1 780.6,663.1 780.6,664.2 780.6,665.2 780.6,666.3 780.6,667.3 780.6,668.4 780.6,669.4 780.6,670.5 780.6,671.5 780.6,672.6 780.6,673.6 780.6,674.7 780.6,675.7 780.6,676.7 780.6,677.8 780.6,678.8 780.6,679.9 780.6,680.9 780.6,682.0 780.6,683.0 780.6,684.1 780.6,685.1 780.6,686.2 780.6,687.2 780.6,688.2 780.6,689.3 780.6,690.3 780.6,691.4 780.6,692.4 780.6,693.5 780.6,694.5 780.6,695.6 780.6,696.6 780.6,697.7 780.6,698.7 780.6,699.8 780.6,700.8 780.6,701.8 780.6,702.9 780.6,703.9 780.6,705.0 780.6,706.0 780.6,707.1 780.6,708.1 780.6,709.2 780.6,710.2 780.6,711.3 780.6,712.3 780.6,713.3 780.6,714.4 780.6,715.4 780.6,716.5 780.6,717.4 780.6,718.1 780.6,718.7 780.6,719.2 780.6,719.5 780.6,719.6 780.6,719.6 780.6,719.5 780.6,719.2 780.6,718.7 780.6,718.1 780.6,717.4 780.6,716.8 780.6,716.3 780.6,716.0 780.6,715.9 780.6,715.9 780.6,716.0 780.6,716.3 780.6,716.8 780.6,717.1 780.6,717.2 780.6,717.2 780.6,717.1 780.6,716.9 780.4,716.9 780.1,717.1 779.7,717.4 779.1,717.8 778.3,718.4 777.4,719.2 776.4,720.1 775.3,721.1 774.3,722.2 773.3,723.2 772.2,724.3 771.2,725.3 770.1,726.3 769.1,727.4 768.0,728.4 767.0,729.5 765.9,730.5 764.9,731.6 763.8,732.6 762.8,733.7 761.8,734.7 760.7,735.8 759.7,736.8 758.6,737.8 757.6,738.9 756.5,739.9 755.5,741.0 754.4,742.0 753.4,743.1 752.3,744.1 751.3,745.2 750.2,746.2 749.2,747.3 748.2,748.3 747.1,749.4 746.1,750.4 745.0,751.4 744.0,752.5 742.9,753.5 741.9,754.6 740.8,755.6 739.8,756.7 738.7,757.7 737.7,758.8 736.7,759.8 735.6,760.9 734.6,761.9 733.5,762.9 732.5,764.0 731.4,765.0 730.4,766.1 729.3,767.1 728.3,768.2 727.2,769.2 726.2,770.3 725.1,771.3 724.1,772.4 723.1,773.4 722.0,774.5 721.0,775.5 719.9,776.5 718.9,777.6 717.8,778.6 716.8,779.7 715.7,780.7 714.7,781.8 713.6,782.8 712.6,783.9 711.6,784.9 710.7,786.0 709.9,787.0 709.3,788.0 708.9,789.1 708.6,790.1 708.4,791.2 708.4,792.2 708.6,793.3 708.9,794.3 709.3,795.4 709.9,796.4 710.7,797.3 711.3,798.1 711.7,798.7 712.0,799.1 712.2,799.4 712.2,799.6 712.0,799.6 711.7,799.4 711.3,799.1 710.8,798.7 710.5,798.1 710.4,797.3 710.4,796.7 710.5,796.3 710.8,796.0 711.0,795.8 711.0,795.8 710.8,796.0 710.8,796.3 710.8,796.7 710.8,797.0 710.8,797.2 710.8,797.2 710.8,797.0 710.8,796.9 710.7,796.6 710.4,796.1 709.9,795.5 709.3,794.8 708.6,793.9 707.7,792.8 706.6,791.8 705.6,790.7 704.5,789.7 703.5,788.6 702.4,787.6 701.4,786.6 700.3,785.5 699.3,784.5 698.3,783.4 697.2,782.4 696.2,781.3 695.1,780.3 694.1,779.2 693.0,778.2 692.0,777.1 690.9,776.1 689.9,775.0 688.8,774.0 687.8,773.0 686.8,771.9 685.7,770.9 684.7,770.0 683.6,769.2 682.6,768.6 681.5,768.2 680.6,767.9 679.9,767.7 679.3,767.7 678.8,767.9 678.5,768.2 678.4,768.6 678.4,769.2 678.5,770.0 678.8,770.6 679.3,771.0 679.9,771.3 680.6,771.5 681.2,771.5 681.7,771.3 682.0,771.0 682.1,770.6 682.1,770.3 682.0,770.1 681.7,770.1 681.2,770.3 680.6,770.4 679.9,770.4 679.0,770.3 677.9,770.0 676.9,769.5 675.8,768.9 674.8,768.2 673.8,767.3 672.7,766.2 671.7,765.2 670.6,764.1 669.6,763.1 668.5,762.1 667.5,761.0 666.4,760.0 665.4,758.9 664.3,757.9 663.3,756.8 662.3,755.8 661.2,754.7 660.2,753.7 659.1,752.6 658.1,751.6 657.0,750.5 656.0,749.5 654.9,748.5 653.9,747.6 652.8,746.8 651.8,746.2 650.7,745.8 649.7,745.5 648.7,745.3 647.6,745.3 646.6,745.5 645.5,745.8 644.5,746.2 643.4,746.8 642.4,747.6 641.3,748.2 640.3,748.6 639.2,748.9 638.2,749.1 637.2,749.1 636.1,748.9 635.1,748.6 634.0,748.2 633.0,747.9 631.9,747.7 630.9,747.7 629.8,747.9 628.8,748.0 627.7,748.0 626.7,748.0 625.6,748.0 624.6,748.0 623.6,748.0 622.5,748.0 621.5,748.0 620.4,748.0 619.4,748.0 618.3,748.0 617.3,748.0 616.2,748.0 615.2,748.0 614.1,748.0 613.1,748.0 612.1,748.0 611.0,748.0 610.0,748.0 608.9,748.0 607.9,748.0 606.8,748.0 605.8,748.0 604.7,748.0 603.7,748.0 602.6,748.0 601.6,748.0 600.5,748.0 599.5,748.0 598.5,748.0 597.4,748.0 596.4,748.0 595.3,748.0 594.3,748.0 593.2,748.0 592.2,748.0 591.1,748.0 590.1,748.0 589.0,748.0 588.0,748.0 587.0,748.0 585.9,748.0 584.9,748.0 583.8,748.0 582.8,748.0 581.7,748.0 580.7,748.0 579.6,748.0 578.6,748.0 577.5,748.0 576.5,748.0 575.4,748.0 574.4,748.0 573.4,748.0 572.3,748.0 571.3,748.0 570.2,748.0 569.2,748.0 568.1,748.0 567.1,748.0 566.0,748.0 565.0,748.0 563.9,748.0 562.9,748.0 561.9,748.0 560.8,748.0 559.8,748.0 558.7,748.0 557.7,748.0 556.6,748.0 555.6,748.0 554.5,748.0 553.5,748.0 552.4,748.0 551.4,748.0 550.3,748.0 549.3,748.0 548.3,748.0 547.2,748.0 546.2,748.0 545.1,748.0 544.1,748.0 543.0,748.0 542.0,748.0 540.9,748.0 539.9,748.0 538.8,748.0 537.8,748.0 536.8,748.0 535.7,748.0 534.7,748.0 533.6,748.0 532.6,748.0 531.5,748.0 530.5,748.0 529.4,748.0 528.4,748.0 527.3,748.0 526.3,748.0 525.4,748.0 524.7,748.0 524.1,748.0 523.6,748.0 523.3,748.0 523.2,748.0 523.2,748.0 523.3,748.0 523.6,748.0 524.1,748.0 524.7,748.0 525.4,748.0 526.0,748.0 526.4,748.0 526.7,748.0 526.9,748.0 526.9,748.0 526.7,748.0 526.4,748.0 526.0,748.0 525.7,748.0 525.2,747.9 524.7,747.6 523.9,747.1 523.0,746.5 522.0,745.8 520.9,744.9 519.9,743.8 518.8,742.8 517.8,741.7 516.7,740.7 515.7,739.6 514.6,738.6 513.6,737.5 512.5,736.5 511.5,735.5 510.5,734.4 509.4,733.4 508.4,732.3 507.3,731.3 506.3,730.2 505.2,729.2 504.2,728.1 503.1,727.1 502.1,726.0 501.0,725.0 500.0,724.0 499.0,722.9 497.9,721.9 496.9,720.8 495.8,719.8 494.8,718.7 493.9,717.7 493.1,716.6 492.5,715.6 492.1,714.5 491.8,713.5 491.6,712.5 491.6,711.4 491.8,710.4 492.1,709.3 492.5,708.3 493.1,707.2 493.9,706.2 494.5,705.1 494.9,704.1 495.2,703.2 495.4,702.4 495.4,701.8 495.2,701.4 494.9,701.1 494.5,700.9 494.2,700.9 494.0,701.1 494.0,701.4 494.2,701.8 494.2,702.4" fill="none" stroke="red" stroke-width="7" stroke-opacity="0.5"/>
  <circle cx="494.2" cy="703.2" r="15" fill="blue" fill-opacity="0.5"/>
</svg>