<svg width="1000" height="1000" xmlns="http://www.w3.org/2000/svg">
  <rect x="200" y="200" width="600" height="600" fill="none" stroke="gray" stroke-width="5" />
  <circle cx="466.1" cy="252.0" r="3" fill="black" />
  <circle cx="450.4" cy="282.5" r="3" fill="black" />
  <circle cx="474.0" cy="241.2" r="3" fill="black" />
  <circle cx="464.2" cy="414.1" r="3" fill="black" />
  <circle cx="475.9" cy="237.3" r="3" fill="black" />
  <circle cx="452.4" cy="431.8" r="3" fill="black" />
  <circle cx="456.3" cy="267.8" r="3" fill="black" />
  <circle cx="345.3" cy="559.4" r="3" fill="black" />
  <circle cx="482.8" cy="219.6" r="3" fill="black" />
  <circle cx="460.2" cy="389.5" r="3" fill="black" />
  <circle cx="446.5" cy="330.6" r="3" fill="black" />
  <circle cx="356.1" cy="543.7" r="3" fill="black" />
  <circle cx="440.6" cy="441.6" r="3" fill="black" />
  <circle cx="384.6" cy="481.8" r="3" fill="black" />
  <circle cx="490.7" cy="209.8" r="3" fill="black" />
  <circle cx="393.5" cy="467.1" r="3" fill="black" />
  <circle cx="358.1" cy="537.8" r="3" fill="black" />
  <circle cx="487.7" cy="213.7" r="3" fill="black" />
  <circle cx="458.3" cy="385.6" r="3" fill="black" />
  <circle cx="447.5" cy="304.1" r="3" fill="black" />
  <circle cx="478.9" cy="202.9" r="3" fill="black" />
  <circle cx="448.4" cy="299.2" r="3" fill="black" />
  <circle cx="371.8" cy="512.3" r="3" fill="black" />
  <circle cx="464.2" cy="418.0" r="3" fill="black" />
  <circle cx="444.5" cy="439.6" r="3" fill="black" />
  <circle cx="455.3" cy="277.6" r="3" fill="black" />
  <circle cx="325.7" cy="561.4" r="3" fill="black" />
  <circle cx="451.4" cy="280.5" r="3" fill="black" />
  <circle cx="489.7" cy="207.9" r="3" fill="black" />
  <circle cx="315.9" cy="564.3" r="3" fill="black" />
  <circle cx="481.8" cy="203.9" r="3" fill="black" />
  <circle cx="363.0" cy="527.0" r="3" fill="black" />
  <circle cx="487.7" cy="205.9" r="3" fill="black" />
  <circle cx="455.3" cy="264.8" r="3" fill="black" />
  <circle cx="483.8" cy="217.7" r="3" fill="black" />
  <circle cx="336.5" cy="562.4" r="3" fill="black" />
  <circle cx="447.5" cy="315.9" r="3" fill="black" />
  <circle cx="447.5" cy="325.7" r="3" fill="black" />
  <circle cx="484.8" cy="203.9" r="3" fill="black" />
  <circle cx="449.4" cy="289.4" r="3" fill="black" />
  <circle cx="455.3" cy="258.9" r="3" fill="black" />
  <circle cx="409.2" cy="453.4" r="3" fill="black" />
  <circle cx="451.4" cy="367.9" r="3" fill="black" />
  <circle cx="447.5" cy="437.6" r="3" fill="black" />
  <circle cx="311.0" cy="569.2" r="3" fill="black" />
  <circle cx="455.3" cy="429.8" r="3" fill="black" />
  <circle cx="464.2" cy="403.3" r="3" fill="black" />
  <circle cx="310.0" cy="571.2" r="3" fill="black" />
  <circle cx="360.1" cy="532.9" r="3" fill="black" />
  <circle cx="322.7" cy="561.4" r="3" fill="black" />
  <circle cx="458.3" cy="426.8" r="3" fill="black" />
  <circle cx="312.9" cy="567.3" r="3" fill="black" />
  <circle cx="463.2" cy="398.4" r="3" fill="black" />
  <circle cx="424.9" cy="446.5" r="3" fill="black" />
  <circle cx="458.3" cy="254.0" r="3" fill="black" />
  <circle cx="471.0" cy="247.1" r="3" fill="black" />
  <circle cx="310.0" cy="573.2" r="3" fill="black" />
  <circle cx="450.4" cy="433.7" r="3" fill="black" />
  <circle cx="456.3" cy="256.0" r="3" fill="black" />
  <circle cx="455.3" cy="261.9" r="3" fill="black" />
  <circle cx="450.4" cy="360.1" r="3" fill="black" />
  <circle cx="462.2" cy="393.5" r="3" fill="black" />
  <circle cx="489.7" cy="211.8" r="3" fill="black" />
  <circle cx="457.3" cy="269.7" r="3" fill="black" />
  <circle cx="414.1" cy="450.4" r="3" fill="black" />
  <circle cx="485.8" cy="214.7" r="3" fill="black" />
  <circle cx="479.9" cy="226.5" r="3" fill="black" />
  <circle cx="456.3" cy="274.6" r="3" fill="black" />
  <circle cx="449.4" cy="435.7" r="3" fill="black" />
  <circle cx="469.1" cy="249.1" r="3" fill="black" />
  <circle cx="490.7" cy="208.8" r="3" fill="black" />
  <circle cx="320.8" cy="561.4" r="3" fill="black" />
  <circle cx="366.9" cy="520.1" r="3" fill="black" />
  <circle cx="486.7" cy="204.9" r="3" fill="black" />
  <circle cx="379.7" cy="495.6" r="3" fill="black" />
  <circle cx="481.8" cy="222.6" r="3" fill="black" />
  <circle cx="456.3" cy="380.7" r="3" fill="black" />
  <circle cx="420.0" cy="448.4" r="3" fill="black" />
  <circle cx="430.8" cy="444.5" r="3" fill="black" />
  <circle cx="464.2" cy="420.9" r="3" fill="black" />
  <circle cx="453.4" cy="279.5" r="3" fill="black" />
  <circle cx="435.7" cy="443.5" r="3" fill="black" />
  <circle cx="332.6" cy="562.4" r="3" fill="black" />
  <circle cx="400.3" cy="460.2" r="3" fill="black" />
  <circle cx="478.9" cy="230.4" r="3" fill="black" />
  <polyline points="475.0,200.0 474.0,201.0 472.0,202.9 469.1,205.9 466.1,209.8 464.2,214.7 463.2,220.6 463.2,227.5 464.2,235.4 466.1,244.2 467.1,252.0 467.1,258.9 466.1,264.8 466.1,269.7 466.1,273.6 466.1,276.6 466.1,278.6 466.1,279.5 466.1,279.5 466.1,278.6 466.1,276.6 466.1,273.6 466.1,269.7 466.1,264.8 466.1,258.9 466.1,252.0 467.1,246.2 469.1,241.2 470.0,237.3 470.0,234.4 469.1,232.4 469.1,231.4 469.1,231.4 469.1,232.4 469.1,234.4 469.1,237.3 469.1,241.2 469.1,246.2 469.1,250.1 469.1,253.0 469.1,255.0 469.1,256.0 469.1,256.0 469.1,255.0 469.1,253.0 469.1,250.1 469.1,248.1 469.1,247.1 469.1,247.1 469.1,248.1 469.1,249.1 470.0,249.1 471.0,248.1 471.0,247.1 472.0,245.2 474.0,242.2 475.0,240.3 475.0,239.3 474.0,239.3 474.0,240.3 474.0,241.2 475.0,241.2 475.9,240.3 475.9,238.3 475.9,237.3 476.9,235.4 478.9,232.4 479.9,230.4 479.9,229.5 478.9,229.5 478.9,230.4 479.9,230.4 479.9,229.5 479.9,227.5 479.9,226.5 480.9,224.5 481.8,222.6 482.8,219.6 483.8,217.7 485.8,214.7 487.7,212.8 488.7,211.8 488.7,211.8 487.7,212.8 487.7,213.7 488.7,213.7 489.7,212.8 489.7,211.8 490.7,209.8 490.7,208.8 489.7,207.9 487.7,205.9 486.7,204.9 484.8,203.9 481.8,203.9 478.9,202.9 475.0,202.9 470.0,203.9 464.2,205.9 458.3,208.8 453.4,212.8 449.4,217.7 446.5,223.6 444.5,230.4 443.5,238.3 443.5,247.1 444.5,255.0 446.5,261.9 449.4,267.8 453.4,272.7 458.3,276.6 462.2,279.5 465.1,281.5 467.1,282.5 468.1,282.5 468.1,281.5 467.1,279.5 465.1,276.6 462.2,272.7 458.3,267.8 455.3,261.9 453.4,255.0 452.4,249.1 452.4,244.2 453.4,240.3 455.3,237.3 458.3,235.4 460.2,234.4 461.2,234.4 461.2,235.4 460.2,237.3 458.3,240.3 457.3,244.2 457.3,249.1 458.3,254.0 458.3,257.9 457.3,260.9 456.3,262.8 456.3,263.8 456.3,263.8 456.3,262.8 456.3,260.9 456.3,257.9 456.3,256.0 455.3,255.0 455.3,255.0 455.3,256.0 455.3,257.9 455.3,258.9 455.3,260.9 455.3,261.9 455.3,263.8 455.3,264.8 456.3,266.8 456.3,267.8 455.3,269.7 453.4,272.7 452.4,276.6 452.4,279.5 453.4,281.5 453.4,282.5 453.4,282.5 453.4,281.5 453.4,279.5 452.4,278.6 451.4,278.6 451.4,279.5 451.4,280.5 450.4,282.5 448.4,285.4 445.5,289.4 441.6,294.3 436.7,300.2 430.8,307.0 423.9,314.9 416.0,323.7 407.2,333.6 397.4,344.4 386.6,356.1 374.8,368.9 362.0,382.7 348.3,397.4 333.6,413.1 317.8,429.8 303.1,447.5 289.4,466.1 276.6,485.8 264.8,506.4 254.0,528.0 244.2,550.6 235.4,572.2 227.5,592.8 220.6,612.4 214.7,631.1 209.8,648.8 205.9,665.5 202.9,681.2 201.0,695.9 200.0,709.7 200.0,722.4 201.0,734.2 202.9,745.0 205.9,754.8 209.8,763.7 214.7,771.5 220.6,778.4 227.5,784.3 235.4,789.2 244.2,793.1 254.0,796.1 264.8,798.0 276.6,799.0 289.4,799.0 303.1,798.0 315.9,796.1 327.7,793.1 338.5,789.2 348.3,784.3 357.1,778.4 365.0,771.5 371.8,763.7 377.7,754.8 382.7,745.0 386.6,734.2 389.5,722.4 391.5,709.7 392.5,695.9 392.5,681.2 391.5,665.5 389.5,648.8 386.6,631.1 382.7,612.4 377.7,592.8 371.8,572.2 365.0,552.5 357.1,533.9 348.3,516.2 338.5,499.5 327.7,483.8 315.9,469.1 305.1,455.3 295.3,442.6 286.4,430.8 278.6,420.0 271.7,410.1 265.8,401.3 260.9,393.5 257.0,386.6 254.0,380.7 252.0,375.8 251.1,371.8 251.1,368.9 252.0,366.9 254.0,366.0 257.0,366.0 260.9,366.9 265.8,368.9 271.7,371.8 278.6,375.8 286.4,380.7 295.3,386.6 305.1,393.5 315.9,401.3 325.7,410.1 334.5,420.0 342.4,430.8 349.3,442.6 355.2,455.3 360.1,469.1 364.0,483.8 366.9,499.5 368.9,516.2 369.9,533.9 369.9,552.5 368.9,570.2 366.9,586.9 364.0,602.6 360.1,617.3 355.2,631.1 349.3,643.9 342.4,655.6 334.5,666.4 325.7,676.3 315.9,685.1 307.0,693.0 299.2,699.8 292.3,705.7 286.4,710.6 281.5,714.6 277.6,717.5 274.6,719.5 272.7,720.5 271.7,720.5 271.7,719.5 272.7,717.5 274.6,714.6 277.6,710.6 281.5,705.7 286.4,699.8 292.3,693.0 299.2,685.1 307.0,676.3 315.9,666.4 323.7,655.6 330.6,643.9 336.5,631.1 341.4,617.3 345.3,602.6 348.3,586.9 350.2,570.2 351.2,554.5 351.2,539.8 350.2,526.0 348.3,513.3 345.3,501.5 341.4,490.7 336.5,480.9 330.6,472.0 323.7,464.2 315.9,457.3 309.0,451.4 303.1,446.5 298.2,442.6 294.3,439.6 291.3,437.6 289.4,436.7 288.4,436.7 288.4,437.6 289.4,439.6 291.3,442.6 294.3,446.5 298.2,451.4 303.1,457.3 309.0,464.2 315.9,472.0 321.8,480.9 326.7,490.7 330.6,501.5 333.6,513.3 335.5,526.0 336.5,539.8 336.5,554.5 335.5,568.2 333.6,581.0 330.6,592.8 326.7,603.6 321.8,613.4 315.9,622.3 311.0,630.1 307.0,637.0 304.1,642.9 302.1,647.8 301.1,651.7 301.1,654.7 302.1,656.6 304.1,657.6 307.0,657.6 311.0,656.6 315.9,654.7 319.8,651.7 322.7,647.8 324.7,642.9 325.7,637.0 325.7,630.1 324.7,622.3 322.7,613.4 319.8,603.6 315.9,592.8 312.9,581.0 311.0,568.2 310.0,556.5 310.0,545.7 311.0,535.8 312.9,527.0 315.9,519.1 317.8,512.3 318.8,506.4 318.8,501.5 317.8,497.5 315.9,494.6 314.9,492.6 314.9,491.7 315.9,491.7 315.9,492.6 315.9,494.6 315.9,497.5 315.9,501.5 315.9,506.4 315.9,512.3 315.9,519.1 315.9,527.0 315.9,535.8 315.9,545.7 315.9,556.5 315.9,566.3 315.9,575.1 315.9,583.0 315.9,589.9 315.9,595.7 315.9,600.7 315.9,604.6 315.9,607.5 315.9,609.5 315.9,610.5 315.9,610.5 315.9,609.5 315.9,607.5 315.9,604.6 315.9,600.7 315.9,595.7 315.9,589.9 315.9,583.0 315.9,575.1 315.9,566.3 315.9,558.4 315.9,551.6 315.9,545.7 315.9,540.8 315.9,536.8 315.9,533.9 315.9,531.9 315.9,530.9 315.9,530.9 315.9,531.9 315.9,533.9 315.9,536.8 315.9,540.8 315.9,545.7 315.9,551.6 315.9,558.4 315.9,564.3 314.9,569.2 312.9,573.2 311.9,576.1 311.9,578.1 312.9,579.1 312.9,579.1 312.9,578.1 312.9,576.1 312.9,573.2 312.9,569.2 312.9,566.3 312.9,564.3 312.9,563.3 312.9,563.3 312.9,564.3 312.9,566.3 312.9,567.3 311.9,569.2 311.0,570.2 311.0,570.2 311.0,569.2 310.0,569.2 310.0,570.2 310.0,571.2 310.0,573.2 311.0,574.1 312.9,574.1 315.9,573.2 319.8,571.2 322.7,568.2 324.7,564.3 325.7,561.4 325.7,559.4 324.7,558.4 322.7,558.4 320.8,559.4 319.8,561.4 319.8,562.4 320.8,562.4 320.8,561.4 321.8,561.4 322.7,561.4 324.7,561.4 325.7,561.4 327.7,562.4 330.6,562.4 332.6,562.4 335.5,562.4 337.5,562.4 338.5,562.4 338.5,562.4 337.5,562.4 336.5,562.4 336.5,561.4 337.5,559.4 339.4,558.4 342.4,558.4 345.3,559.4 349.3,559.4 354.2,558.4 358.1,556.5 361.0,553.5 363.0,549.6 364.0,544.7 364.0,540.8 363.0,537.8 361.0,535.8 358.1,534.9 356.1,534.9 355.2,535.8 355.2,537.8 356.1,540.8 356.1,543.7 357.1,545.7 358.1,546.6 358.1,546.6 358.1,545.7 358.1,543.7 358.1,540.8 358.1,537.8 359.1,533.9 360.1,530.9 360.1,529.0 360.1,528.0 360.1,528.0 360.1,529.0 360.1,530.9 360.1,532.9 361.0,533.9 363.0,533.9 364.0,532.9 364.0,530.9 363.0,528.0 363.0,526.0 363.0,525.0 363.0,525.0 363.0,526.0 363.0,527.0 364.0,527.0 366.0,526.0 366.9,524.1 366.9,521.1 366.9,519.1 366.9,518.2 366.9,518.2 366.9,519.1 366.9,520.1 367.9,520.1 369.9,519.1 371.8,517.2 372.8,514.2 372.8,512.3 371.8,511.3 371.8,511.3 371.8,512.3 372.8,512.3 374.8,511.3 377.7,509.3 379.7,506.4 380.7,502.5 380.7,497.5 379.7,493.6 379.7,490.7 379.7,488.7 379.7,487.7 379.7,487.7 379.7,488.7 379.7,490.7 379.7,493.6 379.7,495.6 380.7,496.6 382.7,496.6 384.6,495.6 385.6,493.6 385.6,490.7 384.6,486.7 384.6,481.8 385.6,475.9 387.6,469.1 390.5,463.2 393.5,458.3 395.4,454.3 396.4,451.4 396.4,449.4 395.4,448.4 393.5,448.4 392.5,449.4 392.5,451.4 393.5,454.3 393.5,458.3 393.5,463.2 393.5,467.1 394.4,470.0 396.4,472.0 399.3,473.0 401.3,473.0 402.3,472.0 402.3,470.0 401.3,467.1 400.3,463.2 400.3,460.2 401.3,456.3 403.3,453.4 406.2,451.4 409.2,450.4 411.1,450.4 412.1,451.4 412.1,453.4 411.1,454.3 409.2,454.3 408.2,453.4 408.2,453.4 409.2,453.4 411.1,452.4 414.1,450.4 418.0,448.4 420.9,447.5 422.9,447.5 423.9,448.4 423.9,448.4 422.9,448.4 420.9,448.4 420.0,448.4 420.0,447.5 420.9,446.5 422.9,446.5 424.9,446.5 427.8,445.5 430.8,444.5 434.7,443.5 437.6,443.5 439.6,443.5 440.6,443.5 440.6,443.5 439.6,443.5 437.6,443.5 435.7,443.5 434.7,442.6 434.7,441.6 435.7,441.6 437.6,441.6 440.6,441.6 444.5,440.6 447.5,439.6 449.4,439.6 450.4,439.6 450.4,439.6 449.4,439.6 447.5,439.6 444.5,439.6 442.6,438.6 441.6,437.6 441.6,437.6 442.6,437.6 444.5,437.6 447.5,437.6 449.4,436.7 450.4,435.7 450.4,435.7 449.4,435.7 449.4,434.7 450.4,433.7 452.4,431.8 455.3,429.8 458.3,426.8 462.2,422.9 465.1,420.0 467.1,418.0 468.1,417.0 468.1,417.0 467.1,418.0 465.1,420.0 464.2,420.9 464.2,420.9 464.2,420.0 464.2,418.0 464.2,415.1 464.2,413.1 464.2,412.1 464.2,412.1 464.2,413.1 464.2,414.1 464.2,414.1 464.2,413.1 464.2,411.1 464.2,408.2 464.2,404.3 464.2,401.3 464.2,399.3 464.2,398.4 464.2,398.4 464.2,399.3 464.2,401.3 464.2,403.3 463.2,404.3 463.2,404.3 463.2,403.3 463.2,401.3 463.2,398.4 462.2,394.4 462.2,391.5 462.2,389.5 462.2,388.5 462.2,388.5 462.2,389.5 462.2,391.5 462.2,393.5 461.2,394.4 460.2,394.4 460.2,393.5 460.2,391.5 460.2,389.5 459.2,386.6 458.3,384.6 458.3,383.6 458.3,383.6 458.3,384.6 458.3,385.6 457.3,385.6 456.3,384.6 456.3,382.7 456.3,380.7 455.3,377.7 453.4,373.8 451.4,368.9 450.4,365.0 450.4,362.0 451.4,360.1 451.4,359.1 451.4,359.1 451.4,360.1 451.4,362.0 451.4,365.0 451.4,367.9 450.4,369.9 450.4,370.9 450.4,370.9 450.4,369.9 450.4,367.9 450.4,365.0 450.4,361.0 450.4,358.1 450.4,356.1 450.4,355.2 450.4,355.2 450.4,356.1 450.4,358.1 450.4,360.1 449.4,361.0 447.5,361.0 446.5,360.1 446.5,358.1 446.5,355.2 446.5,351.2 446.5,346.3 446.5,340.4 446.5,333.6 446.5,327.7 446.5,322.7 446.5,318.8 446.5,315.9 446.5,313.9 446.5,312.9 446.5,312.9 446.5,313.9 446.5,315.9 446.5,318.8 446.5,322.7 446.5,327.7 446.5,331.6 446.5,334.5 446.5,336.5 446.5,337.5 446.5,337.5 446.5,336.5 446.5,334.5 446.5,331.6 446.5,329.6 446.5,328.6 446.5,328.6 446.5,329.6 446.5,330.6 447.5,330.6 447.5,329.6 447.5,327.7 447.5,325.7 447.5,322.7 447.5,318.8 447.5,315.9 447.5,311.9 447.5,307.0 447.5,303.1 447.5,300.2 447.5,298.2 447.5,297.2 447.5,297.2 447.5,298.2 447.5,300.2 447.5,303.1 447.5,305.1 447.5,306.1 447.5,306.1 447.5,305.1 447.5,304.1 448.4,302.1 448.4,299.2 449.4,295.3 449.4,290.3 449.4,286.4 449.4,283.5 449.4,281.5 449.4,280.5 449.4,280.5 449.4,281.5 449.4,283.5 449.4,286.4 449.4,289.4 450.4,291.3 452.4,292.3 455.3,292.3 457.3,291.3 458.3,289.4 458.3,286.4 457.3,282.5 455.3,277.6 454.3,273.6 454.3,270.7 455.3,268.7 456.3,267.8 456.3,267.8 456.3,268.7 456.3,270.7 456.3,273.6 456.3,275.6 456.3,276.6 456.3,276.6 456.3,275.6 456.3,274.6 457.3,272.7" fill="none" stroke="red" stroke-width="3" stroke-opacity="0.5"/>
  <circle cx="457.3" cy="269.7" r="50" fill="blue" fill-opacity="0.5"/>
</svg>