<svg width="1000" height="1000" xmlns="http://www.w3.org/2000/svg">
  <rect x="200" y="200" width="600" height="600" fill="none" stroke="gray" stroke-width="5" />
  <circle cx="347.6" cy="594.0" r="3" fill="black" />
  <circle cx="347.6" cy="592.6" r="3" fill="black" />
  <circle cx="351.7" cy="589.8" r="3" fill="black" />
  <circle cx="351.7" cy="588.4" r="3" fill="black" />
  <circle cx="353.1" cy="584.2" r="3" fill="black" />
  <circle cx="355.9" cy="580.0" r="3" fill="black" />
  <circle cx="358.7" cy="571.7" r="3" fill="black" />
  <circle cx="358.7" cy="567.5" r="3" fill="black" />
  <circle cx="365.7" cy="560.6" r="3" fill="black" />
  <circle cx="367.1" cy="555.0" r="3" fill="black" />
  <circle cx="375.4" cy="548.0" r="3" fill="black" />
  <circle cx="379.6" cy="542.5" r="3" fill="black" />
  <circle cx="390.7" cy="534.1" r="3" fill="black" />
  <circle cx="399.1" cy="528.5" r="3" fill="black" />
  <circle cx="407.4" cy="521.6" r="3" fill="black" />
  <circle cx="417.2" cy="516.0" r="3" fill="black" />
  <circle cx="426.9" cy="511.8" r="3" fill="black" />
  <circle cx="432.5" cy="507.7" r="3" fill="black" />
  <circle cx="438.1" cy="504.9" r="3" fill="black" />
  <circle cx="447.8" cy="500.7" r="3" fill="black" />
  <circle cx="453.4" cy="500.7" r="3" fill="black" />
  <circle cx="460.3" cy="499.3" r="3" fill="black" />
  <circle cx="468.7" cy="497.9" r="3" fill="black" />
  <circle cx="471.5" cy="493.7" r="3" fill="black" />
  <circle cx="475.6" cy="492.3" r="3" fill="black" />
  <circle cx="481.2" cy="486.8" r="3" fill="black" />
  <circle cx="484.0" cy="484.0" r="3" fill="black" />
  <circle cx="485.4" cy="478.4" r="3" fill="black" />
  <circle cx="489.6" cy="472.9" r="3" fill="black" />
  <circle cx="493.7" cy="464.5" r="3" fill="black" />
  <circle cx="496.5" cy="461.7" r="3" fill="black" />
  <circle cx="499.3" cy="453.4" r="3" fill="black" />
  <circle cx="502.1" cy="449.2" r="3" fill="black" />
  <circle cx="506.3" cy="440.8" r="3" fill="black" />
  <circle cx="509.0" cy="438.1" r="3" fill="black" />
  <circle cx="511.8" cy="432.5" r="3" fill="black" />
  <circle cx="514.6" cy="426.9" r="3" fill="black" />
  <circle cx="520.2" cy="421.3" r="3" fill="black" />
  <circle cx="525.8" cy="417.2" r="3" fill="black" />
  <circle cx="529.9" cy="410.2" r="3" fill="black" />
  <circle cx="535.5" cy="406.0" r="3" fill="black" />
  <circle cx="541.1" cy="400.5" r="3" fill="black" />
  <circle cx="546.6" cy="394.9" r="3" fill="black" />
  <circle cx="549.4" cy="390.7" r="3" fill="black" />
  <circle cx="557.8" cy="383.8" r="3" fill="black" />
  <circle cx="563.3" cy="381.0" r="3" fill="black" />
  <circle cx="567.5" cy="378.2" r="3" fill="black" />
  <circle cx="574.5" cy="375.4" r="3" fill="black" />
  <circle cx="580.0" cy="372.6" r="3" fill="black" />
  <circle cx="591.2" cy="371.2" r="3" fill="black" />
  <polyline points="350.3,595.4 351.7,594.0 354.5,591.2 358.7,587.0 364.3,581.4 371.2,574.5 379.6,566.1 389.3,556.4 400.5,545.2 413.0,532.7 426.9,518.8 442.2,503.5 458.9,486.8 477.0,468.7 496.5,449.2 514.6,431.1 531.3,414.4 546.6,399.1 560.6,385.2 573.1,372.6 584.2,361.5 594.0,351.7 602.3,343.4 609.3,336.4 614.8,330.9 619.0,326.7 621.8,323.9 623.2,322.5 623.2,322.5 621.8,323.9 619.0,326.7 614.8,330.9 609.3,336.4 602.3,343.4 594.0,351.7 584.2,361.5 573.1,372.6 560.6,385.2 546.6,399.1 531.3,414.4 514.6,431.1 499.3,449.2 485.4,465.9 472.9,481.2 461.7,495.1 452.0,507.7 443.6,518.8 436.7,528.5 431.1,536.9 426.9,543.9 424.1,549.4 422.7,553.6 422.7,556.4 424.1,557.8 426.9,557.8 431.1,556.4 436.7,553.6 443.6,549.4 452.0,543.9 461.7,536.9 472.9,528.5 485.4,518.8 499.3,507.7 511.8,495.1 523.0,481.2 532.7,465.9 541.1,449.2 548.0,433.9 553.6,420.0 557.8,407.4 560.6,396.3 561.9,386.5 561.9,378.2 560.6,371.2 557.8,365.7 553.6,361.5 548.0,358.7 541.1,357.3 532.7,357.3 523.0,358.7 511.8,361.5 502.1,365.7 493.7,371.2 486.8,378.2 481.2,386.5 477.0,396.3 474.2,407.4 472.9,420.0 472.9,433.9 474.2,449.2 477.0,463.1 481.2,475.6 486.8,486.8 493.7,496.5 502.1,504.9 509.0,511.8 514.6,517.4 518.8,521.6 521.6,524.4 523.0,525.8 523.0,525.8 521.6,524.4 518.8,521.6 514.6,517.4 509.0,511.8 502.1,504.9 496.5,496.5 492.3,486.8 489.6,475.6 488.2,463.1 488.2,449.2 489.6,436.7 492.3,425.5 496.5,415.8 502.1,407.4 506.3,400.5 509.0,394.9 510.4,390.7 510.4,387.9 509.0,386.5 506.3,386.5 502.1,387.9 499.3,390.7 497.9,394.9 497.9,400.5 499.3,407.4 502.1,415.8 503.5,425.5 503.5,436.7 502.1,449.2 499.3,463.1 495.1,478.4 489.6,492.3 482.6,504.9 475.6,516.0 470.1,525.8 465.9,534.1 463.1,541.1 461.7,546.6 461.7,550.8 463.1,553.6 465.9,555.0 470.1,555.0 475.6,553.6 479.8,550.8 482.6,546.6 484.0,541.1 484.0,534.1 482.6,525.8 479.8,516.0 475.6,504.9 472.9,492.3 471.5,481.2 471.5,471.5 472.9,463.1 475.6,456.1 477.0,450.6 477.0,446.4 475.6,443.6 475.6,442.2 475.6,442.2 475.6,443.6 475.6,446.4 475.6,450.6 475.6,456.1 475.6,463.1 475.6,471.5 475.6,481.2 475.6,492.3 474.2,502.1 471.5,510.4 468.7,517.4 467.3,523.0 467.3,527.1 468.7,529.9 468.7,531.3 468.7,531.3 468.7,529.9 468.7,527.1 468.7,523.0 468.7,517.4 468.7,510.4 468.7,502.1 468.7,495.1 468.7,489.6 468.7,485.4 468.7,482.6 468.7,481.2 468.7,481.2 468.7,482.6 468.7,485.4 468.7,489.6 468.7,495.1 468.7,499.3 468.7,502.1 468.7,503.5 468.7,503.5 468.7,502.1 468.7,499.3 468.7,497.9 467.3,497.9 464.5,499.3 460.3,502.1 454.8,506.3 447.8,511.8 439.4,518.8 429.7,527.1 418.6,536.9 406.0,548.0 392.1,560.6 376.8,574.5 360.1,588.4 344.8,600.9 330.9,612.1 318.3,621.8 307.2,630.2 297.4,637.1 289.1,642.7 282.1,646.9 276.6,649.7 272.4,651.0 269.6,651.0 268.2,649.7 268.2,646.9 269.6,642.7 272.4,637.1 276.6,630.2 282.1,621.8 289.1,612.1 297.4,600.9 307.2,588.4 318.3,577.3 330.9,567.5 344.8,559.2 357.3,552.2 368.4,546.6 378.2,542.5 386.5,539.7 393.5,538.3 399.1,538.3 403.2,539.7 406.0,542.5 407.4,546.6 407.4,552.2 406.0,559.2 403.2,567.5 399.1,577.3 393.5,588.4 386.5,598.1 378.2,606.5 368.4,613.5 357.3,619.0 347.6,623.2 339.2,626.0 332.3,627.4 326.7,627.4 322.5,626.0 319.7,623.2 318.3,619.0 318.3,613.5 319.7,606.5 322.5,598.1 326.7,588.4 332.3,580.0 339.2,573.1 347.6,567.5 354.5,563.3 360.1,560.6 364.3,559.2 367.1,559.2 368.4,560.6 368.4,563.3 367.1,567.5 364.3,573.1 360.1,580.0 354.5,588.4 350.3,595.4 347.6,600.9 346.2,605.1 346.2,607.9 347.6,609.3 350.3,609.3 351.7,607.9 351.7,605.1 351.7,600.9 351.7,595.4 351.7,588.4 351.7,582.8 351.7,578.7 351.7,575.9 351.7,574.5 351.7,574.5 351.7,575.9 351.7,578.7 351.7,582.8 351.7,588.4 351.7,592.6 351.7,595.4 351.7,596.8 351.7,596.8 351.7,595.4 351.7,592.6 351.7,589.8 353.1,585.6 355.9,580.0 360.1,573.1 365.7,564.7 372.6,555.0 381.0,543.9 390.7,531.3 401.9,520.2 411.6,510.4 420.0,502.1 426.9,495.1 432.5,489.6 436.7,485.4 439.4,482.6 440.8,481.2 440.8,481.2 439.4,482.6 436.7,485.4 432.5,489.6 426.9,495.1 420.0,502.1 411.6,510.4 404.6,520.2 399.1,528.5 394.9,535.5 392.1,541.1 390.7,545.2 390.7,548.0 392.1,549.4 394.9,549.4 399.1,548.0 404.6,545.2 408.8,541.1 411.6,535.5 413.0,528.5 413.0,521.6 411.6,516.0 408.8,511.8 407.4,509.0 407.4,507.7 407.4,507.7 407.4,509.0 407.4,511.8 407.4,516.0 407.4,521.6 406.0,528.5 403.2,536.9 399.1,543.9 393.5,549.4 386.5,553.6 379.6,556.4 374.0,557.8 369.8,557.8 367.1,556.4 365.7,553.6 365.7,549.4 367.1,543.9 369.8,539.7 374.0,536.9 379.6,535.5 383.8,535.5 386.5,536.9 387.9,539.7 387.9,542.5 386.5,543.9 383.8,543.9 379.6,542.5 376.8,539.7 375.4,535.5 375.4,529.9 376.8,523.0 379.6,514.6 383.8,507.7 389.3,502.1 396.3,497.9 404.6,495.1 414.4,493.7 425.5,493.7 435.3,495.1 443.6,497.9 450.6,502.1 456.1,507.7 460.3,511.8 463.1,514.6 464.5,516.0 464.5,516.0 463.1,514.6 460.3,511.8 456.1,510.4 450.6,510.4 443.6,511.8 435.3,511.8 426.9,511.8 420.0,510.4 414.4,507.7 410.2,503.5 407.4,497.9 406.0,491.0 406.0,482.6 407.4,472.9 410.2,461.7 414.4,449.2 420.0,435.3 426.9,420.0 435.3,403.2 445.0,387.9 456.1,374.0 468.7,361.5 482.6,350.3 497.9,340.6 514.6,332.3 532.7,325.3 549.4,319.7 564.7,315.5 578.7,312.8 591.2,311.4 602.3,311.4 612.1,312.8 620.4,315.5 627.4,319.7 632.9,325.3 637.1,332.3 639.9,340.6 641.3,350.3 641.3,361.5 639.9,374.0 637.1,387.9 632.9,400.5 627.4,411.6 620.4,421.3 612.1,429.7 602.3,436.7 591.2,442.2 578.7,446.4 564.7,449.2 549.4,450.6 535.5,450.6 523.0,449.2 511.8,446.4 502.1,442.2 493.7,436.7 486.8,429.7 481.2,421.3 477.0,411.6 474.2,400.5 472.9,390.7 472.9,382.4 474.2,375.4 477.0,369.8 481.2,365.7 486.8,362.9 493.7,361.5 502.1,361.5 511.8,362.9 523.0,365.7 535.5,369.8 549.4,375.4 561.9,382.4 573.1,390.7 582.8,397.7 591.2,403.2 598.1,407.4 603.7,410.2 607.9,411.6 610.7,411.6 612.1,410.2 612.1,407.4 610.7,403.2 607.9,397.7 603.7,390.7 598.1,385.2 591.2,381.0 582.8,378.2 573.1,376.8 561.9,376.8 549.4,378.2 538.3,381.0 528.5,385.2 520.2,390.7 513.2,394.9 507.7,397.7 503.5,399.1 500.7,399.1 499.3,397.7 499.3,394.9 500.7,390.7 503.5,387.9 507.7,386.5 513.2,386.5 520.2,387.9 528.5,390.7 538.3,392.1 549.4,392.1 559.2,390.7 567.5,390.7 574.5,390.7 580.0,390.7 584.2,390.7 587.0,390.7 588.4,390.7 588.4,390.7 587.0,390.7 584.2,390.7 580.0,390.7 574.5,390.7 567.5,390.7 559.2,390.7 549.4,390.7 541.1,392.1 534.1,394.9 528.5,399.1 524.4,401.9 521.6,403.2 520.2,403.2 520.2,401.9 521.6,400.5 524.4,400.5 528.5,400.5 534.1,400.5 541.1,400.5 549.4,399.1 559.2,396.3 570.3,392.1 580.0,386.5 588.4,379.6 595.4,374.0 600.9,369.8 605.1,367.1 607.9,365.7 609.3,365.7 609.3,367.1 607.9,369.8 605.1,374.0 600.9,376.8 595.4,378.2 588.4,378.2 580.0,376.8 573.1,375.4 567.5,375.4 563.3,375.4 560.6,375.4 559.2,375.4 559.2,375.4 560.6,375.4 563.3,375.4 567.5,375.4 573.1,375.4 577.3,375.4 580.0,375.4 581.4,375.4 581.4,375.4 580.0,375.4 577.3,375.4 574.5,375.4 570.3,376.8 564.7,379.6 557.8,383.8 549.4,389.3 539.7,396.3 528.5,404.6 516.0,414.4 502.1,425.5 486.8,438.1 470.1,452.0 452.0,467.3 432.5,484.0 411.6,502.1 389.3,521.6 367.1,542.5 346.2,561.9 326.7,580.0 308.6,596.8 291.9,612.1 276.6,626.0 262.6,638.5 250.1,649.7 239.0,659.4 229.2,667.7 220.9,674.7 213.9,680.3 208.4,684.5 204.2,687.2 201.4,688.6 200.0,688.6 200.0,687.2 201.4,684.5 204.2,680.3 208.4,674.7 213.9,667.7 220.9,659.4 229.2,649.7 239.0,638.5 250.1,626.0 262.6,612.1 276.6,596.8 291.9,580.0 308.6,561.9 326.7,545.2 346.2,529.9 367.1,516.0 386.5,503.5 404.6,492.3 421.3,482.6 436.7,474.2 450.6,467.3 463.1,461.7 474.2,457.5 484.0,454.8 492.3,453.4 499.3,453.4 504.9,454.8 509.0,457.5 511.8,461.7 513.2,467.3 513.2,474.2 511.8,482.6 509.0,492.3 504.9,503.5 499.3,516.0 492.3,529.9 484.0,545.2 474.2,559.2 463.1,571.7 450.6,582.8 436.7,592.6 421.3,600.9 404.6,607.9 386.5,613.5 367.1,617.6 349.0,620.4 332.3,621.8 316.9,621.8 303.0,620.4 290.5,617.6 279.4,613.5 269.6,607.9 261.3,600.9 254.3,592.6 248.7,582.8 244.5,571.7 241.8,559.2 240.4,548.0 240.4,538.3 241.8,529.9 244.5,523.0 248.7,517.4 254.3,513.2 261.3,510.4 269.6,509.0 279.4,509.0 290.5,510.4 303.0,513.2 316.9,517.4 332.3,523.0 349.0,529.9 367.1,538.3 383.8,548.0 399.1,556.4 413.0,563.3 425.5,568.9 436.7,573.1 446.4,575.9 454.8,577.3 461.7,577.3 467.3,575.9 471.5,573.1 474.2,568.9 475.6,563.3 475.6,556.4 474.2,550.8 471.5,546.6 467.3,543.9 461.7,542.5 454.8,542.5 446.4,543.9 436.7,546.6 425.5,550.8 413.0,555.0 399.1,557.8 383.8,559.2 367.1,559.2 351.7,557.8 337.8,555.0 325.3,553.6 314.2,553.6 304.4,555.0 296.1,555.0 289.1,555.0 283.5,555.0 279.4,555.0 276.6,555.0 275.2,555.0 275.2,555.0 276.6,555.0 279.4,555.0 283.5,555.0 289.1,555.0 296.1,555.0 304.4,555.0 314.2,555.0 325.3,555.0 337.8,555.0 351.7,555.0 367.1,555.0 383.8,553.6 399.1,550.8 413.0,546.6 425.5,541.1 436.7,534.1 446.4,528.5 454.8,524.4 461.7,521.6 467.3,520.2 471.5,520.2 474.2,521.6 475.6,524.4 475.6,528.5 474.2,534.1 471.5,538.3 467.3,541.1 461.7,542.5 454.8,542.5 446.4,541.1 436.7,538.3 425.5,534.1 413.0,531.3 399.1,529.9 386.5,529.9 375.4,531.3 365.7,534.1 357.3,535.5 350.3,535.5 344.8,534.1 340.6,534.1 337.8,534.1 336.4,534.1 336.4,534.1 337.8,534.1 340.6,534.1 344.8,534.1 350.3,534.1 357.3,534.1 365.7,534.1 375.4,534.1 386.5,534.1 396.3,534.1 404.6,534.1 411.6,534.1 417.2,534.1 421.3,534.1 424.1,534.1 425.5,534.1 425.5,534.1 424.1,534.1 421.3,534.1 417.2,534.1 411.6,534.1 404.6,534.1 396.3,534.1 389.3,534.1 383.8,534.1 379.6,534.1 376.8,534.1 375.4,534.1 375.4,534.1 376.8,534.1 379.6,534.1 383.8,534.1 389.3,534.1 393.5,534.1 396.3,534.1 397.7,534.1 397.7,534.1 396.3,534.1 393.5,534.1 390.7,534.1 389.3,532.7 389.3,529.9 390.7,525.8 393.5,520.2 397.7,513.2 403.2,504.9 410.2,495.1 418.6,484.0 428.3,471.5 439.4,457.5 452.0,442.2 465.9,428.3 481.2,415.8 497.9,404.6 513.2,394.9 527.1,386.5 539.7,379.6 550.8,374.0 560.6,369.8 568.9,367.1 575.9,365.7 581.4,365.7 585.6,367.1 588.4,369.8 589.8,374.0 589.8,379.6 588.4,386.5 585.6,394.9 581.4,404.6 575.9,415.8 568.9,428.3 560.6,440.8 550.8,452.0 539.7,461.7 527.1,470.1 513.2,477.0 500.7,482.6 489.6,486.8 479.8,489.6 471.5,491.0 464.5,491.0 458.9,489.6 454.8,486.8 452.0,482.6 450.6,477.0 450.6,470.1 452.0,461.7 454.8,452.0 458.9,440.8 464.5,431.1 471.5,422.7 479.8,415.8 489.6,410.2 500.7,406.0 510.4,403.2 518.8,401.9 525.8,401.9 531.3,403.2 535.5,406.0 538.3,410.2 539.7,415.8 539.7,422.7 538.3,431.1 535.5,440.8 531.3,449.2 525.8,456.1 518.8,461.7 510.4,465.9 503.5,468.7 497.9,470.1 493.7,470.1 491.0,468.7 489.6,465.9 489.6,461.7 491.0,456.1 493.7,449.2 497.9,440.8 503.5,433.9 507.7,428.3 510.4,424.1 511.8,421.3 511.8,420.0 510.4,420.0 507.7,421.3 506.3,424.1 506.3,428.3 506.3,433.9 506.3,440.8 504.9,449.2 502.1,458.9 497.9,470.1 492.3,482.6 485.4,496.5 477.0,511.8 467.3,528.5 456.1,546.6 443.6,566.1 429.7,587.0 414.4,606.5 397.7,624.6 379.6,641.3 360.1,656.6 342.0,670.5 325.3,683.1 310.0,694.2 296.1,703.9 283.5,712.3 272.4,719.3 262.6,724.8 254.3,729.0 247.3,731.8 241.8,733.2 237.6,733.2 234.8,731.8 233.4,729.0 233.4,724.8 234.8,719.3 237.6,712.3 241.8,703.9 247.3,694.2 254.3,683.1 262.6,670.5 272.4,656.6 283.5,641.3 296.1,624.6 310.0,606.5 325.3,589.8 342.0,574.5 357.3,560.6 371.2,548.0 383.8,536.9 394.9,527.1 404.6,518.8 413.0,511.8 420.0,506.3 425.5,502.1 429.7,499.3 432.5,497.9 433.9,497.9 433.9,499.3 432.5,502.1 429.7,506.3 425.5,511.8 420.0,518.8 413.0,527.1 404.6,536.9 394.9,548.0 383.8,560.6 371.2,574.5 357.3,589.8 344.8,603.7 333.6,616.2 323.9,627.4 315.5,637.1 308.6,645.5 303.0,652.4 298.8,658.0 296.1,662.2 294.7,665.0 294.7,666.4 296.1,666.4 298.8,665.0 303.0,662.2 308.6,658.0 315.5,652.4 323.9,645.5 333.6,637.1 344.8,627.4 354.5,616.2 362.9,603.7 369.8,592.6 375.4,582.8 379.6,574.5 382.4,567.5 383.8,561.9 383.8,557.8 382.4,555.0 379.6,553.6 375.4,553.6 369.8,555.0 362.9,557.8 354.5,561.9 347.6,567.5 342.0,574.5 337.8,582.8 335.0,592.6 333.6,600.9 333.6,607.9 335.0,613.5 337.8,617.6 342.0,620.4 347.6,621.8 351.7,621.8 354.5,620.4 355.9,617.6 355.9,613.5 354.5,607.9 351.7,600.9 347.6,592.6 344.8,585.6 343.4,580.0 343.4,575.9 344.8,573.1 347.6,571.7 349.0,571.7 349.0,573.1 347.6,575.9 347.6,580.0 347.6,585.6 347.6,592.6 347.6,598.1 347.6,602.3 347.6,605.1 347.6,606.5 347.6,606.5 347.6,605.1 347.6,602.3 347.6,598.1 347.6,594.0 349.0,588.4 351.7,581.4 355.9,573.1 361.5,563.3 368.4,552.2 376.8,539.7 386.5,525.8 397.7,510.4 410.2,493.7 424.1,475.6 439.4,456.1 456.1,435.3 474.2,413.0 493.7,389.3 514.6,367.1 536.9,346.2 560.6,326.7 585.6,308.6 609.3,291.9 631.6,276.6 652.4,262.6 671.9,250.1 690.0,239.0 706.7,229.2 722.0,220.9 736.0,213.9 748.5,208.4 759.6,204.2 769.4,201.4 777.7,200.0 784.7,200.0 790.3,201.4 794.4,204.2 797.2,208.4 798.6,213.9 798.6,220.9 797.2,229.2 794.4,239.0 790.3,250.1 784.7,262.6 777.7,276.6 769.4,291.9 759.6,308.6 748.5,326.7 736.0,346.2 722.0,367.1 706.7,386.5 690.0,404.6 671.9,421.3 652.4,436.7 631.6,450.6 609.3,463.1 588.4,474.2 568.9,484.0 550.8,492.3 534.1,499.3 518.8,504.9 504.9,509.0 492.3,511.8 481.2,513.2 471.5,513.2 463.1,511.8 456.1,509.0 450.6,504.9 446.4,499.3 443.6,492.3 442.2,484.0 442.2,474.2 443.6,463.1 446.4,450.6 450.6,436.7 456.1,421.3 463.1,404.6 471.5,386.5 481.2,369.8 492.3,354.5 504.9,340.6 518.8,328.1 534.1,316.9 550.8,307.2 568.9,298.8 588.4,291.9 606.5,286.3 623.2,282.1 638.5,279.4 652.4,278.0 665.0,278.0 676.1,279.4 685.8,282.1 694.2,286.3 701.2,291.9 706.7,298.8 710.9,307.2 713.7,316.9 715.1,328.1 715.1,340.6 713.7,354.5 710.9,369.8 706.7,383.8 701.2,396.3 694.2,407.4 685.8,417.2 676.1,425.5 665.0,432.5 652.4,438.1 638.5,442.2 623.2,445.0 606.5,446.4 591.2,446.4 577.3,445.0 564.7,442.2 553.6,438.1 543.9,432.5 535.5,425.5 528.5,417.2 523.0,407.4 518.8,396.3 516.0,383.8 514.6,371.2 514.6,360.1 516.0,350.3 518.8,342.0 523.0,335.0 528.5,329.5 535.5,325.3 543.9,322.5 553.6,321.1 564.7,321.1 577.3,322.5 591.2,325.3 603.7,329.5 614.8,335.0 624.6,342.0 632.9,350.3 639.9,360.1 645.5,371.2 649.7,381.0 652.4,389.3 653.8,396.3 653.8,401.9 652.4,406.0 649.7,408.8 645.5,410.2 639.9,410.2 632.9,408.8 624.6,406.0 614.8,401.9 603.7,396.3 591.2,389.3 580.0,381.0 570.3,371.2 561.9,362.9 555.0,355.9 549.4,350.3 545.2,346.2 542.5,343.4 541.1,342.0 541.1,342.0 542.5,343.4 545.2,346.2 549.4,350.3 555.0,355.9 561.9,362.9 570.3,371.2 580.0,378.2 591.2,383.8 600.9,387.9 609.3,390.7 616.2,392.1 621.8,392.1 626.0,390.7 628.8,387.9 630.2,383.8 630.2,378.2 628.8,371.2 626.0,365.7 621.8,361.5 616.2,358.7 609.3,357.3 600.9,357.3 591.2,358.7 582.8,361.5 575.9,365.7 570.3,371.2 566.1,375.4 563.3,378.2 561.9,379.6 561.9,379.6 563.3,378.2 566.1,375.4 570.3,371.2 575.9,368.4 582.8,367.1 591.2,367.1 598.1,368.4 603.7,371.2 607.9,372.6 610.7,372.6 612.1,371.2 612.1,371.2 610.7,371.2 607.9,371.2 603.7,371.2 598.1,371.2 591.2,371.2 582.8,372.6 573.1,375.4 561.9,379.6 549.4,385.2 535.5,392.1 520.2,400.5 503.5,410.2 485.4,421.3 468.7,433.9 453.4,447.8 439.4,463.1 426.9,478.4 415.8,492.3 406.0,504.9 397.7,516.0 390.7,525.8 385.2,534.1 381.0,541.1 378.2,546.6 376.8,550.8 376.8,553.6 378.2,555.0 381.0,555.0 385.2,553.6 390.7,550.8 397.7,546.6 406.0,541.1 415.8,534.1 426.9,525.8 439.4,516.0 453.4,504.9 468.7,492.3 485.4,478.4 500.7,465.9 514.6,454.8 527.1,445.0 538.3,436.7 548.0,429.7 556.4,424.1 563.3,420.0 568.9,417.2 573.1,415.8 575.9,415.8 577.3,417.2 577.3,420.0 575.9,424.1 573.1,429.7 568.9,436.7 563.3,445.0 556.4,454.8 548.0,465.9 538.3,478.4 527.1,492.3 514.6,507.7 500.7,521.6 485.4,534.1 468.7,545.2 450.6,555.0 431.1,563.3 413.0,570.3 396.3,575.9 381.0,580.0 367.1,582.8 354.5,584.2 343.4,584.2 333.6,582.8 325.3,580.0 318.3,575.9 312.8,570.3 308.6,563.3 305.8,555.0 304.4,545.2 304.4,534.1 305.8,521.6 308.6,510.4 312.8,500.7 318.3,492.3 325.3,485.4 333.6,479.8 343.4,475.6 354.5,472.9 367.1,471.5 381.0,471.5 396.3,472.9 413.0,475.6 428.3,479.8 442.2,485.4 454.8,492.3 465.9,500.7 475.6,510.4 484.0,518.8 491.0,525.8 496.5,531.3 500.7,535.5 503.5,538.3 504.9,539.7 504.9,539.7 503.5,538.3 500.7,535.5 496.5,531.3 491.0,525.8 484.0,518.8 475.6,513.2 465.9,509.0 454.8,506.3 442.2,504.9 428.3,504.9 415.8,506.3 404.6,509.0 394.9,513.2 386.5,516.0 379.6,517.4 374.0,517.4 369.8,516.0 367.1,516.0 365.7,516.0 365.7,516.0 367.1,516.0 369.8,516.0 374.0,516.0 379.6,516.0 386.5,516.0 394.9,516.0 404.6,516.0 415.8,516.0 425.5,516.0 433.9,516.0 440.8,516.0 446.4,516.0 450.6,516.0 453.4,516.0 454.8,516.0 454.8,516.0 453.4,516.0 450.6,516.0 446.4,516.0 440.8,516.0 433.9,516.0 425.5,516.0 417.2,516.0 410.2,514.6 404.6,511.8 400.5,507.7 397.7,502.1 396.3,495.1 396.3,486.8 397.7,477.0 400.5,468.7 404.6,461.7 410.2,456.1 417.2,452.0 425.5,449.2 435.3,447.8 446.4,447.8 458.9,449.2 472.9,452.0 488.2,456.1 502.1,461.7 514.6,468.7 525.8,474.2 535.5,478.4 543.9,481.2 550.8,482.6 556.4,482.6 560.6,481.2 563.3,478.4 564.7,474.2 564.7,471.5 563.3,470.1 560.6,470.1 556.4,471.5 550.8,472.9 543.9,472.9 535.5,472.9 525.8,472.9 514.6,472.9 502.1,472.9 489.6,472.9 478.4,471.5 468.7,468.7 460.3,464.5 453.4,458.9 447.8,452.0 443.6,443.6 440.8,433.9 439.4,422.7 439.4,410.2 440.8,396.3 443.6,381.0 447.8,367.1 453.4,354.5 460.3,343.4 468.7,333.6 478.4,325.3 489.6,318.3 502.1,312.8 516.0,308.6 531.3,305.8 548.0,304.4 566.1,304.4 582.8,305.8 598.1,308.6 612.1,312.8 624.6,318.3 635.7,325.3 645.5,333.6 653.8,343.4 660.8,354.5 666.4,367.1 670.5,378.2 673.3,387.9 674.7,396.3 674.7,403.2 673.3,408.8 670.5,413.0 666.4,415.8 660.8,417.2 653.8,417.2 645.5,415.8 635.7,413.0 624.6,408.8 612.1,403.2 598.1,396.3 582.8,387.9 568.9,378.2 556.4,369.8 545.2,362.9 535.5,357.3 527.1,353.1 520.2,350.3 514.6,349.0 510.4,349.0 507.7,350.3 506.3,353.1 506.3,357.3 507.7,362.9 510.4,369.8 514.6,375.4 520.2,379.6 527.1,382.4 535.5,383.8 545.2,383.8 556.4,382.4 568.9,379.6 580.0,375.4 589.8,372.6 598.1,371.2 605.1,371.2 610.7,372.6 614.8,372.6 617.6,372.6 619.0,372.6 619.0,372.6 617.6,372.6 614.8,372.6 610.7,372.6 605.1,372.6 598.1,372.6 589.8,372.6 580.0,372.6 568.9,374.0 556.4,376.8 542.5,381.0 527.1,386.5 513.2,393.5 500.7,401.9 489.6,411.6 479.8,421.3 471.5,429.7 464.5,436.7 458.9,442.2 454.8,446.4 452.0,449.2 450.6,450.6 450.6,450.6 452.0,449.2 454.8,446.4 458.9,442.2 464.5,436.7 471.5,429.7 479.8,421.3 489.6,414.4 500.7,408.8 513.2,404.6 524.4,401.9 534.1,400.5 542.5,400.5 549.4,401.9 555.0,404.6 559.2,408.8 561.9,414.4 563.3,421.3 563.3,426.9 561.9,431.1 559.2,433.9 555.0,435.3 549.4,435.3 542.5,433.9 534.1,431.1 524.4,426.9 516.0,421.3 509.0,417.2 503.5,414.4 499.3,413.0 496.5,413.0 495.1,414.4 495.1,417.2 496.5,421.3 499.3,424.1 503.5,425.5 509.0,425.5 516.0,424.1 521.6,421.3 525.8,420.0 528.5,420.0 529.9,421.3 529.9,421.3 528.5,421.3 525.8,421.3 521.6,421.3 518.8,421.3 517.4,421.3 517.4,421.3 518.8,421.3 520.2,421.3 520.2,422.7 518.8,425.5 516.0,429.7 511.8,435.3 506.3,442.2 499.3,450.6 491.0,460.3 481.2,471.5 471.5,484.0 463.1,495.1 456.1,504.9 450.6,513.2 446.4,520.2 443.6,525.8 442.2,529.9 442.2,532.7 443.6,534.1 446.4,534.1 450.6,532.7 456.1,529.9 463.1,525.8 471.5,520.2 478.4,513.2 484.0,504.9 488.2,495.1 491.0,486.8 492.3,479.8 492.3,474.2 491.0,470.1 488.2,467.3 484.0,465.9 478.4,465.9 471.5,467.3 465.9,470.1 461.7,474.2 458.9,479.8 457.5,486.8 457.5,493.7 458.9,499.3 461.7,503.5 465.9,506.3 471.5,507.7 475.6,507.7 478.4,506.3 479.8,503.5 479.8,499.3 478.4,493.7 475.6,489.6 471.5,486.8 468.7,485.4 467.3,485.4 467.3,486.8 468.7,489.6 471.5,493.7 475.6,496.5 481.2,497.9 488.2,497.9 496.5,496.5 506.3,493.7 514.6,489.6 521.6,484.0 527.1,477.0 531.3,468.7 534.1,458.9 535.5,447.8 535.5,435.3 534.1,424.1 531.3,414.4 527.1,406.0 521.6,399.1 514.6,393.5 509.0,389.3 504.9,386.5 502.1,385.2 500.7,385.2 500.7,386.5 502.1,389.3 504.9,393.5 509.0,399.1 514.6,406.0 518.8,414.4 521.6,424.1 523.0,432.5 523.0,439.4 521.6,445.0 518.8,449.2 514.6,452.0 511.8,453.4 510.4,453.4 510.4,452.0 511.8,449.2 514.6,445.0 516.0,439.4 516.0,432.5 514.6,426.9 514.6,420.0 516.0,414.4 518.8,410.2 523.0,407.4 525.8,406.0 527.1,406.0 527.1,407.4 525.8,410.2 525.8,414.4 525.8,417.2 524.4,421.3 521.6,426.9 517.4,433.9 511.8,442.2 504.9,452.0 496.5,463.1 486.8,475.6 475.6,489.6 463.1,502.1 449.2,513.2 436.7,523.0 425.5,531.3 415.8,538.3 407.4,543.9 400.5,548.0 394.9,550.8 390.7,552.2 387.9,552.2 386.5,550.8 386.5,548.0 387.9,543.9 390.7,538.3 394.9,531.3 400.5,523.0 407.4,513.2 415.8,502.1 425.5,492.3 436.7,484.0 447.8,477.0 457.5,471.5 465.9,467.3 472.9,464.5 478.4,463.1 482.6,463.1 485.4,464.5 486.8,467.3 486.8,471.5 485.4,477.0 482.6,484.0 478.4,492.3 472.9,500.7 465.9,507.7 457.5,513.2 447.8,517.4 439.4,520.2 432.5,521.6 426.9,521.6 422.7,520.2 420.0,517.4 418.6,513.2 418.6,507.7 420.0,500.7 422.7,495.1 426.9,491.0 432.5,488.2 439.4,486.8 447.8,486.8 454.8,488.2 460.3,491.0 464.5,495.1 467.3,500.7 468.7,504.9 468.7,507.7 467.3,509.0 464.5,509.0 460.3,507.7 454.8,504.9 447.8,500.7 439.4,497.9 429.7,496.5 418.6,496.5 406.0,497.9 392.1,500.7 376.8,504.9 360.1,510.4 344.8,517.4 330.9,525.8 318.3,535.5 307.2,546.6 297.4,559.2 289.1,570.3 282.1,580.0 276.6,588.4 272.4,595.4 269.6,600.9 268.2,605.1 268.2,607.9 269.6,609.3 272.4,609.3 276.6,607.9 282.1,605.1 289.1,600.9 297.4,595.4 307.2,588.4 318.3,580.0 330.9,570.3 344.8,561.9 358.7,555.0 371.2,549.4 382.4,545.2 392.1,542.5 400.5,541.1 407.4,541.1 413.0,542.5 417.2,545.2 420.0,549.4 421.3,555.0 421.3,561.9 420.0,567.5 417.2,571.7 413.0,574.5 407.4,575.9 400.5,575.9 392.1,574.5 382.4,571.7 371.2,567.5 358.7,564.7 347.6,563.3 337.8,563.3 329.5,564.7 322.5,567.5 316.9,568.9 312.8,568.9 310.0,567.5 308.6,567.5 308.6,567.5 310.0,567.5 312.8,567.5 316.9,567.5 322.5,567.5 329.5,567.5 337.8,567.5 347.6,567.5 358.7,567.5 371.2,566.1 385.2,563.3 400.5,559.2 417.2,553.6 435.3,546.6 454.8,538.3 475.6,528.5 495.1,517.4 513.2,504.9 529.9,491.0 545.2,475.6 559.2,461.7 571.7,449.2 582.8,438.1 592.6,428.3 600.9,420.0 607.9,413.0 613.5,407.4 617.6,403.2 620.4,400.5 621.8,399.1 621.8,399.1 620.4,400.5 617.6,403.2 613.5,407.4 607.9,413.0 600.9,420.0 592.6,428.3 582.8,438.1 571.7,449.2 559.2,461.7 545.2,472.9 529.9,482.6 513.2,491.0 495.1,497.9 478.4,503.5 463.1,507.7 449.2,510.4 436.7,511.8 425.5,511.8 415.8,510.4 407.4,507.7 400.5,503.5 394.9,497.9 390.7,491.0 387.9,482.6 386.5,472.9 386.5,464.5 387.9,457.5 390.7,452.0 394.9,447.8 400.5,445.0 407.4,443.6 415.8,443.6 425.5,445.0 436.7,447.8 449.2,452.0 463.1,457.5 478.4,464.5 493.7,470.1 507.7,474.2 520.2,477.0 531.3,478.4 541.1,478.4 549.4,477.0 556.4,474.2 561.9,470.1 566.1,464.5 568.9,460.3 570.3,457.5 570.3,456.1 568.9,456.1 566.1,457.5 561.9,460.3 556.4,464.5 549.4,467.3 541.1,468.7 531.3,468.7 520.2,467.3 507.7,464.5 493.7,463.1 481.2,463.1 470.1,464.5 460.3,464.5 452.0,464.5 445.0,464.5 439.4,464.5 435.3,464.5 432.5,464.5 431.1,464.5 431.1,464.5 432.5,464.5 435.3,464.5 439.4,464.5 445.0,464.5 452.0,464.5 460.3,464.5 470.1,464.5 481.2,464.5 493.7,464.5 504.9,465.9 514.6,468.7 523.0,472.9 529.9,478.4 535.5,485.4 539.7,493.7 542.5,500.7 543.9,506.3 543.9,510.4 542.5,513.2 539.7,514.6 535.5,514.6 529.9,513.2 523.0,510.4 514.6,506.3 504.9,500.7 493.7,496.5 481.2,493.7 467.3,492.3 453.4,492.3 440.8,493.7 429.7,496.5 420.0,500.7 411.6,503.5 404.6,504.9 399.1,504.9 394.9,503.5 392.1,500.7 390.7,499.3 390.7,499.3 392.1,500.7 394.9,500.7 399.1,500.7 404.6,500.7 411.6,500.7 420.0,500.7 429.7,500.7 440.8,500.7 453.4,500.7 467.3,499.3 482.6,496.5 499.3,492.3 517.4,486.8 536.9,479.8 555.0,471.5 571.7,461.7 587.0,450.6 600.9,438.1 613.5,424.1 624.6,408.8 634.3,394.9 642.7,382.4 649.7,371.2 655.2,361.5 659.4,353.1 662.2,346.2 663.6,340.6 663.6,336.4 662.2,333.6 659.4,332.3 655.2,332.3 649.7,333.6 642.7,336.4 634.3,340.6 624.6,346.2 613.5,353.1 600.9,361.5 587.0,371.2 571.7,382.4 555.0,394.9 539.7,406.0 525.8,415.8 513.2,424.1 502.1,431.1 492.3,436.7 484.0,440.8 477.0,443.6 471.5,445.0 467.3,445.0 464.5,443.6 463.1,440.8 463.1,436.7 464.5,431.1 467.3,424.1 471.5,415.8 477.0,406.0 484.0,394.9 492.3,385.2 502.1,376.8 513.2,369.8 525.8,364.3 539.7,360.1 552.2,357.3 563.3,355.9 573.1,355.9 581.4,357.3 588.4,360.1 594.0,364.3 598.1,369.8 600.9,376.8 602.3,385.2 602.3,394.9 600.9,403.2 598.1,410.2 594.0,415.8 588.4,420.0 581.4,422.7 573.1,424.1 563.3,424.1 552.2,422.7 542.5,420.0 534.1,415.8 527.1,410.2 521.6,403.2 517.4,394.9 514.6,387.9 513.2,382.4 513.2,378.2 514.6,375.4 517.4,374.0 521.6,374.0 527.1,375.4 534.1,378.2 542.5,382.4 549.4,387.9 555.0,394.9 559.2,400.5 561.9,404.6 563.3,407.4 563.3,408.8 561.9,408.8 559.2,407.4 555.0,404.6 549.4,400.5 545.2,394.9 542.5,390.7 541.1,387.9 541.1,386.5 542.5,386.5 545.2,387.9 546.6,390.7 546.6,394.9 548.0,397.7 550.8,399.1 555.0,399.1 560.6,397.7 564.7,394.9 567.5,390.7 568.9,385.2 568.9,381.0 567.5,378.2 564.7,376.8 563.3,376.8 563.3,378.2 563.3,381.0 561.9,385.2 559.2,390.7 555.0,397.7 549.4,406.0 542.5,415.8 534.1,426.9 524.4,439.4 513.2,453.4 500.7,468.7 486.8,485.4 471.5,503.5 454.8,523.0 436.7,543.9 417.2,566.1 396.3,587.0 374.0,606.5 353.1,624.6 333.6,641.3 315.5,656.6 298.8,670.5 283.5,683.1 269.6,694.2 257.1,703.9 245.9,712.3 236.2,719.3 227.8,724.8 220.9,729.0 215.3,731.8 211.1,733.2 208.4,733.2 207.0,731.8 207.0,729.0 208.4,724.8 211.1,719.3 215.3,712.3 220.9,703.9 227.8,694.2 236.2,683.1 245.9,670.5 257.1,656.6 269.6,641.3 283.5,624.6 298.8,606.5 315.5,587.0 333.6,568.9 353.1,552.2 371.2,536.9 387.9,523.0 403.2,510.4 417.2,499.3 429.7,489.6 440.8,481.2 450.6,474.2 458.9,468.7 465.9,464.5 471.5,461.7 475.6,460.3 478.4,460.3 479.8,461.7 479.8,464.5 478.4,468.7 475.6,474.2 471.5,481.2 465.9,489.6 458.9,499.3 450.6,510.4 440.8,523.0 429.7,536.9 417.2,552.2 403.2,568.9 387.9,584.2 371.2,598.1 355.9,610.7 342.0,621.8 329.5,631.6 318.3,639.9 308.6,646.9 300.2,652.4 293.3,656.6 287.7,659.4 283.5,660.8 280.7,660.8 279.4,659.4 279.4,656.6 280.7,652.4 283.5,646.9 287.7,639.9 293.3,631.6 300.2,621.8 308.6,610.7 318.3,598.1 329.5,584.2 342.0,571.7 355.9,560.6 368.4,550.8 379.6,542.5 389.3,535.5 397.7,529.9 404.6,525.8 410.2,523.0 414.4,521.6 417.2,521.6 418.6,523.0 418.6,525.8 417.2,529.9 414.4,535.5 410.2,542.5 404.6,550.8 397.7,560.6 389.3,571.7 379.6,581.4 368.4,589.8 358.7,596.8 350.3,602.3 343.4,606.5 337.8,609.3 333.6,610.7 330.9,610.7 329.5,609.3 329.5,606.5 330.9,602.3 333.6,596.8 337.8,589.8 343.4,581.4 350.3,571.7 358.7,563.3 365.7,556.4 371.2,550.8 375.4,546.6 378.2,543.9 379.6,542.5 379.6,542.5 378.2,543.9 375.4,546.6 371.2,550.8 365.7,556.4 358.7,563.3 353.1,571.7 349.0,578.7 346.2,584.2 344.8,588.4 344.8,591.2 346.2,592.6 349.0,592.6 353.1,591.2 358.7,588.4 362.9,584.2 365.7,578.7 367.1,571.7 367.1,566.1 365.7,561.9 362.9,559.2 358.7,557.8 355.9,557.8 354.5,559.2 354.5,561.9 355.9,566.1 358.7,571.7 362.9,575.9 368.4,578.7 375.4,580.0 383.8,580.0 393.5,578.7 404.6,575.9 417.2,571.7 431.1,566.1 446.4,559.2 463.1,550.8 481.2,541.1 497.9,529.9 513.2,517.4 527.1,503.5 539.7,488.2 550.8,471.5 560.6,456.1 568.9,442.2 575.9,429.7 581.4,418.6 585.6,408.8 588.4,400.5 589.8,393.5 589.8,387.9 588.4,383.8 585.6,381.0 581.4,379.6 575.9,379.6 568.9,381.0 560.6,383.8 550.8,387.9 539.7,393.5 527.1,400.5 513.2,408.8 497.9,418.6 484.0,429.7 471.5,442.2 460.3,456.1 450.6,468.7 442.2,479.8 435.3,489.6 429.7,497.9 425.5,504.9 422.7,510.4 421.3,514.6 421.3,517.4 422.7,518.8 425.5,518.8 429.7,517.4 435.3,514.6 442.2,510.4 450.6,504.9 460.3,497.9 471.5,489.6 484.0,479.8 496.5,468.7 507.7,458.9 517.4,450.6 525.8,443.6 532.7,438.1 538.3,433.9 542.5,431.1 545.2,429.7 546.6,429.7 546.6,431.1 545.2,433.9 542.5,438.1 538.3,443.6 532.7,450.6 525.8,458.9 517.4,465.9 507.7,471.5 496.5,475.6 486.8,478.4 478.4,479.8 471.5,479.8 465.9,478.4 461.7,475.6 458.9,471.5 457.5,465.9 457.5,461.7 458.9,458.9 461.7,457.5 465.9,457.5 471.5,458.9 478.4,461.7 486.8,463.1 496.5,463.1 504.9,461.7 511.8,461.7 517.4,461.7 521.6,461.7 524.4,461.7 525.8,461.7 525.8,461.7 524.4,461.7 521.6,461.7 517.4,461.7 511.8,461.7 504.9,461.7 496.5,461.7 486.8,463.1 478.4,465.9 471.5,470.1 465.9,475.6 461.7,482.6 458.9,488.2 457.5,492.3 457.5,495.1 458.9,496.5 461.7,496.5 465.9,495.1 471.5,492.3 478.4,488.2 484.0,484.0 488.2,481.2 491.0,479.8 492.3,479.8 492.3,481.2 491.0,484.0 488.2,488.2 484.0,493.7 478.4,500.7 471.5,509.0 463.1,518.8 453.4,529.9 442.2,542.5 429.7,556.4 415.8,571.7 400.5,585.6 383.8,598.1 365.7,609.3 349.0,619.0 333.6,627.4 319.7,634.3 307.2,639.9 296.1,644.1 286.3,646.9 278.0,648.3 271.0,648.3 265.4,646.9 261.3,644.1 258.5,639.9 257.1,634.3 257.1,627.4 258.5,619.0 261.3,609.3 265.4,598.1 271.0,585.6 278.0,574.5 286.3,564.7 296.1,556.4 307.2,549.4 319.7,543.9 333.6,539.7 349.0,536.9 362.9,535.5 375.4,535.5 386.5,536.9 396.3,539.7 404.6,543.9 411.6,549.4 417.2,556.4 421.3,564.7 424.1,574.5 425.5,584.2 425.5,592.6 424.1,599.5 421.3,605.1 417.2,609.3 411.6,612.1 404.6,613.5 396.3,613.5 386.5,612.1 375.4,609.3 362.9,605.1 351.7,599.5 342.0,592.6 333.6,584.2 326.7,577.3 321.1,571.7 316.9,567.5 314.2,564.7 312.8,563.3 312.8,563.3 314.2,564.7 316.9,567.5 321.1,571.7 326.7,577.3 333.6,584.2 342.0,589.8 351.7,594.0 360.1,596.8 367.1,598.1 372.6,598.1 376.8,596.8 379.6,594.0 381.0,589.8 381.0,584.2 379.6,580.0 376.8,577.3 372.6,575.9 367.1,575.9 360.1,577.3 353.1,580.0 347.6,584.2 343.4,587.0 340.6,588.4 339.2,588.4 339.2,587.0 340.6,584.2 343.4,582.8 347.6,582.8 353.1,584.2 360.1,584.2 368.4,582.8 375.4,580.0 381.0,575.9 385.2,570.3 387.9,563.3 389.3,555.0 389.3,548.0 387.9,542.5 385.2,538.3 381.0,535.5 375.4,534.1 371.2,534.1 368.4,535.5 367.1,538.3 367.1,542.5 368.4,548.0 371.2,552.2 375.4,555.0 378.2,556.4 379.6,556.4 379.6,555.0 378.2,552.2 375.4,548.0 374.0,542.5 374.0,535.5 375.4,527.1 378.2,517.4 382.4,506.3 387.9,496.5 394.9,488.2 403.2,481.2 413.0,475.6 424.1,471.5 436.7,468.7 450.6,467.3 463.1,467.3 474.2,468.7 484.0,471.5 492.3,475.6 499.3,481.2 504.9,488.2 509.0,496.5 511.8,503.5 513.2,509.0 513.2,513.2 511.8,516.0 509.0,517.4 504.9,517.4 499.3,516.0 492.3,513.2 484.0,509.0 474.2,503.5 463.1,499.3 453.4,496.5 445.0,495.1 438.1,495.1 432.5,496.5 428.3,499.3 425.5,500.7 424.1,500.7 424.1,499.3 425.5,499.3 428.3,499.3 432.5,499.3 438.1,499.3 445.0,499.3 453.4,499.3 460.3,499.3 468.7,497.9 478.4,495.1 489.6,491.0 502.1,485.4 516.0,478.4 529.9,470.1 542.5,460.3 553.6,449.2 563.3,436.7 571.7,422.7 578.7,410.2 584.2,399.1 588.4,389.3 591.2,381.0 592.6,374.0 592.6,368.4 591.2,364.3 588.4,361.5 584.2,360.1 578.7,360.1 571.7,361.5 563.3,364.3 553.6,368.4 542.5,374.0 529.9,381.0 518.8,389.3 509.0,399.1 500.7,410.2 493.7,420.0 488.2,428.3 484.0,435.3 481.2,440.8 479.8,445.0 479.8,447.8 481.2,449.2 484.0,449.2 488.2,447.8 493.7,445.0 500.7,440.8 509.0,435.3 518.8,428.3 529.9,420.0 539.7,410.2 548.0,401.9 555.0,394.9 560.6,389.3 564.7,385.2 567.5,382.4 568.9,381.0 568.9,381.0 567.5,382.4 564.7,385.2 560.6,389.3 555.0,394.9 548.0,401.9 539.7,410.2 529.9,417.2 521.6,422.7 514.6,426.9 509.0,429.7 504.9,431.1 502.1,431.1 500.7,429.7 500.7,426.9 502.1,422.7 504.9,417.2 509.0,410.2 514.6,404.6 521.6,400.5 529.9,397.7 536.9,396.3 542.5,396.3 546.6,397.7 549.4,400.5 550.8,404.6 550.8,410.2 549.4,414.4 546.6,417.2 542.5,418.6 536.9,418.6 529.9,417.2 524.4,414.4 520.2,410.2 517.4,407.4 516.0,406.0 516.0,406.0 517.4,407.4 520.2,410.2 524.4,411.6 529.9,411.6 534.1,410.2 536.9,410.2 538.3,410.2 538.3,410.2 536.9,410.2 534.1,410.2 529.9,410.2 524.4,411.6 517.4,414.4 509.0,418.6 502.1,424.1 496.5,431.1 492.3,438.1 489.6,443.6 488.2,447.8 488.2,450.6 489.6,452.0 492.3,452.0 496.5,450.6 502.1,447.8 509.0,443.6 514.6,438.1 518.8,433.9 521.6,431.1 523.0,429.7 523.0,429.7 521.6,431.1 518.8,433.9 514.6,438.1 509.0,440.8 504.9,442.2 502.1,442.2 500.7,440.8 500.7,438.1 502.1,436.7 504.9,436.7 509.0,438.1 511.8,438.1 513.2,436.7 513.2,433.9 511.8,432.5 509.0,432.5 504.9,433.9 499.3,436.7 492.3,440.8 484.0,446.4 474.2,453.4 463.1,461.7 450.6,471.5 436.7,482.6 421.3,495.1 404.6,509.0 386.5,524.4 367.1,541.1 349.0,559.2 332.3,575.9 316.9,591.2 303.0,605.1 290.5,617.6 279.4,628.8 269.6,638.5 261.3,646.9 254.3,653.8 248.7,659.4 244.5,663.6 241.8,666.4 240.4,667.7 240.4,667.7 241.8,666.4 244.5,663.6 248.7,659.4 254.3,653.8 261.3,646.9 269.6,638.5 279.4,628.8 290.5,617.6 303.0,605.1 316.9,591.2 332.3,575.9 349.0,560.6 365.7,546.6 381.0,534.1 394.9,523.0 407.4,513.2 418.6,504.9 428.3,497.9 436.7,492.3 443.6,488.2 449.2,485.4 453.4,484.0 456.1,484.0 457.5,485.4 457.5,488.2 456.1,492.3 453.4,497.9 449.2,504.9 443.6,513.2 436.7,523.0 428.3,534.1 418.6,546.6 407.4,560.6 394.9,573.1 381.0,584.2 365.7,594.0 351.7,602.3 339.2,609.3 328.1,614.8 318.3,619.0 310.0,621.8 303.0,623.2 297.4,623.2 293.3,621.8 290.5,619.0 289.1,614.8 289.1,609.3 290.5,602.3 293.3,594.0 297.4,584.2 303.0,573.1 310.0,560.6 318.3,549.4 328.1,539.7 339.2,531.3 351.7,524.4 365.7,518.8 378.2,514.6 389.3,511.8 399.1,510.4 407.4,510.4 414.4,511.8 420.0,514.6 424.1,518.8 426.9,524.4 428.3,531.3 428.3,539.7 426.9,549.4 424.1,560.6 420.0,570.3 414.4,578.7 407.4,585.6 399.1,591.2 389.3,595.4 378.2,598.1 365.7,599.5 354.5,599.5 344.8,598.1 336.4,595.4 329.5,591.2 323.9,585.6 319.7,578.7 316.9,570.3 315.5,560.6 315.5,552.2 316.9,545.2 319.7,539.7 323.9,535.5 329.5,532.7 336.4,531.3 344.8,531.3 354.5,532.7 365.7,535.5 375.4,539.7 383.8,545.2 390.7,552.2 396.3,560.6 400.5,567.5 403.2,573.1 404.6,577.3 404.6,580.0 403.2,581.4 400.5,581.4 396.3,580.0 390.7,577.3 383.8,573.1 375.4,567.5 365.7,560.6 357.3,552.2 350.3,542.5 344.8,531.3 340.6,518.8 337.8,504.9 336.4,492.3 336.4,481.2 337.8,471.5 340.6,463.1 344.8,456.1 350.3,450.6 357.3,446.4 365.7,443.6 375.4,442.2 386.5,442.2 399.1,443.6 413.0,446.4 428.3,450.6 442.2,456.1 454.8,463.1 465.9,471.5 475.6,481.2 484.0,492.3 491.0,504.9 496.5,516.0 500.7,525.8 503.5,534.1 504.9,541.1 504.9,546.6 503.5,550.8 500.7,553.6 496.5,555.0 491.0,555.0 484.0,553.6 475.6,550.8 465.9,546.6 454.8,541.1 442.2,534.1 431.1,525.8 421.3,516.0 413.0,504.9 406.0,495.1 400.5,486.8 396.3,479.8 393.5,474.2 392.1,470.1 392.1,467.3 393.5,465.9 396.3,465.9 400.5,467.3 406.0,470.1 413.0,474.2 421.3,479.8 431.1,486.8 439.4,495.1 446.4,504.9 452.0,513.2 456.1,520.2 458.9,525.8 460.3,529.9 460.3,532.7 458.9,534.1 456.1,534.1 452.0,532.7 446.4,529.9 439.4,525.8 433.9,520.2 429.7,513.2 426.9,504.9 425.5,497.9 425.5,492.3 426.9,488.2 429.7,485.4 433.9,484.0 438.1,484.0 440.8,485.4 442.2,488.2 442.2,492.3 440.8,497.9 438.1,504.9 433.9,510.4 431.1,514.6 429.7,517.4 429.7,518.8 431.1,518.8 432.5,517.4 432.5,514.6 432.5,510.4 432.5,507.7 433.9,503.5 436.7,497.9 440.8,491.0 446.4,485.4 453.4,481.2 461.7,478.4 471.5,477.0 481.2,477.0 489.6,478.4 496.5,481.2 502.1,485.4 506.3,488.2 509.0,489.6 510.4,489.6 510.4,488.2 509.0,486.8 506.3,486.8 502.1,486.8 496.5,486.8 489.6,486.8" fill="none" stroke="red" stroke-width="3" stroke-opacity="0.5"/>
  <circle cx="481.2" cy="486.8" r="50" fill="blue" fill-opacity="0.5"/>
</svg>