<svg width="1000" height="1000" xmlns="http://www.w3.org/2000/svg">
  <rect x="200" y="200" width="600" height="600" fill="white" stroke="gray" stroke-width="5" />
  <circle cx="614.7" cy="588.2" r="7" fill="black" />
  <circle cx="601.5" cy="579.4" r="7" fill="black" />
  <circle cx="592.6" cy="561.8" r="7" fill="black" />
  <circle cx="588.2" cy="548.5" r="7" fill="black" />
  <circle cx="575.0" cy="539.7" r="7" fill="black" />
  <circle cx="570.6" cy="535.3" r="7" fill="black" />
  <circle cx="566.2" cy="522.1" r="7" fill="black" />
  <circle cx="552.9" cy="500.0" r="7" fill="black" />
  <circle cx="544.1" cy="486.8" r="7" fill="black" />
  <circle cx="544.1" cy="464.7" r="7" fill="black" />
  <circle cx="552.9" cy="447.1" r="7" fill="black" />
  <circle cx="570.6" cy="429.4" r="7" fill="black" />
  <circle cx="597.1" cy="402.9" r="7" fill="black" />
  <circle cx="627.9" cy="385.3" r="7" fill="black" />
  <circle cx="654.4" cy="367.6" r="7" fill="black" />
  <circle cx="689.7" cy="358.8" r="7" fill="black" />
  <circle cx="716.2" cy="350.0" r="7" fill="black" />
  <circle cx="733.8" cy="345.6" r="7" fill="black" />
  <circle cx="755.9" cy="336.8" r="7" fill="black" />
  <circle cx="773.5" cy="319.1" r="7" fill="black" />
  <circle cx="782.4" cy="292.6" r="7" fill="black" />
  <circle cx="786.8" cy="275.0" r="7" fill="black" />
  <circle cx="795.6" cy="266.2" r="7" fill="black" />
  <circle cx="795.6" cy="266.2" r="7" fill="black" />
  <circle cx="786.8" cy="257.4" r="7" fill="black" />
  <circle cx="773.5" cy="257.4" r="7" fill="black" />
  <circle cx="755.9" cy="248.5" r="7" fill="black" />
  <circle cx="747.1" cy="230.9" r="7" fill="black" />
  <circle cx="738.2" cy="213.2" r="7" fill="black" />
  <circle cx="720.6" cy="204.4" r="7" fill="black" />
  <circle cx="702.9" cy="200.0" r="7" fill="black" />
  <circle cx="680.9" cy="204.4" r="7" fill="black" />
  <circle cx="654.4" cy="213.2" r="7" fill="black" />
  <circle cx="623.5" cy="226.5" r="7" fill="black" />
  <circle cx="601.5" cy="244.1" r="7" fill="black" />
  <circle cx="570.6" cy="257.4" r="7" fill="black" />
  <circle cx="530.9" cy="266.2" r="7" fill="black" />
  <circle cx="491.2" cy="279.4" r="7" fill="black" />
  <circle cx="460.3" cy="288.2" r="7" fill="black" />
  <circle cx="420.6" cy="297.1" r="7" fill="black" />
  <circle cx="380.9" cy="310.3" r="7" fill="black" />
  <circle cx="350.0" cy="327.9" r="7" fill="black" />
  <circle cx="327.9" cy="345.6" r="7" fill="black" />
  <circle cx="297.1" cy="358.8" r="7" fill="black" />
  <circle cx="275.0" cy="372.1" r="7" fill="black" />
  <circle cx="261.8" cy="389.7" r="7" fill="black" />
  <circle cx="252.9" cy="402.9" r="7" fill="black" />
  <circle cx="239.7" cy="407.4" r="7" fill="black" />
  <circle cx="217.6" cy="420.6" r="7" fill="black" />
  <circle cx="204.4" cy="433.8" r="7" fill="black" />
  <polyline points="619.1,588.2 614.7,588.2 605.9,583.8 601.5,579.4 592.6,570.6 588.2,561.8 588.2,557.4 592.6,557.4 592.6,561.8 588.2,561.8 588.2,557.4 588.2,548.5 583.8,539.7 575.0,535.3 570.6,535.3 570.6,539.7 575.0,539.7 575.0,535.3 570.6,526.5 566.2,522.1 557.4,513.2 552.9,504.4 552.9,500.0 548.5,491.2 544.1,486.8 544.1,477.9 544.1,469.1 544.1,464.7 548.5,455.9 552.9,447.1 561.8,438.2 570.6,429.4 579.4,420.6 588.2,411.8 597.1,402.9 605.9,394.1 614.7,385.3 623.5,380.9 627.9,380.9 627.9,385.3 632.4,385.3 641.2,380.9 650.0,372.1 654.4,367.6 663.2,358.8 672.1,354.4 680.9,354.4 689.7,358.8 698.5,358.8 707.4,354.4 716.2,350.0 725.0,345.6 733.8,345.6 742.6,341.2 751.5,336.8 755.9,336.8 764.7,332.4 773.5,323.5 777.9,319.1 777.9,319.1 773.5,319.1 773.5,314.7 777.9,305.9 782.4,297.1 782.4,292.6 786.8,283.8 786.8,275.0 791.2,266.2 795.6,261.8 795.6,261.8 795.6,266.2 791.2,266.2 786.8,261.8 786.8,257.4 782.4,257.4 773.5,257.4 764.7,252.9 755.9,248.5 747.1,239.7 742.6,230.9 742.6,226.5 747.1,226.5 747.1,230.9 742.6,230.9 738.2,226.5 738.2,217.6 738.2,213.2 733.8,204.4 725.0,200.0 720.6,200.0 720.6,204.4 716.2,204.4 707.4,200.0 702.9,200.0 694.1,204.4 685.3,204.4 680.9,204.4 672.1,208.8 663.2,213.2 654.4,213.2 645.6,217.6 636.8,226.5 627.9,230.9 623.5,230.9 623.5,226.5 619.1,226.5 610.3,230.9 601.5,239.7 597.1,244.1 597.1,244.1 601.5,244.1 601.5,248.5 597.1,257.4 588.2,261.8 579.4,261.8 570.6,257.4 561.8,257.4 552.9,261.8 544.1,266.2 535.3,266.2 530.9,266.2 522.1,270.6 513.2,279.4 504.4,283.8 495.6,283.8 491.2,279.4 482.4,279.4 473.5,283.8 464.7,288.2 460.3,288.2 451.5,292.6 442.6,297.1 433.8,297.1 425.0,297.1 420.6,297.1 411.8,301.5 402.9,310.3 394.1,314.7 385.3,314.7 380.9,310.3 372.1,310.3 363.2,314.7 354.4,323.5 350.0,327.9 341.2,336.8 332.4,345.6 327.9,350.0 327.9,350.0 327.9,345.6 323.5,345.6 314.7,350.0 305.9,358.8 297.1,363.2 292.6,363.2 292.6,358.8 297.1,358.8 297.1,363.2 292.6,372.1 283.8,376.5 275.0,376.5 270.6,372.1 270.6,372.1 275.0,372.1 275.0,376.5 270.6,385.3 261.8,389.7 252.9,398.5 248.5,402.9 248.5,402.9 252.9,402.9 252.9,407.4 248.5,407.4 239.7,407.4 230.9,411.8 222.1,420.6 217.6,425.0 217.6,425.0 217.6,420.6 213.2,420.6 204.4,425.0 200.0,433.8 200.0,438.2 204.4,438.2" fill="none" stroke="red" stroke-width="7" stroke-opacity="0.5"/>
  <circle cx="204.4" cy="433.8" r="15" fill="blue" fill-opacity="0.5"/>
</svg>