<svg width="1000" height="1000" xmlns="http://www.w3.org/2000/svg">
  <rect x="200" y="200" width="600" height="600" fill="white" stroke="gray" stroke-width="5" />
  <circle cx="257.1" cy="685.7" r="7" fill="black" />
  <circle cx="200.0" cy="600.0" r="7" fill="black" />
  <circle cx="314.3" cy="457.1" r="7" fill="black" />
  <circle cx="342.9" cy="257.1" r="7" fill="black" />
  <circle cx="600.0" cy="771.4" r="7" fill="black" />
  <circle cx="485.7" cy="457.1" r="7" fill="black" />
  <circle cx="257.1" cy="457.1" r="7" fill="black" />
  <circle cx="285.7" cy="200.0" r="7" fill="black" />
  <circle cx="542.9" cy="714.3" r="7" fill="black" />
  <circle cx="771.4" cy="514.3" r="7" fill="black" />
  <circle cx="628.6" cy="600.0" r="7" fill="black" />
  <circle cx="257.1" cy="428.6" r="7" fill="black" />
  <circle cx="457.1" cy="628.6" r="7" fill="black" />
  <circle cx="657.1" cy="342.9" r="7" fill="black" />
  <circle cx="285.7" cy="400.0" r="7" fill="black" />
  <circle cx="342.9" cy="371.4" r="7" fill="black" />
  <circle cx="742.9" cy="342.9" r="7" fill="black" />
  <circle cx="485.7" cy="485.7" r="7" fill="black" />
  <circle cx="228.6" cy="371.4" r="7" fill="black" />
  <polyline points="485.7,485.7 485.7,457.1 485.7,457.1 485.7,485.7 457.1,485.7 400.0,457.1 342.9,457.1 314.3,457.1 257.1,457.1 228.6,428.6 228.6,428.6 257.1,428.6 257.1,400.0 228.6,371.4 228.6,371.4 257.1,371.4 314.3,371.4 342.9,371.4 342.9,400.0 314.3,400.0 285.7,400.0 228.6,428.6 200.0,485.7 200.0,542.9 200.0,600.0 228.6,657.1 285.7,714.3 342.9,742.9 400.0,742.9 457.1,714.3 514.3,714.3 542.9,714.3 600.0,685.7 628.6,628.6 628.6,600.0 600.0,600.0 600.0,628.6 600.0,685.7 600.0,742.9 600.0,771.4 628.6,771.4 685.7,742.9 742.9,685.7 771.4,628.6 771.4,571.4 771.4,514.3 742.9,457.1 685.7,400.0 657.1,342.9 657.1,314.3 685.7,314.3 742.9,342.9 771.4,400.0 771.4,457.1 742.9,514.3 685.7,571.4 628.6,628.6 571.4,657.1 514.3,657.1 457.1,628.6 400.0,571.4 342.9,514.3 285.7,457.1 257.1,400.0 257.1,342.9 285.7,285.7 285.7,228.6 285.7,200.0 314.3,200.0 342.9,228.6 342.9,257.1 314.3,314.3 257.1,371.4 228.6,428.6 228.6,485.7 257.1,542.9 257.1,600.0 257.1,657.1" fill="none" stroke="red" stroke-width="7" stroke-opacity="0.5"/>
  <circle cx="257.1" cy="685.7" r="15" fill="blue" fill-opacity="0.5"/>
</svg>