<svg width="1000" height="1000" xmlns="http://www.w3.org/2000/svg">
  <rect x="200" y="200" width="600" height="600" fill="white" stroke="gray" stroke-width="5" />
  <circle cx="200.0" cy="233.3" r="7" fill="black" />
  <circle cx="266.7" cy="466.7" r="7" fill="black" />
  <circle cx="366.7" cy="700.0" r="7" fill="black" />
  <circle cx="333.3" cy="666.7" r="7" fill="black" />
  <circle cx="333.3" cy="633.3" r="7" fill="black" />
  <circle cx="200.0" cy="300.0" r="7" fill="black" />
  <circle cx="200.0" cy="200.0" r="7" fill="black" />
  <circle cx="300.0" cy="566.7" r="7" fill="black" />
  <circle cx="233.3" cy="366.7" r="7" fill="black" />
  <circle cx="400.0" cy="733.3" r="7" fill="black" />
  <polyline points="233.3,200.0 200.0,200.0 200.0,233.3 200.0,300.0 233.3,366.7 266.7,466.7 300.0,566.7 333.3,666.7 400.0,733.3 433.3,766.7 433.3,766.7 400.0,733.3 366.7,700.0" fill="none" stroke="red" stroke-width="7" stroke-opacity="0.5"/>
  <circle cx="333.3" cy="633.3" r="15" fill="blue" fill-opacity="0.5"/>
</svg>