<svg width="1000" height="1000" xmlns="http://www.w3.org/2000/svg">
  <rect x="200" y="200" width="600" height="600" fill="white" stroke="gray" stroke-width="5" />
  <circle cx="228.0" cy="205.1" r="7" fill="black" />
  <circle cx="222.9" cy="210.2" r="7" fill="black" />
  <circle cx="217.8" cy="212.7" r="7" fill="black" />
  <circle cx="215.3" cy="215.3" r="7" fill="black" />
  <circle cx="212.7" cy="215.3" r="7" fill="black" />
  <circle cx="210.2" cy="217.8" r="7" fill="black" />
  <circle cx="210.2" cy="217.8" r="7" fill="black" />
  <circle cx="207.6" cy="220.3" r="7" fill="black" />
  <circle cx="202.5" cy="222.9" r="7" fill="black" />
  <circle cx="200.0" cy="228.0" r="7" fill="black" />
  <circle cx="200.0" cy="235.6" r="7" fill="black" />
  <circle cx="200.0" cy="243.2" r="7" fill="black" />
  <circle cx="202.5" cy="248.3" r="7" fill="black" />
  <circle cx="205.1" cy="255.9" r="7" fill="black" />
  <circle cx="205.1" cy="263.6" r="7" fill="black" />
  <circle cx="207.6" cy="271.2" r="7" fill="black" />
  <circle cx="210.2" cy="276.3" r="7" fill="black" />
  <circle cx="210.2" cy="283.9" r="7" fill="black" />
  <circle cx="212.7" cy="294.1" r="7" fill="black" />
  <circle cx="217.8" cy="304.2" r="7" fill="black" />
  <circle cx="222.9" cy="316.9" r="7" fill="black" />
  <circle cx="228.0" cy="327.1" r="7" fill="black" />
  <circle cx="235.6" cy="337.3" r="7" fill="black" />
  <circle cx="243.2" cy="344.9" r="7" fill="black" />
  <circle cx="253.4" cy="350.0" r="7" fill="black" />
  <circle cx="261.0" cy="357.6" r="7" fill="black" />
  <circle cx="266.1" cy="362.7" r="7" fill="black" />
  <circle cx="268.6" cy="367.8" r="7" fill="black" />
  <circle cx="271.2" cy="370.3" r="7" fill="black" />
  <circle cx="276.3" cy="370.3" r="7" fill="black" />
  <circle cx="281.4" cy="372.9" r="7" fill="black" />
  <circle cx="283.9" cy="372.9" r="7" fill="black" />
  <circle cx="286.4" cy="370.3" r="7" fill="black" />
  <circle cx="291.5" cy="370.3" r="7" fill="black" />
  <circle cx="294.1" cy="367.8" r="7" fill="black" />
  <circle cx="299.2" cy="362.7" r="7" fill="black" />
  <circle cx="306.8" cy="360.2" r="7" fill="black" />
  <circle cx="316.9" cy="360.2" r="7" fill="black" />
  <circle cx="329.7" cy="362.7" r="7" fill="black" />
  <circle cx="339.8" cy="362.7" r="7" fill="black" />
  <circle cx="347.5" cy="362.7" r="7" fill="black" />
  <circle cx="357.6" cy="362.7" r="7" fill="black" />
  <circle cx="370.3" cy="360.2" r="7" fill="black" />
  <circle cx="385.6" cy="360.2" r="7" fill="black" />
  <circle cx="398.3" cy="360.2" r="7" fill="black" />
  <circle cx="413.6" cy="357.6" r="7" fill="black" />
  <circle cx="428.8" cy="357.6" r="7" fill="black" />
  <circle cx="446.6" cy="357.6" r="7" fill="black" />
  <circle cx="461.9" cy="357.6" r="7" fill="black" />
  <circle cx="477.1" cy="355.1" r="7" fill="black" />
  <circle cx="494.9" cy="352.5" r="7" fill="black" />
  <circle cx="510.2" cy="352.5" r="7" fill="black" />
  <circle cx="522.9" cy="350.0" r="7" fill="black" />
  <circle cx="535.6" cy="350.0" r="7" fill="black" />
  <circle cx="548.3" cy="350.0" r="7" fill="black" />
  <circle cx="563.6" cy="352.5" r="7" fill="black" />
  <circle cx="578.8" cy="352.5" r="7" fill="black" />
  <circle cx="591.5" cy="350.0" r="7" fill="black" />
  <circle cx="601.7" cy="350.0" r="7" fill="black" />
  <circle cx="611.9" cy="350.0" r="7" fill="black" />
  <circle cx="622.0" cy="347.5" r="7" fill="black" />
  <circle cx="634.7" cy="347.5" r="7" fill="black" />
  <circle cx="644.9" cy="344.9" r="7" fill="black" />
  <circle cx="652.5" cy="339.8" r="7" fill="black" />
  <circle cx="657.6" cy="337.3" r="7" fill="black" />
  <circle cx="665.3" cy="334.7" r="7" fill="black" />
  <circle cx="672.9" cy="329.7" r="7" fill="black" />
  <circle cx="678.0" cy="322.0" r="7" fill="black" />
  <circle cx="683.1" cy="314.4" r="7" fill="black" />
  <circle cx="688.1" cy="309.3" r="7" fill="black" />
  <circle cx="695.8" cy="306.8" r="7" fill="black" />
  <circle cx="698.3" cy="309.3" r="7" fill="black" />
  <circle cx="698.3" cy="311.9" r="7" fill="black" />
  <circle cx="698.3" cy="311.9" r="7" fill="black" />
  <circle cx="698.3" cy="311.9" r="7" fill="black" />
  <circle cx="698.3" cy="314.4" r="7" fill="black" />
  <circle cx="695.8" cy="319.5" r="7" fill="black" />
  <circle cx="690.7" cy="322.0" r="7" fill="black" />
  <circle cx="685.6" cy="327.1" r="7" fill="black" />
  <circle cx="683.1" cy="329.7" r="7" fill="black" />
  <circle cx="680.5" cy="329.7" r="7" fill="black" />
  <circle cx="680.5" cy="332.2" r="7" fill="black" />
  <circle cx="678.0" cy="334.7" r="7" fill="black" />
  <circle cx="672.9" cy="334.7" r="7" fill="black" />
  <circle cx="670.3" cy="337.3" r="7" fill="black" />
  <circle cx="667.8" cy="339.8" r="7" fill="black" />
  <circle cx="667.8" cy="344.9" r="7" fill="black" />
  <circle cx="670.3" cy="350.0" r="7" fill="black" />
  <circle cx="675.4" cy="355.1" r="7" fill="black" />
  <circle cx="678.0" cy="360.2" r="7" fill="black" />
  <circle cx="683.1" cy="362.7" r="7" fill="black" />
  <circle cx="690.7" cy="362.7" r="7" fill="black" />
  <circle cx="698.3" cy="365.3" r="7" fill="black" />
  <circle cx="703.4" cy="367.8" r="7" fill="black" />
  <circle cx="711.0" cy="372.9" r="7" fill="black" />
  <circle cx="718.6" cy="378.0" r="7" fill="black" />
  <circle cx="728.8" cy="383.1" r="7" fill="black" />
  <circle cx="746.6" cy="390.7" r="7" fill="black" />
  <circle cx="756.8" cy="395.8" r="7" fill="black" />
  <circle cx="764.4" cy="403.4" r="7" fill="black" />
  <circle cx="769.5" cy="413.6" r="7" fill="black" />
  <circle cx="772.0" cy="423.7" r="7" fill="black" />
  <circle cx="774.6" cy="436.4" r="7" fill="black" />
  <circle cx="779.7" cy="446.6" r="7" fill="black" />
  <circle cx="784.7" cy="459.3" r="7" fill="black" />
  <circle cx="787.3" cy="474.6" r="7" fill="black" />
  <circle cx="787.3" cy="489.8" r="7" fill="black" />
  <circle cx="787.3" cy="505.1" r="7" fill="black" />
  <circle cx="784.7" cy="520.3" r="7" fill="black" />
  <circle cx="784.7" cy="535.6" r="7" fill="black" />
  <circle cx="787.3" cy="553.4" r="7" fill="black" />
  <circle cx="792.4" cy="568.6" r="7" fill="black" />
  <circle cx="794.9" cy="581.4" r="7" fill="black" />
  <circle cx="797.5" cy="594.1" r="7" fill="black" />
  <circle cx="797.5" cy="609.3" r="7" fill="black" />
  <circle cx="794.9" cy="622.0" r="7" fill="black" />
  <polyline points="235.6,200.0 233.1,202.5 228.0,205.1 222.9,210.2 217.8,212.7 215.3,215.3 212.7,215.3 210.2,217.8 207.6,220.3 202.5,222.9 200.0,228.0 200.0,235.6 200.0,243.2 202.5,248.3 205.1,255.9 205.1,263.6 207.6,271.2 210.2,276.3 210.2,283.9 212.7,294.1 217.8,304.2 222.9,316.9 228.0,327.1 235.6,337.3 243.2,344.9 253.4,350.0 261.0,357.6 266.1,362.7 268.6,367.8 271.2,370.3 276.3,370.3 281.4,372.9 283.9,372.9 286.4,370.3 291.5,370.3 294.1,367.8 299.2,362.7 306.8,360.2 316.9,360.2 329.7,362.7 339.8,362.7 347.5,362.7 357.6,362.7 370.3,360.2 385.6,360.2 398.3,360.2 413.6,357.6 428.8,357.6 446.6,357.6 461.9,357.6 477.1,355.1 494.9,352.5 510.2,352.5 522.9,350.0 535.6,350.0 548.3,350.0 563.6,352.5 578.8,352.5 591.5,350.0 601.7,350.0 611.9,350.0 622.0,347.5 634.7,347.5 644.9,344.9 652.5,339.8 657.6,337.3 665.3,334.7 672.9,334.7 678.0,334.7 680.5,332.2 680.5,329.7 683.1,329.7 685.6,327.1 690.7,322.0 695.8,319.5 698.3,314.4 698.3,311.9 698.3,309.3 695.8,306.8 690.7,306.8 688.1,309.3 683.1,314.4 678.0,322.0 672.9,329.7 670.3,337.3 667.8,342.4 667.8,344.9 667.8,344.9 667.8,342.4 667.8,339.8 670.3,339.8 670.3,342.4 670.3,347.5 670.3,350.0 672.9,355.1 675.4,357.6 675.4,357.6 675.4,355.1 678.0,355.1 678.0,357.6 678.0,360.2 680.5,362.7 683.1,362.7 688.1,362.7 690.7,362.7 695.8,365.3 698.3,365.3 703.4,367.8 711.0,372.9 718.6,378.0 728.8,383.1 741.5,390.7 751.7,395.8 759.3,398.3 764.4,398.3 766.9,395.8 766.9,390.7 764.4,388.1 759.3,388.1 751.7,390.7 746.6,390.7 744.1,393.2 744.1,395.8 746.6,395.8 751.7,395.8 756.8,395.8 764.4,398.3 769.5,403.4 772.0,405.9 772.0,405.9 769.5,403.4 764.4,403.4 761.9,405.9 761.9,411.0 764.4,413.6 769.5,413.6 772.0,416.1 772.0,421.2 772.0,423.7 774.6,428.8 774.6,436.4 777.1,446.6 779.7,454.2 779.7,459.3 779.7,461.9 779.7,461.9 779.7,459.3 779.7,454.2 779.7,446.6 782.2,441.5 784.7,439.0 784.7,439.0 784.7,441.5 784.7,446.6 784.7,454.2 784.7,459.3 787.3,466.9 787.3,474.6 787.3,484.7 787.3,492.4 787.3,497.5 787.3,500.0 787.3,500.0 787.3,497.5 787.3,492.4 787.3,489.8 787.3,489.8 787.3,492.4 787.3,497.5 787.3,505.1 784.7,515.3 784.7,522.9 784.7,528.0 784.7,530.5 784.7,530.5 784.7,528.0 784.7,522.9 784.7,520.3 784.7,520.3 784.7,522.9 784.7,528.0 784.7,535.6 787.3,545.8 787.3,553.4 789.8,563.6 792.4,571.2 792.4,576.3 792.4,578.8 792.4,578.8 792.4,576.3 792.4,571.2 792.4,568.6 794.9,568.6 794.9,571.2 794.9,576.3 794.9,581.4 797.5,589.0 797.5,594.1 797.5,601.7 797.5,609.3 794.9,619.5 794.9,627.1 794.9,632.2 794.9,634.7 794.9,634.7 794.9,632.2 794.9,627.1" fill="none" stroke="red" stroke-width="7" stroke-opacity="0.5"/>
  <circle cx="794.9" cy="622.0" r="15" fill="blue" fill-opacity="0.5"/>
</svg>