<svg width="1476" height="1827" xmlns="http://www.w3.org/2000/svg">
  <circle cx="711" cy="841" r="1" fill="black" />
  <circle cx="820" cy="947" r="1" fill="black" />
  <circle cx="808" cy="812" r="1" fill="black" />
  <circle cx="677" cy="821" r="1" fill="black" />
  <circle cx="691" cy="980" r="1" fill="black" />
  <circle cx="678" cy="908" r="1" fill="black" />
  <circle cx="662" cy="990" r="1" fill="black" />
  <circle cx="820" cy="856" r="1" fill="black" />
  <circle cx="806" cy="1002" r="1" fill="black" />
  <circle cx="762" cy="957" r="1" fill="black" />
  <circle cx="741" cy="998" r="1" fill="black" />
  <circle cx="760" cy="943" r="1" fill="black" />
  <circle cx="745" cy="866" r="1" fill="black" />
  <circle cx="783" cy="971" r="1" fill="black" />
  <circle cx="761" cy="959" r="1" fill="black" />
  <circle cx="773" cy="812" r="1" fill="black" />
  <circle cx="707" cy="972" r="1" fill="black" />
  <circle cx="791" cy="887" r="1" fill="black" />
  <circle cx="824" cy="865" r="1" fill="black" />
  <circle cx="708" cy="840" r="1" fill="black" />
  <circle cx="671" cy="836" r="1" fill="black" />
  <circle cx="726" cy="847" r="1" fill="black" />
  <circle cx="657" cy="978" r="1" fill="black" />
  <circle cx="829" cy="808" r="1" fill="black" />
  <circle cx="811" cy="884" r="1" fill="black" />
  <circle cx="688" cy="905" r="1" fill="black" />
  <circle cx="667" cy="829" r="1" fill="black" />
  <circle cx="843" cy="855" r="1" fill="black" />
  <circle cx="672" cy="838" r="1" fill="black" />
  <circle cx="797" cy="806" r="1" fill="black" />
  <circle cx="742" cy="828" r="1" fill="black" />
  <circle cx="834" cy="812" r="1" fill="black" />
  <circle cx="659" cy="974" r="1" fill="black" />
  <circle cx="777" cy="886" r="1" fill="black" />
  <circle cx="663" cy="816" r="1" fill="black" />
  <circle cx="759" cy="984" r="1" fill="black" />
  <circle cx="746" cy="956" r="1" fill="black" />
  <circle cx="810" cy="980" r="1" fill="black" />
  <circle cx="800" cy="850" r="1" fill="black" />
  <circle cx="732" cy="885" r="1" fill="black" />
  <circle cx="831" cy="824" r="1" fill="black" />
  <circle cx="657" cy="874" r="1" fill="black" />
  <circle cx="852" cy="815" r="1" fill="black" />
  <circle cx="750" cy="906" r="1" fill="black" />
  <circle cx="712" cy="882" r="1" fill="black" />
  <circle cx="763" cy="892" r="1" fill="black" />
  <circle cx="727" cy="943" r="1" fill="black" />
  <circle cx="671" cy="814" r="1" fill="black" />
  <circle cx="822" cy="912" r="1" fill="black" />
  <circle cx="785" cy="924" r="1" fill="black" />
  <circle cx="763" cy="924" r="1" fill="black" />
  <circle cx="770" cy="957" r="1" fill="black" />
  <circle cx="684" cy="1002" r="1" fill="black" />
  <circle cx="703" cy="818" r="1" fill="black" />
  <circle cx="761" cy="816" r="1" fill="black" />
  <circle cx="814" cy="913" r="1" fill="black" />
  <circle cx="826" cy="982" r="1" fill="black" />
  <circle cx="806" cy="903" r="1" fill="black" />
  <circle cx="716" cy="854" r="1" fill="black" />
  <circle cx="723" cy="886" r="1" fill="black" />
  <circle cx="826" cy="963" r="1" fill="black" />
  <circle cx="825" cy="874" r="1" fill="black" />
  <circle cx="714" cy="886" r="1" fill="black" />
  <circle cx="663" cy="842" r="1" fill="black" />
  <circle cx="714" cy="995" r="1" fill="black" />
  <circle cx="851" cy="827" r="1" fill="black" />
  <circle cx="801" cy="811" r="1" fill="black" />
  <circle cx="769" cy="952" r="1" fill="black" />
  <circle cx="804" cy="927" r="1" fill="black" />
  <circle cx="784" cy="843" r="1" fill="black" />
  <circle cx="659" cy="992" r="1" fill="black" />
  <circle cx="693" cy="820" r="1" fill="black" />
  <circle cx="847" cy="903" r="1" fill="black" />
  <circle cx="703" cy="981" r="1" fill="black" />
  <circle cx="792" cy="988" r="1" fill="black" />
  <circle cx="816" cy="805" r="1" fill="black" />
  <circle cx="780" cy="847" r="1" fill="black" />
  <circle cx="789" cy="835" r="1" fill="black" />
  <circle cx="677" cy="832" r="1" fill="black" />
  <circle cx="663" cy="810" r="1" fill="black" />
  <circle cx="847" cy="926" r="1" fill="black" />
  <circle cx="785" cy="832" r="1" fill="black" />
  <circle cx="762" cy="981" r="1" fill="black" />
  <circle cx="668" cy="991" r="1" fill="black" />
  <circle cx="685" cy="859" r="1" fill="black" />
  <circle cx="756" cy="859" r="1" fill="black" />
  <circle cx="779" cy="865" r="1" fill="black" />
  <circle cx="782" cy="815" r="1" fill="black" />
  <circle cx="807" cy="812" r="1" fill="black" />
  <circle cx="756" cy="987" r="1" fill="black" />
  <circle cx="804" cy="932" r="1" fill="black" />
  <circle cx="791" cy="944" r="1" fill="black" />
  <circle cx="811" cy="902" r="1" fill="black" />
  <circle cx="834" cy="1003" r="1" fill="black" />
  <circle cx="818" cy="964" r="1" fill="black" />
  <circle cx="753" cy="811" r="1" fill="black" />
  <circle cx="704" cy="916" r="1" fill="black" />
  <circle cx="726" cy="913" r="1" fill="black" />
  <circle cx="669" cy="855" r="1" fill="black" />
  <circle cx="791" cy="818" r="1" fill="black" />
  <polyline points="752,904 751,903 749,901 746,898 742,894 737,889 731,885 724,882 718,880 713,879 709,879 706,880 704,882 703,885 703,887 704,888 706,888 709,887 713,886 718,886 723,886 729,887 736,889 744,892 753,896 763,901 772,907 780,914 787,922 793,929 798,935 802,940 805,944 807,947 808,949 808,950 807,950 805,949 802,947 798,944 793,940 787,935 780,929 772,924 763,920 755,917 748,915 742,914 737,914 733,915 730,917 728,920 727,924 727,927 728,929 730,930 733,930 737,929 742,927 748,924 755,922 763,921 770,921 776,922 781,924 785,925 788,925 790,924 791,924 791,924 790,924 788,924 785,924 781,924 776,924 770,924 763,924 757,925 752,927 748,930 745,934 743,939 742,945 742,952 743,960 745,969 748,979 752,988 757,996 762,1003 766,1009 769,1014 771,1018 772,1021 772,1023 771,1024 769,1024 766,1023 762,1021 759,1018 757,1014 756,1009 756,1003 757,996 759,988 762,981 764,975 765,970 765,966 764,963 762,961 759,960 755,960 750,961 744,963 739,966 735,970 732,975 730,981 729,988 729,996 730,1003 732,1009 735,1014 739,1018 742,1021 744,1023 745,1024 745,1024 744,1023 742,1021 741,1018 741,1014 741,1009 741,1003 741,998 740,992 738,985 735,977 731,968 726,958 720,947 713,935 705,922 698,910 692,899 687,889 683,880 680,872 678,865 677,859 677,854 678,850 680,847 683,845 687,844 692,844 698,845 704,847 709,850 713,854 716,859 718,865 719,872 719,880 718,889 716,899 713,910 709,920 704,929 700,937 697,944 695,950 694,955 694,959 695,962 697,964 700,965 704,965 707,964 709,962 710,959 710,955 709,950 707,944 704,937 702,929 701,920 701,912 702,905 704,899 705,894 705,890 704,887 704,885 704,884 704,884 704,885 704,887 704,890 704,894 704,899 704,905 704,912 704,918 704,923 704,927 704,930 704,932 704,933 704,933 704,932 704,930 704,927 704,923 704,918 704,914 704,911 704,909 704,908 704,908 704,909 704,911 704,914 704,916 705,919 707,923 710,928 714,934 719,941 725,947 730,952 734,956 737,959 739,961 740,962 740,962 739,961 737,959 734,956 730,952 727,947 725,943 724,940 724,938 725,937 727,937 728,938 728,940 727,943 727,945 728,946 730,946 733,945 737,943 742,940 748,936 755,931 763,925 772,918 780,910 787,901 793,891 798,880 802,868 805,855 807,841 808,826 808,812 807,799 805,787 802,776 798,766 793,757 787,749 780,742 773,736 767,731 762,727 758,724 755,722 753,721 752,721 752,722 753,724 755,727 758,731 762,736 767,742 773,749 778,757 782,766 785,776 787,787 788,799 788,812 787,824 785,835 782,845 778,854 773,862 769,869 766,875 764,880 763,884 763,887 764,889 766,890 769,890 773,889 776,887 778,884 779,880 779,875 778,869 776,862 773,854 771,845 770,835 770,824 771,812 773,801 774,791 774,782 773,774 773,767 773,761 773,756 773,752 773,749 773,747 773,746 773,746 773,747 773,749 773,752 773,756 773,761 773,767 773,774 773,782 773,791 773,801 773,812 772,824 770,837 767,851 763,866 758,882 752,897 745,911 737,924 730,936 724,947 719,957 715,966 712,974 710,981 709,987 709,992 710,996 712,999 715,1001 719,1002 724,1002 730,1001 735,999 739,996 742,992 744,987 745,981 745,974 744,966 742,957 739,947 735,936 732,924 730,911 729,897 729,884 730,872 732,861 733,851 733,842 732,834 732,827 732,821 732,816 732,812 732,809 732,807 732,806 732,806 732,807 732,809 732,812 732,816 732,821 732,827 732,834 732,842 732,851 732,861 732,872 732,884 732,895 732,905 732,914 732,922 732,929 732,935 732,940 732,944 732,947 732,949 732,950 732,950 732,949 732,947 732,944 732,940 732,935 732,929 732,922 732,914 732,905 732,895 732,885 733,876 735,868 738,861 742,855 747,850 753,846 760,843 766,841 771,840 775,840 778,841 780,843 781,846 781,850 780,855 778,861 775,868 771,876 766,885 761,895 757,906 754,918 752,931 751,945 751,959 752,972 754,984 757,995 761,1005 764,1014 766,1022 767,1029 767,1035 766,1040 764,1044 761,1047 759,1049 758,1050 758,1050 759,1049 761,1047 762,1044 762,1040 761,1035 761,1029 761,1022 761,1014 761,1005 761,995 761,984 761,972 761,959 760,947 759,936 759,926 759,917 759,909 759,902 759,896 759,891 759,887 759,884 759,882 759,881 759,881 759,882 759,884 759,887 759,891 759,896 759,902 759,909 759,917 759,926 759,936 759,947 759,959 759,972 759,984 758,995 756,1005 753,1014 749,1022 744,1029 738,1035 731,1040 723,1044 714,1047 704,1049 695,1050 687,1050 680,1049 674,1047 669,1044 665,1040 662,1035 660,1029 659,1022 659,1014 660,1005 662,995 665,984 669,972 674,959 680,945 687,930 695,914 703,897 710,879 716,860 721,840 725,819 728,799 730,780 731,762 731,745 730,729 728,714 725,700 721,687 716,675 710,664 703,654 697,645 692,637 688,630 685,624 683,619 682,615 682,612 683,610 685,609 688,609 692,610 697,612 703,615 708,619 712,624 715,630 717,637 718,645 718,654 717,664 715,675 712,687 708,700 703,714 699,729 696,745 694,762 693,780 693,799 694,818 696,836 699,853 703,869 706,884 708,898 709,911 709,923 708,934 706,944 703,953 701,961 700,968 700,974 701,979 703,983 704,986 704,988 703,989 703,989 703,988 703,986 703,983 703,979 703,974 703,968 703,961 703,953 703,944 703,934 703,923 703,911 703,898 703,884 703,869 703,853 703,836 703,818 704,801 706,785 709,770 713,756 718,743 724,731 731,720 739,710 748,701 758,693 769,686 781,680 794,675 808,671 821,668 833,666 844,665 854,665 863,666 871,668 878,671 884,675 889,680 893,686 896,693 898,701 899,710 899,720 898,731 896,743 893,756 889,770 884,785 878,801 871,818 863,836 854,855 844,875 833,896 821,918 810,941 800,964 791,986 783,1007 776,1027 770,1046 765,1064 761,1081 758,1097 756,1112 755,1126 755,1139 756,1151 758,1162 761,1172 765,1181 770,1189 776,1196 783,1202 791,1207 800,1211 810,1214 819,1216 827,1217 834,1217 840,1216 845,1214 849,1211 852,1207 854,1202 855,1196 855,1189 854,1181 852,1172 849,1162 845,1151 840,1139 834,1126 827,1112 819,1097 812,1081 806,1064 801,1046 797,1027 794,1007 792,986 791,964 791,943 792,923 794,904 797,886 801,869 806,853 812,838 818,824 823,811 827,799 830,788 832,778 833,769 833,761 832,754 830,748 827,743 823,739 818,736 814,734 811,733 809,733 808,734 808,736 809,739 811,743 814,748 818,754 821,761 823,769 824,778 824,788 823,799 821,811 818,824 816,838 815,853 815,869 816,886 818,904 819,923 819,943 818,964 816,986 813,1007 809,1027 806,1046 804,1064 803,1081 803,1097 804,1112 806,1126 807,1139 807,1151 806,1162 806,1172 806,1181 806,1189 806,1196 806,1202 806,1207 806,1211 806,1214 806,1216 806,1217 806,1217 806,1216 806,1214 806,1211 806,1207 806,1202 806,1196 806,1189 806,1181 806,1172 806,1162 806,1151 806,1139 806,1126 806,1112 806,1097 806,1081 806,1064 806,1046 806,1027 806,1007 806,988 806,970 806,953 806,937 806,922 806,908 806,895 806,883 806,872 806,862 806,853 806,845 806,838 806,832 806,827 806,823 806,820 806,818 806,817 806,817 806,818 806,820 806,823 806,827 806,832 806,838 806,845 806,853 806,862 806,872 806,883 806,895 806,908 806,922 806,937 806,953 806,970 806,988 806,1005 806,1021 806,1036 806,1050 806,1063 806,1075 806,1086 806,1096 806,1105 806,1113 806,1120 806,1126 806,1131 806,1135 806,1138 806,1140 806,1141 806,1141 806,1140 806,1138 806,1135 806,1131 806,1126 806,1120 806,1113 806,1105 806,1096 806,1086 806,1075 806,1063 806,1050 806,1036 806,1021 806,1005 806,990 806,976 806,963 806,951 806,940 806,930 806,921 806,913 806,906 806,900 806,895 806,891 806,888 806,886 806,885 806,885 806,886 806,888 806,891 806,895 806,900 806,906 806,913 806,921 806,930 806,940 806,951 806,963 806,976 806,990 806,1003 806,1015 806,1026 806,1036 806,1045 806,1053 806,1060 806,1066 806,1071 806,1075 806,1078 806,1080 806,1081 806,1081 806,1080 806,1078 806,1075 806,1071 806,1066 806,1060 806,1053 806,1045 806,1036 806,1026 806,1015 806,1003 806,992 806,982 806,973 806,965 806,958 806,952 806,947 806,943 806,940 806,938 806,937 806,937 806,938 806,940 806,943 806,947 806,952 806,958 806,965 806,973 806,982 806,992 806,1002 805,1011 803,1019 800,1026 796,1032 791,1037 785,1041 778,1044 772,1046 767,1047 763,1047 760,1046 758,1044 757,1041 757,1037 758,1032 760,1026 763,1019 767,1011 772,1002 777,992 781,981 784,969 786,956 787,942 787,927 786,911 784,894 781,878 777,863 774,849 772,836 771,824 771,813 772,803 774,794 777,786 779,779 780,773 780,768 779,764 777,761 776,759 776,758 777,758 777,759 777,761 777,764 777,768 777,773 777,779 777,786 777,794 777,803 777,813 777,824 777,836 777,849 777,863 777,878 777,892 777,905 777,917 777,928 777,938 777,947 777,955 777,962 777,968 777,973 777,977 777,980 777,982 777,983 777,983 777,982 777,980 777,977 777,973 777,968 777,962 777,955 777,947 777,938 777,928 777,917 777,905 777,892 777,880 777,869 777,859 777,850 777,842 777,835 777,829 777,824 777,820 777,817 777,815 777,814 777,814 777,815 777,817 777,820 777,824 777,829 777,835 777,842 777,850 777,859 777,869 777,880 777,890 777,899 777,907 777,914 777,920 777,925 777,929 777,932 777,934 777,935 777,935 777,934 777,932 777,929 777,925 777,920 777,914 777,907 777,899 777,890 777,882 777,875 777,869 777,864 777,860 777,857 777,855 777,854 777,854 777,855 777,857 777,860 777,864 777,869 777,875 777,882 777,888 777,893 777,897 777,900 777,902 777,903 777,903 777,902 777,900 777,897 777,893 777,888 777,884 777,881 777,879 777,878 777,878 777,879 777,881 777,884 777,886 776,889 774,893 771,898 767,904 762,911 756,919 749,928 743,938 738,949 734,959 731,968 729,976 728,983 728,989 729,994 731,998 734,1001 738,1003 743,1004 747,1004 750,1003 752,1001 753,998 753,994 752,989 750,983 747,976 745,968 744,959 744,951 745,944 746,938 746,933 746,929 746,926 746,924 746,923 746,923 746,924 746,926 746,929 746,933 746,938 746,944 746,951 746,957 746,962 746,966 746,969 746,971 746,972 746,972 746,971 746,969 746,966 746,962 746,957 746,953 746,950 746,948 746,947 746,947 746,948 746,950 746,953 746,956 745,960 743,965 740,971 736,978 731,986 725,993 718,999 710,1004 701,1008 691,1011 680,1013 668,1014 657,1014 647,1013 638,1011 630,1008 623,1004 617,999 612,993 608,988 605,984 603,981 602,979 602,978 603,978 605,979 608,981 612,984 617,988 623,992 630,995 638,997 647,998 657,998 666,997 674,995 681,992 687,990 692,989 696,989 699,990 701,992 702,993 702,993 701,992 699,992 696,992 692,992 687,992 681,992 674,992 666,992 659,992 653,991 648,989 644,986 641,982 639,977 638,971 638,964 639,956 641,947 644,939 648,932 653,926 659,921 666,917 674,914 683,912 693,911 704,911 716,912 729,914 743,917 758,921 774,926 791,932 807,939 822,945 836,950 849,954 861,957 872,959 882,960 891,960 899,959 906,957 912,954 917,950 921,945 924,941 926,938 927,936 927,935 926,935 924,936 921,938 917,941 912,944 906,946 899,947 891,947 882,946 872,944 861,943 849,943 836,944 822,944 807,944 791,944 776,945 762,947 749,950 737,954 726,959 716,965 707,971 699,976 692,980 686,983 681,985 677,986 674,986 672,985 671,983 671,980 672,976 674,971 677,967 681,964 686,962 692,961 699,961 707,962 716,964 726,967 737,971 749,974 762,976 776,977 789,977 801,976 812,974 822,971 831,969 839,968 846,968 852,969 857,971 861,972 864,972 866,971 867,971 867,971 866,971 864,971 861,971 857,971 852,971 846,971 839,971 831,971 822,971 812,971 801,971 789,971 778,971 768,971 759,971 751,971 744,971 738,971 733,971 729,971 726,971 724,971 723,971 723,971 724,971 726,971 729,971 733,971 738,971 744,971 751,971 759,971 768,971 778,971 787,971 795,971 802,971 808,971 813,971 817,971 820,971 822,971 823,971 823,971 822,971 820,971 817,971 813,971 808,971 802,971 795,971 787,971 780,971 774,971 769,971 765,971 762,971 760,971 759,971 759,971 760,971 762,971 765,971 769,971 774,971 780,971 785,971 789,971 792,971 794,971 795,971 795,971 794,971 792,971 789,971 785,971 782,971 780,971 779,971 779,971 780,971 782,971 783,971 785,970 788,968 792,965 797,961 803,956 808,950 812,943 815,935 817,926 818,916 818,905 817,895 815,886 812,878 808,871 805,865 803,860 802,856 802,853 803,851 805,850 806,850 806,851 806,853 806,856 806,860 806,865 806,871 806,878 806,886 806,895 806,903 805,910 803,916 800,921 796,925 791,928 785,930 778,931 770,931 761,930 751,928 740,925 728,921 715,916 701,910 686,903 672,895 659,886 647,876 636,865 626,855 617,846 609,838 602,831 596,825 591,820 587,816 584,813 582,811 581,810 581,810 582,811 584,813 587,816 591,820 596,825 602,831 609,838 617,846 626,855 636,863 647,870 659,876 672,881 685,885 697,888 708,890 718,891 727,891 735,890 742,888 748,885 753,881 757,876 760,870 762,863 763,857 763,852 762,848 760,845 757,843 753,842 748,842 742,843 735,845 727,848 718,852 708,857 697,861 685,864 674,866 664,867 655,867 647,866 640,864 634,861 629,859 625,858 622,858 620,859 619,859 619,859 620,859 622,859 625,859 629,859 634,859 640,859 647,859 655,859 664,859 674,859 685,859 697,860 710,862 724,865 739,869 755,874 772,880 790,887 809,895 827,904 844,914 860,925 875,937 889,950 902,964 914,979 925,993 935,1006 944,1018 952,1029 959,1039 965,1048 970,1056 974,1063 977,1069 979,1074 980,1078 980,1081 979,1083 977,1084 974,1084 970,1083 965,1081 959,1078 952,1074 944,1069 935,1063 925,1056 914,1048 902,1039 889,1029 875,1018 860,1006 844,993 827,980 810,968 794,957 779,947 765,938 752,930 740,923 729,917 719,912 710,908 702,905 695,903 689,902 684,902 680,903 677,905 675,908 674,912 674,917 675,923 677,930 680,938 684,947 689,957 695,968 702,980 710,991 719,1001 729,1010 740,1018 752,1025 765,1031 779,1036 794,1040 810,1043 825,1045 839,1046 852,1046 864,1045 875,1043 885,1040 894,1036 902,1031 909,1025 915,1018 920,1010 924,1001 927,991 929,980 930,970 930,961 929,953 927,946 924,940 920,935 915,931 909,928 902,926 894,925 885,925 875,926 864,928 852,931 839,935 825,940 810,946 796,953 783,961 771,970 760,980 750,989 741,997 733,1004 726,1010 720,1015 715,1019 711,1022 708,1024 706,1025 705,1025 705,1024 706,1022 708,1019 711,1015 715,1010 720,1004 726,997 733,989 741,980 750,972 760,965 771,959 783,954 796,950 810,947 823,945 835,944 846,944 856,945 865,947 873,950 880,954 886,959 891,965 895,972 898,980 900,987 901,993 901,998 900,1002 898,1005 895,1007 891,1008 886,1008 880,1007 873,1005 865,1002 856,998 846,993 835,987 823,980 810,974 798,969 787,965 777,962 768,960 760,959 753,959 747,960 742,962 738,965 735,969 733,974 732,980 732,985 733,989 735,992 738,994 742,995 747,995 753,994 760,992 768,989 777,985 787,980 798,976 810,973 821,971 831,970 840,970 848,971 855,973 861,976 866,980 870,983 873,985 875,986 876,986 876,985 875,983 873,980 870,978 866,977 861,977 855,978 848,980 840,981 831,981 821,980 810,980 800,979 791,977 783,974 776,970 770,965 765,959 761,952 758,946 756,941 755,937 755,934 756,932 758,931 761,931 765,932 770,934 776,937 783,941 791,946 800,950 810,953 820,955 829,956 837,956 844,955 850,953 855,950 859,947 862,945 864,944 865,944 865,945 864,947 862,948 859,948 855,947 850,947 844,947 837,947 829,947 820,947 810,946 800,944 791,941 783,937 776,932 770,926 765,919 761,911 758,902 756,892 755,881 755,869 756,856 758,844 761,833 765,823 770,814 776,806 783,799 791,793 800,788 808,784 815,781 821,779 826,778 830,778 833,779 835,781 836,784 836,788 835,793 833,799 830,806 826,814 821,823 815,833 808,844 800,854 793,863 787,871 782,878 778,884 775,889 773,893 772,896 772,898 773,899 775,899 778,898 782,896 787,893 793,889 800,884 806,878 811,871 815,863 818,854 820,846 821,839 821,833 820,828 818,824 815,821 811,819 806,818 800,818 795,819 791,821 788,824 786,828 785,833 785,839 786,846 788,852 791,857 795,861 800,864 804,866 807,867 809,867 810,866 810,864 809,861 807,857 804,852 800,848 797,845 795,843 794,842 794,842 795,843 797,845 800,848 802,850 803,851 803,851 802,850 800,850 799,849 799,847 800,844 802,840 805,835 807,829 808,822 808,814 807,807 807,801 807,796 807,792 807,789 807,787 807,786 807,786 807,787 807,789 807,792 807,796 807,801 807,807 807,812 808,816 810,819 813,821 816,822 818,822 819,821 819,819 818,816 816,812 815,807 815,803 816,800 816,798 816,797 816,797 816,798 816,800 816,803 816,805 815,808 813,812 810,817 806,823 801,830 795,838 788,845 780,851 771,856 761,860 750,863 738,865 725,866 711,866 698,865 686,863 675,860 665,856 656,851 648,845 641,840 635,836 630,833 626,831 623,830 621,830 620,831 620,833 621,836 623,840 626,843 630,845 635,846 641,846 648,845 656,843 665,840 675,838 686,837 698,837 709,838 719,840 728,841 736,841 743,840 749,840 754,840 758,840 761,840 763,840 764,840 764,840 763,840 761,840 758,840 754,840 749,840 743,840 736,840 728,840 719,840 709,840 700,840 692,840 685,840 679,840 674,840 670,840 667,840 665,840 664,840 664,840 665,840 667,840 670,840 674,840 679,840 685,840 692,840 700,840 708,840 717,839 727,837 738,834 750,830 761,825 771,819 780,814 788,810 795,807 801,805 806,804 810,804 813,805 815,807 816,810 816,814 815,817 813,819 810,820 806,820 801,819 795,817 788,816 780,816 771,816 761,816 750,817 740,819 731,822 723,826 716,831 710,837 705,844 701,852 698,861 696,869 695,876 695,882 696,887 698,891 701,894 705,896 710,897 716,897 723,896 731,894 740,891 748,887 755,882 761,876 766,869 770,863 773,858 775,854 776,851 776,849 775,848 773,848 770,849 766,851 761,854 755,858 748,863 742,867 737,870 733,872 730,873 728,873 727,872 727,870 728,867 730,865 733,864 737,864 742,865 746,866 749,866 751,866 752,866 752,866 751,866 749,866 746,866 744,866 743,866 743,866 744,866 745,866 747,867 750,869 754,872 759,876 765,881 772,887 780,892 789,896 797,899 804,901 810,902 815,902 819,901 822,899 824,896 825,892 825,887 824,883 822,880 819,878 815,877 810,877 804,878 797,880 791,883 786,887 782,890 779,892 777,893 776,893 776,892 777,890 779,887 782,885 786,884 791,884 795,885 798,887 800,888 801,888 801,887 800,887 798,887 795,887 791,887 786,886 780,884 773,881 765,877 756,872 746,866 735,859 723,851 711,842 700,834 690,827 681,821 673,816 666,812 660,809 655,807 651,806 648,806 646,807 645,809 645,812 646,816 648,821 651,827 655,834 660,841 666,847 673,852 681,856 690,859 700,861 711,862 721,862 730,861 738,859 745,856 751,852 756,847 760,841 763,836 765,832 766,829 766,827 765,826 763,826 760,827 756,829 751,832 745,836 738,841 730,845 721,848 711,850 702,851 694,851 687,850 681,848 676,845 672,841 669,838 667,836 666,835 666,835 667,836 669,838 672,841 676,843 681,844 687,844 694,843 702,841 711,840 719,840 726,841 732,841 737,841 741,841 744,841 746,841 747,841 747,841 746,841 744,841 741,841 737,841 732,841 726,841 719,841 711,841 704,840 698,838 693,835 689,831 686,826 684,820 683,813 683,806 684,800 686,795 689,791 693,788 698,786 704,785 711,785 719,786 728,788 738,791 749,795 761,800 774,806 788,811 801,815 813,818 824,820 834,821 843,821 851,820 858,818 864,815 869,811 873,806 876,802 878,799 879,797 879,796 878,796 876,797 873,799 869,802 864,806 858,809 851,811 843,812 834,812 824,811 813,809 801,806 790,804 780,803 771,803 763,804 756,806 750,807 745,807 741,806 738,806 736,806 735,806 735,806 736,806 738,806 741,806 745,806 750,806 756,806 763,806 771,806 780,806 790,806 799,806 807,806 814,806 820,806 825,806 829,806 832,806 834,806 835,806 835,806 834,806 832,806 829,806 825,806 820,806 814,806 807,806 799,806 792,806 786,806 781,806 777,806 774,806 772,806 771,806 771,806 772,806 774,806 777,806 781,806 786,806 792,806 797,806 801,807 804,809 806,812 807,814 807,815 806,815 804,814 801,814 797,814 792,814 786,814 779,814 771,814 762,814 752,814 741,814 729,814 716,814 702,814 687,814 671,814 656,815 642,817 629,820 617,824 606,829 596,835 587,842 579,850 572,859 566,869 561,880 557,890 554,899 552,907 551,914 551,920 552,925 554,929 557,932 561,934 566,935 572,935 579,934 587,932 596,929 606,925 617,920 629,914 642,907 656,899 671,890 687,882 704,875 720,869 735,864 749,860 762,857 774,855 785,854 795,854 804,855 812,857 819,860 825,864 830,869 834,875 837,882 839,888 840,893 840,897 839,900 837,902 834,903 830,903 825,902 819,900 812,897 804,893 795,888 785,884 774,881 762,879 749,878 735,878 720,879 706,881 693,884 681,886 670,887 660,887 651,886 643,886 636,886 630,886 625,886 621,886 618,886 616,886 615,886 615,886 616,886 618,886 621,886 625,886 630,886 636,886 643,886 651,886 660,886 670,886 681,886 693,886 706,886 718,886 729,886 739,886 748,886 756,886 763,886 769,886 774,886 778,886 781,886 783,886 784,886 784,886 783,886 781,886 778,886 774,886 769,886 763,886 756,886 748,886 739,886 729,886 718,886 708,886 699,886 691,886 684,886 678,886 673,886 669,886 666,886 664,886 663,886 663,886 664,886 666,886 669,886 673,886 678,886 684,886 691,886 699,886 708,886 716,886 723,886 729,886 734,886 738,886 741,886 743,886 744,886 744,886 743,886 741,886 738,886 734,886 729,886 723,886 716,886 710,886 705,886 701,886 698,886 696,886 695,886 695,886 696,886 698,886 701,886 705,886 710,886 714,886 719,887 725,889 732,892 740,896 749,901 757,906 764,910 770,913 775,915 779,916 782,916 784,915 785,913 785,910 784,906 782,903 779,901 775,900 770,900 764,901 757,903 750,906 742,910 733,915 723,921 712,928 700,936 687,945 675,955 664,966 654,978 645,991 637,1003 630,1014 624,1024 619,1033 615,1041 612,1048 610,1054 609,1059 609,1063 610,1066 612,1068 615,1069 619,1069 624,1068 630,1066 637,1063 645,1059 654,1054 664,1048 675,1041 685,1033 694,1024 702,1014 709,1003 715,993 720,984 724,976 727,969 729,963 730,958 730,954 729,951 727,949 724,948 720,948 715,949 709,951 702,954 694,958 685,963 677,969 670,976 664,984 659,993 655,1002 652,1010 650,1017 649,1023 649,1028 650,1032 652,1035 655,1037 659,1038 664,1038 670,1037 677,1035 684,1032 690,1028 695,1023 699,1017 702,1010 704,1002 705,995 705,989 704,984 702,980 699,977 695,975 690,974 684,974 679,975 675,977 672,980 670,984 669,989 669,995 670,1002 672,1008 675,1013 679,1017 684,1020 688,1022 691,1023 693,1023 694,1022 694,1020 693,1017 691,1013 688,1008 684,1002 681,995 679,987 678,978 678,968 679,957 681,945 684,932 688,918 693,903 699,889 706,876 714,864 723,853 733,843 744,834 756,826 767,819 777,813 786,808 794,804 801,801 807,799 812,798 816,798 819,799 821,801 822,804 822,808 821,813 819,819 816,826 812,834 807,843 801,853 794,864 786,876 777,889 767,901 758,912 750,922 743,931 737,939 732,946 728,952 725,957 723,961 722,964 722,966 723,967 725,967 728,966 732,964 737,961 743,957 750,952 758,946 765,939 771,931 776,922 780,912 783,901 785,891 786,882 786,874 785,867 783,861 780,856 776,852 771,849 765,847 760,846 756,846 753,847 751,849 750,852 750,856 751,861 753,867 756,874 760,882 763,891 765,899 766,906 766,912 765,917 763,921 762,924 762,926 763,927 763,927 763,926 763,924 763,921 763,917 763,912 763,906 763,899 763,892 762,884 760,875 757,865 753,854 748,842 742,829 735,817 727,806 718,796 708,787 697,779 687,772 678,766 670,761 663,757 657,754 652,752 648,751 645,751 643,752 642,754 642,757 643,761 645,766 648,772 652,779 657,787 663,796 670,806 678,817 687,827 695,836 702,844 708,851 713,857 717,862 720,866 722,869 723,871 723,872 722,872 720,871 717,869 713,866 708,862 702,857 695,851 689,844 684,836 680,827 677,819 675,812 674,806 674,801 675,797 677,794 680,792 684,791 689,791 693,792 696,794 698,797 699,801 699,806 698,812 696,819 693,825 691,830 690,834 690,837 691,839 693,840 694,840 694,839 693,837 693,834 693,830 693,825 693,820 692,816 690,813 687,811 683,810 678,810 672,811 667,813 663,816 660,820 658,825 657,831 657,838 658,846 660,855 663,863 667,870 670,876 672,881 673,885 673,888 672,890 670,891 669,891 669,890 669,888 669,885 669,881 669,876 669,870 669,863 669,855 668,846 667,836 667,827 667,819 667,812 667,806 667,801 667,797 667,794 667,792 667,791 667,791 667,792 667,794 667,797 667,801 667,806 667,812 667,819 667,827 667,834 667,840 667,845 667,849 667,852 667,854 667,855 667,855 667,854 667,852 667,849 667,845 667,840 667,834 667,829 668,825 670,822 673,820 677,819 682,819 688,820 695,822 703,825 712,829 720,834 727,840 733,847 738,854 742,860 745,865 747,869 748,872 748,874 747,875 745,875 742,874 738,872 733,869 727,865 720,860 714,854 709,849 705,845 702,842 700,840 699,839 699,839 700,840 702,842 705,845 709,849 714,854 718,858 721,861 723,863 724,864 724,864 723,863 721,861 718,858 716,854 713,849 709,843 704,836 698,830 691,825 683,821 674,818 666,816 659,815 653,815 648,816 644,818 641,821 639,825 638,830 638,836 639,841 641,845 644,848 648,850 653,851 659,851 666,850 672,848 677,845 681,841 684,836 686,832 687,829 687,827 686,826 684,826 681,827 677,829 672,832 668,836 665,839 663,841 662,842 662,842 663,841 665,839 668,836 671,834 673,833 674,833 674,834 673,836 671,837 670,837 670,836 671,836 671,837 670,839 668,842 665,846 661,851 658,857 656,864 655,872 655,881 656,891 658,902 659,914 659,927 659,941 659,956 659,972 659,987 659,1001 659,1014 659,1026 659,1037 659,1047 659,1056 659,1064 659,1071 659,1077 659,1082 659,1086 659,1089 659,1091 659,1092 659,1092 659,1091 659,1089 659,1086 659,1082 659,1077 659,1071 659,1064 659,1056 659,1047 659,1037 659,1026 659,1014 659,1001 659,987 659,974 660,962 662,951 665,941 669,932 674,924 680,917 687,911 695,906 704,902 714,899 725,897 737,896 750,896 764,897 779,899 795,902 812,906 830,911 847,917 863,924 878,932 892,941 905,951 917,962 928,974 938,987 947,1001 955,1014 962,1026 968,1037 973,1047 977,1056 980,1064 982,1071 983,1077 983,1082 982,1086 980,1089 977,1091 973,1092 968,1092 962,1091 955,1089 947,1086 938,1082 928,1077 917,1071 905,1064 892,1056 878,1047 863,1037 847,1026 832,1014 818,1003 805,993 793,984 782,976 772,969 763,963 755,958 748,954 742,951 737,949 733,948 730,948 728,949 727,951 727,954 728,958 730,963 733,969 737,976 742,984 748,993 755,1003 763,1012 772,1020 782,1027 793,1033 805,1038 818,1042 832,1045 845,1047 857,1048 868,1048 878,1047 887,1045 895,1042 902,1038 908,1033 913,1027 917,1020 920,1012 922,1003 923,995 923,988 922,982 920,977 917,973 913,970 908,968 902,967 895,967 887,968 878,970 868,973 857,977 845,982 834,988 824,995 815,1003 807,1010 800,1016 794,1021 789,1025 785,1028 782,1030 780,1031 779,1031 779,1030 780,1028 782,1025 785,1021 789,1016 794,1010 800,1003 807,997 815,992 824,988 834,985 843,983 851,982 858,982 864,983 869,985 873,988 876,992 878,997 879,1003 879,1008 878,1012 876,1015 873,1017 869,1018 864,1018 858,1017 851,1015 843,1012 834,1008 826,1003 819,999 813,996 808,994 804,993 801,993 799,994 798,996 798,999 799,1003 801,1006 804,1008 808,1009 813,1009 819,1008 826,1006 834,1003 843,999 851,994 858,988 864,981 869,973 873,964 876,954 878,943 879,931 879,920 878,910 876,901 873,893 869,886 864,880 858,875 851,871 845,868 840,866 836,865 833,865 831,866 830,868 830,871 831,875 833,880 836,886 840,893 845,901 849,910 852,920 854,929 855,937 855,944 854,950 852,955 849,959 847,962 846,964 846,965 847,965 847,964 847,962 847,959 847,955 847,950 847,944 847,937 847,929 847,922 847,916 847,911 847,907 847,904 847,902 847,901 847,901 847,902 847,904 847,907 847,911 847,916 847,922 847,927 847,931 847,934 847,936 847,937 847,937 847,936 847,934 847,931 847,927 847,924 847,922 847,921 847,921 847,922 847,924 847,926 846,927 844,927 841,926 837,924 832,921 826,917 821,912 817,908 814,905 812,903 811,902 811,902 812,903 814,905 817,908 821,912 824,915 826,917 827,918 827,918 826,917 824,915 822,912 819,910 815,909 810,909 804,910 799,912 795,915 792,919 790,924 789,928 789,931 790,933 792,934 795,934 799,933 804,931 808,928 811,926 813,925 814,925 814,926 813,927 811,927 808,927 804,927 799,928 793,930 788,933 784,937 781,942 779,948 778,955 778,963 779,972 781,982 784,991 788,999 792,1006 795,1012 797,1017 798,1021 798,1024 797,1026 795,1027 792,1027 790,1026 789,1024 789,1021 790,1017 792,1012 793,1006 793,999 792,991 792,984 792,978 792,973 792,969 792,966 792,964 792,963 792,963 792,964 792,966 792,969 792,973 792,978 792,984 792,989 792,993 792,996 792,998 792,999 792,999 792,998 792,996 792,993 792,989 792,986 792,984 792,983 792,983 792,984 792,986 792,988 791,989 789,989 786,988 782,986 779,983 777,979 776,974 776,968 777,961 779,953 782,944 784,934 785,923 785,911 784,898 782,884 781,869 781,853 782,836 782,818 782,801 782,785 782,770 782,756 782,743 782,731 782,720 782,710 782,701 782,693 782,686 782,680 782,675 782,671 782,668 782,666 782,665 782,665 782,666 782,668 782,671 782,675 782,680 782,686 782,693 782,701 782,710 782,720 782,731 782,743 782,756 782,770 782,785 782,801 782,816 782,830 782,843 782,855 782,866 782,876 782,885 782,893 782,900 782,906 782,911 782,915 782,918 782,920 782,921 782,921 782,920 782,918 782,915 782,911 782,906 782,900 782,893 782,885 782,876 782,866 782,855 782,843 782,830 782,816 782,803 782,791 782,780 782,770 782,761 782,753 782,746 782,740 782,735 782,731 782,728 782,726 782,725 782,725 782,726 782,728 782,731 782,735 782,740 782,746 782,753 782,761 782,770 782,780 782,791 782,803 782,815 781,826 779,836 776,845 772,853 767,860 761,866 754,871 748,875 743,878 739,880 736,881 734,881 733,880 733,878 734,875 736,871 739,866 743,860 748,853 753,845 757,836 760,826 762,815 763,805 763,796 762,788 760,781 757,775 753,770 750,766 748,763 747,761 747,760 748,760 750,761 753,763 755,766 756,770 756,775 755,781 753,788 752,796 752,805 753,813 753,820 753,826 753,831 753,835 753,838 753,840 753,841 753,841 753,840 753,838 753,835 753,831 753,826 753,820 753,813 753,807 753,802 753,798 753,795 753,793 753,792 753,792 753,793 753,795 753,798 753,802 753,807 753,811 754,816 756,822 759,829 763,837 768,846 774,854 780,861 785,867 789,872 792,876 794,879 795,881 795,882 794,882 792,881 789,879 785,876 780,872 776,867 773,861 771,854 770,847 770,841 771,836 773,832 776,829 780,827 783,826 785,826 786,827 786,829 785,832 783,836 780,841 778,847 777,852 777,856 778,859 780,861 781,862 781,862 780,861 780,859 780,856 780,852 780,847 779,843 777,840 774,838 770,837 765,837 760,838 756,840 753,843 751,847 750,852 750,858 751,865 753,873 756,882 760,892 763,903 765,915 766,928 766,942 765,955 763,967 760,978 758,988 757,997 757,1005 758,1012 760,1018 761,1023 761,1027 760,1030 760,1032 760,1033 760,1033 760,1032 760,1030 760,1027 760,1023 760,1018 760,1012 760,1005 760,997 760,988 760,978 760,967 760,955 760,943 761,930 763,916 766,901 770,885 775,868 781,850 788,831 796,813 805,796 815,780 826,765 838,751 851,738 863,726 874,715 884,705 893,696 901,688 908,681 914,675 919,670 923,666 926,663 928,661 929,660 929,660 928,661 926,663 923,666 919,670 914,675 908,681 901,688 893,696 884,705 874,715 863,726 852,738 842,751 833,765 825,780 818,796 812,813 807,829 803,844 800,858 798,871 797,883 797,894 798,904 800,913 803,921 807,928 812,934 818,939 825,943 833,946 842,948 852,949 861,949 869,948 876,946 882,943 887,939 891,934 894,928 896,921 897,913 897,904 896,894 894,883 891,871 887,858 882,844 876,829 869,815 861,802 852,790 844,779 837,769 831,760 826,752 822,745 819,739 817,734 816,730 816,727 817,725 819,724 822,724 826,725 831,727 837,730 844,734 852,739 859,745 865,752 870,760 874,769 877,779 879,790 880,802 880,815 879,827 877,838 874,848 870,857 865,865 859,872 852,878 846,883 841,887 837,890 834,892 832,893 831,893 831,892 832,890 834,887 837,883 841,878 846,872 852,865 857,857 861,848 864,838 866,827 867,815 867,804 866,794 864,785 861,777 857,770 852,764 848,759 845,755 843,752 842,750 842,749 843,749 845,750 848,752 852,755 855,759 857,764 858,770 858,777 857,785 855,794 852,804 850,815 849,825 849,834 850,842 852,849 853,855 853,860 852,864 852,867 852,869 852,870 852,870 852,869 852,867 852,864 852,860 852,855 852,849 852,842 852,834 852,825 852,815 851,806 849,798 846,791 842,785 837,780 831,776 824,773 816,771 807,770 797,770 786,771 774,773 761,776 747,780 732,785 716,791 699,798 681,806 664,815 648,825 633,836 619,848 606,861 594,875 583,890 573,906 564,923 556,941 549,960 543,980 538,999 534,1017 531,1034 529,1050 528,1065 528,1079 529,1092 531,1104 534,1115 538,1125 543,1134 549,1142 556,1149 564,1155 573,1160 583,1164 594,1167 606,1169 619,1170 633,1170 648,1169 664,1167 679,1164 693,1160 706,1155 718,1149 729,1142 739,1134 748,1125 756,1115 763,1104 769,1092 774,1079 778,1065 781,1050 783,1034 784,1017 784,999 783,982 781,966 778,951 774,937 769,924 763,912 756,901 748,891 739,882 729,874 718,867 706,861 693,856 679,852 666,849 654,847 643,846 633,846 624,847 616,849 609,852 603,856 598,861 594,867 591,874 589,882 588,891 588,901 589,912 591,924 594,937 598,951 603,966 609,982 616,997 624,1011 633,1024 643,1036 654,1047 666,1057 677,1066 687,1074 696,1081 704,1087 711,1092 717,1096 722,1099 726,1101 729,1102 731,1102 732,1101 732,1099 731,1096 729,1092 726,1087 722,1081 717,1074 711,1066 704,1057 696,1047 687,1036 677,1024 668,1011 660,997 653,984 647,972 642,961 638,951 635,942 633,934 632,927 632,921 633,916 635,912 638,909 642,907 647,906 653,906 660,907 668,909 675,912 681,916 686,921 690,927 693,934 695,942 696,951 696,961 695,972 693,984 690,995 686,1005 681,1014 675,1022 668,1029 662,1035 657,1040 653,1044 650,1047 648,1049 647,1050 647,1050 648,1049 650,1047 653,1044 657,1040 662,1035 668,1029 673,1022 677,1014 680,1005 682,995 683,986 683,978 682,971 680,965 677,960 673,956 668,953 664,951 661,950 659,950 658,951 658,953 659,956 661,960 664,965 668,971 671,978 673,986 674,993 674,999 673,1004 671,1008 668,1011 666,1013 665,1014 665,1014 666,1013 668,1011 669,1008 669,1004 668,999 668,993 668,988 668,984 668,981 668,979 668,978 668,978 668,979 668,981 668,984 668,988 668,991 669,993 671,994 674,994 678,993 683,991 689,988 696,984 704,979 713,973 723,966 734,958 746,949 757,939 767,928 776,916 784,903 791,889 797,874 802,859 806,845 809,832 811,820 812,809 812,799 811,790 809,782 806,775 802,769 797,764 791,760 784,757 776,755 767,754 757,754 748,755 740,757 733,760 727,764 722,769 718,775 715,782 713,790 712,799 712,809 713,820 715,832 718,845 722,859 727,872 733,884 740,895 748,905 756,914 763,922 769,929 774,935 778,940 781,944 783,947 784,949 784,950 783,950 781,949 778,947 774,944 769,940 763,935 756,929 750,922 745,914 741,905 738,895 736,884 735,872 735,859 736,847 738,836 741,826 745,817 750,809 756,802 761,796 765,791 768,787 770,784 771,782 771,781 770,781 768,782 765,784 761,787 756,791 752,796 749,802 747,809 746,817 746,826 747,836 749,847 752,859 756,870 759,880 761,889 762,897 762,904 761,910 759,915 756,919 754,922 753,924 753,925 754,925 756,924 757,922 757,919 756,915 756,910 756,904 756,897 756,889 756,880 756,870 756,859 757,849 759,840 762,832 766,825 771,819 777,814 784,810 792,807 801,805 811,804 820,804 828,805 835,807 841,810 846,814 850,819 853,825 855,832 856,840 856,849 855,859 853,870 850,882 846,893 841,903 835,912 828,920 820,927 811,933 803,938 796,942 790,945 785,947 781,948 778,948 776,947 775,945 775,942 776,938 778,933 781,927 785,920 790,912 796,903 803,893 811,884 818,874 824,863 829,851 833,838 836,824 838,811 839,799 839,788 838,778 836,769 833,761 829,754 824,748 818,743 811,739 803,736 796,734 790,733 785,733 781,734 778,736 776,739 775,743 775,748 776,754 778,761 781,769 785,778 790,788 796,799 801,811 807,824 814,838 822,853 829,869 835,886 840,904 844,923 847,943 849,963 850,982 850,1000 849,1017 847,1033 844,1048 840,1062 835,1075 829,1087 824,1098 820,1108 817,1117 815,1125 814,1132 814,1138 815,1143 817,1147 820,1150 824,1152 827,1153 829,1153 830,1152 830,1150 829,1147 827,1143 826,1138 826,1132 826,1125 826,1117 826,1108 826,1098 826,1087 826,1075 826,1062 826,1048 826,1033 826,1017 826,1000 826,982 826,963 825,943 823,922 820,900 816,877 811,855 805,834 798,814 790,795 781,777 771,760 760,744 748,729 735,715 721,702 706,690 690,679 673,669 657,660 642,652 628,645 615,639 603,634 592,630 582,627 573,625 565,624 558,624 552,625 547,627 543,630 540,634 538,639 537,645 537,652 538,660 540,669 543,679 547,690 552,702 558,715 565,729 573,744 582,760 592,777 603,795 615,814 628,834 642,855 657,875 671,894 684,912 696,929 707,945 717,960 726,974 734,987 741,999 747,1010 752,1020 756,1029 759,1037 761,1044 762,1050 762,1055 761,1059 759,1062 756,1064 752,1065 747,1065 741,1064 734,1062 726,1059 717,1055 707,1050 696,1044 684,1037 671,1029 657,1020 644,1010 632,999 621,987 611,974 602,960 594,945 587,929 581,912 576,894 572,875 569,857 567,840 566,824 566,809 567,795 569,782 572,770 576,759 581,749 587,740 594,732 602,725 611,719 621,714 632,710 644,707 657,705 669,704 680,704 690,705 699,707 707,710 714,714 720,719 725,725 729,732 732,740 734,749 735,759 735,770 734,782 732,795 729,809 725,824 720,840 714,857 707,874 699,890 690,905 680,919 669,932 657,944 646,955 636,965 627,974 619,982 612,989 606,995 601,1000 597,1004 594,1007 592,1009 591,1010 591,1010 592,1009 594,1007 597,1004 601,1000 606,995 612,989 619,982 627,974 636,965 646,955 657,944 667,932 676,919 684,905 691,890 697,874 702,859 706,845 709,832 711,820 712,809 712,799 711,790 709,782 706,775 702,769 697,764 691,760 684,757 676,755 667,754 657,754 648,755 640,757 633,760 627,764 622,769 618,775 615,782 613,790 612,799 612,809 613,820 615,832 618,845 622,859 627,874 633,888 640,901 648,913 657,924 665,934 672,943 678,951 683,958 687,964 690,969 692,973 693,976 693,978 692,979 690,979 687,978 683,976 678,973 672,969 665,964 657,958 650,951 644,943 639,934 635,924 632,913 630,901 629,888 629,874 630,861 632,849 635,838 639,828 644,819 650,811 657,804 663,798 668,793 672,789 675,786 677,784 678,783 678,783 677,784 675,786 672,789 668,793 663,798 657,804 652,811 648,819 645,828 643,838 642,849 642,861 643,874 645,886 648,897 652,907 657,916 661,924 664,931 666,937 667,942 667,946 666,949 664,951 661,952 657,952 654,951 652,949 651,946 651,942 652,937 654,931 657,924 659,916 660,907 660,897 659,886 657,874 656,861 656,847 657,832 659,818 662,805 666,793 671,782 677,772 684,763 692,755 701,748 711,742 722,737 734,733 747,730 761,728 776,727 792,727 809,728 827,730 844,733 860,737 875,742 889,748 902,755 914,763 925,772 935,782 944,793 952,805 959,818 965,830 970,841 974,851 977,860 979,868 980,875 980,881 979,886 977,890 974,893 970,895 965,896 959,896 952,895 944,893 935,890 925,886 914,881 902,875 889,868 875,860 860,851 844,841 829,830 815,820 802,811 790,803 779,796 769,790 760,785 752,781 745,778 739,776 734,775 730,775 727,776 725,778 724,781 724,785 725,790 727,796 730,803 734,811 739,820 745,828 752,835 760,841 769,846 779,850 790,853 802,855 815,856 829,856 842,855 854,853 865,850 875,846 884,841 892,835 899,828 905,822 910,817 914,813 917,810 919,808 920,807 920,807 919,808 917,810 914,813 910,817 905,822 899,826 892,829 884,831 875,832 865,832 854,831 842,829 831,826 821,824 812,823 804,823 797,824 791,824 786,824 782,824 779,824 777,824 776,824 776,824 777,824 779,824 782,824 786,824 791,824 797,824 804,824 812,824 821,824 831,824 842,825 852,827 861,828 869,828 876,827 882,827 887,827 891,827 894,827 896,827 897,827 897,827 896,827 894,827 891,827 887,827 882,827 876,827 869,827 861,827 852,827 844,827 837,827 831,827 826,827 822,827 819,827 817,827 816,827 816,827 817,827 819,827 822,827 826,827 831,827 837,827 844,827 851,827 857,828 862,830 866,833 869,837 871,842 872,846 872,849 871,851 869,852 866,852 862,851 857,849 851,846 844,842 836,839 827,837 817,836 806,836 794,837 781,839 767,842 752,844 736,845 719,845 701,844 682,842 663,841 645,841 628,842 612,842 597,842 583,842 570,842 558,842 547,842 537,842 528,842 520,842 513,842 507,842 502,842 498,842 495,842 493,842 492,842 492,842 493,842 495,842 498,842 502,842 507,842 513,842 520,842 528,842 537,842 547,842 558,842 570,842 583,842 597,842 612,842 628,842 645,842 663,842 682,843 700,845 717,848 733,852 748,857 762,863 775,870 787,878 798,887 808,897 817,908 825,920 832,933 838,947 843,962 847,978 850,993 852,1007 853,1020 853,1032 852,1043 850,1053 847,1062 843,1070 838,1077 832,1083 825,1088 817,1092 808,1095 798,1097 787,1098 775,1098 762,1097 748,1095 733,1092 717,1088 700,1083 684,1077 669,1070 655,1062 642,1053 630,1043 619,1032 609,1020 600,1007 592,993 585,980 579,968 574,957 570,947 567,938 565,930 564,923 564,917 565,912 567,908 570,905 574,903 579,902 585,902 592,903 600,905 609,908 619,912 630,917 642,923 655,930 669,938 684,947 698,957 711,968 723,980 734,991 744,1001 753,1010 761,1018 768,1025 774,1031 779,1036 783,1040 786,1043 788,1045 789,1046 789,1046 788,1045 786,1043 783,1040 779,1036 774,1031 768,1025 761,1018 753,1010 744,1001 734,991 723,980 711,970 698,961 686,953 675,946 665,940 656,935 648,931 641,928 635,926 630,925 626,925 623,926 621,928 620,931 620,935 621,940 623,946 626,953 630,961 635,970 641,980 648,989 656,997 665,1004 675,1010 686,1015 696,1019 705,1022 713,1024 720,1025 726,1025 731,1024 735,1022 738,1019 740,1015 741,1010 741,1004 740,997 738,989 735,980 731,972 726,965 720,959 713,954 705,950 696,947 688,945 681,944 675,944 670,945 666,947 663,950 661,954 660,959 660,965 661,972 663,980 666,987 670,993 675,998 681,1002 688,1005 694,1007 699,1008 703,1008 706,1007 708,1005 709,1002 709,998 708,993 706,987 703,980 699,974 694,969 690,965 687,962 685,960 684,959 684,959 685,960 687,962 690,965 692,969 693,974 693,980 692,985 691,989 691,992 691,994 691,995 691,995 691,994 691,992 691,989 691,985 691,980 692,974 694,967 697,959 701,950 706,940 712,929 717,917 721,904 724,890 726,877 727,865 727,854 726,844 724,835 721,827 717,820 712,814 708,809 705,805 703,802 702,800 702,799 703,799 705,800 708,802 712,805 715,809 717,814 718,820 718,827 717,835 715,844 712,854 710,865 709,877 709,888 710,898 712,907 713,915 713,922 712,928 712,933 712,937 712,940 712,942 712,943 712,943 712,942 712,940 712,937 712,933 712,928 712,922 712,915 712,907 712,898 712,888 712,879 712,871 712,864 712,858 712,853 712,849 712,846 712,844 712,843 712,843 712,844 712,846 712,849 712,853 712,858 712,864 712,871 712,879 712,886 712,892 712,897 712,901 712,904 712,906 712,907 712,907 712,906 712,904 712,901 712,897 712,892 712,886 712,881 712,877 712,874 712,872 712,871 712,871 712,872 712,874 712,877 712,881 712,884 712,886 712,887 712,887 712,886 712,884 712,882 713,881 715,881 718,882 722,884 727,887 733,891 740,896 748,902 757,909 767,915 778,920 790,924 803,927 815,929 826,930 836,930 845,929 853,927 860,924 866,920 871,915 875,911 878,908 880,906 881,905 881,905 880,906 878,908 875,911 871,913 866,914 860,914 853,913 845,913 836,913 826,913 815,913 805,913 796,913 788,913 781,913 775,913 770,913 766,913 763,913 761,913 760,913 760,913 761,913 763,913 766,913 770,913 775,913 781,913 788,913 796,913 805,913 814,913 822,912 829,910 835,907 840,903 844,898 847,892 849,885 850,877 850,868 849,858 847,847 844,835 840,822 835,810 829,799 822,789 814,780 805,772 795,765 784,759 772,754 759,750 745,747 730,745 714,744 697,744 679,745 662,747 646,750 631,754 617,759 604,765 592,772 581,780 571,789 562,799 554,810 547,821 541,831 536,840 532,848 529,855 527,861 526,866 526,870 527,873 529,875 532,876 536,876 541,875 547,873 554,870 562,866 571,861 581,855 592,848 604,840 617,831 631,821 646,812 662,804 677,797 691,791 704,786 716,782 727,779 737,777 746,776 754,776 761,777 767,779 772,782 776,786 779,791 781,797 782,804 782,812 781,821 779,829 776,836 772,842 767,847 761,851 754,854 746,856 737,857 727,857 716,856 704,854 691,851 677,847 664,842 652,836 641,829 631,821 622,814 614,808 607,803 601,799 596,796 592,794 589,793 587,793 586,794 586,796 587,799 589,803 592,808 596,814 601,821 607,827 614,832 622,836 631,839 641,841 652,842 664,842 677,841 689,839 700,836 710,832 719,827 727,821 734,816 740,812 745,809 749,807 752,806 754,806 755,807 755,809 754,812 752,816 749,821 745,825 740,828 734,830 727,831 719,831 710,830 700,828 689,825 677,821 666,818 656,816 647,815 639,815 632,816 626,818 621,821 617,825 614,830 612,836 611,843 611,851 612,860 614,870 617,881 621,893 626,906 632,918 639,929 647,939 656,948 666,956 677,963 687,969 696,974 704,978 711,981 717,983 722,984 726,984 729,983 731,981 732,978 732,974 731,969 729,963 726,956 722,948 717,939 711,929 704,918 696,908 687,899 678,891 670,884 663,878 657,873 652,869 648,866 645,864 643,863 642,863 642,864 643,866 645,869 648,873 652,878 657,884 663,891 670,899 678,908 685,916 691,923 696,929 700,934 703,938 705,941 706,943 706,944 705,944 703,943 700,941 696,938 691,934 685,929 678,923 670,916 663,908 657,899 652,889 648,878 645,866 643,853 642,839 642,824 643,810 645,797 648,785 652,774 657,764 663,755 668,747 672,740 675,734 677,729 678,725 678,722 677,720 675,719 672,719 668,720 663,722 659,725 656,729 654,734 653,740 653,747 654,755 656,764 659,774 663,785 666,797 668,810 669,822 669,833 668,843 666,852 663,860 661,867 660,873 660,878 661,882 663,885 664,887 664,888 663,888 663,887 663,885 663,882 663,878 663,873 663,867 663,860 663,852 663,843 663,833 663,822 663,810 664,799 666,789 669,780 673,772 678,765 684,759 691,754 699,750 707,747 714,745 720,744 725,744 729,745 732,747 734,750 735,754 735,759 734,765 732,772 729,780 725,789 720,799 714,810 707,822 701,835 696,849 692,864 689,880 687,897 686,915 686,934 687,954 689,973 692,991 696,1008 701,1024 707,1039 712,1053 716,1066 719,1078 721,1089 722,1099 722,1108 721,1116 719,1123 716,1129 712,1134 707,1138 703,1141 700,1143 698,1144 697,1144 697,1143 698,1141 700,1138 703,1134 707,1129 710,1123 712,1116 713,1108 713,1099 712,1089 710,1078 707,1066 705,1053 704,1039 704,1024 705,1008 707,991 708,973 708,956 707,940 707,925 707,911 707,898 707,886 707,875 707,865 707,856 707,848 707,841 707,835 707,830 707,826 707,823 707,821 707,820 707,820 707,821 707,823 707,826 707,830 707,835 707,841 707,848 707,856 707,865 707,875 707,886 707,898 707,911 707,925 707,940 707,956 707,972 708,987 710,1001 713,1014 717,1026 722,1037 728,1047 735,1056 743,1064 752,1071 762,1077 773,1082 783,1086 792,1089 800,1091 807,1092 813,1092 818,1091 822,1089 825,1086 827,1082 828,1077 828,1071 827,1064 825,1056 822,1047 818,1037 813,1026 807,1014 800,1001 792,987 783,972 775,956 768,939 762,921 757,902 753,882 750,863 748,845 747,828 747,812 748,797 750,783 753,770 757,758 762,747 768,737 775,728 781,720 786,713 790,707 793,702 795,698 796,695 796,693 795,692 793,692 790,693 786,695 781,698 777,702 774,707 772,713 771,720 771,728 772,737 774,747 777,758 779,770 780,783 780,797 779,812 779,828 779,845 779,863 779,880 779,896 779,911 779,925 779,938 779,950 779,961 779,971 779,980 779,988 779,995 779,1001 779,1006 779,1010 779,1013 779,1015 779,1016 779,1016 779,1015 779,1013 779,1010 779,1006 779,1001 779,995 779,988 779,980 779,971 779,961 779,950 779,938 779,925 779,911 779,896 779,880 779,865 778,849 776,834 773,820 769,807 764,795 758,784 751,774 743,765 734,757 724,750 713,744 701,739 688,735 674,732 661,730 649,729 638,729 628,730 619,732 611,735 604,739 598,744 593,750 589,757 586,765 584,774 583,784 583,795 584,807 586,820 589,834 593,847 598,859 604,870 611,880 619,889 628,897 638,904 649,910 661,915 672,919 682,922 691,924 699,925 706,925 712,924 717,922 721,919 724,915 726,910 727,904 727,897 726,889 724,880 721,870 717,859 712,847 706,836 699,826 691,817 682,809 672,802 663,796 655,791 648,787 642,784 637,782 633,781 630,781 628,782 627,784 627,787 628,791 630,796 633,802 637,809 642,817 648,826 655,836 663,845 672,853 680,860 687,866 693,871 698,875 702,878 705,880 707,881 708,881 708,880 707,878 705,875 702,871 698,866 693,860 687,853 680,845 672,838 665,832 659,827 654,823 650,820 647,818 645,817 644,817 644,818 645,820 647,823 650,827 654,832 659,838 665,845 672,853 680,862 689,872 699,883 710,895 722,908 735,922 749,937 764,953 778,968 791,982 803,995 814,1007 824,1018 833,1028 841,1037 848,1045 854,1052 859,1058 863,1063 866,1067 868,1070 869,1072 869,1073 868,1073 866,1072 863,1070 859,1067 854,1063 848,1058 841,1052 833,1045 824,1037 814,1028 803,1018 791,1007 778,995 766,982 755,968 745,955 736,943 728,932 721,922 715,913 710,905 706,898 703,892 701,887 700,883 700,880 701,878 703,877 706,877 710,878 715,880 721,883 728,887 736,892 745,898 755,905 766,913 776,922 785,932 793,943 800,955 806,966 811,976 815,985 818,993 820,1000 821,1006 821,1011 820,1015 818,1018 815,1020 811,1021 806,1021 800,1020 793,1018 785,1015 776,1011 768,1006 761,1000 755,993 750,985 746,976 743,966 741,957 740,949 740,942 741,936 743,931 746,927 750,924 755,922 761,921 768,921 774,922 779,924 783,927 786,931 788,936 789,942 789,949 788,957 786,964 783,970 779,975 774,979 770,982 767,984 765,985 764,985 764,984 765,982 767,979 770,975 772,970 773,964 773,957 772,951 770,946 769,942 769,939 770,937 770,936 770,936 770,937 770,939 770,942 770,946 770,951 770,957 771,962 773,966 776,969 780,971 785,972 791,972 796,971 800,969 803,966 805,962 806,957 806,951 805,944 803,936 800,927 796,917 791,906 787,894 784,881 782,867 781,852 781,836 782,819 784,803 787,788 791,774 794,761 796,749 797,738 797,728 796,719 794,711 791,704 789,698 788,693 788,689 789,686 791,684 792,683 792,683 791,684 791,686 791,689 791,693 791,698 791,704 791,711 791,719 791,728 791,738 791,749 791,761 791,774 791,788 791,803 791,818 792,834 794,851 797,867 801,882 806,896 812,909 819,921 825,932 830,942 834,951 837,959 839,966 840,972 840,977 839,981 837,984 834,986 830,987 825,987 821,986 818,984 816,981 815,977 815,972 816,966 818,959 821,951 824,942 826,932 827,921 827,909 826,896 824,882 823,867 823,853 824,840 824,828 824,817 824,807 824,798 824,790 824,783 824,777 824,772 824,768 824,765 824,763 824,762 824,762 824,763 824,765 824,768 824,772 824,777 824,783 824,790 824,798 824,807 824,817 824,828 824,840 824,853 824,865 825,876 827,886 830,895 834,903 839,910 843,916 846,921 848,925 849,928 849,930 848,931 846,931 843,930 841,928 840,925 840,921 841,916 843,910 844,903 844,895 843,886 843,876 843,865 843,855 842,846 840,838 837,831 833,825 828,820 822,816 817,813 813,811 810,810 808,810 807,811 807,813 808,816 810,820 813,825 817,831 820,838 822,846 823,855 823,863 822,870 820,876 819,881 819,885 820,888 820,890 820,891 820,891 820,890 820,888 820,885 820,881 820,876 820,870 820,863 820,856 819,850 817,845 814,841 810,838 805,836 799,835 792,835 784,836 775,838 765,841 756,845 748,850 741,856 735,863 730,871 726,880 723,890 721,901 720,913 720,926 721,940 723,955 726,971 730,987 735,1002 741,1016 748,1029 756,1041 763,1052 769,1062 774,1071 778,1079 781,1086 783,1092 784,1097 784,1101 783,1104 781,1106 778,1107 774,1107 769,1106 763,1104 756,1101 750,1097 745,1092 741,1086 738,1079 736,1071 735,1062 735,1052 736,1041 738,1029 741,1016 745,1002 750,987 756,973 761,960 765,948 768,937 770,927 771,918 771,910 770,903 768,897 765,892 761,888 756,885 752,883 749,882 747,882 746,883 746,885 747,888 749,892 752,897 756,903 759,910 761,918 762,927 762,937 761,948 759,960 756,973 754,987 753,1000 753,1012 754,1023 756,1033 757,1042 757,1050 756,1057 756,1063 756,1068 756,1072 756,1075 756,1077 756,1078 756,1078 756,1077 756,1075 756,1072 756,1068 756,1063 756,1057 756,1050 756,1042 756,1033 756,1023 756,1012 756,1000 756,987 755,973 753,958 750,942 746,925 741,909 735,894 728,880 722,867 717,855 713,844 710,834 708,825 707,817 707,810 708,804 710,799 713,795 717,792 722,790 726,789 729,789 731,790 732,792 732,795 731,799 729,804 726,810 724,817 723,825 723,834 724,844 726,855 727,867 727,880 726,894 726,909 726,923 726,936 726,948 726,959 726,969 726,978 726,986 726,993 726,999 726,1004 726,1008 726,1011 726,1013 726,1014 726,1014 726,1013 726,1011 726,1008 726,1004 726,999 726,993 726,986 726,978 726,969 726,959 726,948 726,936 726,923 726,911 726,900 726,890 726,881 726,873 726,866 726,860 726,855 726,851 726,848 726,846 726,845 726,845 726,846 726,848 726,851 726,855 726,860 726,866 726,873 726,881 726,890 726,900 726,911 726,921 726,930 726,938 726,945 726,951 726,956 726,960 726,963 726,965 726,966 726,966 726,965 726,963 726,960 726,956 726,951 726,945 726,938 726,930 726,921 726,913 727,906 729,900 732,895 736,891 741,888 747,886 754,885 762,885 769,886 775,888 780,891 784,895 787,900 789,906 790,913 790,921 789,930 787,940 784,951 780,961 775,970 769,978 764,985 760,991 757,996 755,1000 754,1003 754,1005 755,1006 757,1006 760,1005 764,1003 769,1000 773,996 776,991 778,985 779,978 779,970 778,961 776,952 773,944 769,937 766,931 764,926 763,922 763,919 764,917 766,916 769,916 771,917 772,919 772,922 771,926 769,931 768,937 768,944 769,952 771,959 774,965 778,970 783,974 789,977 796,979 804,980 811,980 817,979 822,977 826,974 829,970 831,965 832,959 832,952 831,944 829,935 826,927 822,920 817,914 811,909 804,905 798,902 793,900 789,899 786,899 784,900 783,902 783,905 784,909 786,914 789,920 793,927 798,933 804,938 809,942 813,945 816,947 818,948 819,948 819,947 818,945 816,942 813,938 809,933 804,929 800,926 797,924 795,923 794,923 794,924 795,926 797,929 800,932 804,934 807,935 809,935 810,934 810,932 809,931 807,931 804,932 800,932 795,931 789,929 782,926 774,922 765,917 755,911 744,905 732,900 719,896 705,893 690,891 676,890 663,890 651,891 640,893 630,896 621,900 613,905 606,909 600,912 595,914 591,915 588,915 586,914 585,912 585,909 586,905 588,902 591,900 595,899 600,899 606,900 613,902 621,905 630,907 640,908 651,908 663,907 676,905 688,904 699,904 709,905 718,905 726,905 733,905 739,905 744,905 748,905 751,905 753,905 754,905 754,905 753,905 751,905 748,905 744,905 739,905 733,905 726,905 718,905 709,905 699,905 688,905 677,904 667,902 658,899 650,895 643,890 637,884 632,877 628,869 625,860 623,850 622,839 622,829 623,820 625,812 628,805 632,799 637,794 643,790 650,787 658,785 667,784 677,784 686,785 694,787 701,790 707,794 712,799 716,805 719,812 721,820 722,829 722,837 721,844 719,850 716,855 712,859 707,862 701,864 694,865 686,865 677,864 669,862 662,859 656,855 651,850 647,844 644,837 642,831 641,826 641,822 642,819 644,817 647,816 651,816 656,817 662,819 669,822 677,826 684,831 690,835 695,838 699,840 702,841 704,841 705,840 705,838 704,835 702,832 699,830 695,829 690,829 684,830 677,832 671,835 666,839 662,843 659,846 657,848 656,849 656,849 657,848 659,846 662,843 666,841 671,840 677,840 684,841 692,843 701,844 711,844 722,843 734,843 747,843 761,843 776,843 790,843 803,843 815,843 826,843 836,843 845,843 853,843 860,843 866,843 871,843 875,843 878,843 880,843 881,843 881,843 880,843 878,843 875,843 871,843 866,843 860,843 853,843 845,843 836,843 826,843 815,843 803,843 790,843 778,843 767,843 757,843 748,843 740,843 733,843 727,843 722,843 718,843 715,843 713,843 712,843 712,843 713,843 715,843 718,843 722,843 727,843 733,843 740,843 748,843 757,843 767,843 778,843 788,843 797,843 805,843 812,843 818,843 823,843 827,843 830,843 832,843 833,843 833,843 832,843 830,843 827,843 823,843 818,843 812,843 805,843 797,843 788,843 780,843 773,843 767,843 762,843 758,843 755,843 753,843 752,843 752,843 753,843 755,843 758,843 762,843 767,843 773,843 780,843 786,843 791,843 795,843 798,843 800,843 801,843 801,843 800,843 798,843 795,843 791,843 786,843 782,843 779,843 777,843 776,843 776,843 777,843 779,843 782,843 784,843 787,842 789,840 790,837 790,835 789,834 789,834 789,835 788,837 786,840 783,844 779,849 774,855 768,862 762,870 757,879 753,889 750,900 748,912 747,925 747,939 748,954 750,968 753,981 757,993 762,1004 766,1014 769,1023 771,1031 772,1038 772,1044 771,1049 769,1053 766,1056 762,1058 759,1059 757,1059 756,1058 756,1056 757,1053 759,1049 762,1044 764,1038 765,1031 765,1023 764,1014 762,1004 761,993 761,981 762,968 762,956 762,945 762,935 762,926 762,918 762,911 762,905 762,900 762,896 762,893 762,891 762,890 762,890 762,891 762,893 762,896 762,900 762,905 762,911 762,918 762,926 762,935 762,945 762,956 762,966 762,975 762,983 762,990 762,996 762,1001 762,1005 762,1008 762,1010 762,1011 762,1011 762,1010 762,1008 762,1005 762,1001 762,996 762,990 762,983 762,975 762,966 762,957 761,949 759,942 756,936 752,931 747,927 741,924 734,922 726,921 717,921 709,922 702,924 696,927 691,931 687,936 684,942 682,949 681,957 681,966 682,976 684,987 687,997 691,1006 696,1014 702,1021 709,1027 715,1032 720,1036 724,1039 727,1041 729,1042 730,1042 730,1041 729,1039 727,1036 724,1032 720,1027 715,1021 711,1014 708,1006 706,997 705,989 705,982 706,976 708,971 711,967 714,964 716,962 717,961 717,961 716,962 714,964 713,967 713,971 714,976 714,982 714,989 714,995 713,1000 711,1004 708,1007 704,1009 701,1010 699,1010 698,1009 698,1007 699,1004 701,1000 703,995 704,989 704,982 703,976 703,971 703,967 703,964 703,962 703,961 703,961 703,962 703,964 703,967 703,971 703,976 703,981 704,985 706,988 709,990 713,991 718,991 724,990 731,988 739,985 748,981 758,976 769,970 781,963 794,955 808,946 823,936 839,925 854,913 868,902 881,892 893,883 904,875 914,868 923,862 931,857 938,853 944,850 949,848 953,847 956,847 958,848 959,850 959,853 958,857 956,862 953,868 949,875 944,883 938,892 931,902 923,911 914,919 904,926 893,932 881,937 868,941 854,944 841,946 829,947 818,947 808,946 799,944 791,941 784,937 778,932 773,926 769,919 766,911 764,903 763,896 763,890 764,885 766,881 769,878 773,876 778,875 784,875 791,876 799,878 808,881 818,885 829,890 841,896 852,903 862,909 871,914 879,918 886,921 892,923 897,924 901,924 904,923 906,921 907,918 907,914 906,909 904,903 901,898 897,894 892,891 886,889 879,888 871,888 862,889 852,891 843,894 835,898 828,903 822,907 817,910 813,912 810,913 808,913 807,912 807,910 808,907 810,903 813,900 817,898 822,897 828,897 835,898 843,900 850,903 856,905 861,906 865,906 868,905 870,903 871,902 871,902 870,903 868,903 865,903 861,903 856,903 850,903 845,903 841,903 838,903 836,903 835,903 835,903 836,903 838,903 841,903 845,903 848,903 850,903 851,903 851,903 850,903 848,903 847,903 845,902 842,900 838,897 833,893 829,888 826,882 824,875 823,867 823,858 824,848 826,837 829,825 831,812 832,800 832,789 831,779 829,770 828,762 828,755 829,749 829,744 829,740 829,737 829,735 829,734 829,734 829,735 829,737 829,740 829,744 829,749 829,755 829,762 829,770 829,779 829,789 829,800 829,810 829,819 829,827 829,834 829,840 829,845 829,849 829,852 829,854 829,855 829,855 829,854 829,852 829,849 829,845 829,840 829,834 829,827 829,819 829,810 829,802 829,795 829,789 829,784 829,780 829,777 829,775 829,774 829,774 829,775 829,777 829,780 829,784 829,789 829,795 829,802 829,808 828,815 826,823 823,832 819,842 814,853 808,865 801,878 793,892 784,907 774,923 763,940 751,958 738,977 724,995 709,1012 693,1028 676,1043 658,1057 641,1070 625,1082 610,1093 596,1103 583,1112 571,1120 560,1127 550,1133 541,1138 533,1142 526,1145 520,1147 515,1148 511,1148 508,1147 506,1145 505,1142 505,1138 506,1133 508,1127 511,1120 515,1112 520,1103 526,1093 533,1082 541,1070 550,1057 560,1043 571,1028 583,1012 596,995 610,978 625,962 641,947 657,933 672,920 686,908 699,897 711,887 722,878 732,870 741,863 749,857 756,852 762,848 767,845 771,843 774,842 776,842 777,843 777,845 776,848 774,852 771,857 767,863 762,870 756,878 749,887 741,897 732,908 722,920 711,933 699,947 686,962 672,978 657,993 643,1007 630,1020 618,1032 607,1043 597,1053 588,1062 580,1070 573,1077 567,1083 562,1088 558,1092 555,1095 553,1097 552,1098 552,1098 553,1097 555,1095 558,1092 562,1088 567,1083 573,1077 580,1070 588,1062 597,1053 607,1043 618,1032 630,1020 643,1007 657,993 670,978 682,964 693,951 703,939 712,928 720,918 727,909 733,901 738,894 742,888 745,883 747,879 748,876 748,874 747,873 745,873 742,874 738,876 733,879 727,883 720,888 712,894 703,901 693,909 682,918 670,928 657,939 645,951 634,964 624,978 615,991 607,1003 600,1014 594,1024 589,1033 585,1041 582,1048 580,1054 579,1059 579,1063 580,1066 582,1068 585,1069 589,1069 594,1068 600,1066 607,1063 615,1059 624,1054 634,1048 645,1041 657,1033 668,1024 678,1014 687,1003 695,991 702,978 708,966 713,955 717,945 720,936 722,928 723,921 723,915 722,910 720,906 717,903 713,901 708,900 702,900 695,901 687,903 678,906 668,910 657,915 647,921 638,928 630,936 623,945 617,955 612,966 608,978 605,989 603,999 602,1008 602,1016 603,1023 605,1029 608,1034 612,1038 617,1041 623,1043 630,1044 638,1044 647,1043 657,1041 666,1038 674,1034 681,1029 687,1023 692,1016 696,1008 699,999 701,989 702,978 702,968 701,959 699,951 696,944 692,938 687,933 681,929 674,926 666,924 657,923 649,923 642,924 636,926 631,929 627,933 624,938 622,944 621,951 621,959 622,968 624,978 627,987 631,995 636,1002 642,1008 649,1013 657,1017 664,1020 670,1022 675,1023 679,1023 682,1022 684,1020 685,1017 685,1013 684,1008 682,1002 679,995 675,987 670,978 664,970 657,963 651,957 646,952 642,948 639,945 637,943 636,942 636,942 637,943 639,945 642,948 646,952 651,957 657,963 662,970 666,978 669,985 671,991 672,996 672,1000 671,1003 669,1005 666,1006 662,1006 657,1005 653,1003 650,1000 648,996 647,991 647,985 648,978 650,972 653,967 657,963 660,960 662,958 663,957 663,957 662,958 660,960 657,963 655,967 654,972 654,978 655,983 657,987 658,990 658,992 657,993 657,993 657,992 657,990 657,987 657,983 657,978 658,972 660,965 663,957 667,948 672,938 678,927 685,915 693,902 702,888 712,873 723,857 733,842 742,828 750,815 757,803 763,792 768,782 772,773 775,765 777,758 778,752 778,747 777,743 775,740 772,738 768,737 763,737 757,738 750,740 742,743 733,747 725,752 718,758 712,765 707,773 703,782 700,792 698,803 697,815 697,828 698,842 700,855 703,867 707,878 712,888 718,897 725,905 731,912 736,918 740,923 743,927 745,930 746,932 746,933 745,933 743,932 740,930 736,927 731,923 726,918 722,912 719,905 717,897 716,888 716,878 717,867 719,855 722,844 726,834 729,825 731,817 732,810 732,804 731,799 729,795 726,792 724,790 723,789 723,789 724,790 726,792 727,795 727,799 726,804 726,810 726,817 726,825 726,834 726,844 726,853 726,861 726,868 726,874 726,879 726,883 726,886 726,888 726,889 726,889 726,888 726,886 726,883 726,879 726,874 726,868 726,861 726,853 726,846 726,840 726,835 726,831 726,828 726,826 726,825 726,825 726,826 726,828 726,831 726,835 726,840 726,846 726,851 726,855 726,858 726,860 726,861 726,861 726,860 726,858 726,855 726,851 726,847 725,844 723,842 720,841 716,841 711,842 705,844 698,847 690,851 681,856 671,862 662,869 654,877 647,886 641,896 636,907 632,919 629,932 627,946 626,961 626,977 627,992 629,1006 632,1019 636,1031 641,1042 647,1052 654,1061 662,1069 669,1076 675,1082 680,1087 684,1091 687,1094 689,1096 690,1097 690,1097 689,1096 687,1094 684,1091 680,1087 675,1082 669,1076 662,1069 656,1061 651,1052 647,1042 644,1031 642,1019 641,1006 641,992 642,979 644,967 647,956 651,946 656,937 662,929 667,922 671,916 674,911 676,907 677,904 677,902 676,901 674,901 671,902 667,904 662,907 658,911 655,916 653,922 652,929 652,937 653,946 655,956 658,967 662,979 665,990 667,1000 668,1009 668,1017 667,1024 665,1030 662,1035 660,1039 659,1042 659,1044 660,1045 662,1045 663,1044 663,1042 662,1039 662,1035 662,1030 662,1024 662,1017 662,1009 662,1000 662,990 663,979 665,967 668,954 672,940 677,925 683,909 690,892 698,874 707,857 717,841 728,826 740,812 753,799 767,787 782,776 798,766 815,757 831,749 846,742 860,736 873,731 885,727 896,724 906,722 915,721 923,721 930,722 936,724 941,727 945,731 948,736 950,742 951,749 951,757 950,766 948,776 945,787 941,799 936,812 930,826 923,841 915,857 906,874 896,890 885,905 873,919 860,932 846,944 831,955 817,965 804,974 792,982 781,989 771,995 762,1000 754,1004 747,1007 741,1009 736,1010 732,1010 729,1009 727,1007 726,1004 726,1000 727,995 729,989 732,982 736,974 741,965 747,955 754,944 762,932 771,919 781,905 792,890 804,874 817,859 829,845 840,832 850,820 859,809 867,799 874,790 880,782 885,775 889,769 892,764 894,760 895,757 895,755 894,754 892,754 889,755 885,757 880,760 874,764 867,769 859,775 850,782 840,790 829,799 819,809 810,820 802,832 795,845 789,859 784,874 780,888 777,901 775,913 774,924 774,934 775,943 777,951 780,958 784,964 789,969 795,973 802,976 810,978 819,979 827,979 834,978 840,976 845,973 849,969 852,964 854,958 855,951 855,943 854,934 852,924 849,913 845,901 840,888 834,874 827,861 821,849 816,838 812,828 809,819 807,811 806,804 806,798 807,793 809,789 812,786 816,784 821,783 825,783 828,784 830,786 831,789 831,793 830,798 828,804 825,811 823,819 822,828 822,838 823,849 825,861 826,874 826,886 825,897 825,907 825,916 825,924 825,931 825,937 825,942 825,946 825,949 825,951 825,952 825,952 825,951 825,949 825,946 825,942 825,937 825,931 825,924 825,916 825,907 825,897 825,886" fill="none" stroke="red" stroke-width="0.5" />
  <circle cx="825" cy="874" r="2" fill="blue" />
</svg>