<svg width="1000" height="1000" xmlns="http://www.w3.org/2000/svg">
  <rect x="200" y="200" width="600" height="600" fill="white" stroke="gray" stroke-width="5" />
  <circle cx="466.2" cy="642.9" r="7" fill="black" />
  <circle cx="385.7" cy="571.4" r="7" fill="black" />
  <circle cx="485.7" cy="649.4" r="7" fill="black" />
  <circle cx="563.6" cy="767.5" r="7" fill="black" />
  <circle cx="429.9" cy="626.0" r="7" fill="black" />
  <circle cx="527.3" cy="703.9" r="7" fill="black" />
  <circle cx="567.5" cy="796.1" r="7" fill="black" />
  <circle cx="315.6" cy="390.9" r="7" fill="black" />
  <circle cx="381.8" cy="472.7" r="7" fill="black" />
  <circle cx="429.9" cy="541.6" r="7" fill="black" />
  <circle cx="561.0" cy="767.5" r="7" fill="black" />
  <circle cx="571.4" cy="792.2" r="7" fill="black" />
  <circle cx="568.8" cy="745.5" r="7" fill="black" />
  <circle cx="568.8" cy="796.1" r="7" fill="black" />
  <circle cx="368.8" cy="454.5" r="7" fill="black" />
  <circle cx="537.7" cy="661.0" r="7" fill="black" />
  <circle cx="518.2" cy="692.2" r="7" fill="black" />
  <circle cx="537.7" cy="746.8" r="7" fill="black" />
  <circle cx="415.6" cy="523.4" r="7" fill="black" />
  <circle cx="574.0" cy="751.9" r="7" fill="black" />
  <circle cx="558.4" cy="779.2" r="7" fill="black" />
  <circle cx="523.4" cy="655.8" r="7" fill="black" />
  <circle cx="554.5" cy="775.3" r="7" fill="black" />
  <circle cx="440.3" cy="554.5" r="7" fill="black" />
  <circle cx="275.3" cy="362.3" r="7" fill="black" />
  <circle cx="357.1" cy="437.7" r="7" fill="black" />
  <circle cx="509.1" cy="658.4" r="7" fill="black" />
  <circle cx="509.1" cy="679.2" r="7" fill="black" />
  <circle cx="506.5" cy="662.3" r="7" fill="black" />
  <circle cx="555.8" cy="776.6" r="7" fill="black" />
  <circle cx="561.0" cy="796.1" r="7" fill="black" />
  <circle cx="393.5" cy="490.9" r="7" fill="black" />
  <circle cx="563.6" cy="723.4" r="7" fill="black" />
  <circle cx="561.0" cy="696.1" r="7" fill="black" />
  <circle cx="561.0" cy="706.5" r="7" fill="black" />
  <circle cx="529.9" cy="714.3" r="7" fill="black" />
  <circle cx="451.9" cy="575.3" r="7" fill="black" />
  <circle cx="437.7" cy="632.5" r="7" fill="black" />
  <circle cx="342.9" cy="419.5" r="7" fill="black" />
  <circle cx="516.9" cy="657.1" r="7" fill="black" />
  <circle cx="287.0" cy="366.2" r="7" fill="black" />
  <circle cx="474.0" cy="618.2" r="7" fill="black" />
  <circle cx="519.5" cy="654.5" r="7" fill="black" />
  <circle cx="542.9" cy="754.5" r="7" fill="black" />
  <circle cx="576.6" cy="767.5" r="7" fill="black" />
  <circle cx="453.2" cy="642.9" r="7" fill="black" />
  <circle cx="576.6" cy="779.2" r="7" fill="black" />
  <circle cx="305.2" cy="377.9" r="7" fill="black" />
  <circle cx="562.3" cy="771.4" r="7" fill="black" />
  <circle cx="549.4" cy="668.8" r="7" fill="black" />
  <circle cx="415.6" cy="615.6" r="7" fill="black" />
  <circle cx="562.3" cy="715.6" r="7" fill="black" />
  <circle cx="562.3" cy="770.1" r="7" fill="black" />
  <circle cx="497.4" cy="662.3" r="7" fill="black" />
  <circle cx="409.1" cy="611.7" r="7" fill="black" />
  <circle cx="458.4" cy="592.2" r="7" fill="black" />
  <circle cx="566.2" cy="731.2" r="7" fill="black" />
  <circle cx="326.0" cy="403.9" r="7" fill="black" />
  <circle cx="501.3" cy="661.0" r="7" fill="black" />
  <circle cx="574.0" cy="785.7" r="7" fill="black" />
  <circle cx="493.5" cy="653.2" r="7" fill="black" />
  <circle cx="487.0" cy="651.9" r="7" fill="black" />
  <circle cx="489.6" cy="648.1" r="7" fill="black" />
  <circle cx="388.3" cy="577.9" r="7" fill="black" />
  <circle cx="532.5" cy="658.4" r="7" fill="black" />
  <circle cx="488.3" cy="654.5" r="7" fill="black" />
  <circle cx="533.8" cy="726.0" r="7" fill="black" />
  <circle cx="402.6" cy="601.3" r="7" fill="black" />
  <circle cx="393.5" cy="584.4" r="7" fill="black" />
  <circle cx="480.5" cy="636.4" r="7" fill="black" />
  <circle cx="553.2" cy="677.9" r="7" fill="black" />
  <circle cx="401.3" cy="592.2" r="7" fill="black" />
  <circle cx="562.3" cy="783.1" r="7" fill="black" />
  <circle cx="506.5" cy="663.6" r="7" fill="black" />
  <circle cx="461.0" cy="644.2" r="7" fill="black" />
  <circle cx="567.5" cy="740.3" r="7" fill="black" />
  <circle cx="551.9" cy="767.5" r="7" fill="black" />
  <circle cx="466.2" cy="606.5" r="7" fill="black" />
  <circle cx="561.0" cy="775.3" r="7" fill="black" />
  <circle cx="572.7" cy="759.7" r="7" fill="black" />
  <circle cx="479.2" cy="648.1" r="7" fill="black" />
  <circle cx="559.7" cy="774.0" r="7" fill="black" />
  <circle cx="561.0" cy="767.5" r="7" fill="black" />
  <circle cx="541.6" cy="664.9" r="7" fill="black" />
  <circle cx="557.1" cy="687.0" r="7" fill="black" />
  <circle cx="298.7" cy="371.4" r="7" fill="black" />
  <circle cx="561.0" cy="787.0" r="7" fill="black" />
  <circle cx="562.3" cy="768.8" r="7" fill="black" />
  <circle cx="549.4" cy="764.9" r="7" fill="black" />
  <circle cx="423.4" cy="619.5" r="7" fill="black" />
  <circle cx="497.4" cy="655.8" r="7" fill="black" />
  <circle cx="405.2" cy="509.1" r="7" fill="black" />
  <circle cx="442.9" cy="641.6" r="7" fill="black" />
  <circle cx="557.1" cy="771.4" r="7" fill="black" />
  <circle cx="475.3" cy="644.2" r="7" fill="black" />
  <circle cx="533.8" cy="737.7" r="7" fill="black" />
  <circle cx="546.8" cy="759.7" r="7" fill="black" />
  <circle cx="558.4" cy="792.2" r="7" fill="black" />
  <circle cx="553.2" cy="772.7" r="7" fill="black" />
  <circle cx="406.5" cy="609.1" r="7" fill="black" />
  <polyline points="384.4,568.8 385.7,570.1 388.3,572.7 392.2,576.6 397.4,581.8 403.9,588.3 411.7,596.1 420.8,605.2 431.2,615.6 442.9,627.3 455.8,640.3 467.5,651.9 477.9,662.3 487.0,671.4 494.8,679.2 501.3,685.7 506.5,690.9 510.4,694.8 513.0,697.4 514.3,698.7 514.3,698.7 513.0,697.4 510.4,694.8 506.5,690.9 501.3,685.7 494.8,679.2 487.0,671.4 477.9,662.3 467.5,651.9 458.4,642.9 450.6,635.1 444.2,628.6 439.0,623.4 435.1,619.5 432.5,616.9 431.2,615.6 431.2,615.6 432.5,616.9 435.1,619.5 439.0,623.4 444.2,628.6 450.6,635.1 458.4,642.9 466.2,649.4 472.7,654.5 477.9,658.4 481.8,661.0 484.4,662.3 485.7,662.3 485.7,661.0 484.4,658.4 481.8,654.5 477.9,649.4 472.7,642.9 466.2,637.7 461.0,633.8 457.1,631.2 454.5,629.9 453.2,629.9 453.2,631.2 454.5,633.8 457.1,637.7 461.0,642.9 466.2,646.8 470.1,649.4 472.7,650.6 474.0,650.6 474.0,649.4 472.7,646.8 470.1,642.9 466.2,640.3 463.6,639.0 462.3,639.0 462.3,640.3 463.6,642.9 466.2,644.2 467.5,644.2 467.5,642.9 466.2,642.9 463.6,644.2 461.0,644.2 457.1,642.9 453.2,642.9 448.1,641.6 442.9,641.6 437.7,640.3 433.8,637.7 431.2,633.8 429.9,631.2 429.9,629.9 431.2,629.9 433.8,631.2 437.7,632.5 440.3,632.5 441.6,631.2 441.6,628.6 440.3,626.0 437.7,624.7 433.8,624.7 429.9,626.0 424.7,626.0 420.8,624.7 418.2,622.1 416.9,619.5 416.9,618.2 418.2,618.2 420.8,619.5 423.4,619.5 424.7,618.2 424.7,615.6 423.4,614.3 420.8,614.3 416.9,615.6 414.3,615.6 413.0,615.6 413.0,615.6 414.3,615.6 415.6,615.6 415.6,614.3 414.3,611.7 411.7,610.4 409.1,610.4 407.8,611.7 407.8,611.7 409.1,611.7 409.1,610.4 407.8,609.1 406.5,609.1 403.9,607.8 402.6,605.2 402.6,601.3 401.3,596.1 401.3,592.2 400.0,587.0 397.4,583.1 393.5,580.5 390.9,579.2 389.6,579.2 389.6,580.5 390.9,583.1 393.5,584.4 394.8,584.4 394.8,583.1 393.5,580.5 390.9,577.9 388.3,576.6 387.0,576.6 387.0,577.9 388.3,577.9 388.3,576.6 387.0,574.0 385.7,571.4 383.1,567.5 379.2,562.3 374.0,555.8 367.5,548.1 359.7,539.0 350.6,528.6 340.3,516.9 328.6,503.9 315.6,489.6 301.3,474.0 285.7,457.1 271.4,439.0 258.4,419.5 246.8,398.7 236.4,376.6 227.3,355.8 219.5,336.4 213.0,318.2 207.8,301.3 203.9,285.7 201.3,271.4 200.0,258.4 200.0,246.8 201.3,236.4 203.9,227.3 207.8,219.5 213.0,213.0 219.5,207.8 227.3,203.9 236.4,201.3 246.8,200.0 258.4,200.0 271.4,201.3 283.1,203.9 293.5,207.8 302.6,213.0 310.4,219.5 316.9,227.3 322.1,236.4 326.0,246.8 328.6,258.4 329.9,271.4 329.9,285.7 328.6,301.3 326.0,318.2 322.1,336.4 316.9,355.8 310.4,374.0 302.6,390.9 293.5,406.5 283.1,420.8 274.0,433.8 266.2,445.5 259.7,455.8 254.5,464.9 250.6,472.7 248.1,479.2 246.8,484.4 246.8,488.3 248.1,490.9 250.6,492.2 254.5,492.2 259.7,490.9 266.2,488.3 274.0,484.4 280.5,479.2 285.7,472.7 289.6,464.9 292.2,455.8 293.5,445.5 293.5,433.8 292.2,420.8 289.6,406.5 285.7,390.9 280.5,374.0 275.3,358.4 271.4,344.2 268.8,331.2 267.5,319.5 267.5,309.1 268.8,300.0 271.4,292.2 275.3,285.7 277.9,280.5 279.2,276.6 279.2,274.0 277.9,272.7 275.3,272.7 274.0,274.0 274.0,276.6 275.3,280.5 275.3,285.7 275.3,292.2 275.3,300.0 275.3,309.1 275.3,319.5 275.3,331.2 275.3,344.2 275.3,358.4 275.3,371.4 275.3,383.1 275.3,393.5 275.3,402.6 275.3,410.4 275.3,416.9 275.3,422.1 275.3,426.0 275.3,428.6 275.3,429.9 275.3,429.9 275.3,428.6 275.3,426.0 275.3,422.1 275.3,416.9 275.3,410.4 275.3,402.6 275.3,393.5 275.3,383.1 275.3,371.4 275.3,361.0 275.3,351.9 275.3,344.2 275.3,337.7 275.3,332.5 275.3,328.6 275.3,326.0 275.3,324.7 275.3,324.7 275.3,326.0 275.3,328.6 275.3,332.5 275.3,337.7 275.3,344.2 275.3,351.9 275.3,361.0 275.3,368.8 275.3,375.3 275.3,380.5 275.3,384.4 275.3,387.0 275.3,388.3 275.3,388.3 275.3,387.0 275.3,384.4 275.3,380.5 275.3,375.3 275.3,368.8 275.3,362.3 276.6,357.1 279.2,353.2 283.1,350.6 287.0,349.4 289.6,349.4 290.9,350.6 290.9,353.2 289.6,357.1 287.0,362.3 285.7,366.2 285.7,368.8 287.0,370.1 287.0,370.1 287.0,368.8 287.0,366.2 288.3,364.9 290.9,364.9 294.8,366.2 298.7,368.8 301.3,371.4 302.6,372.7 302.6,372.7 301.3,371.4 298.7,371.4 297.4,372.7 297.4,375.3 298.7,377.9 301.3,379.2 305.2,379.2 307.8,377.9 309.1,377.9 309.1,377.9 307.8,377.9 305.2,377.9 303.9,379.2 303.9,381.8 305.2,385.7 307.8,390.9 311.7,394.8 315.6,397.4 318.2,398.7 319.5,398.7 319.5,397.4 318.2,394.8 315.6,390.9 314.3,388.3 314.3,387.0 315.6,387.0 318.2,388.3 322.1,390.9 326.0,394.8 328.6,400.0 329.9,403.9 329.9,406.5 328.6,407.8 326.0,407.8 324.7,406.5 324.7,403.9 326.0,402.6 326.0,402.6 326.0,403.9 327.3,406.5 329.9,410.4 333.8,415.6 339.0,419.5 342.9,422.1 345.5,423.4 346.8,423.4 346.8,422.1 345.5,419.5 342.9,418.2 341.6,418.2 341.6,419.5 342.9,419.5 345.5,420.8 349.4,423.4 354.5,427.3 358.4,432.5 361.0,437.7 362.3,441.6 362.3,444.2 361.0,445.5 358.4,445.5 357.1,444.2 357.1,441.6 357.1,437.7 358.4,435.1 361.0,433.8 364.9,433.8 368.8,435.1 371.4,437.7 372.7,441.6 372.7,446.8 371.4,453.2 368.8,458.4 367.5,462.3 367.5,464.9 368.8,466.2 368.8,466.2 368.8,464.9 368.8,462.3 368.8,458.4 368.8,454.5 370.1,451.9 372.7,450.6 376.6,450.6 381.8,451.9 385.7,454.5 388.3,458.4 389.6,463.6 389.6,470.1 388.3,475.3 385.7,479.2 381.8,481.8 379.2,483.1 377.9,483.1 377.9,481.8 379.2,479.2 381.8,475.3 383.1,472.7 383.1,471.4 381.8,471.4 381.8,472.7 383.1,475.3 385.7,479.2 389.6,484.4 393.5,490.9 398.7,498.7 405.2,507.8 410.4,515.6 414.3,522.1 416.9,527.3 418.2,531.2 418.2,533.8 416.9,535.1 414.3,535.1 410.4,533.8 405.2,531.2 401.3,527.3 398.7,522.1 397.4,515.6 397.4,509.1 398.7,503.9 401.3,500.0 405.2,497.4 407.8,496.1 409.1,496.1 409.1,497.4 407.8,500.0 405.2,503.9 403.9,509.1 403.9,513.0 405.2,515.6 405.2,516.9 405.2,516.9 405.2,515.6 405.2,513.0 405.2,509.1 406.5,506.5 409.1,505.2 413.0,505.2 415.6,506.5 416.9,509.1 416.9,513.0 415.6,518.2 415.6,523.4 416.9,529.9 419.5,537.7 423.4,544.2 428.6,549.4 432.5,553.2 435.1,555.8 436.4,557.1 436.4,557.1 435.1,555.8 432.5,553.2 429.9,549.4 428.6,544.2 428.6,540.3 429.9,537.7 429.9,536.4 429.9,536.4 429.9,537.7 429.9,540.3 429.9,541.6 431.2,544.2 433.8,548.1 437.7,553.2 440.3,557.1 441.6,559.7 441.6,561.0 440.3,561.0 440.3,559.7 440.3,557.1 440.3,554.5 441.6,553.2 444.2,553.2 448.1,554.5 451.9,557.1 454.5,561.0 455.8,566.2 455.8,572.7 454.5,577.9 451.9,581.8 450.6,584.4 450.6,585.7 451.9,585.7 451.9,584.4 451.9,581.8 451.9,577.9 451.9,575.3 453.2,574.0 455.8,574.0 458.4,575.3 459.7,577.9 459.7,581.8 458.4,587.0 458.4,592.2 459.7,598.7 462.3,606.5 466.2,613.0 468.8,618.2 470.1,622.1 470.1,624.7 468.8,626.0 466.2,626.0 464.9,624.7 464.9,622.1 466.2,618.2 466.2,613.0 466.2,606.5 467.5,601.3 470.1,597.4 474.0,594.8 476.6,593.5 477.9,593.5 477.9,594.8 476.6,597.4 474.0,601.3 472.7,606.5 472.7,613.0 474.0,618.2 476.6,624.7 480.5,632.5 483.1,639.0 484.4,644.2 484.4,648.1 483.1,650.6 480.5,651.9 479.2,651.9 479.2,650.6 480.5,648.1 480.5,644.2 480.5,639.0 480.5,635.1 480.5,632.5 480.5,631.2 480.5,631.2 480.5,632.5 480.5,635.1 480.5,636.4 481.8,639.0 484.4,642.9 488.3,648.1 490.9,651.9 492.2,654.5 492.2,655.8 490.9,655.8 489.6,654.5 489.6,651.9 489.6,648.1 490.9,645.5 493.5,644.2 494.8,644.2 494.8,645.5 493.5,648.1 493.5,651.9 493.5,654.5 493.5,655.8 493.5,655.8 493.5,654.5 493.5,653.2 494.8,653.2 497.4,654.5 498.7,655.8 498.7,655.8 497.4,655.8 497.4,657.1 498.7,658.4 501.3,658.4 505.2,658.4 509.1,658.4 514.3,657.1 518.2,657.1 520.8,657.1 522.1,657.1 522.1,657.1 520.8,657.1 518.2,657.1 516.9,657.1 516.9,655.8 518.2,654.5 519.5,654.5 522.1,655.8 523.4,655.8 526.0,657.1 529.9,658.4 532.5,658.4 536.4,659.7 539.0,661.0 540.3,661.0 540.3,661.0 539.0,661.0 537.7,661.0 537.7,662.3 539.0,664.9 541.6,666.2 542.9,666.2 542.9,664.9 541.6,664.9 541.6,666.2 542.9,668.8 545.5,670.1 549.4,670.1 551.9,668.8 553.2,668.8 553.2,668.8 551.9,668.8 549.4,668.8 548.1,670.1 548.1,672.7 549.4,676.6 551.9,679.2 553.2,680.5 553.2,680.5 553.2,679.2 553.2,677.9 554.5,677.9 557.1,679.2 558.4,681.8 558.4,685.7 557.1,688.3 557.1,689.6 557.1,689.6 557.1,688.3 557.1,687.0 558.4,687.0 561.0,688.3 562.3,690.9 562.3,694.8 561.0,697.4 561.0,698.7 561.0,698.7 561.0,697.4 561.0,696.1 561.0,696.1 561.0,697.4 561.0,700.0 561.0,703.9 561.0,706.5 562.3,710.4 562.3,715.6 563.6,722.1 563.6,727.3 563.6,731.2 563.6,733.8 563.6,735.1 563.6,735.1 563.6,733.8 563.6,731.2 563.6,727.3 563.6,723.4 564.9,720.8 566.2,719.5 566.2,719.5 566.2,720.8 566.2,723.4 566.2,727.3 566.2,731.2 567.5,736.4 567.5,740.3 568.8,745.5 571.4,751.9 574.0,757.1 575.3,761.0 575.3,763.6 574.0,764.9 574.0,764.9 574.0,763.6 574.0,761.0 574.0,757.1 574.0,751.9 572.7,748.1 572.7,745.5 572.7,744.2 572.7,744.2 572.7,745.5 572.7,748.1 572.7,751.9 572.7,757.1 572.7,761.0 572.7,763.6 572.7,764.9 572.7,764.9 572.7,763.6 572.7,761.0 572.7,759.7 574.0,759.7 576.6,761.0 577.9,763.6 577.9,767.5 576.6,770.1 576.6,771.4 576.6,771.4 576.6,770.1 576.6,767.5 576.6,766.2 576.6,766.2 576.6,767.5 576.6,770.1 576.6,774.0 576.6,779.2 575.3,785.7 574.0,790.9 574.0,794.8 574.0,797.4 574.0,798.7 574.0,798.7 574.0,797.4 574.0,794.8 574.0,790.9 574.0,785.7 572.7,781.8 571.4,779.2 571.4,777.9 571.4,777.9 571.4,779.2 571.4,781.8 571.4,785.7 571.4,790.9 571.4,794.8 571.4,797.4 571.4,798.7 571.4,798.7 571.4,797.4 571.4,794.8 571.4,792.2 570.1,790.9 568.8,790.9 568.8,792.2 568.8,794.8 568.8,796.1 567.5,796.1 564.9,796.1 561.0,796.1 558.4,794.8 557.1,792.2 557.1,790.9 558.4,790.9 558.4,792.2 559.7,792.2 561.0,790.9 561.0,788.3 561.0,787.0 562.3,784.4 562.3,783.1 561.0,780.5 558.4,779.2 555.8,776.6 554.5,775.3 553.2,772.7 553.2,771.4 554.5,771.4 557.1,771.4 559.7,772.7 561.0,774.0 561.0,774.0 559.7,774.0 559.7,775.3 561.0,775.3 562.3,774.0 562.3,771.4 562.3,770.1 563.6,767.5 563.6,766.2 562.3,766.2 562.3,767.5 562.3,768.8 561.0,768.8 561.0,767.5 559.7,767.5 557.1,767.5 553.2,767.5 550.6,767.5 549.4,767.5 549.4,767.5 550.6,767.5 551.9,767.5 551.9,766.2 550.6,764.9 549.4,764.9 546.8,763.6 545.5,761.0 545.5,759.7 546.8,759.7 546.8,758.4 545.5,755.8 542.9,754.5 539.0,751.9 536.4,748.1 535.1,745.5 535.1,744.2 536.4,744.2 537.7,745.5 537.7,746.8 536.4,746.8 533.8,745.5 532.5,742.9 532.5,739.0 533.8,736.4 533.8,735.1 533.8,735.1 533.8,736.4 533.8,737.7 533.8,737.7 533.8,736.4 533.8,733.8 533.8,729.9 533.8,726.0 532.5,720.8 529.9,714.3 527.3,706.5 526.0,700.0 526.0,694.8 527.3,690.9 527.3,688.3 527.3,687.0 527.3,687.0 527.3,688.3 527.3,690.9 527.3,694.8 527.3,700.0 527.3,703.9 526.0,706.5 523.4,707.8 519.5,707.8 516.9,706.5 515.6,703.9 515.6,700.0 516.9,694.8 518.2,690.9 518.2,688.3 518.2,687.0 518.2,687.0 518.2,688.3 518.2,690.9 518.2,692.2 516.9,692.2 514.3,690.9 510.4,688.3 507.8,684.4 506.5,679.2 506.5,675.3 507.8,672.7 509.1,671.4 509.1,671.4 509.1,672.7 509.1,675.3 509.1,679.2 507.8,681.8 506.5,683.1 506.5,683.1 506.5,681.8 506.5,679.2 506.5,675.3 506.5,670.1 506.5,663.6 506.5,658.4 506.5,654.5 506.5,651.9 506.5,650.6 506.5,650.6 506.5,651.9 506.5,654.5 506.5,658.4 506.5,662.3 505.2,664.9 502.6,666.2 501.3,666.2 501.3,664.9 501.3,662.3 501.3,661.0 500.0,661.0 497.4,662.3 493.5,662.3 488.3,661.0 484.4,658.4 481.8,654.5 480.5,651.9 480.5,650.6 481.8,650.6 484.4,651.9 488.3,654.5 490.9,655.8 492.2,655.8 492.2,654.5 490.9,651.9 488.3,650.6 487.0,650.6 487.0,651.9 485.7,651.9 485.7,650.6 485.7,649.4 484.4,648.1 481.8,648.1 479.2,648.1 475.3,646.8 472.7,644.2 471.4,642.9 471.4,642.9 472.7,644.2" fill="none" stroke="red" stroke-width="7" stroke-opacity="0.5"/>
  <circle cx="475.3" cy="644.2" r="15" fill="blue" fill-opacity="0.5"/>
</svg>