<svg width="1000" height="1000" xmlns="http://www.w3.org/2000/svg">
  <rect x="200" y="200" width="600" height="600" fill="white" stroke="gray" stroke-width="5" />
  <circle cx="332.6" cy="217.9" r="7" fill="black" />
  <circle cx="419.6" cy="271.0" r="7" fill="black" />
  <circle cx="786.8" cy="466.6" r="7" fill="black" />
  <circle cx="763.3" cy="449.7" r="7" fill="black" />
  <circle cx="793.9" cy="469.0" r="7" fill="black" />
  <circle cx="771.8" cy="453.9" r="7" fill="black" />
  <circle cx="519.7" cy="313.3" r="7" fill="black" />
  <circle cx="691.4" cy="406.4" r="7" fill="black" />
  <circle cx="501.4" cy="304.4" r="7" fill="black" />
  <circle cx="206.6" cy="241.4" r="7" fill="black" />
  <circle cx="640.6" cy="372.6" r="7" fill="black" />
  <circle cx="793.9" cy="471.3" r="7" fill="black" />
  <circle cx="365.0" cy="245.1" r="7" fill="black" />
  <circle cx="476.5" cy="296.4" r="7" fill="black" />
  <circle cx="674.9" cy="397.5" r="7" fill="black" />
  <circle cx="622.7" cy="362.2" r="7" fill="black" />
  <circle cx="530.1" cy="317.1" r="7" fill="black" />
  <circle cx="794.4" cy="474.1" r="7" fill="black" />
  <circle cx="577.6" cy="337.8" r="7" fill="black" />
  <circle cx="487.3" cy="297.3" r="7" fill="black" />
  <circle cx="277.6" cy="204.7" r="7" fill="black" />
  <circle cx="718.7" cy="418.2" r="7" fill="black" />
  <circle cx="214.1" cy="237.1" r="7" fill="black" />
  <circle cx="798.6" cy="485.9" r="7" fill="black" />
  <circle cx="282.8" cy="202.8" r="7" fill="black" />
  <circle cx="302.0" cy="201.4" r="7" fill="black" />
  <circle cx="200.0" cy="239.5" r="7" fill="black" />
  <circle cx="466.6" cy="289.3" r="7" fill="black" />
  <circle cx="313.8" cy="202.4" r="7" fill="black" />
  <circle cx="757.7" cy="444.0" r="7" fill="black" />
  <circle cx="220.7" cy="234.8" r="7" fill="black" />
  <circle cx="709.2" cy="414.9" r="7" fill="black" />
  <circle cx="372.6" cy="251.3" r="7" fill="black" />
  <circle cx="239.0" cy="235.3" r="7" fill="black" />
  <circle cx="357.1" cy="238.6" r="7" fill="black" />
  <circle cx="753.4" cy="441.2" r="7" fill="black" />
  <circle cx="792.0" cy="466.6" r="7" fill="black" />
  <circle cx="271.9" cy="222.6" r="7" fill="black" />
  <circle cx="299.7" cy="201.9" r="7" fill="black" />
  <circle cx="783.5" cy="463.3" r="7" fill="black" />
  <circle cx="267.7" cy="223.5" r="7" fill="black" />
  <circle cx="553.1" cy="327.0" r="7" fill="black" />
  <circle cx="295.5" cy="200.0" r="7" fill="black" />
  <circle cx="339.7" cy="222.6" r="7" fill="black" />
  <circle cx="796.7" cy="476.5" r="7" fill="black" />
  <circle cx="780.3" cy="460.5" r="7" fill="black" />
  <circle cx="732.8" cy="425.7" r="7" fill="black" />
  <circle cx="327.9" cy="214.6" r="7" fill="black" />
  <circle cx="541.4" cy="322.3" r="7" fill="black" />
  <circle cx="272.9" cy="219.7" r="7" fill="black" />
  <circle cx="799.5" cy="479.3" r="7" fill="black" />
  <circle cx="285.6" cy="202.8" r="7" fill="black" />
  <circle cx="699.4" cy="408.3" r="7" fill="black" />
  <circle cx="345.3" cy="228.7" r="7" fill="black" />
  <circle cx="291.2" cy="203.3" r="7" fill="black" />
  <circle cx="632.1" cy="366.0" r="7" fill="black" />
  <circle cx="612.9" cy="356.6" r="7" fill="black" />
  <circle cx="389.0" cy="260.2" r="7" fill="black" />
  <circle cx="276.6" cy="214.1" r="7" fill="black" />
  <circle cx="278.1" cy="203.3" r="7" fill="black" />
  <circle cx="379.6" cy="254.1" r="7" fill="black" />
  <circle cx="793.9" cy="476.5" r="7" fill="black" />
  <circle cx="724.8" cy="421.5" r="7" fill="black" />
  <circle cx="600.2" cy="349.1" r="7" fill="black" />
  <circle cx="682.4" cy="402.7" r="7" fill="black" />
  <circle cx="431.3" cy="274.3" r="7" fill="black" />
  <circle cx="305.3" cy="200.5" r="7" fill="black" />
  <circle cx="280.4" cy="204.7" r="7" fill="black" />
  <circle cx="228.2" cy="234.3" r="7" fill="black" />
  <circle cx="275.2" cy="216.9" r="7" fill="black" />
  <circle cx="666.0" cy="390.9" r="7" fill="black" />
  <circle cx="456.3" cy="285.1" r="7" fill="black" />
  <circle cx="738.4" cy="429.5" r="7" fill="black" />
  <circle cx="799.1" cy="483.1" r="7" fill="black" />
  <circle cx="278.1" cy="210.8" r="7" fill="black" />
  <circle cx="233.4" cy="235.3" r="7" fill="black" />
  <circle cx="649.5" cy="379.2" r="7" fill="black" />
  <circle cx="283.2" cy="203.8" r="7" fill="black" />
  <circle cx="352.4" cy="232.0" r="7" fill="black" />
  <circle cx="319.4" cy="205.6" r="7" fill="black" />
  <circle cx="508.9" cy="309.6" r="7" fill="black" />
  <circle cx="254.1" cy="229.2" r="7" fill="black" />
  <circle cx="310.0" cy="201.9" r="7" fill="black" />
  <circle cx="590.3" cy="345.8" r="7" fill="black" />
  <circle cx="564.4" cy="332.6" r="7" fill="black" />
  <circle cx="274.3" cy="205.6" r="7" fill="black" />
  <circle cx="396.6" cy="262.1" r="7" fill="black" />
  <circle cx="774.6" cy="458.6" r="7" fill="black" />
  <circle cx="658.0" cy="383.9" r="7" fill="black" />
  <circle cx="766.6" cy="452.5" r="7" fill="black" />
  <circle cx="247.5" cy="231.0" r="7" fill="black" />
  <circle cx="778.8" cy="458.6" r="7" fill="black" />
  <circle cx="443.1" cy="279.9" r="7" fill="black" />
  <circle cx="264.9" cy="223.5" r="7" fill="black" />
  <circle cx="274.8" cy="206.6" r="7" fill="black" />
  <circle cx="321.3" cy="209.4" r="7" fill="black" />
  <circle cx="746.9" cy="434.2" r="7" fill="black" />
  <circle cx="407.4" cy="265.8" r="7" fill="black" />
  <circle cx="259.7" cy="227.7" r="7" fill="black" />
  <circle cx="288.4" cy="203.3" r="7" fill="black" />
  <polyline points="798.1,486.8 798.6,486.4 798.6,485.9 799.1,485.0 799.1,484.0 799.1,483.1 799.5,482.1 799.5,481.2 799.5,480.3 799.5,479.3 799.1,478.4 798.1,477.4 797.2,476.5 796.7,476.0 796.7,476.0 796.7,476.5 796.2,476.5 795.3,476.5 794.4,476.5 793.9,476.5 793.9,476.0 794.4,475.1 794.4,474.1 793.9,473.2 793.9,472.3 793.9,471.3 793.9,470.4 793.9,469.4 793.9,469.0 793.4,468.0 792.5,467.1 792.0,466.6 791.1,466.6 790.1,466.6 789.2,466.6 788.2,466.6 787.3,466.6 786.8,466.6 785.9,466.1 785.0,465.2 784.0,464.3 783.5,463.3 782.6,462.4 781.7,461.4 780.7,460.5 780.3,460.0 780.3,460.0 780.3,460.5 779.8,460.5 778.8,460.0 778.4,459.1 778.4,458.6 778.8,458.6 778.8,458.6 778.4,458.6 777.4,458.6 776.5,458.6 775.5,458.6 774.6,458.6 773.7,458.2 772.7,457.2 771.8,456.3 771.3,455.3 771.3,454.4 771.8,453.9 771.8,453.0 771.3,452.5 770.4,452.5 769.4,452.5 768.5,452.5 767.6,452.5 766.6,452.5 765.7,452.0 764.7,451.1 763.8,450.2 763.3,449.7 762.4,448.7 761.4,447.8 760.5,446.9 759.6,445.9 758.6,445.0 757.7,444.0 756.7,443.1 755.8,442.2 754.9,441.2 753.9,440.8 753.4,440.8 753.4,441.2 753.0,441.2 752.0,440.8 751.1,439.8 750.2,438.9 749.2,437.9 748.3,437.0 747.3,436.1 746.9,435.1 746.9,434.2 746.4,433.2 745.5,432.3 744.5,431.3 743.6,430.4 742.6,429.5 741.7,429.0 740.8,429.0 739.8,429.5 738.9,429.5 738.4,429.5 737.5,429.0 736.5,428.1 735.6,427.1 734.6,426.2 733.7,425.7 732.8,425.7 731.8,425.2 730.9,424.3 729.9,423.4 729.0,422.4 728.1,421.5 727.1,421.0 726.2,421.0 725.2,421.5 724.8,421.5 723.8,421.0 722.9,420.1 721.9,419.1 721.0,418.2 720.1,417.7 719.1,417.7 718.7,418.2 717.7,418.2 716.8,417.7 715.8,416.8 714.9,415.8 713.9,414.9 713.0,414.4 712.1,414.4 711.1,414.9 710.2,414.9 709.2,414.9 708.3,414.4 707.4,413.5 706.4,412.5 705.5,411.6 704.5,410.7 703.6,409.7 702.7,408.8 701.7,408.3 700.8,408.3 699.8,408.3 699.4,408.3 698.4,407.8 697.5,406.9 696.6,406.4 695.6,406.4 694.7,406.4 693.7,406.4 692.8,406.4 691.8,406.4 691.4,406.4 690.4,406.0 689.5,405.0 688.6,404.1 687.6,403.1 686.7,402.7 685.7,402.7 684.8,402.7 683.9,402.7 682.9,402.7 682.4,402.7 681.5,402.2 680.6,401.3 679.6,400.3 678.7,399.4 677.7,398.4 676.8,397.5 675.9,397.0 674.9,397.0 674.5,397.5 674.5,397.5 674.9,397.5 674.9,397.0 674.5,396.1 673.5,395.1 672.6,394.2 671.6,393.3 670.7,392.3 669.7,391.4 668.8,390.9 667.9,390.9 666.9,390.9 666.0,390.9 665.0,390.4 664.1,389.5 663.2,388.6 662.2,387.6 661.3,386.7 660.3,385.7 659.4,384.8 658.5,383.9 658.0,383.4 658.0,383.4 658.0,383.9 657.5,383.9 656.6,383.4 655.6,382.4 654.7,381.5 653.8,380.6 652.8,379.6 651.9,379.2 650.9,379.2 650.0,379.2 649.5,379.2 648.6,378.7 647.6,377.7 646.7,376.8 645.8,375.9 644.8,374.9 643.9,374.0 642.9,373.0 642.0,372.6 641.1,372.6 640.6,372.6 639.7,372.1 638.7,371.2 637.8,370.2 636.8,369.3 635.9,368.3 635.0,367.4 634.0,366.5 633.1,366.0 632.1,366.0 631.2,365.5 630.3,364.6 629.3,363.6 628.4,362.7 627.4,362.2 626.5,362.2 625.5,362.2 624.6,362.2 623.7,362.2 622.7,362.2 621.8,361.8 620.8,360.8 619.9,359.9 619.0,358.9 618.0,358.0 617.1,357.1 616.1,356.6 615.2,356.6 614.3,356.6 613.3,356.6 612.9,356.6 611.9,356.1 611.0,355.2 610.0,354.2 609.1,353.3 608.2,352.4 607.2,351.4 606.3,350.5 605.3,349.5 604.4,349.1 603.4,349.1 602.5,349.1 601.6,349.1 600.6,349.1 600.2,349.1 599.2,348.6 598.3,347.6 597.3,346.7 596.4,345.8 595.5,345.3 594.5,345.3 593.6,345.8 592.6,345.8 591.7,345.8 590.8,345.8 590.3,345.8 589.3,345.3 588.4,344.4 587.5,343.4 586.5,342.5 585.6,341.5 584.6,340.6 583.7,339.7 582.8,338.7 581.8,337.8 580.9,337.3 579.9,337.3 579.0,337.8 578.1,337.8 577.6,337.8 576.6,337.3 575.7,336.4 574.8,335.4 573.8,334.5 572.9,333.5 571.9,332.6 571.0,332.1 570.1,332.1 569.1,332.6 568.2,332.6 567.2,332.6 566.3,332.6 565.4,332.6 564.4,332.6 563.5,332.1 562.5,331.2 561.6,330.3 560.7,329.3 559.7,328.4 558.8,327.4 557.8,327.0 556.9,327.0 556.0,327.0 555.0,327.0 554.1,327.0 553.1,327.0 552.2,326.5 551.3,325.5 550.3,324.6 549.4,323.7 548.4,322.7 547.5,322.3 546.6,322.3 545.6,322.3 544.7,322.3 543.7,322.3 542.8,322.3 541.8,322.3 541.4,322.3 540.4,321.8 539.5,320.8 538.6,319.9 537.6,319.0 536.7,318.0 535.7,317.1 534.8,316.6 533.9,316.6 532.9,317.1 532.0,317.1 531.0,317.1 530.1,317.1 529.2,316.6 528.2,315.7 527.3,314.7 526.3,313.8 525.4,313.3 524.5,313.3 523.5,313.3 522.6,313.3 521.6,313.3 520.7,313.3 519.7,313.3 518.8,312.9 517.9,311.9 516.9,311.0 516.0,310.0 515.0,309.6 514.1,309.6 513.2,309.6 512.2,309.6 511.3,309.6 510.3,309.6 509.4,309.6 508.9,309.6 508.0,309.1 507.1,308.2 506.1,307.2 505.2,306.3 504.2,305.3 503.3,304.4 502.4,303.9 501.4,303.9 500.9,304.4 500.9,304.4 501.4,304.4 501.4,303.9 500.9,303.0 500.0,302.0 499.1,301.1 498.1,300.2 497.2,299.2 496.2,298.3 495.3,297.3 494.4,296.9 493.4,296.9 492.5,297.3 491.5,297.3 490.6,297.3 489.7,297.3 488.7,297.3 487.8,297.3 487.3,297.3 486.4,296.9 485.4,296.4 484.5,296.4 483.5,296.4 482.6,296.4 481.7,296.4 480.7,296.4 479.8,296.4 478.8,296.4 477.9,296.4 477.0,296.4 476.5,296.4 475.5,295.9 474.6,295.0 473.7,294.0 472.7,293.1 471.8,292.2 470.8,291.2 469.9,290.3 469.0,289.3 468.0,288.9 467.1,288.9 466.6,289.3 465.7,289.3 464.7,288.9 463.8,287.9 462.9,287.0 461.9,286.1 461.0,285.1 460.0,284.6 459.1,284.6 458.2,285.1 457.2,285.1 456.3,285.1 455.3,284.6 454.4,283.7 453.4,282.8 452.5,281.8 451.6,280.9 450.6,279.9 449.7,279.5 448.7,279.5 447.8,279.9 446.9,279.9 445.9,279.9 445.0,279.9 444.0,279.9 443.1,279.9 442.2,279.5 441.2,278.5 440.3,277.6 439.3,276.6 438.4,275.7 437.5,274.8 436.5,274.3 435.6,274.3 434.6,274.3 433.7,274.3 432.8,274.3 431.8,274.3 431.3,274.3 430.4,273.8 429.5,272.9 428.5,271.9 427.6,271.0 426.6,270.5 425.7,270.5 424.8,271.0 423.8,271.0 422.9,271.0 421.9,271.0 421.0,271.0 420.1,271.0 419.6,271.0 418.7,270.5 417.7,269.6 416.8,268.7 415.8,267.7 414.9,266.8 413.9,265.8 413.0,265.4 412.1,265.4 411.1,265.8 410.2,265.8 409.2,265.8 408.3,265.8 407.4,265.8 406.4,265.4 405.5,264.4 404.5,263.5 403.6,262.5 402.7,262.1 401.7,262.1 400.8,262.1 399.8,262.1 398.9,262.1 398.0,262.1 397.0,262.1 396.6,262.1 395.6,261.6 394.7,260.7 393.7,260.2 392.8,260.2 391.8,260.2 390.9,260.2 390.0,260.2 389.0,260.2 388.1,259.7 387.1,258.8 386.2,257.8 385.3,256.9 384.3,256.0 383.4,255.0 382.4,254.1 381.5,253.6 380.6,253.6 379.6,254.1 378.7,254.1 377.7,253.6 376.8,252.7 375.9,251.7 374.9,251.3 374.0,251.3 373.0,251.3 372.6,251.3 371.6,250.8 370.7,249.8 369.7,248.9 368.8,248.0 367.9,247.0 366.9,246.1 366.0,245.1 365.0,244.7 364.6,244.7 364.6,245.1 365.0,245.1 365.0,244.7 364.6,243.7 363.6,242.8 362.7,241.8 361.8,240.9 360.8,240.0 359.9,239.0 358.9,238.6 358.0,238.6 357.1,238.6 356.1,238.1 355.2,237.1 354.2,236.2 353.3,235.3 352.4,234.3 351.9,233.4 351.9,232.4 352.4,232.0 352.4,231.0 351.9,230.1 350.9,229.2 350.0,228.7 349.1,228.7 348.1,228.7 347.2,228.7 346.2,228.7 345.3,228.7 344.4,228.2 343.4,227.3 342.5,226.3 341.5,225.4 340.6,224.5 339.7,223.5 339.2,222.6 339.2,222.1 339.7,222.1 339.7,222.6 339.2,222.6 338.2,222.1 337.3,221.2 336.4,220.2 335.4,219.3 334.5,218.3 333.5,217.9 332.6,217.9 331.7,217.4 330.7,216.5 329.8,215.5 328.8,214.6 327.9,214.1 327.4,214.1 327.4,214.6 327.9,214.6 327.9,214.1 327.4,213.2 326.5,212.2 325.5,211.3 324.6,210.3 323.7,209.4 322.7,208.9 321.8,208.9 321.3,209.4 320.4,209.4 319.4,208.9 319.0,208.0 319.0,207.1 319.4,206.1 319.4,205.6 319.0,204.7 318.0,203.8 317.1,202.8 316.1,202.4 315.2,202.4 314.3,202.4 313.8,202.4 312.9,201.9 311.9,201.9 311.0,201.9 310.0,201.9 309.1,201.4 308.2,200.5 307.2,200.0 306.3,200.0 305.3,200.5 304.4,201.4 303.4,201.9 302.5,201.9 302.0,201.4 301.1,201.4 300.2,201.9 299.7,201.9 298.7,201.4 297.8,200.5 296.9,200.0 295.9,200.0 295.5,200.0 294.5,200.5 293.6,201.4 292.6,202.4 291.7,203.3 291.2,203.8 291.2,203.8 291.2,203.3 290.8,203.3 289.8,203.3 288.9,203.3 288.4,203.3 287.5,202.8 286.5,202.8 285.6,202.8 284.6,202.8 283.7,202.8 282.8,202.8 282.3,203.3 282.3,203.8 282.8,203.8 283.2,203.8 283.2,204.2 282.8,204.7 281.8,204.7 280.9,204.7 280.4,204.7 279.5,204.7 278.5,204.7 277.6,204.7 277.1,204.2 277.1,203.3 277.6,202.8 278.1,202.8 278.1,203.3 277.6,204.2 276.6,205.2 275.7,205.6 274.8,205.6 274.3,205.6 274.3,206.1 274.8,206.6 275.7,207.5 276.6,208.5 277.6,209.4 278.1,210.3 278.1,210.8 277.6,211.8 276.6,212.7 276.2,213.6 276.2,214.1 276.6,214.1 276.6,214.6 276.2,215.5 275.2,216.5 274.8,216.9 274.8,216.9 275.2,216.9 275.2,217.4 274.8,218.3 273.8,219.3 272.9,219.7 271.9,220.7 271.5,221.6 271.5,222.6 271.9,223.0 271.9,223.0 271.9,222.6 271.5,222.6 270.5,223.0 269.6,223.5 268.7,223.5 267.7,223.5 266.8,223.5 265.8,223.5 264.9,223.5 263.9,224.0 263.0,224.9 262.1,225.9 261.1,226.8 260.2,227.7 259.7,228.2 259.7,228.2 259.7,227.7 259.2,227.7 258.3,228.2 257.4,229.2 256.4,229.6 255.5,229.6 254.5,229.2 254.1,229.2 253.1,229.6 252.2,230.6 251.3,231.0 250.3,231.0 249.4,231.0 248.4,231.0 247.5,231.0 246.6,231.5 245.6,232.4 244.7,233.4 243.7,234.3 242.8,235.3 241.8,235.7 240.9,235.7 240.0,235.3 239.0,235.3 238.1,235.3 237.1,235.3 236.2,235.3 235.3,235.3 234.3,235.3 233.4,235.3 232.4,234.8 231.5,234.3 230.6,234.3 229.6,234.3 228.7,234.3 228.2,234.3 227.3,234.8 226.3,234.8 225.4,234.8 224.5,234.8 223.5,234.8 222.6,234.8 221.6,234.8 220.7,234.8 219.7,235.3 218.8,236.2 217.9,237.1 216.9,237.6 216.0,237.6 215.0,237.1 214.1,237.1 213.2,237.6 212.2,238.6 211.3,239.5 210.3,240.4 209.4,241.4 208.5,241.8 207.5,241.8 206.6,241.4 205.6,240.4 204.7,239.5 203.8,239.0 202.8,239.0 201.9,239.5 200.9,239.5" fill="none" stroke="red" stroke-width="7" stroke-opacity="0.5"/>
  <circle cx="200.0" cy="239.5" r="15" fill="blue" fill-opacity="0.5"/>
</svg>