<svg width="1000" height="1000" xmlns="http://www.w3.org/2000/svg">
  <rect x="200" y="200" width="600" height="600" fill="white" stroke="gray" stroke-width="5" />
  <circle cx="450.4" cy="283.5" r="7" fill="black" />
  <circle cx="425.2" cy="332.3" r="7" fill="black" />
  <circle cx="463.0" cy="266.1" r="7" fill="black" />
  <circle cx="447.2" cy="543.3" r="7" fill="black" />
  <circle cx="466.1" cy="259.8" r="7" fill="black" />
  <circle cx="428.3" cy="571.7" r="7" fill="black" />
  <circle cx="434.6" cy="308.7" r="7" fill="black" />
  <circle cx="256.7" cy="776.4" r="7" fill="black" />
  <circle cx="477.2" cy="231.5" r="7" fill="black" />
  <circle cx="440.9" cy="503.9" r="7" fill="black" />
  <circle cx="418.9" cy="409.4" r="7" fill="black" />
  <circle cx="274.0" cy="751.2" r="7" fill="black" />
  <circle cx="409.4" cy="587.4" r="7" fill="black" />
  <circle cx="319.7" cy="652.0" r="7" fill="black" />
  <circle cx="489.8" cy="215.7" r="7" fill="black" />
  <circle cx="333.9" cy="628.3" r="7" fill="black" />
  <circle cx="277.2" cy="741.7" r="7" fill="black" />
  <circle cx="485.0" cy="222.0" r="7" fill="black" />
  <circle cx="437.8" cy="497.6" r="7" fill="black" />
  <circle cx="420.5" cy="366.9" r="7" fill="black" />
  <circle cx="470.9" cy="204.7" r="7" fill="black" />
  <circle cx="422.0" cy="359.1" r="7" fill="black" />
  <circle cx="299.2" cy="700.8" r="7" fill="black" />
  <circle cx="447.2" cy="549.6" r="7" fill="black" />
  <circle cx="415.7" cy="584.3" r="7" fill="black" />
  <circle cx="433.1" cy="324.4" r="7" fill="black" />
  <circle cx="225.2" cy="779.5" r="7" fill="black" />
  <circle cx="426.8" cy="329.1" r="7" fill="black" />
  <circle cx="488.2" cy="212.6" r="7" fill="black" />
  <circle cx="209.4" cy="784.3" r="7" fill="black" />
  <circle cx="475.6" cy="206.3" r="7" fill="black" />
  <circle cx="285.0" cy="724.4" r="7" fill="black" />
  <circle cx="485.0" cy="209.4" r="7" fill="black" />
  <circle cx="433.1" cy="303.9" r="7" fill="black" />
  <circle cx="478.7" cy="228.3" r="7" fill="black" />
  <circle cx="242.5" cy="781.1" r="7" fill="black" />
  <circle cx="420.5" cy="385.8" r="7" fill="black" />
  <circle cx="420.5" cy="401.6" r="7" fill="black" />
  <circle cx="480.3" cy="206.3" r="7" fill="black" />
  <circle cx="423.6" cy="343.3" r="7" fill="black" />
  <circle cx="433.1" cy="294.5" r="7" fill="black" />
  <circle cx="359.1" cy="606.3" r="7" fill="black" />
  <circle cx="426.8" cy="469.3" r="7" fill="black" />
  <circle cx="420.5" cy="581.1" r="7" fill="black" />
  <circle cx="201.6" cy="792.1" r="7" fill="black" />
  <circle cx="433.1" cy="568.5" r="7" fill="black" />
  <circle cx="447.2" cy="526.0" r="7" fill="black" />
  <circle cx="200.0" cy="795.3" r="7" fill="black" />
  <circle cx="280.3" cy="733.9" r="7" fill="black" />
  <circle cx="220.5" cy="779.5" r="7" fill="black" />
  <circle cx="437.8" cy="563.8" r="7" fill="black" />
  <circle cx="204.7" cy="789.0" r="7" fill="black" />
  <circle cx="445.7" cy="518.1" r="7" fill="black" />
  <circle cx="384.3" cy="595.3" r="7" fill="black" />
  <circle cx="437.8" cy="286.6" r="7" fill="black" />
  <circle cx="458.3" cy="275.6" r="7" fill="black" />
  <circle cx="200.0" cy="798.4" r="7" fill="black" />
  <circle cx="425.2" cy="574.8" r="7" fill="black" />
  <circle cx="434.6" cy="289.8" r="7" fill="black" />
  <circle cx="433.1" cy="299.2" r="7" fill="black" />
  <circle cx="425.2" cy="456.7" r="7" fill="black" />
  <circle cx="444.1" cy="510.2" r="7" fill="black" />
  <circle cx="488.2" cy="218.9" r="7" fill="black" />
  <circle cx="436.2" cy="311.8" r="7" fill="black" />
  <circle cx="366.9" cy="601.6" r="7" fill="black" />
  <circle cx="481.9" cy="223.6" r="7" fill="black" />
  <circle cx="472.4" cy="242.5" r="7" fill="black" />
  <circle cx="434.6" cy="319.7" r="7" fill="black" />
  <circle cx="423.6" cy="578.0" r="7" fill="black" />
  <circle cx="455.1" cy="278.7" r="7" fill="black" />
  <circle cx="489.8" cy="214.2" r="7" fill="black" />
  <circle cx="217.3" cy="779.5" r="7" fill="black" />
  <circle cx="291.3" cy="713.4" r="7" fill="black" />
  <circle cx="483.5" cy="207.9" r="7" fill="black" />
  <circle cx="311.8" cy="674.0" r="7" fill="black" />
  <circle cx="475.6" cy="236.2" r="7" fill="black" />
  <circle cx="434.6" cy="489.8" r="7" fill="black" />
  <circle cx="376.4" cy="598.4" r="7" fill="black" />
  <circle cx="393.7" cy="592.1" r="7" fill="black" />
  <circle cx="447.2" cy="554.3" r="7" fill="black" />
  <circle cx="429.9" cy="327.6" r="7" fill="black" />
  <circle cx="401.6" cy="590.6" r="7" fill="black" />
  <circle cx="236.2" cy="781.1" r="7" fill="black" />
  <circle cx="344.9" cy="617.3" r="7" fill="black" />
  <circle cx="470.9" cy="248.8" r="7" fill="black" />
  <polyline points="464.6,200.0 466.1,201.6 469.3,204.7 470.9,206.3 470.9,206.3 470.9,204.7 472.4,204.7 475.6,206.3 478.7,206.3 480.3,206.3 483.5,207.9 485.0,209.4 488.2,212.6 489.8,214.2 489.8,215.7 488.2,218.9 485.0,222.0 481.9,223.6 478.7,226.8 477.2,228.3 477.2,228.3 478.7,228.3 478.7,229.9 477.2,231.5 475.6,234.6 475.6,236.2 474.0,239.4 472.4,242.5 470.9,245.7 470.9,248.8 469.3,252.0 466.1,255.1 464.6,258.3 464.6,259.8 466.1,259.8 466.1,261.4 464.6,264.6 463.0,266.1 459.8,269.3 458.3,272.4 458.3,275.6 456.7,278.7 455.1,280.3 455.1,280.3 455.1,278.7 453.5,278.7 450.4,280.3 448.8,283.5 448.8,285.0 450.4,285.0 450.4,283.5 448.8,283.5 445.7,285.0 442.5,286.6 439.4,286.6 437.8,286.6 434.6,288.2 433.1,289.8 433.1,289.8 434.6,289.8 434.6,291.3 433.1,294.5 433.1,297.6 433.1,299.2 433.1,302.4 433.1,303.9 434.6,307.1 434.6,308.7 436.2,311.8 436.2,315.0 434.6,318.1 434.6,319.7 433.1,322.8 433.1,324.4 431.5,327.6 429.9,329.1 429.9,329.1 429.9,327.6 428.3,327.6 426.8,329.1 425.2,332.3 423.6,335.4 423.6,338.6 423.6,341.7 423.6,343.3 422.0,346.5 422.0,349.6 422.0,352.8 422.0,355.9 422.0,359.1 420.5,362.2 420.5,365.4 420.5,366.9 420.5,370.1 420.5,373.2 420.5,376.4 420.5,379.5 420.5,382.7 420.5,385.8 420.5,389.0 420.5,392.1 420.5,395.3 420.5,398.4 420.5,401.6 418.9,404.7 418.9,407.9 418.9,409.4 420.5,412.6 423.6,415.7 425.2,418.9 425.2,422.0 425.2,425.2 425.2,428.3 425.2,431.5 425.2,434.6 425.2,437.8 425.2,440.9 425.2,444.1 425.2,447.2 425.2,450.4 425.2,453.5 425.2,456.7 426.8,459.8 426.8,463.0 426.8,466.1 426.8,469.3 428.3,472.4 431.5,475.6 434.6,478.7 436.2,481.9 436.2,485.0 434.6,488.2 434.6,489.8 436.2,492.9 437.8,496.1 437.8,497.6 439.4,500.8 440.9,503.9 444.1,507.1 445.7,510.2 445.7,511.8 444.1,511.8 444.1,510.2 445.7,510.2 445.7,511.8 445.7,515.0 445.7,518.1 447.2,521.3 447.2,524.4 447.2,526.0 447.2,529.1 447.2,532.3 447.2,535.4 447.2,538.6 447.2,541.7 447.2,543.3 447.2,546.5 447.2,549.6 447.2,552.8 447.2,554.3 445.7,557.5 442.5,560.6 439.4,563.8 437.8,565.4 437.8,565.4 437.8,563.8 436.2,563.8 433.1,565.4 431.5,568.5 431.5,570.1 433.1,570.1 433.1,568.5 431.5,568.5 428.3,570.1 426.8,571.7 426.8,571.7 428.3,571.7 428.3,573.2 426.8,574.8 425.2,574.8 423.6,576.4 423.6,578.0 422.0,581.1 420.5,582.7 420.5,582.7 420.5,581.1 418.9,581.1 415.7,582.7 414.2,584.3 414.2,584.3 415.7,584.3 415.7,585.8 414.2,587.4 411.0,587.4 409.4,587.4 406.3,589.0 403.1,590.6 401.6,590.6 398.4,592.1 395.3,592.1 393.7,592.1 390.6,593.7 387.4,595.3 384.3,595.3 381.1,596.9 378.0,598.4 376.4,598.4 373.2,600.0 370.1,601.6 366.9,601.6 363.8,603.1 360.6,606.3 359.1,607.9 359.1,607.9 359.1,606.3 357.5,606.3 354.3,607.9 351.2,611.0 348.0,614.2 344.9,617.3 341.7,620.5 338.6,623.6 335.4,626.8 333.9,628.3 330.7,631.5 327.6,634.6 324.4,637.8 321.3,640.9 319.7,644.1 319.7,647.2 319.7,650.4 319.7,652.0 318.1,655.1 315.0,658.3 311.8,661.4 310.2,664.6 310.2,667.7 311.8,670.9 311.8,674.0 310.2,677.2 307.1,680.3 303.9,683.5 300.8,686.6 299.2,689.8 299.2,692.9 299.2,696.1 299.2,699.2 299.2,700.8 297.6,703.9 294.5,707.1 291.3,710.2 289.8,713.4 289.8,715.0 291.3,715.0 291.3,713.4 289.8,713.4 286.6,715.0 285.0,718.1 285.0,721.3 285.0,724.4 283.5,727.6 280.3,730.7 278.7,733.9 278.7,735.4 280.3,735.4 280.3,733.9 278.7,733.9 277.2,735.4 277.2,738.6 277.2,741.7 275.6,744.9 274.0,748.0 274.0,751.2 272.4,754.3 269.3,757.5 266.1,760.6 263.0,763.8 259.8,766.9 256.7,770.1 255.1,773.2 255.1,776.4 256.7,778.0 256.7,778.0 256.7,776.4 255.1,776.4 252.0,778.0 248.8,781.1 245.7,782.7 242.5,782.7 240.9,781.1 240.9,781.1 242.5,781.1 242.5,781.1 240.9,781.1 237.8,781.1 236.2,781.1 233.1,779.5 229.9,779.5 226.8,779.5 225.2,779.5 222.0,779.5 220.5,779.5 217.3,779.5 214.2,781.1 211.0,784.3 209.4,785.8 209.4,785.8 209.4,784.3 207.9,784.3 204.7,785.8 203.1,789.0 203.1,790.6 204.7,790.6 204.7,789.0 203.1,789.0 201.6,790.6 201.6,792.1 200.0,795.3" fill="none" stroke="red" stroke-width="7" stroke-opacity="0.5"/>
  <circle cx="200.0" cy="798.4" r="15" fill="blue" fill-opacity="0.5"/>
</svg>