<svg width="291" height="471" xmlns="http://www.w3.org/2000/svg">
  <circle cx="98" cy="298" r="9.42" fill="black" />
  <circle cx="98" cy="298" r="9.42" fill="black" />
  <circle cx="97" cy="299" r="9.42" fill="black" />
  <circle cx="97" cy="301" r="9.42" fill="black" />
  <circle cx="98" cy="304" r="9.42" fill="black" />
  <circle cx="99" cy="307" r="9.42" fill="black" />
  <circle cx="101" cy="309" r="9.42" fill="black" />
  <circle cx="103" cy="310" r="9.42" fill="black" />
  <circle cx="105" cy="311" r="9.42" fill="black" />
  <circle cx="106" cy="311" r="9.42" fill="black" />
  <circle cx="106" cy="310" r="9.42" fill="black" />
  <circle cx="107" cy="310" r="9.42" fill="black" />
  <circle cx="108" cy="311" r="9.42" fill="black" />
  <circle cx="109" cy="312" r="9.42" fill="black" />
  <circle cx="110" cy="312" r="9.42" fill="black" />
  <circle cx="112" cy="313" r="9.42" fill="black" />
  <circle cx="115" cy="313" r="9.42" fill="black" />
  <circle cx="118" cy="312" r="9.42" fill="black" />
  <circle cx="120" cy="312" r="9.42" fill="black" />
  <circle cx="121" cy="311" r="9.42" fill="black" />
  <circle cx="123" cy="309" r="9.42" fill="black" />
  <circle cx="125" cy="307" r="9.42" fill="black" />
  <circle cx="127" cy="305" r="9.42" fill="black" />
  <circle cx="130" cy="303" r="9.42" fill="black" />
  <circle cx="133" cy="301" r="9.42" fill="black" />
  <circle cx="135" cy="299" r="9.42" fill="black" />
  <circle cx="138" cy="296" r="9.42" fill="black" />
  <circle cx="142" cy="293" r="9.42" fill="black" />
  <circle cx="147" cy="289" r="9.42" fill="black" />
  <circle cx="151" cy="286" r="9.42" fill="black" />
  <circle cx="156" cy="283" r="9.42" fill="black" />
  <circle cx="161" cy="279" r="9.42" fill="black" />
  <circle cx="166" cy="275" r="9.42" fill="black" />
  <circle cx="170" cy="271" r="9.42" fill="black" />
  <circle cx="175" cy="268" r="9.42" fill="black" />
  <circle cx="179" cy="264" r="9.42" fill="black" />
  <circle cx="183" cy="260" r="9.42" fill="black" />
  <circle cx="186" cy="255" r="9.42" fill="black" />
  <circle cx="188" cy="249" r="9.42" fill="black" />
  <circle cx="190" cy="242" r="9.42" fill="black" />
  <circle cx="192" cy="236" r="9.42" fill="black" />
  <circle cx="193" cy="229" r="9.42" fill="black" />
  <circle cx="193" cy="221" r="9.42" fill="black" />
  <circle cx="192" cy="213" r="9.42" fill="black" />
  <circle cx="191" cy="204" r="9.42" fill="black" />
  <circle cx="190" cy="195" r="9.42" fill="black" />
  <circle cx="190" cy="185" r="9.42" fill="black" />
  <circle cx="190" cy="175" r="9.42" fill="black" />
  <circle cx="191" cy="166" r="9.42" fill="black" />
  <circle cx="192" cy="157" r="9.42" fill="black" />
  <polyline points="98,297 98,298 97,299 97,301 98,304 99,307 101,309 103,310 104,311 105,311 106,311 106,310 107,310 108,311 109,312 110,312 111,313 112,313 114,313 115,313 117,312 118,312 120,312 121,311 123,309 125,307 127,305 130,303 133,301 135,299 138,296 142,293 147,289 151,286 156,283 161,279 166,275 170,271 175,268 179,264 183,260 186,255 188,249 190,242 192,236 193,229 193,221 192,213 191,204 190,195 190,185 190,175 191,166" fill="none" stroke="red" stroke-width="4.71" />
  <circle cx="192" cy="157" r="9.42" fill="blue" />
</svg>