<svg width="1000" height="1000" xmlns="http://www.w3.org/2000/svg">
  <rect x="200" y="200" width="600" height="600" fill="none" stroke="gray" stroke-width="5" />
  <circle cx="218.6" cy="203.4" r="3" fill="black" />
  <circle cx="215.2" cy="206.8" r="3" fill="black" />
  <circle cx="211.8" cy="208.5" r="3" fill="black" />
  <circle cx="210.1" cy="210.1" r="3" fill="black" />
  <circle cx="208.5" cy="210.1" r="3" fill="black" />
  <circle cx="206.8" cy="211.8" r="3" fill="black" />
  <circle cx="206.8" cy="211.8" r="3" fill="black" />
  <circle cx="205.1" cy="213.5" r="3" fill="black" />
  <circle cx="201.7" cy="215.2" r="3" fill="black" />
  <circle cx="200.0" cy="218.6" r="3" fill="black" />
  <circle cx="200.0" cy="223.7" r="3" fill="black" />
  <circle cx="200.0" cy="228.7" r="3" fill="black" />
  <circle cx="201.7" cy="232.1" r="3" fill="black" />
  <circle cx="203.4" cy="237.2" r="3" fill="black" />
  <circle cx="203.4" cy="242.3" r="3" fill="black" />
  <circle cx="205.1" cy="247.3" r="3" fill="black" />
  <circle cx="206.8" cy="250.7" r="3" fill="black" />
  <circle cx="206.8" cy="255.8" r="3" fill="black" />
  <circle cx="208.5" cy="262.5" r="3" fill="black" />
  <circle cx="211.8" cy="269.3" r="3" fill="black" />
  <circle cx="215.2" cy="277.7" r="3" fill="black" />
  <circle cx="218.6" cy="284.5" r="3" fill="black" />
  <circle cx="223.7" cy="291.3" r="3" fill="black" />
  <circle cx="228.7" cy="296.3" r="3" fill="black" />
  <circle cx="235.5" cy="299.7" r="3" fill="black" />
  <circle cx="240.6" cy="304.8" r="3" fill="black" />
  <circle cx="243.9" cy="308.2" r="3" fill="black" />
  <circle cx="245.6" cy="311.5" r="3" fill="black" />
  <circle cx="247.3" cy="313.2" r="3" fill="black" />
  <circle cx="250.7" cy="313.2" r="3" fill="black" />
  <circle cx="254.1" cy="314.9" r="3" fill="black" />
  <circle cx="255.8" cy="314.9" r="3" fill="black" />
  <circle cx="257.5" cy="313.2" r="3" fill="black" />
  <circle cx="260.8" cy="313.2" r="3" fill="black" />
  <circle cx="262.5" cy="311.5" r="3" fill="black" />
  <circle cx="265.9" cy="308.2" r="3" fill="black" />
  <circle cx="271.0" cy="306.5" r="3" fill="black" />
  <circle cx="277.7" cy="306.5" r="3" fill="black" />
  <circle cx="286.2" cy="308.2" r="3" fill="black" />
  <circle cx="293.0" cy="308.2" r="3" fill="black" />
  <circle cx="298.0" cy="308.2" r="3" fill="black" />
  <circle cx="304.8" cy="308.2" r="3" fill="black" />
  <circle cx="313.2" cy="306.5" r="3" fill="black" />
  <circle cx="323.4" cy="306.5" r="3" fill="black" />
  <circle cx="331.8" cy="306.5" r="3" fill="black" />
  <circle cx="342.0" cy="304.8" r="3" fill="black" />
  <circle cx="352.1" cy="304.8" r="3" fill="black" />
  <circle cx="363.9" cy="304.8" r="3" fill="black" />
  <circle cx="374.1" cy="304.8" r="3" fill="black" />
  <circle cx="384.2" cy="303.1" r="3" fill="black" />
  <circle cx="396.1" cy="301.4" r="3" fill="black" />
  <circle cx="406.2" cy="301.4" r="3" fill="black" />
  <circle cx="414.6" cy="299.7" r="3" fill="black" />
  <circle cx="423.1" cy="299.7" r="3" fill="black" />
  <circle cx="431.5" cy="299.7" r="3" fill="black" />
  <circle cx="441.7" cy="301.4" r="3" fill="black" />
  <circle cx="451.8" cy="301.4" r="3" fill="black" />
  <circle cx="460.3" cy="299.7" r="3" fill="black" />
  <circle cx="467.0" cy="299.7" r="3" fill="black" />
  <circle cx="473.8" cy="299.7" r="3" fill="black" />
  <circle cx="480.6" cy="298.0" r="3" fill="black" />
  <circle cx="489.0" cy="298.0" r="3" fill="black" />
  <circle cx="495.8" cy="296.3" r="3" fill="black" />
  <circle cx="500.8" cy="293.0" r="3" fill="black" />
  <circle cx="504.2" cy="291.3" r="3" fill="black" />
  <circle cx="509.3" cy="289.6" r="3" fill="black" />
  <circle cx="514.4" cy="286.2" r="3" fill="black" />
  <circle cx="517.7" cy="281.1" r="3" fill="black" />
  <circle cx="521.1" cy="276.1" r="3" fill="black" />
  <circle cx="524.5" cy="272.7" r="3" fill="black" />
  <circle cx="529.6" cy="271.0" r="3" fill="black" />
  <circle cx="531.3" cy="272.7" r="3" fill="black" />
  <circle cx="531.3" cy="274.4" r="3" fill="black" />
  <circle cx="531.3" cy="274.4" r="3" fill="black" />
  <circle cx="531.3" cy="274.4" r="3" fill="black" />
  <circle cx="531.3" cy="276.1" r="3" fill="black" />
  <circle cx="529.6" cy="279.4" r="3" fill="black" />
  <circle cx="526.2" cy="281.1" r="3" fill="black" />
  <circle cx="522.8" cy="284.5" r="3" fill="black" />
  <circle cx="521.1" cy="286.2" r="3" fill="black" />
  <circle cx="519.4" cy="286.2" r="3" fill="black" />
  <circle cx="519.4" cy="287.9" r="3" fill="black" />
  <circle cx="517.7" cy="289.6" r="3" fill="black" />
  <circle cx="514.4" cy="289.6" r="3" fill="black" />
  <circle cx="512.7" cy="291.3" r="3" fill="black" />
  <circle cx="511.0" cy="293.0" r="3" fill="black" />
  <circle cx="511.0" cy="296.3" r="3" fill="black" />
  <circle cx="512.7" cy="299.7" r="3" fill="black" />
  <circle cx="516.1" cy="303.1" r="3" fill="black" />
  <circle cx="517.7" cy="306.5" r="3" fill="black" />
  <circle cx="521.1" cy="308.2" r="3" fill="black" />
  <circle cx="526.2" cy="308.2" r="3" fill="black" />
  <circle cx="531.3" cy="309.9" r="3" fill="black" />
  <circle cx="534.6" cy="311.5" r="3" fill="black" />
  <circle cx="539.7" cy="314.9" r="3" fill="black" />
  <circle cx="544.8" cy="318.3" r="3" fill="black" />
  <circle cx="551.5" cy="321.7" r="3" fill="black" />
  <circle cx="563.4" cy="326.8" r="3" fill="black" />
  <circle cx="570.1" cy="330.1" r="3" fill="black" />
  <circle cx="575.2" cy="335.2" r="3" fill="black" />
  <circle cx="578.6" cy="342.0" r="3" fill="black" />
  <circle cx="580.3" cy="348.7" r="3" fill="black" />
  <circle cx="582.0" cy="357.2" r="3" fill="black" />
  <circle cx="585.4" cy="363.9" r="3" fill="black" />
  <circle cx="588.7" cy="372.4" r="3" fill="black" />
  <circle cx="590.4" cy="382.5" r="3" fill="black" />
  <circle cx="590.4" cy="392.7" r="3" fill="black" />
  <circle cx="590.4" cy="402.8" r="3" fill="black" />
  <circle cx="588.7" cy="413.0" r="3" fill="black" />
  <circle cx="588.7" cy="423.1" r="3" fill="black" />
  <circle cx="590.4" cy="434.9" r="3" fill="black" />
  <circle cx="593.8" cy="445.1" r="3" fill="black" />
  <circle cx="595.5" cy="453.5" r="3" fill="black" />
  <circle cx="597.2" cy="462.0" r="3" fill="black" />
  <circle cx="597.2" cy="472.1" r="3" fill="black" />
  <circle cx="595.5" cy="480.6" r="3" fill="black" />
  <polyline points="223.7,200.0 222.0,201.7 218.6,203.4 215.2,206.8 211.8,208.5 210.1,210.1 208.5,210.1 206.8,211.8 205.1,213.5 201.7,215.2 200.0,218.6 200.0,223.7 200.0,228.7 201.7,232.1 203.4,237.2 203.4,242.3 205.1,247.3 206.8,250.7 206.8,255.8 208.5,262.5 211.8,269.3 215.2,277.7 218.6,284.5 223.7,291.3 228.7,296.3 235.5,299.7 240.6,304.8 243.9,308.2 245.6,311.5 247.3,313.2 250.7,313.2 254.1,314.9 255.8,314.9 257.5,313.2 260.8,313.2 262.5,311.5 265.9,308.2 271.0,306.5 277.7,306.5 286.2,308.2 293.0,308.2 298.0,308.2 304.8,308.2 313.2,306.5 323.4,306.5 331.8,306.5 342.0,304.8 352.1,304.8 363.9,304.8 374.1,304.8 385.9,306.5 399.4,309.9 414.6,314.9 431.5,321.7 450.1,330.1 470.4,340.3 492.4,352.1 516.1,365.6 541.4,380.8 568.5,397.7 595.5,416.3 620.8,436.6 644.5,458.6 666.5,480.6 686.8,500.8 705.4,519.4 722.3,536.3 737.5,551.5 751.0,565.1 762.8,576.9 773.0,587.0 781.4,595.5 788.2,602.3 793.2,607.3 796.6,610.7 798.3,612.4 798.3,612.4 796.6,610.7 793.2,607.3 788.2,602.3 781.4,595.5 773.0,587.0 762.8,576.9 751.0,565.1 737.5,551.5 722.3,536.3 705.4,519.4 686.8,500.8 666.5,480.6 644.5,462.0 620.8,445.1 595.5,429.9 571.8,416.3 549.9,404.5 529.6,394.4 511.0,385.9 494.1,379.2 478.9,374.1 465.4,370.7 453.5,369.0 443.4,369.0 434.9,370.7 428.2,374.1 423.1,379.2 419.7,385.9 418.0,394.4 418.0,404.5 419.7,416.3 423.1,429.9 428.2,445.1 434.9,462.0 443.4,480.6 453.5,497.5 465.4,512.7 478.9,526.2 494.1,538.0 511.0,548.2 529.6,556.6 549.9,563.4 571.8,568.5 595.5,571.8 617.5,573.5 637.7,573.5 656.3,571.8 673.2,568.5 688.5,563.4 702.0,556.6 713.8,548.2 723.9,538.0 732.4,526.2 739.2,512.7 744.2,497.5 747.6,480.6 749.3,465.4 749.3,451.8 747.6,440.0 744.2,429.9 739.2,421.4 732.4,414.6 723.9,409.6 713.8,406.2 702.0,404.5 688.5,404.5 673.2,406.2 656.3,409.6 637.7,414.6 617.5,421.4 595.5,429.9 575.2,440.0 556.6,451.8 539.7,465.4 524.5,480.6 511.0,494.1 499.2,505.9 489.0,516.1 480.6,524.5 473.8,531.3 468.7,536.3 465.4,539.7 463.7,541.4 463.7,541.4 465.4,539.7 468.7,536.3 473.8,531.3 480.6,524.5 489.0,516.1 499.2,505.9 511.0,494.1 524.5,480.6 539.7,468.7 556.6,458.6 575.2,450.1 595.5,443.4 614.1,438.3 631.0,434.9 646.2,433.2 659.7,433.2 671.5,434.9 681.7,438.3 690.1,443.4 696.9,450.1 702.0,458.6 705.4,468.7 707.0,480.6 707.0,490.7 705.4,499.2 702.0,505.9 696.9,511.0 690.1,514.4 681.7,516.1 671.5,516.1 659.7,514.4 646.2,511.0 631.0,505.9 614.1,499.2 595.5,490.7 578.6,480.6 563.4,472.1 549.9,465.4 538.0,460.3 527.9,456.9 519.4,455.2 512.7,455.2 507.6,456.9 504.2,460.3 502.5,465.4 502.5,472.1 504.2,480.6 507.6,487.3 512.7,492.4 519.4,495.8 527.9,497.5 538.0,497.5 549.9,495.8 563.4,492.4 578.6,487.3 595.5,480.6 610.7,472.1 624.2,465.4 636.1,460.3 646.2,456.9 654.6,455.2 661.4,455.2 666.5,456.9 669.9,460.3 671.5,465.4 671.5,472.1 669.9,477.2 666.5,480.6 661.4,482.3 654.6,482.3 646.2,480.6 636.1,477.2 624.2,472.1 610.7,468.7 597.2,467.0 585.4,467.0 575.2,468.7 566.8,472.1 560.0,473.8 554.9,473.8 551.5,472.1 549.9,472.1 549.9,472.1 551.5,472.1 554.9,472.1 560.0,472.1 566.8,472.1 575.2,472.1 585.4,472.1 597.2,472.1 607.3,470.4 615.8,467.0 622.5,462.0 627.6,458.6 631.0,456.9 632.7,456.9 632.7,458.6 631.0,462.0 627.6,463.7 622.5,463.7 615.8,462.0 607.3,462.0 597.2,462.0 588.7,460.3 582.0,456.9 576.9,453.5 573.5,451.8 571.8,451.8 571.8,453.5 573.5,453.5 576.9,453.5 582.0,453.5 588.7,453.5 595.5,453.5 600.6,451.8 603.9,448.5 605.6,445.1 605.6,443.4 603.9,443.4 600.6,445.1 595.5,445.1 592.1,445.1 590.4,445.1 590.4,445.1 592.1,445.1 593.8,445.1 593.8,443.4 592.1,440.0 590.4,434.9 588.7,428.2 588.7,423.1 588.7,416.3 588.7,411.3 588.7,407.9 588.7,406.2 588.7,406.2 588.7,407.9 588.7,411.3 588.7,413.0 590.4,413.0 590.4,411.3 590.4,407.9 590.4,402.8 590.4,396.1 590.4,391.0 590.4,387.6 590.4,385.9 590.4,385.9 590.4,387.6 590.4,391.0 590.4,392.7 590.4,392.7 590.4,391.0 590.4,387.6 590.4,382.5 588.7,375.8 588.7,370.7 588.7,367.3 588.7,365.6 588.7,365.6 588.7,367.3 588.7,370.7 588.7,372.4 587.0,372.4 585.4,370.7 585.4,367.3 585.4,363.9 583.7,358.9 582.0,355.5 582.0,353.8 582.0,353.8 582.0,355.5 582.0,357.2 580.3,357.2 580.3,355.5 580.3,352.1 580.3,348.7 578.6,343.7 578.6,340.3 578.6,338.6 578.6,338.6 578.6,340.3 578.6,342.0 576.9,342.0 575.2,340.3 575.2,336.9 575.2,335.2 573.5,331.8 570.1,330.1 565.1,326.8 561.7,325.1 560.0,325.1 560.0,326.8 561.7,326.8 563.4,326.8 563.4,325.1 561.7,321.7 558.3,320.0 553.2,320.0 549.9,321.7 548.2,321.7 548.2,321.7 549.9,321.7 551.5,321.7 551.5,320.0 549.9,318.3 546.5,318.3 544.8,318.3 541.4,316.6 539.7,314.9 536.3,311.5 534.6,309.9 534.6,309.9 534.6,311.5 533.0,311.5 531.3,309.9 527.9,308.2 526.2,308.2 522.8,308.2 521.1,308.2 517.7,306.5 516.1,303.1 512.7,299.7 511.0,296.3 511.0,293.0 512.7,291.3 514.4,289.6 517.7,289.6 519.4,287.9 519.4,286.2 521.1,286.2 522.8,284.5 526.2,281.1 529.6,279.4 531.3,276.1 531.3,274.4 531.3,272.7 529.6,271.0 526.2,271.0 524.5,272.7 521.1,276.1 517.7,281.1 514.4,286.2 509.3,289.6 504.2,291.3 500.8,293.0 495.8,296.3 489.0,298.0 480.6,298.0 473.8,299.7 467.0,299.7 460.3,299.7 451.8,301.4 441.7,301.4 431.5,299.7 423.1,299.7 414.6,299.7 406.2,301.4 396.1,301.4" fill="none" stroke="red" stroke-width="3" stroke-opacity="0.5"/>
  <circle cx="384.2" cy="303.1" r="50" fill="blue" fill-opacity="0.5"/>
</svg>