<svg width="1000" height="1000" xmlns="http://www.w3.org/2000/svg">
  <rect x="200" y="200" width="600" height="600" fill="white" stroke="gray" stroke-width="5" />
  <circle cx="462.5" cy="587.5" r="7" fill="black" />
  <circle cx="351.8" cy="489.3" r="7" fill="black" />
  <circle cx="489.3" cy="596.4" r="7" fill="black" />
  <circle cx="596.4" cy="758.9" r="7" fill="black" />
  <circle cx="412.5" cy="564.3" r="7" fill="black" />
  <circle cx="546.4" cy="671.4" r="7" fill="black" />
  <circle cx="601.8" cy="798.2" r="7" fill="black" />
  <circle cx="255.4" cy="241.1" r="7" fill="black" />
  <circle cx="346.4" cy="353.6" r="7" fill="black" />
  <circle cx="412.5" cy="448.2" r="7" fill="black" />
  <circle cx="592.9" cy="758.9" r="7" fill="black" />
  <circle cx="607.1" cy="792.9" r="7" fill="black" />
  <circle cx="603.6" cy="728.6" r="7" fill="black" />
  <circle cx="603.6" cy="798.2" r="7" fill="black" />
  <circle cx="328.6" cy="328.6" r="7" fill="black" />
  <circle cx="560.7" cy="612.5" r="7" fill="black" />
  <circle cx="533.9" cy="655.4" r="7" fill="black" />
  <circle cx="560.7" cy="730.4" r="7" fill="black" />
  <circle cx="392.9" cy="423.2" r="7" fill="black" />
  <circle cx="610.7" cy="737.5" r="7" fill="black" />
  <circle cx="589.3" cy="775.0" r="7" fill="black" />
  <circle cx="541.1" cy="605.4" r="7" fill="black" />
  <circle cx="583.9" cy="769.6" r="7" fill="black" />
  <circle cx="426.8" cy="466.1" r="7" fill="black" />
  <circle cx="200.0" cy="201.8" r="7" fill="black" />
  <circle cx="312.5" cy="305.4" r="7" fill="black" />
  <circle cx="521.4" cy="608.9" r="7" fill="black" />
  <circle cx="521.4" cy="637.5" r="7" fill="black" />
  <circle cx="517.9" cy="614.3" r="7" fill="black" />
  <circle cx="585.7" cy="771.4" r="7" fill="black" />
  <circle cx="592.9" cy="798.2" r="7" fill="black" />
  <circle cx="362.5" cy="378.6" r="7" fill="black" />
  <circle cx="596.4" cy="698.2" r="7" fill="black" />
  <circle cx="592.9" cy="660.7" r="7" fill="black" />
  <circle cx="592.9" cy="675.0" r="7" fill="black" />
  <circle cx="550.0" cy="685.7" r="7" fill="black" />
  <circle cx="442.9" cy="494.6" r="7" fill="black" />
  <circle cx="423.2" cy="573.2" r="7" fill="black" />
  <circle cx="292.9" cy="280.4" r="7" fill="black" />
  <circle cx="532.1" cy="607.1" r="7" fill="black" />
  <circle cx="216.1" cy="207.1" r="7" fill="black" />
  <circle cx="473.2" cy="553.6" r="7" fill="black" />
  <circle cx="535.7" cy="603.6" r="7" fill="black" />
  <circle cx="567.9" cy="741.1" r="7" fill="black" />
  <circle cx="614.3" cy="758.9" r="7" fill="black" />
  <circle cx="444.6" cy="587.5" r="7" fill="black" />
  <circle cx="614.3" cy="775.0" r="7" fill="black" />
  <circle cx="241.1" cy="223.2" r="7" fill="black" />
  <circle cx="594.6" cy="764.3" r="7" fill="black" />
  <circle cx="576.8" cy="623.2" r="7" fill="black" />
  <circle cx="392.9" cy="550.0" r="7" fill="black" />
  <circle cx="594.6" cy="687.5" r="7" fill="black" />
  <circle cx="594.6" cy="762.5" r="7" fill="black" />
  <circle cx="505.4" cy="614.3" r="7" fill="black" />
  <circle cx="383.9" cy="544.6" r="7" fill="black" />
  <circle cx="451.8" cy="517.9" r="7" fill="black" />
  <circle cx="600.0" cy="708.9" r="7" fill="black" />
  <circle cx="269.6" cy="258.9" r="7" fill="black" />
  <circle cx="510.7" cy="612.5" r="7" fill="black" />
  <circle cx="610.7" cy="783.9" r="7" fill="black" />
  <circle cx="500.0" cy="601.8" r="7" fill="black" />
  <circle cx="491.1" cy="600.0" r="7" fill="black" />
  <circle cx="494.6" cy="594.6" r="7" fill="black" />
  <circle cx="355.4" cy="498.2" r="7" fill="black" />
  <circle cx="553.6" cy="608.9" r="7" fill="black" />
  <circle cx="492.9" cy="603.6" r="7" fill="black" />
  <circle cx="555.4" cy="701.8" r="7" fill="black" />
  <circle cx="375.0" cy="530.4" r="7" fill="black" />
  <circle cx="362.5" cy="507.1" r="7" fill="black" />
  <circle cx="482.1" cy="578.6" r="7" fill="black" />
  <circle cx="582.1" cy="635.7" r="7" fill="black" />
  <circle cx="373.2" cy="517.9" r="7" fill="black" />
  <circle cx="594.6" cy="780.4" r="7" fill="black" />
  <circle cx="517.9" cy="616.1" r="7" fill="black" />
  <circle cx="455.4" cy="589.3" r="7" fill="black" />
  <circle cx="601.8" cy="721.4" r="7" fill="black" />
  <circle cx="580.4" cy="758.9" r="7" fill="black" />
  <circle cx="462.5" cy="537.5" r="7" fill="black" />
  <circle cx="592.9" cy="769.6" r="7" fill="black" />
  <circle cx="608.9" cy="748.2" r="7" fill="black" />
  <circle cx="480.4" cy="594.6" r="7" fill="black" />
  <circle cx="591.1" cy="767.9" r="7" fill="black" />
  <circle cx="592.9" cy="758.9" r="7" fill="black" />
  <circle cx="566.1" cy="617.9" r="7" fill="black" />
  <circle cx="587.5" cy="648.2" r="7" fill="black" />
  <circle cx="232.1" cy="214.3" r="7" fill="black" />
  <circle cx="592.9" cy="785.7" r="7" fill="black" />
  <circle cx="594.6" cy="760.7" r="7" fill="black" />
  <circle cx="576.8" cy="755.4" r="7" fill="black" />
  <circle cx="403.6" cy="555.4" r="7" fill="black" />
  <circle cx="505.4" cy="605.4" r="7" fill="black" />
  <circle cx="378.6" cy="403.6" r="7" fill="black" />
  <circle cx="430.4" cy="585.7" r="7" fill="black" />
  <circle cx="587.5" cy="764.3" r="7" fill="black" />
  <circle cx="475.0" cy="589.3" r="7" fill="black" />
  <circle cx="555.4" cy="717.9" r="7" fill="black" />
  <circle cx="573.2" cy="748.2" r="7" fill="black" />
  <circle cx="589.3" cy="792.9" r="7" fill="black" />
  <circle cx="582.1" cy="766.1" r="7" fill="black" />
  <circle cx="380.4" cy="541.1" r="7" fill="black" />
  <polyline points="350.0,485.7 351.8,487.5 351.8,489.3 353.6,492.9 355.4,496.4 355.4,498.2 357.1,501.8 360.7,505.4 362.5,507.1 366.1,510.7 369.6,514.3 373.2,517.9 375.0,521.4 375.0,525.0 375.0,528.6 375.0,530.4 376.8,533.9 380.4,537.5 382.1,541.1 382.1,542.9 380.4,542.9 380.4,541.1 382.1,541.1 383.9,542.9 383.9,544.6 385.7,548.2 389.3,550.0 392.9,550.0 396.4,551.8 400.0,555.4 403.6,557.1 405.4,557.1 405.4,555.4 403.6,555.4 403.6,557.1 405.4,560.7 408.9,564.3 412.5,566.1 414.3,566.1 414.3,564.3 412.5,564.3 412.5,566.1 414.3,569.6 417.9,573.2 421.4,575.0 423.2,575.0 423.2,573.2 425.0,573.2 428.6,575.0 430.4,578.6 430.4,582.1 430.4,585.7 432.1,587.5 435.7,587.5 439.3,587.5 442.9,587.5 444.6,587.5 448.2,589.3 451.8,589.3 455.4,589.3 458.9,587.5 462.5,587.5 466.1,589.3 469.6,589.3 473.2,589.3 475.0,589.3 478.6,591.1 480.4,594.6 483.9,596.4 487.5,596.4 489.3,596.4 491.1,598.2 491.1,600.0 492.9,603.6 496.4,605.4 500.0,605.4 501.8,603.6 501.8,601.8 500.0,601.8 500.0,603.6 501.8,605.4 505.4,605.4 508.9,607.1 510.7,610.7 510.7,612.5 508.9,614.3 505.4,614.3 503.6,614.3 503.6,614.3 505.4,614.3 508.9,614.3 512.5,614.3 516.1,614.3 517.9,614.3 517.9,616.1 519.6,616.1 521.4,614.3 521.4,610.7 521.4,608.9 523.2,607.1 526.8,607.1 530.4,607.1 532.1,607.1 535.7,605.4 537.5,603.6 537.5,603.6 535.7,603.6 535.7,605.4 537.5,605.4 541.1,605.4 544.6,607.1 548.2,608.9 551.8,608.9 553.6,608.9 557.1,610.7 560.7,612.5 564.3,616.1 566.1,617.9 569.6,621.4 573.2,623.2 576.8,623.2 580.4,625.0 582.1,628.6 582.1,632.1 582.1,635.7 583.9,639.3 587.5,642.9 589.3,646.4 589.3,648.2 587.5,648.2 587.5,650.0 589.3,653.6 592.9,657.1 594.6,660.7 594.6,662.5 592.9,662.5 592.9,660.7 592.9,660.7 592.9,662.5 592.9,666.1 592.9,669.6 592.9,673.2 592.9,675.0 594.6,678.6 594.6,682.1 594.6,685.7 594.6,687.5 596.4,691.1 596.4,694.6 596.4,698.2 598.2,701.8 600.0,705.4 600.0,708.9 601.8,712.5 601.8,716.1 601.8,719.6 601.8,721.4 603.6,725.0 603.6,728.6 605.4,732.1 608.9,735.7 610.7,737.5 610.7,741.1 608.9,744.6 608.9,748.2 610.7,751.8 614.3,755.4 616.1,758.9 616.1,760.7 614.3,760.7 614.3,758.9 614.3,758.9 614.3,760.7 614.3,764.3 614.3,767.9 614.3,771.4 614.3,775.0 612.5,778.6 610.7,782.1 610.7,783.9 608.9,787.5 607.1,791.1 607.1,792.9 605.4,796.4 603.6,798.2 601.8,798.2 598.2,798.2 594.6,798.2 592.9,798.2 589.3,796.4 587.5,792.9 587.5,791.1 589.3,791.1 589.3,792.9 591.1,792.9 592.9,791.1 592.9,787.5 592.9,785.7 594.6,782.1 594.6,780.4 592.9,776.8 589.3,775.0 585.7,771.4 582.1,767.9 580.4,766.1 580.4,766.1 582.1,766.1 583.9,767.9 583.9,769.6 585.7,769.6 589.3,767.9 591.1,767.9 592.9,769.6 594.6,769.6 594.6,767.9 594.6,764.3 594.6,760.7 592.9,758.9 592.9,758.9 594.6,758.9 596.4,758.9 596.4,760.7 594.6,762.5 591.1,764.3 587.5,764.3 583.9,762.5 580.4,758.9 576.8,755.4 573.2,751.8 571.4,748.2 571.4,746.4 573.2,746.4 573.2,748.2 571.4,748.2 567.9,746.4 566.1,742.9 566.1,741.1 567.9,741.1 567.9,739.3 566.1,735.7 562.5,732.1 560.7,730.4 557.1,726.8 555.4,723.2 555.4,719.6 555.4,717.9 555.4,714.3 555.4,710.7 555.4,707.1 555.4,703.6 555.4,701.8 553.6,698.2 550.0,694.6 548.2,691.1 548.2,687.5 550.0,685.7 550.0,682.1 548.2,678.6 546.4,675.0 546.4,671.4 544.6,667.9 541.1,664.3 537.5,660.7 533.9,657.1 532.1,655.4 532.1,655.4 533.9,655.4 533.9,653.6 532.1,650.0 528.6,646.4 525.0,642.9 521.4,639.3 519.6,637.5 519.6,637.5 521.4,637.5 521.4,635.7 519.6,632.1 516.1,628.6 512.5,625.0 508.9,621.4 505.4,617.9 501.8,614.3 498.2,610.7 494.6,607.1 492.9,603.6 492.9,600.0 494.6,596.4 494.6,594.6 492.9,591.1 489.3,587.5 485.7,583.9 482.1,580.4 480.4,578.6 480.4,578.6 482.1,578.6 482.1,576.8 480.4,573.2 476.8,569.6 473.2,566.1 471.4,562.5 471.4,558.9 473.2,555.4 473.2,553.6 471.4,550.0 467.9,546.4 464.3,542.9 462.5,539.3 462.5,537.5 460.7,533.9 457.1,530.4 453.6,526.8 451.8,523.2 451.8,519.6 451.8,517.9 450.0,514.3 446.4,510.7 442.9,507.1 441.1,503.6 441.1,500.0 442.9,496.4 442.9,494.6 441.1,491.1 437.5,487.5 433.9,483.9 430.4,480.4 426.8,476.8 425.0,473.2 425.0,469.6 426.8,466.1 426.8,462.5 425.0,458.9 421.4,455.4 417.9,451.8 414.3,448.2 412.5,446.4 412.5,446.4 412.5,448.2 410.7,448.2 407.1,446.4 403.6,442.9 400.0,439.3 396.4,435.7 392.9,432.1 391.1,428.6 391.1,425.0 392.9,423.2 392.9,419.6 391.1,416.1 387.5,412.5 383.9,408.9 380.4,405.4 378.6,403.6 375.0,400.0 371.4,396.4 367.9,392.9 364.3,389.3 362.5,385.7 362.5,382.1 362.5,378.6 360.7,375.0 357.1,371.4 353.6,367.9 350.0,364.3 346.4,360.7 344.6,357.1 344.6,353.6 346.4,351.8 346.4,351.8 346.4,353.6 344.6,353.6 341.1,351.8 337.5,348.2 333.9,344.6 330.4,341.1 328.6,337.5 328.6,333.9 328.6,330.4 328.6,328.6 326.8,325.0 323.2,321.4 319.6,317.9 316.1,314.3 312.5,310.7 310.7,307.1 310.7,305.4 312.5,305.4 312.5,303.6 310.7,300.0 307.1,296.4 303.6,292.9 300.0,289.3 296.4,285.7 292.9,282.1 291.1,280.4 291.1,280.4 292.9,280.4 292.9,278.6 291.1,275.0 287.5,271.4 283.9,267.9 280.4,264.3 276.8,260.7 273.2,258.9 269.6,258.9 266.1,257.1 262.5,253.6 258.9,250.0 255.4,246.4 253.6,242.9 253.6,241.1 255.4,241.1 255.4,239.3 253.6,235.7 250.0,232.1 246.4,228.6 242.9,225.0 241.1,223.2 237.5,219.6 233.9,216.1 232.1,214.3 228.6,210.7 225.0,207.1 221.4,205.4 217.9,205.4 216.1,207.1 212.5,207.1 208.9,205.4 205.4,201.8 201.8,200.0 200.0,200.0" fill="none" stroke="red" stroke-width="7" stroke-opacity="0.5"/>
  <circle cx="200.0" cy="201.8" r="15" fill="blue" fill-opacity="0.5"/>
</svg>