<svg width="1000" height="1000" xmlns="http://www.w3.org/2000/svg">
  <rect x="200" y="200" width="600" height="600" fill="white" stroke="gray" stroke-width="5" />
  <circle cx="203.8" cy="738.9" r="7" fill="black" />
  <circle cx="203.8" cy="738.9" r="7" fill="black" />
  <circle cx="200.0" cy="742.7" r="7" fill="black" />
  <circle cx="200.0" cy="750.3" r="7" fill="black" />
  <circle cx="203.8" cy="761.8" r="7" fill="black" />
  <circle cx="207.6" cy="773.2" r="7" fill="black" />
  <circle cx="215.3" cy="780.9" r="7" fill="black" />
  <circle cx="222.9" cy="784.7" r="7" fill="black" />
  <circle cx="230.6" cy="788.5" r="7" fill="black" />
  <circle cx="234.4" cy="788.5" r="7" fill="black" />
  <circle cx="234.4" cy="784.7" r="7" fill="black" />
  <circle cx="238.2" cy="784.7" r="7" fill="black" />
  <circle cx="242.0" cy="788.5" r="7" fill="black" />
  <circle cx="245.9" cy="792.4" r="7" fill="black" />
  <circle cx="249.7" cy="792.4" r="7" fill="black" />
  <circle cx="257.3" cy="796.2" r="7" fill="black" />
  <circle cx="268.8" cy="796.2" r="7" fill="black" />
  <circle cx="280.3" cy="792.4" r="7" fill="black" />
  <circle cx="287.9" cy="792.4" r="7" fill="black" />
  <circle cx="291.7" cy="788.5" r="7" fill="black" />
  <circle cx="299.4" cy="780.9" r="7" fill="black" />
  <circle cx="307.0" cy="773.2" r="7" fill="black" />
  <circle cx="314.6" cy="765.6" r="7" fill="black" />
  <circle cx="326.1" cy="758.0" r="7" fill="black" />
  <circle cx="337.6" cy="750.3" r="7" fill="black" />
  <circle cx="345.2" cy="742.7" r="7" fill="black" />
  <circle cx="356.7" cy="731.2" r="7" fill="black" />
  <circle cx="372.0" cy="719.7" r="7" fill="black" />
  <circle cx="391.1" cy="704.5" r="7" fill="black" />
  <circle cx="406.4" cy="693.0" r="7" fill="black" />
  <circle cx="425.5" cy="681.5" r="7" fill="black" />
  <circle cx="444.6" cy="666.2" r="7" fill="black" />
  <circle cx="463.7" cy="651.0" r="7" fill="black" />
  <circle cx="479.0" cy="635.7" r="7" fill="black" />
  <circle cx="498.1" cy="624.2" r="7" fill="black" />
  <circle cx="513.4" cy="608.9" r="7" fill="black" />
  <circle cx="528.7" cy="593.6" r="7" fill="black" />
  <circle cx="540.1" cy="574.5" r="7" fill="black" />
  <circle cx="547.8" cy="551.6" r="7" fill="black" />
  <circle cx="555.4" cy="524.8" r="7" fill="black" />
  <circle cx="563.1" cy="501.9" r="7" fill="black" />
  <circle cx="566.9" cy="475.2" r="7" fill="black" />
  <circle cx="566.9" cy="444.6" r="7" fill="black" />
  <circle cx="563.1" cy="414.0" r="7" fill="black" />
  <circle cx="559.2" cy="379.6" r="7" fill="black" />
  <circle cx="555.4" cy="345.2" r="7" fill="black" />
  <circle cx="555.4" cy="307.0" r="7" fill="black" />
  <circle cx="555.4" cy="268.8" r="7" fill="black" />
  <circle cx="559.2" cy="234.4" r="7" fill="black" />
  <circle cx="563.1" cy="200.0" r="7" fill="black" />
  <polyline points="203.8,735.0 203.8,738.9 200.0,742.7 200.0,750.3 203.8,761.8 207.6,773.2 215.3,780.9 222.9,784.7 230.6,788.5 234.4,788.5 234.4,784.7 238.2,784.7 242.0,788.5 245.9,792.4 249.7,792.4 257.3,796.2 268.8,796.2 280.3,792.4 287.9,792.4 291.7,788.5 299.4,780.9 307.0,773.2 314.6,765.6 326.1,758.0 337.6,750.3 345.2,742.7 356.7,731.2 372.0,719.7 391.1,704.5 406.4,693.0 425.5,681.5 444.6,666.2 463.7,651.0 479.0,635.7 498.1,624.2 513.4,608.9 528.7,593.6 540.1,574.5 547.8,551.6 555.4,524.8 563.1,501.9 566.9,475.2 566.9,444.6 563.1,414.0 559.2,379.6 555.4,345.2 555.4,307.0 555.4,268.8 559.2,234.4" fill="none" stroke="red" stroke-width="7" stroke-opacity="0.5"/>
  <circle cx="563.1" cy="200.0" r="15" fill="blue" fill-opacity="0.5"/>
</svg>