<svg width="1413" height="4086" xmlns="http://www.w3.org/2000/svg">
  <circle cx="773" cy="1945" r="1" fill="black" />
  <circle cx="757" cy="1976" r="1" fill="black" />
  <circle cx="781" cy="1934" r="1" fill="black" />
  <circle cx="771" cy="2110" r="1" fill="black" />
  <circle cx="783" cy="1930" r="1" fill="black" />
  <circle cx="759" cy="2128" r="1" fill="black" />
  <circle cx="763" cy="1961" r="1" fill="black" />
  <circle cx="650" cy="2258" r="1" fill="black" />
  <circle cx="790" cy="1912" r="1" fill="black" />
  <circle cx="767" cy="2085" r="1" fill="black" />
  <circle cx="753" cy="2025" r="1" fill="black" />
  <circle cx="661" cy="2242" r="1" fill="black" />
  <circle cx="747" cy="2138" r="1" fill="black" />
  <circle cx="690" cy="2179" r="1" fill="black" />
  <circle cx="798" cy="1902" r="1" fill="black" />
  <circle cx="699" cy="2164" r="1" fill="black" />
  <circle cx="663" cy="2236" r="1" fill="black" />
  <circle cx="795" cy="1906" r="1" fill="black" />
  <circle cx="765" cy="2081" r="1" fill="black" />
  <circle cx="754" cy="1998" r="1" fill="black" />
  <circle cx="786" cy="1895" r="1" fill="black" />
  <circle cx="755" cy="1993" r="1" fill="black" />
  <circle cx="677" cy="2210" r="1" fill="black" />
  <circle cx="771" cy="2114" r="1" fill="black" />
  <circle cx="751" cy="2136" r="1" fill="black" />
  <circle cx="762" cy="1971" r="1" fill="black" />
  <circle cx="630" cy="2260" r="1" fill="black" />
  <circle cx="758" cy="1974" r="1" fill="black" />
  <circle cx="797" cy="1900" r="1" fill="black" />
  <circle cx="620" cy="2263" r="1" fill="black" />
  <circle cx="789" cy="1896" r="1" fill="black" />
  <circle cx="668" cy="2225" r="1" fill="black" />
  <circle cx="795" cy="1898" r="1" fill="black" />
  <circle cx="762" cy="1958" r="1" fill="black" />
  <circle cx="791" cy="1910" r="1" fill="black" />
  <circle cx="641" cy="2261" r="1" fill="black" />
  <circle cx="754" cy="2010" r="1" fill="black" />
  <circle cx="754" cy="2020" r="1" fill="black" />
  <circle cx="792" cy="1896" r="1" fill="black" />
  <circle cx="756" cy="1983" r="1" fill="black" />
  <circle cx="762" cy="1952" r="1" fill="black" />
  <circle cx="715" cy="2150" r="1" fill="black" />
  <circle cx="758" cy="2063" r="1" fill="black" />
  <circle cx="754" cy="2134" r="1" fill="black" />
  <circle cx="615" cy="2268" r="1" fill="black" />
  <circle cx="762" cy="2126" r="1" fill="black" />
  <circle cx="771" cy="2099" r="1" fill="black" />
  <circle cx="614" cy="2270" r="1" fill="black" />
  <circle cx="665" cy="2231" r="1" fill="black" />
  <circle cx="627" cy="2260" r="1" fill="black" />
  <circle cx="765" cy="2123" r="1" fill="black" />
  <circle cx="617" cy="2266" r="1" fill="black" />
  <circle cx="770" cy="2094" r="1" fill="black" />
  <circle cx="731" cy="2143" r="1" fill="black" />
  <circle cx="765" cy="1947" r="1" fill="black" />
  <circle cx="778" cy="1940" r="1" fill="black" />
  <circle cx="614" cy="2272" r="1" fill="black" />
  <circle cx="757" cy="2130" r="1" fill="black" />
  <circle cx="763" cy="1949" r="1" fill="black" />
  <circle cx="762" cy="1955" r="1" fill="black" />
  <circle cx="757" cy="2055" r="1" fill="black" />
  <circle cx="769" cy="2089" r="1" fill="black" />
  <circle cx="797" cy="1904" r="1" fill="black" />
  <circle cx="764" cy="1963" r="1" fill="black" />
  <circle cx="720" cy="2147" r="1" fill="black" />
  <circle cx="793" cy="1907" r="1" fill="black" />
  <circle cx="787" cy="1919" r="1" fill="black" />
  <circle cx="763" cy="1968" r="1" fill="black" />
  <circle cx="756" cy="2132" r="1" fill="black" />
  <circle cx="776" cy="1942" r="1" fill="black" />
  <circle cx="798" cy="1901" r="1" fill="black" />
  <circle cx="625" cy="2260" r="1" fill="black" />
  <circle cx="672" cy="2218" r="1" fill="black" />
  <circle cx="794" cy="1897" r="1" fill="black" />
  <circle cx="685" cy="2193" r="1" fill="black" />
  <circle cx="789" cy="1915" r="1" fill="black" />
  <circle cx="763" cy="2076" r="1" fill="black" />
  <circle cx="726" cy="2145" r="1" fill="black" />
  <circle cx="737" cy="2141" r="1" fill="black" />
  <circle cx="771" cy="2117" r="1" fill="black" />
  <circle cx="760" cy="1973" r="1" fill="black" />
  <circle cx="742" cy="2140" r="1" fill="black" />
  <circle cx="637" cy="2261" r="1" fill="black" />
  <circle cx="706" cy="2157" r="1" fill="black" />
  <circle cx="786" cy="1923" r="1" fill="black" />
  <polyline points="782,1892 781,1893 779,1895 776,1898 772,1902 767,1907 763,1913 760,1920 758,1928 757,1937 757,1947 758,1956 760,1964 763,1971 765,1977 766,1982 766,1986 765,1989 765,1991 765,1992 765,1992 765,1991 765,1989 765,1986 765,1982 765,1977 765,1971 765,1964 765,1956 765,1947 766,1937 768,1926 771,1914 775,1901 780,1889 786,1878 793,1868 799,1859 804,1851 808,1844 811,1838 813,1833 814,1829 814,1826 813,1824 811,1823 808,1823 804,1824 799,1826 795,1829 792,1833 790,1838 789,1844 789,1851 790,1859 792,1868 795,1878 797,1889 798,1900 798,1910 797,1919 797,1927 797,1934 797,1940 797,1945 797,1949 797,1952 797,1954 797,1955 797,1955 797,1954 797,1952 797,1949 797,1945 797,1940 797,1934 797,1927 797,1919 797,1910 797,1900 796,1891 794,1883 791,1876 787,1870 782,1865 778,1861 775,1858 773,1856 772,1855 772,1855 773,1856 775,1858 778,1861 780,1865 781,1870 781,1876 780,1883 778,1891 777,1900 777,1910 778,1921 778,1933 778,1944 778,1954 778,1963 778,1971 778,1978 778,1984 778,1989 778,1993 778,1996 778,1998 778,1999 778,1999 778,1998 778,1996 778,1993 778,1989 778,1984 778,1978 778,1971 778,1963 778,1954 778,1944 778,1935 778,1927 778,1920 778,1914 778,1909 778,1905 778,1902 778,1900 778,1899 778,1899 778,1900 778,1902 778,1905 778,1909 778,1914 778,1920 778,1927 778,1935 778,1942 778,1948 778,1953 778,1957 778,1960 778,1962 778,1963 778,1963 778,1962 778,1960 778,1957 778,1953 778,1948 778,1942 778,1937 778,1933 778,1930 778,1928 778,1927 778,1927 778,1928 778,1930 778,1933 778,1937 778,1940 779,1942 781,1943 784,1943 788,1942 793,1940 797,1937 800,1933 802,1928 803,1922 803,1915 802,1907 800,1900 797,1894 795,1889 794,1885 794,1882 795,1880 795,1879 795,1879 795,1880 795,1882 795,1885 795,1889 795,1894 795,1900 795,1906 794,1913 792,1921 789,1930 785,1940 780,1951 774,1961 767,1970 761,1978 756,1985 752,1991 749,1996 747,2000 746,2003 746,2005 747,2006 749,2006 752,2005 756,2003 761,2000 765,1996 768,1991 770,1985 771,1978 771,1970 770,1961 768,1953 765,1946 763,1940 762,1935 762,1931 763,1928 763,1926 763,1925 763,1925 763,1926 763,1928 763,1931 763,1935 763,1940 763,1946 763,1953 763,1961 762,1970 760,1980 757,1989 755,1997 754,2004 754,2010 755,2015 756,2019 756,2022 756,2024 756,2025 756,2025 756,2024 756,2022 756,2019 756,2015 756,2010 756,2004 756,1997 756,1989 756,1982 756,1976 756,1971 756,1967 756,1964 756,1962 756,1961 756,1961 756,1962 756,1964 756,1967 756,1971 756,1976 756,1982 756,1987 756,1991 756,1994 756,1996 756,1997 756,1997 756,1996 756,1994 756,1991 756,1987 756,1983 757,1980 759,1978 762,1977 766,1977 771,1978 775,1980 778,1983 780,1987 781,1992 781,1998 780,2005 778,2013 775,2022 771,2032 768,2043 766,2055 765,2068 765,2082 766,2097 768,2113 771,2128 773,2142 774,2155 774,2167 773,2178 771,2188 770,2197 770,2205 771,2212 771,2218 771,2223 771,2227 771,2230 771,2232 771,2233 771,2233 771,2232 771,2230 771,2227 771,2223 771,2218 771,2212 771,2205 771,2197 771,2188 771,2178 771,2167 771,2155 771,2142 771,2128 771,2115 771,2103 771,2092 771,2082 771,2073 771,2065 771,2058 771,2052 771,2047 771,2043 771,2040 771,2038 771,2037 771,2037 771,2038 771,2040 771,2043 771,2047 771,2052 771,2058 771,2065 771,2073 771,2082 771,2092 771,2103 771,2115 771,2126 771,2136 771,2145 771,2153 771,2160 771,2166 771,2171 771,2175 771,2178 771,2180 771,2181 771,2181 771,2180 771,2178 771,2175 771,2171 771,2166 771,2160 771,2153 771,2145 771,2136 771,2126 771,2117 770,2109 768,2102 765,2096 761,2091 756,2087 750,2084 743,2082 737,2081 732,2081 728,2082 725,2084 723,2087 722,2091 722,2096 723,2102 725,2109 728,2117 732,2126 737,2136 742,2145 746,2153 749,2160 751,2166 752,2171 752,2175 751,2178 749,2180 746,2181 742,2181 739,2180 737,2178 736,2175 736,2171 737,2166 739,2160 742,2153 744,2145 745,2138 745,2132 744,2127 742,2123 741,2120 741,2118 742,2117 742,2117 742,2118 742,2120 742,2123 742,2127 742,2132 742,2138 742,2143 742,2147 742,2150 742,2152 742,2153 742,2153 742,2152 742,2150 742,2147 742,2143 742,2140 741,2138 739,2137 736,2137 732,2138 727,2140 721,2143 716,2147 712,2150 709,2152 707,2153 706,2153 706,2152 707,2150 709,2147 712,2145 716,2144 720,2144 723,2145 725,2147 726,2148 726,2148 725,2147 723,2147 720,2147 718,2146 717,2144 717,2141 718,2137 720,2132 723,2126 727,2119 732,2111 738,2102 745,2092 753,2081 760,2069 766,2056 771,2044 775,2033 778,2023 780,2014 781,2006 781,1999 780,1993 778,1988 775,1984 771,1981 766,1979 760,1978 755,1978 751,1979 748,1981 746,1984 745,1988 745,1993 746,1999 748,2006 751,2014 755,2023 758,2033 760,2044 761,2055 761,2065 760,2074 758,2082 757,2089 757,2095 757,2100 757,2104 757,2107 757,2109 757,2110 757,2110 757,2109 757,2107 757,2104 757,2100 757,2095 757,2089 757,2082 757,2074 757,2065 757,2055 758,2046 760,2038 763,2031 767,2025 770,2020 772,2016 773,2013 773,2011 772,2010 770,2010 769,2011 769,2013 769,2016 769,2020 769,2025 769,2031 769,2038 769,2046 769,2055 769,2065 769,2076 769,2088 769,2099 769,2109 769,2118 769,2126 769,2133 769,2139 769,2144 769,2148 769,2151 769,2153 769,2154 769,2154 769,2153 769,2151 769,2148 769,2144 769,2139 769,2133 769,2126 769,2118 769,2109 769,2099 769,2089 768,2080 766,2072 763,2065 759,2059 754,2054 748,2050 741,2047 733,2045 726,2044 720,2044 715,2045 711,2047 708,2050 706,2054 705,2059 705,2065 706,2072 708,2080 711,2089 715,2099 720,2110 726,2122 731,2135 735,2147 738,2158 740,2168 741,2177 741,2185 740,2192 738,2198 735,2203 731,2207 728,2210 726,2212 725,2213 725,2213 726,2212 728,2210 731,2207 733,2203 734,2198 734,2192 733,2185 731,2177 730,2168 730,2158 731,2147 731,2137 731,2128 731,2120 731,2113 731,2107 731,2102 731,2098 731,2095 731,2093 731,2092 731,2092 731,2093 731,2095 731,2098 731,2102 731,2107 731,2113 731,2120 731,2128 731,2137 731,2145 731,2152 731,2158 731,2163 731,2167 731,2170 731,2172 731,2173 731,2173 731,2172 731,2170 731,2167 731,2163 731,2158 731,2152 731,2145 731,2139 731,2134 731,2130 731,2127 731,2125 731,2124 731,2124 731,2125 731,2127 731,2130 731,2134 731,2139 731,2143 732,2146 734,2148 737,2149 741,2149 746,2148 752,2146 757,2143 761,2139 764,2134 766,2130 767,2127 767,2125 766,2124 764,2124 761,2125 757,2127 754,2130 752,2132 751,2133 751,2133 752,2132 754,2132 756,2132 757,2133 757,2135 756,2138 754,2142 751,2147 747,2153 742,2160 736,2168 729,2177 721,2187 712,2198 702,2210 691,2223 679,2236 666,2248 654,2259 643,2269 633,2278 624,2286 616,2293 609,2299 603,2304 598,2308 594,2311 591,2313 589,2314 588,2314 588,2313 589,2311 591,2308 594,2304 598,2299 603,2293 609,2286 616,2278 624,2269 633,2259 643,2248 654,2236 664,2225 673,2215 681,2206 688,2198 694,2191 699,2185 703,2180 706,2176 708,2173 709,2171 709,2170 708,2170 706,2171 703,2173 699,2176 694,2180 688,2185 681,2191 673,2198 664,2206 656,2215 649,2225 643,2236 638,2246 634,2255 631,2263 629,2270 628,2276 628,2281 629,2285 631,2288 634,2290 638,2291 643,2291 649,2290 656,2288 663,2285 669,2281 674,2276 678,2270 681,2263 683,2255 684,2246 684,2236 683,2227 681,2219 678,2212 674,2206 669,2201 663,2197 658,2194 654,2192 651,2191 649,2191 648,2192 648,2194 649,2197 651,2201 654,2206 658,2212 663,2219 667,2227 670,2236 672,2244 673,2251 673,2257 672,2262 670,2266 667,2269 663,2271 660,2272 658,2272 657,2271 657,2269 658,2266 660,2262 663,2257 665,2251 666,2244 666,2236 665,2229 663,2223 662,2218 662,2214 663,2211 663,2209 663,2208 663,2208 663,2209 663,2211 663,2214 663,2218 663,2223 663,2229 663,2236 662,2244 660,2253 657,2263 653,2272 648,2280 642,2287 635,2293 627,2298 618,2302 610,2305 603,2307 597,2308 592,2308 588,2307 585,2305 583,2302 582,2298 582,2293 583,2287 585,2280 588,2272 592,2265 597,2259 603,2254 610,2250 616,2247 621,2245 625,2244 628,2244 630,2245 631,2247 631,2250 630,2254 628,2259 625,2265 621,2270 616,2274 612,2277 609,2279 607,2280 606,2280 606,2279 607,2277 609,2274 612,2270 614,2267 615,2265 615,2264 614,2264 614,2265 614,2267 614,2270 615,2272 617,2273 620,2273 624,2272 629,2270 635,2267 642,2263 650,2258 659,2252 669,2245 680,2237 692,2228 705,2218 719,2207 734,2195 750,2182 765,2168 779,2153 792,2137 804,2122 815,2108 825,2095 834,2083 842,2072 849,2062 855,2053 860,2045 864,2038 867,2032 869,2027 870,2023 870,2020 869,2018 867,2017 864,2017 860,2018 855,2020 849,2023 842,2027 834,2032 825,2038 815,2045 804,2053 792,2062 779,2072 765,2083 752,2095 740,2108 729,2122 719,2135 710,2147 702,2158 695,2168 689,2177 684,2185 680,2192 677,2198 675,2203 674,2207 674,2210 675,2212 677,2213 680,2213 684,2212 689,2210 695,2207 702,2203 710,2198 719,2192 729,2185 740,2177 752,2168 763,2158 773,2147 782,2135 790,2124 797,2114 803,2105 808,2097 812,2090 815,2084 817,2079 818,2075 818,2072 817,2070 815,2069 812,2069 808,2070 803,2072 797,2075 790,2079 782,2084 773,2090 763,2097 754,2105 746,2114 739,2124 733,2133 728,2141 724,2148 721,2154 719,2159 718,2163 718,2166 719,2168 721,2169 724,2169 728,2168 733,2166 739,2163 746,2159 754,2154 762,2148 769,2141 775,2133 780,2126 784,2120 787,2115 789,2111 790,2108 790,2106 789,2105 787,2105 784,2106 780,2108 775,2111 769,2115 762,2120 756,2126 751,2131 747,2135 744,2138 742,2140 741,2141 741,2141 742,2140 744,2138 747,2135 751,2131 756,2126 762,2122 767,2119 771,2117 774,2116 776,2116 777,2117 777,2119 776,2122 774,2126 771,2129 767,2131 762,2132 758,2132 755,2131 753,2129 752,2126 752,2124 753,2123 755,2123 758,2124 762,2126 765,2129 767,2133 768,2138 768,2144 767,2151 765,2159 762,2168 758,2178 753,2187 747,2195 740,2202 732,2208 723,2213 713,2217 702,2220 690,2222 679,2223 669,2223 660,2222 652,2220 645,2217 639,2213 634,2208 630,2202 627,2195 625,2187 624,2179 624,2172 625,2166 627,2161 630,2157 634,2154 639,2152 645,2151 652,2151 660,2152 669,2154 679,2157 690,2161 700,2166 709,2172 717,2179 724,2185 730,2190 735,2194 739,2197 742,2199 744,2200 745,2200 745,2199 744,2197 742,2194 739,2190 735,2185 730,2179 724,2174 717,2170 709,2167 700,2165 690,2164 681,2164 673,2165 666,2167 660,2170 655,2174 651,2179 648,2183 646,2186 645,2188 645,2189 646,2189 648,2188 651,2186 655,2183 660,2179 666,2176 673,2174 681,2173 690,2173 698,2174 705,2176 711,2179 716,2181 720,2182 723,2182 725,2181 726,2179 726,2178 725,2178 723,2179 720,2179 716,2179 711,2179 705,2179 698,2179 690,2179 683,2178 677,2176 672,2173 668,2169 665,2164 663,2158 662,2151 662,2143 663,2134 665,2124 668,2113 672,2103 677,2094 683,2086 690,2079 698,2073 707,2068 717,2064 728,2061 740,2059 753,2058 767,2058 780,2059 792,2061 803,2064 813,2068 822,2073 830,2079 837,2086 843,2094 848,2103 852,2111 855,2118 857,2124 858,2129 858,2133 857,2136 855,2138 852,2139 848,2139 843,2138 837,2136 830,2133 822,2129 813,2124 803,2118 792,2111 780,2105 769,2100 759,2096 750,2093 742,2091 735,2090 729,2090 724,2091 720,2093 717,2096 715,2100 714,2105 714,2110 715,2114 717,2117 720,2119 724,2120 729,2120 735,2119 742,2117 750,2114 759,2110 769,2107 778,2105 786,2104 793,2104 799,2105 804,2107 808,2110 811,2112 813,2113 814,2113 814,2112 813,2110 811,2109 808,2109 804,2110 799,2110 793,2110 786,2110 778,2110 771,2110 765,2109 760,2107 756,2104 753,2100 751,2095 750,2089 750,2082 751,2074 753,2065 756,2055 760,2044 765,2032 771,2019 778,2005 786,1990 795,1974 803,1957 810,1939 816,1920 821,1901 825,1883 828,1866 830,1850 831,1835 831,1821 830,1808 828,1796 825,1785 821,1775 816,1766 810,1758 803,1751 797,1745 792,1740 788,1736 785,1733 783,1731 782,1730 782,1730 783,1731 785,1733 788,1736 792,1740 797,1745 801,1751 804,1758 806,1766 807,1775 807,1785 806,1796 804,1808 801,1821 798,1835 796,1850 795,1866 795,1883 796,1901 798,1918 799,1934 799,1949 798,1963 798,1976 798,1988 798,1999 798,2009 798,2018 798,2026 798,2033 798,2039 798,2044 798,2048 798,2051 798,2053 798,2054 798,2054 798,2053 798,2051 798,2048 798,2044 798,2039 798,2033 798,2026 798,2018 798,2009 798,1999 798,1988 798,1976 798,1963 798,1949 798,1934 798,1918 798,1901 797,1885 795,1870 792,1856 788,1843 783,1831 777,1820 770,1810 762,1801 753,1793 743,1786 732,1780 720,1775 707,1771 693,1768 678,1766 664,1765 651,1765 639,1766 628,1768 618,1771 609,1775 601,1780 594,1786 588,1793 583,1801 579,1810 576,1820 574,1831 573,1843 573,1856 574,1870 576,1885 579,1901 583,1918 588,1936 594,1955 601,1975 609,1996 618,2018 628,2041 639,2065 651,2090 664,2116 676,2143 687,2171 697,2200 706,2230 714,2259 721,2287 727,2314 732,2340 736,2365 739,2389 741,2412 742,2434 742,2455 741,2475 739,2494 736,2512 732,2529 727,2545 721,2560 714,2574 706,2587 697,2599 687,2610 676,2620 665,2629 655,2637 646,2644 638,2650 631,2655 625,2659 620,2662 616,2664 613,2665 611,2665 610,2664 610,2662 611,2659 613,2655 616,2650 620,2644 625,2637 631,2629 638,2620 646,2610 655,2599 665,2587 674,2574 682,2560 689,2545 695,2529 700,2512 704,2494 707,2475 709,2455 710,2434 710,2412 709,2389 707,2365 704,2340 700,2314 695,2287 689,2259 682,2231 674,2204 665,2178 657,2153 650,2129 644,2106 639,2084 635,2063 632,2043 630,2024 629,2006 629,1989 630,1973 632,1958 635,1944 639,1931 644,1919 650,1908 657,1898 665,1889 672,1881 678,1874 683,1868 687,1863 690,1859 692,1856 693,1854 693,1853 692,1853 690,1854 687,1856 683,1859 678,1863 672,1868 665,1874 659,1881 654,1889 650,1898 647,1908 645,1919 644,1931 644,1944 645,1958 647,1973 650,1989 654,2006 659,2024 665,2043 670,2063 674,2084 677,2106 679,2129 680,2153 680,2178 679,2204 677,2231 674,2257 670,2282 665,2306 661,2329 658,2351 656,2372 655,2392 655,2411 656,2429 658,2446 661,2462 665,2477 668,2491 670,2504 671,2516 671,2527 670,2537 668,2546 665,2554 663,2561 662,2567 662,2572 663,2576 665,2579 666,2581 666,2582 665,2582 665,2581 665,2579 665,2576 665,2572 665,2567 665,2561 665,2554 665,2546 665,2537 665,2527 665,2516 665,2504 665,2491 665,2477 665,2462 665,2446 665,2429 665,2411 665,2392 665,2372 665,2351 665,2329 665,2306 665,2282 665,2257 665,2231 666,2204 668,2176 671,2147 675,2117 680,2086 686,2054 693,2021 701,1987 710,1954 720,1922 731,1891 743,1861 756,1832 768,1804 779,1777 789,1751 798,1726 806,1702 813,1679 819,1657 824,1636 828,1616 831,1597 833,1579 834,1562 834,1546 833,1531 831,1517 828,1504 824,1492 819,1481 813,1471 806,1462 798,1454 789,1447 779,1441 768,1436 758,1432 749,1429 741,1427 734,1426 728,1426 723,1427 719,1429 716,1432 714,1436 713,1441 713,1447 714,1454 716,1462 719,1471 723,1481 728,1492 734,1504 741,1517 749,1531 758,1546 766,1562 773,1579 779,1597 784,1616 788,1636 791,1657 793,1679 794,1702 794,1726 793,1751 791,1777 788,1804 784,1832 779,1861 773,1891 766,1922 760,1954 755,1985 751,2015 748,2044 746,2072 745,2099 745,2125 746,2150 748,2174 751,2197 755,2219 760,2240 764,2260 767,2279 769,2297 770,2314 770,2330 769,2345 767,2359 764,2372 762,2384 761,2395 761,2405 762,2414 763,2422 763,2429 763,2435 763,2440 763,2444 763,2447 763,2449 763,2450 763,2450 763,2449 763,2447 763,2444 763,2440 763,2435 763,2429 763,2422 763,2414 763,2405 763,2395 763,2384 763,2372 763,2359 763,2345 763,2330 763,2314 763,2297 763,2279 763,2260 763,2240 763,2219 763,2197 763,2174 763,2150 763,2125 763,2099 763,2072 763,2044 763,2015 763,1985 763,1956 763,1928 763,1901 763,1875 763,1850 763,1826 763,1803 763,1781 763,1760 763,1740 763,1721 763,1703 763,1686 763,1670 763,1655 763,1641 763,1628 763,1616 763,1605 763,1595 763,1586 763,1578 763,1571 763,1565 763,1560 763,1556 763,1553 763,1551 763,1550 763,1550 763,1551 763,1553 763,1556 763,1560 763,1565 763,1571 763,1578 763,1586 763,1595 763,1605 763,1616 763,1628 763,1641 763,1655 763,1670 763,1686 763,1703 763,1721 763,1740 763,1760 763,1781 763,1803 763,1826 763,1850 763,1875 763,1901 763,1928 763,1956 763,1983 763,2009 763,2034 763,2058 763,2081 763,2103 763,2124 763,2144 763,2163 763,2181 763,2198 763,2214 763,2229 763,2243 763,2256 763,2268 763,2279 763,2289 763,2298 763,2306 763,2313 763,2319 763,2324 763,2328 763,2331 763,2333 763,2334 763,2334 763,2333 763,2331 763,2328 763,2324 763,2319 763,2313 763,2306 763,2298 763,2289 763,2279 763,2268 763,2256 763,2243 763,2229 763,2214 763,2198 763,2181 763,2163 763,2144 763,2124 763,2103 763,2081 763,2058 763,2034 763,2009 763,1983 763,1958 763,1934 763,1911 763,1889 763,1868 763,1848 763,1829 763,1811 763,1794 763,1778 763,1763 763,1749 763,1736 763,1724 763,1713 763,1703 763,1694 763,1686 763,1679 763,1673 763,1668 763,1664 763,1661 763,1659 763,1658 763,1658 763,1659 763,1661 763,1664 763,1668 763,1673 763,1679 763,1686 763,1694 763,1703 763,1713 763,1724 763,1736 763,1749 763,1763 763,1778 763,1794 763,1811 763,1829 763,1848 763,1868 763,1889 763,1911 763,1934 763,1958 763,1981 763,2003 763,2024 763,2044 763,2063 763,2081 763,2098 763,2114 763,2129 763,2143 763,2156 763,2168 763,2179 763,2189 763,2198 763,2206 763,2213 763,2219 763,2224 763,2228 763,2231 763,2233 763,2234 763,2234 763,2233 763,2231 763,2228 763,2224 763,2219 763,2213 763,2206 763,2198 763,2189 763,2179 763,2168 763,2156 763,2143 763,2129 763,2114 763,2098 763,2081 763,2063 763,2044 763,2024 763,2003 763,1981 763,1960 763,1940 763,1921 763,1903 763,1886 763,1870 763,1855 763,1841 763,1828 763,1816 763,1805 763,1795 763,1786 763,1778 763,1771 763,1765 763,1760 763,1756 763,1753 763,1751 763,1750 763,1750 763,1751 763,1753 763,1756 763,1760 763,1765 763,1771 763,1778 763,1786 763,1795 763,1805 763,1816 763,1828 763,1841 763,1855 763,1870 763,1886 763,1903 763,1921 763,1940 763,1960 763,1979 763,1997 763,2014 763,2030 763,2045 763,2059 763,2072 763,2084 763,2095 763,2105 763,2114 763,2122 763,2129 763,2135 763,2140 763,2144 763,2147 763,2149 763,2150 763,2150 763,2149 763,2147 763,2144 763,2140 763,2135 763,2129 763,2122 763,2114 763,2105 763,2095 763,2084 763,2072 763,2059 763,2045 763,2030 763,2014 763,1997 763,1979 763,1962 763,1946 763,1931 763,1917 763,1904 763,1892 763,1881 763,1871 763,1862 763,1854 763,1847 763,1841 763,1836 763,1832 763,1829 763,1827 763,1826 763,1826 763,1827 763,1829 763,1832 763,1836 763,1841 763,1847 763,1854 763,1862 763,1871 763,1881 763,1892 763,1904 763,1917 763,1931 763,1946 763,1962 763,1977 763,1991 763,2004 763,2016 763,2027 763,2037 763,2046 763,2054 763,2061 763,2067 763,2072 763,2076 763,2079 763,2081 763,2082 763,2082 763,2081 763,2079 763,2076 763,2072 763,2067 763,2061 763,2054 763,2046 763,2037 763,2027 763,2016 763,2004 763,1991 763,1977 763,1964 763,1952 763,1941 763,1931 763,1922 763,1914 763,1907 763,1901 763,1896 763,1892 763,1889 763,1887 763,1886 763,1886 763,1887 763,1889 763,1892 763,1896 763,1901 763,1907 763,1914 763,1922 763,1931 763,1941 763,1952 763,1964 763,1975 763,1985 763,1994 763,2002 763,2009 763,2015 763,2020 763,2024 763,2027 763,2029 763,2030 763,2030 763,2029 763,2027 763,2024 763,2020 763,2015 763,2009 763,2002 763,1994 763,1985 763,1975 763,1966 763,1958 763,1951 763,1945 763,1940 763,1936 763,1933 763,1931 763,1930 763,1930 763,1931 763,1933 763,1936 763,1940 763,1945 763,1951 763,1958 763,1966 763,1973 763,1979 763,1984 763,1988 763,1991 763,1993 763,1994 763,1994 763,1993 763,1991 763,1988 763,1984 763,1979 763,1973 763,1968 762,1962 762,1955 762,1949 762,1944 762,1940 762,1937 762,1935 762,1934 762,1934 762,1935 762,1937 762,1940 762,1944 762,1949 762,1953 762,1956 762,1958 762,1959 762,1959 762,1958 762,1956 762,1953 762,1951 762,1950 762,1950 762,1951 762,1952 763,1952 765,1951 768,1949 772,1946 777,1942 783,1937 790,1931 796,1924 801,1916 805,1907 808,1897 810,1888 811,1880 811,1873 810,1867 808,1862 805,1858 801,1855 796,1853 792,1852 789,1852 787,1853 786,1855 786,1858 787,1862 789,1867 792,1873 794,1880 795,1888 795,1897 794,1905 794,1912 794,1918 794,1923 794,1927 794,1930 794,1932 794,1933 794,1933 794,1932 794,1930 794,1927 794,1923 794,1918 794,1912 794,1905 794,1897 793,1890 791,1884 788,1879 784,1875 779,1872 773,1870 766,1869 758,1869 749,1870 739,1872 728,1875 716,1879 703,1884 689,1890 674,1897 658,1905 641,1914 625,1924 610,1935 596,1947 583,1960 571,1974 560,1989 550,2005 541,2022 533,2040 526,2059 520,2079 515,2100 511,2122 508,2145 506,2169 505,2194 505,2220 506,2247 508,2273 511,2298 515,2322 520,2345 526,2367 533,2388 541,2408 550,2427 560,2445 571,2462 583,2478 596,2493 610,2507 625,2520 639,2532 652,2543 664,2553 675,2562 685,2570 694,2577 702,2583 709,2588 715,2592 720,2595 724,2597 727,2598 729,2598 730,2597 730,2595 729,2592 727,2588 724,2583 720,2577 715,2570 709,2562 702,2553 694,2543 685,2532 675,2520 664,2507 652,2493 639,2478 627,2462 616,2445 606,2427 597,2408 589,2388 582,2367 576,2345 571,2322 567,2298 564,2273 562,2249 561,2226 561,2204 562,2183 564,2163 567,2144 571,2126 576,2109 582,2093 589,2078 597,2064 606,2051 616,2039 627,2028 637,2018 646,2009 654,2001 661,1994 667,1988 672,1983 676,1979 679,1976 681,1974 682,1973 682,1973 681,1974 679,1976 676,1979 672,1983 667,1988 661,1994 654,2001 646,2009 637,2018 629,2028 622,2039 616,2051 611,2064 607,2078 604,2093 602,2109 601,2126 601,2144 602,2163 604,2183 607,2204 611,2226 616,2249 622,2271 629,2292 637,2312 644,2331 650,2349 655,2366 659,2382 662,2397 664,2411 665,2424 665,2436 664,2447 662,2457 659,2466 655,2474 650,2481 644,2487 637,2492 631,2496 626,2499 622,2501 619,2502 617,2502 616,2501 616,2499 617,2496 619,2492 622,2487 626,2481 631,2474 637,2466 642,2457 646,2447 649,2436 651,2424 652,2411 652,2397 651,2382 649,2366 646,2349 642,2331 637,2312 633,2292 630,2271 628,2251 627,2232 627,2214 628,2197 630,2181 633,2166 637,2152 640,2139 642,2127 643,2116 643,2106 642,2097 640,2089 637,2082 635,2076 634,2071 634,2067 635,2064 637,2062 638,2061 638,2061 637,2062 637,2064 637,2067 637,2071 637,2076 637,2082 637,2089 637,2097 637,2106 637,2116 637,2127 637,2139 637,2152 637,2166 637,2181 637,2197 637,2214 637,2232 637,2251 637,2269 637,2286 637,2302 637,2317 637,2331 637,2344 637,2356 637,2367 637,2377 637,2386 637,2394 637,2401 637,2407 637,2412 637,2416 637,2419 637,2421 637,2422 637,2422 637,2421 637,2419 637,2416 637,2412 637,2407 637,2401 637,2394 637,2386 637,2377 637,2367 637,2356 637,2344 637,2331 637,2317 637,2302 637,2286 637,2269 637,2253 637,2238 637,2224 637,2211 637,2199 637,2188 637,2178 637,2169 637,2161 637,2154 637,2148 637,2143 637,2139 637,2136 637,2134 637,2133 637,2133 637,2134 637,2136 637,2139 637,2143 637,2148 637,2154 637,2161 637,2169 637,2178 637,2188 637,2199 637,2211 637,2224 637,2238 637,2253 637,2267 637,2280 637,2292 637,2303 637,2313 637,2322 637,2330 637,2337 637,2343 637,2348 637,2352 637,2355 637,2357 637,2358 637,2358 637,2357 637,2355 637,2352 637,2348 637,2343 637,2337 637,2330 637,2322 637,2313 637,2303 637,2292 637,2280 637,2267 637,2255 637,2244 637,2234 637,2225 637,2217 637,2210 637,2204 637,2199 637,2195 637,2192 637,2190 637,2189 637,2189 637,2190 637,2192 637,2195 637,2199 637,2204 637,2210 637,2217 637,2225 637,2234 637,2244 637,2255 637,2265 637,2274 637,2282 637,2289 637,2295 637,2300 637,2304 637,2307 637,2309 637,2310 637,2310 637,2309 637,2307 637,2304 637,2300 637,2295 637,2289 637,2282 637,2274 637,2265 637,2257 637,2250 637,2244 637,2239 637,2235 637,2232 637,2230 637,2229 637,2229 637,2230 637,2232 637,2235 637,2239 637,2244 637,2250 637,2257 637,2263 637,2268 637,2272 637,2275 637,2277 637,2278 637,2278 637,2277 637,2275 637,2272 637,2268 637,2263 637,2259 637,2256 637,2254 637,2253 637,2253 637,2254 637,2256 637,2259 637,2261 636,2262 634,2262 631,2261 629,2260 628,2260 628,2260 629,2260 630,2260 630,2261 629,2263 627,2266 624,2268 620,2269 615,2269 611,2268 608,2268 606,2268 605,2268 605,2268 606,2268 608,2268 611,2268 615,2268 620,2267 626,2265 633,2262 641,2258 650,2253 660,2247 671,2240 683,2232 696,2223 710,2213 725,2202 741,2190 756,2177 770,2163 783,2148 795,2132 806,2115 816,2097 825,2078 833,2058 840,2037 846,2017 851,1998 855,1980 858,1963 860,1947 861,1932 861,1918 860,1905 858,1893 855,1882 851,1872 846,1863 840,1855 833,1848 825,1842 816,1837 806,1833 795,1830 783,1828 770,1827 756,1827 743,1828 731,1830 720,1833 710,1837 701,1842 693,1848 686,1855 680,1863 675,1872 671,1882 668,1893 666,1905 665,1918 665,1932 666,1947 668,1963 671,1980 675,1998 680,2017 686,2035 693,2052 701,2068 710,2083 720,2097 731,2110 743,2122 754,2133 764,2143 773,2152 781,2160 788,2167 794,2173 799,2178 803,2182 806,2185 808,2187 809,2188 809,2188 808,2187 806,2185 803,2182 799,2178 794,2173 788,2167 781,2160 773,2152 764,2143 754,2133 745,2122 737,2110 730,2097 724,2083 719,2068 715,2052 712,2035 710,2019 709,2004 709,1990 710,1977 712,1965 715,1954 719,1944 724,1935 730,1927 737,1920 745,1914 753,1909 760,1905 766,1902 771,1900 775,1899 778,1899 780,1900 781,1902 781,1905 780,1909 778,1914 775,1920 771,1927 766,1935 760,1944 753,1954 747,1965 742,1977 738,1990 735,2004 733,2019 732,2033 732,2046 733,2058 735,2069 738,2079 742,2088 747,2096 753,2103 758,2109 762,2114 765,2118 767,2121 768,2123 768,2124 767,2124 765,2123 762,2121 758,2118 753,2114 749,2109 746,2103 744,2096 743,2088 743,2079 744,2069 746,2058 749,2046 753,2033 756,2021 758,2010 759,2000 759,1991 758,1983 756,1976 753,1970 751,1965 750,1961 750,1958 751,1956 753,1955 754,1955 754,1956 753,1958 753,1961 753,1965 753,1970 753,1976 753,1983 753,1991 753,2000 753,2010 753,2021 753,2031 753,2040 753,2048 753,2055 753,2061 753,2066 753,2070 753,2073 753,2075 753,2076 753,2076 753,2075 753,2073 753,2070 753,2066 753,2061 753,2055 753,2048 753,2040 753,2031 753,2023 753,2016 753,2010 753,2005 753,2001 753,1998 753,1996 753,1995 753,1995 753,1996 753,1998 753,2001 753,2005 753,2010 753,2016 753,2023 753,2029 753,2034 753,2038 753,2041 753,2043 753,2044 753,2044 753,2043 753,2041 753,2038 753,2034 753,2029 753,2025 754,2022 756,2020 759,2019 761,2019 762,2020 762,2022 761,2025 759,2029 758,2034 758,2040 759,2047 759,2055 759,2064 759,2074 759,2085 759,2097 759,2110 759,2124 759,2137 759,2149 759,2160 759,2170 759,2179 759,2187 759,2194 759,2200 759,2205 759,2209 759,2212 759,2214 759,2215 759,2215 759,2214 759,2212 759,2209 759,2205 759,2200 759,2194 759,2187 759,2179 759,2170 759,2160 759,2149 759,2137 759,2126 759,2116 759,2107 759,2099 759,2092 759,2086 759,2081 759,2077 759,2074 759,2072 759,2071 759,2071 759,2072 759,2074 759,2077 759,2081 759,2086 759,2092 759,2099 759,2107 759,2116 759,2126 759,2135 759,2143 759,2150 759,2156 759,2161 759,2165 759,2168 759,2170 759,2171 759,2171 759,2170 759,2168 759,2165 759,2161 759,2156 759,2150 759,2143 759,2135 759,2128 758,2122 756,2117 753,2113 749,2110 746,2108 744,2107 743,2107 743,2108 744,2110 746,2113 747,2117 747,2122 747,2128 747,2135 747,2141 747,2146 747,2150 747,2153 747,2155 747,2156 747,2156 747,2155 747,2153 747,2150 747,2146 747,2141 747,2137 747,2134 747,2132 747,2131 747,2131 747,2132 747,2134 747,2137 747,2139 747,2140 747,2140 747,2139 747,2138 748,2136 750,2133 753,2129 757,2124 762,2118 768,2111 775,2103 783,2094 792,2084 800,2073 807,2061 813,2048 818,2034 822,2019 825,2003 827,1986 828,1968 828,1949 827,1929 825,1908 822,1888 818,1869 813,1851 807,1834 800,1818 794,1803 789,1789 785,1776 782,1764 780,1753 779,1743 779,1734 780,1726 782,1719 785,1713 789,1708 794,1704 798,1701 801,1699 803,1698 804,1698 804,1699 803,1701 801,1704 798,1708 796,1713 795,1719 795,1726 796,1734 798,1743 799,1753 799,1764 798,1776 798,1789 798,1803 798,1818 798,1834 798,1851 798,1869 798,1888 798,1906 798,1923 798,1939 798,1954 798,1968 798,1981 798,1993 798,2004 798,2014 798,2023 798,2031 798,2038 798,2044 798,2049 798,2053 798,2056 798,2058 798,2059 798,2059 798,2058 798,2056 798,2053 798,2049 798,2044 798,2038 798,2031 798,2023 798,2014 798,2004 798,1993 798,1981 798,1968 798,1954 798,1939 798,1923 798,1906 798,1890 798,1875 798,1861 798,1848 798,1836 798,1825 798,1815 798,1806 798,1798 798,1791 798,1785 798,1780 798,1776 798,1773 798,1771 798,1770 798,1770 798,1771 798,1773 798,1776 798,1780 798,1785 798,1791 798,1798 798,1806 798,1815 798,1825 798,1836 798,1848 798,1861 798,1875 798,1890 798,1904 798,1917 798,1929 798,1940 798,1950 798,1959 798,1967 798,1974 798,1980 798,1985 798,1989 798,1992 798,1994 798,1995 798,1995 798,1994 798,1992 798,1989 798,1985 798,1980 798,1974 798,1967 798,1959 798,1950 798,1940 798,1929 798,1917 798,1904 798,1892 798,1881 798,1871 798,1862 798,1854 798,1847 798,1841 798,1836 798,1832 798,1829 798,1827 798,1826 798,1826 798,1827 798,1829 798,1832 798,1836 798,1841 798,1847 798,1854 798,1862 798,1871 798,1881 798,1892 798,1902 797,1913 795,1925 792,1936 788,1946 783,1955 779,1963 776,1970 774,1976 773,1981 773,1985 774,1988 776,1990 779,1991 783,1991 786,1990 788,1988 789,1985 789,1981 788,1976 786,1970 783,1963 781,1955 780,1946 780,1936 781,1927 783,1919 784,1912 784,1906 783,1901 783,1897 783,1894 783,1892 783,1891 783,1891 783,1892 783,1894 783,1897 783,1901 783,1906 783,1912 783,1919 783,1927 783,1934 783,1940 783,1945 783,1949 783,1952 783,1954 783,1955 783,1955 783,1954 783,1952 783,1949 783,1945 783,1940 783,1934 783,1929 783,1925 783,1922 783,1920 783,1919 783,1919 783,1920 783,1922 783,1925 783,1929 783,1932 783,1934 783,1935 783,1935 783,1934 783,1932 783,1930 782,1929 780,1929 777,1930 773,1932 768,1935 762,1939 755,1944 747,1950 738,1957 728,1965 719,1974 711,1984 704,1995 698,2007 693,2020 689,2034 686,2049 684,2065 683,2082 683,2100 684,2119 686,2139 689,2158 693,2176 698,2193 704,2209 711,2224 719,2238 726,2251 732,2263 737,2274 741,2284 744,2293 746,2301 747,2308 747,2314 746,2319 744,2323 741,2326 737,2328 732,2329 726,2329 721,2328 717,2326 714,2323 712,2319 711,2314 711,2308 712,2301 714,2293 717,2284 721,2274 726,2263 730,2251 733,2238 735,2224 736,2209 736,2193 735,2176 733,2158 730,2141 726,2125 723,2110 721,2096 720,2083 720,2071 721,2060 723,2050 726,2041 728,2033 729,2026 729,2020 728,2015 726,2011 725,2008 725,2006 726,2005 726,2005 726,2006 726,2008 726,2011 726,2015 726,2020 726,2026 726,2033 726,2041 726,2050 726,2060 726,2071 726,2083 726,2096 726,2110 726,2125 726,2141 726,2156 726,2170 726,2183 726,2195 726,2206 726,2216 726,2225 726,2233 726,2240 726,2246 726,2251 726,2255 726,2258 726,2260 726,2261 726,2261 726,2260 726,2258 726,2255 726,2251 726,2246 726,2240 726,2233 726,2225 726,2216 726,2206 726,2195 726,2183 726,2170 726,2156 726,2143 726,2131 726,2120 726,2110 726,2101 726,2093 726,2086 726,2080 726,2075 726,2071 726,2068 726,2066 726,2065 726,2065 726,2066 726,2068 726,2071 726,2075 726,2080 726,2086 726,2093 726,2101 726,2110 726,2120 726,2131 726,2143 726,2154 726,2164 726,2173 726,2181 726,2188 726,2194 726,2199 726,2203 726,2206 726,2208 726,2209 726,2209 726,2208 726,2206 726,2203 726,2199 726,2194 726,2188 726,2181 726,2173 726,2164 726,2154 726,2145 725,2137 723,2130 720,2124 716,2119 711,2115 705,2112 698,2110 690,2109 681,2109 671,2110 662,2112 654,2115 647,2119 641,2124 636,2130 632,2137 629,2145 627,2154 626,2164 626,2175 627,2187 629,2200 632,2214 636,2227 641,2239 647,2250 654,2260 662,2269 669,2277 675,2284 680,2290 684,2295 687,2299 689,2302 690,2304 690,2305 689,2305 687,2304 684,2302 680,2299 675,2295 669,2290 664,2284 660,2277 657,2269 655,2260 654,2250 654,2239 655,2227 657,2216 660,2206 664,2197 668,2189 671,2182 673,2176 674,2171 674,2167 673,2164 671,2162 668,2161 666,2161 665,2162 665,2164 666,2167 668,2171 669,2176 669,2182 668,2189 668,2197 668,2206 668,2216 668,2225 667,2235 665,2246 662,2258 658,2269 653,2279 647,2288 640,2296 632,2303 625,2309 619,2314 614,2318 610,2321 607,2323 605,2324 604,2324 604,2323 605,2321 607,2318 610,2314 614,2309 619,2303 625,2296 630,2288 634,2279 637,2269 639,2260 640,2252 640,2245 639,2239 637,2234 634,2230 630,2227 627,2225 625,2224 624,2224 624,2225 625,2227 627,2230 628,2234 628,2239 627,2245 627,2252 627,2260 626,2267 624,2273 621,2278 617,2282 614,2285 612,2287 611,2288 611,2288 612,2287 614,2285 617,2282 619,2278 620,2273 620,2267 619,2262 617,2258 616,2255 616,2253 617,2252 617,2252 617,2253 617,2255 617,2258 617,2262 617,2266 618,2269 620,2271 623,2272 627,2272 632,2271 638,2269 645,2266 653,2262 662,2257 672,2251 683,2244 695,2236 708,2227 722,2217 737,2206 753,2194 770,2181 788,2167 805,2152 821,2136 836,2119 850,2101 863,2082 875,2062 886,2041 896,2019 905,1996 913,1972 920,1947 926,1921 931,1896 935,1872 938,1849 940,1827 941,1806 941,1786 940,1767 938,1749 935,1732 931,1716 926,1701 920,1687 913,1674 905,1662 896,1651 886,1641 875,1632 863,1624 850,1617 836,1611 821,1606 805,1602 790,1599 776,1597 763,1596 751,1596 740,1597 730,1599 721,1602 713,1606 706,1611 700,1617 695,1624 691,1632 688,1641 686,1651 685,1662 685,1674 686,1687 688,1701 691,1716 695,1732 700,1749 706,1767 713,1786 721,1806 730,1827 740,1849 751,1872 763,1896 776,1919 790,1941 803,1962 815,1982 826,2001 836,2019 845,2036 853,2052 860,2067 866,2081 871,2094 875,2106 878,2117 880,2127 881,2136 881,2144 880,2151 878,2157 875,2162 871,2166 866,2169 860,2171 853,2172 845,2172 836,2171 826,2169 815,2166 803,2162 792,2157 782,2151 773,2144 765,2136 758,2127 752,2117 747,2106 743,2094 740,2081 738,2067 737,2052 737,2036 738,2019 740,2001 743,1982 747,1962 752,1941 758,1919 765,1898 773,1878 782,1859 792,1841 801,1824 809,1808 816,1793 822,1779 827,1766 831,1754 834,1743 836,1733 837,1724 837,1716 836,1709 834,1703 831,1698 827,1694 822,1691 816,1689 809,1688 801,1688 793,1689 786,1691 780,1694 775,1698 771,1703 768,1709 766,1716 765,1724 765,1733 766,1743 768,1754 771,1766 775,1779 780,1793 786,1808 793,1824 799,1841 804,1859 808,1878 811,1898 813,1917 814,1935 814,1952 813,1968 811,1983 808,1997 804,2010 799,2022 793,2033 788,2043 784,2052 781,2060 779,2067 778,2073 778,2078 779,2082 781,2085 784,2087 788,2088 793,2088 797,2087 800,2085 802,2082 803,2078 803,2073 802,2067 800,2060 797,2052 793,2043 790,2033 788,2022 787,2010 787,1997 788,1983 790,1968 793,1952 795,1935 796,1917 796,1900 795,1884 793,1869 792,1855 792,1842 793,1830 793,1819 793,1809 793,1800 793,1792 793,1785 793,1779 793,1774 793,1770 793,1767 793,1765 793,1764 793,1764 793,1765 793,1767 793,1770 793,1774 793,1779 793,1785 793,1792 793,1800 793,1809 793,1819 793,1830 793,1842 793,1855 793,1869 793,1884 793,1900 793,1915 793,1929 793,1942 793,1954 793,1965 793,1975 793,1984 793,1992 793,1999 793,2005 793,2010 793,2014 793,2017 793,2019 793,2020 793,2020 793,2019 793,2017 793,2014 793,2010 793,2005 793,1999 793,1992 793,1984 793,1975 793,1965 793,1954 793,1942 793,1929 793,1915 793,1902 793,1890 793,1879 793,1869 793,1860 793,1852 793,1845 793,1839 793,1834 793,1830 793,1827 793,1825 793,1824 793,1824 793,1825 793,1827 793,1830 793,1834 793,1839 793,1845 793,1852 793,1860 793,1869 793,1879 793,1890 793,1902 793,1913 793,1923 793,1932 793,1940 793,1947 793,1953 793,1958 793,1962 793,1965 793,1967 793,1968 793,1968 793,1967 793,1965 793,1962 793,1958 793,1953 793,1947 793,1940 793,1932 793,1923 793,1913 793,1904 793,1896 793,1889 793,1883 793,1878 793,1874 793,1871 793,1869 793,1868 793,1868 793,1869 793,1871 793,1874 793,1878 793,1883 793,1889 793,1896 793,1904 793,1911 793,1917 793,1922 793,1926 793,1929 793,1931 793,1932 793,1932 793,1931 793,1929 793,1926 793,1922 793,1917 793,1911 793,1906 793,1902 793,1899 793,1897 793,1896 793,1896 793,1897 793,1899 793,1902 793,1906 793,1909 793,1911 793,1912 793,1912 793,1911 793,1909 793,1907 792,1906 790,1906 787,1907 783,1909 778,1912 772,1916 765,1921 758,1927 752,1934 747,1942 743,1951 740,1961 738,1972 737,1984 737,1997 738,2011 740,2026 743,2042 747,2059 752,2075 758,2090 763,2104 767,2117 770,2129 772,2140 773,2150 773,2159 772,2167 770,2174 767,2180 763,2185 758,2189 754,2192 751,2194 749,2195 748,2195 748,2194 749,2192 751,2189 754,2185 758,2180 761,2174 763,2167 764,2159 764,2150 763,2140 761,2129 758,2117 756,2104 755,2090 755,2075 756,2061 758,2048 759,2036 759,2025 758,2015 758,2006 758,1998 758,1991 758,1985 758,1980 758,1976 758,1973 758,1971 758,1970 758,1970 758,1971 758,1973 758,1976 758,1980 758,1985 758,1991 758,1998 758,2006 758,2015 758,2025 758,2036 758,2048 758,2061 758,2073 758,2084 758,2094 758,2103 758,2111 758,2118 758,2124 758,2129 758,2133 758,2136 758,2138 758,2139 758,2139 758,2138 758,2136 758,2133 758,2129 758,2124 758,2118 758,2111 758,2103 758,2094 758,2084 758,2073 758,2063 759,2052 761,2040 764,2027 768,2013 773,1998 777,1982 780,1965 782,1947 783,1930 783,1914 782,1899 780,1885 777,1872 773,1860 770,1849 768,1839 767,1830 767,1822 768,1815 770,1809 773,1804 775,1800 776,1797 776,1795 775,1794 773,1794 772,1795 772,1797 773,1800 773,1804 773,1809 773,1815 773,1822 773,1830 773,1839 773,1849 773,1860 773,1872 773,1885 773,1899 773,1914 773,1930 773,1945 774,1959 776,1972 779,1984 783,1995 788,2005 792,2014 795,2022 797,2029 798,2035 798,2040 797,2044 795,2047 792,2049 789,2050 787,2050 786,2049 786,2047 787,2044 789,2040 790,2035 790,2029 789,2022 789,2014 789,2005 789,1995 789,1984 789,1972 789,1959 789,1945 789,1930 789,1914 789,1897 789,1881 789,1866 789,1852 789,1839 789,1827 789,1816 789,1806 789,1797 789,1789 789,1782 789,1776 789,1771 789,1767 789,1764 789,1762 789,1761 789,1761 789,1762 789,1764 789,1767 789,1771 789,1776 789,1782 789,1789 789,1797 789,1806 789,1816 789,1827 789,1839 789,1852 789,1866 789,1881 789,1896 788,1912 786,1929 783,1947 779,1966 774,1986 770,2007 767,2029 765,2052 764,2076 764,2101 765,2125 767,2148 770,2170 772,2191 773,2211 773,2230 772,2248 771,2265 771,2281 771,2296 771,2310 771,2323 771,2335 771,2346 771,2356 771,2365 771,2373 771,2380 771,2386 771,2391 771,2395 771,2398 771,2400 771,2401 771,2401 771,2400 771,2398 771,2395 771,2391 771,2386 771,2380 771,2373 771,2365 771,2356 771,2346 771,2335 771,2323 771,2310 771,2296 771,2281 771,2265 771,2248 771,2230 771,2211 771,2191 771,2170 771,2148 771,2125 771,2103 771,2082 771,2062 771,2043 771,2025 771,2008 771,1992 771,1977 771,1963 771,1950 771,1938 771,1927 771,1917 771,1908 771,1900 771,1893 771,1887 771,1882 771,1878 771,1875 771,1873 771,1872 771,1872 771,1873 771,1875 771,1878 771,1882 771,1887 771,1893 771,1900 771,1908 771,1917 771,1927 771,1938 771,1950 771,1963 771,1977 771,1992 771,2008 771,2025 771,2043 771,2062 771,2082 771,2103 771,2123 771,2142 771,2160 771,2177 771,2193 771,2208 771,2222 771,2235 771,2247 771,2258 771,2268 771,2277 771,2285 771,2292 771,2298 771,2303 771,2307 771,2310 771,2312 771,2313 771,2313 771,2312 771,2310 771,2307 771,2303 771,2298 771,2292 771,2285 771,2277 771,2268 771,2258 771,2247 771,2235 771,2222 771,2208 771,2193 771,2177 771,2160 771,2142 771,2123 771,2105 771,2088 771,2072 771,2057 771,2043 771,2030 771,2018 771,2007 771,1997 771,1988 771,1980 771,1973 771,1967 771,1962 771,1958 771,1955 771,1953 771,1952 771,1952 771,1953 771,1955 771,1958 771,1962 771,1967 771,1973 771,1980 771,1988 771,1997 771,2007 771,2018 771,2030 771,2043 771,2057 771,2072 771,2088 771,2105 771,2121 771,2136 771,2150 771,2163 771,2175 771,2186 771,2196 771,2205 771,2213 771,2220 771,2226 771,2231 771,2235 771,2238 771,2240 771,2241 771,2241 771,2240 771,2238 771,2235 771,2231 771,2226 771,2220 771,2213 771,2205 771,2196 771,2186 771,2175 771,2163 771,2150 771,2136 771,2121 771,2107 771,2094 771,2082 771,2071 771,2061 771,2052 771,2044 771,2037 771,2031 771,2026 771,2022 771,2019 771,2017 771,2016 771,2016 771,2017 771,2019 771,2022 771,2026 771,2031 771,2037 771,2044 771,2052 771,2061 771,2071 771,2082 771,2094 771,2107 771,2119 771,2130 771,2140 771,2149 771,2157 771,2164 771,2170 771,2175 771,2179 771,2182 771,2184 771,2185 771,2185 771,2184 771,2182 771,2179 771,2175 771,2170 771,2164 771,2157 771,2149 771,2140 771,2130 771,2119 771,2109 771,2100 771,2092 771,2085 771,2079 771,2074 771,2070 771,2067 771,2065 771,2064 771,2064 771,2065 771,2067 771,2070 771,2074 771,2079 771,2085 771,2092 771,2100 771,2109 771,2117 771,2124 771,2130 771,2135 771,2139 771,2142 771,2144 771,2145 771,2145 771,2144 771,2142 771,2139 771,2135 771,2130 771,2124 771,2117 771,2111 771,2106 771,2102 771,2099 771,2097 771,2096 771,2096 771,2097 771,2099 771,2102 771,2106 771,2111 771,2115 771,2118 771,2120 771,2121 771,2121 771,2120 771,2118 771,2115 771,2113 771,2112 771,2112 771,2113 771,2114 770,2116 768,2119 765,2123 761,2128 756,2134 750,2141 743,2149 735,2158 726,2168 716,2179 705,2191 693,2204 680,2218 666,2233 651,2249 635,2266 618,2282 602,2297 587,2311 573,2324 560,2336 548,2347 537,2357 527,2366 518,2374 510,2381 503,2387 497,2392 492,2396 488,2399 485,2401 483,2402 482,2402 482,2401 483,2399 485,2396 488,2392 492,2387 497,2381 503,2374 510,2366 518,2357 527,2347 537,2336 548,2324 560,2311 573,2297 587,2282 602,2268 616,2255 629,2243 641,2232 652,2222 662,2213 671,2205 679,2198 686,2192 692,2187 697,2183 701,2180 704,2178 706,2177 707,2177 707,2178 706,2180 704,2183 701,2187 697,2192 692,2198 686,2205 679,2213 671,2222 662,2232 652,2243 641,2255 629,2268 616,2280 604,2291 593,2301 583,2310 574,2318 566,2325 559,2331 553,2336 548,2340 544,2343 541,2345 539,2346 538,2346 538,2345 539,2343 541,2340 544,2336 548,2331 553,2325 559,2318 566,2310 574,2301 583,2291 593,2280 604,2270 614,2261 623,2253 631,2246 638,2240 644,2235 649,2231 653,2228 656,2226 658,2225 659,2225 659,2226 658,2228 656,2231 653,2235 649,2240 644,2246 638,2253 631,2261 623,2270 614,2278 606,2285 599,2291 593,2296 588,2300 584,2303 581,2305 579,2306 578,2306 578,2305 579,2303 581,2300 584,2296 588,2291 593,2285 599,2278 606,2272 614,2267 621,2263 627,2260 632,2258 636,2257 639,2257 641,2258 642,2260 642,2263 641,2267 639,2272 636,2276 632,2279 627,2281 621,2282 614,2282 608,2281 603,2279 599,2276 596,2272 594,2269 593,2267 593,2266 594,2266 596,2267 599,2269 603,2272 608,2274 614,2275 619,2275 623,2274 626,2272 628,2271 629,2271 629,2272 628,2272 626,2272 623,2272 619,2272 614,2272 610,2271 607,2269 605,2266 604,2262 604,2257 605,2251 607,2244 610,2236 614,2227 619,2217 625,2206 632,2194 640,2181 649,2167 659,2154 670,2142 682,2131 695,2121 707,2112 718,2104 728,2097 737,2091 745,2086 752,2082 758,2079 763,2077 767,2076 770,2076 772,2077 773,2079 773,2082 772,2086 770,2091 767,2097 763,2104 758,2112 752,2121 745,2131 737,2142 728,2154 718,2165 707,2175 697,2184 688,2192 680,2199 673,2205 667,2210 662,2214 658,2217 655,2219 653,2220 652,2220 652,2219 653,2217 655,2214 658,2210 662,2205 667,2199 673,2192 680,2184 688,2175 697,2165 706,2156 714,2148 721,2141 727,2135 732,2130 736,2126 739,2123 741,2121 742,2120 742,2120 741,2121 739,2123 736,2126 732,2130 727,2135 721,2141 714,2148 706,2156 699,2163 693,2169 688,2174 684,2178 681,2181 679,2183 678,2184 678,2184 679,2183 681,2181 684,2178 688,2174 693,2169 699,2163 706,2157 714,2150 723,2142 733,2133 744,2123 756,2112 769,2100 781,2087 792,2073 802,2058 811,2042 819,2025 826,2007 832,1988 837,1968 841,1947 844,1927 846,1908 847,1890 847,1873 846,1857 844,1842 841,1828 837,1815 832,1803 826,1792 819,1782 811,1773 802,1765 792,1758 781,1752 771,1747 762,1743 754,1740 747,1738 741,1737 736,1737 732,1738 729,1740 727,1743 726,1747 726,1752 727,1758 729,1765 732,1773 736,1782 741,1792 747,1803 754,1815 762,1828 771,1842 781,1857 790,1873 798,1890 805,1908 811,1927 816,1945 820,1962 823,1978 825,1993 826,2007 826,2020 825,2032 823,2043 820,2053 816,2062 811,2070 805,2077 798,2083 790,2088 781,2092 773,2095 766,2097 760,2098 755,2098 751,2097 748,2095 746,2092 745,2088 745,2083 746,2077 748,2070 751,2062 755,2053 760,2043 766,2032 773,2020 781,2007 788,1993 794,1978 799,1962 803,1945 806,1929 808,1914 809,1900 809,1887 808,1875 806,1864 803,1854 799,1845 794,1837 788,1830 781,1824 775,1819 770,1815 766,1812 763,1810 761,1809 760,1809 760,1810 761,1812 763,1815 766,1819 770,1824 775,1830 781,1837 786,1845 790,1854 793,1864 795,1875 796,1887 796,1900 795,1914 793,1929 790,1943 786,1956 781,1968 777,1979 774,1989 772,1998 771,2006 771,2013 772,2019 774,2024 777,2028 781,2031 784,2033 786,2034 787,2034 787,2033 786,2031 784,2028 781,2024 779,2019 778,2013 778,2006 779,1998 781,1989 782,1979 782,1968 781,1956 781,1943 781,1931 781,1920 781,1910 781,1901 781,1893 781,1886 781,1880 781,1875 781,1871 781,1868 781,1866 781,1865 781,1865 781,1866 781,1868 781,1871 781,1875 781,1880 781,1886 781,1893 781,1901 781,1910 781,1920 781,1931 781,1941 781,1950 781,1958 781,1965 781,1971 781,1976 781,1980 781,1983 781,1985 781,1986 781,1986 781,1985 781,1983 781,1980 781,1976 781,1971 781,1965 781,1958 781,1950 781,1941 781,1933 781,1926 781,1920 781,1915 781,1911 781,1908 781,1906 781,1905 781,1905 781,1906 781,1908 781,1911 781,1915 781,1920 781,1926 781,1933 781,1939 781,1944 781,1948 781,1951 781,1953 781,1954 781,1954 781,1953 781,1951 781,1948 781,1944 781,1939 781,1934 780,1930 778,1927 775,1925 771,1924 766,1924 762,1925 759,1927 757,1930 756,1934 756,1939 757,1945 759,1950 762,1954 764,1957 765,1959 765,1960 764,1960 763,1959 763,1957 763,1954 763,1950 763,1947 763,1945 763,1944 763,1944 763,1945 763,1947 763,1949 762,1952 760,1956 758,1961 757,1967 757,1974 758,1980 758,1985 758,1989 758,1992 758,1994 758,1995 758,1995 758,1994 758,1992 758,1989 758,1985 758,1980 758,1974 759,1967 761,1959 764,1950 768,1940 773,1929 779,1917 786,1904 794,1892 801,1881 807,1871 812,1862 816,1854 819,1847 821,1841 822,1836 822,1832 821,1829 819,1827 816,1826 812,1826 807,1827 801,1829 796,1832 792,1836 789,1841 787,1847 786,1854 786,1862 787,1871 789,1881 792,1892 796,1904 799,1915 801,1925 802,1934 802,1942 801,1949 799,1955 797,1960 796,1964 796,1967 797,1969 797,1970 797,1970 797,1969 797,1967 797,1964 797,1960 797,1955 797,1949 797,1942 797,1934 797,1925 797,1915 797,1904 796,1894 794,1885 791,1877 787,1870 782,1864 776,1859 769,1855 761,1852 754,1850 748,1849 743,1849 739,1850 736,1852 734,1855 733,1859 733,1864 734,1870 736,1877 739,1885 743,1894 748,1904 754,1915 759,1927 763,1940 766,1954 768,1969 769,1985 769,2000 768,2014 766,2027 763,2039 759,2050 754,2060 750,2069 747,2077 745,2084 744,2090 744,2095 745,2099 747,2102 750,2104 754,2105 757,2105 759,2104 760,2102 760,2099 759,2095 757,2090 754,2084 752,2077 751,2069 751,2060 752,2050 754,2039 755,2027 755,2014 754,2000 754,1987 754,1975 754,1964 754,1954 754,1945 754,1937 754,1930 754,1924 754,1919 754,1915 754,1912 754,1910 754,1909 754,1909 754,1910 754,1912 754,1915 754,1919 754,1924 754,1930 754,1937 754,1945 754,1954 754,1964 754,1975 754,1987 754,1998 754,2010 754,2021 754,2031 754,2040 754,2048 754,2055 754,2061 754,2066 754,2070 754,2073 754,2075 754,2076 754,2076 754,2075 754,2073 754,2070 754,2066 754,2061 754,2055 754,2048 754,2040 754,2031 754,2021 754,2012 754,2004 754,1997 754,1991 754,1986 754,1982 754,1979 754,1977 754,1976 754,1976 754,1977 754,1979 754,1982 754,1986 754,1991 754,1997 754,2004 754,2012 754,2020 755,2029 757,2039 760,2050 764,2062 767,2075 769,2087 770,2098 770,2108 769,2117 767,2125 765,2132 764,2138 764,2143 765,2147 765,2150 765,2152 765,2153 765,2153 765,2152 765,2150 765,2147 765,2143 765,2138 765,2132 765,2125 765,2117 765,2108 765,2098 765,2087 765,2077 765,2068 765,2060 765,2053 765,2047 765,2042 765,2038 765,2035 765,2033 765,2032 765,2032 765,2033 765,2035 765,2038 765,2042 765,2047 765,2053 765,2060 765,2068 765,2077 765,2085 765,2092 765,2098 765,2103 765,2107 765,2110 765,2112 765,2113 765,2113 765,2112 765,2110 765,2107 765,2103 765,2098 765,2092 765,2085 765,2079 765,2074 765,2070 765,2067 765,2065 765,2064 765,2064 765,2065 765,2067 765,2070 765,2074 765,2079 765,2083 765,2086 765,2088 765,2089 765,2089 765,2088 765,2086 765,2083 765,2081 764,2078 764,2074 764,2069 764,2063 764,2056 764,2048 764,2039 764,2029 764,2018 764,2006 764,1993 764,1979 764,1964 764,1950 764,1937 764,1925 764,1914 764,1904 764,1895 764,1887 764,1880 764,1874 764,1869 764,1865 764,1862 764,1860 764,1859 764,1859 764,1860 764,1862 764,1865 764,1869 764,1874 764,1880 764,1887 764,1895 764,1904 764,1914 764,1925 764,1937 764,1950 764,1963 765,1977 767,1992 770,2008 772,2025 773,2043 773,2062 772,2082 770,2101 769,2119 769,2136 770,2152 770,2167 770,2181 770,2194 770,2206 770,2217 770,2227 770,2236 770,2244 770,2251 770,2257 770,2262 770,2266 770,2269 770,2271 770,2272 770,2272 770,2271 770,2269 770,2266 770,2262 770,2257 770,2251 770,2244 770,2236 770,2227 770,2217 770,2206 770,2194 770,2181 770,2167 770,2152 770,2136 770,2119 770,2101 770,2084 770,2068 770,2053 770,2039 770,2026 770,2014 770,2003 770,1993 770,1984 770,1976 770,1969 770,1963 770,1958 770,1954 770,1951 770,1949 770,1948 770,1948 770,1949 770,1951 770,1954 770,1958 770,1963 770,1969 770,1976 770,1984 770,1993 770,2003 770,2014 770,2026 770,2039 770,2053 770,2068 770,2084 770,2099 770,2113 770,2126 770,2138 770,2149 770,2159 770,2168 770,2176 770,2183 770,2189 770,2194 770,2198 770,2201 770,2203 770,2204 770,2204 770,2203 770,2201 770,2198 770,2194 770,2189 770,2183 770,2176 770,2168 770,2159 770,2149 770,2138 770,2126 770,2113 770,2099 770,2086 770,2074 770,2063 770,2053 770,2044 770,2036 770,2029 770,2023 770,2018 770,2014 770,2011 770,2009 770,2008 770,2008 770,2009 770,2011 770,2014 770,2018 770,2023 770,2029 770,2036 770,2044 770,2053 770,2063 770,2074 770,2086 770,2097 770,2107 770,2116 770,2124 770,2131 770,2137 770,2142 770,2146 770,2149 770,2151 770,2152 770,2152 770,2151 770,2149 770,2146 770,2142 770,2137 770,2131 770,2124 770,2116 770,2107 770,2097 770,2088 770,2080 770,2073 770,2067 770,2062 770,2058 770,2055 770,2053 770,2052 770,2052 770,2053 770,2055 770,2058 770,2062 770,2067 770,2073 770,2080 770,2088 770,2095 770,2101 770,2106 770,2110 770,2113 770,2115 770,2116 770,2116 770,2115 770,2113 770,2110 770,2106 770,2101 770,2095 770,2090 770,2086 770,2083 770,2081 770,2080 770,2080 770,2081 770,2083 770,2086 770,2090 770,2094 769,2099 767,2105 764,2112 760,2120 755,2129 749,2139 742,2150 734,2160 725,2169 715,2177 706,2184 698,2190 691,2195 685,2199 680,2202 676,2204 673,2205 671,2205 670,2204 670,2202 671,2199 673,2195 676,2190 680,2184 685,2177 691,2169 698,2160 706,2150 715,2141 723,2133 730,2126 736,2120 741,2115 745,2111 748,2108 750,2106 751,2105 751,2105 750,2106 748,2108 745,2111 741,2115 736,2120 730,2126 723,2133 715,2141 708,2150 702,2158 697,2165 693,2171 690,2176 688,2180 687,2183 687,2185 688,2186 690,2186 693,2185 697,2183 702,2180 708,2176 715,2171 721,2165 726,2158 730,2150 733,2143 735,2137 736,2132 736,2128 735,2125 733,2123 730,2122 726,2122 721,2123 715,2125 710,2128 706,2132 703,2137 701,2143 700,2150 700,2156 701,2161 703,2165 706,2168 710,2170 715,2171 719,2171 722,2170 724,2168 725,2165 725,2161 724,2156 722,2150 719,2145 715,2141 712,2138 710,2136 709,2135 709,2135 710,2136 712,2138 715,2141 717,2145 718,2150 718,2154 717,2157 715,2159 714,2160 714,2160 715,2159 715,2157 715,2154 715,2150 716,2145 718,2139 721,2134 725,2130 730,2127 736,2125 743,2124 751,2124 758,2125 764,2127 769,2130 773,2134 776,2137 778,2139 779,2140 779,2140 778,2139 776,2137 773,2136 769,2136 764,2136 758,2136 751,2136 745,2135 740,2134 736,2134 733,2134 731,2134 730,2134 730,2134 731,2134 733,2134 736,2134 740,2134 745,2134 751,2134 756,2134 760,2134 763,2134 765,2134 766,2134 766,2134 765,2134 763,2134 760,2134 756,2134 753,2134 751,2134 750,2134 750,2134 751,2134 753,2134 754,2134 754,2135 753,2137 751,2140 748,2144 744,2149 739,2155 733,2162 726,2168 718,2173 709,2177 699,2180 690,2182 682,2183 675,2183 669,2182 664,2180 660,2177 657,2173 655,2168 654,2164 654,2161 655,2159 657,2158 660,2158 664,2159 669,2161 675,2164 682,2166 690,2167 699,2167 707,2166 714,2164 720,2163 725,2163 729,2164 732,2164 734,2164 735,2164 735,2164 734,2164 732,2164 729,2164 725,2164 720,2164 714,2164 707,2164 699,2164 692,2163 686,2161 681,2158 677,2154 674,2149 672,2143 671,2136 671,2128 672,2119 674,2109 677,2098 681,2086 686,2075 692,2065 699,2056 707,2048 716,2041 726,2035 737,2030 749,2026 762,2023 774,2021 785,2020 795,2020 804,2021 812,2023 819,2026 825,2030 830,2035 834,2041 837,2048 839,2056 840,2065 840,2075 839,2085 837,2094 834,2102 830,2109 825,2115 819,2120 812,2124 804,2127 795,2129 785,2130 774,2130 764,2129 755,2127 747,2124 740,2120 734,2115 729,2109 725,2102 722,2094 720,2085 719,2077 719,2070 720,2064 722,2059 725,2055 729,2052 734,2050 740,2049 747,2049 755,2050 764,2052 772,2055 779,2059 785,2064 790,2070 794,2077 797,2085 799,2092 800,2098 800,2103 799,2107 797,2110 794,2112 790,2113 785,2113 779,2112 772,2110 766,2107 761,2103 757,2098 754,2092 752,2085 751,2079 751,2074 752,2070 754,2067 757,2065 761,2064 766,2064 770,2065 773,2067 775,2070 776,2074 776,2079 775,2085 773,2090 770,2094 767,2097 765,2099 764,2100 764,2100 765,2099 767,2097 768,2094 768,2090 767,2085 765,2079 762,2072 758,2064 755,2055 753,2045 752,2034 752,2022 753,2009 755,1995 756,1982 756,1970 755,1959 755,1949 755,1940 755,1932 755,1925 755,1919 755,1914 755,1910 755,1907 755,1905 755,1904 755,1904 755,1905 755,1907 755,1910 755,1914 755,1919 755,1925 755,1932 755,1940 755,1949 755,1959 755,1970 755,1982 755,1993 756,2003 758,2012 761,2020 765,2027 770,2033 776,2038 783,2042 789,2045 794,2047 798,2048 801,2048 803,2047 804,2045 804,2042 803,2038 801,2033 798,2027 794,2020 789,2012 785,2003 782,1993 780,1982 779,1970 779,1957 780,1943 782,1928 785,1914 789,1901 792,1889 794,1878 795,1868 795,1859 794,1851 792,1844 789,1838 787,1833 786,1829 786,1826 787,1824 789,1823 790,1823 790,1824 789,1826 789,1829 789,1833 789,1838 789,1844 789,1851 789,1859 789,1868 789,1878 789,1889 789,1901 789,1914 789,1926 789,1937 789,1947 789,1956 789,1964 789,1971 789,1977 789,1982 789,1986 789,1989 789,1991 789,1992 789,1992 789,1991 789,1989 789,1986 789,1982 789,1977 789,1971 789,1964 789,1956 789,1947 789,1937 789,1926 789,1915 788,1905 786,1896 783,1888 779,1881 774,1875 768,1870 761,1866 755,1863 750,1861 746,1860 743,1860 741,1861 740,1863 740,1866 741,1870 743,1875 746,1881 750,1888 755,1896 759,1905 762,1915 764,1926 765,1938 765,1951 764,1965 762,1980 759,1996 757,2013 756,2031 756,2050 757,2070 757,2091 757,2113 757,2134 757,2154 757,2173 757,2191 757,2208 757,2224 757,2239 757,2253 757,2266 757,2278 757,2289 757,2299 757,2308 757,2316 757,2323 757,2329 757,2334 757,2338 757,2341 757,2343 757,2344 757,2344 757,2343 757,2341 757,2338 757,2334 757,2329 757,2323 757,2316 757,2308 757,2299 757,2289 757,2278 757,2266 757,2253 757,2239 757,2224 757,2208 757,2191 757,2173 757,2154 757,2134 757,2115 757,2097 757,2080 757,2064 757,2049 757,2035 757,2022 757,2010 757,1999 757,1989 757,1980 757,1972 757,1965 757,1959 757,1954 757,1950 757,1947 757,1945 757,1944 757,1944 757,1945 757,1947 757,1950 757,1954 757,1959 757,1965 757,1972 757,1980 757,1989 757,1999 757,2010 757,2022 757,2035 757,2049 757,2064 757,2080 757,2097 757,2115 757,2132 757,2148 757,2163 757,2177 757,2190 757,2202 757,2213 757,2223 757,2232 757,2240 757,2247 757,2253 757,2258 757,2262 757,2265 757,2267 757,2268 757,2268 757,2267 757,2265 757,2262 757,2258 757,2253 757,2247 757,2240 757,2232 757,2223 757,2213 757,2202 757,2190 757,2177 757,2163 757,2148 757,2132 757,2117 757,2103 757,2090 757,2078 757,2067 757,2057 757,2048 757,2040 757,2033 757,2027 757,2022 757,2018 757,2015 757,2013 757,2012 757,2012 757,2013 757,2015 757,2018 757,2022 757,2027 757,2033 757,2040 757,2048 757,2057 757,2067 757,2078 757,2090 757,2103 757,2117 757,2130 758,2142 760,2153 762,2163 763,2172 763,2180 762,2187 762,2193 762,2198 762,2202 762,2205 762,2207 762,2208 762,2208 762,2207 762,2205 762,2202 762,2198 762,2193 762,2187 762,2180 762,2172 762,2163 762,2153 762,2142 762,2130 762,2117 762,2103 762,2088 762,2072 762,2055 762,2037 762,2018 762,1998 762,1977 762,1957 762,1938 762,1920 762,1903 762,1887 762,1872 762,1858 762,1845 762,1833 762,1822 762,1812 762,1803 762,1795 762,1788 762,1782 762,1777 762,1773 762,1770 762,1768 762,1767 762,1767 762,1768 762,1770 762,1773 762,1777 762,1782 762,1788 762,1795 762,1803 762,1812 762,1822 762,1833 762,1845 762,1858 762,1872 762,1887 762,1903 762,1920 762,1938 762,1957 762,1975 762,1992 762,2008 762,2023 762,2037 762,2050 762,2062 762,2073 762,2083 762,2092 762,2100 762,2107 762,2113 762,2118 762,2122 762,2125 762,2127 762,2128 762,2128 762,2127 762,2125 762,2122 762,2118 762,2113 762,2107 762,2100 762,2092 762,2083 762,2073 762,2062 762,2050 762,2037 762,2023 762,2008 762,1992 762,1975 762,1959 762,1944 762,1930 762,1917 762,1905 762,1894 762,1884 762,1875 762,1867 762,1860 762,1854 762,1849 762,1845 762,1842 762,1840 762,1839 762,1839 762,1840 762,1842 762,1845 762,1849 762,1854 762,1860 762,1867 762,1875 762,1884 762,1894 762,1905 762,1917 762,1930 762,1944 762,1959 762,1973 762,1986 762,1998 762,2009 762,2019 762,2028 762,2036 762,2043 762,2049 762,2054 762,2058 762,2061 762,2063 762,2064 762,2064 762,2063 762,2061 762,2058 762,2054 762,2049 762,2043 762,2036 762,2028 762,2019 762,2009 762,1998 762,1986 762,1973 762,1961 762,1950 762,1940 762,1931 762,1923 762,1916 762,1910 762,1905 762,1901 762,1898 762,1896 762,1895 762,1895 762,1896 762,1898 762,1901 762,1905 762,1910 762,1916 762,1923 762,1931 762,1940 762,1950 762,1961 762,1971 761,1980 760,1988 760,1995 760,2001 760,2006 760,2010 760,2013 760,2015 760,2016 760,2016 760,2015 760,2013 760,2010 760,2006 760,2001 760,1995 760,1988 760,1980 760,1973 761,1965 763,1956 766,1946 770,1935 775,1923 781,1912 787,1902 792,1893 796,1885 799,1878 801,1872 802,1867 802,1863 801,1860 799,1858 796,1857 792,1857 787,1858 783,1860 780,1863 778,1867 777,1872 777,1878 778,1885 780,1893 783,1902 787,1912 790,1921 792,1929 793,1936 793,1942 792,1947 790,1951 787,1954 785,1956 784,1957 784,1957 785,1956 787,1954 788,1951 788,1947 787,1942 787,1936 787,1929 787,1921 787,1914 787,1908 787,1903 787,1899 787,1896 787,1894 787,1893 787,1893 787,1894 787,1896 787,1899 787,1903 787,1908 787,1914 787,1919 786,1923 786,1926 786,1928 786,1929 786,1929 786,1928 786,1926 786,1923 786,1919 786,1914 786,1908 786,1901 786,1895 787,1890 789,1886 790,1883 790,1881 790,1880 790,1880 790,1881 790,1883 790,1886 790,1890 790,1895 790,1901 790,1908 790,1914 790,1919 790,1923 790,1926 790,1928 790,1929 790,1929 790,1928 790,1926 790,1923 790,1919 790,1914 790,1910 790,1907 790,1905 790,1904 790,1904 790,1905 790,1907 790,1910 790,1912 789,1915 787,1919 784,1924 780,1930 775,1937 769,1945 762,1954 754,1964 745,1975 737,1987 730,2000 724,2014 719,2029 715,2045 712,2062 710,2080 709,2099 709,2119 710,2140 712,2160 715,2179 719,2197 724,2214 730,2230 737,2245 743,2259 748,2272 752,2284 755,2295 757,2305 758,2314 758,2322 757,2329 755,2335 752,2340 748,2344 743,2347 737,2349 732,2350 728,2350 725,2349 723,2347 722,2344 722,2340 723,2335 725,2329 728,2322 732,2314 737,2305 741,2295 744,2284 746,2272 747,2259 747,2245 746,2230 744,2214 741,2197 737,2179 734,2160 732,2141 731,2123 731,2106 732,2090 734,2075 737,2061 739,2048 740,2036 740,2025 739,2015 737,2006 736,1998 736,1991 737,1985 737,1980 737,1976 737,1973 737,1971 737,1970 737,1970 737,1971 737,1973 737,1976 737,1980 737,1985 737,1991 737,1998 737,2006 737,2015 737,2025 737,2036 737,2048 737,2061 737,2075 737,2090 737,2106 737,2123 737,2141 738,2158 740,2174 743,2189 747,2203 752,2216 758,2228 765,2239 773,2249 780,2258 786,2266 791,2273 795,2279 798,2284 800,2288 801,2291 801,2293 800,2294 798,2294 795,2293 791,2291 786,2288 780,2284 775,2279 771,2273 768,2266 766,2258 765,2249 765,2239 766,2228 768,2216 771,2203 775,2189 778,2174 780,2158 781,2141 781,2123 780,2104 778,2084 776,2063 775,2041 775,2018 776,1994 776,1969 776,1943 776,1918 776,1894 776,1871 776,1849 776,1828 776,1808 776,1789 776,1771 776,1754 776,1738 776,1723 776,1709 776,1696 776,1684 776,1673 776,1663 776,1654 776,1646 776,1639 776,1633 776,1628 776,1624 776,1621 776,1619 776,1618 776,1618 776,1619 776,1621 776,1624 776,1628 776,1633 776,1639 776,1646 776,1654 776,1663 776,1673 776,1684 776,1696 776,1709 776,1723 776,1738 776,1754 776,1771 776,1789 776,1808 776,1828 776,1849 776,1871 776,1894 776,1918 776,1942 777,1965 779,1987 782,2008 786,2028 791,2047 795,2065 798,2082 800,2098 801,2113 801,2127 800,2140 798,2152 795,2163 792,2173 790,2182 789,2190 789,2197 790,2203 792,2208 793,2212 793,2215 792,2217 792,2218 792,2218 792,2217 792,2215 792,2212 792,2208 792,2203 792,2197 792,2190 792,2182 792,2173 792,2163 792,2152 792,2140 792,2127 792,2113 792,2098 792,2082 792,2065 792,2047 792,2028 792,2008 792,1987 792,1965 792,1942 792,1918 792,1895 792,1873 792,1852 792,1832 792,1813 792,1795 792,1778 792,1762 792,1747 792,1733 792,1720 792,1708 792,1697 792,1687 792,1678 792,1670 792,1663 792,1657 792,1652 792,1648 792,1645 792,1643 792,1642 792,1642 792,1643 792,1645 792,1648 792,1652 792,1657 792,1663 792,1670 792,1678 792,1687 792,1697 792,1708 792,1720 792,1733 792,1747 792,1762 792,1778 792,1795 792,1813 792,1832 792,1852 792,1873 792,1895 792,1916 792,1936 792,1955 792,1973 792,1990 792,2006 792,2021 792,2035 792,2048 792,2060 792,2071 792,2081 792,2090 792,2098 792,2105 792,2111 792,2116 792,2120 792,2123 792,2125 792,2126 792,2126 792,2125 792,2123 792,2120 792,2116 792,2111 792,2105 792,2098 792,2090 792,2081 792,2071 792,2060 792,2048 792,2035 792,2021 792,2006 792,1990 792,1973 792,1955 792,1936 792,1916 792,1896 791,1877 789,1859 786,1842 782,1826 777,1811 771,1797 764,1784 756,1772 747,1761 737,1751 726,1742 714,1734 701,1727 687,1721 674,1716 662,1712 651,1709 641,1707 632,1706 624,1706 617,1707 611,1709 606,1712 602,1716 599,1721 597,1727 596,1734 596,1742 597,1751 599,1761 602,1772 606,1784 611,1797 617,1811 624,1826 632,1842 641,1859 651,1877 662,1896 674,1916 685,1937 695,1959 704,1982 712,2006 719,2031 725,2057 730,2084 734,2112 737,2141 739,2171 740,2200 740,2228 739,2255 737,2281 734,2306 730,2330 725,2353 719,2375 712,2396 704,2416 695,2435 685,2453 676,2470 668,2486 661,2501 655,2515 650,2528 646,2540 643,2551 641,2561 640,2570 640,2578 641,2585 643,2591 646,2596 650,2600 655,2603 661,2605 668,2606 676,2606 685,2605 693,2603 700,2600 706,2596 711,2591 715,2585 718,2578 720,2570 721,2561 721,2551 720,2540 718,2528 715,2515 711,2501 706,2486 700,2470 693,2453 685,2435 678,2416 672,2396 667,2375 663,2353 660,2330 658,2306 657,2281 657,2255 658,2228 660,2200 663,2173 667,2147 672,2122 678,2098 685,2075 691,2053 696,2032 700,2012 703,1993 705,1975 706,1958 706,1942 705,1927 703,1913 700,1900 696,1888 691,1877 685,1867 680,1858 676,1850 673,1843 671,1837 670,1832 670,1828 671,1825 673,1823 676,1822 680,1822 685,1823 689,1825 692,1828 694,1832 695,1837 695,1843 694,1850 692,1858 689,1867 685,1877 682,1888 680,1900 679,1913 679,1927 680,1942 682,1958 685,1975 687,1993 688,2012 688,2032 687,2053 685,2075 684,2098 684,2122 685,2147 685,2173 685,2198 685,2222 685,2245 685,2267 685,2288 685,2308 685,2327 685,2345 685,2362 685,2378 685,2393 685,2407 685,2420 685,2432 685,2443 685,2453 685,2462 685,2470 685,2477 685,2483 685,2488 685,2492 685,2495 685,2497 685,2498 685,2498 685,2497 685,2495 685,2492 685,2488 685,2483 685,2477 685,2470 685,2462 685,2453 685,2443 685,2432 685,2420 685,2407 685,2393 685,2378 685,2362 685,2345 685,2327 685,2308 685,2288 685,2267 685,2245 685,2222 685,2198 685,2175 685,2153 685,2132 685,2112 685,2093 685,2075 685,2058 685,2042 685,2027 685,2013 685,2000 685,1988 685,1977 685,1967 685,1958 685,1950 685,1943 685,1937 685,1932 685,1928 685,1925 685,1923 685,1922 685,1922 685,1923 685,1925 685,1928 685,1932 685,1937 685,1943 685,1950 685,1958 685,1967 685,1977 685,1988 685,2000 685,2013 685,2027 685,2042 685,2058 685,2075 685,2093 685,2112 685,2132 685,2153 685,2175 685,2196 685,2216 685,2235 685,2253 685,2270 685,2286 685,2301 685,2315 685,2328 685,2340 685,2351 685,2361 685,2370 685,2378 685,2385 685,2391 685,2396 685,2400 685,2403 685,2405 685,2406 685,2406 685,2405 685,2403 685,2400 685,2396 685,2391 685,2385 685,2378 685,2370 685,2361 685,2351 685,2340 685,2328 685,2315 685,2301 685,2286 685,2270 685,2253 685,2235 685,2216 685,2196 685,2177 685,2159 685,2142 685,2126 685,2111 685,2097 685,2084 685,2072 685,2061 685,2051 685,2042 685,2034 685,2027 685,2021 685,2016 685,2012 685,2009 685,2007 685,2006 685,2006 685,2007 685,2009 685,2012 685,2016 685,2021 685,2027 685,2034 685,2042 685,2051 685,2061 685,2072 685,2084 685,2097 685,2111 685,2126 685,2142 685,2159 685,2177 685,2194 685,2210 685,2225 685,2239 685,2252 685,2264 685,2275 685,2285 685,2294 685,2302 685,2309 685,2315 685,2320 685,2324 685,2327 685,2329 685,2330 685,2330 685,2329 685,2327 685,2324 685,2320 685,2315 685,2309 685,2302 685,2294 685,2285 685,2275 685,2264 685,2252 685,2239 685,2225 685,2210 685,2194 685,2179 685,2165 685,2152 685,2140 685,2129 685,2119 685,2110 685,2102 685,2095 685,2089 685,2084 685,2080 685,2077 685,2075 685,2074 685,2074 685,2075 685,2077 685,2080 685,2084 685,2089 685,2095 685,2102 685,2110 685,2119 685,2129 685,2140 685,2152 685,2165 685,2179 685,2193 684,2208 682,2224 679,2241 675,2259 670,2276 664,2292 657,2307 649,2321 641,2334 634,2346 628,2357 623,2367 619,2376 616,2384 614,2391 613,2397 613,2402 614,2406 616,2409 619,2411 623,2412 628,2412 634,2411 641,2409 647,2406 652,2402 656,2397 659,2391 661,2384 662,2376 662,2367 661,2357 659,2346 656,2334 652,2321 647,2307 641,2292 636,2276 632,2261 629,2247 627,2234 626,2222 626,2211 627,2201 629,2192 632,2184 636,2177 641,2171 645,2166 648,2162 650,2159 651,2157 651,2156 650,2156 648,2157 645,2159 641,2162 638,2166 636,2171 635,2177 635,2184 636,2192 638,2201 641,2211 643,2222 644,2234 644,2247 643,2261 641,2274 640,2286 640,2297 641,2307 641,2316 641,2324 641,2331 641,2337 641,2342 641,2346 641,2349 641,2351 641,2352 641,2352 641,2351 641,2349 641,2346 641,2342 641,2337 641,2331 641,2324 641,2316 641,2307 641,2297 641,2286 641,2274 641,2261 640,2249 638,2238 635,2228 631,2219 626,2211 622,2204 619,2198 617,2193 616,2189 616,2186 617,2184 619,2183 622,2183 625,2184 627,2186 628,2189 628,2193 627,2198 625,2204 624,2211 624,2219 625,2228 625,2238 625,2249 625,2260 626,2270 628,2279 631,2287 635,2294 640,2300 646,2305 653,2309 661,2312 670,2314 680,2315 691,2315 703,2314 716,2312 730,2309 745,2305 759,2300 772,2294 784,2287 795,2279 805,2270 814,2260 822,2249 829,2237 835,2224 840,2210 844,2195 847,2179 849,2162 850,2144 850,2125 849,2105 847,2084 844,2062 840,2039 835,2015 829,1990 822,1966 814,1943 805,1921 795,1900 784,1880 772,1861 759,1843 747,1826 736,1810 726,1795 717,1781 709,1768 702,1756 696,1745 691,1735 687,1726 684,1718 682,1711 681,1705 681,1700 682,1696 684,1693 687,1691 691,1690 696,1690 702,1691 709,1693 717,1696 726,1700 736,1705 747,1711 757,1718 766,1726 774,1735 781,1745 787,1756 792,1768 796,1781 799,1795 801,1810 802,1826 802,1843 801,1861 799,1880 796,1900 792,1921 787,1943 781,1966 774,1988 766,2009 757,2029 749,2048 742,2066 736,2083 731,2099 727,2114 724,2128 722,2141 721,2153 721,2164 722,2174 724,2183 727,2191 731,2198 736,2204 742,2209 749,2213 757,2216 764,2218 770,2219 775,2219 779,2218 782,2216 784,2213 785,2209 785,2204 784,2198 782,2191 779,2183 775,2174 770,2164 764,2153 757,2141 751,2128 746,2114 742,2099 739,2083 737,2066 736,2048 736,2029 737,2009 739,1988 742,1968 746,1949 751,1931 757,1914 762,1898 766,1883 769,1869 771,1856 772,1844 772,1833 771,1823 769,1814 766,1806 762,1799 757,1793 753,1788 750,1784 748,1781 747,1779 747,1778 748,1778 750,1779 753,1781 757,1784 760,1788 762,1793 763,1799 763,1806 762,1814 760,1823 757,1833 755,1844 754,1856 754,1869 755,1883 757,1898 758,1914 758,1931 757,1949 757,1968 757,1986 757,2003 757,2019 757,2034 757,2048 757,2061 757,2073 757,2084 757,2094 757,2103 757,2111 757,2118 757,2124 757,2129 757,2133 757,2136 757,2138 757,2139 757,2139 757,2138 757,2136 757,2133 757,2129 757,2124 757,2118 757,2111 757,2103 757,2094 757,2084 757,2073 757,2061 757,2048 757,2034 757,2019 757,2003 757,1986 757,1970 757,1955 757,1941 757,1928 757,1916 757,1905 757,1895 757,1886 757,1878 757,1871 757,1865 757,1860 757,1856 757,1853 757,1851 757,1850 757,1850 757,1851 757,1853 757,1856 757,1860 757,1865 757,1871 757,1878 757,1886 757,1895 757,1905 757,1916 757,1928 757,1941 757,1955 757,1970 757,1984 757,1997 757,2009 757,2020 757,2030 757,2039 757,2047 757,2054 757,2060 757,2065 757,2069 757,2072 757,2074 757,2075 757,2075 757,2074 757,2072 757,2069 757,2065 757,2060 757,2054 757,2047 757,2039 757,2030 757,2020 757,2009 757,1997 757,1984 757,1972 757,1961 757,1951 757,1942 757,1934 757,1927 757,1921 757,1916 757,1912 757,1909 757,1907 757,1906 757,1906 757,1907 757,1909 757,1912 757,1916 757,1921 757,1927 757,1934 757,1942 757,1951 757,1961 757,1972 757,1982 757,1991 757,1999 757,2006 757,2012 757,2017 757,2021 757,2024 757,2026 757,2027 757,2027 757,2026 757,2024 757,2021 757,2017 757,2012 757,2006 757,1999 757,1991 757,1982 757,1974 757,1967 757,1961 757,1956 757,1952 757,1949 757,1947 757,1946 757,1946 757,1947 757,1949 757,1952 757,1956 757,1961 757,1967 757,1974 757,1980 757,1985 757,1989 757,1992 757,1994 757,1995 757,1995 757,1994 757,1992 757,1989 757,1985 757,1980 757,1976 758,1971 760,1965 763,1958 767,1950 772,1941 778,1931 785,1920 791,1910 796,1901 800,1893 803,1886 805,1880 806,1875 806,1871 805,1868 803,1866 800,1865 796,1865 791,1866 785,1868 778,1871 770,1875 761,1880 751,1886 740,1893 728,1901 715,1910 701,1920 686,1931 670,1943 655,1956 641,1970 628,1985 616,2001 605,2018 595,2036 586,2055 578,2075 571,2096 565,2118 560,2141 556,2165 553,2190 551,2216 550,2242 550,2267 551,2291 553,2314 556,2336 560,2357 565,2377 571,2396 578,2414 586,2431 595,2447 605,2462 616,2476 628,2489 641,2501 655,2512 668,2522 680,2531 691,2539 701,2546 710,2552 718,2557 725,2561 731,2564 736,2566 740,2567 743,2567 745,2566 746,2564 746,2561 745,2557 743,2552 740,2546 736,2539 731,2531 725,2522 718,2512 710,2501 701,2489 691,2476 680,2462 668,2447 657,2431 647,2414 638,2396 630,2377 623,2357 617,2336 612,2314 608,2291 605,2267 603,2242 602,2218 602,2195 603,2173 605,2152 608,2132 612,2113 617,2095 623,2078 630,2062 638,2047 647,2033 657,2020 666,2008 674,1997 681,1987 687,1978 692,1970 696,1963 699,1957 701,1952 702,1948 702,1945 701,1943 699,1942 696,1942 692,1943 687,1945 681,1948 674,1952 666,1957 659,1963 653,1970 648,1978 644,1987 641,1997 639,2008 638,2020 638,2033 639,2047 641,2062 644,2078 648,2095 653,2113 659,2132 664,2152 668,2173 671,2195 673,2218 674,2242 674,2265 673,2287 671,2308 668,2328 664,2347 661,2365 659,2382 658,2398 658,2413 659,2427 661,2440 662,2452 662,2463 661,2473 661,2482 661,2490 661,2497 661,2503 661,2508 661,2512 661,2515 661,2517 661,2518 661,2518 661,2517 661,2515 661,2512 661,2508 661,2503 661,2497 661,2490 661,2482 661,2473 661,2463 661,2452 661,2440 661,2427 661,2413 661,2398 661,2382 661,2365 661,2347 661,2328 661,2308 661,2287 661,2265 661,2242 662,2218 664,2193 667,2167 671,2140 676,2112 682,2083 689,2053 697,2022 706,1990 716,1957 727,1923 739,1890 752,1858 766,1827 781,1797 795,1768 808,1740 820,1713 831,1687 841,1662 850,1638 858,1615 865,1593 871,1572 876,1552 880,1533 883,1515 885,1498 886,1482 886,1467 885,1453 883,1440 880,1428 876,1417 871,1407 865,1398 858,1390 850,1383 841,1377 831,1372 820,1368 808,1365 795,1363 783,1362 772,1362 762,1363 753,1365 745,1368 738,1372 732,1377 727,1383 723,1390 720,1398 718,1407 717,1417 717,1428 718,1440 720,1453 723,1467 727,1482 732,1498 738,1515 745,1533 753,1552 762,1572 772,1593 783,1615 795,1638 806,1662 816,1687 825,1713 833,1740 840,1768 846,1797 851,1827 855,1858 858,1890 860,1921 861,1951 861,1980 860,2008 858,2035 855,2061 851,2086 846,2110 840,2133 833,2155 825,2176 816,2196 806,2215 795,2233 785,2250 776,2266 768,2281 761,2295 755,2308 750,2320 746,2331 743,2341 741,2350 740,2358 740,2365 741,2371 743,2376 746,2380 750,2383 755,2385 761,2386 768,2386 776,2385 785,2383 795,2380 804,2376 812,2371 819,2365 825,2358 830,2350 834,2341 837,2331 839,2320 840,2308 840,2295 839,2281 837,2266 834,2250 830,2233 825,2215 819,2196 812,2176 804,2155 795,2133 787,2110 780,2086 774,2061 769,2035 765,2008 762,1980 760,1951 759,1921 759,1892 760,1864 762,1837 765,1811 769,1786 774,1762 780,1739 787,1717 795,1696 802,1676 808,1657 813,1639 817,1622 820,1606 822,1591 823,1577 823,1564 822,1552 820,1541 817,1531 813,1522 808,1514 802,1507 795,1501 789,1496 784,1492 780,1489 777,1487 775,1486 774,1486 774,1487 775,1489 777,1492 780,1496 784,1501 789,1507 795,1514 800,1522 804,1531 807,1541 809,1552 810,1564 810,1577 809,1591 807,1606 804,1622 800,1639 795,1657 791,1676 788,1696 786,1717 785,1739 785,1762 786,1786 788,1811 791,1837 795,1864 798,1892 800,1919 801,1945 801,1970 800,1994 798,2017 795,2039 793,2060 792,2080 792,2099 793,2117 795,2134 796,2150 796,2165 795,2179 795,2192 795,2204 795,2215 795,2225 795,2234 795,2242 795,2249 795,2255 795,2260 795,2264 795,2267 795,2269 795,2270 795,2270 795,2269 795,2267 795,2264 795,2260 795,2255 795,2249 795,2242 795,2234 795,2225 795,2215 795,2204 795,2192 795,2179 795,2165 795,2150 795,2134 795,2117 795,2099 795,2080 795,2060 795,2039 795,2017 795,1994 795,1970 795,1945 795,1919 795,1894 795,1870 795,1847 795,1825 795,1804 795,1784 795,1765 795,1747 795,1730 795,1714 795,1699 795,1685 795,1672 795,1660 795,1649 795,1639 795,1630 795,1622 795,1615 795,1609 795,1604 795,1600 795,1597 795,1595 795,1594 795,1594 795,1595 795,1597 795,1600 795,1604 795,1609 795,1615 795,1622 795,1630 795,1639 795,1649 795,1660 795,1672 795,1685 795,1699 795,1714 795,1730 795,1747 795,1765 795,1784 795,1804 795,1825 795,1847 795,1870 795,1894 795,1917 795,1939 795,1960 795,1980 795,1999 795,2017 795,2034 795,2050 795,2065 795,2079 795,2092 795,2104 795,2115 795,2125 795,2134 795,2142 795,2149 795,2155 795,2160 795,2164 795,2167 795,2169 795,2170 795,2170 795,2169 795,2167 795,2164 795,2160 795,2155 795,2149 795,2142 795,2134 795,2125 795,2115 795,2104 795,2092 795,2079 795,2065 795,2050 795,2034 795,2017 795,1999 795,1980 795,1960 795,1939 795,1917 795,1896 795,1876 795,1857 795,1839 795,1822 795,1806 795,1791 795,1777 795,1764 795,1752 795,1741 795,1731 795,1722 795,1714 795,1707 795,1701 795,1696 795,1692 795,1689 795,1687 795,1686 795,1686 795,1687 795,1689 795,1692 795,1696 795,1701 795,1707 795,1714 795,1722 795,1731 795,1741 795,1752 795,1764 795,1777 795,1791 795,1806 795,1822 795,1839 795,1857 795,1876 795,1896 795,1915 795,1933 795,1950 795,1966 795,1981 795,1995 795,2008 795,2020 795,2031 795,2041 795,2050 795,2058 795,2065 795,2071 795,2076 795,2080 795,2083 795,2085 795,2086 795,2086 795,2085 795,2083 795,2080 795,2076 795,2071 795,2065 795,2058 795,2050 795,2041 795,2031 795,2020 795,2008 795,1995 795,1981 795,1966 795,1950 795,1933 795,1915 795,1898 794,1882 792,1867 789,1853 785,1840 780,1828 774,1817 767,1807 759,1798 750,1790 740,1783 729,1777 717,1772 704,1768 690,1765 675,1763 659,1762 642,1762 624,1763 607,1765 591,1768 576,1772 562,1777 549,1783 537,1790 526,1798 516,1807 507,1817 499,1828 492,1840 486,1853 481,1867 477,1882 474,1898 472,1915 471,1933 471,1952 472,1972 474,1993 477,2015 481,2038 486,2062 492,2087 499,2113 507,2140 516,2168 526,2197 537,2227 549,2258 562,2288 576,2317 591,2345 607,2372 622,2398 636,2423 649,2447 661,2470 672,2492 682,2513 691,2533 699,2552 706,2570 712,2587 717,2603 721,2618 724,2632 726,2645 727,2657 727,2668 726,2678 724,2687 721,2695 717,2702 712,2708 706,2713 699,2717 691,2720 682,2722 672,2723 661,2723 649,2722 636,2720 622,2717 609,2713 597,2708 586,2702 576,2695 567,2687 559,2678 552,2668 546,2657 541,2645 537,2632 534,2618 532,2603 531,2587 531,2570 532,2552 534,2533 537,2513 541,2492 546,2470 552,2447 559,2423 567,2398 576,2372 586,2345 597,2317 609,2288 620,2260 630,2233 639,2207 647,2182 654,2158 660,2135 665,2113 669,2092 672,2072 674,2053 675,2035 675,2018 674,2002 672,1987 669,1973 665,1960 660,1948 654,1937 647,1927 639,1918 630,1910 620,1903 611,1897 603,1892 596,1888 590,1885 585,1883 581,1882 578,1882 576,1883 575,1885 575,1888 576,1892 578,1897 581,1903 585,1910 590,1918 596,1927 603,1937 611,1948 620,1960 628,1973 635,1987 641,2002 646,2018 650,2035 653,2053 655,2072 656,2092 656,2113 655,2135 653,2158 650,2182 646,2207 641,2233 635,2260 628,2286 620,2311 613,2335 607,2358 602,2380 598,2401 595,2421 593,2440 592,2458 592,2475 593,2491 595,2506 598,2520 602,2533 607,2545 613,2556 620,2566 626,2575 631,2583 635,2590 638,2596 640,2601 641,2605 641,2608 640,2610 638,2611 635,2611 631,2610 626,2608 620,2605 615,2601 611,2596 608,2590 606,2583 605,2575 605,2566 606,2556 608,2545 611,2533 615,2520 620,2506 624,2491 627,2475 629,2458 630,2440 630,2421 629,2401 627,2380 624,2358 620,2335 617,2311 615,2286 614,2262 614,2239 615,2217 617,2196 620,2176 622,2157 623,2139 623,2122 622,2106 620,2091 619,2077 619,2064 620,2052 620,2041 620,2031 620,2022 620,2014 620,2007 620,2001 620,1996 620,1992 620,1989 620,1987 620,1986 620,1986 620,1987 620,1989 620,1992 620,1996 620,2001 620,2007 620,2014 620,2022 620,2031 620,2041 620,2052 620,2064 620,2077 620,2091 620,2106 620,2122 620,2139 620,2157 620,2176 620,2196 620,2217 620,2239 620,2262 620,2284 620,2305 620,2325 620,2344 620,2362 620,2379 620,2395 620,2410 620,2424 620,2437 620,2449 620,2460 620,2470 620,2479 620,2487 620,2494 620,2500 620,2505 620,2509 620,2512 620,2514 620,2515 620,2515 620,2514 620,2512 620,2509 620,2505 620,2500 620,2494 620,2487 620,2479 620,2470 620,2460 620,2449 620,2437 620,2424 620,2410 620,2395 620,2379 620,2362 620,2344 620,2325 620,2305 620,2284 620,2263 621,2241 623,2218 626,2196 630,2175 635,2155 641,2136 648,2118 656,2101 665,2085 673,2070 680,2056 686,2043 691,2031 695,2020 698,2010 700,2001 701,1993 701,1986 700,1980 698,1975 695,1971 691,1968 686,1966 680,1965 673,1965 667,1966 662,1968 658,1971 655,1975 653,1980 652,1986 652,1993 653,2001 655,2010 658,2020 662,2031 667,2043 672,2056 676,2070 679,2085 681,2101 682,2118 682,2136 681,2155 679,2175 676,2196 672,2218 669,2239 667,2259 666,2278 666,2296 667,2313 669,2329 672,2344 676,2358 679,2371 681,2383 682,2394 682,2404 681,2413 679,2421 677,2428 676,2434 676,2439 677,2443 677,2446 677,2448 677,2449 677,2449 677,2448 677,2446 677,2443 677,2439 677,2434 677,2428 677,2421 677,2413 677,2404 677,2394 677,2383 677,2371 677,2358 677,2344 677,2329 677,2313 677,2296 677,2278 677,2259 677,2239 677,2218 677,2198 677,2179 677,2161 677,2144 677,2128 677,2113 677,2099 677,2086 677,2074 677,2063 677,2053 677,2044 677,2036 677,2029 677,2023 677,2018 677,2014 677,2011 677,2009 677,2008 677,2008 677,2009 677,2011 677,2014 677,2018 677,2023 677,2029 677,2036 677,2044 677,2053 677,2063 677,2074 677,2086 677,2099 677,2113 677,2128 677,2144 677,2161 677,2179 677,2198 677,2216 677,2233 677,2249 677,2264 677,2278 677,2291 677,2303 677,2314 677,2324 677,2333 677,2341 677,2348 677,2354 677,2359 677,2363 677,2366 677,2368 677,2369 677,2369 677,2368 677,2366 677,2363 677,2359 677,2354 677,2348 677,2341 677,2333 677,2324 677,2314 677,2303 677,2291 677,2278 677,2264 677,2249 677,2233 677,2216 677,2200 677,2185 677,2171 677,2158 677,2146 677,2135 677,2125 677,2116 677,2108 677,2101 677,2095 677,2090 677,2086 677,2083 677,2081 677,2080 677,2080 677,2081 677,2083 677,2086 677,2090 677,2095 677,2101 677,2108 677,2116 677,2125 677,2135 677,2146 677,2158 677,2171 677,2185 677,2200 677,2214 677,2227 677,2239 677,2250 677,2260 677,2269 677,2277 677,2284 677,2290 677,2295 677,2299 677,2302 677,2304 677,2305 677,2305 677,2304 677,2302 677,2299 677,2295 677,2290 677,2284 677,2277 677,2269 677,2260 677,2250 677,2239 677,2227 677,2214 677,2202 677,2191 677,2181 677,2172 677,2164 677,2157 677,2151 677,2146 677,2142 677,2139 677,2137 677,2136 677,2136 677,2137 677,2139 677,2142 677,2146 677,2151 677,2157 677,2164 677,2172 677,2181 677,2191 677,2202 677,2212 677,2221 677,2229 677,2236 677,2242 677,2247 677,2251 677,2254 677,2256 677,2257 677,2257 677,2256 677,2254 677,2251 677,2247 677,2242 677,2236 677,2229 677,2221 677,2212 677,2204 677,2197 677,2191 677,2186 677,2182 677,2179 677,2177 677,2176 677,2176 677,2177 677,2179 677,2182 677,2186 677,2191 677,2197 677,2204" fill="none" stroke="red" stroke-width="0.5" />
  <circle cx="677" cy="2210" r="2" fill="blue" />
</svg>