<svg width="87" height="93" xmlns="http://www.w3.org/2000/svg">
  <circle cx="37" cy="51" r="1.86" fill="black" />
  <circle cx="35" cy="48" r="1.86" fill="black" />
  <circle cx="39" cy="43" r="1.86" fill="black" />
  <circle cx="40" cy="36" r="1.86" fill="black" />
  <circle cx="49" cy="54" r="1.86" fill="black" />
  <circle cx="45" cy="43" r="1.86" fill="black" />
  <circle cx="37" cy="43" r="1.86" fill="black" />
  <circle cx="38" cy="34" r="1.86" fill="black" />
  <circle cx="47" cy="52" r="1.86" fill="black" />
  <circle cx="55" cy="45" r="1.86" fill="black" />
  <circle cx="50" cy="48" r="1.86" fill="black" />
  <circle cx="37" cy="42" r="1.86" fill="black" />
  <circle cx="44" cy="49" r="1.86" fill="black" />
  <circle cx="51" cy="39" r="1.86" fill="black" />
  <circle cx="38" cy="41" r="1.86" fill="black" />
  <circle cx="40" cy="40" r="1.86" fill="black" />
  <circle cx="54" cy="39" r="1.86" fill="black" />
  <circle cx="45" cy="44" r="1.86" fill="black" />
  <circle cx="36" cy="40" r="1.86" fill="black" />
  <polyline points="45,44 46,45 48,47 50,48 53,48 55,47 56,45 56,42 55,39 54,37 54,36 54,36 54,37 54,39 53,42 51,46 48,49 44,51 39,52 35,52 32,51 30,49 29,48 29,48 30,48 32,48 35,48 39,47 44,45 48,43 51,42 53,42 54,43 54,43 53,43 51,43 48,43 45,43 41,42 38,40 36,39 35,39 35,40 36,40 38,40 40,40 41,41 41,41 40,41 38,41 37,40 37,38 38,36 40,35 41,35 41,36 40,36 38,37 37,39 37,42 37,46 37,51 38,55 40,58 43,60 47,61 50,61 52,60 53,58 53,55 52,53 50,52 49,52 49,53 49,54 48,54 46,53 43,51 39,48 36,44 34,41 33,39 33,38 34,38 36,39 39,41 41,43 42,44 42,44 41,43 39,43 37,43 36,42 36,40 37,37 38,34 40,32 43,31 47,31 51,32 54,34 56,37 57,39 57,40 56,40 54,39 51,39 47,40 44,42 42,45 41,49 41,52 42,54 44,55 47,55 49,54 50,52 50,51 49,51 47,52 45,52 44,51 44,49 45,46 45,44 46,43 48,43 51,44" fill="none" stroke="red" stroke-width="0.93" />
  <circle cx="55" cy="45" r="1.86" fill="blue" />
</svg>