<svg width="1000" height="1000" xmlns="http://www.w3.org/2000/svg">
  <rect x="200" y="200" width="600" height="600" fill="white" stroke="gray" stroke-width="5" />
  <circle cx="332.8" cy="261.7" r="7" fill="black" />
  <circle cx="415.5" cy="312.2" r="7" fill="black" />
  <circle cx="764.7" cy="498.2" r="7" fill="black" />
  <circle cx="742.3" cy="482.1" r="7" fill="black" />
  <circle cx="771.4" cy="500.4" r="7" fill="black" />
  <circle cx="750.4" cy="486.1" r="7" fill="black" />
  <circle cx="510.7" cy="352.5" r="7" fill="black" />
  <circle cx="673.9" cy="441.0" r="7" fill="black" />
  <circle cx="493.3" cy="344.0" r="7" fill="black" />
  <circle cx="213.0" cy="284.1" r="7" fill="black" />
  <circle cx="625.6" cy="408.8" r="7" fill="black" />
  <circle cx="771.4" cy="502.7" r="7" fill="black" />
  <circle cx="363.6" cy="287.6" r="7" fill="black" />
  <circle cx="469.6" cy="336.4" r="7" fill="black" />
  <circle cx="658.3" cy="432.5" r="7" fill="black" />
  <circle cx="608.6" cy="399.0" r="7" fill="black" />
  <circle cx="520.6" cy="356.0" r="7" fill="black" />
  <circle cx="771.8" cy="505.4" r="7" fill="black" />
  <circle cx="565.7" cy="375.7" r="7" fill="black" />
  <circle cx="479.9" cy="337.3" r="7" fill="black" />
  <circle cx="280.5" cy="249.2" r="7" fill="black" />
  <circle cx="699.9" cy="452.2" r="7" fill="black" />
  <circle cx="220.1" cy="280.0" r="7" fill="black" />
  <circle cx="775.9" cy="516.5" r="7" fill="black" />
  <circle cx="285.4" cy="247.4" r="7" fill="black" />
  <circle cx="303.7" cy="246.1" r="7" fill="black" />
  <circle cx="206.7" cy="282.3" r="7" fill="black" />
  <circle cx="460.2" cy="329.7" r="7" fill="black" />
  <circle cx="314.9" cy="246.9" r="7" fill="black" />
  <circle cx="737.0" cy="476.8" r="7" fill="black" />
  <circle cx="226.4" cy="277.8" r="7" fill="black" />
  <circle cx="690.9" cy="449.0" r="7" fill="black" />
  <circle cx="370.8" cy="293.4" r="7" fill="black" />
  <circle cx="243.8" cy="278.2" r="7" fill="black" />
  <circle cx="356.0" cy="281.4" r="7" fill="black" />
  <circle cx="732.9" cy="474.1" r="7" fill="black" />
  <circle cx="769.6" cy="498.2" r="7" fill="black" />
  <circle cx="275.1" cy="266.2" r="7" fill="black" />
  <circle cx="301.5" cy="246.5" r="7" fill="black" />
  <circle cx="761.5" cy="495.1" r="7" fill="black" />
  <circle cx="271.1" cy="267.1" r="7" fill="black" />
  <circle cx="542.5" cy="365.4" r="7" fill="black" />
  <circle cx="297.5" cy="244.7" r="7" fill="black" />
  <circle cx="339.5" cy="266.2" r="7" fill="black" />
  <circle cx="774.1" cy="507.6" r="7" fill="black" />
  <circle cx="758.4" cy="492.4" r="7" fill="black" />
  <circle cx="713.3" cy="459.3" r="7" fill="black" />
  <circle cx="328.3" cy="258.6" r="7" fill="black" />
  <circle cx="531.3" cy="361.0" r="7" fill="black" />
  <circle cx="276.0" cy="263.5" r="7" fill="black" />
  <circle cx="776.8" cy="510.3" r="7" fill="black" />
  <circle cx="288.1" cy="247.4" r="7" fill="black" />
  <circle cx="681.5" cy="442.8" r="7" fill="black" />
  <circle cx="344.9" cy="272.0" r="7" fill="black" />
  <circle cx="293.4" cy="247.8" r="7" fill="black" />
  <circle cx="617.6" cy="402.5" r="7" fill="black" />
  <circle cx="599.3" cy="393.6" r="7" fill="black" />
  <circle cx="386.4" cy="301.9" r="7" fill="black" />
  <circle cx="279.6" cy="258.1" r="7" fill="black" />
  <circle cx="280.9" cy="247.8" r="7" fill="black" />
  <circle cx="377.5" cy="296.1" r="7" fill="black" />
  <circle cx="771.4" cy="507.6" r="7" fill="black" />
  <circle cx="705.7" cy="455.3" r="7" fill="black" />
  <circle cx="587.2" cy="386.4" r="7" fill="black" />
  <circle cx="665.4" cy="437.4" r="7" fill="black" />
  <circle cx="426.7" cy="315.4" r="7" fill="black" />
  <circle cx="306.9" cy="245.2" r="7" fill="black" />
  <circle cx="283.2" cy="249.2" r="7" fill="black" />
  <circle cx="233.5" cy="277.3" r="7" fill="black" />
  <circle cx="278.2" cy="260.8" r="7" fill="black" />
  <circle cx="649.8" cy="426.2" r="7" fill="black" />
  <circle cx="450.4" cy="325.6" r="7" fill="black" />
  <circle cx="718.6" cy="462.9" r="7" fill="black" />
  <circle cx="776.3" cy="513.9" r="7" fill="black" />
  <circle cx="280.9" cy="255.0" r="7" fill="black" />
  <circle cx="238.5" cy="278.2" r="7" fill="black" />
  <circle cx="634.1" cy="415.1" r="7" fill="black" />
  <circle cx="285.8" cy="248.3" r="7" fill="black" />
  <circle cx="351.6" cy="275.1" r="7" fill="black" />
  <circle cx="320.3" cy="250.1" r="7" fill="black" />
  <circle cx="500.4" cy="348.9" r="7" fill="black" />
  <circle cx="258.1" cy="272.4" r="7" fill="black" />
  <circle cx="311.3" cy="246.5" r="7" fill="black" />
  <circle cx="577.8" cy="383.3" r="7" fill="black" />
  <circle cx="553.2" cy="370.8" r="7" fill="black" />
  <circle cx="277.3" cy="250.1" r="7" fill="black" />
  <circle cx="393.6" cy="303.7" r="7" fill="black" />
  <circle cx="753.1" cy="490.6" r="7" fill="black" />
  <circle cx="642.2" cy="419.5" r="7" fill="black" />
  <circle cx="745.5" cy="484.8" r="7" fill="black" />
  <circle cx="251.9" cy="274.2" r="7" fill="black" />
  <circle cx="757.1" cy="490.6" r="7" fill="black" />
  <circle cx="437.9" cy="320.7" r="7" fill="black" />
  <circle cx="268.4" cy="267.1" r="7" fill="black" />
  <circle cx="277.8" cy="251.0" r="7" fill="black" />
  <circle cx="322.1" cy="253.7" r="7" fill="black" />
  <circle cx="726.7" cy="467.4" r="7" fill="black" />
  <circle cx="403.9" cy="307.3" r="7" fill="black" />
  <circle cx="263.5" cy="271.1" r="7" fill="black" />
  <circle cx="290.8" cy="247.8" r="7" fill="black" />
  <polyline points="775.4,517.4 775.9,517.0 775.9,516.5 776.3,515.6 776.3,514.8 776.3,513.9 776.8,512.5 776.8,511.2 776.8,510.3 776.3,508.9 775.4,508.0 774.1,507.6 772.7,507.6 771.4,507.6 770.5,507.2 770.0,506.3 770.0,505.8 770.5,505.4 771.4,505.4 771.8,505.4 771.8,504.9 771.4,504.0 771.4,502.7 771.4,501.3 771.4,500.4 770.9,499.1 770.5,498.2 770.0,497.8 769.6,497.8 769.6,498.2 769.2,498.2 768.3,498.2 766.9,498.2 765.6,498.2 764.7,498.2 763.3,497.8 762.0,496.9 761.1,496.4 760.7,495.5 760.7,495.1 761.1,495.1 761.5,495.1 761.5,494.6 761.1,493.7 760.2,492.4 758.9,491.5 757.1,490.6 755.3,490.2 753.9,490.2 753.1,490.6 751.7,490.6 750.8,490.2 750.4,489.3 750.4,487.9 750.4,486.1 749.9,484.8 749.0,483.9 747.7,483.5 746.3,483.5 745.5,483.9 745.0,484.4 745.0,484.8 745.5,484.8 745.5,484.4 745.0,483.5 744.1,482.6 743.2,482.1 742.3,482.1 741.0,481.7 739.2,480.8 737.4,479.4 736.1,478.1 735.2,476.3 733.8,475.0 732.9,474.1 732.5,473.6 732.5,473.6 732.9,474.1 733.8,475.0 735.2,476.3 736.1,477.2 736.5,477.6 737.0,477.6 737.0,477.2 737.0,476.8 736.5,475.9 735.6,474.5 734.3,472.7 732.5,470.5 730.3,468.7 728.5,467.4 727.1,466.5 726.2,466.0 725.8,466.0 725.8,466.5 726.2,466.9 726.7,467.4 726.7,467.4 726.2,466.9 725.3,466.0 724.0,464.7 722.2,463.3 720.9,462.4 719.5,462.0 718.6,462.0 718.2,462.4 718.2,462.9 718.6,462.9 718.6,462.4 718.2,461.5 717.3,460.2 715.9,459.3 714.6,458.9 713.7,458.9 713.3,459.3 712.4,459.3 711.0,458.9 709.2,458.0 707.5,456.6 705.7,455.3 703.4,453.5 701.6,452.2 700.3,451.3 699.4,450.8 699.0,450.8 699.0,451.3 699.4,451.7 699.9,452.2 699.9,452.2 699.4,451.7 698.5,450.8 697.2,449.5 695.4,448.6 693.6,448.1 692.3,448.1 691.4,448.6 690.9,449.0 690.0,449.0 688.7,448.6 686.9,447.7 684.6,446.3 682.9,444.6 681.5,442.8 679.7,441.0 677.5,439.6 675.7,438.7 674.4,438.3 673.5,438.3 673.0,438.7 673.0,439.6 673.5,440.5 673.9,441.0 673.9,441.0 673.5,440.5 672.6,439.6 671.2,438.3 669.4,437.4 667.7,437.0 666.3,437.0 665.4,437.4 664.1,437.4 662.3,437.0 660.1,436.1 658.3,435.6 656.9,434.7 656.0,433.8 655.6,432.9 655.6,432.5 656.0,432.5 656.9,432.5 658.3,432.5 659.2,432.0 659.6,431.1 659.6,429.8 659.2,428.0 658.3,426.7 656.9,425.8 655.1,425.3 652.9,425.3 651.1,425.8 649.8,426.2 648.0,426.2 645.8,425.8 643.1,424.9 640.8,423.5 639.0,421.8 637.7,419.5 635.9,417.3 634.1,415.1 631.9,412.4 630.1,410.1 628.8,408.3 627.9,407.0 627.0,406.1 626.1,405.7 625.6,405.7 625.6,406.1 625.6,407.0 625.6,407.9 625.6,408.8 625.2,409.2 624.3,409.2 623.0,408.8 621.2,407.9 618.9,406.6 616.2,404.8 613.6,403.0 610.9,400.7 608.6,399.0 606.0,396.7 602.8,394.9 599.3,393.6 595.2,391.8 590.8,389.6 586.3,387.3 581.8,385.1 577.8,383.3 573.3,381.1 569.3,378.4 565.7,375.7 561.7,372.6 557.2,369.9 552.8,367.7 547.8,365.9 543.4,364.5 538.9,363.6 534.9,362.3 531.3,361.0 527.3,359.2 523.7,357.4 520.6,356.0 517.0,354.2 513.0,352.9 508.5,351.1 503.6,348.9 498.7,346.6 493.3,344.0 487.5,340.8 482.1,338.2 476.3,335.9 470.0,333.7 463.3,331.4 457.1,328.8 450.4,325.6 443.2,322.1 435.6,318.9 427.6,316.2 419.5,313.6 411.9,311.3 403.9,308.6 395.4,305.5 386.4,301.9 377.9,297.9 369.9,293.4 362.3,288.5 355.1,283.2 348.4,277.3 342.2,272.0 335.9,266.2 329.2,259.9 322.1,253.7 314.9,246.9 308.2,240.7 301.9,234.9 296.1,229.5 290.8,224.6 285.8,220.1 281.4,216.1 277.3,212.5 273.8,209.4 270.6,206.7 268.0,204.5 265.7,202.7 263.9,201.3 262.6,200.4 261.7,200.0 261.3,200.0 261.3,200.4 261.7,201.3 262.6,202.7 263.9,204.5 265.7,206.7 268.0,209.4 270.6,212.5 273.8,216.1 277.3,220.1 280.9,224.6 284.9,229.5 288.5,234.9 292.5,239.8 297.0,244.3 301.9,248.3 307.3,251.9 312.7,255.0 318.5,257.7 324.7,259.9 330.6,262.6 335.9,265.7 340.8,268.4 346.2,271.5 351.6,275.1 357.4,279.1 362.7,283.6 367.7,287.6 372.6,292.1 377.5,296.1 382.9,300.6 388.7,304.6 394.9,308.2 401.6,311.3 408.8,314.0 415.5,316.2 421.8,318.0 427.6,319.4 432.9,320.3 437.9,320.7 442.3,321.2 447.2,322.1 452.6,323.4 457.5,325.2 462.0,327.4 466.0,330.1 469.6,332.3 472.7,334.1 476.3,335.9 479.9,337.3 483.0,338.6 485.7,339.9 488.8,341.7 492.4,344.0 496.4,346.6 500.4,348.9 504.0,350.7 507.2,352.0 509.8,352.9 512.1,353.8 513.9,354.2 515.2,354.2 516.1,353.8 516.5,352.9 516.5,352.5 516.1,352.5 515.2,352.5 513.9,352.5 512.1,352.5 510.7,352.5 509.8,352.9 509.4,353.8 509.4,355.1 509.8,356.9 510.7,359.2 512.1,361.8 513.9,365.0 516.1,367.7 518.8,369.9 521.9,371.7 525.5,373.0 529.5,373.9 534.0,374.4 538.5,374.4 542.5,373.9 546.5,373.0 550.1,371.7 553.2,370.8 555.9,370.3 558.1,369.9 559.9,369.0 561.3,368.1 562.1,366.8 562.6,365.9 562.6,365.4 562.1,365.4 561.3,365.4 559.9,365.4 558.1,365.4 555.9,365.4 553.2,365.4 550.1,365.4 546.5,365.4 542.5,365.4 538.9,365.9 535.8,366.8 533.1,368.1 530.8,369.9 529.1,372.1 527.7,374.8 526.8,377.9 526.4,381.5 526.4,384.6 526.8,387.3 527.7,389.6 529.1,391.4 530.8,392.7 533.1,393.6 535.8,394.0 538.9,394.0 542.5,393.6 546.5,392.7 551.0,391.4 555.9,389.6 561.3,387.3 567.1,385.5 572.4,384.2 577.3,383.3 581.8,382.9 585.8,382.9 589.4,383.3 592.5,384.2 595.2,385.5 597.5,386.4 599.3,386.9 600.6,387.3 601.5,387.3 601.9,386.9 601.9,386.4 601.5,386.4 600.6,386.4 599.3,386.4 597.5,386.4 595.2,386.4 592.5,386.4 589.9,386.4 587.2,386.4 584.9,386.9 583.2,387.8 581.8,389.1 580.9,390.9 580.5,393.1 580.5,395.8 580.9,399.0 581.8,401.6 583.2,403.9 584.9,405.7 587.2,407.0 589.9,407.9 593.0,408.3 596.6,408.3 600.6,407.9 605.1,407.0 609.5,405.7 613.6,403.9 617.6,402.5 622.1,401.6 627.0,401.2 632.3,401.2 637.3,401.6 641.7,402.5 645.8,403.9 649.3,405.7 652.5,407.9 655.1,410.6 657.4,412.8 659.2,415.1 660.5,416.8 661.4,418.2 661.8,419.1 661.8,419.5 661.4,419.5 660.5,419.5 659.2,419.5 657.4,419.5 655.1,419.5 652.5,419.5 649.3,419.5 645.8,419.5 642.2,419.5 639.0,420.0 636.4,420.9 634.1,422.2 632.3,424.0 631.0,426.2 630.1,428.9 629.7,432.0 629.7,435.6 630.1,439.6 631.0,444.1 632.3,449.0 634.1,454.4 636.4,460.2 639.0,466.5 642.2,473.2 645.8,480.3 649.8,487.9 654.2,495.1 659.2,501.8 664.5,508.0 670.3,513.9 676.6,519.2 683.3,524.1 690.5,528.6 698.1,532.6 706.1,536.2 714.6,539.3 723.1,542.0 731.1,544.3 738.7,546.1 745.9,547.4 752.6,548.3 758.9,548.7 764.7,548.7 770.0,548.3 775.0,547.4 779.4,546.1 783.5,544.3 787.0,542.0 790.2,539.3 792.8,536.2 795.1,532.6 796.9,528.6 798.2,524.1 799.1,519.2 799.6,513.9 799.6,508.0 799.1,501.8 798.2,496.0 796.9,490.6 795.1,485.7 792.8,481.2 790.2,477.2 787.0,473.6 783.5,470.5 779.4,467.8 775.0,465.6 770.5,463.8 766.5,462.4 762.9,461.5 759.8,461.1 757.1,461.1 754.8,461.5 753.1,462.4 751.7,463.8 750.8,465.6 750.4,467.8 750.4,470.5 750.8,473.6 751.7,477.2 753.1,481.2 754.8,485.2 756.6,488.8 758.4,492.4 759.8,495.5 760.7,498.2 761.1,500.4 761.1,502.2 760.7,503.6 759.8,504.5 758.4,504.9 756.6,504.9 754.4,504.5 751.7,503.6 748.6,502.2 745.0,500.4 741.0,498.2 736.5,495.5 731.6,492.4 726.2,488.8 720.4,484.8 714.2,480.3 707.5,475.4 700.3,470.0 692.7,464.2 684.6,458.0 676.2,451.3 667.2,444.1 657.8,436.5 648.0,428.5 637.7,420.0 627.0,411.0 615.8,401.6 604.2,391.8 592.1,381.5 579.6,370.8 566.6,359.6 553.2,348.0 539.3,336.8 525.0,326.1 510.3,315.8 495.5,306.0 481.2,296.6 467.4,287.6 453.9,279.1 441.0,271.1 428.5,263.5 416.4,256.3 404.8,249.6 393.6,243.4 382.9,237.6 372.6,232.2 362.7,227.3 353.4,222.8 344.4,218.8 335.9,215.2 327.9,212.1 320.3,209.4 313.1,207.2 306.4,205.4 300.1,204.0 294.3,203.1 289.0,202.7 284.1,202.7 279.6,203.1 275.6,204.0 272.0,205.4 268.9,207.2 266.2,209.4 263.9,212.1 262.1,215.2 260.8,218.8 259.9,222.8 259.5,227.3 259.5,232.2 259.9,237.6 260.8,243.4 262.1,249.6 263.0,256.3 263.5,263.5 263.5,271.1 263.0,278.2 262.1,284.9 260.8,291.2 259.0,297.0 256.8,302.4 254.1,307.3 251.0,311.8 247.8,315.8 244.3,319.4 240.2,322.5 235.8,325.2 230.8,327.4 225.9,329.2 221.5,330.6 217.4,331.4 213.9,331.9 210.7,331.9 208.0,331.4 205.8,330.6 204.0,329.2 202.7,327.4 201.8,325.2 201.3,322.5 201.3,319.4 201.8,315.8 202.7,311.8 204.0,307.3 205.8,302.4 207.2,297.0 208.9,292.1 211.2,287.6 213.9,283.6 217.0,280.0 220.6,276.9 224.6,274.2 229.1,272.0 234.0,270.2 238.9,268.9 243.8,268.0 249.2,267.5 255.0,267.5 260.4,267.5 265.7,267.1 271.1,267.1 276.0,266.6 280.5,265.7 284.5,264.4 288.1,262.6 291.2,260.4 293.9,257.7 296.1,254.5 297.9,251.4 299.7,248.7 301.5,246.5 303.3,244.7 304.6,243.4 305.5,242.5 306.4,242.0 306.9,242.0 306.9,242.5 306.9,243.4 306.9,244.3 306.9,245.2 306.4,246.1 305.5,246.5 304.6,246.5 303.7,246.1 302.4,245.2 300.6,244.7 298.8,244.7 297.5,244.7 295.7,245.2 293.4,246.1 290.8,246.9 288.1,247.4 285.4,247.4 283.2,247.8 280.9,247.8 279.1,248.3 277.8,249.2 276.9,249.6 276.5,250.1 276.5,250.1 276.9,250.1 277.3,250.1 277.8,250.5 277.8,251.0 278.2,251.0 279.1,250.5 280.0,249.6 280.5,249.2 281.4,249.2 282.3,249.2 283.2,249.2 284.5,248.7 285.8,248.3 287.6,247.8 289.4,247.8 290.8,247.8 292.1,247.8 293.4,247.8 295.2,247.4 297.5,246.5 300.1,246.1 303.3,246.1 306.4,246.5 309.1,246.5 311.3,246.5 314.0,246.9 316.7,247.8 318.9,249.2 320.7,250.1 322.1,250.5 323.0,250.5 323.4,250.5 323.4,250.1 323.0,250.1 322.1,250.1 321.2,250.1 320.3,250.1 319.8,250.5 319.8,251.4 320.3,252.8 321.2,254.5 322.5,256.8 324.3,258.6 326.5,259.9 328.8,260.8 331.0,261.3 332.8,261.7 335.0,262.6 337.3,263.9 339.0,265.3 340.4,266.2 341.3,266.6 341.7,266.6 341.7,266.2 341.3,266.2 340.4,266.2 339.5,266.2 339.0,266.6 339.0,267.5 339.5,268.9 340.4,270.6 341.7,272.0 343.1,272.9 344.0,273.3 344.4,273.3 344.9,272.9 344.9,272.0 345.3,271.5 346.2,271.5 347.5,272.0 349.3,272.9 351.6,274.2 354.2,276.0 356.5,278.2 358.3,280.5 359.6,282.7 361.4,285.4 363.6,287.6 365.9,290.3 367.7,292.5 369.0,294.3 369.9,295.7 370.3,296.6 370.8,297.0 370.8,297.0 370.8,296.6 370.8,295.7 370.8,294.3 370.8,293.4 370.3,292.1 369.4,290.3 368.1,288.1 366.3,285.4 364.1,282.7 362.3,280.5 360.5,278.7 358.7,277.3 357.4,276.5 356.5,276.0 356.0,276.0 356.0,276.5 356.0,277.3 356.0,278.7 356.0,280.0 356.0,281.4 355.6,282.3 354.7,282.7 353.4,282.7 351.6,282.3 349.3,281.4 346.6,280.0 343.5,278.2 339.9,276.0 335.9,273.3 332.3,270.2 329.2,267.5 326.5,265.3 324.3,263.5 322.5,262.1 321.2,261.3 320.3,259.9 319.8,259.0 319.8,258.6 320.3,258.6 321.2,258.6 322.5,258.6 324.3,258.6 326.5,258.6 328.3,258.6 329.7,258.1 330.6,257.2 331.0,255.9 331.0,255.0 330.6,254.5 329.7,254.5 328.3,255.0 326.5,255.0 324.3,255.0 321.6,255.0 318.5,255.0 314.9,255.0 310.9,255.0 306.4,255.0 301.5,255.0 296.1,255.0 290.3,255.4 284.9,256.3 280.0,257.7 275.6,259.5 271.5,261.7 268.0,264.4 263.9,267.1 259.5,269.7 255.4,272.0 251.9,274.2 247.8,276.5 243.8,278.2 240.2,279.6 236.2,280.5 232.2,280.9 227.7,280.9 223.7,280.5 220.1,280.0 216.1,280.0 212.5,280.5 209.4,281.4 206.7,282.3 204.5,283.6 202.7,284.5 201.3,284.9 200.4,284.9 200.0,284.5 200.0,284.1 200.4,284.1 201.3,284.1 202.7,284.1 204.5,284.1 206.7,284.1 208.9,284.1 211.2,284.1 213.0,284.1 215.2,283.6 217.9,282.7 221.0,281.4 224.6,280.0 227.7,278.7 230.8,277.8 233.5,277.3 235.8,277.3 237.6,277.8 238.9,278.2 239.8,278.7 240.2,278.7 240.2,278.2 239.8,278.2 238.9,278.2 238.5,278.2 237.6,277.8 236.2,277.8 234.4,277.8 232.2,277.8 229.5,277.8 226.4,277.8 223.7,277.8 221.5,277.3 219.7,276.5 218.3,275.1 217.4,273.8 217.0,272.9 217.0,272.4 217.4,272.4 218.3,272.4 219.7,272.4 221.5,272.4 223.7,272.4 226.4,272.4 229.5,272.4 233.1,272.4 237.1,272.4 241.6,272.4 246.5,272.4 251.9,272.4 256.8,272.0 261.7,271.1 266.6,269.7 271.1,268.0 275.1,266.2 278.7,264.8 281.8,263.9 284.5,262.6 286.7,261.3 288.5,259.5 289.9,257.7 290.8,256.3 291.2,255.4 291.2,255.0 290.8,255.0 289.9,255.0 288.5,255.0 286.7,255.0 284.5,255.0 282.7,255.0 280.9,255.0 279.6,255.4 278.7,256.3 278.2,257.7 278.2,259.5 278.2,260.8 277.8,262.1 276.9,263.0 276.0,263.5 274.7,264.4 272.9,265.7 270.6,266.6 268.4,267.1 265.7,268.0 263.0,269.3 260.4,271.1 258.1,272.4 256.3,273.3 255.0,273.8 254.1,273.8 253.7,273.3 253.7,272.4 254.1,271.1 255.0,269.3 256.3,267.1 258.1,264.4 260.4,261.3 263.0,258.1 266.2,255.4 269.7,253.2 272.9,251.4 275.6,250.1 277.8,249.2 279.6,248.7 280.9,248.7 281.8,249.2 282.3,250.1 282.3,251.4 281.8,253.2 280.9,255.4 279.6,258.1 278.7,261.3 278.2,264.8 278.2,268.9 278.7,273.3 279.6,278.2 280.9,283.6 282.7,289.4 284.9,295.7 287.6,301.5 290.8,306.9 294.3,311.8 298.4,316.2 302.8,320.3 307.7,323.8 313.1,327.0 318.9,329.7 325.2,331.9 331.9,333.7 339.0,335.0 346.6,335.9 354.7,336.4 363.2,336.4 372.1,335.9 381.5,335.0 391.4,333.7 401.6,331.9 412.4,330.6 422.7,329.7 432.5,329.2 441.9,329.2 451.3,329.7 460.2,329.7 468.7,330.1 476.8,331.0 484.4,332.3 491.5,334.1 498.2,336.4 504.5,338.6 510.3,340.8 515.6,342.6 520.6,344.0 525.0,344.9 529.1,345.3 532.6,345.3 535.8,344.9 538.5,344.0 540.7,342.6 542.5,340.8 543.8,339.0 544.7,337.7 545.2,336.8 545.2,336.4 544.7,336.4 543.8,336.4 542.5,336.4 540.7,336.4 538.5,336.4 535.8,336.4 532.6,336.4 529.1,336.4 525.0,336.4 520.6,336.4 515.6,336.4 510.3,336.4 504.5,336.4 498.2,336.4 491.5,336.4 484.4,336.4 476.8,336.4 469.6,336.4 462.0,335.9 453.9,335.0 445.5,333.7 437.4,332.8 429.8,332.3 422.7,332.3 415.9,332.3 409.7,331.9 403.9,331.0 398.5,329.7 393.6,327.9 389.1,325.6 385.1,323.0 381.5,319.8 378.4,316.2 375.7,313.1 373.5,310.4 371.7,308.2 370.3,306.4 369.4,305.1 369.0,304.2 369.0,303.7 369.4,303.7 370.3,303.7 371.7,303.7 373.5,303.7 375.7,303.7 378.4,303.7 381.5,303.7 385.1,303.7 389.1,303.7 393.6,303.7 398.5,304.2 403.9,305.1 408.8,306.4 413.3,308.2 417.3,310.4 420.9,312.2 424.0,314.0 426.7,315.4 428.9,316.2 430.7,316.7 432.0,316.7 432.9,316.2 433.4,315.4 433.4,314.0 432.9,312.7 432.0,311.8 430.7,311.3 428.9,311.3 426.7,311.8 424.0,312.2 420.9,312.2 418.2,312.2 415.5,312.2 412.4,311.8 409.2,310.9 406.6,310.4 404.3,310.4 402.5,310.0 401.2,309.5 400.3,308.6 399.9,307.7 399.9,307.3 400.3,307.3 401.2,307.3 402.5,307.3" fill="none" stroke="red" stroke-width="7" stroke-opacity="0.5"/>
  <circle cx="403.9" cy="307.3" r="15" fill="blue" fill-opacity="0.5"/>
</svg>