<svg width="21" height="54" xmlns="http://www.w3.org/2000/svg">
  <circle cx="7" cy="19" r="1.08" fill="black" />
  <circle cx="9" cy="26" r="1.08" fill="black" />
  <circle cx="12" cy="33" r="1.08" fill="black" />
  <circle cx="11" cy="32" r="1.08" fill="black" />
  <circle cx="11" cy="31" r="1.08" fill="black" />
  <circle cx="7" cy="21" r="1.08" fill="black" />
  <circle cx="7" cy="18" r="1.08" fill="black" />
  <circle cx="10" cy="29" r="1.08" fill="black" />
  <circle cx="8" cy="23" r="1.08" fill="black" />
  <circle cx="13" cy="34" r="1.08" fill="black" />
  <polyline points="8,18 7,18 7,19 8,21 9,24 9,26 10,29 11,32 11,34 11,35 11,35 11,34 11,32 11,31 12,31 12,32 12,33 13,34 13,34 12,33 10,31 8,28 7,24 7,21 8,19 8,18 8,18 8,19 8,21" fill="none" stroke="red" stroke-width="0.54" />
  <circle cx="8" cy="23" r="1.08" fill="blue" />
</svg>