<svg width="2040" height="939" xmlns="http://www.w3.org/2000/svg">
  <circle cx="894" cy="391" r="40.8" fill="black" />
  <circle cx="892" cy="393" r="40.8" fill="black" />
  <circle cx="890" cy="394" r="40.8" fill="black" />
  <circle cx="889" cy="395" r="40.8" fill="black" />
  <circle cx="888" cy="395" r="40.8" fill="black" />
  <circle cx="887" cy="396" r="40.8" fill="black" />
  <circle cx="887" cy="396" r="40.8" fill="black" />
  <circle cx="886" cy="397" r="40.8" fill="black" />
  <circle cx="884" cy="398" r="40.8" fill="black" />
  <circle cx="883" cy="400" r="40.8" fill="black" />
  <circle cx="883" cy="403" r="40.8" fill="black" />
  <circle cx="883" cy="406" r="40.8" fill="black" />
  <circle cx="884" cy="408" r="40.8" fill="black" />
  <circle cx="885" cy="411" r="40.8" fill="black" />
  <circle cx="885" cy="414" r="40.8" fill="black" />
  <circle cx="886" cy="417" r="40.8" fill="black" />
  <circle cx="887" cy="419" r="40.8" fill="black" />
  <circle cx="887" cy="422" r="40.8" fill="black" />
  <circle cx="888" cy="426" r="40.8" fill="black" />
  <circle cx="890" cy="430" r="40.8" fill="black" />
  <circle cx="892" cy="435" r="40.8" fill="black" />
  <circle cx="894" cy="439" r="40.8" fill="black" />
  <circle cx="897" cy="443" r="40.8" fill="black" />
  <circle cx="900" cy="446" r="40.8" fill="black" />
  <circle cx="904" cy="448" r="40.8" fill="black" />
  <circle cx="907" cy="451" r="40.8" fill="black" />
  <circle cx="909" cy="453" r="40.8" fill="black" />
  <circle cx="910" cy="455" r="40.8" fill="black" />
  <circle cx="911" cy="456" r="40.8" fill="black" />
  <circle cx="913" cy="456" r="40.8" fill="black" />
  <circle cx="915" cy="457" r="40.8" fill="black" />
  <circle cx="916" cy="457" r="40.8" fill="black" />
  <circle cx="917" cy="456" r="40.8" fill="black" />
  <circle cx="919" cy="456" r="40.8" fill="black" />
  <circle cx="920" cy="455" r="40.8" fill="black" />
  <circle cx="922" cy="453" r="40.8" fill="black" />
  <circle cx="925" cy="452" r="40.8" fill="black" />
  <circle cx="929" cy="452" r="40.8" fill="black" />
  <circle cx="934" cy="453" r="40.8" fill="black" />
  <circle cx="938" cy="453" r="40.8" fill="black" />
  <circle cx="941" cy="453" r="40.8" fill="black" />
  <circle cx="945" cy="453" r="40.8" fill="black" />
  <circle cx="950" cy="452" r="40.8" fill="black" />
  <circle cx="956" cy="452" r="40.8" fill="black" />
  <circle cx="961" cy="452" r="40.8" fill="black" />
  <circle cx="967" cy="451" r="40.8" fill="black" />
  <circle cx="973" cy="451" r="40.8" fill="black" />
  <circle cx="980" cy="451" r="40.8" fill="black" />
  <circle cx="986" cy="451" r="40.8" fill="black" />
  <circle cx="992" cy="450" r="40.8" fill="black" />
  <circle cx="999" cy="449" r="40.8" fill="black" />
  <circle cx="1005" cy="449" r="40.8" fill="black" />
  <circle cx="1010" cy="448" r="40.8" fill="black" />
  <circle cx="1015" cy="448" r="40.8" fill="black" />
  <circle cx="1020" cy="448" r="40.8" fill="black" />
  <circle cx="1026" cy="449" r="40.8" fill="black" />
  <circle cx="1032" cy="449" r="40.8" fill="black" />
  <circle cx="1037" cy="448" r="40.8" fill="black" />
  <circle cx="1041" cy="448" r="40.8" fill="black" />
  <circle cx="1045" cy="448" r="40.8" fill="black" />
  <circle cx="1049" cy="447" r="40.8" fill="black" />
  <circle cx="1054" cy="447" r="40.8" fill="black" />
  <circle cx="1058" cy="446" r="40.8" fill="black" />
  <circle cx="1061" cy="444" r="40.8" fill="black" />
  <circle cx="1063" cy="443" r="40.8" fill="black" />
  <circle cx="1066" cy="442" r="40.8" fill="black" />
  <circle cx="1069" cy="440" r="40.8" fill="black" />
  <circle cx="1071" cy="437" r="40.8" fill="black" />
  <circle cx="1073" cy="434" r="40.8" fill="black" />
  <circle cx="1075" cy="432" r="40.8" fill="black" />
  <circle cx="1078" cy="431" r="40.8" fill="black" />
  <circle cx="1079" cy="432" r="40.8" fill="black" />
  <circle cx="1079" cy="433" r="40.8" fill="black" />
  <circle cx="1079" cy="433" r="40.8" fill="black" />
  <circle cx="1079" cy="433" r="40.8" fill="black" />
  <circle cx="1079" cy="434" r="40.8" fill="black" />
  <circle cx="1078" cy="436" r="40.8" fill="black" />
  <circle cx="1076" cy="437" r="40.8" fill="black" />
  <circle cx="1074" cy="439" r="40.8" fill="black" />
  <circle cx="1073" cy="440" r="40.8" fill="black" />
  <circle cx="1072" cy="440" r="40.8" fill="black" />
  <circle cx="1072" cy="441" r="40.8" fill="black" />
  <circle cx="1071" cy="442" r="40.8" fill="black" />
  <circle cx="1069" cy="442" r="40.8" fill="black" />
  <circle cx="1068" cy="443" r="40.8" fill="black" />
  <circle cx="1067" cy="444" r="40.8" fill="black" />
  <circle cx="1067" cy="446" r="40.8" fill="black" />
  <circle cx="1068" cy="448" r="40.8" fill="black" />
  <circle cx="1070" cy="450" r="40.8" fill="black" />
  <circle cx="1071" cy="452" r="40.8" fill="black" />
  <circle cx="1073" cy="453" r="40.8" fill="black" />
  <circle cx="1076" cy="453" r="40.8" fill="black" />
  <circle cx="1079" cy="454" r="40.8" fill="black" />
  <circle cx="1081" cy="455" r="40.8" fill="black" />
  <circle cx="1084" cy="457" r="40.8" fill="black" />
  <circle cx="1087" cy="459" r="40.8" fill="black" />
  <circle cx="1091" cy="461" r="40.8" fill="black" />
  <circle cx="1098" cy="464" r="40.8" fill="black" />
  <circle cx="1102" cy="466" r="40.8" fill="black" />
  <circle cx="1105" cy="469" r="40.8" fill="black" />
  <circle cx="1107" cy="473" r="40.8" fill="black" />
  <circle cx="1108" cy="477" r="40.8" fill="black" />
  <circle cx="1109" cy="482" r="40.8" fill="black" />
  <circle cx="1111" cy="486" r="40.8" fill="black" />
  <circle cx="1113" cy="491" r="40.8" fill="black" />
  <circle cx="1114" cy="497" r="40.8" fill="black" />
  <circle cx="1114" cy="503" r="40.8" fill="black" />
  <circle cx="1114" cy="509" r="40.8" fill="black" />
  <circle cx="1113" cy="515" r="40.8" fill="black" />
  <circle cx="1113" cy="521" r="40.8" fill="black" />
  <circle cx="1114" cy="528" r="40.8" fill="black" />
  <circle cx="1116" cy="534" r="40.8" fill="black" />
  <circle cx="1117" cy="539" r="40.8" fill="black" />
  <circle cx="1118" cy="544" r="40.8" fill="black" />
  <circle cx="1118" cy="550" r="40.8" fill="black" />
  <circle cx="1117" cy="555" r="40.8" fill="black" />
  <polyline points="897,389 898,390 900,392 903,395 907,399 912,404 918,410 923,417 927,425 930,434 932,444 933,455 933,465 932,474 930,482 927,489 923,495 920,500 918,504 917,507 917,509 918,510 920,510 921,509 921,507 920,504 920,500 920,495 920,489 920,482 920,474 920,465 920,455 921,446 923,438 926,431 930,425 935,420 941,416 948,413 956,411 965,410 975,410 986,411 998,413 1009,416 1019,420 1028,425 1036,431 1043,438 1049,446 1054,453 1058,459 1061,464 1063,468 1064,471 1064,473 1063,474 1061,474 1058,473 1054,471 1049,468 1043,464 1036,459 1028,453 1019,448 1009,444 999,441 990,439 982,438 975,438 969,439 964,441 960,444 957,448 955,451 954,453 954,454 955,454 957,453 960,451 964,449 969,448 975,448 982,449 990,449 999,449 1007,450 1014,452 1020,453 1025,453 1029,453 1032,453 1034,453 1035,453 1035,453 1034,453 1032,453 1029,453 1025,453 1020,453 1014,453 1007,453 999,453 990,453 980,453 969,453 957,453 944,453 932,453 921,453 911,453 902,453 894,453 887,453 881,453 876,453 872,453 869,453 867,453 866,453 866,453 867,453 869,453 872,453 876,453 881,453 887,453 894,453 902,453 911,453 921,453 932,453 942,453 951,453 959,453 966,453 972,453 977,453 981,453 984,453 986,453 987,453 987,453 986,453 984,453 981,453 977,453 972,453 966,453 959,453 951,453 942,453 934,453 927,453 921,453 916,453 912,453 909,453 907,453 906,453 906,453 907,453 909,453 912,453 916,453 921,453 927,453 934,453 940,453 945,453 949,453 952,453 954,453 955,453 955,453 954,453 952,453 949,453 945,453 940,453 936,453 933,453 931,453 930,453 930,453 931,453 933,453 936,453 938,453 939,454 939,456 938,457 936,457 933,456 929,456 924,456 918,456 913,456 909,456 906,456 904,456 903,456 903,456 904,456 906,456 909,456 913,456 917,456 922,455 928,453 935,450 943,446 952,441 962,435 973,430 985,426 998,423 1012,421 1027,420 1043,420 1060,421 1076,423 1091,426 1105,430 1118,434 1130,437 1141,439 1151,440 1160,440 1168,439 1175,437 1181,434 1186,432 1190,431 1193,431 1195,432 1196,434 1196,435 1195,435 1193,434 1190,434 1186,434 1181,434 1175,434 1168,434 1160,434 1151,434 1141,434 1130,434 1118,434 1105,434 1091,434 1076,434 1062,434 1049,434 1037,434 1026,434 1016,434 1007,434 999,434 992,434 986,434 981,434 977,434 974,434 972,434 971,434 971,434 972,434 974,434 977,434 981,434 986,434 992,434 999,434 1007,434 1016,434 1026,434 1037,434 1049,434 1062,434 1074,434 1085,434 1095,434 1104,434 1112,434 1119,434 1125,434 1130,434 1134,434 1137,434 1139,434 1140,434 1140,434 1139,434 1137,434 1134,434 1130,434 1125,434 1119,434 1112,434 1104,434 1095,434 1085,434 1074,434 1064,434 1055,434 1047,434 1040,434 1034,434 1029,434 1025,434 1022,434 1020,434 1019,434 1019,434 1020,434 1022,434 1025,434 1029,434 1034,434 1040,434 1047,434 1055,434 1064,434 1073,434 1081,435 1088,437 1094,440 1099,444 1103,449 1106,455 1108,460 1109,464 1109,467 1108,469 1106,470 1103,470 1099,469 1094,467 1088,464 1081,460 1073,456 1064,453 1054,451 1043,450 1031,450 1018,451 1004,453 989,456 973,458 956,459 938,459 919,458 901,456 884,455 868,455 853,456 839,456 826,456 814,456 803,456 793,456 784,456 776,456 769,456 763,456 758,456 754,456 751,456 749,456 748,456 748,456 749,456 751,456 754,456 758,456 763,456 769,456 776,456 784,456 793,456 803,456 814,456 826,456 839,456 853,456 868,456 884,456 901,456 917,456 932,456 946,456 959,456 971,456 982,456 992,456 1001,456 1009,456 1016,456 1022,456 1027,456 1031,456 1034,456 1036,456 1037,456 1037,456 1036,456 1034,456 1031,456 1027,456 1022,456 1016,456 1009,456 1001,456 992,456 982,456 971,456 959,456 946,456 932,456 917,456 903,456 890,456 878,456 867,456 857,456 848,456 840,456 833,456 827,456 822,456 818,456 815,456 813,456 812,456 812,456 813,456 815,456 818,456 822,456 827,456 833,456 840,456 848,456 857,456 867,456 878,456 890,456 903,456 915,456 926,456 936,456 945,456 953,456 960,456 966,456 971,456 975,456 978,456 980,456 981,456 981,456 980,456 978,456 975,456 971,456 966,456 960,456 953,456 945,456 936,456 926,456 915,456 905,456 896,456 888,456 881,456 875,456 870,456 866,456 863,456 861,456 860,456 860,456 861,456 863,456 866,456 870,456 875,456 881,456 888,456 896,456 905,456 913,456 920,456 926,456 931,456 935,456 938,456 940,456 941,456 941,456 940,456 938,456 935,456 931,456 926,456 920,456 913,456 907,456 902,456 898,456 895,456 893,456 892,456 892,456 893,456 895,456 898,456 902,456 907,456 911,456 914,455 916,453 917,450 917,446 916,441 914,435 911,428 907,420 902,413 896,407 889,402 883,398 878,395 874,393 871,392 869,392 868,393 868,395 869,398 871,402 874,407 878,413 883,419 887,424 890,428 892,431 893,433 893,434 892,434 890,433 887,431 885,428 884,424 884,419 885,415 887,412 888,410 888,409 887,409 887,410 887,412 887,415 887,419 888,424 890,430 893,437 895,443 896,448 896,452 895,455 894,457 894,458 894,458 894,457 894,455 894,452 894,448 894,443 894,439 895,436 897,434 900,433 904,433 909,434 915,436 922,439 930,443 939,448 949,454 960,461 972,469 985,477 999,484 1014,490 1030,495 1047,499 1065,502 1084,504 1104,505 1123,505 1141,504 1158,502 1174,499 1189,495 1203,490 1216,484 1228,477 1239,471 1249,466 1258,462 1266,459 1273,457 1279,456 1284,456 1288,457 1291,459 1293,462 1294,466 1294,471 1293,477 1291,482 1288,486 1284,489 1279,491 1273,492 1266,492 1258,491 1249,489 1239,486 1228,482 1216,477 1203,473 1189,470 1174,468 1158,467 1141,467 1123,468 1106,470 1090,473 1075,477 1061,480 1048,482 1036,483 1025,483 1015,482 1006,480 998,477 991,475 985,474 980,474 976,475 973,477 971,478 970,478 970,477 971,477 973,477 976,477 980,477 985,477 991,477 998,477 1006,477 1015,477 1025,477 1036,477 1048,477 1061,477 1075,477 1090,477 1106,477 1121,477 1135,477 1148,477 1160,477 1171,477 1181,477 1190,477 1198,477 1205,477 1211,477 1216,477 1220,477 1223,477 1225,477 1226,477 1226,477 1225,477 1223,477 1220,477 1216,477 1211,477 1205,477 1198,477 1190,477 1181,477 1171,477 1160,477 1148,477 1135,477 1121,477 1108,477 1096,476 1085,474 1075,471 1066,467 1058,464 1051,462 1045,461 1040,461 1036,462 1033,464 1031,465 1030,465 1030,464 1031,464 1033,464 1036,464 1040,464 1045,464 1051,464 1058,464 1066,464 1075,464 1085,464 1096,464 1106,464 1115,464 1123,464 1130,464 1136,464 1141,464 1145,464 1148,464 1150,464 1151,464 1151,464 1150,464 1148,464 1145,464 1141,464 1136,464 1130,464 1123,464 1115,464 1106,464 1098,464 1091,465 1085,467 1080,470 1076,474 1073,479 1071,485 1070,492 1070,500 1071,507 1073,513 1076,518 1080,522 1085,525 1091,527 1098,528 1106,528 1114,527 1121,525 1127,522 1132,518 1136,513 1139,507 1141,502 1142,498 1142,495 1141,493 1139,492 1136,492 1132,493 1127,495 1121,498 1114,502 1108,505 1103,507 1099,508 1096,508 1094,507 1093,505 1093,503 1094,502 1096,502 1099,503 1103,503 1108,503 1114,503 1119,502 1123,500 1126,497 1128,493 1129,488 1129,482 1128,475 1126,467 1123,458 1119,450 1114,443 1108,437 1101,432 1093,428 1084,425 1074,423 1063,422 1051,422 1038,423 1024,425 1009,428 993,432 976,437 958,443 941,450 925,456 910,461 896,465 883,468 871,470 860,471 850,471 841,470 833,468 826,465 820,461 815,456 811,452 808,449 806,447 805,446 805,446 806,447 808,449 811,452 815,454 820,455 826,455 833,454 841,452 850,451 860,451 871,452 883,452 896,452 910,452 925,452 941,452 956,452 970,452 983,452 995,452 1006,452 1016,452 1025,452 1033,452 1040,452 1046,452 1051,452 1055,452 1058,452 1060,452 1061,452 1061,452 1060,452 1058,452 1055,452 1051,452 1046,452 1040,452 1033,452 1025,452 1016,452 1006,452 995,452 983,452 970,452 956,452 943,452 931,452 920,452 910,452 901,452 893,452 886,452 880,452 875,452 871,452 868,452 866,452 865,452 865,452 866,452 868,452 871,452 875,452 880,452 886,452 893,452 901,452 910,452 920,452 931,452 943,452 954,452 964,452 973,452 981,452 988,452 994,452 999,452 1003,452 1006,452 1008,452 1009,452 1009,452 1008,452 1006,452 1003,452 999,452 994,452 988,452 981,452 973,452 964,452 954,452 945,452 937,452 930,452 924,452 919,452 915,452 912,452 910,452 909,452 909,452 910,452 912,452 915,452 919,452 924,452 930,452 937,452 945,452 952,452 958,452 963,452 967,452 970,452 972,452 973,452 973,452 972,452 970,452 967,452 963,452 958,452 952,452 947,452 943,452 940,452 938,452 937,452 937,452 938,452 940,452 943,452 947,452 950,452 952,451 953,449 953,446 952,442 950,437 947,431 943,424 938,418 932,413 925,409 917,406 908,404 898,403 887,403 877,404 868,406 860,409 853,413 847,418 842,422 838,425 835,427 833,428 832,428 832,427 833,425 835,422 838,420 842,419 847,419 853,420 860,422 868,423 877,423 887,422 896,420 904,417 911,414 917,412 922,411 926,411 929,412 931,414 932,415 932,415 931,414 929,414 926,414 922,414 917,414 911,414 904,414 896,414 887,414 879,414 872,414 866,414 861,414 857,414 854,414 852,414 851,414 851,414 852,414 854,414 857,414 861,414 866,414 872,414 879,414 885,414 890,413 894,411 897,408 899,404 900,399 900,395 899,392 897,390 894,389 890,389 885,390 881,392 878,395 876,398 875,400 875,401 876,401 878,400 881,398 884,397 886,397 887,398 887,398 886,398 884,398 883,399 883,401 884,404 886,408 889,413 893,419 898,426 904,434 911,443 919,453 928,462 938,470 949,477 961,483 974,488 988,492 1003,495 1019,497 1036,498 1054,498 1073,497 1091,495 1108,492 1124,488 1139,483 1153,477 1166,470 1178,462 1189,454 1199,447 1208,441 1216,436 1223,432 1229,429 1234,427 1238,426 1241,426 1243,427 1244,429 1244,432 1243,436 1241,441 1238,447 1234,454 1229,460 1223,465 1216,469 1208,472 1199,474 1189,475 1178,475 1166,474 1153,472 1139,469 1124,465 1108,460 1091,454 1075,449 1060,445 1046,442 1033,440 1021,439 1010,439 1000,440 991,442 983,445 976,449 970,454 965,458 961,461 958,463 956,464 955,464 955,463 956,461 958,458 961,454 965,451 970,449 976,448 983,448 991,449 1000,451 1010,454 1021,456 1033,457 1046,457 1060,456 1075,454 1089,453 1102,453 1114,454 1125,454 1135,454 1144,454 1152,454 1159,454 1165,454 1170,454 1174,454 1177,454 1179,454 1180,454 1180,454 1179,454 1177,454 1174,454 1170,454 1165,454 1159,454 1152,454 1144,454 1135,454 1125,454 1114,454 1102,454 1089,454 1077,454 1066,454 1056,454 1047,454 1039,454 1032,454 1026,454 1021,454 1017,454 1014,454 1012,454 1011,454 1011,454 1012,454 1014,454 1017,454 1021,454 1026,454 1032,454 1039,454 1047,454 1056,454 1066,454 1077,454 1087,454 1096,454 1104,454 1111,454 1117,454 1122,454 1126,454 1129,454 1131,454 1132,454 1132,454 1131,454 1129,454 1126,454 1122,454 1117,454 1111,454 1104,454 1096,454 1087,454 1079,454 1070,453 1062,451 1055,448 1049,446 1044,445 1040,445 1037,446 1035,446 1034,446 1034,446 1035,446 1037,446 1040,446 1044,446 1049,446 1055,446 1062,446 1068,446 1073,446 1077,446 1080,446 1082,446 1083,446 1083,446 1082,446 1080,446 1077,446 1073,446 1068,446 1064,446 1061,446 1059,446 1058,446 1058,446 1059,446 1061,446 1064,446 1067,446 1069,447 1070,449 1070,450 1069,450 1067,449 1064,449 1060,449 1055,449 1049,449 1042,449 1034,449 1027,449 1021,449 1016,449 1012,449 1009,449 1007,449 1006,449 1006,449 1007,449 1009,449 1012,449 1016,449 1021,449 1027,449 1032,449 1036,450 1039,452 1041,453 1042,453 1042,453 1041,453 1039,453 1036,453 1032,453 1027,453 1021,453 1014,453 1006,453 997,453 987,453 976,453 964,453 951,453 939,453 928,453 918,453 909,453 901,453 894,453 888,453 883,453 879,453 876,453 874,453 873,453 873,453 874,453 876,453 879,453 883,453 888,453 894,453 901,453 909,453 918,453 928,453 939,453 949,453 958,453 966,453 973,453 979,453 984,453 988,453 991,453 993,453 994,453 994,453 993,453 991,453 988,453 984,453 979,453 973,453 966,453 958,453 949,453 941,453 934,452 928,450 923,448 919,447 916,447 914,448 913,448 913,448 914,448 916,448 919,448 923,448 928,448 934,448 941,448 949,448 958,448 968,448 979,448 991,448 1004,448 1016,448 1027,448 1037,448 1046,448 1054,448 1061,448 1067,448 1072,448 1076,448 1079,448 1081,448 1082,448 1082,448 1081,448 1079,448 1076,448 1072,448 1067,448 1061,448 1054,448 1046,448 1037,448 1027,448 1016,448 1006,448 997,448 989,448 982,448 976,448 971,448 967,448 964,448 962,448 961,448 961,448 962,448 964,448 967,448 971,448 976,448 982,448 989,448 997,448 1006,448 1015,448 1023,447 1030,445 1036,442 1041,438 1045,433 1048,427 1050,420 1051,412 1051,403 1050,395 1048,388 1045,382 1041,377 1036,373 1030,370 1023,368 1015,367 1006,367 996,368 985,370 973,373 960,377 946,382 931,388 915,395 898,401 882,406 867,410 853,413 840,415 828,416 817,416 807,415 798,413 790,410 783,406 777,401 772,395 768,390 765,386 763,383 762,381 762,380 763,380 765,381 768,383 772,386 777,390 783,395 790,399 798,402 807,404 817,405 828,405 840,404 853,402 867,399 882,395 896,392 909,390 921,389 932,389 942,390 951,392 959,395 966,397 972,398 977,398 981,397 984,395 986,394 987,394 987,395 986,395 984,395 981,395 977,395 972,395 966,395 959,395 951,395 942,395 932,395 921,395 909,395 896,395 884,395 873,395 863,395 854,395 846,395 839,395 833,395 828,395 824,395 821,395 819,395 818,395 818,395 819,395 821,395 824,395 828,395 833,395 839,395 846,395 854,395 863,395 873,395 884,395 894,395 903,395 911,395 918,395 924,395 929,395 933,395 936,395 938,395 939,395 939,395 938,395 936,395 933,395 929,395 924,395 918,395 911,395 903,395 894,395 886,395 879,395 873,395 868,395 864,395 861,395 859,395 858,395 858,395 859,395 861,395 864,395 868,395 873,395 879,395 886,395 892,395 897,395 901,395 904,395 906,395 907,395 907,395 906,395 904,395 901,395 897,395 892,395 888,395 885,395 883,395 882,395 882,395 883,395 885,395 888,395 890,395 891,395 891,395 890,395 889,395 889,396 890,398 892,401 895,405 899,410 904,416 910,423 917,431 925,440 934,450 944,459 955,467 967,474 980,480 994,485 1009,489 1025,492 1042,494 1060,495 1079,495 1097,494 1114,492 1130,489 1145,485 1159,480 1172,474 1184,467 1195,459 1205,452 1214,446 1222,441 1229,437 1235,434 1240,432 1244,431 1247,431 1249,432 1250,434 1250,437 1249,441 1247,446 1244,452 1240,457 1235,461 1229,464 1222,466 1214,467 1205,467 1195,466 1184,464 1172,461 1159,457 1145,454 1130,452 1114,451 1097,451 1081,452 1066,454 1052,455 1039,455 1027,455 1016,455 1006,455 997,455 989,455 982,455 976,455 971,455 967,455 964,455 962,455 961,455 961,455 962,455 964,455 967,455 971,455 976,455 982,455 989,455 997,455 1006,455 1016,455 1027,455 1039,455 1052,455 1066,455 1081,455 1095,454 1108,452 1120,449 1131,445 1141,440 1150,436 1158,433 1165,431 1171,430 1176,430 1180,431 1183,433 1185,436 1186,438 1186,439 1185,439 1183,438 1180,437 1176,437 1171,437 1165,437 1158,437 1150,437 1141,437 1131,437 1120,437 1108,437 1095,437 1081,437 1068,437 1056,437 1045,437 1035,437 1026,437 1018,437 1011,437 1005,437 1000,437 996,437 993,437 991,437 990,437 990,437 991,437 993,437 996,437 1000,437 1005,437 1011,437 1018,437 1026,437 1035,437 1045,437 1056,437 1068,437 1079,437 1089,437 1098,437 1106,437 1113,437 1119,437 1124,437 1128,437 1131,437 1133,437 1134,437 1134,437 1133,437 1131,437 1128,437 1124,437 1119,437 1113,437 1106,437 1098,437 1089,437 1079,437 1070,437 1062,437 1055,437 1049,437 1044,437 1040,437 1037,437 1035,437 1034,437 1034,437 1035,437 1037,437 1040,437 1044,437 1049,437 1055,437 1062,437 1070,437 1077,437 1083,437 1088,437 1092,437 1095,437 1097,437 1098,437 1098,437 1097,437 1095,437 1092,437 1088,437 1083,437 1077,437 1071,437 1066,438 1062,440 1059,443 1057,447 1056,452 1056,458 1057,465 1059,473 1062,482 1066,492 1071,503 1077,515 1084,526 1092,536 1101,545 1111,553 1120,560 1128,566 1135,571 1141,575 1146,578 1150,580 1153,581 1155,581 1156,580 1156,578 1155,575 1153,571 1150,566 1146,560 1141,553 1135,545 1128,536 1120,526 1113,517 1107,509 1102,502 1098,496 1095,491 1093,487 1092,484 1092,482 1093,481 1095,481 1098,482 1102,484 1107,487 1113,491 1118,496 1122,502 1125,509 1127,517 1128,524 1128,530 1127,535 1125,539 1122,542 1118,544 1113,545 1109,545 1106,544 1104,542 1103,539 1103,535 1104,530 1106,524 1109,519 1113,515 1116,512 1118,510 1119,509 1119,509 1118,510 1116,512 1113,515 1111,519 1110,522 1110,524 1111,525 1113,525 1114,524 1114,522 1113,521 1111,519 1108,516 1104,512 1099,507 1093,501 1086,494 1078,486 1069,477 1059,467 1050,456 1042,446 1035,437 1029,429 1024,422 1020,416 1017,411 1015,407 1014,404 1014,402 1015,401 1017,401 1020,402 1024,404 1029,407 1035,411 1042,416 1050,422 1057,429 1063,437 1068,446 1072,454 1075,461 1077,467 1078,472 1078,476 1077,479 1075,481 1072,482 1068,482 1063,481 1057,479 1052,476 1048,472 1045,467 1043,461 1042,454 1042,447 1043,441 1045,436 1048,432 1052,429 1055,427 1057,426 1058,426 1058,427 1057,429 1055,432 1054,436 1054,441 1054,447 1055,452 1057,456 1060,459 1064,461 1069,462 1075,462 1080,461 1084,459 1087,456 1089,452 1090,447 1090,441 1089,434 1087,428 1084,423 1080,419 1077,416 1075,414 1074,413 1074,413 1075,414 1077,416 1079,419 1080,423 1080,428 1079,433 1078,437 1078,440 1078,442 1078,443 1078,443 1078,442 1078,440 1078,437 1078,435 1078,434 1078,434 1078,435 1078,436 1077,436 1075,435 1072,433 1068,430 1063,426 1057,421 1050,415 1042,408 1033,400 1023,393 1012,387 1000,382 987,378 973,375 958,373 942,372 925,372 907,373 888,375 870,378 853,382 837,387 822,393 808,398 795,402 783,405 772,407 762,408 753,408 745,407 738,405 732,402 727,398 723,395 720,393 718,392 717,392 717,393 718,395 720,396 723,396 727,396 732,396 738,396 745,396 753,396 762,396 772,396 783,396 795,396 808,396 822,396 837,396 853,396 870,396 887,396 905,397 924,399 944,402 965,406 987,411 1010,417 1034,424 1059,432 1083,439 1106,445 1128,450 1149,454 1169,457 1188,459 1206,460 1223,460 1239,459 1254,457 1268,454 1281,450 1293,445 1304,439 1314,434 1323,430 1331,427 1338,425 1344,424 1349,424 1353,425 1356,427 1358,430 1359,434 1359,437 1358,439 1356,440 1353,440 1349,439 1344,437 1338,436 1331,436 1323,437 1314,437 1304,437 1293,437 1281,437 1268,437 1254,437 1239,437 1223,437 1206,437 1188,437 1169,437 1149,437 1128,437 1106,437 1083,437 1061,437 1040,437 1020,437 1001,437 983,437 966,437 950,437 935,437 921,437 908,437 896,437 885,437 875,437 866,437 858,437 851,437 845,437 840,437 836,437 833,437 831,437 830,437 830,437 831,437 833,437 836,437 840,437 845,437 851,437 858,437 866,437 875,437 885,437 896,437 908,437 921,437 935,437 950,437 966,437 983,437 1001,437 1020,437 1040,437 1061,437 1081,437 1100,437 1118,437 1135,437 1151,437 1166,437 1180,437 1193,437 1205,437 1216,437 1226,437 1235,437 1243,437 1250,437 1256,437 1261,437 1265,437 1268,437 1270,437 1271,437 1271,437 1270,437 1268,437 1265,437 1261,437 1256,437 1250,437 1243,437 1235,437 1226,437 1216,437 1205,437 1193,437 1180,437 1166,437 1151,437 1135,437 1118,437 1100,437 1081,437 1063,437 1046,437 1030,437 1015,437 1001,437 988,437 976,437 965,437 955,437 946,437 938,437 931,437 925,437 920,437 916,437 913,437 911,437 910,437 910,437 911,437 913,437 916,437 920,437 925,437 931,437 938,437 946,437 955,437 965,437 976,437 988,437 1001,437 1015,437 1030,437 1046,437 1063,437 1079,437 1094,437 1108,437 1121,437 1133,437 1144,437 1154,437 1163,437 1171,437 1178,437 1184,437 1189,437 1193,437 1196,437 1198,437 1199,437 1199,437 1198,437 1196,437 1193,437 1189,437 1184,437 1178,437 1171,437 1163,437 1154,437 1144,437 1133,437 1121,437 1108,437 1094,437 1079,437 1065,437 1052,437 1040,437 1029,437 1019,437 1010,437 1002,437 995,437 989,437 984,437 980,437 977,437 975,437 974,437 974,437 975,437 977,437 980,437 984,437 989,437 995,437 1002,437 1010,437 1019,437 1029,437 1040,437 1052,437 1065,437 1077,437 1088,437 1098,437 1107,437 1115,437 1122,437 1128,437 1133,437 1137,437 1140,437 1142,437 1143,437 1143,437 1142,437 1140,437 1137,437 1133,437 1128,437 1122,437 1115,437 1107,437 1098,437 1088,437 1077,437 1067,437 1058,437 1050,437 1043,437 1037,437 1032,437 1028,437 1025,437 1023,437 1022,437 1022,437 1023,437 1025,437 1028,437 1032,437 1037,437 1043,437 1050,437 1058,437 1067,437 1076,437 1084,438 1091,440 1097,442 1102,443 1106,443 1109,442 1111,442 1112,442 1112,442 1111,442 1109,442 1106,442 1102,442 1097,442 1091,442 1084,442 1076,442 1069,442 1063,442 1058,442 1054,442 1051,442 1049,442 1048,442 1048,442 1049,442 1051,442 1054,442 1058,442 1063,442 1069,442 1074,442 1078,442 1081,442 1083,442 1084,442 1084,442 1083,442 1081,442 1078,442 1074,442 1071,442 1069,443 1068,445 1068,448 1069,452 1071,457 1074,463 1078,470 1083,476 1089,481 1096,485 1104,488 1111,490 1117,491 1122,491 1126,490 1129,488 1131,485 1132,481 1132,476 1131,472 1129,469 1126,467 1122,466 1117,466 1111,467 1106,469 1102,472 1099,474 1097,475 1096,475 1096,474 1097,473 1099,473 1102,473 1106,473 1109,473 1111,473 1112,473 1112,473 1111,473 1109,473 1107,473 1104,472 1100,470 1095,467 1089,463 1082,458 1074,452 1065,445 1055,437 1044,428 1032,418 1019,407 1005,395 990,384 974,374 957,365 939,357 920,350 900,344 881,339 863,335 846,332 830,330 815,329 801,329 788,330 776,332 765,335 755,339 746,344 738,350 731,357 725,365 720,374 716,384 713,394 711,403 710,411 710,418 711,424 713,429 716,433 720,436 725,438 731,439 738,439 746,438 755,436 765,433 776,429 788,424 801,418 815,411 830,403 846,394 863,386 881,379 898,373 914,368 929,364 943,361 956,359 968,358 979,358 989,359 998,361 1006,364 1013,368 1019,373 1024,379 1028,386 1031,394 1033,401 1034,407 1034,412 1033,416 1031,419 1028,421 1024,422 1019,422 1013,421 1006,419 998,416 989,412 979,407 968,401 956,394 943,388 929,383 914,379 898,376 883,374 869,373 856,373 844,374 833,376 823,379 814,383 806,388 799,394 793,399 788,403 784,406 781,408 779,409 778,409 778,408 779,406 781,403 784,399 788,394 793,390 799,387 806,385 814,384 823,384 833,385 844,387 856,390 869,394 883,397 896,399 908,400 919,400 929,399 938,397 946,394 953,392 959,391 964,391 968,392 971,394 973,395 974,395 974,394 973,394 971,394 968,394 964,394 959,394 953,394 946,394 938,394 929,394 919,394 908,394 896,394 885,394 875,394 866,394 858,394 851,394 845,394 840,394 836,394 833,394 831,394 830,394 830,394 831,394 833,394 836,394 840,394 845,394 851,394 858,394 866,394 875,394 885,394 894,394 902,394 909,394 915,394 920,394 924,394 927,394 929,394 930,394 930,394 929,394 927,394 924,394 920,394 915,394 909,394 902,394 894,394 887,394 881,394 876,394 872,394 869,394 867,394 866,394 866,394 867,394 869,394 872,394 876,394 881,394 887,394 892,394 896,394 899,394 901,394 902,394 902,394 901,394 899,394 896,394 892,394 889,394 887,394 886,394 886,394 887,394 889,394 890,394 892,395 895,397 899,400 904,404 910,409 917,415 925,422 934,430 944,439 955,449 967,460 980,470 994,479 1009,487 1025,494 1042,500 1060,505 1079,509 1097,512 1114,514 1130,515 1145,515 1159,514 1172,512 1184,509 1195,505 1205,500 1214,494 1222,487 1229,479 1235,470 1240,461 1244,453 1247,446 1249,440 1250,435 1250,431 1249,428 1247,426 1244,425 1240,425 1235,426 1229,428 1222,431 1214,435 1205,440 1195,446 1184,453 1172,461 1159,468 1145,474 1130,479 1114,483 1097,486 1081,488 1066,489 1052,489 1039,488 1027,486 1016,483 1006,479 997,474 989,468 982,461 976,455 971,450 967,446 964,443 962,441 961,440 961,440 962,441 964,443 967,446 971,450 976,455 982,461 989,466 997,470 1006,473 1016,475 1027,476 1039,476 1052,475 1066,473 1081,470 1095,466 1108,461 1120,457 1131,454 1141,452 1150,451 1158,451 1165,452 1171,454 1176,457 1180,461 1183,464 1185,466 1186,467 1186,467 1185,466 1183,464 1180,461 1176,459 1171,458 1165,458 1158,459 1150,461 1141,462 1131,462 1120,461 1108,461 1095,461 1083,461 1072,461 1062,461 1053,461 1045,461 1038,461 1032,461 1027,461 1023,461 1020,461 1018,461 1017,461 1017,461 1018,461 1020,461 1023,461 1027,461 1032,461 1038,461 1045,461 1053,461 1062,461 1072,461 1083,461 1093,461 1102,461 1110,461 1117,461 1123,461 1128,461 1132,461 1135,461 1137,461 1138,461 1138,461 1137,461 1135,461 1132,461 1128,461 1123,461 1117,461 1110,461 1102,461 1093,461 1085,461 1078,461 1072,461 1067,461 1063,461 1060,461 1058,461 1057,461 1057,461 1058,461 1060,461 1063,461 1067,461 1072,461 1078,461 1085,461 1091,461 1096,460 1100,458 1103,455 1105,451 1106,446 1106,440 1105,435 1103,431 1100,428 1096,426 1091,425 1085,425 1078,426 1072,428 1067,431 1063,435 1060,439 1058,442 1057,444 1057,445 1058,445 1060,444 1063,442 1067,439 1072,437 1076,436 1079,436 1081,437 1082,439 1082,440 1081,440 1079,439 1076,439 1074,439 1071,440 1067,442 1062,445 1056,449 1049,452 1041,454 1032,455 1022,455 1011,454 999,452 988,450 978,449 969,449 961,450 954,450 948,450 943,450 939,450 936,450 934,450 933,450 933,450 934,450 936,450 939,450 943,450 948,450 954,450 961,450 969,450 978,450 988,450 997,450 1005,450 1012,450 1018,450 1023,450 1027,450 1030,450 1032,450 1033,450 1033,450 1032,450 1030,450 1027,450 1023,450 1018,450 1012,450 1005,450 997,450 990,450 984,450 979,450 975,450 972,450 970,450 969,450 969,450 970,450 972,450 975,450 979,450 984,450 990,450 995,450 999,450 1002,450 1004,450 1005,450 1005,450 1004,450 1002,450 999,450 995,450 992,450 988,451 983,451 977,451 970,451 962,451 953,451 943,451 932,451 920,451 907,451 895,452 884,454 874,457 865,461 857,466 850,472 844,479 839,487 835,496 832,506 830,517 829,529 829,542 830,554 832,565 835,575 839,584 844,592 850,599 857,605 865,610 874,614 884,617 895,619 907,620 920,620 934,619 949,617 965,614 982,610 1000,605 1019,599 1039,592 1060,584 1082,575 1105,565 1127,554 1148,544 1168,535 1187,527 1205,520 1222,514 1238,509 1253,505 1267,502 1280,500 1292,499 1303,499 1313,500 1322,502 1330,505 1337,509 1343,514 1348,520 1352,527 1355,535 1357,544 1358,552 1358,559 1357,565 1355,570 1352,574 1348,577 1343,579 1337,580 1330,580 1322,579 1313,577 1303,574 1292,570 1280,565 1267,559 1253,552 1238,546 1222,541 1205,537 1187,534 1168,532 1148,531 1127,531 1107,532 1088,534 1070,537 1053,541 1037,546 1022,550 1008,553 995,555 983,556 972,556 962,555 953,553 945,550 938,548 932,547 927,547 923,548 920,550 918,551 917,551 917,550 918,550 920,550 923,550 927,550 932,550 938,550 945,550 953,550 962,550 972,550 983,550 995,550 1008,550 1022,550 1037,550 1053,550 1070,550 1088,550 1107,550 1125,550 1142,550 1158,550 1173,550 1187,550 1200,550 1212,550 1223,550 1233,550 1242,550 1250,550 1257,550 1263,550 1268,550 1272,550 1275,550 1277,550 1278,550 1278,550 1277,550 1275,550 1272,550 1268,550 1263,550 1257,550 1250,550 1242,550 1233,550 1223,550 1212,550 1200,550 1187,550 1173,550 1158,550 1142,550 1125,550 1109,550 1094,550 1080,550 1067,550 1055,550 1044,550 1034,550 1025,550 1017,550 1010,550 1004,550 999,550 995,550 992,550 990,550 989,550 989,550 990,550 992,550 995,550 999,550 1004,550 1010,550 1017,550 1025,550 1034,550 1044,550 1055,550 1067,550 1080,550 1094,550 1109,550 1123,550 1136,550 1148,550 1159,550 1169,550 1178,550 1186,550 1193,550 1199,550 1204,550 1208,550 1211,550 1213,550 1214,550 1214,550 1213,550 1211,550 1208,550 1204,550 1199,550 1193,550 1186,550 1178,550 1169,550 1159,550 1148,550 1136,550 1123,550 1111,550 1100,550 1090,550 1081,550 1073,550 1066,550 1060,550 1055,550 1051,550 1048,550 1046,550 1045,550 1045,550 1046,550 1048,550 1051,550 1055,550 1060,550 1066,550 1073,550 1081,550 1090,550 1100,550 1111,550 1121,550 1130,550 1138,550 1145,550 1151,550 1156,550 1160,550 1163,550 1165,550 1166,550 1166,550 1165,550 1163,550 1160,550 1156,550 1151,550 1145,550 1138,550 1130,550 1121,550 1113,550 1106,550 1100,550 1095,550 1091,550 1088,550 1086,550 1085,550 1085,550 1086,550 1088,550 1091,550 1095,550 1100,550 1106,550 1113,550 1119,550 1124,550 1128,550 1131,550 1133,550 1134,550 1134,550 1133,550 1131,550 1128,550 1124,550 1119,550 1115,550 1112,550 1110,550 1109,550 1109,550 1110,550 1112,550 1115,550 1118,550 1120,549 1121,547 1121,544 1120,540 1118,535 1115,529 1111,522 1106,514 1100,505 1093,495 1085,484 1076,472 1066,459 1055,445 1043,430 1030,416 1016,403 1001,391 985,380 968,370 950,361 931,353 911,346 890,340 870,335 851,331 833,328 816,326 800,325 785,325 771,326 758,328 746,331 735,335 725,340 716,346 708,353 701,361 695,370 690,380 686,391 683,403 681,416 680,428 680,439 681,449 683,458 686,466 690,473 695,479 701,484 708,488 716,491 725,493 735,494 746,494 758,493 771,491 785,488 800,484 816,479 833,473 851,466 870,458 888,449 905,439 921,428 936,417 950,407 963,398 975,390 986,383 996,377 1005,372 1013,368 1020,365 1026,363 1031,362 1035,362 1038,363 1040,365 1041,368 1041,372 1040,377 1038,383 1035,390 1031,398 1026,407 1020,417 1013,426 1005,434 996,441 986,447 975,452 963,456 950,459 936,461 921,462 905,462 888,461 872,459 857,456 843,452 830,447 818,441 807,434 797,426 788,417 780,409 773,402 767,396 762,391 758,387 755,384 753,382 752,381 752,381 753,382 755,384 758,387 762,391 767,396 773,402 780,409 788,417 797,424 807,430 818,435 830,439 843,442 857,444 872,445 886,445 899,444 911,442 922,439 932,435 941,430 949,424 956,417 962,411 967,406 971,402 974,399 976,397 977,396 977,396 976,397 974,399 971,402 967,406 962,411 956,417 949,422 941,426 932,429 922,431 911,432 899,432 886,431 874,429 863,426 853,422 844,417 836,413 829,410 823,408 818,407 814,407 811,408 809,410 808,413 808,417 809,420 811,422 814,423 818,423 823,422 829,420 836,417 844,415 853,414 863,414 874,415 886,417 899,420 913,424 928,429 944,435 961,442 977,450 992,457 1006,463 1019,468 1031,472 1042,475 1052,477 1061,478 1069,478 1076,477 1082,475 1087,472 1091,468 1094,463 1096,457 1097,451 1097,446 1096,442 1094,439 1091,437 1087,436 1082,436 1076,437 1069,439 1061,442 1052,446 1042,451 1031,455 1019,458 1006,460 992,461 977,461 963,460 950,458 938,455 927,451 917,448 908,446 900,445 893,445 887,446 882,448 878,451 875,453 873,454 872,454 872,453 873,451 875,450 878,450 882,451 887,451 893,451 900,451 908,451 917,451 927,451 938,451 950,451 963,451 975,451 986,451 996,451 1005,451 1013,451 1020,451 1026,451 1031,451 1035,451 1038,451 1040,451 1041,451 1041,451 1040,451 1038,451 1035,451 1031,451 1026,451 1020,451 1013,451 1005,451 996,451 986,451 975,451 965,451 956,451 948,451 941,451 935,451 930,451 926,451 923,451 921,451 920,451 920,451 921,451 923,451 926,451 930,451 935,451 941,451 948,451 956,451 965,451 973,451 980,451 986,451 991,451 995,451 998,451 1000,451 1001,451 1001,451 1000,451 998,451 995,451 991,451 986,451 980,451 973,451 967,451 962,452 958,454 955,457 953,461 952,466 952,472 953,479 955,487 958,496 962,506 967,517 973,529 980,540 988,550 997,559 1007,567 1018,574 1030,580 1043,585 1057,589 1072,592 1088,594 1105,595 1121,595 1136,594 1150,592 1163,589 1175,585 1186,580 1196,574 1205,567 1213,559 1220,550 1226,540 1231,531 1235,523 1238,516 1240,510 1241,505 1241,501 1240,498 1238,496 1235,495 1231,495 1226,496 1220,498 1213,501 1205,505 1196,510 1186,516 1175,523 1163,531 1150,539 1136,546 1121,552 1107,557 1094,561 1082,564 1071,566 1061,567 1052,567 1044,566 1037,564 1031,561 1026,557 1022,552 1019,546 1017,539 1016,533 1016,528 1017,524 1019,521 1022,519 1026,518 1031,518 1037,519 1044,521 1052,524 1061,528 1071,533 1082,539 1094,544 1107,548 1119,551 1130,553 1140,554 1149,554 1157,553 1164,551 1170,548 1175,544 1179,539 1182,535 1184,532 1185,530 1185,529 1184,529 1182,530 1179,532 1175,535 1170,539 1164,542 1157,544 1149,545 1140,545 1130,544 1119,542 1109,539 1100,537 1092,536 1085,536 1079,537 1074,539 1070,540 1067,540 1065,539 1064,539 1064,539 1065,539 1067,539 1070,539 1074,539 1079,539 1085,539 1092,539 1100,539 1109,539 1117,539 1124,538 1130,536 1135,533 1139,529 1142,524 1144,518 1145,511 1145,503 1144,494 1142,484 1139,473 1135,461 1130,450 1124,440 1117,431 1109,423 1100,416 1090,410 1079,405 1069,401 1060,398 1052,396 1045,395 1039,395 1034,396 1030,398 1027,401 1025,405 1024,410 1024,416 1025,423 1027,431 1030,440 1034,450 1039,459 1045,467 1052,474 1060,480 1069,485 1077,489 1084,492 1090,494 1095,495 1099,495 1102,494 1104,492 1105,489 1105,485 1104,480 1102,474 1099,467 1095,459 1090,452 1084,446 1077,441 1071,437 1066,434 1062,432 1059,431 1057,431 1056,432 1056,434 1057,437 1059,441 1062,446 1066,452 1071,457 1076,461 1080,464 1083,466 1085,467 1086,467 1086,466 1085,464 1083,461 1080,457 1076,453 1071,450 1065,448 1058,447 1050,447 1041,448 1031,450 1020,452 1008,453 995,453 981,452 966,452 952,452 939,452 927,452 916,452 906,452 897,452 889,452 882,452 876,452 871,452 867,452 864,452 862,452 861,452 861,452 862,452 864,452 867,452 871,452 876,452 882,452 889,452 897,452 906,452 916,452 927,452 939,452 952,452 964,452 975,452 985,452 994,452 1002,452 1009,452 1015,452 1020,452 1024,452 1027,452 1029,452 1030,452 1030,452 1029,452 1027,452 1024,452 1020,452 1015,452 1009,452 1002,452 994,452 985,452 975,452 964,452 954,452 945,452 937,452 930,452 924,452 919,452 915,452 912,452 910,452 909,452 909,452 910,452 912,452 915,452 919,452 924,452 930,452 937,452 945,452 954,452 962,452 969,452 975,452 980,452 984,452 987,452 989,452 990,452 990,452 989,452 987,452 984,452 980,452 975,452 969,452 962,452 956,452 951,452 947,452 944,452 942,452 941,452 941,452 942,452 944,452 947,452 951,452 956,452 961,452 967,453 974,455 982,458 991,462 1001,467 1012,473 1024,480 1037,486 1051,491 1066,495 1082,498 1099,500 1115,501 1130,501 1144,500 1157,498 1169,495 1180,491 1190,486 1199,482 1207,479 1214,477 1220,476 1225,476 1229,477 1232,479 1234,482 1235,484 1235,485 1234,485 1232,484 1229,482 1225,481 1220,481 1214,482 1207,482 1199,482 1190,482 1180,482 1169,482 1157,482 1144,482 1130,482 1115,482 1101,482 1088,482 1076,482 1065,482 1055,482 1046,482 1038,482 1031,482 1025,482 1020,482 1016,482 1013,482 1011,482 1010,482 1010,482 1011,482 1013,482 1016,482 1020,482 1025,482 1031,482 1038,482 1046,482 1055,482 1065,482 1076,482 1088,482 1101,482 1113,482 1124,482 1134,482 1143,482 1151,482 1158,482 1164,482 1169,482 1173,482 1176,482 1178,482 1179,482 1179,482 1178,482 1176,482 1173,482 1169,482 1164,482 1158,482 1151,482 1143,482 1134,482 1124,482 1113,482 1103,482 1094,482 1086,482 1079,482 1073,482 1068,482 1064,482 1061,482 1059,482 1058,482 1058,482 1059,482 1061,482 1064,482 1068,482 1073,482 1079,482 1086,482 1094,482 1103,482 1111,482 1118,482 1124,482 1129,482 1133,482 1136,482 1138,482 1139,482 1139,482 1138,482 1136,482 1133,482 1129,482 1124,482 1118,482 1111,482 1105,482 1100,482 1096,482 1093,482 1091,482 1090,482 1090,482 1091,482 1093,482 1096,482 1100,482 1105,482 1109,482 1112,481 1114,479 1115,476 1115,472 1114,467 1112,461 1109,456 1105,452 1100,449 1094,447 1087,446 1081,446 1076,447 1072,449 1069,452 1067,456 1066,459 1066,461 1067,462 1069,462 1072,461 1076,459 1081,458 1087,458 1092,459 1096,459 1099,459 1101,459 1102,459 1102,459 1101,459 1099,459 1096,459 1092,459 1087,459 1081,458 1074,456 1066,453 1059,449 1053,444 1048,440 1044,437 1041,435 1039,434 1038,434 1038,435 1039,437 1041,440 1044,444 1048,447 1053,449 1059,450 1064,450 1068,449 1071,447 1073,444 1074,442 1074,441 1073,441 1071,442 1068,444 1064,445 1061,445 1059,444 1058,444 1058,444 1059,444 1061,444 1062,445 1062,447 1061,448 1059,448 1056,448 1052,448 1047,448 1041,448 1034,448 1026,448 1017,448 1007,448 996,448 984,448 971,448 957,448 942,448 926,448 909,448 893,448 878,448 864,448 851,448 839,448 828,448 818,448 809,448 801,448 794,448 788,448 783,448 779,448 776,448 774,448 773,448 773,448 774,448 776,448 779,448 783,448 788,448 794,448 801,448 809,448 818,448 828,448 839,448 851,448 864,448 878,448 893,448 907,448 920,448 932,448 943,448 953,448 962,448 970,448 977,448 983,448 988,448 992,448 995,448 997,448 998,448 998,448 997,448 995,448 992,448 988,448 983,448 977,448 970,448 962,448 953,448 943,448 932,448 920,448 907,448 895,448 884,448 874,448 865,448 857,448 850,448 844,448 839,448 835,448 832,448 830,448 829,448 829,448 830,448 832,448 835,448 839,448 844,448 850,448 857,448 865,448 874,448 884,448 895,448 905,448 914,448 922,448 929,448 935,448 940,448 944,448 947,448 949,448 950,448 950,448 949,448 947,448 944,448 940,448 935,448 929,448 922,448 914,448 905,448 897,448 890,448 884,448 879,448 875,448 872,448 870,448 869,448 869,448 870,448 872,448 875,448 879,448 884,448 890,448 897,448 904,448 910,447 915,446 919,446 922,446 924,446 925,446 925,446 924,446 922,446 919,446 915,446 910,446 904,446 899,446 895,446 892,446 890,446 889,446 889,446 890,446 892,446 895,446 899,446 902,446 904,446 905,446 905,446 904,446 902,446 900,446 899,447 899,449 900,452 902,456 905,461 909,467 914,474 920,482 927,489 935,495 944,500 954,504 965,507 977,509 990,510 1004,510 1019,509 1035,507 1052,504 1070,500 1089,495 1109,489 1128,484 1146,480 1163,477 1179,475 1194,474 1208,474 1221,475 1233,477 1244,480 1254,484 1263,487 1271,489 1278,490 1284,490 1289,489 1293,487 1296,486 1298,486 1299,486 1299,486 1298,486 1296,486 1293,486 1289,486 1284,486 1278,486 1271,486 1263,486 1254,486 1244,486 1233,486 1221,486 1208,486 1194,486 1179,486 1163,486 1146,486 1128,486 1111,486 1093,485 1074,483 1054,480 1033,476 1013,471 994,465 976,458 959,450 943,443 928,437 914,432 901,428 889,425 878,423 868,422 859,422 851,423 844,425 838,428 833,432 829,437 826,443 824,448 823,452 823,455 824,457 826,458 829,458 833,457 838,455 844,452 851,448 859,445 868,443 878,442 889,442 901,443 914,445 928,448 943,450 959,451 976,451 994,450 1013,448 1031,447 1048,447 1064,448 1079,448 1093,448 1106,448 1118,448 1129,448 1139,448 1148,448 1156,448 1163,448 1169,448 1174,448 1178,448 1181,448 1183,448 1184,448 1184,448 1183,448 1181,448 1178,448 1174,448 1169,448 1163,448 1156,448 1148,448 1139,448 1129,448 1118,448 1106,448 1093,448 1079,448 1064,448 1048,448 1031,448 1015,448 1000,448 986,448 973,448 961,448 950,448 940,448 931,448 923,448 916,448 910,448 905,448 901,448 898,448 896,448 895,448 895,448 896,448 898,448 901,448 905,448 910,448 916,448 923,448 931,448 940,448 950,448 961,448 973,448 986,448 1000,448 1015,448 1029,448 1042,448 1054,448 1065,448 1075,448 1084,448 1092,448 1099,448 1105,448 1110,448 1114,448 1117,448 1119,448 1120,448 1120,448 1119,448 1117,448 1114,448 1110,448 1105,448 1099,448 1092,448 1084,448 1075,448 1065,448 1054,448 1042,448 1029,448 1017,448 1006,448 996,448 987,448 979,448 972,448 966,448 961,448 957,448 954,448 952,448 951,448 951,448 952,448 954,448 957,448 961,448 966,448 972,448 979,448 987,448 996,448 1006,448 1017,448 1027,448 1036,448 1044,448 1051,448 1057,448 1062,448 1066,448 1069,448 1071,448 1072,448 1072,448 1071,448 1069,448 1066,448 1062,448 1057,448 1051,448 1044,448 1036,448 1027,448 1019,448 1012,448 1006,448 1001,448 997,448 994,448 992,448 991,448 991,448 992,448 994,448 997,448 1001,448 1006,448 1012,448 1019,448 1025,448 1030,448 1034,448 1037,448 1039,448 1040,448 1040,448 1039,448 1037,448 1034,448 1030,448 1025,448 1020,448 1014,449 1007,451 999,453 990,454 980,454 969,453 957,453 944,453 930,453 917,453 905,453 894,453 884,453 875,453 867,453 860,453 854,453 849,453 845,453 842,453 840,453 839,453 839,453 840,453 842,453 845,453 849,453 854,453 860,453 867,453 875,453 884,453 894,453 905,453 917,453 928,453 938,453 947,453 955,453 962,453 968,453 973,453 977,453 980,453 982,453 983,453 983,453 982,453 980,453 977,453 973,453 968,453 962,453 955,453 947,453 938,453 928,453 919,453 911,453 904,453 898,453 893,453 889,453 886,453 884,453 883,453 883,453 884,453 886,453 889,453 893,453 898,453 904,453 911,453 919,453 926,453 932,453 937,453 941,453 944,453 946,453 947,453 947,453 946,453 944,453 941,453 937,453 932,453 926,453 921,453 917,453 914,453 912,453 911,453 911,453 912,453 914,453 917,453 921,453 924,453 926,453 927,453 927,453 926,453 924,453 922,453 921,452 921,450 922,447 924,443 927,440 931,438 936,437 942,437 949,438 957,440 966,441 976,441 987,441 999,441 1012,441 1026,441 1041,441 1057,441 1072,441 1086,442 1099,444 1111,447 1122,451 1132,455 1141,458 1149,460 1156,461 1162,461 1167,460 1171,458 1174,455 1176,453 1177,452 1177,452 1176,453 1174,455 1171,456 1167,456 1162,455 1156,455 1149,455 1141,455 1132,455 1122,455 1111,455 1099,455 1086,455 1072,455 1057,455 1041,455 1024,455 1006,455 987,455 967,455 946,455 924,455 903,455 883,455 864,455 846,455 829,455 813,455 798,455 784,455 771,455 759,455 748,455 738,455 729,455 721,455 714,455 708,455 703,455 699,455 696,455 694,455 693,455 693,455 694,455 696,455 699,455 703,455 708,455 714,455 721,455 729,455 738,455 748,455 759,455 771,455 784,455 798,455 813,455 829,455 846,455 864,455 883,455 903,455 922,455 940,455 957,455 973,455 988,455 1002,455 1015,455 1027,455 1038,455 1048,455 1057,455 1065,455 1072,455 1078,455 1083,455 1087,455 1090,455 1092,455 1093,455 1093,455 1092,455 1090,455 1087,455 1083,455 1078,455 1072,455 1065,455 1057,455 1048,455 1038,455 1027,455 1015,455 1002,455 988,455 973,455 957,455 940,455 922,455 905,455 889,455 874,455 860,455 847,455 835,455 824,455 814,455 805,455 797,455 790,455 784,455 779,455 775,455 772,455 770,455 769,455 769,455 770,455 772,455 775,455 779,455 784,455 790,455 797,455 805,455 814,455 824,455 835,455 847,455 860,455 874,455 889,455 905,455 920,455 934,455 947,455 959,455 970,455 980,455 989,455 997,455 1004,455 1010,455 1015,455 1019,455 1022,455 1024,455 1025,455 1025,455 1024,455 1022,455 1019,455 1015,455 1010,455 1004,455 997,455 989,455 980,455 970,455 959,455 947,455 934,455 920,455 907,455 895,455 884,455 874,455 865,455 857,455 850,455 844,455 839,455 835,455 832,455 830,455 829,455 829,455 830,455 832,455 835,455 839,455 844,455 850,455 857,455 865,455 874,455 884,455 895,455 907,455 918,455 928,455 937,455 945,455 952,455 958,455 963,455 967,455 970,455 972,455 973,455 973,455 972,455 970,455 967,455 963,455 958,455 952,455 945,455 937,455 928,455 918,455 909,455 901,455 894,455 888,455 883,455 879,455 876,455 874,455 873,455 873,455 874,455 876,455 879,455 883,455 888,455 894,455 901,455 909,455 916,455 922,455 927,455 931,455 934,455 936,455 937,455 937,455 936,455 934,455 931,455 927,455 922,455 916,455 910,455 903,454 895,452 886,449 878,445 871,440 865,434 860,427 856,419 853,410 851,402 850,395 850,389 851,384 853,380 856,377 860,375 865,374 871,374 878,375 884,377 889,380 893,384 896,389 898,395 899,402 899,408 898,413 896,417 893,420 889,422 884,423 880,423 877,422 875,420 874,417 874,413 875,408 877,404 880,401 884,399 887,398 889,398 890,399 890,401 889,404 887,408 884,411 882,413 881,414 881,414 882,413 884,411 885,408 885,406 884,405 884,405 884,406 884,408 885,411 887,415 890,420 894,426 899,433 905,440 912,446 920,451 929,455 939,458 950,460 962,461 975,461 989,460 1004,458 1020,455 1037,451 1055,446 1073,440 1090,435 1106,431 1121,428 1135,426 1148,425 1160,425 1171,426 1181,428 1190,431 1198,435 1205,440 1211,444 1216,447 1220,449 1223,450 1225,450 1226,449 1226,447 1225,444 1223,442 1220,441 1216,441 1211,442 1205,443 1198,443 1190,443 1181,443 1171,443 1160,443 1148,443 1135,443 1121,443 1106,443 1090,443 1073,443 1057,443 1042,443 1028,443 1015,443 1003,443 992,443 982,443 973,443 965,443 958,443 952,443 947,443 943,443 940,443 938,443 937,443 937,443 938,443 940,443 943,443 947,443 952,443 958,443 965,443 973,443 982,443 992,443 1003,443 1015,443 1028,443 1042,443 1057,443 1071,443 1084,443 1096,443 1107,443 1117,443 1126,443 1134,443 1141,443 1147,443 1152,443 1156,443 1159,443 1161,443 1162,443 1162,443 1161,443 1159,443 1156,443 1152,443 1147,443 1141,443 1134,443 1126,443 1117,443 1107,443 1096,443 1084,443 1071,443 1059,443 1048,443 1038,443 1029,443 1021,443 1014,443 1008,443 1003,443 999,443 996,443 994,443 993,443 993,443 994,443 996,443 999,443 1003,443 1008,443 1014,443 1021,443 1029,443 1038,443 1048,443 1059,443 1069,443 1078,443 1086,443 1093,443 1099,443 1104,443 1108,443 1111,443 1113,443 1114,443 1114,443 1113,443 1111,443 1108,443 1104,443 1099,443 1093,443 1086,443 1078,443 1069,443 1061,443 1054,443 1048,443 1043,443 1039,443 1036,443 1034,443 1033,443 1033,443 1034,443 1036,443 1039,443 1043,443 1048,443 1054,443 1061,443 1067,443 1072,443 1076,443 1079,443 1081,443 1082,443 1082,443 1081,443 1079,443 1076,443 1072,443 1067,443 1063,443 1060,444 1058,446 1057,449 1057,453 1058,457 1060,460 1063,462 1067,463 1072,463 1078,462 1084,460 1089,457 1093,455 1096,454 1098,454 1099,455 1099,457 1098,458 1096,458 1093,457 1089,457 1084,457 1078,456 1071,454 1065,451 1060,447 1056,442 1053,438 1051,435 1050,433 1050,432 1051,432 1053,433 1056,435 1060,438 1065,440 1069,441 1072,441 1074,440 1075,440 1075,440 1074,440 1072,440 1069,440 1067,441 1066,443 1066,444 1067,444 1069,445 1072,447 1076,450 1081,454 1087,459 1094,465 1102,472 1111,480 1119,489 1126,497 1132,504 1137,510 1141,515 1144,519 1146,522 1147,524 1147,525 1146,525 1144,524 1141,522 1137,519 1132,515 1126,510 1119,504 1113,497 1108,491 1104,486 1101,482 1099,479 1098,477 1098,476 1099,476 1101,477 1104,479 1108,482 1113,486 1117,491 1120,497 1122,502 1123,506 1123,509 1122,511 1120,512 1117,512 1114,511 1112,509 1111,506 1111,502 1112,497 1114,493 1115,490 1115,488 1114,487 1114,487 1114,488 1114,490 1114,493 1114,497 1113,500 1111,502 1108,503 1104,503 1099,502 1093,500 1086,497 1078,493 1069,488 1059,482 1049,475 1040,467 1032,458 1025,448 1019,439 1014,431 1010,424 1007,418 1005,413 1004,409 1004,406 1005,404 1007,403 1010,403 1014,404 1019,406 1025,409 1032,413 1040,418 1049,424 1057,431 1064,439 1070,447 1075,454 1079,460 1082,465 1084,469 1085,472 1085,474 1084,475 1082,475 1079,474 1075,472 1070,469 1064,465 1057,460 1049,454 1042,447 1036,441 1031,436 1027,432 1024,429 1022,427 1021,426 1021,426 1022,427 1024,429 1027,432 1031,436 1036,441 1042,447 1049,452 1055,456 1060,459 1064,461 1067,462 1069,462 1070,461 1070,459 1069,456 1067,452 1064,447 1060,443 1055,440 1049,438 1044,437 1040,437 1037,438 1035,440 1034,443 1034,447 1035,450 1037,452 1040,453 1044,453 1049,452 1053,450 1056,447 1058,445 1059,444 1059,444 1058,445 1056,447 1053,448 1049,448 1046,447 1044,447 1043,447 1043,447 1044,447 1046,447 1049,447 1051,446 1052,444 1052,443 1051,443 1049,443 1046,443 1042,443 1037,443 1031,443 1024,443 1016,443 1007,443 997,443 986,443 974,443 961,443 947,443 932,443 916,443 899,443 883,443 868,443 854,443 841,443 829,443 818,443 808,443 799,443 791,443 784,443 778,443 773,443 769,443 766,443 764,443 763,443 763,443 764,443 766,443 769,443 773,443 778,443 784,443 791,443 799,443 808,443 818,443 829,443 841,443 854,443 868,443 883,443 897,443 912,444 928,446 945,448 963,449 982,449 1002,448 1021,448 1039,448 1056,448 1072,448 1087,448 1101,448 1114,448 1126,448 1137,448 1147,448 1156,448 1164,448 1171,448 1177,448 1182,448 1186,448 1189,448 1191,448 1192,448 1192,448 1191,448 1189,448 1186,448 1182,448 1177,448 1171,448 1164,448 1156,448 1147,448 1137,448 1126,448 1114,448 1101,448 1087,448 1072,448 1056,448 1039,448 1021,448 1004,448 988,448 973,448 959,448 946,448 934,448 923,448 913,448 904,448 896,448 889,448 883,448 878,448 874,448 871,448 869,448 868,448 868,448 869,448 871,448 874,448 878,448 883,448 889,448 896,448 904,448 913,448 923,448 934,448 946,448 959,448 973,448 988,448 1004,448 1019,448 1033,448 1046,448 1058,448 1069,448 1079,448 1088,448 1096,448 1103,448 1109,448 1114,448 1118,448 1121,448 1123,448 1124,448 1124,448 1123,448 1121,448 1118,448 1114,448 1109,448 1103,448 1096,448 1088,448 1079,448 1069,448 1058,448 1046,448 1033,448 1019,448 1006,448 994,448 983,448 973,448 964,448 956,448 949,448 943,448 938,448 934,448 931,448 929,448 928,448 928,448 929,448 931,448 934,448 938,448 943,448 949,448 956,448 964,448 973,448 983,448 994,448 1006,448 1017,448 1027,448 1036,448 1044,448 1051,448 1057,448 1062,448 1066,448 1069,448 1071,448 1072,448 1072,448 1071,448 1069,448 1066,448 1062,448 1057,448 1051,448 1044,448 1036,448 1027,448 1017,448 1008,448 1000,448 993,448 987,448 982,448 978,448 975,448 973,448 972,448 972,448 973,448 975,448 978,448 982,448 987,448 993,448 1000,448 1008,448 1015,448 1021,448 1026,448 1030,448 1033,448 1035,448 1036,448 1036,448 1035,448 1033,448 1030,448 1026,448 1021,448 1015,448 1010,448 1006,447 1003,445 1001,442 1000,438 1000,433 1001,429 1003,426 1006,424 1010,423 1015,423 1021,424 1028,426 1036,429 1045,432 1055,434 1066,435 1078,435 1089,434 1099,432 1108,431 1116,431 1123,432 1129,432 1134,432 1138,432 1141,432 1143,432 1144,432 1144,432 1143,432 1141,432 1138,432 1134,432 1129,432 1123,432 1116,432 1108,432 1099,432 1089,432 1079,432 1070,433 1062,434 1055,434 1049,434 1044,434 1040,434 1037,434 1035,434 1034,434 1034,434 1035,434 1037,434 1040,434 1044,434 1049,434 1055,434 1062,434 1070,434 1079,434 1087,435 1094,437 1100,440 1105,444 1109,449 1112,455 1114,460 1115,464 1115,467 1114,469 1112,470 1109,470 1105,469 1100,467 1094,464 1087,460 1079,456 1070,453 1060,451 1049,450 1037,450 1024,451 1010,453 995,456 979,458 962,459 944,459 925,458 907,456 890,455 874,455 859,456 845,456 832,456 820,456 809,456 799,456 790,456 782,456 775,456 769,456 764,456 760,456 757,456 755,456 754,456 754,456 755,456 757,456 760,456 764,456 769,456 775,456 782,456 790,456 799,456 809,456 820,456 832,456 845,456 859,456 874,456 890,456 907,456 923,456 938,456 952,456 965,456 977,456 988,456 998,456 1007,456 1015,456 1022,456 1028,456 1033,456 1037,456 1040,456 1042,456 1043,456 1043,456 1042,456 1040,456 1037,456 1033,456 1028,456 1022,456 1015,456 1007,456 998,456 988,456 977,456 965,456 952,456 938,456 923,456 909,456 896,456 884,456 873,456 863,456 854,456 846,456 839,456 833,456 828,456 824,456 821,456 819,456 818,456 818,456 819,456 821,456 824,456 828,456 833,456 839,456 846,456 854,456 863,456 873,456 884,456 896,456 909,456 921,456 932,456 942,456 951,456 959,456 966,456 972,456 977,456 981,456 984,456 986,456 987,456 987,456 986,456 984,456 981,456 977,456 972,456 966,456 959,456 951,456 942,456 932,456 921,456 911,456 902,456 894,456 887,456 881,456 876,456 872,456 869,456 867,456 866,456 866,456 867,456 869,456 872,456 876,456 881,456 887,456 894,456 902,456 911,456 919,456 928,455 938,453 949,450 961,446 974,441 988,435 1003,430 1019,426 1036,423 1054,421 1073,420 1091,420 1108,421 1124,423 1139,426 1153,430 1166,433 1178,435 1189,436 1199,436 1208,435 1216,433 1223,431 1229,430 1234,430 1238,431 1241,431 1243,431 1244,431 1244,431 1243,431 1241,431 1238,431 1234,431 1229,431 1223,431 1216,431 1208,431 1199,431 1189,431 1178,431 1166,431 1153,431 1139,431 1124,431 1108,431 1091,431 1075,431 1060,431 1046,431 1033,431 1021,431 1010,431 1000,431 991,431 983,431 976,431 970,431 965,431 961,431 958,431 956,431 955,431 955,431 956,431 958,431 961,431 965,431 970,431 976,431 983,431 991,431 1000,431 1010,431 1021,431 1033,431 1046,431 1060,431 1075,431 1089,431 1102,431 1114,431 1125,431 1135,431 1144,431 1152,431 1159,431 1165,431 1170,431 1174,431 1177,431 1179,431 1180,431 1180,431 1179,431 1177,431 1174,431 1170,431 1165,431 1159,431 1152,431 1144,431 1135,431 1125,431 1114,431 1102,431 1089,431 1077,431 1066,431 1056,431 1047,431 1039,431 1032,431 1026,431 1021,431 1017,431 1014,431 1012,431 1011,431 1011,431 1012,431 1014,431 1017,431 1021,431 1026,431 1032,431 1039,431 1047,431 1056,431 1066,431 1077,431 1087,431 1096,431 1104,431 1111,431 1117,431 1122,431 1126,431 1129,431 1131,431 1132,431 1132,431 1131,431 1129,431 1126,431 1122,431 1117,431 1111,431 1104,431 1096,431 1087,431 1078,431 1070,432 1063,432 1057,432 1052,432 1048,432 1045,432 1043,432 1042,432 1042,432 1043,432 1045,432 1048,432 1052,432 1057,432 1063,432 1070,432 1076,432 1081,432 1085,432 1088,432 1090,432 1091,432 1091,432 1090,432 1088,432 1085,432 1081,432 1076,432 1072,432 1069,432 1067,432 1066,432 1066,432 1067,432 1069,432 1072,432 1075,432 1079,433 1084,435 1090,438 1097,442 1105,447 1114,453 1122,460 1129,468 1135,477 1140,487 1144,498 1147,510 1149,523 1150,535 1150,546 1149,556 1147,565 1144,573 1140,580 1135,586 1129,591 1122,595 1114,598 1107,600 1101,601 1096,601 1092,600 1089,598 1087,595 1086,591 1086,586 1087,580 1089,573 1092,565 1096,556 1101,546 1107,535 1114,525 1120,516 1125,508 1129,501 1132,495 1134,490 1135,486 1135,483 1134,481 1132,480 1129,480 1125,481 1120,483 1114,486 1109,490 1105,495 1102,501 1100,508 1099,516 1099,525 1100,533 1102,540 1105,546 1109,551 1114,555 1118,558 1121,560 1123,561 1124,561 1124,560 1123,558 1121,555 1118,551 1114,546 1111,540 1109,533 1108,527 1108,522 1109,518 1111,515 1114,513 1116,512 1117,512 1117,513 1116,515 1114,518 1113,522 1113,527 1114,531 1114,534 1114,536 1114,537 1114,537 1114,536 1114,534 1114,531 1114,528 1115,526 1117,525 1118,525 1118,526 1117,528 1117,531 1117,535 1117,540 1117,546 1117,553 1117,559 1117,564 1117,568 1117,571 1117,573 1117,574 1117,574 1117,573 1117,571 1117,568 1117,564 1117,559 1117,555 1116,550 1114,544 1111,537 1107,529 1102,520 1096,510 1089,499 1081,487 1072,474 1064,460 1057,445 1051,431 1046,418 1042,406 1039,395 1037,385 1036,376 1036,368 1037,361 1039,355 1042,350 1046,346 1051,343 1057,341 1064,340 1070,340 1075,341 1079,343 1082,346 1084,350 1085,355 1085,361 1084,368 1082,376 1079,385 1075,395 1070,406 1066,418 1063,431 1061,443 1060,454 1060,464 1061,473 1063,481 1066,488 1068,494 1069,499 1069,503 1068,506 1068,508 1068,509 1068,509 1068,508 1068,506 1068,503 1068,499 1068,494 1068,488 1068,481 1068,473 1068,464 1068,454 1068,443 1067,431 1065,418 1062,404 1058,391 1053,379 1047,368 1040,358 1032,349 1023,341 1013,334 1002,328 990,323 977,319 963,316 948,314 932,313 915,313 897,314 880,316 864,319 849,323 835,328 822,334 810,341 799,349 789,358 780,368 772,379 765,391 759,402 754,412 750,421 747,429 745,436 744,442 744,447 745,451 747,454 750,456 754,457 759,457 765,456 772,454 780,451 789,447 799,442 810,436 822,429 835,421 849,412 864,402 880,391 895,381 909,372 922,364 934,357 945,351 955,346 964,342 972,339 979,337 985,336 990,336 994,337 997,339 999,342 1000,346 1000,351 999,357 997,364 994,372 990,381 985,391 979,400 972,408 964,415 955,421 945,426 934,430 922,433 909,435 895,436 882,436 870,435 859,433 849,430 840,426 832,421 825,415 819,408 814,400 810,391 807,383 805,376 804,370 804,365 805,361 807,358 810,356 814,355 819,355 825,356 832,358 840,361 849,365 859,370 870,376 882,383 894,391 905,398 915,404 924,409 932,413 939,416 945,418 950,419 954,419 957,418 959,416 960,413 960,409 959,404 957,398 954,393 950,389 945,386 939,384 932,383 924,383 915,384 905,386 894,389 884,393 875,396 867,398 860,399 854,399 849,398 845,396 842,393 840,391 839,390 839,390 840,391 842,393 845,394 849,394 854,393 860,393 867,393 875,393 884,393 892,393 899,394 905,396 910,399 914,403 917,406 919,408 920,409 920,409 919,408 917,406 914,403 910,401 905,400 899,400 892,401 884,403 877,404 871,404 866,403 862,403 859,403 857,403 856,403 856,403 857,403 859,403 862,403 866,403 871,403 877,403 883,403 890,404 898,406 907,409 917,413 928,418 940,424 953,431 967,439 982,448 998,458 1015,467 1033,475 1052,482 1072,488 1093,493 1113,497 1132,500 1150,502 1167,503 1183,503 1198,502 1212,500 1225,497 1237,493 1248,488 1258,482 1267,475 1275,467 1282,460 1288,454 1293,449 1297,445 1300,442 1302,440 1303,439 1303,439 1302,440 1300,442 1297,445 1293,449 1288,454 1282,460 1275,466 1267,471 1258,475 1248,478 1237,480 1225,481 1212,481 1198,480 1183,478 1167,475 1150,471 1132,466 1113,462 1095,459 1078,457 1062,456 1047,456 1033,457 1020,459 1008,462 997,466 987,469 978,471 970,472 963,472 957,471 952,469 948,466 945,464 943,463 942,463 942,464 943,466 945,467 948,467 952,466 957,466 963,466 970,466 978,466 987,466 997,466 1008,466 1020,466 1033,466 1047,466 1062,466 1078,466 1095,466 1111,466 1126,466 1140,466 1153,466 1165,466 1176,466 1186,466 1195,466 1203,466 1210,466 1216,466 1221,466 1225,466 1228,466 1230,466 1231,466 1231,466 1230,466 1228,466 1225,466 1221,466 1216,466 1210,466 1203,466 1195,466 1186,466 1176,466 1165,466 1153,466 1140,466 1126,466 1111,466 1097,466 1084,466 1072,466 1061,466 1051,466 1042,466 1034,466 1027,466 1021,466 1016,466 1012,466 1009,466 1007,466 1006,466 1006,466 1007,466 1009,466 1012,466 1016,466 1021,466 1027,466 1034,466 1042,466 1051,466 1061,466 1072,466 1084,466 1097,466 1109,466 1120,466 1130,466 1139,466 1147,466 1154,466 1160,466 1165,466 1169,466 1172,466 1174,466 1175,466 1175,466 1174,466 1172,466 1169,466 1165,466 1160,466 1154,466 1147,466 1139,466 1130,466 1120,466 1109,466 1099,466 1090,466 1082,466 1075,466 1069,466 1064,466 1060,466 1057,466 1055,466 1054,466 1054,466 1055,466 1057,466 1060,466 1064,466 1069,466 1075,466 1082,466 1090,466 1099,466 1107,466 1114,466 1120,466 1125,466 1129,466 1132,466 1134,466 1135,466 1135,466 1134,466 1132,466 1129,466 1125,466 1120,466 1114,466 1107,466 1101,466 1096,466 1092,466 1089,466 1087,466 1086,466 1086,466 1087,466 1089,466 1092,466 1096,466 1101,466 1105,466 1108,466 1110,466 1111,466 1111,466 1110,466 1108,466 1105,466 1102,466 1098,465 1093,463 1087,460 1080,456 1072,452 1065,449 1059,447 1054,446 1050,446 1047,447 1045,449 1044,452 1044,454 1045,455 1047,455 1050,454 1054,452 1059,451 1065,451 1071,452 1076,452 1080,451 1083,449 1085,446 1086,442 1086,437 1085,431 1083,426 1080,422 1076,419 1071,417 1065,416 1058,416 1050,417 1041,419 1031,422 1020,426 1008,429 995,431 981,432 966,432 950,431 933,429 915,426 896,424 878,423 861,423 845,424 830,426 816,427 803,427 791,426 780,426 770,426 761,426 753,426 746,426 740,426 735,426 731,426 728,426 726,426 725,426 725,426 726,426 728,426 731,426 735,426 740,426 746,426 753,426 761,426 770,426 780,426 791,426 803,426 816,426 830,426 845,426 861,426 878,426 894,426 909,426 923,426 936,426 948,426 959,426 969,426 978,426 986,426 993,426 999,426 1004,426 1008,426 1011,426 1013,426 1014,426 1014,426 1013,426 1011,426 1008,426 1004,426 999,426 993,426 986,426 978,426 969,426 959,426 948,426 936,426 923,426 909,426 894,426 880,426 867,426 855,426 844,426 834,426 825,426 817,426 810,426 804,426 799,426 795,426 792,426 790,426 789,426 789,426 790,426 792,426 795,426 799,426 804,426 810,426 817,426 825,426 834,426 844,426 855,426 867,426 880,426 892,426 903,426 913,426 922,426 930,426 937,426 943,426 948,426 952,426 955,426 957,426 958,426 958,426 957,426 955,426 952,426 948,426 943,426 937,426 930,426 922,426 913,426 903,426 892,426 882,426 873,426 865,426 858,426 852,426 847,426 843,426 840,426 838,426 837,426 837,426 838,426 840,426 843,426 847,426 852,426 858,426 865,426 873,426 882,426 890,426 897,426 903,426 908,426 912,426 915,426 917,426 918,426 918,426 917,426 915,426 912,426 908,426 903,426 897,426 890,426 884,426 879,426 875,426 872,426 870,426 869,426 869,426 870,426 872,426 875,426 879,426 884,426 888,426 893,427 899,429 906,432 914,436 923,441 933,447 944,452 956,456 969,459 983,461 998,462 1014,462 1029,461 1043,459 1056,456 1068,452 1079,449 1089,447 1098,446 1106,446 1113,447 1119,449 1124,450 1128,450 1131,449 1133,449 1134,449 1134,449 1133,449 1131,449 1128,449 1124,449 1119,449 1113,449 1106,449 1098,449 1089,449 1079,449 1068,449 1056,449 1043,449 1029,449 1016,449 1004,449 993,449 983,449 974,449 966,449 959,449 953,449 948,449 944,449 941,449 939,449 938,449 938,449 939,449 941,449 944,449 948,449 953,449 959,449 966,449 974,449 983,449 993,449 1004,449 1016,449 1027,449 1037,449 1046,449 1054,449 1061,449 1067,449 1072,449 1076,449 1079,449 1081,449 1082,449 1082,449 1081,449 1079,449 1076,449 1072,449 1067,449 1061,449 1054,449 1046,449 1037,449 1027,449 1018,449 1010,449 1003,449 997,449 992,449 988,449 985,449 983,449 982,449 982,449 983,449 985,449 988,449 992,449 997,449 1003,449 1010,449 1018,449 1026,449 1033,450 1039,452 1044,455 1048,457 1051,458 1053,458 1054,457 1054,457 1053,457 1051,457 1048,457 1044,457 1039,457 1033,457 1026,457 1018,457 1009,457 999,457 988,457 976,457 963,457 949,457 934,457 918,457 903,457 889,457 876,457 864,457 853,457 843,457 834,457 826,457 819,457 813,457 808,457 804,457 801,457 799,457 798,457 798,457 799,457 801,457 804,457 808,457 813,457 819,457 826,457 834,457 843,457 853,457 864,457 876,457 889,457 903,457 916,457 928,457 939,457 949,457 958,457 966,457 973,457 979,457 984,457 988,457 991,457 993,457 994,457 994,457 993,457 991,457 988,457 984,457 979,457 973,457 966,457 958,457 949,457 939,457 928,457 916,457 905,457 895,457 886,457 878,457 871,457 865,457 860,457 856,457 853,457 851,457 850,457 850,457 851,457 853,457 856,457 860,457 865,457 871,457 878,457 886,457 895,457 905,457 915,457 924,456 932,454 939,451 945,447 950,442 954,436 957,429 959,421 960,412 960,402 959,393 957,385 954,378 950,372 945,367 939,363 932,360 924,358 915,357 905,357 894,358 883,360 873,363 864,367 856,372 849,378 843,385 838,393 834,400 831,406 829,411 828,415 828,418 829,420 831,421 834,421 838,420 843,418 849,415 856,411 864,406 873,400 883,395 892,391 900,388 907,386 913,385 918,385 922,386 925,388 927,391 928,395 928,400 927,404 925,407 922,409 918,410 913,410 907,409 900,407 892,404 883,400 875,397 868,395 862,394 857,394 853,395 850,397 848,400 847,404 847,409 848,415 850,422 853,430 857,439 862,447 868,454 875,460 883,465 892,469 902,472 913,474 925,475 938,475 952,474 967,472 983,469 1000,465 1018,460 1037,454 1057,447 1076,441 1094,436 1111,432 1127,429 1142,427 1156,426 1169,426 1181,427 1192,429 1202,432 1211,436 1219,441 1226,445 1232,448 1237,450 1241,451 1244,451 1246,450 1247,448 1247,445 1246,442 1244,440 1241,439 1237,439 1232,440 1226,442 1219,443 1211,443 1202,442 1192,442 1181,442 1169,442 1156,442 1142,442 1127,442 1111,442 1094,442 1076,442 1059,442 1043,442 1028,442 1014,442 1001,442 989,442 978,442 968,442 959,442 951,442 944,442 938,442 933,442 929,442 926,442 924,442 923,442 923,442 924,442 926,442 929,442 933,442 938,442 944,442 951,442 959,442 968,442 978,442 989,442 1001,442 1014,442 1028,442 1043,442 1059,442 1074,442 1088,442 1101,442 1113,442 1124,442 1134,442 1143,442 1151,442 1158,442 1164,442 1169,442 1173,442 1176,442 1178,442 1179,442 1179,442 1178,442 1176,442 1173,442 1169,442 1164,442 1158,442 1151,442 1143,442 1134,442 1124,442 1113,442 1101,442 1088,442 1074,442 1061,442 1049,442 1038,442 1028,442 1019,442 1011,442 1004,442 998,442 993,442 989,442 986,442 984,442 983,442 983,442 984,442 986,442 989,442 993,442 998,442 1004,442 1011,442 1019,442 1028,442 1038,442 1049,442 1061,442 1072,442 1082,442 1091,442 1099,442 1106,442 1112,442 1117,442 1121,442 1124,442 1126,442 1127,442 1127,442 1126,442 1124,442 1121,442 1117,442 1112,442 1106,442 1099,442 1091,442 1082,442 1072,442 1063,442 1055,442 1048,442 1042,442 1037,442 1033,442 1030,442 1028,442 1027,442 1027,442 1028,442 1030,442 1033,442 1037,442 1042,442 1048,442 1055,442 1063,442 1070,442 1076,442 1081,442 1085,442 1088,442 1090,442 1091,442 1091,442 1090,442 1088,442 1085,442 1081,442 1076,442 1070,442 1065,442 1061,442 1058,442 1056,442 1055,442 1055,442 1056,442 1058,442 1061,442 1065,442 1068,442 1070,442 1071,442 1071,442 1070,442 1068,442 1066,442 1065,443 1065,445 1066,448 1068,452 1071,457 1075,463 1080,470 1086,478 1093,487 1101,497 1110,508 1118,518 1125,527 1131,535 1136,542 1140,548 1143,553 1145,557 1146,560 1146,562 1145,563 1143,563 1140,562 1136,560 1131,557 1125,553 1118,548 1112,542 1107,535 1103,527 1100,518 1098,509 1097,501 1097,494 1098,488 1100,483 1103,479 1107,476 1112,474 1116,473 1119,473 1121,474 1122,476 1122,479 1121,483 1119,488 1116,494 1114,501 1113,509 1113,516 1114,522 1114,527 1114,531 1114,534 1114,536 1114,537 1114,537 1114,536 1114,534 1114,531 1114,527 1114,522 1114,516 1114,509 1113,501 1111,492 1108,482 1104,471 1099,459 1093,448 1086,438 1078,429 1071,421 1065,414 1060,408 1056,403 1053,399 1051,396 1050,394 1050,393 1051,393 1053,394 1056,396 1060,399 1065,403 1071,408 1076,414 1080,421 1083,429 1085,438 1086,448 1086,457 1085,465 1083,472 1080,478 1076,483 1073,487 1071,490 1070,492 1070,493 1071,493 1073,492 1074,490 1074,487 1073,483 1073,478 1073,472 1073,465 1073,457 1073,450 1073,444 1073,439 1073,435 1073,432 1073,430 1073,429 1073,429 1073,430 1073,432 1073,435 1073,439 1073,444 1073,450 1073,455 1073,459 1073,462 1073,464 1073,465 1073,465 1073,464 1073,462 1073,459 1073,455 1073,452 1073,450 1073,449 1073,449 1073,450 1073,452 1073,453 1072,453 1070,452 1067,450 1063,449 1058,449 1052,449 1045,449 1037,449 1028,449 1018,449 1007,449 997,449 988,449 980,449 973,449 967,449 962,449 958,449 955,449 953,449 952,449 952,449 953,449 955,449 958,449 962,449 967,449 973,449 980,449 988,449 997,449 1005,449 1014,448 1024,448 1035,448 1045,448 1054,449 1062,451 1069,452 1075,452 1080,452 1084,452 1087,452 1089,452 1090,452 1090,452 1089,452 1087,452 1084,452 1080,452 1075,452 1069,452 1062,452 1054,452 1045,452 1035,452 1024,452 1012,452 999,452 985,452 970,452 954,452 937,452 921,452 906,452 892,452 879,452 867,452 856,452 846,452 837,452 829,452 822,452 816,452 811,452 807,452 804,452 802,452 801,452 801,452 802,452 804,452 807,452 811,452 816,452 822,452 829,452 837,452 846,452 856,452 867,452 879,452 892,452 906,452 921,452 935,452 948,452 960,452 971,452 981,452 990,452 998,452 1005,452 1011,452 1016,452 1020,452 1023,452 1025,452 1026,452 1026,452 1025,452 1023,452 1020,452 1016,452 1011,452 1005,452 998,452 990,452 981,452 971,452 960,452 948,452 935,452 923,452 912,452 902,452 893,452 885,452 878,452 872,452 867,452 863,452 860,452 858,452 857,452 857,452 858,452 860,452 863,452 867,452 872,452 878,452 885,452 893,452 902,452 912,452 923,452 933,452 942,452 950,452 957,452 963,452 968,452 972,452 975,452 977,452 978,452 978,452 977,452 975,452 972,452 968,452 963,452 957,452 950,452 942,452 933,452 925,452 918,452 912,452 907,452 903,452 900,452 898,452 897,452 897,452 898,452 900,452 903,452 907,452 912,452 918,452 925,452 931,452 936,452 940,452 943,452 945,452 946,452 946,452 945,452 943,452 940,452 936,452 931,452 927,452 924,452 922,452 921,452 921,452 922,452 924,452 927,452 929,452 930,451 930,449 929,446 927,442 924,437 920,433 915,430 909,428 902,427 894,427 887,428 881,430 876,433 872,435 869,436 867,436 866,435 866,435 867,435 869,435 872,435 876,435 881,435 887,435 892,435 896,434 899,432 901,429 902,425 902,420 901,414 899,407 896,401 892,396 887,392 883,389 880,387 878,386 877,386 877,387 878,389 880,392 883,396 885,401 886,406 886,410 885,413 883,415 882,416 882,416 883,415 883,413 883,410 883,406 884,403 886,401 889,400 893,400 898,401 904,403 911,406 919,410 928,415 938,421 949,428 961,436 974,445 988,455 1003,466 1019,478 1036,491 1054,505 1073,520 1093,534 1114,547 1134,559 1153,570 1171,580 1188,589 1204,597 1219,604 1233,610 1246,615 1258,619 1269,622 1279,624 1288,625 1296,625 1303,624 1309,622 1314,619 1318,615 1321,610 1323,604 1324,597 1324,589 1323,580 1321,570 1318,559 1314,547 1309,534 1303,522 1296,511 1288,501 1279,492 1269,484 1258,477 1246,471 1233,466 1219,462 1204,459 1188,457 1171,456 1153,456 1134,457 1116,459 1099,462 1083,466 1068,471 1054,477 1041,484 1029,492 1018,501 1008,511 999,522 991,534 984,545 978,555 973,564 969,572 966,579 964,585 963,590 963,594 964,597 966,599 969,600 973,600 978,599 984,597 991,594 999,590 1008,585 1018,579 1029,572 1041,564 1054,555 1068,545 1083,534 1099,524 1116,515 1132,507 1147,500 1161,494 1174,489 1186,485 1197,482 1207,480 1216,479 1224,479 1231,480 1237,482 1242,485 1246,489 1249,494 1251,500 1252,507 1252,515 1251,524 1249,534 1246,543 1242,551 1237,558 1231,564 1224,569 1216,573 1207,576 1197,578 1186,579 1174,579 1161,578 1147,576 1132,573 1116,569 1101,564 1087,558 1074,551 1062,543 1051,534 1041,526 1032,519 1024,513 1017,508 1011,504 1006,501 1002,499 999,498 997,498 996,499 996,501 997,504 999,508 1002,513 1006,519 1011,526 1017,534 1024,541 1032,547 1041,552 1051,556 1062,559 1074,561 1087,562 1101,562 1116,561 1130,559 1143,556 1155,552 1166,547 1176,541 1185,534 1193,528 1200,523 1206,519 1211,516 1215,514 1218,513 1220,513 1221,514 1221,516 1220,519 1218,523 1215,528 1211,534 1206,539 1200,543 1193,546 1185,548 1176,549 1166,549 1155,548 1143,546 1130,543 1116,539 1103,534 1091,530 1080,527 1070,525 1061,524 1053,524 1046,525 1040,527 1035,530 1031,534 1028,537 1026,539 1025,540 1025,540 1026,539 1028,537 1031,534 1035,532 1040,531 1046,531 1053,532 1061,534 1070,535 1080,535 1091,534 1103,534" fill="none" stroke="red" stroke-width="20.4" />
  <circle cx="1116" cy="534" r="40.8" fill="blue" />
</svg>