<svg width="1000" height="1000" xmlns="http://www.w3.org/2000/svg">
  <rect x="200" y="200" width="600" height="600" fill="none" stroke="gray" stroke-width="5" />
  <circle cx="610.3" cy="588.2" r="3" fill="black" />
  <circle cx="597.1" cy="579.4" r="3" fill="black" />
  <circle cx="588.2" cy="561.8" r="3" fill="black" />
  <circle cx="583.8" cy="548.5" r="3" fill="black" />
  <circle cx="570.6" cy="539.7" r="3" fill="black" />
  <circle cx="566.2" cy="535.3" r="3" fill="black" />
  <circle cx="561.8" cy="522.1" r="3" fill="black" />
  <circle cx="548.5" cy="500.0" r="3" fill="black" />
  <circle cx="539.7" cy="486.8" r="3" fill="black" />
  <circle cx="539.7" cy="464.7" r="3" fill="black" />
  <circle cx="548.5" cy="447.1" r="3" fill="black" />
  <circle cx="566.2" cy="429.4" r="3" fill="black" />
  <circle cx="592.6" cy="402.9" r="3" fill="black" />
  <circle cx="623.5" cy="385.3" r="3" fill="black" />
  <circle cx="650.0" cy="367.6" r="3" fill="black" />
  <circle cx="685.3" cy="358.8" r="3" fill="black" />
  <circle cx="711.8" cy="350.0" r="3" fill="black" />
  <circle cx="729.4" cy="345.6" r="3" fill="black" />
  <circle cx="751.5" cy="336.8" r="3" fill="black" />
  <circle cx="769.1" cy="319.1" r="3" fill="black" />
  <circle cx="777.9" cy="292.6" r="3" fill="black" />
  <circle cx="782.4" cy="275.0" r="3" fill="black" />
  <circle cx="791.2" cy="266.2" r="3" fill="black" />
  <circle cx="791.2" cy="266.2" r="3" fill="black" />
  <circle cx="782.4" cy="257.4" r="3" fill="black" />
  <circle cx="769.1" cy="257.4" r="3" fill="black" />
  <circle cx="751.5" cy="248.5" r="3" fill="black" />
  <circle cx="742.6" cy="230.9" r="3" fill="black" />
  <circle cx="733.8" cy="213.2" r="3" fill="black" />
  <circle cx="716.2" cy="204.4" r="3" fill="black" />
  <circle cx="698.5" cy="200.0" r="3" fill="black" />
  <circle cx="676.5" cy="204.4" r="3" fill="black" />
  <circle cx="650.0" cy="213.2" r="3" fill="black" />
  <circle cx="619.1" cy="226.5" r="3" fill="black" />
  <circle cx="597.1" cy="244.1" r="3" fill="black" />
  <circle cx="566.2" cy="257.4" r="3" fill="black" />
  <circle cx="526.5" cy="266.2" r="3" fill="black" />
  <circle cx="486.8" cy="279.4" r="3" fill="black" />
  <circle cx="455.9" cy="288.2" r="3" fill="black" />
  <circle cx="416.2" cy="297.1" r="3" fill="black" />
  <circle cx="376.5" cy="310.3" r="3" fill="black" />
  <circle cx="345.6" cy="327.9" r="3" fill="black" />
  <circle cx="323.5" cy="345.6" r="3" fill="black" />
  <circle cx="292.6" cy="358.8" r="3" fill="black" />
  <circle cx="270.6" cy="372.1" r="3" fill="black" />
  <circle cx="257.4" cy="389.7" r="3" fill="black" />
  <circle cx="248.5" cy="402.9" r="3" fill="black" />
  <circle cx="235.3" cy="407.4" r="3" fill="black" />
  <circle cx="213.2" cy="420.6" r="3" fill="black" />
  <circle cx="200.0" cy="433.8" r="3" fill="black" />
  <polyline points="614.7,588.2 610.3,588.2 601.5,583.8 597.1,579.4 588.2,570.6 583.8,561.8 583.8,557.4 588.2,557.4 588.2,561.8 583.8,561.8 583.8,557.4 583.8,548.5 579.4,539.7 570.6,535.3 566.2,535.3 566.2,539.7 570.6,539.7 570.6,535.3 566.2,535.3 561.8,530.9 561.8,522.1 557.4,508.8 548.5,500.0 539.7,486.8 535.3,469.1 535.3,455.9 539.7,447.1 539.7,442.6 539.7,442.6 539.7,447.1 539.7,455.9 539.7,464.7 544.1,469.1 548.5,469.1 548.5,464.7 548.5,455.9 548.5,447.1 552.9,433.8 561.8,425.0 566.2,420.6 566.2,420.6 566.2,425.0 566.2,429.4 570.6,429.4 579.4,425.0 592.6,416.2 601.5,402.9 605.9,394.1 605.9,389.7 601.5,389.7 592.6,394.1 588.2,402.9 588.2,407.4 592.6,407.4 592.6,402.9 597.1,394.1 605.9,385.3 619.1,380.9 627.9,380.9 632.4,385.3 632.4,385.3 627.9,385.3 623.5,385.3 623.5,380.9 627.9,372.1 636.8,367.6 650.0,367.6 667.6,363.2 685.3,358.8 707.4,350.0 725.0,345.6 738.2,345.6 747.1,350.0 751.5,350.0 751.5,350.0 747.1,350.0 738.2,350.0 725.0,350.0 711.8,350.0 702.9,345.6 698.5,345.6 698.5,345.6 702.9,345.6 711.8,345.6 725.0,345.6 733.8,345.6 738.2,345.6 738.2,345.6 733.8,345.6 729.4,345.6 729.4,341.2 733.8,336.8 742.6,336.8 751.5,336.8 764.7,332.4 773.5,323.5 777.9,319.1 777.9,319.1 773.5,319.1 769.1,319.1 769.1,314.7 773.5,305.9 777.9,292.6 782.4,275.0 791.2,261.8 795.6,252.9 795.6,248.5 791.2,248.5 791.2,252.9 791.2,261.8 791.2,266.2 786.8,266.2 782.4,261.8 782.4,257.4 777.9,257.4 769.1,257.4 755.9,252.9 747.1,248.5 742.6,248.5 742.6,248.5 747.1,248.5 751.5,248.5 751.5,244.1 747.1,235.3 742.6,230.9 733.8,222.1 729.4,213.2 729.4,208.8 733.8,208.8 733.8,213.2 729.4,213.2 720.6,208.8 716.2,204.4 707.4,200.0 698.5,200.0 685.3,204.4 676.5,204.4 663.2,208.8 650.0,213.2 632.4,222.1 619.1,226.5 601.5,235.3 588.2,244.1 579.4,248.5 575.0,248.5 575.0,244.1 579.4,244.1 588.2,244.1 597.1,244.1 601.5,248.5 601.5,257.4 597.1,261.8 588.2,261.8 575.0,257.4 566.2,257.4 552.9,261.8 535.3,266.2 522.1,266.2 513.2,266.2 508.8,266.2 508.8,266.2 513.2,266.2 522.1,266.2 526.5,266.2 526.5,270.6 522.1,279.4 513.2,283.8 500.0,283.8 486.8,279.4 469.1,279.4 455.9,283.8 447.1,288.2 442.6,288.2 442.6,288.2 447.1,288.2 455.9,288.2 460.3,292.6 460.3,297.1 455.9,297.1 447.1,297.1 433.8,297.1 416.2,297.1 394.1,301.5 376.5,310.3 354.4,323.5 336.8,332.4 323.5,336.8 314.7,336.8 310.3,332.4 310.3,327.9 314.7,327.9 323.5,327.9 336.8,327.9 345.6,327.9 350.0,332.4 350.0,341.2 345.6,345.6 336.8,345.6 323.5,345.6 305.9,350.0 292.6,358.8 275.0,372.1 261.8,380.9 252.9,385.3 248.5,385.3 248.5,380.9 252.9,372.1 261.8,367.6 270.6,367.6 275.0,372.1 275.0,372.1 270.6,372.1 261.8,376.5 257.4,385.3 257.4,389.7 252.9,398.5 248.5,402.9 239.7,407.4 235.3,407.4 226.5,411.8 213.2,420.6" fill="none" stroke="red" stroke-width="3" stroke-opacity="0.5"/>
  <circle cx="200.0" cy="433.8" r="50" fill="blue" fill-opacity="0.5"/>
</svg>