<svg width="834" height="606" xmlns="http://www.w3.org/2000/svg">
  <circle cx="440" cy="346" r="16.68" fill="black" />
  <circle cx="437" cy="344" r="16.68" fill="black" />
  <circle cx="435" cy="340" r="16.68" fill="black" />
  <circle cx="434" cy="337" r="16.68" fill="black" />
  <circle cx="431" cy="335" r="16.68" fill="black" />
  <circle cx="430" cy="334" r="16.68" fill="black" />
  <circle cx="429" cy="331" r="16.68" fill="black" />
  <circle cx="426" cy="326" r="16.68" fill="black" />
  <circle cx="424" cy="323" r="16.68" fill="black" />
  <circle cx="424" cy="318" r="16.68" fill="black" />
  <circle cx="426" cy="314" r="16.68" fill="black" />
  <circle cx="430" cy="310" r="16.68" fill="black" />
  <circle cx="436" cy="304" r="16.68" fill="black" />
  <circle cx="443" cy="300" r="16.68" fill="black" />
  <circle cx="449" cy="296" r="16.68" fill="black" />
  <circle cx="457" cy="294" r="16.68" fill="black" />
  <circle cx="463" cy="292" r="16.68" fill="black" />
  <circle cx="467" cy="291" r="16.68" fill="black" />
  <circle cx="472" cy="289" r="16.68" fill="black" />
  <circle cx="476" cy="285" r="16.68" fill="black" />
  <circle cx="478" cy="279" r="16.68" fill="black" />
  <circle cx="479" cy="275" r="16.68" fill="black" />
  <circle cx="481" cy="273" r="16.68" fill="black" />
  <circle cx="481" cy="273" r="16.68" fill="black" />
  <circle cx="479" cy="271" r="16.68" fill="black" />
  <circle cx="476" cy="271" r="16.68" fill="black" />
  <circle cx="472" cy="269" r="16.68" fill="black" />
  <circle cx="470" cy="265" r="16.68" fill="black" />
  <circle cx="468" cy="261" r="16.68" fill="black" />
  <circle cx="464" cy="259" r="16.68" fill="black" />
  <circle cx="460" cy="258" r="16.68" fill="black" />
  <circle cx="455" cy="259" r="16.68" fill="black" />
  <circle cx="449" cy="261" r="16.68" fill="black" />
  <circle cx="442" cy="264" r="16.68" fill="black" />
  <circle cx="437" cy="268" r="16.68" fill="black" />
  <circle cx="430" cy="271" r="16.68" fill="black" />
  <circle cx="421" cy="273" r="16.68" fill="black" />
  <circle cx="412" cy="276" r="16.68" fill="black" />
  <circle cx="405" cy="278" r="16.68" fill="black" />
  <circle cx="396" cy="280" r="16.68" fill="black" />
  <circle cx="387" cy="283" r="16.68" fill="black" />
  <circle cx="380" cy="287" r="16.68" fill="black" />
  <circle cx="375" cy="291" r="16.68" fill="black" />
  <circle cx="368" cy="294" r="16.68" fill="black" />
  <circle cx="363" cy="297" r="16.68" fill="black" />
  <circle cx="360" cy="301" r="16.68" fill="black" />
  <circle cx="358" cy="304" r="16.68" fill="black" />
  <circle cx="355" cy="305" r="16.68" fill="black" />
  <circle cx="350" cy="308" r="16.68" fill="black" />
  <circle cx="347" cy="311" r="16.68" fill="black" />
  <polyline points="441,346 442,345 444,343 447,340 449,336 450,331 450,325 449,318 449,310 449,301 449,293 449,286 449,280 449,275 449,271 449,268 449,266 449,265 449,265 449,266 449,268 449,271 449,275 449,280 449,286 449,293 449,299 449,304 449,308 449,311 449,313 449,314 449,314 449,313 449,311 449,308 449,304 449,299 449,295 449,292 449,290 449,289 449,289 449,290 449,292 449,295 449,297 449,298 449,298 449,297 449,296 448,294 446,291 443,287 439,282 434,278 428,275 421,273 413,272 405,272 398,273 392,275 387,278 383,280 380,281 378,281 377,280 377,278 378,277 380,277 383,278 387,278 392,278 398,278 405,278 413,279 422,281 431,284 439,288 446,293 452,299 457,306 461,314 464,323 466,333 467,342 467,350 466,357 464,363 461,368 457,372 452,375 446,377 439,378 431,378 424,377 418,375 413,372 409,368 406,363 404,357 403,350 403,342 404,335 406,329 409,324 413,320 418,317 424,315 431,314 437,314 442,315 446,317 449,320 451,324 452,329 452,335 451,340 449,344 446,347 442,349 437,350 431,350 426,349 422,347 419,344 417,340 416,335 416,331 417,328 419,326 422,325 426,325 431,326 435,328 438,331 440,335 441,338 441,340 440,341 438,341 435,340 431,338 428,335 426,333 425,332 425,332 426,333 428,335 431,336 433,336 434,335 434,335 433,335 431,335 430,334 430,332 431,329 433,325 436,320 440,314 443,307 445,300 446,294 446,289 445,285 443,282 442,280 442,279 443,279 443,280 443,282 443,285 443,289 443,294 443,300 442,307 440,315 437,323 433,330 428,336 424,341 421,345 419,348 418,350 418,351 419,351 421,350 424,348 426,345 427,341 427,336 426,330 424,323 423,315 423,306 424,296 426,285 429,273 433,262 438,252 442,243 445,235 447,228 448,222 448,217 447,213 445,210 442,208 440,207 439,207 439,208 440,210 442,213 443,217 443,222 442,228 442,235 442,243 442,252 442,262 442,271 442,279 442,286 442,292 442,297 442,301 442,304 442,306 442,307 442,307 442,306 442,304 442,301 442,297 442,292 442,286 442,279 442,271 442,264 441,258 439,253 436,249 432,246 427,244 423,243 420,243 418,244 417,246 417,249 418,253 420,258 423,264 426,271 428,279 429,288 429,298 428,309 426,321 425,332 425,342 426,351 426,359 426,366 426,372 426,377 426,381 426,384 426,386 426,387 426,387 426,386 426,384 426,381 426,377 426,372 426,366 426,359 426,351 426,342 426,332 426,323 426,315 426,308 426,302 426,297 426,293 426,290 426,288 426,287 426,287 426,288 426,290 426,293 426,297 426,302 426,308 426,315 426,323 426,330 426,336 426,341 426,345 426,348 426,350 426,351 426,351 426,350 426,348 426,345 426,341 426,336 426,330 426,325 426,321 426,318 426,316 426,315 426,315 426,316 426,318 426,321 426,325 426,328 426,330 426,331 426,331 426,330 426,328 426,326 427,325 429,325 432,326 434,328 435,331 435,335 434,338 434,340 434,341 434,341 434,340 434,338 434,337 433,335 431,332 428,328 424,323 419,317 413,310 406,302 398,293 389,285 379,278 370,272 362,267 355,263 349,260 344,258 340,257 337,257 335,258 334,260 334,263 335,267 337,272 340,278 344,285 349,291 355,296 362,300 370,303 377,305 383,306 388,306 392,305 395,303 397,300 398,296 398,291 397,287 395,284 392,282 388,281 383,281 377,282 372,284 368,287 365,291 363,294 362,296 362,297 363,297 365,296 368,294 372,291 375,289 377,288 378,288 378,289 377,291 375,292 374,292 374,291 375,291 375,292 374,294 372,297 369,301 365,306 360,311 354,315 347,318 341,320 336,321 332,321 329,320 327,318 326,315 326,311 327,308 329,306 332,305 336,305 341,306 347,308 352,311 356,313 359,314 361,314 362,313 362,311 361,310 359,310 356,311 352,311 347,311 343,310 340,308 338,305 337,301 337,296 338,290 340,283 343,276 347,270 352,265 358,261 365,258 373,256 382,255 392,255 403,256 413,258 422,261 430,265 437,270 443,276 448,281 452,285 455,288 457,290 458,291 458,291 457,290 455,288 452,285 448,281 443,276 437,272 430,269 422,267 413,266 405,266 398,267 392,269 387,272 383,276 380,279 378,281 377,282 377,282 378,281 380,279 383,276 387,274 392,273 398,273 405,274 412,276 420,277 429,277 439,276 450,274 462,271 473,267 483,264 492,262 500,261 507,261 513,262 518,264 522,265 525,265 527,265 528,265 528,265 527,265 525,265 522,265 518,265 513,265 507,265 500,265 492,265 483,265 473,265 464,265 456,265 449,265 443,265 438,265 434,265 431,265 429,265 428,265 428,265 429,265 431,265 434,265 438,265 443,265 449,265 456,265 464,265 471,265 477,265 482,265 486,265 489,265 491,265 492,265 492,265 491,265 489,265 486,265 482,265 477,265 471,265 466,265 462,265 459,265 457,265 456,265 456,265 457,265 459,265 462,265 466,265 470,265 473,266 475,268 476,271 476,275 475,280 473,284 470,287 466,289 461,290 455,290 448,289 440,287 431,284 421,280 410,277 398,275 387,274 377,274 368,275 360,277 353,280 347,282 342,283 338,283 335,282 333,280 332,279 332,279 333,280 335,280 338,280 342,280 347,280 353,280 360,280 368,280 377,280 387,280 396,280 406,281 417,283 429,286 440,290 450,295 459,301 467,308 474,316 480,325 485,333 489,340 492,346 494,351 495,355 495,358 494,360 492,361 489,361 485,360 480,358 474,355 467,351 459,346 450,340 440,333 429,327 419,322 410,318 402,315 395,313 389,312 384,312 380,313 377,315 375,318 374,322 374,327 375,331 377,334 380,336 384,337 389,337 395,336 402,334 410,331 419,329 429,328 438,328 446,329 453,331 459,332 464,332 468,331 471,331 473,331 474,331 474,331 473,331 471,331 468,331 464,331 459,331 453,331 446,331 438,331 429,331 419,330 408,328 396,325 383,321 369,316 356,310 344,304 333,299 323,295 314,292 306,290 299,289 293,289 288,290 284,292 281,295 279,299 278,304 278,308 279,311 281,313 284,314 288,314 293,313 299,311 306,308 314,304 323,301 333,299 344,298 356,298 367,299 377,301 386,304 394,306 401,307 407,307 412,306 416,304 419,303 421,303 422,304 422,304 421,304 419,304 416,304 412,304 407,304 401,304 394,304 386,304 377,304 367,304 358,304 350,303 343,301 337,298 332,294 328,289 325,283 323,278 322,274 322,271 323,269 325,268 328,268 332,269 337,271 343,274 350,278 358,283 367,287 377,290 387,292 396,293 404,293 411,292 417,290 422,287 426,283 429,280 431,278 432,277 432,277 431,278 429,280 426,283 422,285 417,286 411,286 404,285 396,283 387,282 379,282 372,283 366,283 361,283 357,283 354,283 352,283 351,283 351,283 352,283 354,283 357,283 361,283 366,283 372,283 379,283 387,283 394,284 400,286 405,287 409,287 412,287 414,287 415,287 415,287 414,287 412,287 409,287 405,287 400,287 394,287 387,287 380,287 374,286 369,284 365,281 362,277 360,272 359,266 359,261 360,257 362,254 365,252 369,251 374,251 380,252 387,254 395,257 404,261 414,264 425,266 437,267 450,267 464,266 477,264 489,261 500,259 510,258 519,258 527,259 534,261 540,262 545,262 549,261 552,261 554,261 555,261 555,261 554,261 552,261 549,261 545,261 540,261 534,261 527,261 519,261 510,261 500,261 489,261 477,261 466,261 456,261 447,261 439,261 432,261 426,261 421,261 417,261 414,261 412,261 411,261 411,261 412,261 414,261 417,261 421,261 426,261 432,261 439,261 447,261 456,261 466,261 475,261 483,261 490,261 496,261 501,261 505,261 508,261 510,261 511,261 511,261 510,261 508,261 505,261 501,261 496,261 490,261 483,261 475,261 468,261 460,262 451,264 441,267 430,271 420,276 411,282 403,289 396,297 390,306 385,314 381,321 378,327 376,332 375,336 375,339 376,341 378,342 381,342 385,341 390,339 396,336 403,332 411,327 420,321 430,314 439,308 447,303 454,299 460,296 465,294 469,293 472,293 474,294 475,296 475,299 474,303 472,308 469,312 465,315 460,317 454,318 447,318 439,317 430,315 422,312 415,310 409,309 404,309 400,310 397,310 395,310 394,310 394,310 395,310 397,310 400,310 404,310 409,310 415,310 422,310 430,310 439,309 449,307 460,304 472,300 483,295 493,289 502,282 510,274 517,267 523,261 528,256 532,252 535,249 537,247 538,246 538,246 537,247 535,249 532,252 528,256 523,261 517,267 510,272 502,276 493,279 483,281 474,282 466,282 459,281 453,279 448,276 444,272 441,269 439,267 438,266 438,266 439,267 441,269 444,271 448,272 453,272 459,271 466,271 474,271 481,271 487,271 492,271 496,271 499,271 501,271 502,271 502,271 501,271 499,271 496,271 492,271 487,271 481,271 476,271 472,271 469,271 467,271 466,271 466,271 467,271 469,271 472,271 476,271 479,271 481,270 482,268 482,265 481,261 479,258 476,256 472,255 467,255 461,256 455,258 450,259 446,259 443,259 441,259 440,259 440,259 441,259 443,259 446,259 450,259 455,259 459,260 462,262 464,265 465,269 465,274 464,280 462,287 459,295 455,304 450,314 444,325 437,337 431,348 426,358 422,367 419,375 417,382 416,388 416,393 417,397 419,400 422,402 426,403 431,403 437,402 442,400 446,397 449,393 451,388 452,382 452,375 451,367 449,358 446,348 442,339 437,331 433,324 430,318 428,313 427,309 427,306 428,304 430,303 433,303 437,304 440,306 442,309 443,313 443,318 442,324 440,331 437,339 435,346 434,352 434,357 435,361 437,364 438,366 438,367 437,367 437,366 437,364 437,361 437,357 437,352 437,346 437,341 437,337 437,334 437,332 437,331 437,331 437,332 437,334 437,337 437,341 437,344 436,346 434,347 431,347 427,346 424,344 422,341 421,337 421,332 422,326 424,319 426,313 427,308 427,304 426,301 426,299 426,298 426,298 426,299 426,301 426,304 426,308 426,313 426,317 426,320 426,322 426,323 426,323 426,322 426,320 426,317 426,314 425,312 424,311 424,311 424,312 424,314 424,317 424,319 424,320 424,320 424,319 424,318 423,316 421,313 418,309 414,305 409,302 403,300 396,299 388,299 379,300 369,302 358,305 348,307 339,308 331,308 324,307 318,305 313,304 309,304 306,305 304,305 303,305 303,305 304,305 306,305 309,305 313,305 318,305 324,305 331,305 339,305 348,305 356,305 363,305 369,305 374,305 378,305 381,305 383,305 384,305 384,305 383,305 381,305 378,305 374,305 369,305 363,305 356,305 350,305 345,305 341,305 338,305 336,305 335,305 335,305 336,305 338,305 341,305 345,305 350,305 355,305 359,306 362,308 364,309 365,309 365,308 364,308 362,308 359,308 355,308 350,308 346,307 343,305 341,304 340,304 340,304 341,304 343,304 346,304 350,304 355,304 361,304 368,304 376,304 385,304 395,304 406,304 418,304 431,304 443,304 454,304 464,304 473,304 481,304 488,304 494,304 499,304 503,304 506,304 508,304 509,304 509,304 508,304 506,304 503,304 499,304 494,304 488,304 481,304 473,304 464,304 454,304 443,304 433,304 424,304 416,304 409,304 403,304 398,304 394,304 391,304 389,304 388,304 388,304 389,304 391,304 394,304 398,304 403,304 409,304 416,304 424,304 433,304 441,304 448,304 454,304 459,304 463,304 466,304 468,304 469,304 469,304 468,304 466,304 463,304 459,304 454,304 448,304 441,304 435,304 430,304 426,304 423,304 421,304 420,304 420,304 421,304 423,304 426,304 430,304 435,304 439,304 442,304 444,304 445,304 445,304 444,304 442,304 439,304 436,304 434,303 433,301 433,298 434,294 436,289 439,283 443,276 448,268 454,259 461,251 467,244 472,238 476,233 479,229 481,226 482,224 482,223 481,223 479,224 476,226 472,229 467,233 463,238 460,244 458,251 457,259 457,266 458,272 460,277 463,281 465,284 466,286 466,287 465,287 464,286 464,284 464,281 464,277 464,272 464,266 464,259 465,253 467,248 470,244 474,241 479,239 483,238 486,238 488,239 489,241 489,244 488,248 486,253 483,259 479,266 476,274 474,281 473,287 473,292 474,296 476,299 479,301 481,302 482,302 482,301 481,299 479,296 478,292 478,287 479,281 479,275 480,270 481,266 481,263 481,261 481,260 481,260 481,261 481,263 481,266 481,270 481,273 480,277 478,280 477,282 477,283 478,283 478,282 478,280 478,279 477,277 475,274 472,270 468,265 463,261 457,258 450,256 444,255 439,255 435,256 432,258 430,261 429,263 429,264 430,264 432,263 435,261 439,260 444,260 449,261 455,261 460,260 464,258 467,257 469,257 470,258 470,258 469,258 467,258 464,258 460,258 457,259 455,261 454,264 454,268 455,273 457,279 460,286 464,292 467,297 469,301 470,304 470,306 469,307 467,307 466,306 466,304 467,301 467,297 467,292 467,288 467,285 467,283 467,282 467,282 467,283 467,285 467,288 467,291 468,293 470,294 472,294 473,293 473,291 472,288 472,284 472,279 472,273 472,268 472,264 472,261 472,259 472,258 472,258 472,259 472,261 472,264 472,268 472,271 472,273 472,274 472,274 472,273 472,271 472,269 471,268 469,268 466,269 462,271 457,274 453,278 450,283 448,289 447,294 447,298 448,301 450,303 453,304 457,304 460,303 462,301 463,298 463,294 462,291 460,289 457,288 455,288 454,289 454,291 455,294 457,296 458,297 458,297 457,296 457,294 458,291 460,287 463,284 467,282 472,281 476,281 479,282 481,284 482,285 482,285 481,285 479,285 476,285 472,286 469,288 467,289 466,289 466,289 467,289 469,289 472,289 474,290 475,292 475,293 474,293 472,292 469,292 465,292 462,292 460,292 459,292 459,292 460,292 462,292 463,292 463,293 462,295 460,298 457,301 453,303 448,304 442,304 435,303 427,301 418,300 408,300 397,301 385,301 372,301 360,301 349,302 339,304 330,307 322,311 315,316 309,322 304,329 300,337 297,346 295,354 294,361 294,367 295,372 297,376 300,379 304,381 309,382 315,382 322,381 330,379 339,376 349,372 360,367 372,361 385,354 399,346 414,339 430,333 445,328 459,324 472,321 484,319 495,318 505,318 514,319 522,321 529,324 535,328 540,333 544,339 547,346 549,352 550,357 550,361 549,364 547,366 544,367 540,367 535,366 529,364 522,361 514,357 505,352 495,346 484,341 472,337 459,334 445,332 432,331 420,331 409,332 399,334 390,337 382,341 375,346 369,350 364,353 360,355 357,356 355,356 354,355 354,353 355,350 357,346 360,343 364,341 369,340 375,340 382,341 390,343 399,346 409,348 420,349 432,349 443,348 453,346 462,345 470,345 477,346 483,346 488,346 492,346 495,346 497,346 498,346 498,346 497,346 495,346 492,346 488,346 483,346 477,346 470,346 462,346 453,346 443,346 434,346 426,346 419,346 413,346 408,346 404,346 401,346 399,346 398,346 398,346 399,346 401,346 404,346 408,346 413,346 419,346 426,346 434,346 441,346 447,346 452,346 456,346 459,346 461,346 462,346 462,346 461,346 459,346 456,346 452,346 447,346 441,346 436,346 432,346 429,346 427,346 426,346 426,346 427,346 429,346 432,346 436,346 440,346 443,345 445,343 446,340 446,336 445,331 443,325 440,318 437,310 435,301 434,291 434,280 435,268 437,257 438,247 438,238 437,230 437,223 437,217 437,212 437,208 437,205 437,203 437,202 437,202 437,203 437,205 437,208 437,212 437,217 437,223 437,230 437,238 437,247 437,257" fill="none" stroke="red" stroke-width="8.34" />
  <circle cx="437" cy="268" r="16.68" fill="blue" />
</svg>