<svg width="1000" height="1000" xmlns="http://www.w3.org/2000/svg">
  <rect x="200" y="200" width="600" height="600" fill="white" stroke="gray" stroke-width="5" />
  <circle cx="440.6" cy="263.0" r="7" fill="black" />
  <circle cx="596.7" cy="414.8" r="7" fill="black" />
  <circle cx="579.5" cy="221.5" r="7" fill="black" />
  <circle cx="391.9" cy="234.4" r="7" fill="black" />
  <circle cx="411.9" cy="462.1" r="7" fill="black" />
  <circle cx="393.3" cy="358.9" r="7" fill="black" />
  <circle cx="370.4" cy="476.4" r="7" fill="black" />
  <circle cx="596.7" cy="284.5" r="7" fill="black" />
  <circle cx="576.6" cy="493.6" r="7" fill="black" />
  <circle cx="513.6" cy="429.1" r="7" fill="black" />
  <circle cx="483.5" cy="487.8" r="7" fill="black" />
  <circle cx="510.7" cy="409.1" r="7" fill="black" />
  <circle cx="489.3" cy="298.8" r="7" fill="black" />
  <circle cx="543.7" cy="449.2" r="7" fill="black" />
  <circle cx="512.2" cy="432.0" r="7" fill="black" />
  <circle cx="529.4" cy="221.5" r="7" fill="black" />
  <circle cx="434.8" cy="450.6" r="7" fill="black" />
  <circle cx="555.1" cy="328.9" r="7" fill="black" />
  <circle cx="602.4" cy="297.4" r="7" fill="black" />
  <circle cx="436.3" cy="261.6" r="7" fill="black" />
  <circle cx="383.3" cy="255.8" r="7" fill="black" />
  <circle cx="462.1" cy="271.6" r="7" fill="black" />
  <circle cx="363.2" cy="459.2" r="7" fill="black" />
  <circle cx="609.5" cy="215.8" r="7" fill="black" />
  <circle cx="583.8" cy="324.6" r="7" fill="black" />
  <circle cx="407.6" cy="354.7" r="7" fill="black" />
  <circle cx="377.6" cy="245.8" r="7" fill="black" />
  <circle cx="629.6" cy="283.1" r="7" fill="black" />
  <circle cx="384.7" cy="258.7" r="7" fill="black" />
  <circle cx="563.7" cy="212.9" r="7" fill="black" />
  <circle cx="485.0" cy="244.4" r="7" fill="black" />
  <circle cx="616.7" cy="221.5" r="7" fill="black" />
  <circle cx="366.1" cy="453.5" r="7" fill="black" />
  <circle cx="535.1" cy="327.4" r="7" fill="black" />
  <circle cx="371.8" cy="227.2" r="7" fill="black" />
  <circle cx="509.3" cy="467.8" r="7" fill="black" />
  <circle cx="490.7" cy="427.7" r="7" fill="black" />
  <circle cx="582.3" cy="462.1" r="7" fill="black" />
  <circle cx="568.0" cy="275.9" r="7" fill="black" />
  <circle cx="470.6" cy="326.0" r="7" fill="black" />
  <circle cx="612.4" cy="238.7" r="7" fill="black" />
  <circle cx="363.2" cy="310.3" r="7" fill="black" />
  <circle cx="642.5" cy="225.8" r="7" fill="black" />
  <circle cx="496.4" cy="356.1" r="7" fill="black" />
  <circle cx="442.0" cy="321.7" r="7" fill="black" />
  <circle cx="515.0" cy="336.0" r="7" fill="black" />
  <circle cx="463.5" cy="409.1" r="7" fill="black" />
  <circle cx="383.3" cy="224.3" r="7" fill="black" />
  <circle cx="599.5" cy="364.7" r="7" fill="black" />
  <circle cx="546.5" cy="381.9" r="7" fill="black" />
  <circle cx="515.0" cy="381.9" r="7" fill="black" />
  <circle cx="525.1" cy="429.1" r="7" fill="black" />
  <circle cx="401.9" cy="493.6" r="7" fill="black" />
  <circle cx="429.1" cy="230.1" r="7" fill="black" />
  <circle cx="512.2" cy="227.2" r="7" fill="black" />
  <circle cx="588.1" cy="366.1" r="7" fill="black" />
  <circle cx="605.3" cy="464.9" r="7" fill="black" />
  <circle cx="576.6" cy="351.8" r="7" fill="black" />
  <circle cx="447.7" cy="281.6" r="7" fill="black" />
  <circle cx="457.8" cy="327.4" r="7" fill="black" />
  <circle cx="605.3" cy="437.7" r="7" fill="black" />
  <circle cx="603.8" cy="310.3" r="7" fill="black" />
  <circle cx="444.9" cy="327.4" r="7" fill="black" />
  <circle cx="371.8" cy="264.4" r="7" fill="black" />
  <circle cx="444.9" cy="483.5" r="7" fill="black" />
  <circle cx="641.1" cy="243.0" r="7" fill="black" />
  <circle cx="569.5" cy="220.0" r="7" fill="black" />
  <circle cx="523.6" cy="422.0" r="7" fill="black" />
  <circle cx="573.7" cy="386.2" r="7" fill="black" />
  <circle cx="545.1" cy="265.9" r="7" fill="black" />
  <circle cx="366.1" cy="479.2" r="7" fill="black" />
  <circle cx="414.8" cy="232.9" r="7" fill="black" />
  <circle cx="635.3" cy="351.8" r="7" fill="black" />
  <circle cx="429.1" cy="463.5" r="7" fill="black" />
  <circle cx="556.6" cy="473.5" r="7" fill="black" />
  <circle cx="590.9" cy="211.5" r="7" fill="black" />
  <circle cx="539.4" cy="271.6" r="7" fill="black" />
  <circle cx="552.3" cy="254.4" r="7" fill="black" />
  <circle cx="391.9" cy="250.1" r="7" fill="black" />
  <circle cx="371.8" cy="218.6" r="7" fill="black" />
  <circle cx="635.3" cy="384.7" r="7" fill="black" />
  <circle cx="546.5" cy="250.1" r="7" fill="black" />
  <circle cx="513.6" cy="463.5" r="7" fill="black" />
  <circle cx="379.0" cy="477.8" r="7" fill="black" />
  <circle cx="403.3" cy="288.8" r="7" fill="black" />
  <circle cx="505.0" cy="288.8" r="7" fill="black" />
  <circle cx="537.9" cy="297.4" r="7" fill="black" />
  <circle cx="542.2" cy="225.8" r="7" fill="black" />
  <circle cx="578.0" cy="221.5" r="7" fill="black" />
  <circle cx="505.0" cy="472.1" r="7" fill="black" />
  <circle cx="573.7" cy="393.3" r="7" fill="black" />
  <circle cx="555.1" cy="410.5" r="7" fill="black" />
  <circle cx="583.8" cy="350.4" r="7" fill="black" />
  <circle cx="616.7" cy="495.0" r="7" fill="black" />
  <circle cx="593.8" cy="439.1" r="7" fill="black" />
  <circle cx="500.7" cy="220.0" r="7" fill="black" />
  <circle cx="430.5" cy="370.4" r="7" fill="black" />
  <circle cx="462.1" cy="366.1" r="7" fill="black" />
  <circle cx="380.4" cy="283.1" r="7" fill="black" />
  <circle cx="555.1" cy="230.1" r="7" fill="black" />
  <polyline points="499.3,353.2 497.9,354.7 496.4,356.1 493.6,358.9 489.3,363.2 483.5,366.1 476.4,367.5 469.2,367.5 462.1,366.1 453.5,366.1 443.4,366.1 434.8,364.7 424.8,363.2 413.4,360.4 403.3,358.9 393.3,358.9 384.7,357.5 377.6,354.7 371.8,350.4 364.7,344.6 358.9,337.5 354.7,328.9 351.8,321.7 350.4,316.0 350.4,311.7 351.8,308.8 354.7,307.4 358.9,307.4 361.8,308.8 363.2,310.3 366.1,310.3 370.4,308.8 376.1,306.0 380.4,301.7 383.3,295.9 384.7,290.2 384.7,285.9 383.3,283.1 381.9,281.6 380.4,281.6 380.4,283.1 381.9,285.9 384.7,288.8 389.0,290.2 394.7,290.2 399.0,288.8 403.3,288.8 409.1,287.4 416.2,284.5 424.8,281.6 434.8,280.2 443.4,278.8 450.6,275.9 456.3,273.0 462.1,271.6 466.3,268.7 469.2,264.4 473.5,258.7 479.2,251.6 485.0,244.4 492.1,235.8 500.7,228.6 509.3,222.9 516.5,218.6 522.2,215.8 526.5,214.3 529.4,214.3 530.8,215.8 530.8,218.6 529.4,221.5 529.4,224.3 530.8,225.8 533.7,225.8 537.9,225.8 542.2,225.8 548.0,227.2 555.1,230.1 563.7,231.5 570.9,231.5 576.6,230.1 582.3,227.2 586.6,222.9 589.5,217.2 590.9,211.5 593.8,207.2 598.1,204.3 603.8,202.9 608.1,202.9 611.0,204.3 612.4,207.2 612.4,211.5 611.0,214.3 609.5,215.8 609.5,218.6 611.0,221.5 613.8,222.9 615.3,222.9 616.7,221.5 616.7,221.5 615.3,222.9 612.4,225.8 611.0,230.1 611.0,234.4 612.4,238.7 615.3,243.0 619.6,245.8 625.3,247.3 632.5,247.3 638.2,248.7 642.5,248.7 645.3,247.3 646.8,244.4 646.8,243.0 645.3,243.0 642.5,243.0 641.1,243.0 641.1,241.5 642.5,238.7 642.5,234.4 642.5,230.1 642.5,225.8 641.1,222.9 638.2,221.5 633.9,221.5 628.2,221.5 621.0,221.5 612.4,221.5 602.4,221.5 590.9,221.5 578.0,221.5 563.7,222.9 548.0,222.9 530.8,224.3 512.2,227.2 495.0,228.6 477.8,228.6 459.2,230.1 439.1,231.5 417.7,231.5 394.7,230.1 371.8,227.2 350.4,225.8 330.3,225.8 311.7,227.2 294.5,230.1 278.8,234.4 264.4,237.2 251.6,240.1 240.1,241.5 230.1,241.5 221.5,240.1 214.3,237.2 208.6,232.9 204.3,227.2 201.4,222.9 200.0,220.0 200.0,218.6 201.4,218.6 204.3,218.6 208.6,218.6 214.3,218.6 221.5,218.6 230.1,218.6 240.1,218.6 251.6,218.6 264.4,218.6 278.8,218.6 294.5,218.6 311.7,218.6 330.3,218.6 350.4,218.6 371.8,218.6 394.7,220.0 419.1,221.5 444.9,221.5 472.1,220.0 500.7,220.0 527.9,220.0 553.7,220.0 579.5,221.5 603.8,224.3 626.7,228.6 648.2,234.4 668.3,241.5 686.9,250.1 704.1,260.1 719.8,271.6 734.1,284.5 747.0,297.4 758.5,308.8 768.5,318.9 777.1,327.4 784.2,334.6 790.0,340.3 794.3,344.6 797.1,347.5 798.6,350.4 798.6,351.8 797.1,351.8 794.3,351.8 790.0,351.8 784.2,351.8 777.1,351.8 768.5,351.8 758.5,351.8 747.0,351.8 734.1,351.8 719.8,351.8 704.1,351.8 686.9,351.8 668.3,351.8 648.2,353.2 626.7,356.1 606.7,360.4 588.1,366.1 570.9,371.8 553.7,376.1 535.1,379.0 515.0,381.9 496.4,386.2 479.2,391.9 463.5,399.0 449.2,407.6 436.3,417.7 424.8,429.1 411.9,442.0 399.0,454.9 384.7,466.3 370.4,476.4 357.5,485.0 346.1,492.1 336.0,497.9 327.4,502.1 320.3,505.0 314.6,506.4 310.3,506.4 307.4,505.0 306.0,502.1 306.0,497.9 307.4,492.1 310.3,485.0 314.6,479.2 320.3,474.9 327.4,469.2 336.0,462.1 346.1,456.3 354.7,452.0 361.8,449.2 367.5,447.7 371.8,447.7 374.7,449.2 376.1,452.0 376.1,453.5 374.7,453.5 371.8,453.5 369.0,453.5 366.1,453.5 363.2,454.9 361.8,457.8 361.8,459.2 363.2,459.2 366.1,460.6 367.5,463.5 367.5,467.8 366.1,473.5 366.1,479.2 367.5,483.5 370.4,486.4 374.7,487.8 377.6,487.8 379.0,486.4 379.0,483.5 379.0,480.7 379.0,477.8 380.4,476.4 383.3,476.4 387.6,477.8 393.3,480.7 399.0,485.0 403.3,489.3 406.2,492.1 407.6,493.6 407.6,493.6 406.2,493.6 403.3,493.6 401.9,493.6 401.9,492.1 403.3,489.3 406.2,485.0 410.5,479.2 413.4,472.1 417.7,466.3 423.4,462.1 429.1,456.3 434.8,450.6 439.1,446.3 444.9,440.6 452.0,433.4 457.8,424.8 462.1,417.7 464.9,411.9 466.3,407.6 466.3,404.8 464.9,403.3 463.5,403.3 463.5,404.8 463.5,407.6 463.5,409.1 464.9,411.9 467.8,416.2 472.1,422.0 477.8,426.3 483.5,429.1 487.8,430.5 490.7,430.5 492.1,429.1 492.1,427.7 490.7,427.7 490.7,429.1 492.1,432.0 495.0,433.4 499.3,433.4 505.0,432.0 512.2,432.0 517.9,430.5 525.1,429.1 532.2,426.3 539.4,422.0 548.0,416.2 555.1,410.5 563.7,403.3 570.9,396.2 576.6,389.0 583.8,380.4 592.4,371.8 599.5,364.7 605.3,356.1 612.4,348.9 619.6,343.2 625.3,338.9 629.6,336.0 632.5,334.6 633.9,334.6 635.3,336.0 635.3,338.9 635.3,343.2 635.3,347.5 635.3,351.8 635.3,357.5 635.3,364.7 635.3,371.8 635.3,379.0 635.3,384.7 633.9,391.9 631.0,400.5 626.7,410.5 621.0,419.1 613.8,429.1 605.3,437.7 598.1,444.9 592.4,450.6 586.6,456.3 582.3,462.1 576.6,469.2 570.9,474.9 565.2,479.2 560.9,482.1 558.0,483.5 556.6,483.5 556.6,482.1 556.6,479.2 556.6,476.4 556.6,473.5 555.1,469.2 552.3,463.5 548.0,456.3 543.7,449.2 537.9,440.6 530.8,430.5 523.6,422.0 516.5,414.8 510.7,409.1 506.4,404.8 503.6,401.9 502.1,400.5 502.1,400.5 503.6,401.9 506.4,404.8 510.7,409.1 513.6,414.8 515.0,420.5 515.0,424.8 513.6,429.1 513.6,434.8 513.6,442.0 513.6,450.6 512.2,459.2 509.3,467.8 505.0,474.9 499.3,480.7 492.1,485.0 483.5,487.8 473.5,489.3 462.1,489.3 452.0,487.8 443.4,485.0 436.3,480.7 430.5,474.9 424.8,469.2 417.7,464.9 411.9,462.1 407.6,460.6 404.8,460.6 403.3,462.1 403.3,463.5 404.8,463.5 407.6,463.5 411.9,463.5 417.7,463.5 423.4,463.5 429.1,463.5 436.3,464.9 442.0,467.8 446.3,472.1 449.2,476.4 450.6,480.7 450.6,483.5 449.2,485.0 446.3,485.0 444.9,483.5 444.9,480.7 446.3,476.4 449.2,472.1 453.5,469.2 459.2,467.8 466.3,467.8 474.9,469.2 485.0,472.1 493.6,473.5 500.7,473.5 506.4,472.1 510.7,470.6 513.6,467.8 515.0,464.9 515.0,463.5 513.6,463.5 510.7,464.9 507.9,467.8 505.0,472.1 503.6,477.8 503.6,485.0 505.0,490.7 507.9,495.0 512.2,497.9 517.9,499.3 525.1,499.3 533.7,497.9 543.7,495.0 555.1,493.6 566.6,493.6 576.6,493.6 588.1,495.0 598.1,495.0 608.1,495.0 616.7,495.0 623.9,493.6 629.6,490.7 633.9,486.4 636.8,480.7 638.2,473.5 638.2,467.8 636.8,463.5 633.9,460.6 629.6,459.2 623.9,459.2 616.7,460.6 611.0,463.5 605.3,464.9 598.1,464.9 592.4,463.5 588.1,460.6 585.2,456.3 583.8,450.6 583.8,444.9 585.2,440.6 588.1,437.7 590.9,436.3 592.4,436.3 593.8,437.7 593.8,439.1 595.2,439.1 596.7,437.7 596.7,434.8 596.7,430.5 596.7,424.8 596.7,419.1 596.7,414.8 595.2,409.1 592.4,401.9 588.1,394.7 582.3,389.0 578.0,384.7 575.2,381.9 573.7,380.4 573.7,380.4 573.7,381.9 573.7,384.7 573.7,386.2 573.7,389.0 573.7,393.3 572.3,396.2 569.5,397.6 565.2,397.6 559.4,396.2 552.3,393.3 546.5,391.9 542.2,389.0 539.4,386.2 537.9,383.3 537.9,381.9 539.4,381.9 542.2,381.9 546.5,381.9 552.3,380.4 559.4,377.6 568.0,373.3 575.2,367.5 580.9,361.8 585.2,357.5 588.1,354.7 589.5,351.8 589.5,350.4 588.1,350.4 585.2,350.4 583.8,350.4 580.9,351.8 576.6,351.8 573.7,350.4 569.5,347.5 563.7,343.2 558.0,337.5 553.7,333.2 548.0,330.3 540.8,328.9 535.1,327.4 527.9,327.4 522.2,328.9 517.9,331.7 515.0,336.0 510.7,338.9 505.0,340.3 497.9,340.3 489.3,338.9 479.2,336.0 469.2,331.7 457.8,327.4 447.7,324.6 439.1,323.2 432.0,323.2 424.8,324.6 417.7,327.4 410.5,331.7 404.8,337.5 400.5,343.2 397.6,347.5 396.2,351.8 396.2,354.7 397.6,356.1 400.5,356.1 404.8,354.7 407.6,354.7 411.9,356.1 417.7,358.9 423.4,363.2 427.7,367.5 430.5,370.4 434.8,371.8 440.6,371.8 444.9,370.4 447.7,367.5 449.2,363.2 449.2,357.5 447.7,350.4 444.9,341.8 443.4,331.7 442.0,321.7 442.0,310.3 443.4,297.4 443.4,284.5 442.0,273.0 440.6,263.0 437.7,251.6 433.4,240.1 429.1,230.1 423.4,221.5 416.2,214.3 407.6,208.6 399.0,204.3 391.9,201.4 386.2,200.0 381.9,200.0 379.0,201.4 377.6,204.3 377.6,208.6 379.0,214.3 381.9,220.0 383.3,224.3 386.2,230.1 389.0,235.8 390.5,240.1 391.9,245.8 391.9,250.1 390.5,254.4 387.6,257.3 384.7,258.7 383.3,258.7 383.3,257.3 383.3,255.8 381.9,253.0 379.0,248.7 377.6,245.8 377.6,241.5 379.0,235.8 381.9,231.5 386.2,228.6 389.0,227.2 390.5,227.2 391.9,228.6 391.9,231.5 391.9,234.4 393.3,235.8 396.2,235.8 400.5,234.4 406.2,232.9 410.5,232.9 414.8,232.9 420.5,234.4 427.7,237.2 434.8,241.5 440.6,247.3 444.9,254.4 447.7,263.0 449.2,270.2 449.2,275.9 447.7,281.6 444.9,285.9 440.6,288.8 437.7,290.2 436.3,290.2 436.3,288.8 436.3,285.9 436.3,281.6 436.3,275.9 436.3,268.7 436.3,261.6 434.8,255.8 432.0,251.6 427.7,248.7 422.0,247.3 414.8,247.3 406.2,248.7 396.2,251.6 387.6,255.8 379.0,260.1 371.8,264.4 366.1,270.2 361.8,277.3 358.9,285.9 357.5,295.9 357.5,307.4 358.9,318.9 361.8,328.9 366.1,337.5 371.8,344.6 379.0,350.4 387.6,354.7 397.6,357.5 409.1,358.9 422.0,358.9 436.3,357.5 449.2,354.7 460.6,350.4 470.6,344.6 479.2,337.5 486.4,328.9 492.1,318.9 496.4,307.4 500.7,297.4 505.0,288.8 507.9,281.6 512.2,273.0 517.9,265.9 525.1,260.1 533.7,254.4 540.8,250.1 546.5,247.3 550.8,245.8 553.7,245.8 555.1,247.3 555.1,250.1 553.7,253.0 552.3,254.4 549.4,254.4 548.0,253.0 546.5,250.1 546.5,248.7 545.1,248.7 545.1,250.1 545.1,253.0 545.1,257.3 545.1,261.6 545.1,265.9 543.7,268.7 540.8,270.2 539.4,271.6 537.9,274.5 537.9,278.8 537.9,284.5 537.9,291.6 537.9,297.4 539.4,304.5 542.2,313.1 546.5,320.3 550.8,326.0 553.7,330.3 555.1,333.2 555.1,334.6 555.1,334.6 555.1,333.2 555.1,330.3 555.1,328.9 556.6,326.0 559.4,324.6 563.7,324.6 569.5,324.6 576.6,324.6 583.8,324.6 592.4,323.2 599.5,323.2 605.3,321.7 609.5,318.9 612.4,314.6 613.8,311.7 613.8,310.3 612.4,310.3 609.5,310.3 606.7,310.3 603.8,310.3 602.4,308.8 602.4,306.0 602.4,301.7 602.4,297.4 601.0,291.6 598.1,287.4 596.7,284.5 593.8,280.2 589.5,275.9 583.8,273.0 576.6,271.6 570.9,271.6 566.6,273.0 563.7,274.5 562.3,275.9 562.3,275.9 563.7,275.9 566.6,275.9 568.0,275.9 569.5,274.5 569.5,271.6 569.5,267.3 569.5,261.6 569.5,254.4 569.5,245.8 569.5,235.8 569.5,227.2 569.5,220.0 569.5,214.3 569.5,210.0 568.0,207.2 565.2,205.7 563.7,205.7 563.7,207.2 563.7,210.0 563.7,212.9 565.2,217.2 568.0,222.9 572.3,230.1 578.0,238.7 585.2,248.7 593.8,260.1 603.8,270.2 612.4,278.8 619.6,285.9 625.3,291.6 629.6,295.9 632.5,298.8 633.9,300.2 633.9,300.2 632.5,298.8 629.6,295.9 628.2,291.6 628.2,287.4 629.6,283.1 629.6,280.2 628.2,278.8 625.3,278.8 621.0,280.2 615.3,283.1 608.1,287.4 599.5,293.1 589.5,298.8 578.0,303.1 565.2,306.0 550.8,307.4 535.1,307.4 517.9,306.0 502.1,306.0 487.8,307.4 474.9,310.3 463.5,314.6 453.5,320.3 444.9,327.4 437.7,333.2 432.0,337.5 427.7,340.3 424.8,341.8 423.4,341.8 423.4,340.3 424.8,337.5 427.7,333.2 432.0,327.4 437.7,323.2 444.9,320.3 453.5,318.9 460.6,318.9 466.3,320.3 470.6,323.2 473.5,324.6 474.9,326.0 474.9,326.0 473.5,326.0 470.6,326.0 469.2,324.6 469.2,321.7 470.6,317.4 473.5,311.7 477.8,304.5 482.1,298.8 485.0,294.5 487.8,291.6 489.3,290.2 489.3,290.2 489.3,291.6 489.3,294.5" fill="none" stroke="red" stroke-width="7" stroke-opacity="0.5"/>
  <circle cx="489.3" cy="298.8" r="15" fill="blue" fill-opacity="0.5"/>
</svg>