<svg width="1000" height="1000" xmlns="http://www.w3.org/2000/svg">
  <rect x="200" y="200" width="600" height="600" fill="white" stroke="gray" stroke-width="5" />
  <circle cx="519.6" cy="474.9" r="7" fill="black" />
  <circle cx="529.8" cy="495.3" r="7" fill="black" />
  <circle cx="369.2" cy="468.7" r="7" fill="black" />
  <circle cx="411.5" cy="554.0" r="7" fill="black" />
  <circle cx="400.5" cy="717.8" r="7" fill="black" />
  <circle cx="399.0" cy="737.3" r="7" fill="black" />
  <circle cx="500.0" cy="540.7" r="7" fill="black" />
  <circle cx="297.1" cy="361.4" r="7" fill="black" />
  <circle cx="352.0" cy="452.2" r="7" fill="black" />
  <circle cx="457.7" cy="641.0" r="7" fill="black" />
  <circle cx="328.5" cy="344.9" r="7" fill="black" />
  <circle cx="529.0" cy="417.0" r="7" fill="black" />
  <circle cx="341.0" cy="742.0" r="7" fill="black" />
  <circle cx="475.7" cy="522.7" r="7" fill="black" />
  <circle cx="507.0" cy="448.3" r="7" fill="black" />
  <circle cx="558.0" cy="398.2" r="7" fill="black" />
  <circle cx="424.8" cy="745.2" r="7" fill="black" />
  <circle cx="315.9" cy="385.6" r="7" fill="black" />
  <circle cx="339.4" cy="405.2" r="7" fill="black" />
  <circle cx="416.2" cy="561.9" r="7" fill="black" />
  <circle cx="451.4" cy="713.8" r="7" fill="black" />
  <circle cx="523.5" cy="427.2" r="7" fill="black" />
  <circle cx="331.6" cy="431.1" r="7" fill="black" />
  <circle cx="382.5" cy="768.7" r="7" fill="black" />
  <circle cx="421.7" cy="662.1" r="7" fill="black" />
  <circle cx="382.5" cy="440.5" r="7" fill="black" />
  <circle cx="495.3" cy="522.7" r="7" fill="black" />
  <circle cx="345.7" cy="469.5" r="7" fill="black" />
  <circle cx="400.5" cy="751.4" r="7" fill="black" />
  <circle cx="360.6" cy="739.7" r="7" fill="black" />
  <circle cx="486.7" cy="538.4" r="7" fill="black" />
  <circle cx="413.1" cy="619.8" r="7" fill="black" />
  <circle cx="430.3" cy="582.2" r="7" fill="black" />
  <circle cx="574.4" cy="390.3" r="7" fill="black" />
  <circle cx="525.8" cy="433.4" r="7" fill="black" />
  <circle cx="341.0" cy="391.9" r="7" fill="black" />
  <circle cx="484.3" cy="625.3" r="7" fill="black" />
  <circle cx="341.8" cy="754.6" r="7" fill="black" />
  <circle cx="414.6" cy="746.7" r="7" fill="black" />
  <circle cx="578.3" cy="352.7" r="7" fill="black" />
  <circle cx="481.2" cy="599.5" r="7" fill="black" />
  <circle cx="345.7" cy="780.4" r="7" fill="black" />
  <circle cx="362.1" cy="405.2" r="7" fill="black" />
  <circle cx="511.7" cy="524.3" r="7" fill="black" />
  <circle cx="417.0" cy="679.4" r="7" fill="black" />
  <circle cx="376.2" cy="460.8" r="7" fill="black" />
  <circle cx="338.6" cy="396.6" r="7" fill="black" />
  <circle cx="561.9" cy="407.6" r="7" fill="black" />
  <circle cx="357.4" cy="422.5" r="7" fill="black" />
  <circle cx="437.3" cy="680.9" r="7" fill="black" />
  <circle cx="481.2" cy="590.9" r="7" fill="black" />
  <circle cx="418.5" cy="765.5" r="7" fill="black" />
  <circle cx="421.7" cy="665.3" r="7" fill="black" />
  <circle cx="445.2" cy="659.0" r="7" fill="black" />
  <circle cx="493.7" cy="478.9" r="7" fill="black" />
  <circle cx="562.7" cy="384.9" r="7" fill="black" />
  <circle cx="556.4" cy="434.2" r="7" fill="black" />
  <circle cx="492.2" cy="604.2" r="7" fill="black" />
  <circle cx="395.0" cy="739.7" r="7" fill="black" />
  <circle cx="390.3" cy="528.2" r="7" fill="black" />
  <circle cx="544.6" cy="407.6" r="7" fill="black" />
  <circle cx="384.9" cy="745.2" r="7" fill="black" />
  <circle cx="493.7" cy="528.2" r="7" fill="black" />
  <circle cx="469.5" cy="608.1" r="7" fill="black" />
  <circle cx="446.7" cy="720.1" r="7" fill="black" />
  <circle cx="383.3" cy="488.3" r="7" fill="black" />
  <circle cx="435.8" cy="740.5" r="7" fill="black" />
  <circle cx="308.1" cy="380.9" r="7" fill="black" />
  <circle cx="358.2" cy="431.1" r="7" fill="black" />
  <circle cx="561.9" cy="357.4" r="7" fill="black" />
  <circle cx="490.6" cy="566.6" r="7" fill="black" />
  <circle cx="443.6" cy="626.1" r="7" fill="black" />
  <circle cx="489.8" cy="536.8" r="7" fill="black" />
  <circle cx="437.3" cy="672.3" r="7" fill="black" />
  <circle cx="561.1" cy="370.8" r="7" fill="black" />
  <circle cx="429.5" cy="704.4" r="7" fill="black" />
  <circle cx="471.8" cy="579.9" r="7" fill="black" />
  <circle cx="323.8" cy="417.8" r="7" fill="black" />
  <circle cx="532.1" cy="433.4" r="7" fill="black" />
  <circle cx="412.3" cy="612.0" r="7" fill="black" />
  <circle cx="537.6" cy="417.0" r="7" fill="black" />
  <circle cx="555.6" cy="363.7" r="7" fill="black" />
  <circle cx="407.6" cy="747.5" r="7" fill="black" />
  <circle cx="329.2" cy="407.6" r="7" fill="black" />
  <circle cx="303.4" cy="366.8" r="7" fill="black" />
  <circle cx="427.9" cy="689.6" r="7" fill="black" />
  <circle cx="366.8" cy="500.0" r="7" fill="black" />
  <circle cx="520.4" cy="515.7" r="7" fill="black" />
  <circle cx="349.6" cy="363.7" r="7" fill="black" />
  <circle cx="434.2" cy="561.1" r="7" fill="black" />
  <circle cx="565.0" cy="417.8" r="7" fill="black" />
  <circle cx="445.2" cy="568.1" r="7" fill="black" />
  <circle cx="457.7" cy="586.2" r="7" fill="black" />
  <circle cx="325.3" cy="380.9" r="7" fill="black" />
  <circle cx="482.8" cy="582.2" r="7" fill="black" />
  <circle cx="375.5" cy="464.8" r="7" fill="black" />
  <circle cx="431.9" cy="697.4" r="7" fill="black" />
  <circle cx="493.7" cy="493.7" r="7" fill="black" />
  <circle cx="390.3" cy="777.3" r="7" fill="black" />
  <circle cx="472.6" cy="554.0" r="7" fill="black" />
  <circle cx="381.7" cy="758.5" r="7" fill="black" />
  <circle cx="400.5" cy="771.0" r="7" fill="black" />
  <circle cx="435.0" cy="734.2" r="7" fill="black" />
  <circle cx="575.2" cy="370.8" r="7" fill="black" />
  <circle cx="308.9" cy="374.7" r="7" fill="black" />
  <circle cx="408.4" cy="519.6" r="7" fill="black" />
  <circle cx="526.6" cy="473.4" r="7" fill="black" />
  <circle cx="450.7" cy="599.5" r="7" fill="black" />
  <circle cx="503.1" cy="499.2" r="7" fill="black" />
  <circle cx="489.8" cy="556.4" r="7" fill="black" />
  <circle cx="439.7" cy="651.2" r="7" fill="black" />
  <circle cx="453.8" cy="624.5" r="7" fill="black" />
  <circle cx="323.8" cy="397.4" r="7" fill="black" />
  <circle cx="393.5" cy="761.6" r="7" fill="black" />
  <circle cx="435.8" cy="616.7" r="7" fill="black" />
  <circle cx="339.4" cy="366.1" r="7" fill="black" />
  <circle cx="542.3" cy="359.0" r="7" fill="black" />
  <circle cx="366.8" cy="454.6" r="7" fill="black" />
  <circle cx="306.5" cy="366.8" r="7" fill="black" />
  <circle cx="505.5" cy="439.7" r="7" fill="black" />
  <circle cx="449.9" cy="653.5" r="7" fill="black" />
  <circle cx="294.0" cy="348.8" r="7" fill="black" />
  <circle cx="514.9" cy="434.2" r="7" fill="black" />
  <circle cx="359.8" cy="390.3" r="7" fill="black" />
  <circle cx="429.5" cy="565.8" r="7" fill="black" />
  <circle cx="435.0" cy="707.6" r="7" fill="black" />
  <circle cx="375.5" cy="484.3" r="7" fill="black" />
  <circle cx="518.0" cy="427.2" r="7" fill="black" />
  <circle cx="314.4" cy="398.2" r="7" fill="black" />
  <circle cx="439.7" cy="598.7" r="7" fill="black" />
  <circle cx="359.8" cy="445.2" r="7" fill="black" />
  <circle cx="387.2" cy="514.9" r="7" fill="black" />
  <circle cx="431.9" cy="745.2" r="7" fill="black" />
  <circle cx="443.6" cy="708.4" r="7" fill="black" />
  <circle cx="292.4" cy="346.5" r="7" fill="black" />
  <circle cx="489.8" cy="614.4" r="7" fill="black" />
  <circle cx="427.9" cy="605.0" r="7" fill="black" />
  <circle cx="537.6" cy="451.4" r="7" fill="black" />
  <circle cx="396.6" cy="465.5" r="7" fill="black" />
  <circle cx="490.6" cy="554.0" r="7" fill="black" />
  <circle cx="395.0" cy="570.5" r="7" fill="black" />
  <circle cx="465.5" cy="601.0" r="7" fill="black" />
  <circle cx="429.5" cy="662.1" r="7" fill="black" />
  <circle cx="472.6" cy="521.1" r="7" fill="black" />
  <circle cx="568.9" cy="355.1" r="7" fill="black" />
  <circle cx="409.9" cy="750.7" r="7" fill="black" />
  <circle cx="500.0" cy="579.9" r="7" fill="black" />
  <circle cx="513.3" cy="550.9" r="7" fill="black" />
  <circle cx="435.0" cy="619.1" r="7" fill="black" />
  <circle cx="436.6" cy="735.0" r="7" fill="black" />
  <circle cx="398.2" cy="510.2" r="7" fill="black" />
  <circle cx="450.7" cy="678.6" r="7" fill="black" />
  <circle cx="479.6" cy="532.1" r="7" fill="black" />
  <circle cx="360.6" cy="490.6" r="7" fill="black" />
  <circle cx="396.6" cy="579.9" r="7" fill="black" />
  <circle cx="514.1" cy="508.6" r="7" fill="black" />
  <circle cx="531.3" cy="417.0" r="7" fill="black" />
  <circle cx="405.2" cy="758.5" r="7" fill="black" />
  <circle cx="570.5" cy="364.5" r="7" fill="black" />
  <circle cx="437.3" cy="688.8" r="7" fill="black" />
  <circle cx="453.8" cy="643.3" r="7" fill="black" />
  <circle cx="368.4" cy="517.2" r="7" fill="black" />
  <circle cx="486.7" cy="610.4" r="7" fill="black" />
  <circle cx="346.5" cy="402.1" r="7" fill="black" />
  <circle cx="539.2" cy="403.7" r="7" fill="black" />
  <circle cx="384.1" cy="459.3" r="7" fill="black" />
  <circle cx="338.6" cy="352.0" r="7" fill="black" />
  <circle cx="415.4" cy="753.0" r="7" fill="black" />
  <circle cx="482.8" cy="609.7" r="7" fill="black" />
  <circle cx="510.2" cy="426.4" r="7" fill="black" />
  <circle cx="309.7" cy="377.0" r="7" fill="black" />
  <circle cx="418.5" cy="524.3" r="7" fill="black" />
  <circle cx="474.9" cy="643.3" r="7" fill="black" />
  <circle cx="467.1" cy="594.8" r="7" fill="black" />
  <circle cx="509.4" cy="559.5" r="7" fill="black" />
  <circle cx="385.6" cy="521.9" r="7" fill="black" />
  <circle cx="489.8" cy="550.9" r="7" fill="black" />
  <circle cx="513.3" cy="470.2" r="7" fill="black" />
  <circle cx="525.1" cy="465.5" r="7" fill="black" />
  <circle cx="455.4" cy="598.7" r="7" fill="black" />
  <circle cx="524.3" cy="402.1" r="7" fill="black" />
  <circle cx="519.6" cy="417.8" r="7" fill="black" />
  <circle cx="409.1" cy="489.0" r="7" fill="black" />
  <circle cx="370.0" cy="478.1" r="7" fill="black" />
  <circle cx="519.6" cy="420.9" r="7" fill="black" />
  <circle cx="379.4" cy="435.8" r="7" fill="black" />
  <circle cx="320.6" cy="395.8" r="7" fill="black" />
  <circle cx="482.8" cy="612.0" r="7" fill="black" />
  <circle cx="523.5" cy="469.5" r="7" fill="black" />
  <circle cx="376.2" cy="778.1" r="7" fill="black" />
  <circle cx="406.8" cy="515.7" r="7" fill="black" />
  <circle cx="476.5" cy="632.4" r="7" fill="black" />
  <circle cx="421.7" cy="591.6" r="7" fill="black" />
  <circle cx="478.1" cy="539.2" r="7" fill="black" />
  <circle cx="525.8" cy="523.5" r="7" fill="black" />
  <circle cx="399.7" cy="583.8" r="7" fill="black" />
  <circle cx="473.4" cy="550.1" r="7" fill="black" />
  <circle cx="349.6" cy="742.0" r="7" fill="black" />
  <circle cx="431.9" cy="690.3" r="7" fill="black" />
  <circle cx="348.0" cy="424.0" r="7" fill="black" />
  <circle cx="341.0" cy="450.7" r="7" fill="black" />
  <circle cx="348.0" cy="454.6" r="7" fill="black" />
  <circle cx="576.0" cy="353.5" r="7" fill="black" />
  <circle cx="420.9" cy="738.1" r="7" fill="black" />
  <circle cx="566.6" cy="370.0" r="7" fill="black" />
  <circle cx="448.3" cy="661.4" r="7" fill="black" />
  <circle cx="503.9" cy="525.8" r="7" fill="black" />
  <circle cx="457.7" cy="656.7" r="7" fill="black" />
  <circle cx="357.4" cy="769.5" r="7" fill="black" />
  <circle cx="427.2" cy="760.1" r="7" fill="black" />
  <circle cx="573.6" cy="373.9" r="7" fill="black" />
  <circle cx="471.0" cy="549.3" r="7" fill="black" />
  <circle cx="435.8" cy="734.2" r="7" fill="black" />
  <circle cx="406.0" cy="733.4" r="7" fill="black" />
  <circle cx="373.9" cy="492.2" r="7" fill="black" />
  <circle cx="543.1" cy="373.9" r="7" fill="black" />
  <circle cx="431.9" cy="654.3" r="7" fill="black" />
  <circle cx="384.1" cy="451.4" r="7" fill="black" />
  <circle cx="348.8" cy="750.7" r="7" fill="black" />
  <circle cx="344.9" cy="774.2" r="7" fill="black" />
  <circle cx="409.1" cy="513.3" r="7" fill="black" />
  <circle cx="417.0" cy="538.4" r="7" fill="black" />
  <circle cx="488.3" cy="589.3" r="7" fill="black" />
  <circle cx="468.7" cy="645.7" r="7" fill="black" />
  <circle cx="341.8" cy="437.3" r="7" fill="black" />
  <circle cx="479.6" cy="573.6" r="7" fill="black" />
  <circle cx="413.1" cy="554.0" r="7" fill="black" />
  <circle cx="504.7" cy="543.9" r="7" fill="black" />
  <circle cx="383.3" cy="494.5" r="7" fill="black" />
  <circle cx="401.3" cy="474.2" r="7" fill="black" />
  <circle cx="467.9" cy="553.3" r="7" fill="black" />
  <circle cx="499.2" cy="500.8" r="7" fill="black" />
  <circle cx="498.4" cy="511.0" r="7" fill="black" />
  <circle cx="476.5" cy="514.1" r="7" fill="black" />
  <circle cx="417.0" cy="571.3" r="7" fill="black" />
  <circle cx="512.5" cy="528.2" r="7" fill="black" />
  <circle cx="448.3" cy="703.7" r="7" fill="black" />
  <circle cx="466.3" cy="666.8" r="7" fill="black" />
  <circle cx="407.6" cy="514.1" r="7" fill="black" />
  <circle cx="422.5" cy="665.3" r="7" fill="black" />
  <circle cx="506.3" cy="514.9" r="7" fill="black" />
  <circle cx="329.2" cy="388.8" r="7" fill="black" />
  <circle cx="403.7" cy="765.5" r="7" fill="black" />
  <circle cx="552.5" cy="452.2" r="7" fill="black" />
  <circle cx="400.5" cy="736.6" r="7" fill="black" />
  <circle cx="514.1" cy="514.9" r="7" fill="black" />
  <circle cx="346.5" cy="774.2" r="7" fill="black" />
  <circle cx="384.9" cy="749.9" r="7" fill="black" />
  <circle cx="345.7" cy="469.5" r="7" fill="black" />
  <circle cx="565.0" cy="416.2" r="7" fill="black" />
  <circle cx="561.9" cy="371.5" r="7" fill="black" />
  <circle cx="409.9" cy="536.0" r="7" fill="black" />
  <circle cx="383.3" cy="433.4" r="7" fill="black" />
  <circle cx="370.0" cy="486.7" r="7" fill="black" />
  <circle cx="414.6" cy="544.6" r="7" fill="black" />
  <circle cx="509.4" cy="449.1" r="7" fill="black" />
  <circle cx="377.0" cy="448.3" r="7" fill="black" />
  <circle cx="365.3" cy="434.2" r="7" fill="black" />
  <circle cx="496.1" cy="458.5" r="7" fill="black" />
  <circle cx="398.2" cy="558.7" r="7" fill="black" />
  <circle cx="376.2" cy="779.6" r="7" fill="black" />
  <circle cx="366.8" cy="406.8" r="7" fill="black" />
  <circle cx="512.5" cy="436.6" r="7" fill="black" />
  <circle cx="413.8" cy="713.8" r="7" fill="black" />
  <circle cx="395.0" cy="486.7" r="7" fill="black" />
  <circle cx="410.7" cy="542.3" r="7" fill="black" />
  <circle cx="423.2" cy="607.3" r="7" fill="black" />
  <circle cx="394.3" cy="772.6" r="7" fill="black" />
  <circle cx="441.3" cy="597.1" r="7" fill="black" />
  <circle cx="403.7" cy="738.1" r="7" fill="black" />
  <circle cx="479.6" cy="530.5" r="7" fill="black" />
  <circle cx="454.6" cy="685.6" r="7" fill="black" />
  <circle cx="342.6" cy="423.2" r="7" fill="black" />
  <circle cx="565.8" cy="385.6" r="7" fill="black" />
  <circle cx="359.8" cy="486.7" r="7" fill="black" />
  <circle cx="373.1" cy="475.7" r="7" fill="black" />
  <circle cx="320.6" cy="398.2" r="7" fill="black" />
  <circle cx="342.6" cy="353.5" r="7" fill="black" />
  <circle cx="467.9" cy="585.4" r="7" fill="black" />
  <circle cx="537.6" cy="492.2" r="7" fill="black" />
  <circle cx="471.0" cy="603.4" r="7" fill="black" />
  <circle cx="483.6" cy="623.0" r="7" fill="black" />
  <circle cx="460.8" cy="684.9" r="7" fill="black" />
  <circle cx="348.8" cy="429.5" r="7" fill="black" />
  <circle cx="401.3" cy="764.8" r="7" fill="black" />
  <circle cx="430.3" cy="616.7" r="7" fill="black" />
  <circle cx="438.1" cy="712.3" r="7" fill="black" />
  <circle cx="413.1" cy="572.1" r="7" fill="black" />
  <circle cx="542.3" cy="380.9" r="7" fill="black" />
  <circle cx="310.4" cy="344.1" r="7" fill="black" />
  <circle cx="469.5" cy="665.3" r="7" fill="black" />
  <circle cx="315.9" cy="382.5" r="7" fill="black" />
  <circle cx="401.3" cy="725.6" r="7" fill="black" />
  <circle cx="341.8" cy="395.0" r="7" fill="black" />
  <circle cx="526.6" cy="496.9" r="7" fill="black" />
  <circle cx="524.3" cy="518.0" r="7" fill="black" />
  <circle cx="391.9" cy="464.8" r="7" fill="black" />
  <circle cx="404.4" cy="503.1" r="7" fill="black" />
  <circle cx="342.6" cy="410.7" r="7" fill="black" />
  <circle cx="362.9" cy="435.0" r="7" fill="black" />
  <polyline points="200.0,323.8 200.8,324.5 202.3,326.1 204.7,328.5 207.8,331.6 211.7,335.5 216.4,340.2 221.9,345.7 228.2,350.4 235.2,354.3 243.1,359.0 251.7,362.9 261.1,366.1 271.3,368.4 282.2,370.0 294.0,371.5 305.0,373.9 315.1,377.0 325.3,380.9 334.7,385.6 343.3,390.3 351.2,395.0 359.0,400.5 366.8,406.8 373.9,412.3 380.2,418.5 385.6,425.6 390.3,433.4 394.3,442.0 397.4,451.4 399.7,460.8 401.3,469.5 402.9,478.9 404.4,489.0 406.0,500.0 407.6,510.2 408.4,519.6 409.9,529.8 411.5,540.7 413.1,551.7 415.4,561.9 417.0,571.3 419.3,581.5 421.7,591.6 424.8,601.0 428.7,610.4 433.4,619.1 438.9,626.9 443.6,633.9 449.1,641.8 453.8,648.8 457.7,656.7 460.8,663.7 463.2,670.0 464.8,675.5 465.5,680.2 465.5,684.1 465.5,687.2 464.8,689.6 463.2,691.1 461.6,691.9 460.8,691.9 460.8,691.1 460.8,689.6 460.8,687.2 460.8,684.9 460.1,683.3 458.5,682.5 456.1,682.5 454.6,683.3 453.8,684.9 453.8,685.6 454.6,685.6 454.6,684.9 453.8,683.3 452.2,680.9 450.7,678.6 448.3,675.5 445.2,672.3 441.3,670.0 436.6,666.8 431.9,664.5 427.2,662.9 421.7,662.1 417.0,662.1 413.1,662.9 409.9,664.5 407.6,665.3 406.0,666.1 405.2,666.1 405.2,665.3 406.0,665.3 407.6,665.3 409.9,665.3 413.1,665.3 417.0,665.3 421.7,665.3 426.4,666.1 430.3,667.6 434.2,670.0 437.3,672.3 439.7,675.5 441.3,677.8 442.0,679.4 442.0,680.2 441.3,680.9 439.7,680.9 437.3,680.9 435.8,681.7 435.0,683.3 435.0,685.6 435.8,687.2 437.3,688.8 438.1,689.6 438.1,690.3 437.3,690.3 435.8,690.3 433.4,690.3 431.9,690.3 429.5,689.6 427.9,689.6 427.2,690.3 427.2,691.9 427.9,694.3 429.5,695.8 431.9,697.4 435.0,699.7 437.3,702.9 438.9,706.0 439.7,708.4 439.7,710.7 439.7,712.3 438.9,713.1 438.1,713.1 438.1,712.3 437.3,710.7 435.8,709.1 435.0,707.6 433.4,705.2 431.9,703.7 430.3,702.9 429.5,702.9 429.5,703.7 429.5,704.4 430.3,706.0 431.9,708.4 434.2,709.9 437.3,710.7 441.3,710.7 444.4,709.9 446.7,708.4 448.3,706.0 449.1,704.4 449.1,703.7 448.3,703.7 446.7,704.4 445.2,706.0 443.6,708.4 442.8,711.5 442.8,713.8 443.6,717.0 445.2,719.3 446.0,720.9 446.7,721.7 446.7,721.7 446.7,720.9 446.7,720.1 447.5,718.5 449.1,716.2 451.4,713.8 453.0,712.3 453.8,711.5 453.8,711.5 453.0,712.3 451.4,713.8 449.1,716.2 446.0,719.3 442.0,723.2 437.3,727.9 431.9,732.6 425.6,737.3 420.1,741.3 414.6,746.0 409.9,750.7 406.0,754.6 402.9,759.3 399.0,764.8 394.3,771.0 390.3,777.3 387.2,782.8 384.9,787.5 383.3,791.4 382.5,794.5 380.9,796.9 378.6,798.4 377.0,799.2 376.2,799.2 376.2,798.4 376.2,796.9 376.2,794.5 376.2,791.4 376.2,787.5 376.2,782.8 376.2,778.1 377.0,774.2 378.6,770.2 380.2,766.3 381.7,761.6 382.5,756.1 384.1,750.7 384.9,745.2 386.4,740.5 388.8,736.6 391.9,733.4 395.0,731.1 398.2,727.9 401.3,725.6 403.7,722.5 405.2,720.1 406.0,718.5 406.0,717.8 405.2,717.8 403.7,717.8 402.1,717.8 400.5,717.8 399.7,717.0 399.7,715.4 400.5,713.8 402.1,713.1 404.4,713.1 407.6,713.8 410.7,713.8 413.8,713.8 417.8,714.6 420.9,716.2 423.2,718.5 424.8,721.7 427.2,725.6 430.3,730.3 433.4,735.0 435.8,740.5 437.3,745.2 438.1,749.1 438.1,753.0 437.3,757.7 435.8,761.6 433.4,764.8 430.3,767.1 426.4,768.7 422.5,769.5 419.3,769.5 417.0,768.7 415.4,767.9 414.6,766.3 414.6,765.5 415.4,765.5 417.0,765.5 418.5,765.5 420.9,764.8 424.0,763.2 426.4,762.4 427.9,761.6 428.7,760.8 428.7,760.1 427.9,760.1 427.2,760.1 425.6,759.3 423.2,757.7 420.1,755.4 417.8,753.8 415.4,753.0 413.8,751.4 413.1,749.1 413.1,747.5 413.8,746.7 414.6,746.7 414.6,747.5 413.8,747.5 412.3,747.5 409.9,747.5 407.6,747.5 404.4,748.3 402.1,749.9 400.5,751.4 399.7,753.8 399.7,756.9 400.5,760.8 401.3,764.8 401.3,767.9 400.5,771.0 399.0,773.4 396.6,774.9 395.0,775.7 394.3,775.7 394.3,774.9 394.3,773.4 394.3,772.6 393.5,771.0 393.5,768.7 393.5,765.5 393.5,761.6 392.7,757.7 391.1,753.8 390.3,750.7 388.8,748.3 387.2,746.7 385.6,746.0 384.9,746.0 384.9,746.7 384.9,748.3 384.9,749.9 384.1,752.2 382.5,755.4 381.7,758.5 381.7,762.4 382.5,765.5 382.5,768.7 381.7,772.6 380.2,775.7 377.8,778.1 376.2,779.6 373.9,780.4 370.8,780.4 366.8,779.6 362.1,778.1 357.4,776.5 352.0,774.9 346.5,774.2 341.8,774.2 337.9,774.9 334.7,775.7 332.4,775.7 330.8,775.7 330.0,774.9 330.0,774.2 330.8,774.2 332.4,774.2 334.7,774.2 337.9,774.2 341.8,774.2 344.9,774.2 347.3,774.9 348.8,776.5 349.6,778.9 349.6,780.4 348.8,781.2 347.3,781.2 345.7,780.4 344.9,778.9 344.9,776.5 345.7,773.4 347.3,770.2 349.6,767.9 352.7,766.3 355.1,765.5 356.7,765.5 357.4,766.3 357.4,767.9 357.4,769.5 356.7,770.2 355.1,770.2 352.7,769.5 349.6,767.9 345.7,765.5 342.6,762.4 340.2,759.3 338.6,756.9 337.9,755.4 337.9,754.6 338.6,754.6 340.2,754.6 341.8,754.6 344.1,753.8 346.5,752.2 348.8,750.7 350.4,748.3 351.2,745.2 351.2,742.8 351.2,741.3 350.4,740.5 349.6,740.5 349.6,741.3 349.6,742.0 348.8,742.0 347.3,742.0 344.9,742.0 342.6,742.0 341.0,742.0 340.2,741.3 340.2,740.5 341.0,739.7 342.6,739.7 344.9,739.7 348.0,739.7 352.0,739.7 356.7,739.7 360.6,739.7 365.3,739.7 370.8,739.7 377.0,739.7 384.1,739.7 391.9,738.9 399.0,737.3 406.8,736.6 415.4,736.6 424.8,735.8 435.0,734.2 444.4,731.9 453.0,728.7 460.8,724.8 467.9,720.1 474.2,714.6 479.6,708.4 484.3,701.3 488.3,693.5 491.4,684.9 493.7,675.5 495.3,665.3 496.1,654.3 496.1,643.3 495.3,631.6 493.7,619.1 491.4,606.5 488.3,594.8 484.3,583.8 479.6,573.6 474.2,563.4 467.9,553.3 460.8,543.1 453.0,532.9 444.4,523.5 435.0,513.3 424.8,503.1 413.8,492.2 402.1,480.4 389.6,468.7 376.2,456.1 362.1,442.8 348.8,429.5 336.3,417.0 324.5,405.2 313.6,394.3 303.4,384.1 294.0,374.7 285.4,366.1 277.5,358.2 270.5,351.2 264.2,344.9 258.7,339.4 254.0,334.7 250.1,330.8 247.0,327.7 244.6,325.3 243.1,323.8 242.3,323.0 242.3,323.0 243.1,323.8 244.6,325.3 247.0,327.7 250.1,330.8 254.0,334.7 258.7,339.4 264.2,344.9 270.5,349.6 277.5,353.5 285.4,358.2 294.0,362.1 303.4,366.8 312.0,372.3 319.8,378.6 328.5,385.6 337.9,393.5 346.5,402.1 354.3,410.7 361.4,420.1 368.4,430.3 376.2,440.5 384.1,451.4 392.7,463.2 401.3,474.2 409.1,485.9 416.2,498.4 422.5,511.7 427.9,525.1 432.6,538.4 436.6,551.7 441.3,564.2 446.0,576.0 450.7,586.9 455.4,598.7 459.3,611.2 462.4,624.5 464.8,638.6 467.1,652.0 469.5,665.3 471.0,677.8 471.8,689.6 471.8,700.5 471.0,710.7 469.5,721.7 467.1,731.9 464.0,741.3 460.1,749.9 455.4,757.7 449.9,764.8 443.6,771.0 437.3,776.5 430.3,781.2 423.2,785.1 417.0,788.3 411.5,790.6 406.8,792.2 402.9,793.0 399.7,793.0 397.4,792.2 395.8,790.6 395.0,788.3 395.0,785.1 395.8,781.2 397.4,776.5 399.7,771.0 402.9,764.8 405.2,758.5 406.8,753.0 407.6,747.5 407.6,742.0 406.8,737.3 406.0,733.4 405.2,730.3 404.4,727.9 402.9,726.4 401.3,725.6 400.5,725.6 400.5,726.4 400.5,727.9 400.5,730.3 400.5,733.4 400.5,736.6 399.7,738.9 398.2,740.5 396.6,741.3 395.8,741.3 395.0,740.5 395.0,739.7 395.8,738.1 397.4,737.3 399.7,737.3 402.1,738.1 403.7,738.1 406.0,738.1 409.1,738.1 413.1,738.1 417.0,738.1 420.9,738.1 424.0,738.9 426.4,740.5 429.5,742.8 431.9,745.2 433.4,746.7 434.2,747.5 434.2,747.5 433.4,746.7 431.9,745.2 429.5,744.4 427.2,744.4 424.8,745.2 423.2,745.2 422.5,744.4 422.5,742.8 423.2,740.5 424.8,737.3 427.2,734.2 430.3,731.9 432.6,730.3 434.2,729.5 435.0,729.5 435.8,730.3 435.8,731.9 435.8,734.2 436.6,735.8 436.6,736.6 436.6,736.6 436.6,735.8 436.6,735.0 435.8,735.0 434.2,735.8 431.9,737.3 428.7,739.7 424.8,742.8 420.1,746.7 414.6,751.4 409.9,756.1 406.0,760.1 402.9,763.2 400.5,765.5 399.0,767.1 398.2,767.9 398.2,767.9 399.0,767.1 400.5,765.5 402.1,764.8 402.9,764.8 403.7,765.5 405.2,765.5 407.6,764.8 410.7,763.2 414.6,760.8 417.8,757.7 420.1,753.8 421.7,749.1 422.5,743.6 422.5,737.3 421.7,730.3 420.1,722.5 417.8,713.8 416.2,704.4 415.4,695.0 415.4,686.4 416.2,678.6 417.8,671.5 420.1,665.3 423.2,659.8 427.2,655.1 431.1,651.2 435.8,648.0 441.3,645.7 447.5,643.3 453.0,641.8 457.7,641.0 461.6,641.0 466.3,641.8 470.2,642.6 474.9,643.3 478.9,643.3 482.0,642.6 484.3,641.0 485.9,638.6 486.7,635.5 486.7,631.6 485.9,628.5 484.3,625.3 483.6,623.0 482.8,619.8 482.8,615.9 482.8,612.0 482.0,607.3 481.2,602.6 481.2,597.1 481.2,590.9 482.0,583.8 483.6,576.0 485.9,567.4 488.3,558.7 489.8,550.9 490.6,542.3 491.4,534.5 493.0,527.4 495.3,519.6 498.4,511.0 500.8,501.6 502.3,491.4 503.1,480.4 503.9,470.2 503.9,459.3 504.7,449.1 505.5,439.7 507.0,431.1 509.4,423.2 512.5,415.4 516.4,407.6 520.4,399.0 525.1,389.6 530.5,380.9 535.2,373.1 539.2,366.1 542.3,359.0 546.2,352.7 550.9,347.3 556.4,342.6 561.9,338.6 566.6,335.5 570.5,333.2 573.6,331.6 576.0,330.8 577.5,330.8 578.3,331.6 578.3,333.2 578.3,335.5 578.3,338.6 578.3,342.6 578.3,347.3 578.3,352.7 577.5,358.2 576.0,364.5 575.2,370.8 575.2,377.8 574.4,384.1 574.4,390.3 573.6,397.4 572.1,405.2 569.7,412.3 566.6,418.5 563.4,424.0 559.5,429.5 556.4,434.2 552.5,439.7 548.6,446.0 543.9,452.2 538.4,458.5 532.1,465.5 526.6,473.4 521.9,482.0 518.0,491.4 514.1,500.8 511.0,509.4 507.0,517.2 503.9,525.8 501.6,535.2 498.4,545.4 494.5,556.4 490.6,566.6 486.7,577.5 483.6,588.5 481.2,599.5 478.9,611.2 475.7,623.0 472.6,633.9 468.7,645.7 465.5,656.7 463.2,666.8 460.8,676.2 457.7,684.9 453.8,692.7 449.1,699.7 444.4,706.0 438.9,711.5 433.4,716.2 428.7,720.1 424.8,723.2 421.7,725.6 419.3,727.2 417.8,727.9 417.0,727.9 417.0,727.2 417.0,725.6 417.0,723.2 417.0,720.1 417.0,716.2 417.0,711.5 417.0,706.0 417.0,699.7 417.0,692.7 417.0,685.6 417.0,679.4 417.8,673.1 419.3,667.6 421.7,662.9 424.0,659.0 427.2,655.9 430.3,653.5 433.4,652.0 436.6,651.2 439.7,651.2 443.6,652.0 446.7,652.7 449.9,653.5 452.2,655.1 453.8,657.4 454.6,659.8 454.6,661.4 453.8,662.1 452.2,662.1 449.9,661.4 448.3,661.4 446.7,660.6 445.2,659.0 442.8,656.7 439.7,654.3 436.6,652.7 434.2,652.0 432.6,652.0 431.9,652.7 431.9,654.3 431.1,656.7 430.3,659.8 429.5,662.1 427.9,664.5 425.6,666.1 424.0,666.8 423.2,666.8 422.5,666.1 422.5,665.3 423.2,665.3 424.8,666.1 427.2,666.8 430.3,666.8 434.2,666.8 438.9,666.8 444.4,666.8 450.7,666.8 456.1,666.8 461.6,666.8 466.3,666.8 471.8,666.1 476.5,664.5 480.4,662.1 483.6,659.0 485.9,655.1 487.5,650.4 488.3,644.9 488.3,638.6 488.3,631.6 489.0,623.8 489.8,616.7 490.6,610.4 492.2,604.2 493.0,597.1 494.5,590.9 496.9,585.4 500.0,579.9 503.9,573.6 507.8,566.6 511.0,558.7 513.3,550.9 514.9,543.1 515.7,534.5 515.7,525.1 514.9,516.4 514.1,508.6 514.1,501.6 514.9,493.7 516.4,485.1 518.8,477.3 521.9,469.5 525.8,460.8 529.0,451.4 532.1,441.3 534.5,431.1 536.8,421.7 538.4,413.1 539.2,403.7 540.7,393.5 542.3,383.3 543.1,373.9 544.6,365.3 547.0,357.4 550.1,350.4 554.0,344.1 558.7,338.6 563.4,333.9 567.4,330.0 570.5,326.9 572.8,324.5 574.4,323.0 575.2,322.2 576.0,322.2 576.0,323.0 576.0,324.5 576.0,326.9 576.0,330.0 576.0,333.9 576.0,338.6 576.0,344.1 576.0,348.8 576.0,353.5 575.2,357.4 573.6,362.1 572.8,366.8 572.8,370.8 573.6,373.9 573.6,377.0 572.8,380.9 571.3,384.1 569.7,386.4 568.1,388.0 566.6,388.8 565.8,388.8 565.8,388.0 565.8,386.4 565.8,385.6 565.0,384.9 563.4,384.9 562.7,384.9 561.9,384.1 561.9,382.5 561.9,380.2 561.9,377.0 561.9,373.9 561.1,370.8 559.5,368.4 557.2,366.1 555.6,363.7 554.8,360.6 554.8,358.2 555.6,356.7 557.2,355.9 559.5,355.9 561.1,356.7 561.9,357.4 563.4,357.4 565.8,356.7 568.9,355.1 571.3,354.3 572.8,354.3 573.6,355.1 573.6,356.7 572.8,359.0 571.3,362.1 570.5,364.5 568.9,367.6 566.6,370.0 564.2,371.5 562.7,372.3 561.9,372.3 561.9,371.5 561.1,371.5 559.5,372.3 557.2,373.9 554.0,376.2 550.1,379.4 547.0,381.7 544.6,383.3 543.1,384.1 542.3,384.1 542.3,383.3 542.3,381.7 542.3,380.9 543.1,380.9 544.6,381.7 545.4,383.3 545.4,385.6 544.6,388.8 544.6,392.7 544.6,397.4 544.6,402.9 544.6,407.6 543.9,413.1 542.3,417.8 539.9,421.7 537.6,424.8 534.5,428.7 532.1,433.4 529.0,438.9 525.1,444.4 520.4,449.1 514.9,453.0 509.4,456.1 504.7,458.5 500.8,460.1 497.7,460.8 495.3,460.8 493.7,460.1 493.0,459.3 493.0,458.5 493.7,458.5 495.3,458.5 496.1,458.5 497.7,457.7 500.0,456.1 503.1,453.8 505.5,450.7 507.0,448.3 508.6,446.7 509.4,446.0 509.4,446.0 509.4,446.7 509.4,448.3 509.4,449.1 510.2,449.1 511.7,448.3 512.5,446.7 512.5,444.4 512.5,441.3 513.3,437.3 514.9,434.2 517.2,430.3 518.8,426.4 519.6,421.7 519.6,417.8 520.4,413.1 521.9,407.6 524.3,402.1 527.4,397.4 531.3,393.5 536.0,390.3 541.5,388.0 547.8,386.4 553.3,385.6 558.0,385.6 561.9,386.4 565.0,388.0 567.4,390.3 568.9,393.5 569.7,395.8 569.7,397.4 568.9,398.2 567.4,398.2 565.0,398.2 561.9,398.2 558.0,398.2 554.8,399.0 552.5,400.5 550.9,402.9 550.1,405.2 550.1,406.8 550.9,407.6 552.5,407.6 554.8,407.6 558.0,407.6 561.9,407.6 565.0,408.4 567.4,409.9 568.9,412.3 569.7,414.6 569.7,416.2 568.9,417.8 567.4,418.5 565.8,418.5 565.0,417.8 565.0,416.2 564.2,415.4 562.7,415.4 560.3,416.2 557.2,417.0 553.3,417.0 548.6,417.0 543.1,417.0 537.6,417.0 531.3,417.0 525.8,417.8 521.1,419.3 517.2,421.7 513.3,424.0 510.2,426.4 507.8,429.5 506.3,432.6 505.5,435.0 505.5,436.6 506.3,437.3 507.8,437.3 510.2,436.6 512.5,436.6 515.7,435.8 518.0,434.2 521.1,433.4 523.5,433.4 525.8,433.4 527.4,432.6 528.2,431.1 528.2,428.7 527.4,427.2 525.8,426.4 524.3,426.4 523.5,427.2 521.9,427.2 519.6,427.2 518.0,427.2 517.2,426.4 517.2,424.8 518.0,422.5 519.6,420.9 521.9,418.5 525.1,417.0 527.4,416.2 529.0,416.2 529.8,417.0 529.8,417.0 529.0,417.0 529.0,417.8 529.8,419.3 531.3,421.7 533.7,424.8 536.8,428.7 539.2,433.4 540.7,438.9 541.5,443.6 541.5,447.5 541.5,450.7 540.7,453.0 539.9,454.6 538.4,455.4 537.6,455.4 537.6,454.6 537.6,453.0 537.6,451.4 538.4,450.7 539.9,450.7 542.3,451.4 545.4,452.2 549.3,452.2 552.5,452.2 554.8,453.0 556.4,454.6 557.2,456.9 557.2,460.1 556.4,464.0 554.8,467.1 552.5,469.5 549.3,471.0 545.4,471.8 540.7,471.8 535.2,471.0 529.0,470.2 523.5,469.5 518.0,469.5 513.3,470.2 507.8,471.8 502.3,474.2 497.7,476.5 493.7,478.9 490.6,482.0 488.3,485.9 486.7,489.0 485.9,491.4 485.9,493.0 486.7,493.7 488.3,493.7 490.6,493.7 493.7,493.7 497.7,494.5 500.8,496.1 503.1,497.7 504.7,498.4 505.5,499.2 505.5,499.2 504.7,499.2 503.1,499.2 500.8,500.0 499.2,500.8 498.4,502.3 498.4,504.7 499.2,507.8 500.8,511.7 503.1,514.9 506.3,518.8 509.4,523.5 512.5,528.2 514.9,532.9 516.4,536.8 517.2,539.9 517.2,542.3 516.4,543.9 514.9,544.6 512.5,544.6 509.4,543.9 507.0,543.9 504.7,543.9 502.3,543.1 500.8,541.5 500.0,540.7 498.4,539.2 496.1,536.8 493.7,535.2 491.4,534.5 489.8,534.5 489.0,535.2 488.3,536.8 486.7,538.4 484.3,539.2 481.2,539.2 478.1,539.2 474.2,539.9 471.0,541.5 468.7,543.9 467.1,546.2 466.3,547.8 466.3,548.6 467.1,549.3 468.7,549.3 471.0,549.3 473.4,550.1 474.9,551.7 475.7,553.3 475.7,554.0 474.9,554.0 473.4,554.0 472.6,554.0 472.6,554.0 473.4,554.0 474.9,554.0 477.3,554.0 480.4,554.0 484.3,554.0 487.5,554.0 490.6,554.0 493.0,554.8 494.5,555.6 495.3,556.4 495.3,556.4 494.5,556.4 493.0,556.4 491.4,556.4 489.8,556.4 489.0,555.6 489.0,554.0 489.8,551.7 489.8,548.6 489.8,544.6 489.8,540.7 489.8,536.8 490.6,532.1 492.2,528.2 493.7,525.1 495.3,522.7 496.9,520.4 499.2,517.2 501.6,514.9 503.9,513.3 505.5,512.5 506.3,512.5 506.3,513.3 506.3,514.9 507.0,515.7 508.6,515.7 511.0,514.9 514.1,514.9 518.0,515.7 521.1,516.4 524.3,518.0 526.6,520.4 528.2,521.9 529.0,522.7 529.0,523.5 528.2,523.5 526.6,523.5 525.8,523.5 524.3,522.7 521.9,521.1 520.4,518.8 519.6,517.2 519.6,516.4 520.4,515.7 520.4,515.7 519.6,516.4 518.0,518.0 515.7,520.4 513.3,522.7 511.7,524.3 509.4,526.6 506.3,528.2 502.3,529.0 497.7,529.0 493.7,528.2 489.0,528.2 484.3,529.0 479.6,530.5 475.7,531.3 472.6,531.3 470.2,530.5 468.7,529.0 467.9,526.6 467.9,523.5 468.7,521.1 470.2,519.6 471.8,518.8 472.6,518.8 472.6,519.6 472.6,521.1 473.4,522.7 474.9,523.5 475.7,523.5 475.7,522.7 476.5,521.1 476.5,518.8 476.5,516.4 476.5,514.1 477.3,512.5 478.9,511.7 479.6,511.7 479.6,512.5 479.6,514.1 479.6,516.4 479.6,519.6 479.6,523.5 479.6,528.2 479.6,532.1 480.4,536.8 482.0,542.3 482.8,548.6 482.8,555.6 482.8,563.4 482.8,572.1 483.6,579.9 485.1,587.7 487.5,596.3 489.0,605.7 489.8,614.4 489.8,622.2 489.0,629.2 487.5,635.5 485.1,641.0 482.0,645.7 478.1,649.6 473.4,652.7 467.9,655.1 462.4,656.7 457.7,657.4 453.8,657.4 450.7,656.7 448.3,655.1 446.7,652.7 446.0,649.6 446.0,645.7 446.7,642.6 448.3,640.2 450.7,638.6 452.2,637.9 453.0,637.9 453.8,638.6 453.8,640.2 453.8,641.8 453.8,643.3 453.8,644.1 453.8,644.1 453.8,643.3 453.8,641.8 453.8,639.4 453.8,636.3 453.8,632.4 453.8,628.5 453.8,624.5 453.0,621.4 451.4,619.1 449.1,616.7 446.0,615.1 442.0,614.4 438.1,614.4 434.2,615.1 430.3,616.7 426.4,618.3 421.7,619.8 417.8,621.4 414.6,622.2 412.3,622.2 410.7,621.4 409.9,620.6 409.9,619.8 410.7,619.8 412.3,619.8 413.1,619.8 413.1,619.1 412.3,617.5 412.3,615.1 412.3,612.0 413.1,608.9 414.6,606.5 417.0,605.0 420.1,604.2 423.2,604.2 425.6,605.0 427.9,605.0 429.5,605.7 430.3,606.5 430.3,607.3 429.5,607.3 427.9,607.3 425.6,607.3 423.2,607.3 421.7,608.1 420.9,609.7 420.9,612.0 421.7,615.1 423.2,618.3 425.6,620.6 428.7,622.2 432.6,623.0 435.8,623.8 439.7,625.3 443.6,626.1 446.7,626.1 449.1,625.3 450.7,623.8 451.4,621.4 451.4,619.1 450.7,616.7 450.7,613.6 450.7,609.7 450.7,605.0 450.7,599.5 450.7,594.8 451.4,590.9 453.0,587.7 455.4,585.4 456.9,583.8 457.7,583.0 457.7,583.0 457.7,583.8 457.7,585.4 457.7,586.2 458.5,586.2 460.1,585.4 462.4,585.4 465.5,585.4 467.9,585.4 470.2,584.6 471.8,583.0 472.6,581.5 472.6,580.7 471.8,579.9 471.8,579.9 472.6,580.7 474.2,582.2 476.5,583.0 479.6,583.0 482.8,582.2 485.9,582.2 488.3,583.0 489.8,584.6 490.6,586.9 490.6,588.5 489.8,589.3 488.3,589.3 486.7,590.1 484.3,591.6 481.2,594.0 477.3,595.6 472.6,597.9 468.7,599.5 465.5,601.0 463.2,603.4 461.6,605.7 460.8,607.3 460.8,608.1 461.6,608.1 463.2,608.1 465.5,608.1 467.9,608.1 469.5,608.1 471.0,607.3 471.8,605.7 471.8,604.2 471.0,603.4 469.5,601.8 467.1,599.5 465.5,597.1 464.8,595.6 464.8,594.8 465.5,594.8 467.1,594.8 469.5,595.6 472.6,597.1 476.5,599.5 480.4,602.6 483.6,606.5 486.7,610.4 489.0,613.6 490.6,615.9 491.4,617.5 491.4,618.3 490.6,618.3 489.0,617.5 486.7,615.9 484.3,613.6 482.8,612.0 482.0,610.4 482.0,609.7 482.8,609.7 482.8,610.4 482.0,612.0 480.4,614.4 478.1,617.5 476.5,621.4 475.7,625.3 475.7,629.2 476.5,632.4 476.5,634.7 475.7,636.3 474.2,637.1 471.8,637.1 468.7,636.3 464.8,634.7 460.1,632.4 454.6,629.2 448.3,625.3 442.0,620.6 435.8,616.7 430.3,612.0 424.8,606.5 419.3,600.3 413.1,593.2 406.8,585.4 400.5,578.3 395.0,570.5 390.3,561.9 386.4,552.5 383.3,542.3 380.9,531.3 377.8,521.1 373.9,511.7 370.0,503.1 365.3,495.3 359.8,486.7 355.1,478.1 351.2,468.7 346.5,459.3 341.0,450.7 336.3,441.3 331.6,431.1 327.7,420.1 324.5,408.4 320.6,395.8 315.9,382.5 312.0,370.0 308.9,358.2 306.5,347.3 305.0,337.1 304.2,327.7 304.2,319.1 305.0,311.2 306.5,304.2 308.9,297.9 311.2,292.4 312.8,287.7 313.6,283.8 313.6,280.7 313.6,278.3 312.8,276.8 311.2,276.0 310.4,276.0 310.4,276.8 310.4,278.3 310.4,280.7 310.4,283.8 310.4,287.7 310.4,292.4 310.4,297.9 310.4,304.2 310.4,311.2 310.4,319.1 310.4,327.7 310.4,336.3 310.4,344.1 309.7,352.7 308.9,362.1 308.9,371.5 308.1,380.9 308.1,389.6 308.9,397.4 310.4,404.4 312.8,411.5 315.9,418.5 319.8,424.8 324.5,430.3 330.0,436.6 336.3,442.0 341.8,446.7 348.0,450.7 355.1,453.8 362.1,456.1 368.4,457.7 375.5,459.3 383.3,461.6 391.9,464.8 399.7,468.7 406.8,473.4 413.1,478.9 418.5,485.1 423.2,492.2 427.2,500.0 430.3,508.6 432.6,518.0 434.2,528.2 435.0,538.4 435.0,549.3 434.2,561.1 432.6,572.1 430.3,582.2 428.7,591.6 427.9,600.3 427.9,608.1 428.7,615.1 430.3,621.4 432.6,626.9 435.0,631.6 436.6,635.5 437.3,638.6 437.3,641.0 436.6,642.6 435.8,643.3 435.0,643.3 435.0,642.6 435.0,641.0 435.0,638.6 435.0,635.5 435.0,631.6 435.0,626.9 435.0,623.0 435.0,619.1 435.8,614.4 437.3,608.9 439.7,602.6 441.3,597.1 442.0,592.4 442.8,586.9 444.4,580.7 445.2,574.4 445.2,568.1 444.4,562.7 442.8,558.0 440.5,554.0 437.3,550.9 433.4,547.0 428.7,543.9 423.2,540.7 417.0,538.4 409.9,536.0 403.7,534.5 396.6,532.1 390.3,529.8 384.9,526.6 378.6,522.7 373.1,519.6 368.4,517.2 364.5,514.1 361.4,510.2 359.0,505.5 357.4,500.8 356.7,496.9 356.7,493.7 357.4,491.4 359.0,489.8 359.8,489.0 360.6,489.0 360.6,489.8 360.6,490.6 361.4,490.6 362.9,489.8 365.3,488.3 367.6,486.7 369.2,485.9 370.0,485.9 370.0,486.7 370.8,486.7 372.3,485.9 373.9,485.1 375.5,484.3 377.8,484.3 380.9,485.1 383.3,486.7 384.9,487.5 385.6,488.3 385.6,488.3 384.9,488.3 383.3,488.3 382.5,489.0 382.5,490.6 383.3,493.0 383.3,494.5 382.5,495.3 380.9,495.3 378.6,494.5 376.2,493.0 373.9,492.2 370.8,492.2 367.6,493.0 365.3,494.5 363.7,496.9 362.9,498.4 362.9,499.2 363.7,500.0 365.3,500.0 366.8,500.0 369.2,499.2 370.8,497.7 371.5,495.3 371.5,492.2 370.8,488.3 370.0,483.6 370.0,478.1 369.2,473.4 369.2,468.7 368.4,464.8 366.8,460.8 366.1,457.7 366.1,455.4 366.8,453.8 366.8,453.0 366.8,453.0 366.8,453.8 366.8,454.6 367.6,456.1 369.2,458.5 371.5,460.8 373.9,463.2 375.5,464.8 376.2,465.5 376.2,465.5 376.2,464.8 376.2,463.2 376.2,460.8 377.0,459.3 378.6,458.5 380.9,458.5 384.1,459.3 388.0,460.8 392.7,463.2 396.6,465.5 399.7,468.7 402.1,472.6 405.2,477.3 407.6,482.8 409.1,489.0 409.9,496.1 409.9,502.3 409.1,508.6 407.6,514.1 405.2,518.8 402.1,522.7 398.2,525.8 395.0,528.2 392.7,529.8 391.1,530.5 390.3,530.5 390.3,529.8 390.3,528.2 389.6,525.8 388.0,523.5 385.6,521.9 384.1,519.6 383.3,517.2 383.3,515.7 384.1,514.9 385.6,514.9 387.2,514.9 389.6,514.1 392.7,512.5 395.8,511.0 398.2,510.2 401.3,508.6 403.7,506.3 405.2,504.7 406.0,503.9 406.0,503.1 405.2,503.1 404.4,503.1 404.4,503.9 405.2,505.5 406.8,507.8 408.4,511.0 409.1,513.3 409.1,514.9 408.4,515.7 406.8,515.7 406.0,516.4 406.0,518.0 406.8,520.4 408.4,523.5 410.7,525.8 413.8,527.4 416.2,528.2 417.8,528.2 418.5,527.4 418.5,525.8 418.5,524.3 417.8,523.5 416.2,523.5 414.6,524.3 412.3,525.8 410.7,528.2 409.9,531.3 409.9,535.2 410.7,539.2 410.7,542.3 411.5,546.2 411.5,550.1 411.5,554.0 412.3,557.2 413.8,559.5 416.2,561.9 419.3,565.0 423.2,567.4 426.4,568.9 428.7,569.7 430.3,569.7 431.1,568.9 431.1,567.4 430.3,566.6 429.5,565.8 427.9,565.8 425.6,566.6 422.5,568.1 418.5,570.5 415.4,572.1 413.1,572.8 411.5,572.8 410.7,572.8 410.7,572.1 411.5,572.1 413.1,572.1 413.8,571.3 413.8,569.7 413.1,567.4 413.1,564.2 413.1,560.3 413.1,557.2 413.1,554.0 413.8,550.1 414.6,547.0 414.6,544.6 413.8,543.1 412.3,542.3 409.9,542.3 406.8,543.1 402.9,544.6 399.0,547.0 395.8,550.1 393.5,553.3 391.9,555.6 391.1,557.2 391.1,558.0 391.9,558.7 393.5,558.7 395.8,558.7 398.2,558.7 399.7,559.5 400.5,561.1 400.5,563.4 399.7,566.6 398.2,570.5 397.4,575.2 396.6,579.9 396.6,583.8 397.4,586.9 399.0,589.3 399.7,590.9 399.7,591.6 399.7,591.6 399.7,590.9 399.7,589.3 399.7,586.9 399.7,583.8 400.5,581.5 402.1,579.9 404.4,579.1 407.6,579.1 411.5,579.9 416.2,581.5 421.7,583.8 427.9,586.9 433.4,590.9 438.1,594.0 442.0,596.3 445.2,597.9 447.5,598.7 449.1,599.5 449.9,599.5 449.9,598.7 449.1,598.7 447.5,598.7 445.2,598.7 442.0,598.7 439.7,598.7 438.1,597.9 437.3,596.3 437.3,594.0 438.1,590.9 439.7,586.9 442.0,582.2 445.2,576.8 449.1,570.5 453.8,563.4 459.3,557.2 465.5,551.7 472.6,547.0 480.4,543.1 489.0,539.9 496.9,536.8 504.7,532.9 511.7,528.2 519.6,522.7 526.6,518.0 532.9,514.1 538.4,511.0 543.1,507.8 547.0,503.9 550.1,500.0 552.5,496.9 554.0,494.5 554.8,493.0 554.8,492.2 554.0,492.2 552.5,492.2 550.1,492.2 547.0,492.2 543.1,492.2 539.9,492.2 537.6,492.2 534.5,493.0 530.5,494.5 526.6,496.9 523.5,498.4 521.1,499.2 519.6,499.2 518.8,498.4 518.8,496.9 519.6,495.3 521.1,494.5 523.5,494.5 526.6,495.3 529.8,495.3 532.1,494.5 533.7,493.0 534.5,490.6 534.5,487.5 533.7,483.6 532.1,478.9 529.8,474.9 527.4,470.2 525.1,465.5 523.5,461.6 522.7,458.5 522.7,456.1 521.9,454.6 520.4,453.8 519.6,453.8 519.6,454.6 519.6,456.1 519.6,458.5 519.6,461.6 519.6,465.5 519.6,470.2 519.6,474.9 518.8,480.4 517.2,486.7 514.9,493.7 511.7,501.6 509.4,510.2 507.8,519.6 507.0,529.8 507.0,539.9 507.8,550.1 509.4,559.5 510.2,568.1 510.2,576.0 509.4,583.0 507.8,589.3 505.5,594.8 502.3,599.5 498.4,603.4 493.7,606.5 488.3,608.9 482.0,610.4 474.9,611.2 467.1,611.2 458.5,610.4 449.1,608.9 438.9,606.5 427.9,603.4 416.2,599.5 403.7,594.8 391.9,589.3 380.9,583.0 370.8,576.0 361.4,568.1 351.2,559.5 341.8,550.1 333.2,539.9 325.3,529.0 318.3,517.2 312.0,504.7 306.5,491.4 301.8,478.9 297.9,466.3 294.8,453.8 292.4,440.5 290.9,426.4 290.1,411.5 290.1,396.6 290.9,380.9 292.4,364.5 294.0,348.8 296.3,333.9 299.5,319.8 303.4,306.5 308.1,294.0 313.6,282.2 319.1,271.3 323.8,261.1 327.7,251.7 330.8,243.1 333.2,235.2 335.5,228.2 337.1,221.9 337.9,216.4 337.9,211.7 337.1,207.8 335.5,204.7 333.2,202.3 330.8,200.8 329.2,200.0 328.5,200.0 328.5,200.8 328.5,202.3 328.5,204.7 328.5,207.8 328.5,211.7 328.5,216.4 328.5,221.9 328.5,228.2 328.5,235.2 328.5,243.1 328.5,251.7 328.5,261.1 328.5,271.3 328.5,282.2 328.5,294.0 328.5,306.5 328.5,319.8 328.5,332.4 328.5,344.9 329.2,356.7 330.8,368.4 331.6,380.9 333.2,394.3 335.5,408.4 338.6,423.2 341.8,437.3 345.7,450.7 350.4,463.2 355.9,474.9 362.1,485.9 369.2,496.1 375.5,505.5 380.9,514.1 385.6,521.9 389.6,529.0 392.7,535.2 395.0,540.7 396.6,545.4 397.4,549.3 398.2,552.5 398.2,554.8 397.4,556.4 395.8,557.2 395.0,557.2 395.0,556.4 395.0,554.8 395.0,552.5 395.0,549.3 395.0,545.4 395.0,540.7 395.0,535.2 395.0,529.0 395.0,521.9 395.0,514.1 395.0,505.5 395.0,496.1 395.0,486.7 394.3,478.1 392.7,469.5 390.3,460.1 387.2,450.7 384.9,442.0 383.3,433.4 380.9,425.6 377.8,418.5 373.9,410.7 369.2,403.7 364.5,397.4 359.8,390.3 354.3,384.1 349.6,377.0 345.7,369.2 342.6,360.6 338.6,352.0 333.9,344.1 328.5,337.1 322.2,330.8 315.9,325.3 310.4,320.6 305.7,316.7 301.8,313.6 298.7,311.2 296.3,309.7 294.0,308.9 292.4,308.9 291.6,309.7 291.6,311.2 292.4,313.6 292.4,316.7 292.4,320.6 292.4,325.3 292.4,330.8 292.4,337.1 293.2,344.1 294.8,350.4 297.1,355.9 300.3,361.4 304.2,367.6 308.9,374.7 312.8,382.5 316.7,390.3 320.6,398.2 324.5,405.2 327.7,411.5 331.6,417.0 336.3,421.7 341.8,425.6 348.0,428.7 355.1,431.9 362.9,435.0 370.0,437.3 376.2,438.9 382.5,440.5 388.0,442.0 392.7,442.8 396.6,442.8 399.7,442.0 402.1,440.5 403.7,438.1 404.4,436.6 404.4,435.8 403.7,435.8 402.1,435.8 399.7,435.8 396.6,435.8 392.7,435.8 388.0,435.8 383.3,435.8 379.4,435.8 374.7,435.0 369.2,434.2 363.7,432.6 358.2,431.1 352.7,428.7 348.0,425.6 342.6,423.2 337.9,421.7 332.4,420.1 327.7,418.5 323.8,417.8 319.8,416.2 315.1,413.8 311.2,410.7 308.1,406.8 305.7,403.7 304.2,401.3 303.4,399.7 303.4,399.0 304.2,398.2 305.7,398.2 308.1,398.2 311.2,398.2 314.4,398.2 318.3,397.4 321.4,397.4 323.8,397.4 326.9,396.6 329.2,395.0 330.8,392.7 331.6,390.3 331.6,388.8 330.8,388.0 330.0,388.0 329.2,388.8 329.2,390.3 330.0,391.9 331.6,394.3 333.9,396.6 337.1,399.0 339.4,402.1 341.0,406.0 342.6,410.7 344.9,416.2 348.0,420.9 352.0,424.8 356.7,428.7 361.4,431.9 365.3,434.2 368.4,437.3 372.3,441.3 375.5,444.4 377.8,446.7 379.4,448.3 380.2,449.1 380.2,449.1 379.4,448.3 377.8,448.3 377.0,448.3 375.5,447.5 373.1,446.0 370.0,445.2 366.1,445.2 362.9,445.2 359.8,445.2 355.9,446.0 352.7,447.5 350.4,449.9 348.8,452.2 348.0,454.6 348.0,456.1 348.8,456.9 350.4,456.9 352.0,456.1 352.7,454.6 352.7,453.0 352.0,452.2 350.4,452.2 348.0,453.0 345.7,454.6 344.1,456.9 343.3,460.1 343.3,464.0 344.1,467.1 345.7,469.5 348.0,472.6 351.2,475.7 355.1,478.1 359.8,479.6 364.5,480.4 368.4,480.4 371.5,480.4 373.9,479.6 375.5,478.1 376.2,476.5 376.2,475.7 375.5,475.7 373.9,475.7 373.1,475.7 371.5,474.9 369.2,473.4 366.1,471.0 362.1,467.9 357.4,464.0 352.0,459.3 347.3,453.8 343.3,447.5 340.2,440.5 337.9,432.6 335.5,424.0 332.4,415.4 329.2,407.6 326.9,399.0 323.8,390.3 319.8,382.5 315.1,375.5 309.7,369.2 304.2,362.1 297.9,354.3 292.4,346.5 287.7,339.4 283.8,333.2 280.7,327.7 278.3,323.0 276.8,319.1 276.0,315.9 276.0,313.6 276.8,312.0 278.3,311.2 280.7,311.2 283.8,312.0 287.7,313.6 292.4,315.9 296.3,319.1 299.5,323.0 301.8,327.7 303.4,333.2 305.7,339.4 307.3,346.5 308.1,354.3 308.1,362.1 308.9,369.2 309.7,377.0 311.2,384.1 313.6,390.3 315.9,395.8 319.1,400.5 323.0,405.2 327.7,409.1 333.2,412.3 339.4,414.6 345.7,417.8 351.2,420.1 357.4,422.5 362.9,424.0 367.6,424.8 371.5,424.8 374.7,424.0 377.0,422.5 378.6,420.1 379.4,417.0 379.4,413.1 378.6,408.4 377.0,404.4 374.7,401.3 371.5,399.0 367.6,397.4 364.5,396.6 362.1,396.6 360.6,397.4 359.8,399.0 359.8,401.3 360.6,403.7 362.1,405.2 362.9,406.0 362.9,406.0 362.1,405.2 360.6,405.2 358.2,405.2 355.1,405.2 351.2,405.2 346.5,405.2 342.6,405.2 339.4,405.2 337.1,404.4 335.5,402.9 334.7,400.5 334.7,398.2 335.5,396.6 337.1,395.8 337.9,395.8 338.6,396.6 340.2,396.6 341.0,395.8 341.8,395.0 341.8,393.5 341.0,391.9 339.4,389.6 338.6,386.4 338.6,382.5 339.4,377.8 339.4,372.3 339.4,366.1 340.2,360.6 341.8,355.9 343.3,352.0 344.1,348.8 344.1,346.5 344.1,344.9 343.3,344.1 342.6,344.1 342.6,344.9 342.6,346.5 342.6,348.8 342.6,351.2 342.6,353.5 343.3,356.7 344.9,359.8 347.3,362.1 349.6,363.7 351.2,365.3 352.0,366.1 352.0,366.8 351.2,366.8 349.6,366.8 347.3,366.8 344.1,366.8 340.2,366.8 335.5,366.8 330.0,366.8 323.8,366.8 316.7,366.1 310.4,365.3 304.2,363.7 297.1,361.4 290.9,359.8 285.4,359.0 280.7,359.0 276.8,359.8 273.6,361.4 271.3,363.7 269.7,365.3 268.9,366.1 268.9,366.8 269.7,366.8 271.3,366.8 273.6,366.8 276.8,366.8 280.7,366.8 285.4,366.8 290.9,366.8 296.3,366.8 301.8,366.8 306.5,366.8 312.0,367.6 316.7,369.2 320.6,371.5 323.8,374.7 326.1,378.6 327.7,381.7 328.5,384.1 328.5,385.6 327.7,386.4 326.1,386.4 323.8,385.6 320.6,385.6 318.3,385.6 315.9,385.6 314.4,386.4 313.6,388.0 313.6,390.3 314.4,393.5 315.9,397.4 318.3,402.1 321.4,407.6 325.3,413.8 330.0,419.3 334.7,424.0 338.6,427.9 341.8,431.1 344.1,433.4 345.7,435.0 347.3,435.8 348.0,435.8 348.0,435.0 348.0,433.4 348.0,431.1 348.0,427.9" fill="none" stroke="red" stroke-width="7" stroke-opacity="0.5"/>
  <circle cx="348.0" cy="424.0" r="15" fill="blue" fill-opacity="0.5"/>
</svg>