<svg width="1000" height="1000" xmlns="http://www.w3.org/2000/svg">
  <rect x="200" y="200" width="600" height="600" fill="white" stroke="gray" stroke-width="5" />
  <circle cx="354.8" cy="587.1" r="7" fill="black" />
  <circle cx="316.1" cy="529.0" r="7" fill="black" />
  <circle cx="393.5" cy="432.3" r="7" fill="black" />
  <circle cx="412.9" cy="296.8" r="7" fill="black" />
  <circle cx="587.1" cy="645.2" r="7" fill="black" />
  <circle cx="509.7" cy="432.3" r="7" fill="black" />
  <circle cx="354.8" cy="432.3" r="7" fill="black" />
  <circle cx="374.2" cy="258.1" r="7" fill="black" />
  <circle cx="548.4" cy="606.5" r="7" fill="black" />
  <circle cx="703.2" cy="471.0" r="7" fill="black" />
  <circle cx="606.5" cy="529.0" r="7" fill="black" />
  <circle cx="354.8" cy="412.9" r="7" fill="black" />
  <circle cx="490.3" cy="548.4" r="7" fill="black" />
  <circle cx="625.8" cy="354.8" r="7" fill="black" />
  <circle cx="374.2" cy="393.5" r="7" fill="black" />
  <circle cx="412.9" cy="374.2" r="7" fill="black" />
  <circle cx="683.9" cy="354.8" r="7" fill="black" />
  <circle cx="509.7" cy="451.6" r="7" fill="black" />
  <circle cx="335.5" cy="374.2" r="7" fill="black" />
  <polyline points="509.7,451.6 529.0,471.0 567.7,509.7 606.5,529.0 664.5,529.0 703.2,509.7 722.6,471.0 722.6,412.9 703.2,354.8 683.9,316.1 683.9,296.8 683.9,296.8 683.9,316.1 683.9,354.8 664.5,412.9 625.8,490.3 567.7,548.4 490.3,587.1 393.5,606.5 316.1,606.5 258.1,587.1 219.4,548.4 200.0,529.0 200.0,529.0 219.4,529.0 258.1,529.0 316.1,529.0 393.5,509.7 490.3,471.0 567.7,432.3 625.8,412.9 664.5,412.9 683.9,432.3 683.9,432.3 664.5,432.3 625.8,432.3 567.7,432.3 509.7,432.3 432.3,412.9 374.2,374.2 335.5,354.8 316.1,354.8 316.1,374.2 335.5,374.2 374.2,374.2 412.9,374.2 432.3,393.5 432.3,393.5 412.9,393.5 374.2,393.5 354.8,374.2 354.8,335.5 374.2,296.8 412.9,277.4 432.3,277.4 432.3,296.8 412.9,296.8 374.2,316.1 354.8,354.8 354.8,412.9 354.8,490.3 354.8,587.1 374.2,664.5 412.9,722.6 471.0,761.3 548.4,780.6 606.5,780.6 645.2,761.3 664.5,722.6 664.5,664.5 645.2,625.8 606.5,606.5 587.1,606.5 587.1,625.8 587.1,645.2 567.7,645.2 529.0,625.8 471.0,587.1 393.5,529.0 335.5,451.6 296.8,393.5 277.4,354.8 277.4,335.5 296.8,335.5 335.5,354.8 393.5,393.5 432.3,432.3 451.6,451.6 451.6,451.6 432.3,432.3 393.5,432.3 354.8,432.3 335.5,412.9 335.5,374.2 354.8,316.1 374.2,258.1 412.9,219.4 471.0,200.0 548.4,200.0 625.8,219.4 683.9,258.1 722.6,316.1 741.9,354.8 741.9,374.2 722.6,374.2 683.9,354.8 625.8,354.8 548.4,374.2 490.3,412.9 451.6,471.0 432.3,548.4 432.3,606.5 451.6,645.2 490.3,664.5 548.4,664.5 587.1,645.2 606.5,606.5 606.5,587.1 587.1,587.1 548.4,606.5 509.7,606.5 490.3,587.1 490.3,548.4 509.7,490.3 509.7,451.6 529.0,432.3 567.7,432.3 625.8,451.6" fill="none" stroke="red" stroke-width="7" stroke-opacity="0.5"/>
  <circle cx="703.2" cy="471.0" r="15" fill="blue" fill-opacity="0.5"/>
</svg>