<svg width="1000" height="1000" xmlns="http://www.w3.org/2000/svg">
  <rect x="200" y="200" width="600" height="600" fill="white" stroke="gray" stroke-width="5" />
  <circle cx="203.4" cy="739.3" r="7" fill="black" />
  <circle cx="203.4" cy="736.0" r="7" fill="black" />
  <circle cx="213.5" cy="729.2" r="7" fill="black" />
  <circle cx="213.5" cy="725.8" r="7" fill="black" />
  <circle cx="216.9" cy="715.7" r="7" fill="black" />
  <circle cx="223.6" cy="705.6" r="7" fill="black" />
  <circle cx="230.3" cy="685.4" r="7" fill="black" />
  <circle cx="230.3" cy="675.3" r="7" fill="black" />
  <circle cx="247.2" cy="658.4" r="7" fill="black" />
  <circle cx="250.6" cy="644.9" r="7" fill="black" />
  <circle cx="270.8" cy="628.1" r="7" fill="black" />
  <circle cx="280.9" cy="614.6" r="7" fill="black" />
  <circle cx="307.9" cy="594.4" r="7" fill="black" />
  <circle cx="328.1" cy="580.9" r="7" fill="black" />
  <circle cx="348.3" cy="564.0" r="7" fill="black" />
  <circle cx="371.9" cy="550.6" r="7" fill="black" />
  <circle cx="395.5" cy="540.4" r="7" fill="black" />
  <circle cx="409.0" cy="530.3" r="7" fill="black" />
  <circle cx="422.5" cy="523.6" r="7" fill="black" />
  <circle cx="446.1" cy="513.5" r="7" fill="black" />
  <circle cx="459.6" cy="513.5" r="7" fill="black" />
  <circle cx="476.4" cy="510.1" r="7" fill="black" />
  <circle cx="496.6" cy="506.7" r="7" fill="black" />
  <circle cx="503.4" cy="496.6" r="7" fill="black" />
  <circle cx="513.5" cy="493.3" r="7" fill="black" />
  <circle cx="527.0" cy="479.8" r="7" fill="black" />
  <circle cx="533.7" cy="473.0" r="7" fill="black" />
  <circle cx="537.1" cy="459.6" r="7" fill="black" />
  <circle cx="547.2" cy="446.1" r="7" fill="black" />
  <circle cx="557.3" cy="425.8" r="7" fill="black" />
  <circle cx="564.0" cy="419.1" r="7" fill="black" />
  <circle cx="570.8" cy="398.9" r="7" fill="black" />
  <circle cx="577.5" cy="388.8" r="7" fill="black" />
  <circle cx="587.6" cy="368.5" r="7" fill="black" />
  <circle cx="594.4" cy="361.8" r="7" fill="black" />
  <circle cx="601.1" cy="348.3" r="7" fill="black" />
  <circle cx="607.9" cy="334.8" r="7" fill="black" />
  <circle cx="621.3" cy="321.3" r="7" fill="black" />
  <circle cx="634.8" cy="311.2" r="7" fill="black" />
  <circle cx="644.9" cy="294.4" r="7" fill="black" />
  <circle cx="658.4" cy="284.3" r="7" fill="black" />
  <circle cx="671.9" cy="270.8" r="7" fill="black" />
  <circle cx="685.4" cy="257.3" r="7" fill="black" />
  <circle cx="692.1" cy="247.2" r="7" fill="black" />
  <circle cx="712.4" cy="230.3" r="7" fill="black" />
  <circle cx="725.8" cy="223.6" r="7" fill="black" />
  <circle cx="736.0" cy="216.9" r="7" fill="black" />
  <circle cx="752.8" cy="210.1" r="7" fill="black" />
  <circle cx="766.3" cy="203.4" r="7" fill="black" />
  <circle cx="793.3" cy="200.0" r="7" fill="black" />
  <polyline points="210.1,742.7 213.5,739.3 213.5,732.6 213.5,729.2 213.5,725.8 210.1,725.8 203.4,729.2 200.0,736.0 200.0,739.3 203.4,739.3 203.4,736.0 206.7,729.2 213.5,722.5 220.2,715.7 227.0,709.0 230.3,702.2 230.3,695.5 230.3,688.8 230.3,685.4 227.0,685.4 223.6,688.8 223.6,695.5 223.6,702.2 223.6,705.6 227.0,705.6 233.7,702.2 240.4,695.5 247.2,688.8 250.6,682.0 250.6,675.3 247.2,668.5 247.2,661.8 247.2,658.4 243.8,658.4 237.1,661.8 230.3,668.5 227.0,675.3 227.0,678.7 230.3,678.7 230.3,675.3 233.7,668.5 240.4,661.8 247.2,655.1 250.6,648.3 250.6,644.9 253.9,638.2 260.7,631.5 267.4,624.7 274.2,618.0 280.9,614.6 287.6,607.9 294.4,601.1 301.1,594.4 307.9,591.0 311.2,591.0 311.2,594.4 307.9,594.4 301.1,597.8 294.4,604.5 287.6,611.2 280.9,618.0 274.2,624.7 270.8,628.1 264.0,634.8 257.3,641.6 250.6,648.3 243.8,655.1 237.1,661.8 230.3,668.5 223.6,675.3 216.9,682.0 213.5,688.8 213.5,695.5 216.9,702.2 216.9,709.0 216.9,715.7 220.2,719.1 227.0,719.1 233.7,715.7 240.4,709.0 247.2,702.2 253.9,695.5 260.7,688.8 267.4,682.0 274.2,675.3 280.9,668.5 287.6,661.8 294.4,655.1 301.1,648.3 307.9,641.6 314.6,634.8 321.3,628.1 328.1,621.3 331.5,614.6 331.5,607.9 328.1,601.1 328.1,594.4 328.1,587.6 328.1,580.9 331.5,574.2 338.2,567.4 344.9,564.0 348.3,564.0 355.1,560.7 361.8,553.9 368.5,550.6 371.9,550.6 378.7,547.2 385.4,540.4 392.1,533.7 398.9,527.0 405.6,523.6 412.4,523.6 419.1,523.6 422.5,523.6 422.5,527.0 419.1,530.3 412.4,530.3 409.0,530.3 402.2,533.7 395.5,540.4 392.1,543.8 392.1,543.8 395.5,540.4 402.2,533.7 409.0,527.0 415.7,520.2 422.5,513.5 429.2,510.1 436.0,510.1 442.7,513.5 449.4,513.5 456.2,513.5 459.6,513.5 459.6,513.5 456.2,513.5 449.4,513.5 446.1,513.5 446.1,510.1 449.4,503.4 456.2,496.6 462.9,493.3 469.7,493.3 476.4,496.6 483.1,496.6 489.9,496.6 496.6,496.6 503.4,496.6 510.1,493.3 516.9,486.5 523.6,479.8 527.0,476.4 527.0,476.4 527.0,479.8 523.6,486.5 516.9,493.3 513.5,496.6 513.5,496.6 513.5,493.3 516.9,486.5 523.6,479.8 530.3,473.0 533.7,469.7 533.7,469.7 533.7,473.0 530.3,479.8 523.6,486.5 516.9,493.3 510.1,500.0 503.4,506.7 496.6,510.1 493.3,510.1 493.3,506.7 496.6,506.7 503.4,503.4 510.1,496.6 516.9,489.9 523.6,483.1 530.3,476.4 537.1,469.7 543.8,462.9 547.2,456.2 547.2,449.4 547.2,446.1 550.6,439.3 557.3,432.6 560.7,425.8 560.7,422.5 557.3,422.5 557.3,425.8 553.9,432.6 547.2,439.3 540.4,446.1 537.1,452.8 537.1,459.6 540.4,462.9 547.2,462.9 553.9,459.6 560.7,452.8 564.0,446.1 564.0,439.3 564.0,432.6 564.0,425.8 564.0,419.1 567.4,412.4 574.2,405.6 577.5,398.9 577.5,392.1 577.5,388.8 574.2,388.8 570.8,392.1 570.8,398.9 574.2,402.2 580.9,402.2 587.6,398.9 594.4,392.1 601.1,385.4 604.5,378.7 604.5,371.9 601.1,365.2 601.1,358.4 601.1,351.7 601.1,348.3 597.8,348.3 594.4,351.7 594.4,358.4 594.4,361.8 597.8,361.8 604.5,358.4 607.9,351.7 607.9,344.9 607.9,338.2 607.9,334.8 611.2,328.1 618.0,321.3 621.3,318.0 621.3,318.0 621.3,321.3 624.7,321.3 631.5,318.0 638.2,311.2 644.9,304.5 648.3,297.8 648.3,294.4 644.9,294.4 644.9,291.0 648.3,284.3 655.1,280.9 658.4,280.9 658.4,284.3 661.8,284.3 668.5,280.9 675.3,274.2 682.0,267.4 685.4,260.7 685.4,257.3 688.8,250.6 695.5,243.8 702.2,237.1 709.0,230.3 712.4,227.0 712.4,227.0 712.4,230.3 709.0,237.1 702.2,243.8 695.5,247.2 692.1,247.2 685.4,250.6 678.7,257.3 671.9,264.0 668.5,270.8 668.5,274.2 671.9,274.2 671.9,270.8 668.5,270.8 661.8,274.2 655.1,280.9 648.3,287.6 641.6,294.4 634.8,301.1 631.5,307.9 631.5,311.2 634.8,311.2 641.6,307.9 648.3,301.1 655.1,294.4 661.8,287.6 668.5,280.9 675.3,274.2 682.0,267.4 688.8,260.7 695.5,253.9 702.2,247.2 709.0,240.4 715.7,233.7 722.5,227.0 725.8,223.6 732.6,216.9 736.0,213.5 736.0,213.5 736.0,216.9 739.3,216.9 746.1,213.5 752.8,206.7 759.6,203.4 766.3,203.4 773.0,200.0 779.8,200.0 786.5,200.0 793.3,200.0 796.6,203.4 796.6,210.1 793.3,216.9 786.5,223.6 779.8,230.3 773.0,237.1 766.3,243.8 759.6,250.6 752.8,257.3 746.1,264.0 739.3,270.8 732.6,277.5 725.8,284.3 719.1,291.0 712.4,297.8 705.6,304.5 698.9,311.2 692.1,318.0 685.4,324.7 678.7,331.5 671.9,338.2 665.2,344.9 658.4,351.7 651.7,358.4 644.9,365.2 638.2,371.9 631.5,378.7 624.7,385.4 618.0,392.1 611.2,398.9 604.5,405.6 597.8,412.4 591.0,419.1 584.3,425.8 577.5,432.6 570.8,439.3 564.0,446.1 557.3,452.8 550.6,459.6 543.8,466.3 537.1,473.0 530.3,479.8 523.6,486.5 516.9,493.3 510.1,500.0 503.4,506.7 496.6,510.1 489.9,510.1 483.1,510.1 476.4,510.1 473.0,506.7 473.0,500.0 476.4,493.3 483.1,486.5 489.9,479.8 496.6,473.0 503.4,466.3 510.1,459.6 516.9,452.8 523.6,446.1 530.3,439.3 537.1,432.6 543.8,425.8 550.6,419.1 557.3,412.4 564.0,405.6 570.8,398.9 577.5,392.1 584.3,385.4 587.6,378.7 587.6,371.9 587.6,368.5 591.0,361.8 597.8,355.1 604.5,348.3 611.2,341.6 618.0,334.8 624.7,328.1 631.5,321.3 638.2,314.6 644.9,307.9 651.7,301.1 658.4,294.4 665.2,287.6 671.9,280.9 678.7,274.2 685.4,267.4 692.1,260.7 698.9,253.9 705.6,247.2 712.4,240.4 719.1,233.7 725.8,227.0 732.6,220.2 739.3,213.5 746.1,210.1" fill="none" stroke="red" stroke-width="7" stroke-opacity="0.5"/>
  <circle cx="752.8" cy="210.1" r="15" fill="blue" fill-opacity="0.5"/>
</svg>