<svg width="1000" height="1000" xmlns="http://www.w3.org/2000/svg">
  <rect x="200" y="200" width="600" height="600" fill="white" stroke="gray" stroke-width="5" />
  <circle cx="619.2" cy="398.3" r="7" fill="black" />
  <circle cx="632.5" cy="425.0" r="7" fill="black" />
  <circle cx="421.9" cy="390.1" r="7" fill="black" />
  <circle cx="477.4" cy="502.1" r="7" fill="black" />
  <circle cx="463.0" cy="716.8" r="7" fill="black" />
  <circle cx="461.0" cy="742.5" r="7" fill="black" />
  <circle cx="593.5" cy="484.6" r="7" fill="black" />
  <circle cx="327.4" cy="249.3" r="7" fill="black" />
  <circle cx="399.3" cy="368.5" r="7" fill="black" />
  <circle cx="538.0" cy="616.1" r="7" fill="black" />
  <circle cx="368.5" cy="227.7" r="7" fill="black" />
  <circle cx="631.5" cy="322.3" r="7" fill="black" />
  <circle cx="384.9" cy="748.6" r="7" fill="black" />
  <circle cx="561.6" cy="461.0" r="7" fill="black" />
  <circle cx="602.7" cy="363.4" r="7" fill="black" />
  <circle cx="669.5" cy="297.6" r="7" fill="black" />
  <circle cx="494.9" cy="752.7" r="7" fill="black" />
  <circle cx="352.1" cy="281.2" r="7" fill="black" />
  <circle cx="382.9" cy="306.8" r="7" fill="black" />
  <circle cx="483.6" cy="512.3" r="7" fill="black" />
  <circle cx="529.8" cy="711.6" r="7" fill="black" />
  <circle cx="624.3" cy="335.6" r="7" fill="black" />
  <circle cx="372.6" cy="340.8" r="7" fill="black" />
  <circle cx="439.4" cy="783.6" r="7" fill="black" />
  <circle cx="490.8" cy="643.8" r="7" fill="black" />
  <circle cx="439.4" cy="353.1" r="7" fill="black" />
  <circle cx="587.3" cy="461.0" r="7" fill="black" />
  <circle cx="391.1" cy="391.1" r="7" fill="black" />
  <circle cx="463.0" cy="761.0" r="7" fill="black" />
  <circle cx="410.6" cy="745.5" r="7" fill="black" />
  <circle cx="576.0" cy="481.5" r="7" fill="black" />
  <circle cx="479.5" cy="588.4" r="7" fill="black" />
  <circle cx="502.1" cy="539.0" r="7" fill="black" />
  <circle cx="691.1" cy="287.3" r="7" fill="black" />
  <circle cx="627.4" cy="343.8" r="7" fill="black" />
  <circle cx="384.9" cy="289.4" r="7" fill="black" />
  <circle cx="572.9" cy="595.5" r="7" fill="black" />
  <circle cx="386.0" cy="765.1" r="7" fill="black" />
  <circle cx="481.5" cy="754.8" r="7" fill="black" />
  <circle cx="696.2" cy="238.0" r="7" fill="black" />
  <circle cx="568.8" cy="561.6" r="7" fill="black" />
  <circle cx="391.1" cy="799.0" r="7" fill="black" />
  <circle cx="412.7" cy="306.8" r="7" fill="black" />
  <circle cx="608.9" cy="463.0" r="7" fill="black" />
  <circle cx="484.6" cy="666.4" r="7" fill="black" />
  <circle cx="431.2" cy="379.8" r="7" fill="black" />
  <circle cx="381.8" cy="295.5" r="7" fill="black" />
  <circle cx="674.7" cy="309.9" r="7" fill="black" />
  <circle cx="406.5" cy="329.5" r="7" fill="black" />
  <circle cx="511.3" cy="668.5" r="7" fill="black" />
  <circle cx="568.8" cy="550.3" r="7" fill="black" />
  <circle cx="486.6" cy="779.5" r="7" fill="black" />
  <circle cx="490.8" cy="647.9" r="7" fill="black" />
  <circle cx="521.6" cy="639.7" r="7" fill="black" />
  <circle cx="585.3" cy="403.4" r="7" fill="black" />
  <circle cx="675.7" cy="280.1" r="7" fill="black" />
  <circle cx="667.5" cy="344.9" r="7" fill="black" />
  <circle cx="583.2" cy="567.8" r="7" fill="black" />
  <circle cx="455.8" cy="745.5" r="7" fill="black" />
  <circle cx="449.7" cy="468.2" r="7" fill="black" />
  <circle cx="652.1" cy="309.9" r="7" fill="black" />
  <circle cx="442.5" cy="752.7" r="7" fill="black" />
  <circle cx="585.3" cy="468.2" r="7" fill="black" />
  <circle cx="553.4" cy="572.9" r="7" fill="black" />
  <circle cx="523.6" cy="719.9" r="7" fill="black" />
  <circle cx="440.4" cy="415.8" r="7" fill="black" />
  <circle cx="509.2" cy="746.6" r="7" fill="black" />
  <circle cx="341.8" cy="275.0" r="7" fill="black" />
  <circle cx="407.5" cy="340.8" r="7" fill="black" />
  <circle cx="674.7" cy="244.2" r="7" fill="black" />
  <circle cx="581.2" cy="518.5" r="7" fill="black" />
  <circle cx="519.5" cy="596.6" r="7" fill="black" />
  <circle cx="580.1" cy="479.5" r="7" fill="black" />
  <circle cx="511.3" cy="657.2" r="7" fill="black" />
  <circle cx="673.6" cy="261.6" r="7" fill="black" />
  <circle cx="501.0" cy="699.3" r="7" fill="black" />
  <circle cx="556.5" cy="536.0" r="7" fill="black" />
  <circle cx="362.3" cy="323.3" r="7" fill="black" />
  <circle cx="635.6" cy="343.8" r="7" fill="black" />
  <circle cx="478.4" cy="578.1" r="7" fill="black" />
  <circle cx="642.8" cy="322.3" r="7" fill="black" />
  <circle cx="666.4" cy="252.4" r="7" fill="black" />
  <circle cx="472.3" cy="755.8" r="7" fill="black" />
  <circle cx="369.5" cy="309.9" r="7" fill="black" />
  <circle cx="335.6" cy="256.5" r="7" fill="black" />
  <circle cx="499.0" cy="679.8" r="7" fill="black" />
  <circle cx="418.8" cy="431.2" r="7" fill="black" />
  <circle cx="620.2" cy="451.7" r="7" fill="black" />
  <circle cx="396.2" cy="252.4" r="7" fill="black" />
  <circle cx="507.2" cy="511.3" r="7" fill="black" />
  <circle cx="678.8" cy="323.3" r="7" fill="black" />
  <circle cx="521.6" cy="520.5" r="7" fill="black" />
  <circle cx="538.0" cy="544.2" r="7" fill="black" />
  <circle cx="364.4" cy="275.0" r="7" fill="black" />
  <circle cx="570.9" cy="539.0" r="7" fill="black" />
  <circle cx="430.1" cy="384.9" r="7" fill="black" />
  <circle cx="504.1" cy="690.1" r="7" fill="black" />
  <circle cx="585.3" cy="422.9" r="7" fill="black" />
  <circle cx="449.7" cy="794.9" r="7" fill="black" />
  <circle cx="557.5" cy="502.1" r="7" fill="black" />
  <circle cx="438.4" cy="770.2" r="7" fill="black" />
  <circle cx="463.0" cy="786.6" r="7" fill="black" />
  <circle cx="508.2" cy="738.4" r="7" fill="black" />
  <circle cx="692.1" cy="261.6" r="7" fill="black" />
  <circle cx="342.8" cy="266.8" r="7" fill="black" />
  <circle cx="473.3" cy="456.8" r="7" fill="black" />
  <circle cx="628.4" cy="396.2" r="7" fill="black" />
  <circle cx="528.8" cy="561.6" r="7" fill="black" />
  <circle cx="597.6" cy="430.1" r="7" fill="black" />
  <circle cx="580.1" cy="505.1" r="7" fill="black" />
  <circle cx="514.4" cy="629.5" r="7" fill="black" />
  <circle cx="532.9" cy="594.5" r="7" fill="black" />
  <circle cx="362.3" cy="296.6" r="7" fill="black" />
  <circle cx="453.8" cy="774.3" r="7" fill="black" />
  <circle cx="509.2" cy="584.2" r="7" fill="black" />
  <circle cx="382.9" cy="255.5" r="7" fill="black" />
  <circle cx="649.0" cy="246.2" r="7" fill="black" />
  <circle cx="418.8" cy="371.6" r="7" fill="black" />
  <circle cx="339.7" cy="256.5" r="7" fill="black" />
  <circle cx="600.7" cy="352.1" r="7" fill="black" />
  <circle cx="527.7" cy="632.5" r="7" fill="black" />
  <circle cx="323.3" cy="232.9" r="7" fill="black" />
  <circle cx="613.0" cy="344.9" r="7" fill="black" />
  <circle cx="409.6" cy="287.3" r="7" fill="black" />
  <circle cx="501.0" cy="517.5" r="7" fill="black" />
  <circle cx="508.2" cy="703.4" r="7" fill="black" />
  <circle cx="430.1" cy="410.6" r="7" fill="black" />
  <circle cx="617.1" cy="335.6" r="7" fill="black" />
  <circle cx="350.0" cy="297.6" r="7" fill="black" />
  <circle cx="514.4" cy="560.6" r="7" fill="black" />
  <circle cx="409.6" cy="359.2" r="7" fill="black" />
  <circle cx="445.5" cy="450.7" r="7" fill="black" />
  <circle cx="504.1" cy="752.7" r="7" fill="black" />
  <circle cx="519.5" cy="704.5" r="7" fill="black" />
  <circle cx="321.2" cy="229.8" r="7" fill="black" />
  <circle cx="580.1" cy="581.2" r="7" fill="black" />
  <circle cx="499.0" cy="568.8" r="7" fill="black" />
  <circle cx="642.8" cy="367.5" r="7" fill="black" />
  <circle cx="457.9" cy="386.0" r="7" fill="black" />
  <circle cx="581.2" cy="502.1" r="7" fill="black" />
  <circle cx="455.8" cy="523.6" r="7" fill="black" />
  <circle cx="548.3" cy="563.7" r="7" fill="black" />
  <circle cx="501.0" cy="643.8" r="7" fill="black" />
  <circle cx="557.5" cy="458.9" r="7" fill="black" />
  <circle cx="683.9" cy="241.1" r="7" fill="black" />
  <circle cx="475.3" cy="759.9" r="7" fill="black" />
  <circle cx="593.5" cy="536.0" r="7" fill="black" />
  <circle cx="611.0" cy="497.9" r="7" fill="black" />
  <circle cx="508.2" cy="587.3" r="7" fill="black" />
  <circle cx="510.3" cy="739.4" r="7" fill="black" />
  <circle cx="459.9" cy="444.5" r="7" fill="black" />
  <circle cx="528.8" cy="665.4" r="7" fill="black" />
  <circle cx="566.8" cy="473.3" r="7" fill="black" />
  <circle cx="410.6" cy="418.8" r="7" fill="black" />
  <circle cx="457.9" cy="536.0" r="7" fill="black" />
  <circle cx="612.0" cy="442.5" r="7" fill="black" />
  <circle cx="634.6" cy="322.3" r="7" fill="black" />
  <circle cx="469.2" cy="770.2" r="7" fill="black" />
  <circle cx="686.0" cy="253.4" r="7" fill="black" />
  <circle cx="511.3" cy="678.8" r="7" fill="black" />
  <circle cx="532.9" cy="619.2" r="7" fill="black" />
  <circle cx="420.9" cy="453.8" r="7" fill="black" />
  <circle cx="576.0" cy="576.0" r="7" fill="black" />
  <circle cx="392.1" cy="302.7" r="7" fill="black" />
  <circle cx="644.9" cy="304.8" r="7" fill="black" />
  <circle cx="441.4" cy="377.7" r="7" fill="black" />
  <circle cx="381.8" cy="237.0" r="7" fill="black" />
  <circle cx="482.5" cy="763.0" r="7" fill="black" />
  <circle cx="570.9" cy="575.0" r="7" fill="black" />
  <circle cx="606.8" cy="334.6" r="7" fill="black" />
  <circle cx="343.8" cy="269.9" r="7" fill="black" />
  <circle cx="486.6" cy="463.0" r="7" fill="black" />
  <circle cx="560.6" cy="619.2" r="7" fill="black" />
  <circle cx="550.3" cy="555.5" r="7" fill="black" />
  <circle cx="605.8" cy="509.2" r="7" fill="black" />
  <circle cx="443.5" cy="459.9" r="7" fill="black" />
  <circle cx="580.1" cy="497.9" r="7" fill="black" />
  <circle cx="611.0" cy="392.1" r="7" fill="black" />
  <circle cx="626.4" cy="386.0" r="7" fill="black" />
  <circle cx="534.9" cy="560.6" r="7" fill="black" />
  <circle cx="625.3" cy="302.7" r="7" fill="black" />
  <circle cx="619.2" cy="323.3" r="7" fill="black" />
  <circle cx="474.3" cy="416.8" r="7" fill="black" />
  <circle cx="422.9" cy="402.4" r="7" fill="black" />
  <circle cx="619.2" cy="327.4" r="7" fill="black" />
  <circle cx="435.3" cy="346.9" r="7" fill="black" />
  <circle cx="358.2" cy="294.5" r="7" fill="black" />
  <circle cx="570.9" cy="578.1" r="7" fill="black" />
  <circle cx="624.3" cy="391.1" r="7" fill="black" />
  <circle cx="431.2" cy="795.9" r="7" fill="black" />
  <circle cx="471.2" cy="451.7" r="7" fill="black" />
  <circle cx="562.7" cy="604.8" r="7" fill="black" />
  <circle cx="490.8" cy="551.4" r="7" fill="black" />
  <circle cx="564.7" cy="482.5" r="7" fill="black" />
  <circle cx="627.4" cy="462.0" r="7" fill="black" />
  <circle cx="462.0" cy="541.1" r="7" fill="black" />
  <circle cx="558.6" cy="496.9" r="7" fill="black" />
  <circle cx="396.2" cy="748.6" r="7" fill="black" />
  <circle cx="504.1" cy="680.8" r="7" fill="black" />
  <circle cx="394.2" cy="331.5" r="7" fill="black" />
  <circle cx="384.9" cy="366.4" r="7" fill="black" />
  <circle cx="394.2" cy="371.6" r="7" fill="black" />
  <circle cx="693.2" cy="239.0" r="7" fill="black" />
  <circle cx="489.7" cy="743.5" r="7" fill="black" />
  <circle cx="680.8" cy="260.6" r="7" fill="black" />
  <circle cx="525.7" cy="642.8" r="7" fill="black" />
  <circle cx="598.6" cy="465.1" r="7" fill="black" />
  <circle cx="538.0" cy="636.6" r="7" fill="black" />
  <circle cx="406.5" cy="784.6" r="7" fill="black" />
  <circle cx="497.9" cy="772.3" r="7" fill="black" />
  <circle cx="690.1" cy="265.8" r="7" fill="black" />
  <circle cx="555.5" cy="495.9" r="7" fill="black" />
  <circle cx="509.2" cy="738.4" r="7" fill="black" />
  <circle cx="470.2" cy="737.3" r="7" fill="black" />
  <circle cx="428.1" cy="420.9" r="7" fill="black" />
  <circle cx="650.0" cy="265.8" r="7" fill="black" />
  <circle cx="504.1" cy="633.6" r="7" fill="black" />
  <circle cx="441.4" cy="367.5" r="7" fill="black" />
  <circle cx="395.2" cy="759.9" r="7" fill="black" />
  <circle cx="390.1" cy="790.8" r="7" fill="black" />
  <circle cx="474.3" cy="448.6" r="7" fill="black" />
  <circle cx="484.6" cy="481.5" r="7" fill="black" />
  <circle cx="578.1" cy="548.3" r="7" fill="black" />
  <circle cx="552.4" cy="622.3" r="7" fill="black" />
  <circle cx="386.0" cy="349.0" r="7" fill="black" />
  <circle cx="566.8" cy="527.7" r="7" fill="black" />
  <circle cx="479.5" cy="502.1" r="7" fill="black" />
  <circle cx="599.7" cy="488.7" r="7" fill="black" />
  <circle cx="440.4" cy="424.0" r="7" fill="black" />
  <circle cx="464.0" cy="397.3" r="7" fill="black" />
  <circle cx="551.4" cy="501.0" r="7" fill="black" />
  <circle cx="592.5" cy="432.2" r="7" fill="black" />
  <circle cx="591.4" cy="445.5" r="7" fill="black" />
  <circle cx="562.7" cy="449.7" r="7" fill="black" />
  <circle cx="484.6" cy="524.7" r="7" fill="black" />
  <circle cx="609.9" cy="468.2" r="7" fill="black" />
  <circle cx="525.7" cy="698.3" r="7" fill="black" />
  <circle cx="549.3" cy="650.0" r="7" fill="black" />
  <circle cx="472.3" cy="449.7" r="7" fill="black" />
  <circle cx="491.8" cy="647.9" r="7" fill="black" />
  <circle cx="601.7" cy="450.7" r="7" fill="black" />
  <circle cx="369.5" cy="285.3" r="7" fill="black" />
  <circle cx="467.1" cy="779.5" r="7" fill="black" />
  <circle cx="662.3" cy="368.5" r="7" fill="black" />
  <circle cx="463.0" cy="741.4" r="7" fill="black" />
  <circle cx="612.0" cy="450.7" r="7" fill="black" />
  <circle cx="392.1" cy="790.8" r="7" fill="black" />
  <circle cx="442.5" cy="758.9" r="7" fill="black" />
  <circle cx="391.1" cy="391.1" r="7" fill="black" />
  <circle cx="678.8" cy="321.2" r="7" fill="black" />
  <circle cx="674.7" cy="262.7" r="7" fill="black" />
  <circle cx="475.3" cy="478.4" r="7" fill="black" />
  <circle cx="440.4" cy="343.8" r="7" fill="black" />
  <circle cx="422.9" cy="413.7" r="7" fill="black" />
  <circle cx="481.5" cy="489.7" r="7" fill="black" />
  <circle cx="605.8" cy="364.4" r="7" fill="black" />
  <circle cx="432.2" cy="363.4" r="7" fill="black" />
  <circle cx="416.8" cy="344.9" r="7" fill="black" />
  <circle cx="588.4" cy="376.7" r="7" fill="black" />
  <circle cx="459.9" cy="508.2" r="7" fill="black" />
  <circle cx="431.2" cy="797.9" r="7" fill="black" />
  <circle cx="418.8" cy="308.9" r="7" fill="black" />
  <circle cx="609.9" cy="347.9" r="7" fill="black" />
  <circle cx="480.5" cy="711.6" r="7" fill="black" />
  <circle cx="455.8" cy="413.7" r="7" fill="black" />
  <circle cx="476.4" cy="486.6" r="7" fill="black" />
  <circle cx="492.8" cy="571.9" r="7" fill="black" />
  <circle cx="454.8" cy="788.7" r="7" fill="black" />
  <circle cx="516.4" cy="558.6" r="7" fill="black" />
  <circle cx="467.1" cy="743.5" r="7" fill="black" />
  <circle cx="566.8" cy="471.2" r="7" fill="black" />
  <circle cx="533.9" cy="674.7" r="7" fill="black" />
  <circle cx="387.0" cy="330.5" r="7" fill="black" />
  <circle cx="679.8" cy="281.2" r="7" fill="black" />
  <circle cx="409.6" cy="413.7" r="7" fill="black" />
  <circle cx="427.1" cy="399.3" r="7" fill="black" />
  <circle cx="358.2" cy="297.6" r="7" fill="black" />
  <circle cx="387.0" cy="239.0" r="7" fill="black" />
  <circle cx="551.4" cy="543.2" r="7" fill="black" />
  <circle cx="642.8" cy="420.9" r="7" fill="black" />
  <circle cx="555.5" cy="566.8" r="7" fill="black" />
  <circle cx="571.9" cy="592.5" r="7" fill="black" />
  <circle cx="542.1" cy="673.6" r="7" fill="black" />
  <circle cx="395.2" cy="338.7" r="7" fill="black" />
  <circle cx="464.0" cy="778.4" r="7" fill="black" />
  <circle cx="502.1" cy="584.2" r="7" fill="black" />
  <circle cx="512.3" cy="709.6" r="7" fill="black" />
  <circle cx="479.5" cy="525.7" r="7" fill="black" />
  <circle cx="649.0" cy="275.0" r="7" fill="black" />
  <circle cx="344.9" cy="226.7" r="7" fill="black" />
  <circle cx="553.4" cy="647.9" r="7" fill="black" />
  <circle cx="352.1" cy="277.1" r="7" fill="black" />
  <circle cx="464.0" cy="727.1" r="7" fill="black" />
  <circle cx="386.0" cy="293.5" r="7" fill="black" />
  <circle cx="628.4" cy="427.1" r="7" fill="black" />
  <circle cx="625.3" cy="454.8" r="7" fill="black" />
  <circle cx="451.7" cy="384.9" r="7" fill="black" />
  <circle cx="468.2" cy="435.3" r="7" fill="black" />
  <circle cx="387.0" cy="314.0" r="7" fill="black" />
  <circle cx="413.7" cy="345.9" r="7" fill="black" />
  <circle cx="200.0" cy="200.0" r="15" fill="blue" fill-opacity="0.5"/>
</svg>