<svg width="1000" height="1000" xmlns="http://www.w3.org/2000/svg">
  <rect x="200" y="200" width="600" height="600" fill="white" stroke="gray" stroke-width="5" />
  <circle cx="425.0" cy="260.0" r="7" fill="black" />
  <circle cx="692.0" cy="461.0" r="7" fill="black" />
  <circle cx="293.0" cy="212.0" r="7" fill="black" />
  <circle cx="203.0" cy="218.0" r="7" fill="black" />
  <circle cx="200.0" cy="224.0" r="7" fill="black" />
  <circle cx="662.0" cy="431.0" r="7" fill="black" />
  <circle cx="323.0" cy="236.0" r="7" fill="black" />
  <circle cx="212.0" cy="215.0" r="7" fill="black" />
  <circle cx="785.0" cy="662.0" r="7" fill="black" />
  <circle cx="227.0" cy="206.0" r="7" fill="black" />
  <circle cx="245.0" cy="236.0" r="7" fill="black" />
  <circle cx="572.0" cy="347.0" r="7" fill="black" />
  <circle cx="374.0" cy="233.0" r="7" fill="black" />
  <circle cx="491.0" cy="302.0" r="7" fill="black" />
  <circle cx="272.0" cy="221.0" r="7" fill="black" />
  <circle cx="752.0" cy="557.0" r="7" fill="black" />
  <circle cx="794.0" cy="722.0" r="7" fill="black" />
  <circle cx="350.0" cy="233.0" r="7" fill="black" />
  <circle cx="233.0" cy="230.0" r="7" fill="black" />
  <circle cx="254.0" cy="236.0" r="7" fill="black" />
  <circle cx="200.0" cy="230.0" r="7" fill="black" />
  <circle cx="344.0" cy="236.0" r="7" fill="black" />
  <circle cx="563.0" cy="323.0" r="7" fill="black" />
  <circle cx="278.0" cy="218.0" r="7" fill="black" />
  <circle cx="254.0" cy="200.0" r="7" fill="black" />
  <circle cx="329.0" cy="239.0" r="7" fill="black" />
  <circle cx="578.0" cy="356.0" r="7" fill="black" />
  <circle cx="569.0" cy="335.0" r="7" fill="black" />
  <circle cx="776.0" cy="635.0" r="7" fill="black" />
  <circle cx="281.0" cy="206.0" r="7" fill="black" />
  <circle cx="605.0" cy="380.0" r="7" fill="black" />
  <circle cx="707.0" cy="470.0" r="7" fill="black" />
  <circle cx="542.0" cy="308.0" r="7" fill="black" />
  <circle cx="758.0" cy="575.0" r="7" fill="black" />
  <circle cx="743.0" cy="518.0" r="7" fill="black" />
  <circle cx="203.0" cy="233.0" r="7" fill="black" />
  <circle cx="797.0" cy="728.0" r="7" fill="black" />
  <circle cx="452.0" cy="284.0" r="7" fill="black" />
  <circle cx="641.0" cy="410.0" r="7" fill="black" />
  <circle cx="287.0" cy="221.0" r="7" fill="black" />
  <circle cx="281.0" cy="221.0" r="7" fill="black" />
  <circle cx="206.0" cy="215.0" r="7" fill="black" />
  <circle cx="296.0" cy="221.0" r="7" fill="black" />
  <circle cx="233.0" cy="203.0" r="7" fill="black" />
  <circle cx="797.0" cy="734.0" r="7" fill="black" />
  <circle cx="239.0" cy="233.0" r="7" fill="black" />
  <circle cx="260.0" cy="233.0" r="7" fill="black" />
  <circle cx="584.0" cy="365.0" r="7" fill="black" />
  <circle cx="791.0" cy="707.0" r="7" fill="black" />
  <circle cx="302.0" cy="218.0" r="7" fill="black" />
  <circle cx="671.0" cy="440.0" r="7" fill="black" />
  <circle cx="317.0" cy="233.0" r="7" fill="black" />
  <circle cx="788.0" cy="674.0" r="7" fill="black" />
  <circle cx="278.0" cy="215.0" r="7" fill="black" />
  <circle cx="263.0" cy="230.0" r="7" fill="black" />
  <circle cx="266.0" cy="203.0" r="7" fill="black" />
  <circle cx="365.0" cy="233.0" r="7" fill="black" />
  <circle cx="554.0" cy="314.0" r="7" fill="black" />
  <circle cx="767.0" cy="590.0" r="7" fill="black" />
  <circle cx="242.0" cy="200.0" r="7" fill="black" />
  <circle cx="515.0" cy="305.0" r="7" fill="black" />
  <circle cx="206.0" cy="233.0" r="7" fill="black" />
  <circle cx="218.0" cy="230.0" r="7" fill="black" />
  <circle cx="629.0" cy="401.0" r="7" fill="black" />
  <circle cx="680.0" cy="449.0" r="7" fill="black" />
  <circle cx="398.0" cy="242.0" r="7" fill="black" />
  <circle cx="215.0" cy="215.0" r="7" fill="black" />
  <circle cx="593.0" cy="371.0" r="7" fill="black" />
  <circle cx="794.0" cy="716.0" r="7" fill="black" />
  <circle cx="212.0" cy="233.0" r="7" fill="black" />
  <circle cx="728.0" cy="491.0" r="7" fill="black" />
  <circle cx="773.0" cy="608.0" r="7" fill="black" />
  <circle cx="464.0" cy="293.0" r="7" fill="black" />
  <circle cx="308.0" cy="227.0" r="7" fill="black" />
  <circle cx="215.0" cy="212.0" r="7" fill="black" />
  <circle cx="278.0" cy="215.0" r="7" fill="black" />
  <circle cx="479.0" cy="299.0" r="7" fill="black" />
  <circle cx="437.0" cy="272.0" r="7" fill="black" />
  <circle cx="503.0" cy="302.0" r="7" fill="black" />
  <circle cx="272.0" cy="218.0" r="7" fill="black" />
  <circle cx="734.0" cy="503.0" r="7" fill="black" />
  <circle cx="617.0" cy="389.0" r="7" fill="black" />
  <circle cx="359.0" cy="233.0" r="7" fill="black" />
  <circle cx="218.0" cy="209.0" r="7" fill="black" />
  <circle cx="275.0" cy="215.0" r="7" fill="black" />
  <circle cx="791.0" cy="698.0" r="7" fill="black" />
  <circle cx="776.0" cy="623.0" r="7" fill="black" />
  <circle cx="386.0" cy="236.0" r="7" fill="black" />
  <circle cx="269.0" cy="227.0" r="7" fill="black" />
  <circle cx="218.0" cy="212.0" r="7" fill="black" />
  <circle cx="224.0" cy="230.0" r="7" fill="black" />
  <circle cx="221.0" cy="209.0" r="7" fill="black" />
  <circle cx="749.0" cy="536.0" r="7" fill="black" />
  <circle cx="653.0" cy="419.0" r="7" fill="black" />
  <circle cx="779.0" cy="650.0" r="7" fill="black" />
  <circle cx="788.0" cy="686.0" r="7" fill="black" />
  <circle cx="413.0" cy="251.0" r="7" fill="black" />
  <circle cx="719.0" cy="479.0" r="7" fill="black" />
  <circle cx="527.0" cy="305.0" r="7" fill="black" />
  <circle cx="335.0" cy="239.0" r="7" fill="black" />
  <polyline points="797.0,737.0 797.0,734.0 797.0,728.0 794.0,722.0 794.0,716.0 791.0,707.0 791.0,698.0 788.0,686.0 788.0,674.0 785.0,662.0 779.0,650.0 776.0,635.0 776.0,623.0 773.0,608.0 767.0,590.0 758.0,575.0 752.0,557.0 749.0,536.0 743.0,518.0 734.0,503.0 728.0,491.0 719.0,479.0 707.0,470.0 692.0,461.0 680.0,449.0 671.0,440.0 662.0,431.0 653.0,419.0 641.0,410.0 629.0,401.0 617.0,389.0 605.0,380.0 593.0,371.0 584.0,365.0 578.0,356.0 572.0,347.0 569.0,335.0 563.0,323.0 554.0,314.0 542.0,308.0 527.0,305.0 515.0,305.0 503.0,302.0 491.0,302.0 479.0,299.0 464.0,293.0 452.0,284.0 437.0,272.0 425.0,260.0 413.0,251.0 398.0,242.0 386.0,236.0 374.0,233.0 365.0,233.0 359.0,233.0 350.0,233.0 344.0,236.0 335.0,239.0 329.0,239.0 323.0,236.0 317.0,233.0 308.0,227.0 302.0,218.0 296.0,212.0 293.0,209.0 293.0,209.0 296.0,212.0 296.0,218.0 296.0,221.0 293.0,221.0 287.0,221.0 281.0,221.0 278.0,218.0 278.0,215.0 275.0,215.0 272.0,218.0 272.0,221.0 269.0,227.0 263.0,230.0 260.0,233.0 254.0,236.0 245.0,236.0 239.0,233.0 233.0,230.0 224.0,230.0 218.0,230.0 212.0,233.0 206.0,233.0 203.0,233.0 200.0,230.0 200.0,224.0 203.0,218.0 206.0,215.0 212.0,215.0 215.0,215.0 215.0,212.0 218.0,212.0 218.0,209.0 221.0,209.0 227.0,206.0 233.0,203.0 242.0,200.0 254.0,200.0 266.0,203.0 281.0,206.0" fill="none" stroke="red" stroke-width="7" stroke-opacity="0.5"/>
  <circle cx="293.0" cy="212.0" r="15" fill="blue" fill-opacity="0.5"/>
</svg>