<svg width="1000" height="1000" xmlns="http://www.w3.org/2000/svg">
  <rect x="200" y="200" width="600" height="600" fill="white" stroke="gray" stroke-width="5" />
  <circle cx="405.0" cy="501.4" r="7" fill="black" />
  <circle cx="319.7" cy="425.7" r="7" fill="black" />
  <circle cx="425.7" cy="508.3" r="7" fill="black" />
  <circle cx="508.3" cy="633.5" r="7" fill="black" />
  <circle cx="366.5" cy="483.5" r="7" fill="black" />
  <circle cx="469.7" cy="566.1" r="7" fill="black" />
  <circle cx="512.4" cy="663.8" r="7" fill="black" />
  <circle cx="245.4" cy="234.4" r="7" fill="black" />
  <circle cx="315.6" cy="321.1" r="7" fill="black" />
  <circle cx="366.5" cy="394.0" r="7" fill="black" />
  <circle cx="505.5" cy="633.5" r="7" fill="black" />
  <circle cx="516.5" cy="659.6" r="7" fill="black" />
  <circle cx="513.8" cy="610.1" r="7" fill="black" />
  <circle cx="513.8" cy="663.8" r="7" fill="black" />
  <circle cx="301.8" cy="301.8" r="7" fill="black" />
  <circle cx="480.7" cy="520.6" r="7" fill="black" />
  <circle cx="460.1" cy="553.7" r="7" fill="black" />
  <circle cx="480.7" cy="611.5" r="7" fill="black" />
  <circle cx="351.4" cy="374.8" r="7" fill="black" />
  <circle cx="519.3" cy="617.0" r="7" fill="black" />
  <circle cx="502.8" cy="645.9" r="7" fill="black" />
  <circle cx="465.6" cy="515.1" r="7" fill="black" />
  <circle cx="498.6" cy="641.7" r="7" fill="black" />
  <circle cx="377.5" cy="407.8" r="7" fill="black" />
  <circle cx="202.8" cy="204.1" r="7" fill="black" />
  <circle cx="289.4" cy="283.9" r="7" fill="black" />
  <circle cx="450.5" cy="517.9" r="7" fill="black" />
  <circle cx="450.5" cy="539.9" r="7" fill="black" />
  <circle cx="447.7" cy="522.0" r="7" fill="black" />
  <circle cx="500.0" cy="643.1" r="7" fill="black" />
  <circle cx="505.5" cy="663.8" r="7" fill="black" />
  <circle cx="328.0" cy="340.4" r="7" fill="black" />
  <circle cx="508.3" cy="586.7" r="7" fill="black" />
  <circle cx="505.5" cy="557.8" r="7" fill="black" />
  <circle cx="505.5" cy="568.8" r="7" fill="black" />
  <circle cx="472.5" cy="577.1" r="7" fill="black" />
  <circle cx="389.9" cy="429.8" r="7" fill="black" />
  <circle cx="374.8" cy="490.4" r="7" fill="black" />
  <circle cx="274.3" cy="264.7" r="7" fill="black" />
  <circle cx="458.7" cy="516.5" r="7" fill="black" />
  <circle cx="215.1" cy="208.3" r="7" fill="black" />
  <circle cx="413.3" cy="475.2" r="7" fill="black" />
  <circle cx="461.5" cy="513.8" r="7" fill="black" />
  <circle cx="486.2" cy="619.7" r="7" fill="black" />
  <circle cx="522.0" cy="633.5" r="7" fill="black" />
  <circle cx="391.3" cy="501.4" r="7" fill="black" />
  <circle cx="522.0" cy="645.9" r="7" fill="black" />
  <circle cx="234.4" cy="220.6" r="7" fill="black" />
  <circle cx="506.9" cy="637.6" r="7" fill="black" />
  <circle cx="493.1" cy="528.9" r="7" fill="black" />
  <circle cx="351.4" cy="472.5" r="7" fill="black" />
  <circle cx="506.9" cy="578.4" r="7" fill="black" />
  <circle cx="506.9" cy="636.2" r="7" fill="black" />
  <circle cx="438.1" cy="522.0" r="7" fill="black" />
  <circle cx="344.5" cy="468.3" r="7" fill="black" />
  <circle cx="396.8" cy="447.7" r="7" fill="black" />
  <circle cx="511.0" cy="595.0" r="7" fill="black" />
  <circle cx="256.4" cy="248.2" r="7" fill="black" />
  <circle cx="442.2" cy="520.6" r="7" fill="black" />
  <circle cx="519.3" cy="652.8" r="7" fill="black" />
  <circle cx="433.9" cy="512.4" r="7" fill="black" />
  <circle cx="427.1" cy="511.0" r="7" fill="black" />
  <circle cx="429.8" cy="506.9" r="7" fill="black" />
  <circle cx="322.5" cy="432.6" r="7" fill="black" />
  <circle cx="475.2" cy="517.9" r="7" fill="black" />
  <circle cx="428.4" cy="513.8" r="7" fill="black" />
  <circle cx="476.6" cy="589.4" r="7" fill="black" />
  <circle cx="337.6" cy="457.3" r="7" fill="black" />
  <circle cx="328.0" cy="439.4" r="7" fill="black" />
  <circle cx="420.2" cy="494.5" r="7" fill="black" />
  <circle cx="497.2" cy="538.5" r="7" fill="black" />
  <circle cx="336.2" cy="447.7" r="7" fill="black" />
  <circle cx="506.9" cy="650.0" r="7" fill="black" />
  <circle cx="447.7" cy="523.4" r="7" fill="black" />
  <circle cx="399.5" cy="502.8" r="7" fill="black" />
  <circle cx="512.4" cy="604.6" r="7" fill="black" />
  <circle cx="495.9" cy="633.5" r="7" fill="black" />
  <circle cx="405.0" cy="462.8" r="7" fill="black" />
  <circle cx="505.5" cy="641.7" r="7" fill="black" />
  <circle cx="517.9" cy="625.2" r="7" fill="black" />
  <circle cx="418.8" cy="506.9" r="7" fill="black" />
  <circle cx="504.1" cy="640.4" r="7" fill="black" />
  <circle cx="505.5" cy="633.5" r="7" fill="black" />
  <circle cx="484.9" cy="524.8" r="7" fill="black" />
  <circle cx="501.4" cy="548.2" r="7" fill="black" />
  <circle cx="227.5" cy="213.8" r="7" fill="black" />
  <circle cx="505.5" cy="654.1" r="7" fill="black" />
  <circle cx="506.9" cy="634.9" r="7" fill="black" />
  <circle cx="493.1" cy="630.7" r="7" fill="black" />
  <circle cx="359.6" cy="476.6" r="7" fill="black" />
  <circle cx="438.1" cy="515.1" r="7" fill="black" />
  <circle cx="340.4" cy="359.6" r="7" fill="black" />
  <circle cx="380.3" cy="500.0" r="7" fill="black" />
  <circle cx="501.4" cy="637.6" r="7" fill="black" />
  <circle cx="414.7" cy="502.8" r="7" fill="black" />
  <circle cx="476.6" cy="601.8" r="7" fill="black" />
  <circle cx="490.4" cy="625.2" r="7" fill="black" />
  <circle cx="502.8" cy="659.6" r="7" fill="black" />
  <circle cx="497.2" cy="639.0" r="7" fill="black" />
  <circle cx="341.7" cy="465.6" r="7" fill="black" />
  <polyline points="318.3,422.9 319.7,424.3 319.7,425.7 321.1,428.4 322.5,432.6 325.2,436.7 328.0,439.4 332.1,443.6 336.2,447.7 339.0,453.2 340.4,458.7 341.7,465.6 344.5,471.1 348.6,475.2 354.1,478.0 359.6,480.7 366.5,483.5 372.0,487.6 376.1,493.1 380.3,500.0 384.4,505.5 389.9,509.6 396.8,512.4 405.0,513.8 414.7,513.8 425.7,513.8 438.1,515.1 450.5,517.9 461.5,519.3 471.1,519.3 480.7,520.6 489.0,523.4 495.9,527.5 501.4,533.0 505.5,539.9 508.3,548.2 509.6,557.8 509.6,568.8 508.3,578.4 508.3,586.7 509.6,595.0 512.4,604.6 516.5,615.6 519.3,625.2 522.0,633.5 523.4,640.4 523.4,645.9 522.0,650.0 519.3,652.8 516.5,656.9 515.1,659.6 512.4,663.8 509.6,666.5 506.9,667.9 505.5,667.9 505.5,666.5 505.5,663.8 504.1,661.0 502.8,659.6 502.8,656.9 504.1,654.1 506.9,650.0 508.3,644.5 508.3,639.0 506.9,634.9 506.9,632.1 506.9,630.7 505.5,630.7 505.5,632.1 505.5,633.5 506.9,636.2 506.9,637.6 505.5,640.4 505.5,641.7 504.1,641.7 504.1,640.4 502.8,639.0 501.4,637.6 498.6,637.6 497.2,639.0 497.2,640.4 498.6,641.7 500.0,643.1 502.8,645.9 505.5,650.0 506.9,652.8 506.9,654.1 505.5,654.1 505.5,655.5 506.9,658.3 509.6,659.6 512.4,662.4 513.8,663.8 515.1,663.8 516.5,662.4 516.5,659.6 517.9,655.5 520.6,650.0 522.0,645.9 522.0,640.4 520.6,633.5 517.9,625.2 516.5,617.0 513.8,610.1 511.0,601.8 509.6,592.2 506.9,581.2 505.5,568.8 505.5,557.8 504.1,548.2 501.4,539.9 497.2,533.0 491.7,527.5 484.9,522.0 476.6,517.9 468.3,515.1 461.5,513.8 453.2,513.8 443.6,515.1 435.3,515.1 428.4,513.8 422.9,511.0 418.8,506.9 414.7,502.8 410.6,500.0 407.8,498.6 406.4,498.6 405.0,500.0 405.0,501.4 403.7,502.8 400.9,502.8 399.5,502.8 396.8,501.4 394.0,501.4 391.3,501.4 387.2,500.0 381.7,497.2 377.5,493.1 374.8,490.4 370.6,486.2 365.1,480.7 359.6,476.6 352.8,472.5 344.5,468.3 337.6,465.6 332.1,464.2 328.0,462.8 325.2,461.5 323.9,458.7 323.9,457.3 325.2,457.3 328.0,457.3 332.1,457.3 337.6,457.3 344.5,458.7 350.0,461.5 354.1,465.6 356.9,468.3 358.3,471.1 358.3,472.5 356.9,472.5 354.1,472.5 351.4,472.5 350.0,471.1 350.0,468.3 351.4,464.2 354.1,461.5 358.3,457.3 363.8,451.8 370.6,447.7 378.9,445.0 385.8,443.6 391.3,443.6 395.4,445.0 398.2,446.3 399.5,447.7 399.5,447.7 398.2,447.7 396.8,447.7 394.0,446.3 389.9,443.6 387.2,439.4 385.8,435.3 385.8,432.6 387.2,431.2 389.9,429.8 391.3,427.1 391.3,422.9 389.9,417.4 387.2,410.6 383.0,405.0 377.5,400.9 372.0,396.8 366.5,394.0 359.6,389.9 354.1,384.4 350.0,380.3 347.2,377.5 345.9,376.1 345.9,374.8 347.2,374.8 350.0,374.8 351.4,374.8 351.4,373.4 350.0,370.6 347.2,366.5 343.1,362.4 340.4,359.6 336.2,355.5 330.7,350.0 326.6,345.9 323.9,343.1 322.5,341.7 322.5,340.4 323.9,340.4 326.6,340.4 328.0,340.4 328.0,339.0 326.6,336.2 323.9,332.1 319.7,326.6 315.6,321.1 310.1,314.2 306.0,307.3 301.8,301.8 296.3,295.0 292.2,289.4 289.4,283.9 285.3,277.1 279.8,270.2 274.3,264.7 267.4,257.8 261.9,252.3 256.4,248.2 249.5,242.7 244.0,238.5 239.9,233.0 234.4,226.1 230.3,220.6 227.5,213.8 223.4,208.3 219.3,204.1 213.8,201.4 208.3,200.0 204.1,200.0 201.4,201.4 200.0,202.8 200.0,204.1 201.4,204.1 202.8,204.1 205.5,205.5 209.6,208.3 212.4,209.6 213.8,209.6 215.1,208.3 217.9,208.3 222.0,209.6 227.5,212.4 231.7,216.5 234.4,220.6 238.5,226.1 242.7,230.3 245.4,234.4 249.5,239.9 255.0,246.8 261.9,255.0 270.2,264.7 279.8,275.7 290.8,288.1 303.2,301.8 317.0,317.0 332.1,333.5 348.6,351.4 366.5,370.6 383.0,391.3 398.2,413.3 411.9,436.7 424.3,461.5 435.3,487.6 445.0,515.1 454.6,541.3 465.6,566.1 476.6,589.4 486.2,611.5 495.9,633.5 505.5,654.1 513.8,673.4 520.6,691.3 526.1,707.8 530.3,722.9 533.0,736.7 534.4,749.1 534.4,760.1 533.0,769.7 530.3,778.0 526.1,784.9 522.0,790.4 516.5,794.5 512.4,797.2 509.6,798.6 508.3,798.6 508.3,797.2 508.3,794.5 508.3,790.4 508.3,784.9 508.3,778.0 508.3,769.7 508.3,760.1 508.3,749.1 508.3,736.7 508.3,722.9 508.3,707.8 508.3,691.3 508.3,673.4 508.3,654.1 508.3,633.5 509.6,614.2 511.0,595.0 511.0,577.1 509.6,560.6 506.9,545.4 502.8,531.7 497.2,519.3 490.4,508.3 482.1,498.6 472.5,490.4 461.5,483.5 449.1,475.2 436.7,468.3 425.7,462.8 416.1,458.7 407.8,456.0 400.9,454.6 395.4,454.6 391.3,456.0 388.5,458.7 387.2,461.5 387.2,462.8 388.5,462.8 391.3,462.8 395.4,462.8 400.9,462.8 405.0,462.8 410.6,464.2 414.7,467.0 417.4,471.1 418.8,473.9 418.8,475.2 417.4,475.2 414.7,475.2 413.3,475.2 413.3,476.6 414.7,479.4 417.4,483.5 418.8,489.0 420.2,494.5 422.9,501.4 425.7,508.3 429.8,513.8 433.9,517.9 438.1,522.0 442.2,524.8 445.0,526.1 446.3,526.1 447.7,524.8 447.7,522.0 446.3,520.6 443.6,520.6 442.2,520.6 442.2,522.0 443.6,523.4 446.3,523.4 447.7,523.4 450.5,522.0 454.6,519.3 458.7,516.5 462.8,515.1 465.6,515.1 469.7,516.5 475.2,517.9 482.1,520.6 487.6,524.8 493.1,528.9 497.2,534.4 500.0,541.3 501.4,548.2 501.4,555.0 502.8,563.3 505.5,571.6 506.9,578.4 509.6,586.7 513.8,596.3 516.5,607.3 519.3,617.0 520.6,625.2 520.6,632.1 519.3,637.6 516.5,641.7 512.4,644.5 506.9,645.9 500.0,645.9 494.5,644.5 490.4,641.7 487.6,637.6 486.2,632.1 486.2,625.2 486.2,619.7 484.9,615.6 482.1,612.8 480.7,611.5 478.0,608.7 476.6,604.6 476.6,601.8 475.2,597.7 472.5,592.2 471.1,585.3 471.1,578.4 469.7,571.6 469.7,566.1 468.3,559.2 465.6,552.3 461.5,546.8 456.0,542.7 450.5,539.9 445.0,538.5 438.1,535.8 432.6,531.7 427.1,526.1 422.9,520.6 420.2,516.5 418.8,513.8 418.8,512.4 420.2,511.0 422.9,511.0 427.1,511.0 431.2,512.4 433.9,512.4 435.3,511.0 435.3,508.3 433.9,506.9 431.2,506.9 429.8,506.9 429.8,508.3 431.2,511.0 433.9,515.1 438.1,520.6 443.6,524.8 450.5,530.3 457.3,537.2 462.8,542.7 467.0,549.5 469.7,557.8 471.1,567.4 472.5,577.1 472.5,586.7 473.9,597.7 476.6,608.7 480.7,618.3 486.2,626.6 490.4,633.5 493.1,639.0 494.5,643.1 494.5,645.9 494.5,647.2 493.1,647.2 493.1,645.9 493.1,643.1 493.1,639.0 493.1,634.9 493.1,630.7 491.7,628.0 490.4,625.2 490.4,621.1 491.7,615.6 494.5,608.7 497.2,600.5 498.6,590.8 498.6,579.8 497.2,567.4 497.2,553.7 497.2,538.5 498.6,524.8 501.4,512.4 502.8,501.4 502.8,491.7 501.4,483.5 500.0,476.6 497.2,471.1 493.1,467.0 489.0,464.2 486.2,462.8 484.9,462.8 484.9,464.2 484.9,467.0 484.9,471.1 484.9,476.6 484.9,483.5 484.9,491.7 484.9,501.4 484.9,512.4 484.9,524.8 483.5,535.8 482.1,545.4 480.7,553.7 478.0,560.6 473.9,566.1 468.3,570.2 464.2,572.9 461.5,574.3 460.1,574.3 460.1,572.9 460.1,570.2 460.1,566.1 460.1,560.6 460.1,553.7 458.7,545.4 456.0,535.8 451.8,524.8 446.3,512.4 439.4,498.6 431.2,483.5 421.6,467.0 410.6,450.5 398.2,435.3 387.2,421.6" fill="none" stroke="red" stroke-width="7" stroke-opacity="0.5"/>
  <circle cx="377.5" cy="407.8" r="15" fill="blue" fill-opacity="0.5"/>
</svg>