<svg width="1000" height="1000" xmlns="http://www.w3.org/2000/svg">
  <rect x="200" y="200" width="600" height="600" fill="white" stroke="gray" stroke-width="5" />
  <circle cx="435.9" cy="272.8" r="7" fill="black" />
  <circle cx="695.1" cy="468.0" r="7" fill="black" />
  <circle cx="307.8" cy="226.2" r="7" fill="black" />
  <circle cx="220.4" cy="232.0" r="7" fill="black" />
  <circle cx="217.5" cy="237.9" r="7" fill="black" />
  <circle cx="666.0" cy="438.8" r="7" fill="black" />
  <circle cx="336.9" cy="249.5" r="7" fill="black" />
  <circle cx="229.1" cy="229.1" r="7" fill="black" />
  <circle cx="785.4" cy="663.1" r="7" fill="black" />
  <circle cx="243.7" cy="220.4" r="7" fill="black" />
  <circle cx="261.2" cy="249.5" r="7" fill="black" />
  <circle cx="578.6" cy="357.3" r="7" fill="black" />
  <circle cx="386.4" cy="246.6" r="7" fill="black" />
  <circle cx="500.0" cy="313.6" r="7" fill="black" />
  <circle cx="287.4" cy="235.0" r="7" fill="black" />
  <circle cx="753.4" cy="561.2" r="7" fill="black" />
  <circle cx="794.2" cy="721.4" r="7" fill="black" />
  <circle cx="363.1" cy="246.6" r="7" fill="black" />
  <circle cx="249.5" cy="243.7" r="7" fill="black" />
  <circle cx="269.9" cy="249.5" r="7" fill="black" />
  <circle cx="217.5" cy="243.7" r="7" fill="black" />
  <circle cx="357.3" cy="249.5" r="7" fill="black" />
  <circle cx="569.9" cy="334.0" r="7" fill="black" />
  <circle cx="293.2" cy="232.0" r="7" fill="black" />
  <circle cx="269.9" cy="214.6" r="7" fill="black" />
  <circle cx="342.7" cy="252.4" r="7" fill="black" />
  <circle cx="584.5" cy="366.0" r="7" fill="black" />
  <circle cx="575.7" cy="345.6" r="7" fill="black" />
  <circle cx="776.7" cy="636.9" r="7" fill="black" />
  <circle cx="296.1" cy="220.4" r="7" fill="black" />
  <circle cx="610.7" cy="389.3" r="7" fill="black" />
  <circle cx="709.7" cy="476.7" r="7" fill="black" />
  <circle cx="549.5" cy="319.4" r="7" fill="black" />
  <circle cx="759.2" cy="578.6" r="7" fill="black" />
  <circle cx="744.7" cy="523.3" r="7" fill="black" />
  <circle cx="220.4" cy="246.6" r="7" fill="black" />
  <circle cx="797.1" cy="727.2" r="7" fill="black" />
  <circle cx="462.1" cy="296.1" r="7" fill="black" />
  <circle cx="645.6" cy="418.4" r="7" fill="black" />
  <circle cx="301.9" cy="235.0" r="7" fill="black" />
  <circle cx="296.1" cy="235.0" r="7" fill="black" />
  <circle cx="223.3" cy="229.1" r="7" fill="black" />
  <circle cx="310.7" cy="235.0" r="7" fill="black" />
  <circle cx="249.5" cy="217.5" r="7" fill="black" />
  <circle cx="797.1" cy="733.0" r="7" fill="black" />
  <circle cx="255.3" cy="246.6" r="7" fill="black" />
  <circle cx="275.7" cy="246.6" r="7" fill="black" />
  <circle cx="590.3" cy="374.8" r="7" fill="black" />
  <circle cx="791.3" cy="706.8" r="7" fill="black" />
  <circle cx="316.5" cy="232.0" r="7" fill="black" />
  <circle cx="674.8" cy="447.6" r="7" fill="black" />
  <circle cx="331.1" cy="246.6" r="7" fill="black" />
  <circle cx="788.3" cy="674.8" r="7" fill="black" />
  <circle cx="293.2" cy="229.1" r="7" fill="black" />
  <circle cx="278.6" cy="243.7" r="7" fill="black" />
  <circle cx="281.6" cy="217.5" r="7" fill="black" />
  <circle cx="377.7" cy="246.6" r="7" fill="black" />
  <circle cx="561.2" cy="325.2" r="7" fill="black" />
  <circle cx="768.0" cy="593.2" r="7" fill="black" />
  <circle cx="258.3" cy="214.6" r="7" fill="black" />
  <circle cx="523.3" cy="316.5" r="7" fill="black" />
  <circle cx="223.3" cy="246.6" r="7" fill="black" />
  <circle cx="235.0" cy="243.7" r="7" fill="black" />
  <circle cx="634.0" cy="409.7" r="7" fill="black" />
  <circle cx="683.5" cy="456.3" r="7" fill="black" />
  <circle cx="409.7" cy="255.3" r="7" fill="black" />
  <circle cx="232.0" cy="229.1" r="7" fill="black" />
  <circle cx="599.0" cy="380.6" r="7" fill="black" />
  <circle cx="794.2" cy="715.5" r="7" fill="black" />
  <circle cx="229.1" cy="246.6" r="7" fill="black" />
  <circle cx="730.1" cy="497.1" r="7" fill="black" />
  <circle cx="773.8" cy="610.7" r="7" fill="black" />
  <circle cx="473.8" cy="304.9" r="7" fill="black" />
  <circle cx="322.3" cy="240.8" r="7" fill="black" />
  <circle cx="232.0" cy="226.2" r="7" fill="black" />
  <circle cx="293.2" cy="229.1" r="7" fill="black" />
  <circle cx="488.3" cy="310.7" r="7" fill="black" />
  <circle cx="447.6" cy="284.5" r="7" fill="black" />
  <circle cx="511.7" cy="313.6" r="7" fill="black" />
  <circle cx="287.4" cy="232.0" r="7" fill="black" />
  <circle cx="735.9" cy="508.7" r="7" fill="black" />
  <circle cx="622.3" cy="398.1" r="7" fill="black" />
  <circle cx="371.8" cy="246.6" r="7" fill="black" />
  <circle cx="235.0" cy="223.3" r="7" fill="black" />
  <circle cx="290.3" cy="229.1" r="7" fill="black" />
  <circle cx="791.3" cy="698.1" r="7" fill="black" />
  <circle cx="776.7" cy="625.2" r="7" fill="black" />
  <circle cx="398.1" cy="249.5" r="7" fill="black" />
  <circle cx="284.5" cy="240.8" r="7" fill="black" />
  <circle cx="235.0" cy="226.2" r="7" fill="black" />
  <circle cx="240.8" cy="243.7" r="7" fill="black" />
  <circle cx="237.9" cy="223.3" r="7" fill="black" />
  <circle cx="750.5" cy="540.8" r="7" fill="black" />
  <circle cx="657.3" cy="427.2" r="7" fill="black" />
  <circle cx="779.6" cy="651.5" r="7" fill="black" />
  <circle cx="788.3" cy="686.4" r="7" fill="black" />
  <circle cx="424.3" cy="264.1" r="7" fill="black" />
  <circle cx="721.4" cy="485.4" r="7" fill="black" />
  <circle cx="535.0" cy="316.5" r="7" fill="black" />
  <circle cx="348.5" cy="252.4" r="7" fill="black" />
  <polyline points="797.1,735.9 797.1,733.0 797.1,727.2 794.2,721.4 794.2,715.5 791.3,706.8 791.3,698.1 788.3,686.4 788.3,674.8 785.4,663.1 779.6,651.5 776.7,636.9 776.7,625.2 773.8,610.7 768.0,593.2 759.2,578.6 753.4,561.2 750.5,540.8 744.7,523.3 735.9,508.7 730.1,497.1 721.4,485.4 709.7,476.7 695.1,468.0 683.5,456.3 674.8,447.6 666.0,438.8 657.3,427.2 645.6,418.4 634.0,409.7 622.3,398.1 610.7,389.3 599.0,380.6 590.3,374.8 584.5,366.0 578.6,357.3 575.7,345.6 569.9,334.0 561.2,325.2 549.5,319.4 535.0,316.5 523.3,316.5 511.7,313.6 500.0,313.6 488.3,310.7 473.8,304.9 462.1,296.1 447.6,284.5 435.9,272.8 424.3,264.1 409.7,255.3 398.1,249.5 386.4,246.6 371.8,246.6 357.3,249.5 342.7,252.4 331.1,252.4 322.3,249.5 310.7,243.7 296.1,235.0 281.6,223.3 269.9,214.6 261.2,208.7 255.3,205.8 252.4,205.8 249.5,208.7 249.5,214.6 249.5,217.5 246.6,220.4 243.7,220.4 237.9,223.3 229.1,229.1 217.5,237.9 208.7,243.7 202.9,246.6 200.0,246.6 200.0,243.7 202.9,243.7 208.7,243.7 217.5,243.7 223.3,246.6 229.1,246.6 235.0,243.7 240.8,243.7 249.5,243.7 255.3,246.6 261.2,249.5 269.9,249.5 275.7,246.6 278.6,243.7 284.5,240.8 287.4,235.0 287.4,232.0 290.3,229.1 293.2,229.1 293.2,232.0 296.1,235.0 301.9,235.0 310.7,235.0 316.5,232.0 319.4,232.0 322.3,235.0 322.3,240.8 325.2,246.6 331.1,249.5 336.9,249.5 342.7,252.4 348.5,252.4 357.3,249.5 363.1,246.6 371.8,246.6 377.7,246.6 380.6,246.6 380.6,246.6 377.7,246.6 371.8,246.6 363.1,246.6 351.5,246.6 339.8,246.6 331.1,246.6 319.4,243.7 307.8,237.9 296.1,229.1 281.6,217.5 269.9,208.7 261.2,202.9 255.3,200.0 252.4,200.0 252.4,202.9 255.3,208.7 258.3,214.6 258.3,220.4 255.3,223.3 249.5,223.3 240.8,223.3 232.0,226.2 220.4,232.0 211.7,237.9 205.8,243.7 202.9,246.6 202.9,246.6 205.8,246.6 211.7,246.6 220.4,246.6 226.2,243.7 232.0,237.9 235.0,229.1 235.0,223.3 235.0,220.4 235.0,220.4 235.0,223.3 232.0,229.1 226.2,232.0 223.3,232.0 223.3,229.1 226.2,226.2 232.0,226.2 235.0,226.2 240.8,223.3 249.5,220.4 261.2,220.4 275.7,220.4 293.2,223.3 307.8,226.2 319.4,229.1 328.2,229.1 334.0,226.2 336.9,223.3 336.9,220.4 334.0,220.4 328.2,220.4 319.4,220.4 307.8,220.4" fill="none" stroke="red" stroke-width="7" stroke-opacity="0.5"/>
  <circle cx="296.1" cy="220.4" r="15" fill="blue" fill-opacity="0.5"/>
</svg>