<svg width="1000" height="1000" xmlns="http://www.w3.org/2000/svg">
  <rect x="200" y="200" width="600" height="600" fill="white" stroke="gray" stroke-width="5" />
  <circle cx="426.1" cy="275.4" r="7" fill="black" />
  <circle cx="403.3" cy="319.4" r="7" fill="black" />
  <circle cx="437.4" cy="259.7" r="7" fill="black" />
  <circle cx="423.2" cy="510.0" r="7" fill="black" />
  <circle cx="440.3" cy="254.0" r="7" fill="black" />
  <circle cx="406.2" cy="535.5" r="7" fill="black" />
  <circle cx="411.8" cy="298.1" r="7" fill="black" />
  <circle cx="251.2" cy="720.4" r="7" fill="black" />
  <circle cx="450.2" cy="228.4" r="7" fill="black" />
  <circle cx="417.5" cy="474.4" r="7" fill="black" />
  <circle cx="397.6" cy="389.1" r="7" fill="black" />
  <circle cx="266.8" cy="697.6" r="7" fill="black" />
  <circle cx="389.1" cy="549.8" r="7" fill="black" />
  <circle cx="308.1" cy="608.1" r="7" fill="black" />
  <circle cx="461.6" cy="214.2" r="7" fill="black" />
  <circle cx="320.9" cy="586.7" r="7" fill="black" />
  <circle cx="269.7" cy="689.1" r="7" fill="black" />
  <circle cx="457.3" cy="219.9" r="7" fill="black" />
  <circle cx="414.7" cy="468.7" r="7" fill="black" />
  <circle cx="399.1" cy="350.7" r="7" fill="black" />
  <circle cx="444.5" cy="204.3" r="7" fill="black" />
  <circle cx="400.5" cy="343.6" r="7" fill="black" />
  <circle cx="289.6" cy="652.1" r="7" fill="black" />
  <circle cx="423.2" cy="515.6" r="7" fill="black" />
  <circle cx="394.8" cy="546.9" r="7" fill="black" />
  <circle cx="410.4" cy="312.3" r="7" fill="black" />
  <circle cx="222.7" cy="723.2" r="7" fill="black" />
  <circle cx="404.7" cy="316.6" r="7" fill="black" />
  <circle cx="460.2" cy="211.4" r="7" fill="black" />
  <circle cx="208.5" cy="727.5" r="7" fill="black" />
  <circle cx="448.8" cy="205.7" r="7" fill="black" />
  <circle cx="276.8" cy="673.5" r="7" fill="black" />
  <circle cx="457.3" cy="208.5" r="7" fill="black" />
  <circle cx="410.4" cy="293.8" r="7" fill="black" />
  <circle cx="451.7" cy="225.6" r="7" fill="black" />
  <circle cx="238.4" cy="724.6" r="7" fill="black" />
  <circle cx="399.1" cy="367.8" r="7" fill="black" />
  <circle cx="399.1" cy="382.0" r="7" fill="black" />
  <circle cx="453.1" cy="205.7" r="7" fill="black" />
  <circle cx="401.9" cy="329.4" r="7" fill="black" />
  <circle cx="410.4" cy="285.3" r="7" fill="black" />
  <circle cx="343.6" cy="566.8" r="7" fill="black" />
  <circle cx="404.7" cy="443.1" r="7" fill="black" />
  <circle cx="399.1" cy="544.1" r="7" fill="black" />
  <circle cx="201.4" cy="734.6" r="7" fill="black" />
  <circle cx="410.4" cy="532.7" r="7" fill="black" />
  <circle cx="423.2" cy="494.3" r="7" fill="black" />
  <circle cx="200.0" cy="737.4" r="7" fill="black" />
  <circle cx="272.5" cy="682.0" r="7" fill="black" />
  <circle cx="218.5" cy="723.2" r="7" fill="black" />
  <circle cx="414.7" cy="528.4" r="7" fill="black" />
  <circle cx="204.3" cy="731.8" r="7" fill="black" />
  <circle cx="421.8" cy="487.2" r="7" fill="black" />
  <circle cx="366.4" cy="556.9" r="7" fill="black" />
  <circle cx="414.7" cy="278.2" r="7" fill="black" />
  <circle cx="433.2" cy="268.2" r="7" fill="black" />
  <circle cx="200.0" cy="740.3" r="7" fill="black" />
  <circle cx="403.3" cy="538.4" r="7" fill="black" />
  <circle cx="411.8" cy="281.0" r="7" fill="black" />
  <circle cx="410.4" cy="289.6" r="7" fill="black" />
  <circle cx="403.3" cy="431.8" r="7" fill="black" />
  <circle cx="420.4" cy="480.1" r="7" fill="black" />
  <circle cx="460.2" cy="217.1" r="7" fill="black" />
  <circle cx="413.3" cy="300.9" r="7" fill="black" />
  <circle cx="350.7" cy="562.6" r="7" fill="black" />
  <circle cx="454.5" cy="221.3" r="7" fill="black" />
  <circle cx="446.0" cy="238.4" r="7" fill="black" />
  <circle cx="411.8" cy="308.1" r="7" fill="black" />
  <circle cx="401.9" cy="541.2" r="7" fill="black" />
  <circle cx="430.3" cy="271.1" r="7" fill="black" />
  <circle cx="461.6" cy="212.8" r="7" fill="black" />
  <circle cx="215.6" cy="723.2" r="7" fill="black" />
  <circle cx="282.5" cy="663.5" r="7" fill="black" />
  <circle cx="455.9" cy="207.1" r="7" fill="black" />
  <circle cx="300.9" cy="628.0" r="7" fill="black" />
  <circle cx="448.8" cy="232.7" r="7" fill="black" />
  <circle cx="411.8" cy="461.6" r="7" fill="black" />
  <circle cx="359.2" cy="559.7" r="7" fill="black" />
  <circle cx="374.9" cy="554.0" r="7" fill="black" />
  <circle cx="423.2" cy="519.9" r="7" fill="black" />
  <circle cx="407.6" cy="315.2" r="7" fill="black" />
  <circle cx="382.0" cy="552.6" r="7" fill="black" />
  <circle cx="232.7" cy="724.6" r="7" fill="black" />
  <circle cx="330.8" cy="576.8" r="7" fill="black" />
  <circle cx="444.5" cy="244.1" r="7" fill="black" />
  <polyline points="438.9,200.0 440.3,201.4 443.1,202.8 444.5,204.3 447.4,205.7 448.8,205.7 451.7,205.7 453.1,205.7 455.9,207.1 457.3,208.5 460.2,211.4 461.6,212.8 461.6,214.2 460.2,217.1 457.3,219.9 454.5,221.3 451.7,224.2 450.2,228.4 448.8,232.7 446.0,238.4 444.5,244.1 441.7,251.2 437.4,259.7 433.2,268.2 427.5,275.4 420.4,281.0 414.7,285.3 410.4,289.6 407.6,292.4 406.2,293.8 406.2,293.8 407.6,293.8 410.4,293.8 411.8,295.3 411.8,298.1 413.3,300.9 413.3,305.2 411.8,308.1 410.4,312.3 407.6,315.2 403.3,319.4 400.5,323.7 399.1,326.5 399.1,328.0 400.5,329.4 401.9,329.4 404.7,328.0 406.2,325.1 406.2,320.9 404.7,316.6 404.7,310.9 406.2,303.8 409.0,295.3 410.4,285.3 413.3,276.8 417.5,269.7 423.2,264.0 430.3,259.7 436.0,256.9 440.3,254.0 446.0,249.8 451.7,244.1 455.9,237.0 458.8,231.3 460.2,227.0 460.2,224.2 458.8,222.7 455.9,222.7 453.1,224.2 451.7,225.6 448.8,228.4 444.5,232.7 438.9,238.4 431.8,245.5 426.1,254.0 421.8,264.0 416.1,272.5 411.8,281.0 409.0,288.2 407.6,293.8 407.6,298.1 409.0,300.9 411.8,302.4 413.3,302.4 414.7,300.9 414.7,298.1 414.7,293.8 414.7,288.2 414.7,282.5 414.7,278.2 416.1,275.4 419.0,273.9 423.2,273.9 426.1,275.4 428.9,275.4 430.3,273.9 430.3,271.1 428.9,269.7 426.1,269.7 421.8,271.1 416.1,273.9 409.0,278.2 401.9,283.9 396.2,291.0 391.9,299.5 389.1,309.5 387.7,320.9 387.7,333.6 389.1,345.0 391.9,355.0 394.8,363.5 397.6,372.0 399.1,382.0 399.1,391.9 400.5,403.3 403.3,416.1 404.7,430.3 404.7,443.1 406.2,455.9 409.0,467.3 413.3,477.3 419.0,485.8 423.2,494.3 426.1,501.4 427.5,507.1 427.5,511.4 426.1,515.6 423.2,519.9 419.0,525.6 414.7,529.9 410.4,532.7 406.2,535.5 403.3,538.4 401.9,541.2 399.1,544.1 394.8,546.9 389.1,549.8 382.0,552.6 374.9,554.0 366.4,556.9 359.2,559.7 350.7,562.6 343.6,566.8 335.1,572.5 328.0,579.6 320.9,586.7 312.3,595.3 305.2,605.2 299.5,616.6 295.3,629.4 289.6,643.6 282.5,659.2 276.8,673.5 269.7,689.1 261.1,704.7 251.2,720.4 242.7,734.6 235.5,747.4 229.9,758.8 225.6,768.7 222.7,777.3 218.5,784.4 214.2,790.0 208.5,794.3 204.3,797.2 201.4,798.6 200.0,798.6 200.0,797.2 200.0,794.3 200.0,790.0 200.0,784.4 200.0,777.3 200.0,768.7 200.0,758.8 200.0,747.4 200.0,737.4 201.4,728.9 204.3,721.8 208.5,716.1 211.4,711.8 214.2,709.0 215.6,707.6 215.6,707.6 215.6,709.0 215.6,711.8 215.6,716.1 215.6,720.4 215.6,723.2 217.1,724.6 218.5,724.6 218.5,723.2 219.9,723.2 222.7,723.2 227.0,724.6 232.7,724.6 238.4,724.6 244.1,723.2 251.2,720.4 259.7,716.1 266.8,710.4 272.5,703.3 276.8,694.8 279.6,684.8 282.5,673.5 285.3,663.5 289.6,652.1 295.3,639.3 300.9,628.0 305.2,618.0 308.1,608.1 312.3,596.7 318.0,586.7 323.7,578.2 328.0,571.1 330.8,565.4 332.2,561.1 332.2,558.3 332.2,556.9 330.8,556.9 330.8,558.3 330.8,561.1 330.8,565.4 330.8,571.1 330.8,576.8 329.4,583.9 326.5,592.4 322.3,602.4 316.6,613.7 309.5,626.5 300.9,640.8 291.0,656.4 282.5,670.6 273.9,683.4 266.8,697.6 258.3,710.4 248.3,721.8 238.4,731.8 229.9,740.3 221.3,747.4 214.2,753.1 208.5,757.3 204.3,760.2 201.4,761.6 200.0,761.6 200.0,760.2 200.0,757.3 200.0,753.1 200.0,747.4 200.0,740.3 201.4,734.6 204.3,730.3 208.5,727.5 211.4,726.1 212.8,726.1 212.8,727.5 211.4,730.3 208.5,731.8 204.3,731.8 201.4,730.3 200.0,727.5 200.0,723.2 201.4,717.5 204.3,710.4 208.5,701.9 214.2,691.9 221.3,683.4 229.9,676.3 239.8,670.6 251.2,663.5 261.1,657.8 269.7,653.6 276.8,650.7 282.5,649.3 286.7,649.3 289.6,650.7 291.0,653.6 291.0,657.8 289.6,662.1 286.7,664.9 283.9,666.4 282.5,666.4 282.5,664.9 282.5,663.5 281.0,663.5 278.2,664.9 273.9,667.8 271.1,672.0 269.7,676.3 269.7,679.1 271.1,680.6 272.5,682.0 275.4,682.0 279.6,680.6 285.3,677.7 292.4,673.5 300.9,667.8 310.9,660.7 322.3,652.1 335.1,642.2 349.3,630.8 364.9,618.0 382.0,603.8 397.6,588.2 411.8,573.9 424.6,561.1 436.0,549.8 446.0,539.8 454.5,531.3 461.6,524.2 467.3,518.5 471.6,514.2 474.4,511.4 475.8,510.0 475.8,510.0 474.4,510.0 471.6,510.0 467.3,510.0 461.6,510.0 454.5,510.0 446.0,510.0 437.4,510.0 430.3,510.0 423.2,510.0 417.5,511.4 413.3,514.2 410.4,518.5 409.0,524.2 409.0,528.4 410.4,531.3 413.3,532.7 414.7,532.7 414.7,531.3 414.7,528.4 416.1,524.2 419.0,519.9 423.2,515.6 426.1,510.0 427.5,502.8 427.5,494.3 426.1,487.2 423.2,480.1 419.0,474.4 414.7,468.7 411.8,461.6 407.6,453.1 404.7,443.1 403.3,431.8 400.5,419.0 397.6,404.7 396.2,389.1 396.2,374.9 397.6,362.1 399.1,350.7 401.9,340.8 404.7,332.2 406.2,325.1 406.2,319.4 406.2,315.2 404.7,312.3 401.9,310.9 400.5,310.9 400.5,312.3 400.5,315.2 400.5,319.4 400.5,325.1 400.5,332.2 400.5,337.9 400.5,343.6 399.1,350.7 399.1,359.2 399.1,367.8 397.6,377.7 397.6,389.1 399.1,401.9 401.9,416.1 406.2,431.8 411.8,448.8 417.5,467.3 421.8,487.2 427.5,505.7 433.2,522.7 437.4,538.4 440.3,552.6 441.7,565.4 443.1,576.8 443.1,586.7 441.7,595.3 438.9,602.4 434.6,608.1 428.9,612.3 424.6,615.2 421.8,616.6 420.4,616.6 420.4,615.2 420.4,612.3 420.4,608.1 420.4,602.4 420.4,595.3 420.4,586.7 420.4,576.8 420.4,565.4 420.4,552.6 420.4,538.4 420.4,522.7 420.4,505.7 419.0,490.0 417.5,474.4 417.5,460.2 419.0,447.4 421.8,436.0 424.6,426.1 427.5,417.5 428.9,410.4 428.9,404.7 427.5,400.5 424.6,397.6 421.8,396.2 420.4,396.2 420.4,397.6 420.4,400.5 420.4,404.7 420.4,410.4 420.4,417.5 420.4,426.1 420.4,436.0 420.4,447.4 420.4,458.8 420.4,470.1" fill="none" stroke="red" stroke-width="7" stroke-opacity="0.5"/>
  <circle cx="420.4" cy="480.1" r="15" fill="blue" fill-opacity="0.5"/>
</svg>