<svg width="1000" height="1000" xmlns="http://www.w3.org/2000/svg">
  <rect x="200" y="200" width="600" height="600" fill="white" stroke="gray" stroke-width="5" />
  <circle cx="684.6" cy="615.6" r="7" fill="black" />
  <circle cx="762.7" cy="722.2" r="7" fill="black" />
  <circle cx="566.0" cy="498.0" r="7" fill="black" />
  <circle cx="551.5" cy="486.4" r="7" fill="black" />
  <circle cx="515.7" cy="460.4" r="7" fill="black" />
  <circle cx="329.8" cy="332.4" r="7" fill="black" />
  <circle cx="771.1" cy="740.0" r="7" fill="black" />
  <circle cx="753.0" cy="706.0" r="7" fill="black" />
  <circle cx="789.9" cy="778.3" r="7" fill="black" />
  <circle cx="353.0" cy="350.1" r="7" fill="black" />
  <circle cx="372.5" cy="363.5" r="7" fill="black" />
  <circle cx="305.2" cy="312.1" r="7" fill="black" />
  <circle cx="247.4" cy="259.7" r="7" fill="black" />
  <circle cx="347.2" cy="345.8" r="7" fill="black" />
  <circle cx="427.1" cy="400.7" r="7" fill="black" />
  <circle cx="794.6" cy="788.1" r="7" fill="black" />
  <circle cx="473.8" cy="433.3" r="7" fill="black" />
  <circle cx="580.8" cy="510.3" r="7" fill="black" />
  <circle cx="595.3" cy="523.3" r="7" fill="black" />
  <circle cx="406.5" cy="387.0" r="7" fill="black" />
  <circle cx="453.9" cy="419.5" r="7" fill="black" />
  <circle cx="324.8" cy="328.4" r="7" fill="black" />
  <circle cx="703.8" cy="638.3" r="7" fill="black" />
  <circle cx="252.4" cy="265.1" r="7" fill="black" />
  <circle cx="670.9" cy="601.4" r="7" fill="black" />
  <circle cx="399.6" cy="382.3" r="7" fill="black" />
  <circle cx="738.2" cy="682.8" r="7" fill="black" />
  <circle cx="639.4" cy="563.5" r="7" fill="black" />
  <circle cx="537.1" cy="475.6" r="7" fill="black" />
  <circle cx="558.8" cy="492.2" r="7" fill="black" />
  <circle cx="234.0" cy="243.8" r="7" fill="black" />
  <circle cx="262.2" cy="275.2" r="7" fill="black" />
  <circle cx="645.9" cy="570.7" r="7" fill="black" />
  <circle cx="664.4" cy="593.9" r="7" fill="black" />
  <circle cx="379.4" cy="367.8" r="7" fill="black" />
  <circle cx="467.3" cy="428.6" r="7" fill="black" />
  <circle cx="278.5" cy="289.3" r="7" fill="black" />
  <circle cx="341.0" cy="341.0" r="7" fill="black" />
  <circle cx="319.7" cy="324.4" r="7" fill="black" />
  <circle cx="272.7" cy="285.0" r="7" fill="black" />
  <circle cx="433.6" cy="405.4" r="7" fill="black" />
  <circle cx="420.3" cy="396.0" r="7" fill="black" />
  <circle cx="213.4" cy="214.5" r="7" fill="black" />
  <circle cx="238.3" cy="249.2" r="7" fill="black" />
  <circle cx="799.6" cy="797.5" r="7" fill="black" />
  <circle cx="289.7" cy="298.7" r="7" fill="black" />
  <circle cx="529.8" cy="470.5" r="7" fill="black" />
  <circle cx="697.6" cy="630.4" r="7" fill="black" />
  <circle cx="335.3" cy="336.7" r="7" fill="black" />
  <circle cx="487.5" cy="441.6" r="7" fill="black" />
  <circle cx="727.3" cy="668.0" r="7" fill="black" />
  <circle cx="460.4" cy="423.9" r="7" fill="black" />
  <circle cx="658.2" cy="585.9" r="7" fill="black" />
  <circle cx="359.1" cy="354.8" r="7" fill="black" />
  <circle cx="365.6" cy="359.1" r="7" fill="black" />
  <circle cx="230.0" cy="238.3" r="7" fill="black" />
  <circle cx="743.2" cy="690.4" r="7" fill="black" />
  <circle cx="588.1" cy="516.8" r="7" fill="black" />
  <circle cx="691.1" cy="622.8" r="7" fill="black" />
  <circle cx="309.9" cy="316.1" r="7" fill="black" />
  <circle cx="544.3" cy="481.0" r="7" fill="black" />
  <circle cx="208.7" cy="208.3" r="7" fill="black" />
  <circle cx="677.8" cy="608.7" r="7" fill="black" />
  <circle cx="300.2" cy="307.8" r="7" fill="black" />
  <circle cx="447.0" cy="414.8" r="7" fill="black" />
  <circle cx="775.4" cy="749.0" r="7" fill="black" />
  <circle cx="385.9" cy="372.5" r="7" fill="black" />
  <circle cx="747.9" cy="698.4" r="7" fill="black" />
  <circle cx="780.1" cy="758.4" r="7" fill="black" />
  <circle cx="602.9" cy="530.2" r="7" fill="black" />
  <circle cx="632.5" cy="556.2" r="7" fill="black" />
  <circle cx="610.5" cy="536.7" r="7" fill="black" />
  <circle cx="392.8" cy="377.2" r="7" fill="black" />
  <circle cx="618.1" cy="542.9" r="7" fill="black" />
  <circle cx="284.3" cy="294.0" r="7" fill="black" />
  <circle cx="413.4" cy="391.3" r="7" fill="black" />
  <circle cx="508.1" cy="455.3" r="7" fill="black" />
  <circle cx="709.6" cy="645.9" r="7" fill="black" />
  <circle cx="494.0" cy="445.9" r="7" fill="black" />
  <circle cx="758.0" cy="713.9" r="7" fill="black" />
  <circle cx="785.2" cy="768.2" r="7" fill="black" />
  <circle cx="295.1" cy="303.1" r="7" fill="black" />
  <circle cx="440.5" cy="410.1" r="7" fill="black" />
  <circle cx="226.4" cy="232.5" r="7" fill="black" />
  <circle cx="222.4" cy="226.4" r="7" fill="black" />
  <circle cx="242.7" cy="254.2" r="7" fill="black" />
  <circle cx="721.5" cy="660.8" r="7" fill="black" />
  <circle cx="652.1" cy="578.3" r="7" fill="black" />
  <circle cx="314.6" cy="320.1" r="7" fill="black" />
  <circle cx="218.1" cy="220.6" r="7" fill="black" />
  <circle cx="715.4" cy="653.2" r="7" fill="black" />
  <circle cx="767.1" cy="730.9" r="7" fill="black" />
  <circle cx="480.7" cy="437.6" r="7" fill="black" />
  <circle cx="732.7" cy="675.2" r="7" fill="black" />
  <circle cx="625.3" cy="549.4" r="7" fill="black" />
  <circle cx="500.9" cy="450.6" r="7" fill="black" />
  <circle cx="267.3" cy="280.3" r="7" fill="black" />
  <circle cx="573.2" cy="504.2" r="7" fill="black" />
  <circle cx="523.0" cy="465.5" r="7" fill="black" />
  <circle cx="257.1" cy="270.2" r="7" fill="black" />
  <polyline points="200.0,200.0 200.4,200.4 201.1,201.1 201.8,201.8 202.5,202.5 203.3,203.3 204.0,204.0 204.7,204.7 205.4,205.4 206.1,206.1 206.9,206.9 207.6,207.6 208.3,208.3 208.7,208.7 208.7,208.7 208.7,208.3 209.0,208.3 209.8,208.7 210.5,209.4 211.2,210.1 211.9,210.8 212.7,211.6 213.4,212.3 213.7,213.0 213.7,213.7 213.4,214.5 213.4,215.2 213.7,215.9 214.5,216.6 215.2,217.4 215.9,218.1 216.6,218.8 217.4,219.5 218.1,220.3 218.4,220.6 218.4,220.6 218.1,220.6 218.1,221.0 218.4,221.7 219.2,222.4 219.9,223.1 220.6,223.9 221.3,224.6 222.1,225.3 222.4,226.0 222.4,226.4 222.8,227.1 223.5,227.8 224.2,228.6 225.0,229.3 225.7,230.0 226.4,230.7 226.8,231.5 226.8,232.2 226.4,232.5 226.4,233.3 226.8,234.0 227.5,234.7 228.2,235.4 228.9,236.2 229.7,236.9 230.0,237.6 230.0,238.3 230.4,239.1 231.1,239.8 231.8,240.5 232.5,241.2 233.3,242.0 234.0,242.7 234.4,243.4 234.4,243.8 234.0,243.8 234.0,244.1 234.4,244.8 235.1,245.6 235.8,246.3 236.5,247.0 237.3,247.7 238.0,248.5 238.3,249.2 239.1,249.9 239.8,250.6 240.5,251.4 241.2,252.1 242.0,252.8 242.7,253.5 243.0,254.2 243.0,254.6 242.7,254.6 242.7,254.2 243.0,254.2 243.8,254.6 244.5,255.3 245.2,256.1 245.9,256.8 246.7,257.5 247.4,258.2 247.7,259.0 247.7,259.7 247.4,260.0 247.4,260.0 247.4,259.7 247.7,259.7 248.5,260.0 249.2,260.8 249.9,261.5 250.6,262.2 251.4,262.9 252.1,263.7 252.4,264.4 252.4,265.1 252.8,265.8 253.5,266.5 254.2,267.3 255.0,268.0 255.7,268.7 256.4,269.4 257.1,270.2 257.9,270.9 258.6,271.6 259.3,272.3 260.0,273.1 260.8,273.8 261.5,274.5 262.2,275.2 262.9,275.9 263.7,276.7 264.4,277.4 265.1,278.1 265.8,278.8 266.5,279.6 267.3,280.3 268.0,281.0 268.7,281.7 269.4,282.5 270.2,283.2 270.9,283.9 271.6,284.6 272.3,285.0 272.7,285.0 273.4,285.4 274.1,286.1 274.9,286.8 275.6,287.5 276.3,288.2 277.0,289.0 277.8,289.3 278.5,289.3 279.2,289.7 279.9,290.4 280.7,291.1 281.4,291.9 282.1,292.6 282.8,293.3 283.5,294.0 284.3,294.4 284.6,294.4 284.6,294.0 284.3,294.0 284.3,294.4 284.6,295.1 285.4,295.8 286.1,296.6 286.8,297.3 287.5,298.0 288.2,298.7 289.0,299.1 289.7,299.1 290.1,298.7 290.1,298.7 289.7,298.7 289.7,299.1 290.1,299.8 290.8,300.5 291.5,301.3 292.2,302.0 292.9,302.7 293.7,303.1 294.4,303.1 295.1,303.1 295.8,303.4 296.6,304.2 297.3,304.9 298.0,305.6 298.7,306.3 299.5,307.1 300.2,307.8 300.9,308.5 301.6,309.2 302.4,309.9 303.1,310.7 303.8,311.4 304.5,312.1 305.2,312.5 305.6,312.5 305.6,312.1 305.2,312.1 305.2,312.5 305.6,313.2 306.3,313.9 307.1,314.6 307.8,315.4 308.5,316.1 309.2,316.5 309.9,316.5 310.3,316.1 310.3,316.1 309.9,316.1 309.9,316.5 310.3,317.2 311.0,317.9 311.8,318.6 312.5,319.3 313.2,320.1 313.9,320.4 314.6,320.4 315.0,320.1 315.0,320.1 314.6,320.1 314.6,320.4 315.0,321.2 315.7,321.9 316.5,322.6 317.2,323.3 317.9,324.1 318.6,324.4 319.3,324.4 319.7,324.4 320.4,324.8 321.2,325.5 321.9,326.2 322.6,326.9 323.3,327.7 324.1,328.4 324.8,328.8 325.1,328.8 325.1,328.4 324.8,328.4 324.8,328.8 325.1,329.5 325.9,330.2 326.6,330.9 327.3,331.6 328.0,332.4 328.8,332.7 329.5,332.7 329.8,332.4 330.6,332.4 331.3,332.7 332.0,333.5 332.7,334.2 333.5,334.9 334.2,335.6 334.9,336.3 335.3,336.7 336.0,337.4 336.7,338.2 337.4,338.9 338.2,339.6 338.9,340.3 339.6,341.0 340.3,341.4 341.0,341.4 341.4,341.0 341.4,341.0 341.0,341.0 341.0,341.4 341.4,342.1 342.1,342.9 342.9,343.6 343.6,344.3 344.3,345.0 345.0,345.8 345.8,346.1 346.5,346.1 347.2,345.8 347.9,345.8 348.6,346.1 349.4,346.8 350.1,347.6 350.8,348.3 351.5,349.0 352.3,349.7 353.0,350.1 353.7,350.8 354.4,351.5 355.2,352.3 355.9,353.0 356.6,353.7 357.3,354.4 358.0,354.8 358.8,354.8 359.1,354.8 359.9,355.2 360.6,355.9 361.3,356.6 362.0,357.3 362.7,358.0 363.5,358.8 364.2,359.1 364.9,359.1 365.6,359.1 366.4,359.5 367.1,360.2 367.8,360.9 368.5,361.7 369.3,362.4 370.0,363.1 370.7,363.5 371.4,363.5 372.2,363.5 372.5,363.5 373.2,363.8 374.0,364.6 374.7,365.3 375.4,366.0 376.1,366.7 376.9,367.5 377.6,367.8 378.3,367.8 379.0,367.8 379.4,367.8 380.1,368.2 380.8,368.9 381.6,369.6 382.3,370.3 383.0,371.1 383.7,371.8 384.4,372.5 385.2,372.9 385.9,372.9 386.3,372.5 386.3,372.5 385.9,372.5 385.9,372.9 386.3,373.6 387.0,374.3 387.7,375.0 388.4,375.8 389.2,376.5 389.9,377.2 390.6,377.6 391.3,377.6 392.0,377.2 392.8,377.2 393.5,377.6 394.2,378.3 394.9,379.0 395.7,379.7 396.4,380.5 397.1,381.2 397.8,381.9 398.6,382.3 399.3,382.3 399.6,382.3 400.4,382.6 401.1,383.4 401.8,384.1 402.5,384.8 403.3,385.5 404.0,386.3 404.7,387.0 405.4,387.3 406.1,387.3 406.5,387.0 407.2,387.0 408.0,387.3 408.7,388.1 409.4,388.8 410.1,389.5 410.8,390.2 411.6,391.0 412.3,391.3 413.0,391.3 413.4,391.3 414.1,391.7 414.8,392.4 415.6,393.1 416.3,393.9 417.0,394.6 417.7,395.3 418.4,396.0 419.2,396.4 419.9,396.4 420.3,396.0 421.0,396.0 421.7,396.4 422.4,397.1 423.1,397.8 423.9,398.6 424.6,399.3 425.3,400.0 426.0,400.7 426.8,401.1 427.1,401.1 427.1,400.7 427.5,400.7 428.2,401.1 428.9,401.8 429.7,402.5 430.4,403.3 431.1,404.0 431.8,404.7 432.5,405.4 433.3,405.8 433.6,405.8 433.6,405.4 434.0,405.4 434.7,405.8 435.4,406.5 436.2,407.2 436.9,408.0 437.6,408.7 438.3,409.4 439.1,410.1 439.8,410.5 440.5,410.5 440.9,410.1 440.9,410.1 440.5,410.1 440.5,410.5 440.9,411.2 441.6,411.9 442.3,412.7 443.0,413.4 443.8,414.1 444.5,414.8 445.2,415.2 445.9,415.2 446.7,414.8 447.0,414.8 447.7,415.2 448.5,415.9 449.2,416.6 449.9,417.4 450.6,418.1 451.4,418.8 452.1,419.5 452.8,419.9 453.5,419.9 453.9,419.5 454.6,419.5 455.3,419.9 456.1,420.6 456.8,421.3 457.5,422.1 458.2,422.8 459.0,423.5 459.7,423.9 460.4,423.9 461.1,424.2 461.8,425.0 462.6,425.7 463.3,426.4 464.0,427.1 464.7,427.8 465.5,428.6 466.2,428.9 466.9,428.9 467.3,428.6 468.0,428.6 468.7,428.9 469.4,429.7 470.2,430.4 470.9,431.1 471.6,431.8 472.3,432.5 473.1,433.3 473.8,433.6 474.1,433.6 474.1,433.3 473.8,433.3 473.8,433.6 474.1,434.4 474.9,435.1 475.6,435.8 476.3,436.5 477.0,437.3 477.8,437.6 478.5,437.6 479.2,437.6 479.9,437.6 480.7,437.6 481.4,438.0 482.1,438.7 482.8,439.4 483.5,440.1 484.3,440.9 485.0,441.6 485.7,442.0 486.4,442.0 487.2,441.6 487.5,441.6 488.2,442.0 489.0,442.7 489.7,443.4 490.4,444.1 491.1,444.8 491.9,445.6 492.6,445.9 493.3,445.9 494.0,445.9 494.8,446.3 495.5,447.0 496.2,447.7 496.9,448.5 497.6,449.2 498.4,449.9 499.1,450.6 499.8,451.0 500.5,451.0 500.9,450.6 501.6,450.6 502.4,451.0 503.1,451.7 503.8,452.4 504.5,453.2 505.2,453.9 506.0,454.6 506.7,455.3 507.4,455.7 508.1,455.7 508.5,455.3 508.5,455.3 508.1,455.3 508.1,455.7 508.5,456.4 509.2,457.1 509.9,457.9 510.7,458.6 511.4,459.3 512.1,460.0 512.8,460.4 513.6,460.4 514.3,460.4 515.0,460.4 515.7,460.4 516.5,460.8 517.2,461.5 517.9,462.2 518.6,462.9 519.3,463.7 520.1,464.4 520.8,465.1 521.5,465.5 522.2,465.5 523.0,465.5 523.7,465.8 524.4,466.5 525.1,467.3 525.9,468.0 526.6,468.7 527.3,469.4 528.0,470.2 528.8,470.5 529.5,470.5 529.8,470.5 530.6,470.9 531.3,471.6 532.0,472.3 532.7,473.1 533.5,473.8 534.2,474.5 534.9,475.2 535.6,475.6 536.3,475.6 537.1,475.6 537.8,475.9 538.5,476.7 539.2,477.4 540.0,478.1 540.7,478.8 541.4,479.6 542.1,480.3 542.9,481.0 543.6,481.4 544.3,481.4 544.7,481.0 544.7,481.0 544.3,481.0 544.3,481.4 544.7,482.1 545.4,482.8 546.1,483.5 546.8,484.3 547.6,485.0 548.3,485.7 549.0,486.4 549.7,486.8 550.5,486.8 551.2,486.4 551.5,486.4 552.3,486.8 553.0,487.5 553.7,488.2 554.4,489.0 555.2,489.7 555.9,490.4 556.6,491.1 557.3,491.9 558.0,492.2 558.8,492.2 559.5,492.6 560.2,493.3 560.9,494.0 561.7,494.8 562.4,495.5 563.1,496.2 563.8,496.9 564.6,497.6 565.3,498.0 566.0,498.0 566.7,498.4 567.5,499.1 568.2,499.8 568.9,500.5 569.6,501.3 570.3,502.0 571.1,502.7 571.8,503.4 572.5,504.2 573.2,504.5 573.6,504.5 573.6,504.2 573.2,504.2 573.2,504.5 573.6,505.2 574.3,506.0 575.0,506.7 575.8,507.4 576.5,508.1 577.2,508.9 577.9,509.6 578.7,510.3 579.4,510.7 580.1,510.7 580.8,510.3 581.6,510.3 582.3,510.7 583.0,511.4 583.7,512.1 584.4,512.8 585.2,513.6 585.9,514.3 586.6,515.0 587.3,515.7 588.1,516.5 588.4,516.8 588.4,516.8 588.1,516.8 588.1,517.2 588.4,517.9 589.2,518.6 589.9,519.3 590.6,520.1 591.3,520.8 592.0,521.5 592.8,522.2 593.5,523.0 594.2,523.3 594.9,523.3 595.3,523.3 596.0,523.7 596.7,524.4 597.5,525.1 598.2,525.9 598.9,526.6 599.6,527.3 600.4,528.0 601.1,528.8 601.8,529.5 602.5,530.2 602.9,530.6 602.9,530.6 602.9,530.2 603.3,530.2 604.0,530.6 604.7,531.3 605.4,532.0 606.1,532.7 606.9,533.5 607.6,534.2 608.3,534.9 609.0,535.6 609.8,536.3 610.5,536.7 611.2,537.4 611.9,538.2 612.7,538.9 613.4,539.6 614.1,540.3 614.8,541.0 615.6,541.8 616.3,542.5 617.0,542.9 617.7,542.9 618.1,542.9 618.8,543.2 619.5,543.9 620.3,544.7 621.0,545.4 621.7,546.1 622.4,546.8 623.1,547.6 623.9,548.3 624.6,549.0 625.3,549.4 626.0,550.1 626.8,550.8 627.5,551.5 628.2,552.3 628.9,553.0 629.7,553.7 630.4,554.4 631.1,555.2 631.8,555.9 632.5,556.2 633.3,557.0 634.0,557.7 634.7,558.4 635.4,559.1 636.2,559.9 636.9,560.6 637.6,561.3 638.3,562.0 639.1,562.7 639.4,563.5 640.1,564.2 640.9,564.9 641.6,565.6 642.3,566.4 643.0,567.1 643.8,567.8 644.5,568.5 645.2,569.3 645.9,570.0 646.3,570.7 646.3,571.1 645.9,571.1 645.9,570.7 646.3,570.7 647.0,571.1 647.7,571.8 648.5,572.5 649.2,573.2 649.9,574.0 650.6,574.7 651.4,575.4 652.1,576.1 652.4,576.9 652.4,577.6 652.1,578.3 652.1,579.0 652.4,579.7 653.2,580.5 653.9,581.2 654.6,581.9 655.3,582.6 656.1,583.4 656.8,584.1 657.5,584.8 658.2,585.5 658.6,585.9 658.6,585.9 658.2,585.9 658.2,586.3 658.6,587.0 659.3,587.7 660.0,588.4 660.8,589.2 661.5,589.9 662.2,590.6 662.9,591.3 663.7,592.0 664.4,592.8 664.7,593.5 664.7,593.9 664.4,593.9 664.4,594.2 664.7,594.9 665.5,595.7 666.2,596.4 666.9,597.1 667.6,597.8 668.4,598.6 669.1,599.3 669.8,600.0 670.5,600.7 670.9,601.4 671.6,602.2 672.3,602.9 673.1,603.6 673.8,604.3 674.5,605.1 675.2,605.8 675.9,606.5 676.7,607.2 677.4,608.0 677.8,608.7 678.5,609.4 679.2,610.1 679.9,610.8 680.7,611.6 681.4,612.3 682.1,613.0 682.8,613.7 683.5,614.5 684.3,615.2 684.6,615.6 685.4,616.3 686.1,617.0 686.8,617.7 687.5,618.4 688.2,619.2 689.0,619.9 689.7,620.6 690.4,621.3 691.1,622.1 691.5,622.8 691.5,623.1 691.1,623.1 691.1,622.8 691.5,622.8 692.2,623.1 692.9,623.9 693.7,624.6 694.4,625.3 695.1,626.0 695.8,626.8 696.6,627.5 697.3,628.2 697.6,628.9 697.6,629.7 697.6,630.4 698.0,631.1 698.7,631.8 699.5,632.5 700.2,633.3 700.9,634.0 701.6,634.7 702.4,635.4 703.1,636.2 703.8,636.9 704.2,637.6 704.2,638.3 703.8,638.7 703.8,638.7 703.8,638.3 704.2,638.3 704.9,638.7 705.6,639.4 706.3,640.1 707.1,640.9 707.8,641.6 708.5,642.3 709.2,643.0 709.6,643.8 709.6,644.5 709.6,645.2 709.6,645.9 709.9,646.7 710.7,647.4 711.4,648.1 712.1,648.8 712.8,649.5 713.6,650.3 714.3,651.0 715.0,651.7 715.4,652.4 715.4,653.2 715.7,653.9 716.5,654.6 717.2,655.3 717.9,656.1 718.6,656.8 719.3,657.5 720.1,658.2 720.8,659.0 721.5,659.7 721.9,660.4 721.9,660.8 721.5,660.8 721.5,661.1 721.9,661.8 722.6,662.6 723.3,663.3 724.1,664.0 724.8,664.7 725.5,665.5 726.2,666.2 726.9,666.9 727.3,667.6 727.3,668.0 727.7,668.7 728.4,669.4 729.1,670.2 729.8,670.9 730.6,671.6 731.3,672.3 732.0,673.1 732.7,673.8 733.1,674.5 733.1,675.2 732.7,675.6 732.7,675.6 732.7,675.2 733.1,675.2 733.8,675.6 734.5,676.3 735.3,677.0 736.0,677.8 736.7,678.5 737.4,679.2 738.2,679.9 738.5,680.7 738.5,681.4 738.2,682.1 738.2,682.8 738.5,683.5 739.2,684.3 740.0,685.0 740.7,685.7 741.4,686.4 742.1,687.2 742.9,687.9 743.2,688.6 743.2,689.3 743.2,690.1 743.2,690.4 743.6,691.1 744.3,691.9 745.0,692.6 745.8,693.3 746.5,694.0 747.2,694.8 747.9,695.5 748.3,696.2 748.3,696.9 747.9,697.6 747.9,698.4 748.3,699.1 749.0,699.8 749.7,700.5 750.5,701.3 751.2,702.0 751.9,702.7 752.6,703.4 753.0,704.2 753.0,704.9 753.0,705.6 753.0,706.0 753.3,706.7 754.1,707.4 754.8,708.1 755.5,708.9 756.2,709.6 757.0,710.3 757.7,711.0 758.0,711.8 758.0,712.5 758.0,713.2 758.0,713.9 758.4,714.6 759.1,715.4 759.9,716.1 760.6,716.8 761.3,717.5 762.0,718.3 762.7,719.0 763.1,719.7 763.1,720.4 762.7,721.2 762.7,721.9 762.7,722.2 763.1,723.0 763.8,723.7 764.6,724.4 765.3,725.1 766.0,725.9 766.7,726.6 767.1,727.3 767.1,728.0 767.1,728.8 767.1,729.5 767.1,730.2 767.1,730.9 767.5,731.6 768.2,732.4 768.9,733.1 769.6,733.8 770.3,734.5 771.1,735.3 771.4,736.0 771.4,736.7 771.1,737.4 771.1,738.2 771.1,738.9 771.1,739.6 771.1,740.0 771.4,740.7 772.2,741.4 772.9,742.1 773.6,742.9 774.3,743.6 775.0,744.3 775.4,745.0 775.4,745.8 775.4,746.5 775.4,747.2 775.4,747.9 775.4,748.6 775.4,749.0 775.8,749.7 776.5,750.5 777.2,751.2 777.9,751.9 778.7,752.6 779.4,753.3 780.1,754.1 780.5,754.8 780.5,755.5 780.1,756.2 780.1,757.0 780.1,757.7 780.1,758.4 780.5,759.1 781.2,759.9 781.9,760.6 782.6,761.3 783.4,762.0 784.1,762.7 784.8,763.5 785.2,764.2 785.2,764.9 785.2,765.6 785.2,766.4 785.2,767.1 785.2,767.8 785.2,768.2 785.5,768.9 786.3,769.6 787.0,770.3 787.7,771.1 788.4,771.8 789.2,772.5 789.9,773.2 790.2,774.0 790.2,774.7 789.9,775.4 789.9,776.1 789.9,776.9 789.9,777.6 789.9,778.3 790.2,779.0 791.0,779.7 791.7,780.5 792.4,781.2 793.1,781.9 793.9,782.6 794.6,783.4 794.9,784.1 794.9,784.8 794.6,785.5 794.6,786.3 794.6,787.0 794.6,787.7 794.6,788.1 794.9,788.8 795.7,789.5 796.4,790.2 797.1,791.0 797.8,791.7 798.6,792.4 799.3,793.1 799.6,793.9 799.6,794.6 799.6,795.3 799.6,796.0 799.6,796.7" fill="none" stroke="red" stroke-width="7" stroke-opacity="0.5"/>
  <circle cx="799.6" cy="797.5" r="15" fill="blue" fill-opacity="0.5"/>
</svg>